%TF.GenerationSoftware,KiCad,Pcbnew,(5.1.9)-1*%
%TF.CreationDate,2021-05-31T10:41:25+02:00*%
%TF.ProjectId,02_Batt_Alim,30325f42-6174-4745-9f41-6c696d2e6b69,rev?*%
%TF.SameCoordinates,Original*%
%TF.FileFunction,Copper,L2,Bot*%
%TF.FilePolarity,Positive*%
%FSLAX46Y46*%
G04 Gerber Fmt 4.6, Leading zero omitted, Abs format (unit mm)*
G04 Created by KiCad (PCBNEW (5.1.9)-1) date 2021-05-31 10:41:25*
%MOMM*%
%LPD*%
G01*
G04 APERTURE LIST*
%TA.AperFunction,Profile*%
%ADD10C,0.050000*%
%TD*%
%TA.AperFunction,SMDPad,CuDef*%
%ADD11R,2.200000X3.300000*%
%TD*%
%TA.AperFunction,ComponentPad*%
%ADD12C,1.000000*%
%TD*%
%TA.AperFunction,ComponentPad*%
%ADD13C,1.524000*%
%TD*%
%TA.AperFunction,ComponentPad*%
%ADD14C,0.100000*%
%TD*%
%TA.AperFunction,ViaPad*%
%ADD15C,1.000000*%
%TD*%
%TA.AperFunction,Conductor*%
%ADD16C,0.400000*%
%TD*%
%TA.AperFunction,Conductor*%
%ADD17C,1.000000*%
%TD*%
%TA.AperFunction,Conductor*%
%ADD18C,0.254000*%
%TD*%
%TA.AperFunction,Conductor*%
%ADD19C,0.100000*%
%TD*%
G04 APERTURE END LIST*
D10*
X130810000Y-82550000D02*
X129540000Y-82550000D01*
X130810000Y-85090000D02*
X130810000Y-82550000D01*
X129540000Y-85090000D02*
X130810000Y-85090000D01*
X129540000Y-87630000D02*
X129540000Y-85090000D01*
X100330000Y-85090000D02*
X101600000Y-85090000D01*
X100330000Y-80010000D02*
X100330000Y-85090000D01*
X101600000Y-80010000D02*
X100330000Y-80010000D01*
X101600000Y-77470000D02*
X101600000Y-80010000D01*
X100330000Y-77470000D02*
X101600000Y-77470000D01*
X100330000Y-72390000D02*
X100330000Y-77470000D01*
X101600000Y-72390000D02*
X100330000Y-72390000D01*
X101600000Y-69850000D02*
X101600000Y-72390000D01*
X100340000Y-69850000D02*
X101600000Y-69850000D01*
X129540000Y-62230000D02*
X129540000Y-82550000D01*
X101600000Y-62230000D02*
X129540000Y-62230000D01*
X101600000Y-85090000D02*
X101600000Y-87630000D01*
X101600000Y-62230000D02*
X101600000Y-64770000D01*
X101600000Y-64770000D02*
X100330000Y-64770000D01*
X129540000Y-87630000D02*
X101600000Y-87630000D01*
X100340000Y-69850000D02*
X100330000Y-64770000D01*
D11*
%TO.P,IC1,1*%
%TO.N,GND*%
X114640000Y-70490000D03*
D12*
X114005000Y-69347000D03*
X114005000Y-70490000D03*
X115275000Y-70490000D03*
X115275000Y-69347000D03*
X115275000Y-71633000D03*
X114005000Y-71633000D03*
%TD*%
D13*
%TO.P,J1,1*%
%TO.N,V_ext*%
X101600000Y-66040000D03*
%TA.AperFunction,ComponentPad*%
D14*
G36*
X101928132Y-66889917D02*
G01*
X101845251Y-66884703D01*
X101763275Y-66871425D01*
X101682986Y-66850212D01*
X101605149Y-66821265D01*
X101530509Y-66784861D01*
X101459778Y-66741346D01*
X101393631Y-66691138D01*
X101332698Y-66634714D01*
X101277563Y-66572613D01*
X101228750Y-66505429D01*
X101186727Y-66433802D01*
X101151894Y-66358416D01*
X101124583Y-66279990D01*
X101105056Y-66199274D01*
X101093498Y-66117038D01*
X101090021Y-66034066D01*
X101094656Y-65951151D01*
X101107361Y-65869084D01*
X101128013Y-65788648D01*
X101156416Y-65710612D01*
X101192299Y-65635719D01*
X101235318Y-65564686D01*
X101285064Y-65498190D01*
X101341061Y-65436865D01*
X101402775Y-65381297D01*
X101469617Y-65332017D01*
X101540949Y-65289495D01*
X101616090Y-65254136D01*
X101694323Y-65226278D01*
X101774901Y-65206188D01*
X101857055Y-65194057D01*
X101940000Y-65190000D01*
X104990000Y-65190000D01*
X104990000Y-66890000D01*
X101940000Y-66890000D01*
X101928132Y-66889917D01*
G37*
%TD.AperFunction*%
%TD*%
D13*
%TO.P,J2,1*%
%TO.N,GND*%
X101600000Y-68580000D03*
%TA.AperFunction,ComponentPad*%
D14*
G36*
X101928132Y-69429917D02*
G01*
X101845251Y-69424703D01*
X101763275Y-69411425D01*
X101682986Y-69390212D01*
X101605149Y-69361265D01*
X101530509Y-69324861D01*
X101459778Y-69281346D01*
X101393631Y-69231138D01*
X101332698Y-69174714D01*
X101277563Y-69112613D01*
X101228750Y-69045429D01*
X101186727Y-68973802D01*
X101151894Y-68898416D01*
X101124583Y-68819990D01*
X101105056Y-68739274D01*
X101093498Y-68657038D01*
X101090021Y-68574066D01*
X101094656Y-68491151D01*
X101107361Y-68409084D01*
X101128013Y-68328648D01*
X101156416Y-68250612D01*
X101192299Y-68175719D01*
X101235318Y-68104686D01*
X101285064Y-68038190D01*
X101341061Y-67976865D01*
X101402775Y-67921297D01*
X101469617Y-67872017D01*
X101540949Y-67829495D01*
X101616090Y-67794136D01*
X101694323Y-67766278D01*
X101774901Y-67746188D01*
X101857055Y-67734057D01*
X101940000Y-67730000D01*
X104990000Y-67730000D01*
X104990000Y-69430000D01*
X101940000Y-69430000D01*
X101928132Y-69429917D01*
G37*
%TD.AperFunction*%
%TD*%
D13*
%TO.P,J3,1*%
%TO.N,5V_p*%
X101600000Y-81280000D03*
%TA.AperFunction,ComponentPad*%
D14*
G36*
X101928132Y-82129917D02*
G01*
X101845251Y-82124703D01*
X101763275Y-82111425D01*
X101682986Y-82090212D01*
X101605149Y-82061265D01*
X101530509Y-82024861D01*
X101459778Y-81981346D01*
X101393631Y-81931138D01*
X101332698Y-81874714D01*
X101277563Y-81812613D01*
X101228750Y-81745429D01*
X101186727Y-81673802D01*
X101151894Y-81598416D01*
X101124583Y-81519990D01*
X101105056Y-81439274D01*
X101093498Y-81357038D01*
X101090021Y-81274066D01*
X101094656Y-81191151D01*
X101107361Y-81109084D01*
X101128013Y-81028648D01*
X101156416Y-80950612D01*
X101192299Y-80875719D01*
X101235318Y-80804686D01*
X101285064Y-80738190D01*
X101341061Y-80676865D01*
X101402775Y-80621297D01*
X101469617Y-80572017D01*
X101540949Y-80529495D01*
X101616090Y-80494136D01*
X101694323Y-80466278D01*
X101774901Y-80446188D01*
X101857055Y-80434057D01*
X101940000Y-80430000D01*
X104990000Y-80430000D01*
X104990000Y-82130000D01*
X101940000Y-82130000D01*
X101928132Y-82129917D01*
G37*
%TD.AperFunction*%
%TD*%
D13*
%TO.P,J9,1*%
%TO.N,V_BAT+*%
X101600000Y-73660000D03*
%TA.AperFunction,ComponentPad*%
D14*
G36*
X101928132Y-74509917D02*
G01*
X101845251Y-74504703D01*
X101763275Y-74491425D01*
X101682986Y-74470212D01*
X101605149Y-74441265D01*
X101530509Y-74404861D01*
X101459778Y-74361346D01*
X101393631Y-74311138D01*
X101332698Y-74254714D01*
X101277563Y-74192613D01*
X101228750Y-74125429D01*
X101186727Y-74053802D01*
X101151894Y-73978416D01*
X101124583Y-73899990D01*
X101105056Y-73819274D01*
X101093498Y-73737038D01*
X101090021Y-73654066D01*
X101094656Y-73571151D01*
X101107361Y-73489084D01*
X101128013Y-73408648D01*
X101156416Y-73330612D01*
X101192299Y-73255719D01*
X101235318Y-73184686D01*
X101285064Y-73118190D01*
X101341061Y-73056865D01*
X101402775Y-73001297D01*
X101469617Y-72952017D01*
X101540949Y-72909495D01*
X101616090Y-72874136D01*
X101694323Y-72846278D01*
X101774901Y-72826188D01*
X101857055Y-72814057D01*
X101940000Y-72810000D01*
X104990000Y-72810000D01*
X104990000Y-74510000D01*
X101940000Y-74510000D01*
X101928132Y-74509917D01*
G37*
%TD.AperFunction*%
%TD*%
D13*
%TO.P,J4,1*%
%TO.N,V_sum*%
X101600000Y-76200000D03*
%TA.AperFunction,ComponentPad*%
D14*
G36*
X101928132Y-77049917D02*
G01*
X101845251Y-77044703D01*
X101763275Y-77031425D01*
X101682986Y-77010212D01*
X101605149Y-76981265D01*
X101530509Y-76944861D01*
X101459778Y-76901346D01*
X101393631Y-76851138D01*
X101332698Y-76794714D01*
X101277563Y-76732613D01*
X101228750Y-76665429D01*
X101186727Y-76593802D01*
X101151894Y-76518416D01*
X101124583Y-76439990D01*
X101105056Y-76359274D01*
X101093498Y-76277038D01*
X101090021Y-76194066D01*
X101094656Y-76111151D01*
X101107361Y-76029084D01*
X101128013Y-75948648D01*
X101156416Y-75870612D01*
X101192299Y-75795719D01*
X101235318Y-75724686D01*
X101285064Y-75658190D01*
X101341061Y-75596865D01*
X101402775Y-75541297D01*
X101469617Y-75492017D01*
X101540949Y-75449495D01*
X101616090Y-75414136D01*
X101694323Y-75386278D01*
X101774901Y-75366188D01*
X101857055Y-75354057D01*
X101940000Y-75350000D01*
X104990000Y-75350000D01*
X104990000Y-77050000D01*
X101940000Y-77050000D01*
X101928132Y-77049917D01*
G37*
%TD.AperFunction*%
%TD*%
D13*
%TO.P,J5,1*%
%TO.N,DCDC_IN*%
X129540000Y-83820000D03*
%TA.AperFunction,ComponentPad*%
D14*
G36*
X129211868Y-82970083D02*
G01*
X129294749Y-82975297D01*
X129376725Y-82988575D01*
X129457014Y-83009788D01*
X129534851Y-83038735D01*
X129609491Y-83075139D01*
X129680222Y-83118654D01*
X129746369Y-83168862D01*
X129807302Y-83225286D01*
X129862437Y-83287387D01*
X129911250Y-83354571D01*
X129953273Y-83426198D01*
X129988106Y-83501584D01*
X130015417Y-83580010D01*
X130034944Y-83660726D01*
X130046502Y-83742962D01*
X130049979Y-83825934D01*
X130045344Y-83908849D01*
X130032639Y-83990916D01*
X130011987Y-84071352D01*
X129983584Y-84149388D01*
X129947701Y-84224281D01*
X129904682Y-84295314D01*
X129854936Y-84361810D01*
X129798939Y-84423135D01*
X129737225Y-84478703D01*
X129670383Y-84527983D01*
X129599051Y-84570505D01*
X129523910Y-84605864D01*
X129445677Y-84633722D01*
X129365099Y-84653812D01*
X129282945Y-84665943D01*
X129200000Y-84670000D01*
X126150000Y-84670000D01*
X126150000Y-82970000D01*
X129200000Y-82970000D01*
X129211868Y-82970083D01*
G37*
%TD.AperFunction*%
%TD*%
D13*
%TO.P,J6,1*%
%TO.N,GND*%
X101600000Y-83820000D03*
%TA.AperFunction,ComponentPad*%
D14*
G36*
X101928132Y-84669917D02*
G01*
X101845251Y-84664703D01*
X101763275Y-84651425D01*
X101682986Y-84630212D01*
X101605149Y-84601265D01*
X101530509Y-84564861D01*
X101459778Y-84521346D01*
X101393631Y-84471138D01*
X101332698Y-84414714D01*
X101277563Y-84352613D01*
X101228750Y-84285429D01*
X101186727Y-84213802D01*
X101151894Y-84138416D01*
X101124583Y-84059990D01*
X101105056Y-83979274D01*
X101093498Y-83897038D01*
X101090021Y-83814066D01*
X101094656Y-83731151D01*
X101107361Y-83649084D01*
X101128013Y-83568648D01*
X101156416Y-83490612D01*
X101192299Y-83415719D01*
X101235318Y-83344686D01*
X101285064Y-83278190D01*
X101341061Y-83216865D01*
X101402775Y-83161297D01*
X101469617Y-83112017D01*
X101540949Y-83069495D01*
X101616090Y-83034136D01*
X101694323Y-83006278D01*
X101774901Y-82986188D01*
X101857055Y-82974057D01*
X101940000Y-82970000D01*
X104990000Y-82970000D01*
X104990000Y-84670000D01*
X101940000Y-84670000D01*
X101928132Y-84669917D01*
G37*
%TD.AperFunction*%
%TD*%
D15*
%TO.N,GND*%
X119140000Y-69740000D03*
X121340000Y-69740000D03*
X110640000Y-86740000D03*
X109140000Y-86740000D03*
X107640000Y-86740000D03*
X106140000Y-86740000D03*
X104640000Y-86740000D03*
X103140000Y-86740000D03*
X103140000Y-71240000D03*
X106140000Y-68240000D03*
%TO.N,V_chg*%
X110390000Y-72490000D03*
X111640000Y-67240000D03*
%TO.N,V_ext*%
X125890000Y-63040000D03*
X126840000Y-64540000D03*
%TO.N,GND*%
X121640000Y-78040000D03*
X123140000Y-78040000D03*
X124640000Y-78040000D03*
%TO.N,Net-(IC1-Pad7)*%
X110390000Y-71240000D03*
X124840000Y-71040000D03*
%TO.N,Net-(IC1-Pad6)*%
X110440000Y-70034239D03*
X123040000Y-71040000D03*
%TD*%
D16*
%TO.N,GND*%
X118390000Y-70490000D02*
X119140000Y-69740000D01*
X114640000Y-70490000D02*
X118390000Y-70490000D01*
X121340000Y-69740000D02*
X119140000Y-69740000D01*
X108390000Y-65990000D02*
X106140000Y-68240000D01*
X113890000Y-65990000D02*
X108390000Y-65990000D01*
X114640000Y-66740000D02*
X113890000Y-65990000D01*
X114640000Y-70490000D02*
X114640000Y-66740000D01*
%TO.N,V_chg*%
X110390000Y-72490000D02*
X109640000Y-72490000D01*
X109640000Y-72490000D02*
X109140000Y-71990000D01*
X109140000Y-71990000D02*
X109140000Y-69740000D01*
X109140000Y-69740000D02*
X111640000Y-67240000D01*
D17*
%TO.N,V_ext*%
X107124990Y-63055010D02*
X104140000Y-66040000D01*
X126455010Y-63055010D02*
X107124990Y-63055010D01*
X126455010Y-63055010D02*
X126555010Y-63055010D01*
X126555010Y-63055010D02*
X126840000Y-63340000D01*
X126840000Y-63340000D02*
X126840000Y-64540000D01*
D16*
%TO.N,GND*%
X110640000Y-86740000D02*
X118140000Y-86740000D01*
X121640000Y-83240000D02*
X121640000Y-78040000D01*
X118140000Y-86740000D02*
X121640000Y-83240000D01*
X104140000Y-86240000D02*
X104640000Y-86740000D01*
X104140000Y-83820000D02*
X104140000Y-86240000D01*
X128140000Y-69740000D02*
X121340000Y-69740000D01*
X128140000Y-74540000D02*
X128140000Y-69740000D01*
X124640000Y-78040000D02*
X128140000Y-74540000D01*
X105800000Y-68580000D02*
X106140000Y-68240000D01*
X104140000Y-68580000D02*
X105800000Y-68580000D01*
%TO.N,Net-(IC1-Pad7)*%
X110390000Y-71240000D02*
X111140000Y-71240000D01*
X111140000Y-71240000D02*
X111640000Y-71740000D01*
X111640000Y-71740000D02*
X111640000Y-73240000D01*
X111640000Y-73240000D02*
X111990010Y-73590010D01*
X112140000Y-73740000D02*
X111640000Y-73240000D01*
X122390000Y-73740000D02*
X112140000Y-73740000D01*
X122390000Y-73740000D02*
X122440000Y-73740000D01*
X122440000Y-73740000D02*
X124840000Y-71340000D01*
X124840000Y-71340000D02*
X124840000Y-71040000D01*
%TO.N,Net-(IC1-Pad6)*%
X111184239Y-70034239D02*
X112390000Y-71240000D01*
X112390000Y-72740000D02*
X112640000Y-72990000D01*
X110440000Y-70034239D02*
X111184239Y-70034239D01*
X122390000Y-72490000D02*
X121890000Y-72990000D01*
X112390000Y-71240000D02*
X112390000Y-72740000D01*
X121890000Y-72990000D02*
X112640000Y-72990000D01*
X122390000Y-72490000D02*
X122940000Y-71940000D01*
X122940000Y-71940000D02*
X123040000Y-71840000D01*
X123040000Y-71840000D02*
X123040000Y-71040000D01*
%TD*%
D18*
%TO.N,GND*%
X128880001Y-82331928D02*
X126150000Y-82331928D01*
X126025518Y-82344188D01*
X125905820Y-82380498D01*
X125795506Y-82439463D01*
X125698815Y-82518815D01*
X125619463Y-82615506D01*
X125560498Y-82725820D01*
X125524188Y-82845518D01*
X125511928Y-82970000D01*
X125511928Y-84670000D01*
X125524188Y-84794482D01*
X125560498Y-84914180D01*
X125619463Y-85024494D01*
X125698815Y-85121185D01*
X125795506Y-85200537D01*
X125905820Y-85259502D01*
X126025518Y-85295812D01*
X126150000Y-85308072D01*
X128880001Y-85308072D01*
X128880000Y-86970000D01*
X102260000Y-86970000D01*
X102260000Y-85122418D01*
X102263193Y-85090000D01*
X102250450Y-84960617D01*
X102212710Y-84836207D01*
X102151425Y-84721550D01*
X102068948Y-84621052D01*
X101968450Y-84538575D01*
X101853793Y-84477290D01*
X101729383Y-84439550D01*
X101632419Y-84430000D01*
X101600000Y-84426807D01*
X101567581Y-84430000D01*
X100990000Y-84430000D01*
X100990000Y-82539431D01*
X101192510Y-82623314D01*
X101401535Y-82664892D01*
X101412217Y-82669470D01*
X101570343Y-82719630D01*
X101692149Y-82745520D01*
X101857006Y-82764012D01*
X101923670Y-82767973D01*
X101935538Y-82768056D01*
X101940000Y-82768072D01*
X104990000Y-82768072D01*
X105114482Y-82755812D01*
X105234180Y-82719502D01*
X105344494Y-82660537D01*
X105441185Y-82581185D01*
X105520537Y-82484494D01*
X105579502Y-82374180D01*
X105615812Y-82254482D01*
X105628072Y-82130000D01*
X105628072Y-80430000D01*
X105615812Y-80305518D01*
X105579502Y-80185820D01*
X105520537Y-80075506D01*
X105441185Y-79978815D01*
X105344494Y-79899463D01*
X105234180Y-79840498D01*
X105114482Y-79804188D01*
X104990000Y-79791928D01*
X102260000Y-79791928D01*
X102260000Y-77688072D01*
X104990000Y-77688072D01*
X105114482Y-77675812D01*
X105234180Y-77639502D01*
X105344494Y-77580537D01*
X105441185Y-77501185D01*
X105520537Y-77404494D01*
X105579502Y-77294180D01*
X105615812Y-77174482D01*
X105628072Y-77050000D01*
X105628072Y-75350000D01*
X105615812Y-75225518D01*
X105579502Y-75105820D01*
X105520537Y-74995506D01*
X105466778Y-74930000D01*
X105520537Y-74864494D01*
X105579502Y-74754180D01*
X105615812Y-74634482D01*
X105628072Y-74510000D01*
X105628072Y-72810000D01*
X105615812Y-72685518D01*
X105579502Y-72565820D01*
X105520537Y-72455506D01*
X105441185Y-72358815D01*
X105344494Y-72279463D01*
X105234180Y-72220498D01*
X105114482Y-72184188D01*
X104990000Y-72171928D01*
X102260000Y-72171928D01*
X102260000Y-69882419D01*
X102263193Y-69850000D01*
X102252360Y-69740000D01*
X108300960Y-69740000D01*
X108305001Y-69781028D01*
X108305000Y-71948981D01*
X108300960Y-71990000D01*
X108313288Y-72115172D01*
X108317082Y-72153688D01*
X108364828Y-72311086D01*
X108442364Y-72456145D01*
X108546709Y-72583291D01*
X108578578Y-72609445D01*
X109020558Y-73051426D01*
X109046709Y-73083291D01*
X109173854Y-73187636D01*
X109318913Y-73265172D01*
X109476311Y-73312918D01*
X109598981Y-73325000D01*
X109598982Y-73325000D01*
X109622150Y-73327282D01*
X109666480Y-73371612D01*
X109852376Y-73495824D01*
X110058933Y-73581383D01*
X110278212Y-73625000D01*
X110501788Y-73625000D01*
X110721067Y-73581383D01*
X110854250Y-73526216D01*
X110864828Y-73561086D01*
X110890673Y-73609438D01*
X110942365Y-73706146D01*
X111046710Y-73833291D01*
X111078574Y-73859441D01*
X111298173Y-74079040D01*
X111520558Y-74301426D01*
X111546709Y-74333291D01*
X111673854Y-74437636D01*
X111818913Y-74515172D01*
X111976311Y-74562918D01*
X112098981Y-74575000D01*
X112098982Y-74575000D01*
X112140000Y-74579040D01*
X112181018Y-74575000D01*
X122398982Y-74575000D01*
X122440000Y-74579040D01*
X122481018Y-74575000D01*
X122481019Y-74575000D01*
X122603689Y-74562918D01*
X122761087Y-74515172D01*
X122906146Y-74437636D01*
X123033291Y-74333291D01*
X123059446Y-74301421D01*
X125270794Y-72090074D01*
X125377624Y-72045824D01*
X125563520Y-71921612D01*
X125721612Y-71763520D01*
X125845824Y-71577624D01*
X125931383Y-71371067D01*
X125975000Y-71151788D01*
X125975000Y-70928212D01*
X125931383Y-70708933D01*
X125845824Y-70502376D01*
X125721612Y-70316480D01*
X125563520Y-70158388D01*
X125377624Y-70034176D01*
X125171067Y-69948617D01*
X124951788Y-69905000D01*
X124728212Y-69905000D01*
X124508933Y-69948617D01*
X124302376Y-70034176D01*
X124116480Y-70158388D01*
X123958388Y-70316480D01*
X123940000Y-70344000D01*
X123921612Y-70316480D01*
X123763520Y-70158388D01*
X123577624Y-70034176D01*
X123371067Y-69948617D01*
X123151788Y-69905000D01*
X122928212Y-69905000D01*
X122708933Y-69948617D01*
X122502376Y-70034176D01*
X122316480Y-70158388D01*
X122158388Y-70316480D01*
X122034176Y-70502376D01*
X121948617Y-70708933D01*
X121905000Y-70928212D01*
X121905000Y-71151788D01*
X121948617Y-71371067D01*
X122034176Y-71577624D01*
X122069157Y-71629976D01*
X121828577Y-71870556D01*
X121828571Y-71870561D01*
X121544133Y-72155000D01*
X113225000Y-72155000D01*
X113225000Y-71281018D01*
X113229040Y-71240000D01*
X113212918Y-71076312D01*
X113189461Y-70998982D01*
X113165172Y-70918913D01*
X113087636Y-70773854D01*
X112983291Y-70646709D01*
X112951433Y-70620564D01*
X111803684Y-69472817D01*
X111777530Y-69440948D01*
X111650385Y-69336603D01*
X111505326Y-69259067D01*
X111347928Y-69211321D01*
X111225258Y-69199239D01*
X111225257Y-69199239D01*
X111208480Y-69197587D01*
X111163520Y-69152627D01*
X111010492Y-69050376D01*
X111685869Y-68375000D01*
X111751788Y-68375000D01*
X111971067Y-68331383D01*
X112177624Y-68245824D01*
X112363520Y-68121612D01*
X112521612Y-67963520D01*
X112645824Y-67777624D01*
X112731383Y-67571067D01*
X112775000Y-67351788D01*
X112775000Y-67128212D01*
X112731383Y-66908933D01*
X112645824Y-66702376D01*
X112521612Y-66516480D01*
X112363520Y-66358388D01*
X112177624Y-66234176D01*
X111971067Y-66148617D01*
X111751788Y-66105000D01*
X111528212Y-66105000D01*
X111308933Y-66148617D01*
X111102376Y-66234176D01*
X110916480Y-66358388D01*
X110758388Y-66516480D01*
X110634176Y-66702376D01*
X110548617Y-66908933D01*
X110505000Y-67128212D01*
X110505000Y-67194131D01*
X108578574Y-69120559D01*
X108546710Y-69146709D01*
X108472372Y-69237290D01*
X108442364Y-69273855D01*
X108364828Y-69418914D01*
X108317082Y-69576312D01*
X108300960Y-69740000D01*
X102252360Y-69740000D01*
X102250450Y-69720617D01*
X102212710Y-69596207D01*
X102151425Y-69481550D01*
X102068948Y-69381052D01*
X101968450Y-69298575D01*
X101853793Y-69237290D01*
X101729383Y-69199550D01*
X101632419Y-69190000D01*
X101600000Y-69186807D01*
X101567581Y-69190000D01*
X100998701Y-69190000D01*
X100994984Y-67301496D01*
X101192510Y-67383314D01*
X101401535Y-67424892D01*
X101412217Y-67429470D01*
X101570343Y-67479630D01*
X101692149Y-67505520D01*
X101857006Y-67524012D01*
X101923670Y-67527973D01*
X101935538Y-67528056D01*
X101940000Y-67528072D01*
X104990000Y-67528072D01*
X105114482Y-67515812D01*
X105234180Y-67479502D01*
X105344494Y-67420537D01*
X105441185Y-67341185D01*
X105520537Y-67244494D01*
X105579502Y-67134180D01*
X105615812Y-67014482D01*
X105628072Y-66890000D01*
X105628072Y-66157059D01*
X107595122Y-64190010D01*
X125705000Y-64190010D01*
X125705000Y-64651788D01*
X125715932Y-64706747D01*
X125721423Y-64762499D01*
X125737685Y-64816106D01*
X125748617Y-64871067D01*
X125770063Y-64922842D01*
X125786324Y-64976447D01*
X125812730Y-65025849D01*
X125834176Y-65077624D01*
X125865310Y-65124220D01*
X125891717Y-65173623D01*
X125927254Y-65216925D01*
X125958388Y-65263520D01*
X125998014Y-65303146D01*
X126033552Y-65346449D01*
X126076855Y-65381987D01*
X126116480Y-65421612D01*
X126163074Y-65452745D01*
X126206378Y-65488284D01*
X126255782Y-65514691D01*
X126302376Y-65545824D01*
X126354153Y-65567271D01*
X126403554Y-65593676D01*
X126457155Y-65609936D01*
X126508933Y-65631383D01*
X126563897Y-65642316D01*
X126617502Y-65658577D01*
X126673252Y-65664068D01*
X126728212Y-65675000D01*
X126784249Y-65675000D01*
X126840000Y-65680491D01*
X126895752Y-65675000D01*
X126951788Y-65675000D01*
X127006747Y-65664068D01*
X127062499Y-65658577D01*
X127116106Y-65642315D01*
X127171067Y-65631383D01*
X127222842Y-65609937D01*
X127276447Y-65593676D01*
X127325851Y-65567269D01*
X127377624Y-65545824D01*
X127424214Y-65514693D01*
X127473623Y-65488284D01*
X127516932Y-65452741D01*
X127563520Y-65421612D01*
X127603141Y-65381991D01*
X127646449Y-65346449D01*
X127681991Y-65303141D01*
X127721612Y-65263520D01*
X127752741Y-65216932D01*
X127788284Y-65173623D01*
X127814693Y-65124214D01*
X127845824Y-65077624D01*
X127867269Y-65025851D01*
X127893676Y-64976447D01*
X127909937Y-64922842D01*
X127931383Y-64871067D01*
X127942315Y-64816106D01*
X127958577Y-64762499D01*
X127964068Y-64706747D01*
X127975000Y-64651788D01*
X127975000Y-63395752D01*
X127980491Y-63340000D01*
X127958577Y-63117501D01*
X127893676Y-62903554D01*
X127893676Y-62903553D01*
X127886432Y-62890000D01*
X128880000Y-62890000D01*
X128880001Y-82331928D01*
%TA.AperFunction,Conductor*%
D19*
G36*
X128880001Y-82331928D02*
G01*
X126150000Y-82331928D01*
X126025518Y-82344188D01*
X125905820Y-82380498D01*
X125795506Y-82439463D01*
X125698815Y-82518815D01*
X125619463Y-82615506D01*
X125560498Y-82725820D01*
X125524188Y-82845518D01*
X125511928Y-82970000D01*
X125511928Y-84670000D01*
X125524188Y-84794482D01*
X125560498Y-84914180D01*
X125619463Y-85024494D01*
X125698815Y-85121185D01*
X125795506Y-85200537D01*
X125905820Y-85259502D01*
X126025518Y-85295812D01*
X126150000Y-85308072D01*
X128880001Y-85308072D01*
X128880000Y-86970000D01*
X102260000Y-86970000D01*
X102260000Y-85122418D01*
X102263193Y-85090000D01*
X102250450Y-84960617D01*
X102212710Y-84836207D01*
X102151425Y-84721550D01*
X102068948Y-84621052D01*
X101968450Y-84538575D01*
X101853793Y-84477290D01*
X101729383Y-84439550D01*
X101632419Y-84430000D01*
X101600000Y-84426807D01*
X101567581Y-84430000D01*
X100990000Y-84430000D01*
X100990000Y-82539431D01*
X101192510Y-82623314D01*
X101401535Y-82664892D01*
X101412217Y-82669470D01*
X101570343Y-82719630D01*
X101692149Y-82745520D01*
X101857006Y-82764012D01*
X101923670Y-82767973D01*
X101935538Y-82768056D01*
X101940000Y-82768072D01*
X104990000Y-82768072D01*
X105114482Y-82755812D01*
X105234180Y-82719502D01*
X105344494Y-82660537D01*
X105441185Y-82581185D01*
X105520537Y-82484494D01*
X105579502Y-82374180D01*
X105615812Y-82254482D01*
X105628072Y-82130000D01*
X105628072Y-80430000D01*
X105615812Y-80305518D01*
X105579502Y-80185820D01*
X105520537Y-80075506D01*
X105441185Y-79978815D01*
X105344494Y-79899463D01*
X105234180Y-79840498D01*
X105114482Y-79804188D01*
X104990000Y-79791928D01*
X102260000Y-79791928D01*
X102260000Y-77688072D01*
X104990000Y-77688072D01*
X105114482Y-77675812D01*
X105234180Y-77639502D01*
X105344494Y-77580537D01*
X105441185Y-77501185D01*
X105520537Y-77404494D01*
X105579502Y-77294180D01*
X105615812Y-77174482D01*
X105628072Y-77050000D01*
X105628072Y-75350000D01*
X105615812Y-75225518D01*
X105579502Y-75105820D01*
X105520537Y-74995506D01*
X105466778Y-74930000D01*
X105520537Y-74864494D01*
X105579502Y-74754180D01*
X105615812Y-74634482D01*
X105628072Y-74510000D01*
X105628072Y-72810000D01*
X105615812Y-72685518D01*
X105579502Y-72565820D01*
X105520537Y-72455506D01*
X105441185Y-72358815D01*
X105344494Y-72279463D01*
X105234180Y-72220498D01*
X105114482Y-72184188D01*
X104990000Y-72171928D01*
X102260000Y-72171928D01*
X102260000Y-69882419D01*
X102263193Y-69850000D01*
X102252360Y-69740000D01*
X108300960Y-69740000D01*
X108305001Y-69781028D01*
X108305000Y-71948981D01*
X108300960Y-71990000D01*
X108313288Y-72115172D01*
X108317082Y-72153688D01*
X108364828Y-72311086D01*
X108442364Y-72456145D01*
X108546709Y-72583291D01*
X108578578Y-72609445D01*
X109020558Y-73051426D01*
X109046709Y-73083291D01*
X109173854Y-73187636D01*
X109318913Y-73265172D01*
X109476311Y-73312918D01*
X109598981Y-73325000D01*
X109598982Y-73325000D01*
X109622150Y-73327282D01*
X109666480Y-73371612D01*
X109852376Y-73495824D01*
X110058933Y-73581383D01*
X110278212Y-73625000D01*
X110501788Y-73625000D01*
X110721067Y-73581383D01*
X110854250Y-73526216D01*
X110864828Y-73561086D01*
X110890673Y-73609438D01*
X110942365Y-73706146D01*
X111046710Y-73833291D01*
X111078574Y-73859441D01*
X111298173Y-74079040D01*
X111520558Y-74301426D01*
X111546709Y-74333291D01*
X111673854Y-74437636D01*
X111818913Y-74515172D01*
X111976311Y-74562918D01*
X112098981Y-74575000D01*
X112098982Y-74575000D01*
X112140000Y-74579040D01*
X112181018Y-74575000D01*
X122398982Y-74575000D01*
X122440000Y-74579040D01*
X122481018Y-74575000D01*
X122481019Y-74575000D01*
X122603689Y-74562918D01*
X122761087Y-74515172D01*
X122906146Y-74437636D01*
X123033291Y-74333291D01*
X123059446Y-74301421D01*
X125270794Y-72090074D01*
X125377624Y-72045824D01*
X125563520Y-71921612D01*
X125721612Y-71763520D01*
X125845824Y-71577624D01*
X125931383Y-71371067D01*
X125975000Y-71151788D01*
X125975000Y-70928212D01*
X125931383Y-70708933D01*
X125845824Y-70502376D01*
X125721612Y-70316480D01*
X125563520Y-70158388D01*
X125377624Y-70034176D01*
X125171067Y-69948617D01*
X124951788Y-69905000D01*
X124728212Y-69905000D01*
X124508933Y-69948617D01*
X124302376Y-70034176D01*
X124116480Y-70158388D01*
X123958388Y-70316480D01*
X123940000Y-70344000D01*
X123921612Y-70316480D01*
X123763520Y-70158388D01*
X123577624Y-70034176D01*
X123371067Y-69948617D01*
X123151788Y-69905000D01*
X122928212Y-69905000D01*
X122708933Y-69948617D01*
X122502376Y-70034176D01*
X122316480Y-70158388D01*
X122158388Y-70316480D01*
X122034176Y-70502376D01*
X121948617Y-70708933D01*
X121905000Y-70928212D01*
X121905000Y-71151788D01*
X121948617Y-71371067D01*
X122034176Y-71577624D01*
X122069157Y-71629976D01*
X121828577Y-71870556D01*
X121828571Y-71870561D01*
X121544133Y-72155000D01*
X113225000Y-72155000D01*
X113225000Y-71281018D01*
X113229040Y-71240000D01*
X113212918Y-71076312D01*
X113189461Y-70998982D01*
X113165172Y-70918913D01*
X113087636Y-70773854D01*
X112983291Y-70646709D01*
X112951433Y-70620564D01*
X111803684Y-69472817D01*
X111777530Y-69440948D01*
X111650385Y-69336603D01*
X111505326Y-69259067D01*
X111347928Y-69211321D01*
X111225258Y-69199239D01*
X111225257Y-69199239D01*
X111208480Y-69197587D01*
X111163520Y-69152627D01*
X111010492Y-69050376D01*
X111685869Y-68375000D01*
X111751788Y-68375000D01*
X111971067Y-68331383D01*
X112177624Y-68245824D01*
X112363520Y-68121612D01*
X112521612Y-67963520D01*
X112645824Y-67777624D01*
X112731383Y-67571067D01*
X112775000Y-67351788D01*
X112775000Y-67128212D01*
X112731383Y-66908933D01*
X112645824Y-66702376D01*
X112521612Y-66516480D01*
X112363520Y-66358388D01*
X112177624Y-66234176D01*
X111971067Y-66148617D01*
X111751788Y-66105000D01*
X111528212Y-66105000D01*
X111308933Y-66148617D01*
X111102376Y-66234176D01*
X110916480Y-66358388D01*
X110758388Y-66516480D01*
X110634176Y-66702376D01*
X110548617Y-66908933D01*
X110505000Y-67128212D01*
X110505000Y-67194131D01*
X108578574Y-69120559D01*
X108546710Y-69146709D01*
X108472372Y-69237290D01*
X108442364Y-69273855D01*
X108364828Y-69418914D01*
X108317082Y-69576312D01*
X108300960Y-69740000D01*
X102252360Y-69740000D01*
X102250450Y-69720617D01*
X102212710Y-69596207D01*
X102151425Y-69481550D01*
X102068948Y-69381052D01*
X101968450Y-69298575D01*
X101853793Y-69237290D01*
X101729383Y-69199550D01*
X101632419Y-69190000D01*
X101600000Y-69186807D01*
X101567581Y-69190000D01*
X100998701Y-69190000D01*
X100994984Y-67301496D01*
X101192510Y-67383314D01*
X101401535Y-67424892D01*
X101412217Y-67429470D01*
X101570343Y-67479630D01*
X101692149Y-67505520D01*
X101857006Y-67524012D01*
X101923670Y-67527973D01*
X101935538Y-67528056D01*
X101940000Y-67528072D01*
X104990000Y-67528072D01*
X105114482Y-67515812D01*
X105234180Y-67479502D01*
X105344494Y-67420537D01*
X105441185Y-67341185D01*
X105520537Y-67244494D01*
X105579502Y-67134180D01*
X105615812Y-67014482D01*
X105628072Y-66890000D01*
X105628072Y-66157059D01*
X107595122Y-64190010D01*
X125705000Y-64190010D01*
X125705000Y-64651788D01*
X125715932Y-64706747D01*
X125721423Y-64762499D01*
X125737685Y-64816106D01*
X125748617Y-64871067D01*
X125770063Y-64922842D01*
X125786324Y-64976447D01*
X125812730Y-65025849D01*
X125834176Y-65077624D01*
X125865310Y-65124220D01*
X125891717Y-65173623D01*
X125927254Y-65216925D01*
X125958388Y-65263520D01*
X125998014Y-65303146D01*
X126033552Y-65346449D01*
X126076855Y-65381987D01*
X126116480Y-65421612D01*
X126163074Y-65452745D01*
X126206378Y-65488284D01*
X126255782Y-65514691D01*
X126302376Y-65545824D01*
X126354153Y-65567271D01*
X126403554Y-65593676D01*
X126457155Y-65609936D01*
X126508933Y-65631383D01*
X126563897Y-65642316D01*
X126617502Y-65658577D01*
X126673252Y-65664068D01*
X126728212Y-65675000D01*
X126784249Y-65675000D01*
X126840000Y-65680491D01*
X126895752Y-65675000D01*
X126951788Y-65675000D01*
X127006747Y-65664068D01*
X127062499Y-65658577D01*
X127116106Y-65642315D01*
X127171067Y-65631383D01*
X127222842Y-65609937D01*
X127276447Y-65593676D01*
X127325851Y-65567269D01*
X127377624Y-65545824D01*
X127424214Y-65514693D01*
X127473623Y-65488284D01*
X127516932Y-65452741D01*
X127563520Y-65421612D01*
X127603141Y-65381991D01*
X127646449Y-65346449D01*
X127681991Y-65303141D01*
X127721612Y-65263520D01*
X127752741Y-65216932D01*
X127788284Y-65173623D01*
X127814693Y-65124214D01*
X127845824Y-65077624D01*
X127867269Y-65025851D01*
X127893676Y-64976447D01*
X127909937Y-64922842D01*
X127931383Y-64871067D01*
X127942315Y-64816106D01*
X127958577Y-64762499D01*
X127964068Y-64706747D01*
X127975000Y-64651788D01*
X127975000Y-63395752D01*
X127980491Y-63340000D01*
X127958577Y-63117501D01*
X127893676Y-62903554D01*
X127893676Y-62903553D01*
X127886432Y-62890000D01*
X128880000Y-62890000D01*
X128880001Y-82331928D01*
G37*
%TD.AperFunction*%
%TD*%
M02*
