%TF.GenerationSoftware,KiCad,Pcbnew,(5.1.6)-1*%
%TF.CreationDate,2020-12-16T23:33:52+01:00*%
%TF.ProjectId,02_Batt_Alim,30325f42-6174-4745-9f41-6c696d2e6b69,rev?*%
%TF.SameCoordinates,Original*%
%TF.FileFunction,Copper,L2,Bot*%
%TF.FilePolarity,Positive*%
%FSLAX46Y46*%
G04 Gerber Fmt 4.6, Leading zero omitted, Abs format (unit mm)*
G04 Created by KiCad (PCBNEW (5.1.6)-1) date 2020-12-16 23:33:52*
%MOMM*%
%LPD*%
G01*
G04 APERTURE LIST*
%TA.AperFunction,Profile*%
%ADD10C,0.050000*%
%TD*%
%TA.AperFunction,SMDPad,CuDef*%
%ADD11R,2.524000X1.700000*%
%TD*%
%TA.AperFunction,ComponentPad*%
%ADD12C,1.524000*%
%TD*%
%TA.AperFunction,ComponentPad*%
%ADD13R,1.700000X1.700000*%
%TD*%
%TA.AperFunction,SMDPad,CuDef*%
%ADD14R,2.200000X3.300000*%
%TD*%
%TA.AperFunction,ComponentPad*%
%ADD15C,1.000000*%
%TD*%
%TA.AperFunction,ViaPad*%
%ADD16C,1.000000*%
%TD*%
%TA.AperFunction,Conductor*%
%ADD17C,0.400000*%
%TD*%
%TA.AperFunction,Conductor*%
%ADD18C,1.000000*%
%TD*%
%TA.AperFunction,Conductor*%
%ADD19C,0.254000*%
%TD*%
G04 APERTURE END LIST*
D10*
X99441000Y-54610000D02*
X99441000Y-81280000D01*
X157861000Y-54610000D02*
X99441000Y-54610000D01*
X157861000Y-81280000D02*
X157861000Y-54610000D01*
X99441000Y-81280000D02*
X157861000Y-81280000D01*
D11*
%TO.P,J8,1*%
%TO.N,GND*%
X153670000Y-78740000D03*
D12*
X154940000Y-78740000D03*
D13*
X152400000Y-78740000D03*
%TD*%
D11*
%TO.P,J11,1*%
%TO.N,SWITCH_OUT*%
X102870000Y-78740000D03*
D12*
X101600000Y-78740000D03*
D13*
X104140000Y-78740000D03*
%TD*%
D14*
%TO.P,IC1,1*%
%TO.N,GND*%
X117475000Y-62230000D03*
D15*
X118110000Y-63373000D03*
X118110000Y-62230000D03*
X116840000Y-62230000D03*
X116840000Y-63373000D03*
X116840000Y-61087000D03*
X118110000Y-61087000D03*
%TD*%
D11*
%TO.P,J1,1*%
%TO.N,V_ext*%
X102870000Y-66040000D03*
D12*
X101600000Y-66040000D03*
D13*
X104140000Y-66040000D03*
%TD*%
D11*
%TO.P,J2,1*%
%TO.N,GND*%
X102870000Y-68580000D03*
D12*
X101600000Y-68580000D03*
D13*
X104140000Y-68580000D03*
%TD*%
D11*
%TO.P,J3,1*%
%TO.N,5V*%
X153670000Y-66040000D03*
D12*
X154940000Y-66040000D03*
D13*
X152400000Y-66040000D03*
%TD*%
D11*
%TO.P,J4,1*%
%TO.N,GND*%
X153670000Y-68580000D03*
D12*
X154940000Y-68580000D03*
D13*
X152400000Y-68580000D03*
%TD*%
D11*
%TO.P,J5,1*%
%TO.N,V_uC*%
X153670000Y-71120000D03*
D12*
X154940000Y-71120000D03*
D13*
X152400000Y-71120000D03*
%TD*%
D11*
%TO.P,J6,1*%
%TO.N,V_2_uC*%
X153670000Y-73660000D03*
D12*
X154940000Y-73660000D03*
D13*
X152400000Y-73660000D03*
%TD*%
D11*
%TO.P,J7,1*%
%TO.N,uC_2_V*%
X153670000Y-76200000D03*
D12*
X154940000Y-76200000D03*
D13*
X152400000Y-76200000D03*
%TD*%
D11*
%TO.P,J9,1*%
%TO.N,V_BAT+*%
X102870000Y-71120000D03*
D12*
X101600000Y-71120000D03*
D13*
X104140000Y-71120000D03*
%TD*%
D11*
%TO.P,J10,1*%
%TO.N,V_BAT-*%
X102870000Y-73660000D03*
D12*
X101600000Y-73660000D03*
D13*
X104140000Y-73660000D03*
%TD*%
D11*
%TO.P,J12,1*%
%TO.N,SWITCH_IN*%
X102870000Y-76200000D03*
D12*
X101600000Y-76200000D03*
D13*
X104140000Y-76200000D03*
%TD*%
D16*
%TO.N,GND*%
X112522000Y-61722000D03*
X114046000Y-58928000D03*
X108204000Y-66802000D03*
X108458000Y-69596000D03*
X149352000Y-75565000D03*
X114554000Y-66548000D03*
X121285000Y-73660000D03*
X123063000Y-64135000D03*
X138684000Y-63754000D03*
X151384000Y-60325000D03*
X149733000Y-68580000D03*
X132334000Y-73406000D03*
X133604000Y-73406000D03*
X132461000Y-64770000D03*
X101981000Y-57150000D03*
X104521000Y-57150000D03*
X132461000Y-62230000D03*
X132461000Y-59690000D03*
X132461000Y-57150000D03*
X135001000Y-57150000D03*
X137541000Y-57150000D03*
X140081000Y-57150000D03*
X142621000Y-57150000D03*
X145161000Y-57150000D03*
X147701000Y-57150000D03*
X150241000Y-57150000D03*
X152781000Y-57150000D03*
X155321000Y-57150000D03*
X155321000Y-59690000D03*
X155321000Y-62230000D03*
X152781000Y-62230000D03*
%TO.N,V_BAT-*%
X112395000Y-75057000D03*
%TO.N,Net-(IC2-Pad3)*%
X117348000Y-72390000D03*
X109982000Y-66675000D03*
%TO.N,uC_2_V*%
X129667000Y-77089000D03*
%TD*%
D17*
%TO.N,GND*%
X102870000Y-68580000D02*
X104140000Y-68580000D01*
X107442000Y-68580000D02*
X108458000Y-69596000D01*
X104140000Y-68580000D02*
X107442000Y-68580000D01*
X108458000Y-67056000D02*
X108204000Y-66802000D01*
X108458000Y-69596000D02*
X108458000Y-67056000D01*
X110744000Y-58928000D02*
X114046000Y-58928000D01*
X108204000Y-61468000D02*
X110744000Y-58928000D01*
X112522000Y-61722000D02*
X108204000Y-61722000D01*
X108204000Y-66802000D02*
X108204000Y-61722000D01*
X108204000Y-61722000D02*
X108204000Y-61468000D01*
X153670000Y-78740000D02*
X152400000Y-78740000D01*
X153670000Y-68580000D02*
X154940000Y-68580000D01*
X114554000Y-66929000D02*
X114554000Y-66548000D01*
X121285000Y-73660000D02*
X114554000Y-66929000D01*
X114554000Y-63754000D02*
X112522000Y-61722000D01*
X114681000Y-64135000D02*
X114554000Y-64008000D01*
X123063000Y-64135000D02*
X114681000Y-64135000D01*
X114554000Y-66548000D02*
X114554000Y-64008000D01*
X114554000Y-64008000D02*
X114554000Y-63754000D01*
X123444000Y-63754000D02*
X123063000Y-64135000D01*
X142113000Y-60325000D02*
X138684000Y-63754000D01*
X151384000Y-60325000D02*
X142113000Y-60325000D01*
X143510000Y-68580000D02*
X138684000Y-63754000D01*
X149733000Y-68580000D02*
X143510000Y-68580000D01*
X149352000Y-68961000D02*
X149733000Y-68580000D01*
X149352000Y-75565000D02*
X149352000Y-68961000D01*
X132334000Y-63881000D02*
X132461000Y-63754000D01*
X132334000Y-73406000D02*
X132334000Y-63881000D01*
X138684000Y-63754000D02*
X132461000Y-63754000D01*
X132461000Y-63754000D02*
X123444000Y-63754000D01*
X133604000Y-73406000D02*
X132334000Y-73406000D01*
X132461000Y-63754000D02*
X132461000Y-57150000D01*
X132461000Y-57150000D02*
X155321000Y-57150000D01*
X155321000Y-62230000D02*
X155321000Y-57150000D01*
X151384000Y-60833000D02*
X152781000Y-62230000D01*
X151384000Y-60325000D02*
X151384000Y-60833000D01*
X155321000Y-62230000D02*
X152781000Y-62230000D01*
X101981000Y-57150000D02*
X104521000Y-57150000D01*
X101981000Y-59690000D02*
X104521000Y-59690000D01*
X101981000Y-57150000D02*
X101981000Y-59690000D01*
X106172000Y-59690000D02*
X108204000Y-61722000D01*
X104521000Y-59690000D02*
X106172000Y-59690000D01*
%TO.N,5V*%
X153670000Y-66040000D02*
X154940000Y-66040000D01*
%TO.N,V_BAT+*%
X102870000Y-71120000D02*
X104140000Y-71120000D01*
%TO.N,V_BAT-*%
X102870000Y-73660000D02*
X104140000Y-73660000D01*
X110998000Y-73660000D02*
X104140000Y-73660000D01*
X112395000Y-75057000D02*
X110998000Y-73660000D01*
%TO.N,SWITCH_OUT*%
X102870000Y-78740000D02*
X104140000Y-78740000D01*
D18*
%TO.N,V_ext*%
X102870000Y-66040000D02*
X104140000Y-66040000D01*
D17*
%TO.N,SWITCH_IN*%
X102870000Y-76200000D02*
X104140000Y-76200000D01*
%TO.N,Net-(IC2-Pad3)*%
X117348000Y-72390000D02*
X111633000Y-66675000D01*
X111633000Y-66675000D02*
X109982000Y-66675000D01*
%TO.N,V_uC*%
X153670000Y-71120000D02*
X152400000Y-71120000D01*
%TO.N,V_2_uC*%
X153670000Y-73660000D02*
X152400000Y-73660000D01*
%TO.N,uC_2_V*%
X153670000Y-76200000D02*
X152400000Y-76200000D01*
X152134999Y-76465001D02*
X146950001Y-76465001D01*
X152400000Y-76200000D02*
X152134999Y-76465001D01*
X146950001Y-76465001D02*
X143405002Y-80010000D01*
X132588000Y-80010000D02*
X129667000Y-77089000D01*
X134239000Y-80010000D02*
X132588000Y-80010000D01*
X143405002Y-80010000D02*
X134239000Y-80010000D01*
%TD*%
D19*
%TO.N,GND*%
G36*
X157201000Y-80620000D02*
G01*
X143977933Y-80620000D01*
X143998293Y-80603291D01*
X144024448Y-80571421D01*
X147295870Y-77300001D01*
X150963609Y-77300001D01*
X151019463Y-77404494D01*
X151098815Y-77501185D01*
X151195506Y-77580537D01*
X151305820Y-77639502D01*
X151425518Y-77675812D01*
X151550000Y-77688072D01*
X154932000Y-77688072D01*
X155056482Y-77675812D01*
X155176180Y-77639502D01*
X155286494Y-77580537D01*
X155326847Y-77547420D01*
X155347490Y-77543314D01*
X155601727Y-77438005D01*
X155830535Y-77285120D01*
X156025120Y-77090535D01*
X156178005Y-76861727D01*
X156283314Y-76607490D01*
X156337000Y-76337592D01*
X156337000Y-76062408D01*
X156283314Y-75792510D01*
X156178005Y-75538273D01*
X156025120Y-75309465D01*
X155830535Y-75114880D01*
X155601727Y-74961995D01*
X155524485Y-74930000D01*
X155601727Y-74898005D01*
X155830535Y-74745120D01*
X156025120Y-74550535D01*
X156178005Y-74321727D01*
X156283314Y-74067490D01*
X156337000Y-73797592D01*
X156337000Y-73522408D01*
X156283314Y-73252510D01*
X156178005Y-72998273D01*
X156025120Y-72769465D01*
X155830535Y-72574880D01*
X155601727Y-72421995D01*
X155524485Y-72390000D01*
X155601727Y-72358005D01*
X155830535Y-72205120D01*
X156025120Y-72010535D01*
X156178005Y-71781727D01*
X156283314Y-71527490D01*
X156337000Y-71257592D01*
X156337000Y-70982408D01*
X156283314Y-70712510D01*
X156178005Y-70458273D01*
X156025120Y-70229465D01*
X155830535Y-70034880D01*
X155601727Y-69881995D01*
X155347490Y-69776686D01*
X155326847Y-69772580D01*
X155286494Y-69739463D01*
X155176180Y-69680498D01*
X155056482Y-69644188D01*
X154932000Y-69631928D01*
X151550000Y-69631928D01*
X151425518Y-69644188D01*
X151305820Y-69680498D01*
X151195506Y-69739463D01*
X151098815Y-69818815D01*
X151019463Y-69915506D01*
X150960498Y-70025820D01*
X150924188Y-70145518D01*
X150911928Y-70270000D01*
X150911928Y-71970000D01*
X150924188Y-72094482D01*
X150960498Y-72214180D01*
X151019463Y-72324494D01*
X151073222Y-72390000D01*
X151019463Y-72455506D01*
X150960498Y-72565820D01*
X150924188Y-72685518D01*
X150911928Y-72810000D01*
X150911928Y-74510000D01*
X150924188Y-74634482D01*
X150960498Y-74754180D01*
X151019463Y-74864494D01*
X151073222Y-74930000D01*
X151019463Y-74995506D01*
X150960498Y-75105820D01*
X150924188Y-75225518D01*
X150911928Y-75350000D01*
X150911928Y-75630001D01*
X146991019Y-75630001D01*
X146950001Y-75625961D01*
X146908983Y-75630001D01*
X146908982Y-75630001D01*
X146786312Y-75642083D01*
X146628914Y-75689829D01*
X146483855Y-75767365D01*
X146404889Y-75832171D01*
X146356710Y-75871710D01*
X146330564Y-75903569D01*
X143059135Y-79175000D01*
X132933869Y-79175000D01*
X130802000Y-77043133D01*
X130802000Y-76977212D01*
X130758383Y-76757933D01*
X130672824Y-76551376D01*
X130548612Y-76365480D01*
X130390520Y-76207388D01*
X130204624Y-76083176D01*
X129998067Y-75997617D01*
X129778788Y-75954000D01*
X129555212Y-75954000D01*
X129335933Y-75997617D01*
X129129376Y-76083176D01*
X128943480Y-76207388D01*
X128785388Y-76365480D01*
X128661176Y-76551376D01*
X128575617Y-76757933D01*
X128532000Y-76977212D01*
X128532000Y-77200788D01*
X128575617Y-77420067D01*
X128661176Y-77626624D01*
X128785388Y-77812520D01*
X128943480Y-77970612D01*
X129129376Y-78094824D01*
X129335933Y-78180383D01*
X129555212Y-78224000D01*
X129621133Y-78224000D01*
X131968563Y-80571432D01*
X131994709Y-80603291D01*
X132015069Y-80620000D01*
X100101000Y-80620000D01*
X100101000Y-70982408D01*
X100203000Y-70982408D01*
X100203000Y-71257592D01*
X100256686Y-71527490D01*
X100361995Y-71781727D01*
X100514880Y-72010535D01*
X100709465Y-72205120D01*
X100938273Y-72358005D01*
X101015515Y-72390000D01*
X100938273Y-72421995D01*
X100709465Y-72574880D01*
X100514880Y-72769465D01*
X100361995Y-72998273D01*
X100256686Y-73252510D01*
X100203000Y-73522408D01*
X100203000Y-73797592D01*
X100256686Y-74067490D01*
X100361995Y-74321727D01*
X100514880Y-74550535D01*
X100709465Y-74745120D01*
X100938273Y-74898005D01*
X101015515Y-74930000D01*
X100938273Y-74961995D01*
X100709465Y-75114880D01*
X100514880Y-75309465D01*
X100361995Y-75538273D01*
X100256686Y-75792510D01*
X100203000Y-76062408D01*
X100203000Y-76337592D01*
X100256686Y-76607490D01*
X100361995Y-76861727D01*
X100514880Y-77090535D01*
X100709465Y-77285120D01*
X100938273Y-77438005D01*
X101015515Y-77470000D01*
X100938273Y-77501995D01*
X100709465Y-77654880D01*
X100514880Y-77849465D01*
X100361995Y-78078273D01*
X100256686Y-78332510D01*
X100203000Y-78602408D01*
X100203000Y-78877592D01*
X100256686Y-79147490D01*
X100361995Y-79401727D01*
X100514880Y-79630535D01*
X100709465Y-79825120D01*
X100938273Y-79978005D01*
X101192510Y-80083314D01*
X101213153Y-80087420D01*
X101253506Y-80120537D01*
X101363820Y-80179502D01*
X101483518Y-80215812D01*
X101608000Y-80228072D01*
X104990000Y-80228072D01*
X105114482Y-80215812D01*
X105234180Y-80179502D01*
X105344494Y-80120537D01*
X105441185Y-80041185D01*
X105520537Y-79944494D01*
X105579502Y-79834180D01*
X105615812Y-79714482D01*
X105628072Y-79590000D01*
X105628072Y-77890000D01*
X105615812Y-77765518D01*
X105579502Y-77645820D01*
X105520537Y-77535506D01*
X105466778Y-77470000D01*
X105520537Y-77404494D01*
X105579502Y-77294180D01*
X105615812Y-77174482D01*
X105628072Y-77050000D01*
X105628072Y-75350000D01*
X105615812Y-75225518D01*
X105579502Y-75105820D01*
X105520537Y-74995506D01*
X105466778Y-74930000D01*
X105520537Y-74864494D01*
X105579502Y-74754180D01*
X105615812Y-74634482D01*
X105628072Y-74510000D01*
X105628072Y-74495000D01*
X110652133Y-74495000D01*
X111260000Y-75102868D01*
X111260000Y-75168788D01*
X111303617Y-75388067D01*
X111389176Y-75594624D01*
X111513388Y-75780520D01*
X111671480Y-75938612D01*
X111857376Y-76062824D01*
X112063933Y-76148383D01*
X112283212Y-76192000D01*
X112506788Y-76192000D01*
X112726067Y-76148383D01*
X112932624Y-76062824D01*
X113118520Y-75938612D01*
X113276612Y-75780520D01*
X113400824Y-75594624D01*
X113486383Y-75388067D01*
X113530000Y-75168788D01*
X113530000Y-74945212D01*
X113486383Y-74725933D01*
X113400824Y-74519376D01*
X113276612Y-74333480D01*
X113118520Y-74175388D01*
X112932624Y-74051176D01*
X112726067Y-73965617D01*
X112506788Y-73922000D01*
X112440868Y-73922000D01*
X111617446Y-73098579D01*
X111591291Y-73066709D01*
X111464146Y-72962364D01*
X111319087Y-72884828D01*
X111161689Y-72837082D01*
X111039019Y-72825000D01*
X111039018Y-72825000D01*
X110998000Y-72820960D01*
X110956982Y-72825000D01*
X105628072Y-72825000D01*
X105628072Y-72810000D01*
X105615812Y-72685518D01*
X105579502Y-72565820D01*
X105520537Y-72455506D01*
X105466778Y-72390000D01*
X105520537Y-72324494D01*
X105579502Y-72214180D01*
X105615812Y-72094482D01*
X105628072Y-71970000D01*
X105628072Y-70270000D01*
X105615812Y-70145518D01*
X105579502Y-70025820D01*
X105520537Y-69915506D01*
X105441185Y-69818815D01*
X105344494Y-69739463D01*
X105234180Y-69680498D01*
X105114482Y-69644188D01*
X104990000Y-69631928D01*
X101608000Y-69631928D01*
X101483518Y-69644188D01*
X101363820Y-69680498D01*
X101253506Y-69739463D01*
X101213153Y-69772580D01*
X101192510Y-69776686D01*
X100938273Y-69881995D01*
X100709465Y-70034880D01*
X100514880Y-70229465D01*
X100361995Y-70458273D01*
X100256686Y-70712510D01*
X100203000Y-70982408D01*
X100101000Y-70982408D01*
X100101000Y-65902408D01*
X100203000Y-65902408D01*
X100203000Y-66177592D01*
X100256686Y-66447490D01*
X100361995Y-66701727D01*
X100514880Y-66930535D01*
X100709465Y-67125120D01*
X100938273Y-67278005D01*
X101192510Y-67383314D01*
X101213153Y-67387420D01*
X101253506Y-67420537D01*
X101363820Y-67479502D01*
X101483518Y-67515812D01*
X101608000Y-67528072D01*
X104990000Y-67528072D01*
X105114482Y-67515812D01*
X105234180Y-67479502D01*
X105344494Y-67420537D01*
X105441185Y-67341185D01*
X105520537Y-67244494D01*
X105579502Y-67134180D01*
X105615812Y-67014482D01*
X105628072Y-66890000D01*
X105628072Y-66563212D01*
X108847000Y-66563212D01*
X108847000Y-66786788D01*
X108890617Y-67006067D01*
X108976176Y-67212624D01*
X109100388Y-67398520D01*
X109258480Y-67556612D01*
X109444376Y-67680824D01*
X109650933Y-67766383D01*
X109870212Y-67810000D01*
X110093788Y-67810000D01*
X110313067Y-67766383D01*
X110519624Y-67680824D01*
X110705520Y-67556612D01*
X110752132Y-67510000D01*
X111287133Y-67510000D01*
X116213000Y-72435869D01*
X116213000Y-72501788D01*
X116256617Y-72721067D01*
X116342176Y-72927624D01*
X116466388Y-73113520D01*
X116624480Y-73271612D01*
X116810376Y-73395824D01*
X117016933Y-73481383D01*
X117236212Y-73525000D01*
X117459788Y-73525000D01*
X117679067Y-73481383D01*
X117885624Y-73395824D01*
X118071520Y-73271612D01*
X118229612Y-73113520D01*
X118353824Y-72927624D01*
X118439383Y-72721067D01*
X118483000Y-72501788D01*
X118483000Y-72278212D01*
X118439383Y-72058933D01*
X118353824Y-71852376D01*
X118229612Y-71666480D01*
X118071520Y-71508388D01*
X117885624Y-71384176D01*
X117679067Y-71298617D01*
X117459788Y-71255000D01*
X117393869Y-71255000D01*
X112252446Y-66113579D01*
X112226291Y-66081709D01*
X112099146Y-65977364D01*
X111954087Y-65899828D01*
X111796689Y-65852082D01*
X111674019Y-65840000D01*
X111674018Y-65840000D01*
X111633000Y-65835960D01*
X111591982Y-65840000D01*
X110752132Y-65840000D01*
X110705520Y-65793388D01*
X110519624Y-65669176D01*
X110313067Y-65583617D01*
X110093788Y-65540000D01*
X109870212Y-65540000D01*
X109650933Y-65583617D01*
X109444376Y-65669176D01*
X109258480Y-65793388D01*
X109100388Y-65951480D01*
X108976176Y-66137376D01*
X108890617Y-66343933D01*
X108847000Y-66563212D01*
X105628072Y-66563212D01*
X105628072Y-65190000D01*
X150911928Y-65190000D01*
X150911928Y-66890000D01*
X150924188Y-67014482D01*
X150960498Y-67134180D01*
X151019463Y-67244494D01*
X151098815Y-67341185D01*
X151195506Y-67420537D01*
X151305820Y-67479502D01*
X151425518Y-67515812D01*
X151550000Y-67528072D01*
X154932000Y-67528072D01*
X155056482Y-67515812D01*
X155176180Y-67479502D01*
X155286494Y-67420537D01*
X155326847Y-67387420D01*
X155347490Y-67383314D01*
X155601727Y-67278005D01*
X155830535Y-67125120D01*
X156025120Y-66930535D01*
X156178005Y-66701727D01*
X156283314Y-66447490D01*
X156337000Y-66177592D01*
X156337000Y-65902408D01*
X156283314Y-65632510D01*
X156178005Y-65378273D01*
X156025120Y-65149465D01*
X155830535Y-64954880D01*
X155601727Y-64801995D01*
X155347490Y-64696686D01*
X155326847Y-64692580D01*
X155286494Y-64659463D01*
X155176180Y-64600498D01*
X155056482Y-64564188D01*
X154932000Y-64551928D01*
X151550000Y-64551928D01*
X151425518Y-64564188D01*
X151305820Y-64600498D01*
X151195506Y-64659463D01*
X151098815Y-64738815D01*
X151019463Y-64835506D01*
X150960498Y-64945820D01*
X150924188Y-65065518D01*
X150911928Y-65190000D01*
X105628072Y-65190000D01*
X105615812Y-65065518D01*
X105579502Y-64945820D01*
X105520537Y-64835506D01*
X105441185Y-64738815D01*
X105344494Y-64659463D01*
X105234180Y-64600498D01*
X105114482Y-64564188D01*
X104990000Y-64551928D01*
X101608000Y-64551928D01*
X101483518Y-64564188D01*
X101363820Y-64600498D01*
X101253506Y-64659463D01*
X101213153Y-64692580D01*
X101192510Y-64696686D01*
X100938273Y-64801995D01*
X100709465Y-64954880D01*
X100514880Y-65149465D01*
X100361995Y-65378273D01*
X100256686Y-65632510D01*
X100203000Y-65902408D01*
X100101000Y-65902408D01*
X100101000Y-55270000D01*
X157201001Y-55270000D01*
X157201000Y-80620000D01*
G37*
X157201000Y-80620000D02*
X143977933Y-80620000D01*
X143998293Y-80603291D01*
X144024448Y-80571421D01*
X147295870Y-77300001D01*
X150963609Y-77300001D01*
X151019463Y-77404494D01*
X151098815Y-77501185D01*
X151195506Y-77580537D01*
X151305820Y-77639502D01*
X151425518Y-77675812D01*
X151550000Y-77688072D01*
X154932000Y-77688072D01*
X155056482Y-77675812D01*
X155176180Y-77639502D01*
X155286494Y-77580537D01*
X155326847Y-77547420D01*
X155347490Y-77543314D01*
X155601727Y-77438005D01*
X155830535Y-77285120D01*
X156025120Y-77090535D01*
X156178005Y-76861727D01*
X156283314Y-76607490D01*
X156337000Y-76337592D01*
X156337000Y-76062408D01*
X156283314Y-75792510D01*
X156178005Y-75538273D01*
X156025120Y-75309465D01*
X155830535Y-75114880D01*
X155601727Y-74961995D01*
X155524485Y-74930000D01*
X155601727Y-74898005D01*
X155830535Y-74745120D01*
X156025120Y-74550535D01*
X156178005Y-74321727D01*
X156283314Y-74067490D01*
X156337000Y-73797592D01*
X156337000Y-73522408D01*
X156283314Y-73252510D01*
X156178005Y-72998273D01*
X156025120Y-72769465D01*
X155830535Y-72574880D01*
X155601727Y-72421995D01*
X155524485Y-72390000D01*
X155601727Y-72358005D01*
X155830535Y-72205120D01*
X156025120Y-72010535D01*
X156178005Y-71781727D01*
X156283314Y-71527490D01*
X156337000Y-71257592D01*
X156337000Y-70982408D01*
X156283314Y-70712510D01*
X156178005Y-70458273D01*
X156025120Y-70229465D01*
X155830535Y-70034880D01*
X155601727Y-69881995D01*
X155347490Y-69776686D01*
X155326847Y-69772580D01*
X155286494Y-69739463D01*
X155176180Y-69680498D01*
X155056482Y-69644188D01*
X154932000Y-69631928D01*
X151550000Y-69631928D01*
X151425518Y-69644188D01*
X151305820Y-69680498D01*
X151195506Y-69739463D01*
X151098815Y-69818815D01*
X151019463Y-69915506D01*
X150960498Y-70025820D01*
X150924188Y-70145518D01*
X150911928Y-70270000D01*
X150911928Y-71970000D01*
X150924188Y-72094482D01*
X150960498Y-72214180D01*
X151019463Y-72324494D01*
X151073222Y-72390000D01*
X151019463Y-72455506D01*
X150960498Y-72565820D01*
X150924188Y-72685518D01*
X150911928Y-72810000D01*
X150911928Y-74510000D01*
X150924188Y-74634482D01*
X150960498Y-74754180D01*
X151019463Y-74864494D01*
X151073222Y-74930000D01*
X151019463Y-74995506D01*
X150960498Y-75105820D01*
X150924188Y-75225518D01*
X150911928Y-75350000D01*
X150911928Y-75630001D01*
X146991019Y-75630001D01*
X146950001Y-75625961D01*
X146908983Y-75630001D01*
X146908982Y-75630001D01*
X146786312Y-75642083D01*
X146628914Y-75689829D01*
X146483855Y-75767365D01*
X146404889Y-75832171D01*
X146356710Y-75871710D01*
X146330564Y-75903569D01*
X143059135Y-79175000D01*
X132933869Y-79175000D01*
X130802000Y-77043133D01*
X130802000Y-76977212D01*
X130758383Y-76757933D01*
X130672824Y-76551376D01*
X130548612Y-76365480D01*
X130390520Y-76207388D01*
X130204624Y-76083176D01*
X129998067Y-75997617D01*
X129778788Y-75954000D01*
X129555212Y-75954000D01*
X129335933Y-75997617D01*
X129129376Y-76083176D01*
X128943480Y-76207388D01*
X128785388Y-76365480D01*
X128661176Y-76551376D01*
X128575617Y-76757933D01*
X128532000Y-76977212D01*
X128532000Y-77200788D01*
X128575617Y-77420067D01*
X128661176Y-77626624D01*
X128785388Y-77812520D01*
X128943480Y-77970612D01*
X129129376Y-78094824D01*
X129335933Y-78180383D01*
X129555212Y-78224000D01*
X129621133Y-78224000D01*
X131968563Y-80571432D01*
X131994709Y-80603291D01*
X132015069Y-80620000D01*
X100101000Y-80620000D01*
X100101000Y-70982408D01*
X100203000Y-70982408D01*
X100203000Y-71257592D01*
X100256686Y-71527490D01*
X100361995Y-71781727D01*
X100514880Y-72010535D01*
X100709465Y-72205120D01*
X100938273Y-72358005D01*
X101015515Y-72390000D01*
X100938273Y-72421995D01*
X100709465Y-72574880D01*
X100514880Y-72769465D01*
X100361995Y-72998273D01*
X100256686Y-73252510D01*
X100203000Y-73522408D01*
X100203000Y-73797592D01*
X100256686Y-74067490D01*
X100361995Y-74321727D01*
X100514880Y-74550535D01*
X100709465Y-74745120D01*
X100938273Y-74898005D01*
X101015515Y-74930000D01*
X100938273Y-74961995D01*
X100709465Y-75114880D01*
X100514880Y-75309465D01*
X100361995Y-75538273D01*
X100256686Y-75792510D01*
X100203000Y-76062408D01*
X100203000Y-76337592D01*
X100256686Y-76607490D01*
X100361995Y-76861727D01*
X100514880Y-77090535D01*
X100709465Y-77285120D01*
X100938273Y-77438005D01*
X101015515Y-77470000D01*
X100938273Y-77501995D01*
X100709465Y-77654880D01*
X100514880Y-77849465D01*
X100361995Y-78078273D01*
X100256686Y-78332510D01*
X100203000Y-78602408D01*
X100203000Y-78877592D01*
X100256686Y-79147490D01*
X100361995Y-79401727D01*
X100514880Y-79630535D01*
X100709465Y-79825120D01*
X100938273Y-79978005D01*
X101192510Y-80083314D01*
X101213153Y-80087420D01*
X101253506Y-80120537D01*
X101363820Y-80179502D01*
X101483518Y-80215812D01*
X101608000Y-80228072D01*
X104990000Y-80228072D01*
X105114482Y-80215812D01*
X105234180Y-80179502D01*
X105344494Y-80120537D01*
X105441185Y-80041185D01*
X105520537Y-79944494D01*
X105579502Y-79834180D01*
X105615812Y-79714482D01*
X105628072Y-79590000D01*
X105628072Y-77890000D01*
X105615812Y-77765518D01*
X105579502Y-77645820D01*
X105520537Y-77535506D01*
X105466778Y-77470000D01*
X105520537Y-77404494D01*
X105579502Y-77294180D01*
X105615812Y-77174482D01*
X105628072Y-77050000D01*
X105628072Y-75350000D01*
X105615812Y-75225518D01*
X105579502Y-75105820D01*
X105520537Y-74995506D01*
X105466778Y-74930000D01*
X105520537Y-74864494D01*
X105579502Y-74754180D01*
X105615812Y-74634482D01*
X105628072Y-74510000D01*
X105628072Y-74495000D01*
X110652133Y-74495000D01*
X111260000Y-75102868D01*
X111260000Y-75168788D01*
X111303617Y-75388067D01*
X111389176Y-75594624D01*
X111513388Y-75780520D01*
X111671480Y-75938612D01*
X111857376Y-76062824D01*
X112063933Y-76148383D01*
X112283212Y-76192000D01*
X112506788Y-76192000D01*
X112726067Y-76148383D01*
X112932624Y-76062824D01*
X113118520Y-75938612D01*
X113276612Y-75780520D01*
X113400824Y-75594624D01*
X113486383Y-75388067D01*
X113530000Y-75168788D01*
X113530000Y-74945212D01*
X113486383Y-74725933D01*
X113400824Y-74519376D01*
X113276612Y-74333480D01*
X113118520Y-74175388D01*
X112932624Y-74051176D01*
X112726067Y-73965617D01*
X112506788Y-73922000D01*
X112440868Y-73922000D01*
X111617446Y-73098579D01*
X111591291Y-73066709D01*
X111464146Y-72962364D01*
X111319087Y-72884828D01*
X111161689Y-72837082D01*
X111039019Y-72825000D01*
X111039018Y-72825000D01*
X110998000Y-72820960D01*
X110956982Y-72825000D01*
X105628072Y-72825000D01*
X105628072Y-72810000D01*
X105615812Y-72685518D01*
X105579502Y-72565820D01*
X105520537Y-72455506D01*
X105466778Y-72390000D01*
X105520537Y-72324494D01*
X105579502Y-72214180D01*
X105615812Y-72094482D01*
X105628072Y-71970000D01*
X105628072Y-70270000D01*
X105615812Y-70145518D01*
X105579502Y-70025820D01*
X105520537Y-69915506D01*
X105441185Y-69818815D01*
X105344494Y-69739463D01*
X105234180Y-69680498D01*
X105114482Y-69644188D01*
X104990000Y-69631928D01*
X101608000Y-69631928D01*
X101483518Y-69644188D01*
X101363820Y-69680498D01*
X101253506Y-69739463D01*
X101213153Y-69772580D01*
X101192510Y-69776686D01*
X100938273Y-69881995D01*
X100709465Y-70034880D01*
X100514880Y-70229465D01*
X100361995Y-70458273D01*
X100256686Y-70712510D01*
X100203000Y-70982408D01*
X100101000Y-70982408D01*
X100101000Y-65902408D01*
X100203000Y-65902408D01*
X100203000Y-66177592D01*
X100256686Y-66447490D01*
X100361995Y-66701727D01*
X100514880Y-66930535D01*
X100709465Y-67125120D01*
X100938273Y-67278005D01*
X101192510Y-67383314D01*
X101213153Y-67387420D01*
X101253506Y-67420537D01*
X101363820Y-67479502D01*
X101483518Y-67515812D01*
X101608000Y-67528072D01*
X104990000Y-67528072D01*
X105114482Y-67515812D01*
X105234180Y-67479502D01*
X105344494Y-67420537D01*
X105441185Y-67341185D01*
X105520537Y-67244494D01*
X105579502Y-67134180D01*
X105615812Y-67014482D01*
X105628072Y-66890000D01*
X105628072Y-66563212D01*
X108847000Y-66563212D01*
X108847000Y-66786788D01*
X108890617Y-67006067D01*
X108976176Y-67212624D01*
X109100388Y-67398520D01*
X109258480Y-67556612D01*
X109444376Y-67680824D01*
X109650933Y-67766383D01*
X109870212Y-67810000D01*
X110093788Y-67810000D01*
X110313067Y-67766383D01*
X110519624Y-67680824D01*
X110705520Y-67556612D01*
X110752132Y-67510000D01*
X111287133Y-67510000D01*
X116213000Y-72435869D01*
X116213000Y-72501788D01*
X116256617Y-72721067D01*
X116342176Y-72927624D01*
X116466388Y-73113520D01*
X116624480Y-73271612D01*
X116810376Y-73395824D01*
X117016933Y-73481383D01*
X117236212Y-73525000D01*
X117459788Y-73525000D01*
X117679067Y-73481383D01*
X117885624Y-73395824D01*
X118071520Y-73271612D01*
X118229612Y-73113520D01*
X118353824Y-72927624D01*
X118439383Y-72721067D01*
X118483000Y-72501788D01*
X118483000Y-72278212D01*
X118439383Y-72058933D01*
X118353824Y-71852376D01*
X118229612Y-71666480D01*
X118071520Y-71508388D01*
X117885624Y-71384176D01*
X117679067Y-71298617D01*
X117459788Y-71255000D01*
X117393869Y-71255000D01*
X112252446Y-66113579D01*
X112226291Y-66081709D01*
X112099146Y-65977364D01*
X111954087Y-65899828D01*
X111796689Y-65852082D01*
X111674019Y-65840000D01*
X111674018Y-65840000D01*
X111633000Y-65835960D01*
X111591982Y-65840000D01*
X110752132Y-65840000D01*
X110705520Y-65793388D01*
X110519624Y-65669176D01*
X110313067Y-65583617D01*
X110093788Y-65540000D01*
X109870212Y-65540000D01*
X109650933Y-65583617D01*
X109444376Y-65669176D01*
X109258480Y-65793388D01*
X109100388Y-65951480D01*
X108976176Y-66137376D01*
X108890617Y-66343933D01*
X108847000Y-66563212D01*
X105628072Y-66563212D01*
X105628072Y-65190000D01*
X150911928Y-65190000D01*
X150911928Y-66890000D01*
X150924188Y-67014482D01*
X150960498Y-67134180D01*
X151019463Y-67244494D01*
X151098815Y-67341185D01*
X151195506Y-67420537D01*
X151305820Y-67479502D01*
X151425518Y-67515812D01*
X151550000Y-67528072D01*
X154932000Y-67528072D01*
X155056482Y-67515812D01*
X155176180Y-67479502D01*
X155286494Y-67420537D01*
X155326847Y-67387420D01*
X155347490Y-67383314D01*
X155601727Y-67278005D01*
X155830535Y-67125120D01*
X156025120Y-66930535D01*
X156178005Y-66701727D01*
X156283314Y-66447490D01*
X156337000Y-66177592D01*
X156337000Y-65902408D01*
X156283314Y-65632510D01*
X156178005Y-65378273D01*
X156025120Y-65149465D01*
X155830535Y-64954880D01*
X155601727Y-64801995D01*
X155347490Y-64696686D01*
X155326847Y-64692580D01*
X155286494Y-64659463D01*
X155176180Y-64600498D01*
X155056482Y-64564188D01*
X154932000Y-64551928D01*
X151550000Y-64551928D01*
X151425518Y-64564188D01*
X151305820Y-64600498D01*
X151195506Y-64659463D01*
X151098815Y-64738815D01*
X151019463Y-64835506D01*
X150960498Y-64945820D01*
X150924188Y-65065518D01*
X150911928Y-65190000D01*
X105628072Y-65190000D01*
X105615812Y-65065518D01*
X105579502Y-64945820D01*
X105520537Y-64835506D01*
X105441185Y-64738815D01*
X105344494Y-64659463D01*
X105234180Y-64600498D01*
X105114482Y-64564188D01*
X104990000Y-64551928D01*
X101608000Y-64551928D01*
X101483518Y-64564188D01*
X101363820Y-64600498D01*
X101253506Y-64659463D01*
X101213153Y-64692580D01*
X101192510Y-64696686D01*
X100938273Y-64801995D01*
X100709465Y-64954880D01*
X100514880Y-65149465D01*
X100361995Y-65378273D01*
X100256686Y-65632510D01*
X100203000Y-65902408D01*
X100101000Y-65902408D01*
X100101000Y-55270000D01*
X157201001Y-55270000D01*
X157201000Y-80620000D01*
%TD*%
M02*
