%TF.GenerationSoftware,KiCad,Pcbnew,(5.1.6)-1*%
%TF.CreationDate,2020-12-22T23:38:05+01:00*%
%TF.ProjectId,02_Batt_Alim,30325f42-6174-4745-9f41-6c696d2e6b69,rev?*%
%TF.SameCoordinates,Original*%
%TF.FileFunction,Legend,Top*%
%TF.FilePolarity,Positive*%
%FSLAX46Y46*%
G04 Gerber Fmt 4.6, Leading zero omitted, Abs format (unit mm)*
G04 Created by KiCad (PCBNEW (5.1.6)-1) date 2020-12-22 23:38:05*
%MOMM*%
%LPD*%
G01*
G04 APERTURE LIST*
%ADD10C,0.300000*%
%TA.AperFunction,Profile*%
%ADD11C,0.050000*%
%TD*%
%ADD12C,0.150000*%
%ADD13C,0.120000*%
%ADD14C,0.127000*%
%ADD15C,0.100000*%
%ADD16C,0.152400*%
%ADD17C,0.200000*%
G04 APERTURE END LIST*
D10*
X105161571Y-57042857D02*
X105375857Y-57114285D01*
X105447285Y-57185714D01*
X105518714Y-57328571D01*
X105518714Y-57542857D01*
X105447285Y-57685714D01*
X105375857Y-57757142D01*
X105233000Y-57828571D01*
X104661571Y-57828571D01*
X104661571Y-56328571D01*
X105161571Y-56328571D01*
X105304428Y-56400000D01*
X105375857Y-56471428D01*
X105447285Y-56614285D01*
X105447285Y-56757142D01*
X105375857Y-56900000D01*
X105304428Y-56971428D01*
X105161571Y-57042857D01*
X104661571Y-57042857D01*
X106804428Y-57828571D02*
X106804428Y-57042857D01*
X106733000Y-56900000D01*
X106590142Y-56828571D01*
X106304428Y-56828571D01*
X106161571Y-56900000D01*
X106804428Y-57757142D02*
X106661571Y-57828571D01*
X106304428Y-57828571D01*
X106161571Y-57757142D01*
X106090142Y-57614285D01*
X106090142Y-57471428D01*
X106161571Y-57328571D01*
X106304428Y-57257142D01*
X106661571Y-57257142D01*
X106804428Y-57185714D01*
X107304428Y-56828571D02*
X107875857Y-56828571D01*
X107518714Y-56328571D02*
X107518714Y-57614285D01*
X107590142Y-57757142D01*
X107733000Y-57828571D01*
X107875857Y-57828571D01*
X108161571Y-56828571D02*
X108733000Y-56828571D01*
X108375857Y-56328571D02*
X108375857Y-57614285D01*
X108447285Y-57757142D01*
X108590142Y-57828571D01*
X108733000Y-57828571D01*
X108875857Y-57971428D02*
X110018714Y-57971428D01*
X110304428Y-57400000D02*
X111018714Y-57400000D01*
X110161571Y-57828571D02*
X110661571Y-56328571D01*
X111161571Y-57828571D01*
X111875857Y-57828571D02*
X111733000Y-57757142D01*
X111661571Y-57614285D01*
X111661571Y-56328571D01*
X112447285Y-57828571D02*
X112447285Y-56828571D01*
X112447285Y-56328571D02*
X112375857Y-56400000D01*
X112447285Y-56471428D01*
X112518714Y-56400000D01*
X112447285Y-56328571D01*
X112447285Y-56471428D01*
X113161571Y-57828571D02*
X113161571Y-56828571D01*
X113161571Y-56971428D02*
X113233000Y-56900000D01*
X113375857Y-56828571D01*
X113590142Y-56828571D01*
X113733000Y-56900000D01*
X113804428Y-57042857D01*
X113804428Y-57828571D01*
X113804428Y-57042857D02*
X113875857Y-56900000D01*
X114018714Y-56828571D01*
X114233000Y-56828571D01*
X114375857Y-56900000D01*
X114447285Y-57042857D01*
X114447285Y-57828571D01*
X117375857Y-56471428D02*
X117447285Y-56400000D01*
X117590142Y-56328571D01*
X117947285Y-56328571D01*
X118090142Y-56400000D01*
X118161571Y-56471428D01*
X118233000Y-56614285D01*
X118233000Y-56757142D01*
X118161571Y-56971428D01*
X117304428Y-57828571D01*
X118233000Y-57828571D01*
X119161571Y-56328571D02*
X119304428Y-56328571D01*
X119447285Y-56400000D01*
X119518714Y-56471428D01*
X119590142Y-56614285D01*
X119661571Y-56900000D01*
X119661571Y-57257142D01*
X119590142Y-57542857D01*
X119518714Y-57685714D01*
X119447285Y-57757142D01*
X119304428Y-57828571D01*
X119161571Y-57828571D01*
X119018714Y-57757142D01*
X118947285Y-57685714D01*
X118875857Y-57542857D01*
X118804428Y-57257142D01*
X118804428Y-56900000D01*
X118875857Y-56614285D01*
X118947285Y-56471428D01*
X119018714Y-56400000D01*
X119161571Y-56328571D01*
X120233000Y-56471428D02*
X120304428Y-56400000D01*
X120447285Y-56328571D01*
X120804428Y-56328571D01*
X120947285Y-56400000D01*
X121018714Y-56471428D01*
X121090142Y-56614285D01*
X121090142Y-56757142D01*
X121018714Y-56971428D01*
X120161571Y-57828571D01*
X121090142Y-57828571D01*
X122018714Y-56328571D02*
X122161571Y-56328571D01*
X122304428Y-56400000D01*
X122375857Y-56471428D01*
X122447285Y-56614285D01*
X122518714Y-56900000D01*
X122518714Y-57257142D01*
X122447285Y-57542857D01*
X122375857Y-57685714D01*
X122304428Y-57757142D01*
X122161571Y-57828571D01*
X122018714Y-57828571D01*
X121875857Y-57757142D01*
X121804428Y-57685714D01*
X121733000Y-57542857D01*
X121661571Y-57257142D01*
X121661571Y-56900000D01*
X121733000Y-56614285D01*
X121804428Y-56471428D01*
X121875857Y-56400000D01*
X122018714Y-56328571D01*
X124233000Y-56257142D02*
X122947285Y-58185714D01*
X125518714Y-57828571D02*
X124661571Y-57828571D01*
X125090142Y-57828571D02*
X125090142Y-56328571D01*
X124947285Y-56542857D01*
X124804428Y-56685714D01*
X124661571Y-56757142D01*
X126090142Y-56471428D02*
X126161571Y-56400000D01*
X126304428Y-56328571D01*
X126661571Y-56328571D01*
X126804428Y-56400000D01*
X126875857Y-56471428D01*
X126947285Y-56614285D01*
X126947285Y-56757142D01*
X126875857Y-56971428D01*
X126018714Y-57828571D01*
X126947285Y-57828571D01*
X128661571Y-56257142D02*
X127375857Y-58185714D01*
X129090142Y-56471428D02*
X129161571Y-56400000D01*
X129304428Y-56328571D01*
X129661571Y-56328571D01*
X129804428Y-56400000D01*
X129875857Y-56471428D01*
X129947285Y-56614285D01*
X129947285Y-56757142D01*
X129875857Y-56971428D01*
X129018714Y-57828571D01*
X129947285Y-57828571D01*
X130518714Y-56471428D02*
X130590142Y-56400000D01*
X130733000Y-56328571D01*
X131090142Y-56328571D01*
X131233000Y-56400000D01*
X131304428Y-56471428D01*
X131375857Y-56614285D01*
X131375857Y-56757142D01*
X131304428Y-56971428D01*
X130447285Y-57828571D01*
X131375857Y-57828571D01*
D11*
X134620000Y-97790000D02*
X100330000Y-97790000D01*
X134620000Y-54610000D02*
X134620000Y-97790000D01*
X100330000Y-54610000D02*
X134620000Y-54610000D01*
X100330000Y-97790000D02*
X100330000Y-54610000D01*
D12*
X125380952Y-94956380D02*
X124904761Y-94956380D01*
X124857142Y-95432571D01*
X124904761Y-95384952D01*
X125000000Y-95337333D01*
X125238095Y-95337333D01*
X125333333Y-95384952D01*
X125380952Y-95432571D01*
X125428571Y-95527809D01*
X125428571Y-95765904D01*
X125380952Y-95861142D01*
X125333333Y-95908761D01*
X125238095Y-95956380D01*
X125000000Y-95956380D01*
X124904761Y-95908761D01*
X124857142Y-95861142D01*
X125714285Y-94956380D02*
X126047619Y-95956380D01*
X126380952Y-94956380D01*
X127666666Y-94956380D02*
X127857142Y-94956380D01*
X127952380Y-95004000D01*
X128047619Y-95099238D01*
X128095238Y-95289714D01*
X128095238Y-95623047D01*
X128047619Y-95813523D01*
X127952380Y-95908761D01*
X127857142Y-95956380D01*
X127666666Y-95956380D01*
X127571428Y-95908761D01*
X127476190Y-95813523D01*
X127428571Y-95623047D01*
X127428571Y-95289714D01*
X127476190Y-95099238D01*
X127571428Y-95004000D01*
X127666666Y-94956380D01*
X128523809Y-95956380D02*
X128523809Y-94956380D01*
X129095238Y-95956380D01*
X129095238Y-94956380D01*
X128071761Y-61618761D02*
X128214619Y-61666380D01*
X128452714Y-61666380D01*
X128547952Y-61618761D01*
X128595571Y-61571142D01*
X128643190Y-61475904D01*
X128643190Y-61380666D01*
X128595571Y-61285428D01*
X128547952Y-61237809D01*
X128452714Y-61190190D01*
X128262238Y-61142571D01*
X128167000Y-61094952D01*
X128119380Y-61047333D01*
X128071761Y-60952095D01*
X128071761Y-60856857D01*
X128119380Y-60761619D01*
X128167000Y-60714000D01*
X128262238Y-60666380D01*
X128500333Y-60666380D01*
X128643190Y-60714000D01*
X128928904Y-60666380D02*
X129500333Y-60666380D01*
X129214619Y-61666380D02*
X129214619Y-60666380D01*
X130167000Y-61142571D02*
X130309857Y-61190190D01*
X130357476Y-61237809D01*
X130405095Y-61333047D01*
X130405095Y-61475904D01*
X130357476Y-61571142D01*
X130309857Y-61618761D01*
X130214619Y-61666380D01*
X129833666Y-61666380D01*
X129833666Y-60666380D01*
X130167000Y-60666380D01*
X130262238Y-60714000D01*
X130309857Y-60761619D01*
X130357476Y-60856857D01*
X130357476Y-60952095D01*
X130309857Y-61047333D01*
X130262238Y-61094952D01*
X130167000Y-61142571D01*
X129833666Y-61142571D01*
X131024142Y-61190190D02*
X131024142Y-61666380D01*
X130690809Y-60666380D02*
X131024142Y-61190190D01*
X131357476Y-60666380D01*
X128825714Y-59793142D02*
X128778095Y-59840761D01*
X128635238Y-59888380D01*
X128540000Y-59888380D01*
X128397142Y-59840761D01*
X128301904Y-59745523D01*
X128254285Y-59650285D01*
X128206666Y-59459809D01*
X128206666Y-59316952D01*
X128254285Y-59126476D01*
X128301904Y-59031238D01*
X128397142Y-58936000D01*
X128540000Y-58888380D01*
X128635238Y-58888380D01*
X128778095Y-58936000D01*
X128825714Y-58983619D01*
X129254285Y-59888380D02*
X129254285Y-58888380D01*
X129254285Y-59364571D02*
X129825714Y-59364571D01*
X129825714Y-59888380D02*
X129825714Y-58888380D01*
X130825714Y-58936000D02*
X130730476Y-58888380D01*
X130587619Y-58888380D01*
X130444761Y-58936000D01*
X130349523Y-59031238D01*
X130301904Y-59126476D01*
X130254285Y-59316952D01*
X130254285Y-59459809D01*
X130301904Y-59650285D01*
X130349523Y-59745523D01*
X130444761Y-59840761D01*
X130587619Y-59888380D01*
X130682857Y-59888380D01*
X130825714Y-59840761D01*
X130873333Y-59793142D01*
X130873333Y-59459809D01*
X130682857Y-59459809D01*
D13*
%TO.C,Q1*%
X132735000Y-75565000D02*
X132735000Y-72115000D01*
X132735000Y-75565000D02*
X132735000Y-77515000D01*
X127615000Y-75565000D02*
X127615000Y-73615000D01*
X127615000Y-75565000D02*
X127615000Y-77515000D01*
%TO.C,J8*%
X105470000Y-82610000D02*
X104140000Y-82610000D01*
X105470000Y-81280000D02*
X105470000Y-82610000D01*
X105470000Y-80010000D02*
X102810000Y-80010000D01*
X102810000Y-80010000D02*
X102810000Y-79950000D01*
X105470000Y-80010000D02*
X105470000Y-79950000D01*
X105470000Y-79950000D02*
X102810000Y-79950000D01*
%TO.C,J11*%
X105470000Y-80070000D02*
X104140000Y-80070000D01*
X105470000Y-78740000D02*
X105470000Y-80070000D01*
X105470000Y-77470000D02*
X102810000Y-77470000D01*
X102810000Y-77470000D02*
X102810000Y-77410000D01*
X105470000Y-77470000D02*
X105470000Y-77410000D01*
X105470000Y-77410000D02*
X102810000Y-77410000D01*
%TO.C,R17*%
X115949000Y-73243221D02*
X115949000Y-73568779D01*
X116969000Y-73243221D02*
X116969000Y-73568779D01*
%TO.C,C1*%
X112905000Y-63662779D02*
X112905000Y-63337221D01*
X111885000Y-63662779D02*
X111885000Y-63337221D01*
%TO.C,C2*%
X107821000Y-67020221D02*
X107821000Y-67345779D01*
X108841000Y-67020221D02*
X108841000Y-67345779D01*
%TO.C,C3*%
X109310000Y-92677064D02*
X109310000Y-91472936D01*
X106590000Y-92677064D02*
X106590000Y-91472936D01*
%TO.C,C4*%
X127545000Y-82582936D02*
X127545000Y-83787064D01*
X130265000Y-82582936D02*
X130265000Y-83787064D01*
%TO.C,C5*%
X109472000Y-70068221D02*
X109472000Y-70393779D01*
X110492000Y-70068221D02*
X110492000Y-70393779D01*
%TO.C,D2*%
X124880000Y-61060000D02*
X127165000Y-61060000D01*
X124880000Y-59590000D02*
X124880000Y-61060000D01*
X127165000Y-59590000D02*
X124880000Y-59590000D01*
%TO.C,D3*%
X124880000Y-62965000D02*
X127165000Y-62965000D01*
X124880000Y-61495000D02*
X124880000Y-62965000D01*
X127165000Y-61495000D02*
X124880000Y-61495000D01*
%TO.C,D6*%
X128637500Y-93245000D02*
X126352500Y-93245000D01*
X128637500Y-94715000D02*
X128637500Y-93245000D01*
X126352500Y-94715000D02*
X128637500Y-94715000D01*
D14*
%TO.C,IC1*%
X115375000Y-60030000D02*
X115375000Y-64430000D01*
X115375000Y-64430000D02*
X119575000Y-64430000D01*
X119575000Y-64430000D02*
X119575000Y-60030000D01*
X119575000Y-60030000D02*
X115375000Y-60030000D01*
D15*
X116098606Y-60530000D02*
G75*
G03*
X116098606Y-60530000I-223606J0D01*
G01*
D16*
%TO.C,IC2*%
X112728000Y-68428000D02*
X114348000Y-68428000D01*
X114348000Y-71272000D02*
X112728000Y-71272000D01*
X112728000Y-70372000D02*
X112728000Y-69328000D01*
X114348000Y-70278000D02*
X114348000Y-70372000D01*
X114348000Y-69328000D02*
X114348000Y-69422000D01*
X114348000Y-71178000D02*
X114348000Y-71272000D01*
X114348000Y-68428000D02*
X114348000Y-68522000D01*
X112728000Y-68522000D02*
X112728000Y-68428000D01*
X112728000Y-71272000D02*
X112728000Y-71178000D01*
D14*
X113938000Y-70850000D02*
G75*
G03*
X113938000Y-70850000I-100000J0D01*
G01*
D13*
%TO.C,J1*%
X105470000Y-67370000D02*
X104140000Y-67370000D01*
X105470000Y-66040000D02*
X105470000Y-67370000D01*
X105470000Y-64770000D02*
X102810000Y-64770000D01*
X102810000Y-64770000D02*
X102810000Y-64710000D01*
X105470000Y-64770000D02*
X105470000Y-64710000D01*
X105470000Y-64710000D02*
X102810000Y-64710000D01*
%TO.C,J2*%
X105470000Y-69910000D02*
X104140000Y-69910000D01*
X105470000Y-68580000D02*
X105470000Y-69910000D01*
X105470000Y-67310000D02*
X102810000Y-67310000D01*
X102810000Y-67310000D02*
X102810000Y-67250000D01*
X105470000Y-67310000D02*
X105470000Y-67250000D01*
X105470000Y-67250000D02*
X102810000Y-67250000D01*
%TO.C,J3*%
X105470000Y-95310000D02*
X104140000Y-95310000D01*
X105470000Y-93980000D02*
X105470000Y-95310000D01*
X105470000Y-92710000D02*
X102810000Y-92710000D01*
X102810000Y-92710000D02*
X102810000Y-92650000D01*
X105470000Y-92710000D02*
X105470000Y-92650000D01*
X105470000Y-92650000D02*
X102810000Y-92650000D01*
%TO.C,J4*%
X105470000Y-92770000D02*
X104140000Y-92770000D01*
X105470000Y-91440000D02*
X105470000Y-92770000D01*
X105470000Y-90170000D02*
X102810000Y-90170000D01*
X102810000Y-90170000D02*
X102810000Y-90110000D01*
X105470000Y-90170000D02*
X105470000Y-90110000D01*
X105470000Y-90110000D02*
X102810000Y-90110000D01*
%TO.C,J5*%
X105470000Y-90230000D02*
X104140000Y-90230000D01*
X105470000Y-88900000D02*
X105470000Y-90230000D01*
X105470000Y-87630000D02*
X102810000Y-87630000D01*
X102810000Y-87630000D02*
X102810000Y-87570000D01*
X105470000Y-87630000D02*
X105470000Y-87570000D01*
X105470000Y-87570000D02*
X102810000Y-87570000D01*
%TO.C,J6*%
X105470000Y-87690000D02*
X104140000Y-87690000D01*
X105470000Y-86360000D02*
X105470000Y-87690000D01*
X105470000Y-85090000D02*
X102810000Y-85090000D01*
X102810000Y-85090000D02*
X102810000Y-85030000D01*
X105470000Y-85090000D02*
X105470000Y-85030000D01*
X105470000Y-85030000D02*
X102810000Y-85030000D01*
%TO.C,J7*%
X105470000Y-85150000D02*
X104140000Y-85150000D01*
X105470000Y-83820000D02*
X105470000Y-85150000D01*
X105470000Y-82550000D02*
X102810000Y-82550000D01*
X102810000Y-82550000D02*
X102810000Y-82490000D01*
X105470000Y-82550000D02*
X105470000Y-82490000D01*
X105470000Y-82490000D02*
X102810000Y-82490000D01*
%TO.C,J9*%
X105470000Y-72450000D02*
X104140000Y-72450000D01*
X105470000Y-71120000D02*
X105470000Y-72450000D01*
X105470000Y-69850000D02*
X102810000Y-69850000D01*
X102810000Y-69850000D02*
X102810000Y-69790000D01*
X105470000Y-69850000D02*
X105470000Y-69790000D01*
X105470000Y-69790000D02*
X102810000Y-69790000D01*
%TO.C,J10*%
X105470000Y-74990000D02*
X104140000Y-74990000D01*
X105470000Y-73660000D02*
X105470000Y-74990000D01*
X105470000Y-72390000D02*
X102810000Y-72390000D01*
X102810000Y-72390000D02*
X102810000Y-72330000D01*
X105470000Y-72390000D02*
X105470000Y-72330000D01*
X105470000Y-72330000D02*
X102810000Y-72330000D01*
%TO.C,J12*%
X105470000Y-77530000D02*
X104140000Y-77530000D01*
X105470000Y-76200000D02*
X105470000Y-77530000D01*
X105470000Y-74930000D02*
X102810000Y-74930000D01*
X102810000Y-74930000D02*
X102810000Y-74870000D01*
X105470000Y-74930000D02*
X105470000Y-74870000D01*
X105470000Y-74870000D02*
X102810000Y-74870000D01*
%TO.C,L1*%
X115985000Y-78520000D02*
X119185000Y-78520000D01*
X115985000Y-89120000D02*
X115985000Y-78520000D01*
X119185000Y-89120000D02*
X115985000Y-89120000D01*
X126585000Y-89120000D02*
X123385000Y-89120000D01*
X126585000Y-78520000D02*
X126585000Y-89120000D01*
X123385000Y-78520000D02*
X126585000Y-78520000D01*
%TO.C,Q2*%
X109095000Y-85415000D02*
X110555000Y-85415000D01*
X109095000Y-88575000D02*
X111255000Y-88575000D01*
X109095000Y-88575000D02*
X109095000Y-87645000D01*
X109095000Y-85415000D02*
X109095000Y-86345000D01*
%TO.C,Q3*%
X122555000Y-72410000D02*
X126005000Y-72410000D01*
X122555000Y-72410000D02*
X120605000Y-72410000D01*
X122555000Y-67290000D02*
X124505000Y-67290000D01*
X122555000Y-67290000D02*
X120605000Y-67290000D01*
D14*
%TO.C,Q4*%
X108240000Y-75175000D02*
X112740000Y-75175000D01*
X108240000Y-72145000D02*
X112740000Y-72145000D01*
D17*
X106150000Y-72285000D02*
G75*
G03*
X106150000Y-72285000I-100000J0D01*
G01*
D13*
%TO.C,R1*%
X107825000Y-87792779D02*
X107825000Y-87467221D01*
X106805000Y-87792779D02*
X106805000Y-87467221D01*
%TO.C,R2*%
X113019721Y-88775000D02*
X113345279Y-88775000D01*
X113019721Y-87755000D02*
X113345279Y-87755000D01*
%TO.C,R3*%
X107440000Y-82387221D02*
X107440000Y-82712779D01*
X108460000Y-82387221D02*
X108460000Y-82712779D01*
%TO.C,R4*%
X110962221Y-84330000D02*
X111287779Y-84330000D01*
X110962221Y-83310000D02*
X111287779Y-83310000D01*
%TO.C,R5*%
X113345279Y-85850000D02*
X113019721Y-85850000D01*
X113345279Y-86870000D02*
X113019721Y-86870000D01*
%TO.C,R6*%
X123352779Y-59815000D02*
X123027221Y-59815000D01*
X123352779Y-60835000D02*
X123027221Y-60835000D01*
%TO.C,R7*%
X112905000Y-59852779D02*
X112905000Y-59527221D01*
X111885000Y-59852779D02*
X111885000Y-59527221D01*
%TO.C,R8*%
X123352779Y-61720000D02*
X123027221Y-61720000D01*
X123352779Y-62740000D02*
X123027221Y-62740000D01*
%TO.C,R9*%
X109382779Y-58545000D02*
X109057221Y-58545000D01*
X109382779Y-59565000D02*
X109057221Y-59565000D01*
%TO.C,R10*%
X109382779Y-60450000D02*
X109057221Y-60450000D01*
X109382779Y-61470000D02*
X109057221Y-61470000D01*
%TO.C,R11*%
X125257779Y-65530000D02*
X124932221Y-65530000D01*
X125257779Y-66550000D02*
X124932221Y-66550000D01*
%TO.C,R12*%
X109382779Y-62355000D02*
X109057221Y-62355000D01*
X109382779Y-63375000D02*
X109057221Y-63375000D01*
%TO.C,R13*%
X125257779Y-63625000D02*
X124932221Y-63625000D01*
X125257779Y-64645000D02*
X124932221Y-64645000D01*
%TO.C,R14*%
X109382779Y-64260000D02*
X109057221Y-64260000D01*
X109382779Y-65280000D02*
X109057221Y-65280000D01*
%TO.C,R15*%
X130647221Y-94490000D02*
X130972779Y-94490000D01*
X130647221Y-93470000D02*
X130972779Y-93470000D01*
%TO.C,R16*%
X108841000Y-70393779D02*
X108841000Y-70068221D01*
X107821000Y-70393779D02*
X107821000Y-70068221D01*
%TO.C,U1*%
X112270000Y-92400000D02*
X113730000Y-92400000D01*
X112270000Y-95560000D02*
X115430000Y-95560000D01*
X112270000Y-95560000D02*
X112270000Y-94630000D01*
X112270000Y-92400000D02*
X112270000Y-93330000D01*
%TO.C,D1*%
X111290000Y-79740000D02*
X111290000Y-77740000D01*
X111290000Y-77740000D02*
X107440000Y-77740000D01*
X111290000Y-79740000D02*
X107440000Y-79740000D01*
%TO.C,D4*%
X128540000Y-66332000D02*
X128540000Y-62482000D01*
X130540000Y-66332000D02*
X130540000Y-62482000D01*
X128540000Y-66332000D02*
X130540000Y-66332000D01*
%TO.C,D5*%
X110830000Y-89805000D02*
X114680000Y-89805000D01*
X110830000Y-91805000D02*
X114680000Y-91805000D01*
X110830000Y-89805000D02*
X110830000Y-91805000D01*
%TO.C,D7*%
X107229000Y-61452000D02*
X107229000Y-59452000D01*
X107229000Y-59452000D02*
X103379000Y-59452000D01*
X107229000Y-61452000D02*
X103379000Y-61452000D01*
%TO.C,D8*%
X107229000Y-63992000D02*
X103379000Y-63992000D01*
X107229000Y-61992000D02*
X103379000Y-61992000D01*
X107229000Y-63992000D02*
X107229000Y-61992000D01*
%TD*%
M02*
