%TF.GenerationSoftware,KiCad,Pcbnew,(5.1.6)-1*%
%TF.CreationDate,2020-12-16T23:33:52+01:00*%
%TF.ProjectId,02_Batt_Alim,30325f42-6174-4745-9f41-6c696d2e6b69,rev?*%
%TF.SameCoordinates,Original*%
%TF.FileFunction,Soldermask,Top*%
%TF.FilePolarity,Negative*%
%FSLAX46Y46*%
G04 Gerber Fmt 4.6, Leading zero omitted, Abs format (unit mm)*
G04 Created by KiCad (PCBNEW (5.1.6)-1) date 2020-12-16 23:33:52*
%MOMM*%
%LPD*%
G01*
G04 APERTURE LIST*
%TA.AperFunction,Profile*%
%ADD10C,0.050000*%
%TD*%
%ADD11R,2.624000X1.800000*%
%ADD12C,1.624000*%
%ADD13R,1.800000X1.800000*%
%ADD14R,2.300000X3.400000*%
%ADD15C,1.100000*%
%ADD16R,1.400000X0.800000*%
%ADD17R,1.300000X0.650000*%
%ADD18R,3.700000X2.800000*%
%ADD19R,0.900000X1.000000*%
%ADD20R,0.500000X1.660000*%
%ADD21R,2.000000X0.900000*%
%ADD22R,1.200000X1.200000*%
G04 APERTURE END LIST*
D10*
X99441000Y-54610000D02*
X99441000Y-81280000D01*
X157861000Y-54610000D02*
X99441000Y-54610000D01*
X157861000Y-81280000D02*
X157861000Y-54610000D01*
X99441000Y-81280000D02*
X157861000Y-81280000D01*
D11*
%TO.C,J8*%
X153670000Y-78740000D03*
X153670000Y-78740000D03*
D12*
X154940000Y-78740000D03*
D13*
X152400000Y-78740000D03*
%TD*%
D11*
%TO.C,J11*%
X102870000Y-78740000D03*
X102870000Y-78740000D03*
D12*
X101600000Y-78740000D03*
D13*
X104140000Y-78740000D03*
%TD*%
%TO.C,R17*%
G36*
G01*
X119553000Y-73941250D02*
X119553000Y-73378750D01*
G75*
G02*
X119796750Y-73135000I243750J0D01*
G01*
X120284250Y-73135000D01*
G75*
G02*
X120528000Y-73378750I0J-243750D01*
G01*
X120528000Y-73941250D01*
G75*
G02*
X120284250Y-74185000I-243750J0D01*
G01*
X119796750Y-74185000D01*
G75*
G02*
X119553000Y-73941250I0J243750D01*
G01*
G37*
G36*
G01*
X117978000Y-73941250D02*
X117978000Y-73378750D01*
G75*
G02*
X118221750Y-73135000I243750J0D01*
G01*
X118709250Y-73135000D01*
G75*
G02*
X118953000Y-73378750I0J-243750D01*
G01*
X118953000Y-73941250D01*
G75*
G02*
X118709250Y-74185000I-243750J0D01*
G01*
X118221750Y-74185000D01*
G75*
G02*
X117978000Y-73941250I0J243750D01*
G01*
G37*
%TD*%
%TO.C,C1*%
G36*
G01*
X112676250Y-63200000D02*
X112113750Y-63200000D01*
G75*
G02*
X111870000Y-62956250I0J243750D01*
G01*
X111870000Y-62468750D01*
G75*
G02*
X112113750Y-62225000I243750J0D01*
G01*
X112676250Y-62225000D01*
G75*
G02*
X112920000Y-62468750I0J-243750D01*
G01*
X112920000Y-62956250D01*
G75*
G02*
X112676250Y-63200000I-243750J0D01*
G01*
G37*
G36*
G01*
X112676250Y-64775000D02*
X112113750Y-64775000D01*
G75*
G02*
X111870000Y-64531250I0J243750D01*
G01*
X111870000Y-64043750D01*
G75*
G02*
X112113750Y-63800000I243750J0D01*
G01*
X112676250Y-63800000D01*
G75*
G02*
X112920000Y-64043750I0J-243750D01*
G01*
X112920000Y-64531250D01*
G75*
G02*
X112676250Y-64775000I-243750J0D01*
G01*
G37*
%TD*%
%TO.C,C2*%
G36*
G01*
X116886000Y-66829250D02*
X116886000Y-66266750D01*
G75*
G02*
X117129750Y-66023000I243750J0D01*
G01*
X117617250Y-66023000D01*
G75*
G02*
X117861000Y-66266750I0J-243750D01*
G01*
X117861000Y-66829250D01*
G75*
G02*
X117617250Y-67073000I-243750J0D01*
G01*
X117129750Y-67073000D01*
G75*
G02*
X116886000Y-66829250I0J243750D01*
G01*
G37*
G36*
G01*
X115311000Y-66829250D02*
X115311000Y-66266750D01*
G75*
G02*
X115554750Y-66023000I243750J0D01*
G01*
X116042250Y-66023000D01*
G75*
G02*
X116286000Y-66266750I0J-243750D01*
G01*
X116286000Y-66829250D01*
G75*
G02*
X116042250Y-67073000I-243750J0D01*
G01*
X115554750Y-67073000D01*
G75*
G02*
X115311000Y-66829250I0J243750D01*
G01*
G37*
%TD*%
%TO.C,C3*%
G36*
G01*
X146215000Y-68035000D02*
X148425000Y-68035000D01*
G75*
G02*
X148695000Y-68305000I0J-270000D01*
G01*
X148695000Y-69115000D01*
G75*
G02*
X148425000Y-69385000I-270000J0D01*
G01*
X146215000Y-69385000D01*
G75*
G02*
X145945000Y-69115000I0J270000D01*
G01*
X145945000Y-68305000D01*
G75*
G02*
X146215000Y-68035000I270000J0D01*
G01*
G37*
G36*
G01*
X146215000Y-65235000D02*
X148425000Y-65235000D01*
G75*
G02*
X148695000Y-65505000I0J-270000D01*
G01*
X148695000Y-66315000D01*
G75*
G02*
X148425000Y-66585000I-270000J0D01*
G01*
X146215000Y-66585000D01*
G75*
G02*
X145945000Y-66315000I0J270000D01*
G01*
X145945000Y-65505000D01*
G75*
G02*
X146215000Y-65235000I270000J0D01*
G01*
G37*
%TD*%
%TO.C,C4*%
G36*
G01*
X133439000Y-75729000D02*
X131229000Y-75729000D01*
G75*
G02*
X130959000Y-75459000I0J270000D01*
G01*
X130959000Y-74649000D01*
G75*
G02*
X131229000Y-74379000I270000J0D01*
G01*
X133439000Y-74379000D01*
G75*
G02*
X133709000Y-74649000I0J-270000D01*
G01*
X133709000Y-75459000D01*
G75*
G02*
X133439000Y-75729000I-270000J0D01*
G01*
G37*
G36*
G01*
X133439000Y-78529000D02*
X131229000Y-78529000D01*
G75*
G02*
X130959000Y-78259000I0J270000D01*
G01*
X130959000Y-77449000D01*
G75*
G02*
X131229000Y-77179000I270000J0D01*
G01*
X133439000Y-77179000D01*
G75*
G02*
X133709000Y-77449000I0J-270000D01*
G01*
X133709000Y-78259000D01*
G75*
G02*
X133439000Y-78529000I-270000J0D01*
G01*
G37*
%TD*%
%TO.C,C5*%
G36*
G01*
X111097750Y-73960000D02*
X111660250Y-73960000D01*
G75*
G02*
X111904000Y-74203750I0J-243750D01*
G01*
X111904000Y-74691250D01*
G75*
G02*
X111660250Y-74935000I-243750J0D01*
G01*
X111097750Y-74935000D01*
G75*
G02*
X110854000Y-74691250I0J243750D01*
G01*
X110854000Y-74203750D01*
G75*
G02*
X111097750Y-73960000I243750J0D01*
G01*
G37*
G36*
G01*
X111097750Y-72385000D02*
X111660250Y-72385000D01*
G75*
G02*
X111904000Y-72628750I0J-243750D01*
G01*
X111904000Y-73116250D01*
G75*
G02*
X111660250Y-73360000I-243750J0D01*
G01*
X111097750Y-73360000D01*
G75*
G02*
X110854000Y-73116250I0J243750D01*
G01*
X110854000Y-72628750D01*
G75*
G02*
X111097750Y-72385000I243750J0D01*
G01*
G37*
%TD*%
%TO.C,D2*%
G36*
G01*
X126665000Y-60606250D02*
X126665000Y-60043750D01*
G75*
G02*
X126908750Y-59800000I243750J0D01*
G01*
X127396250Y-59800000D01*
G75*
G02*
X127640000Y-60043750I0J-243750D01*
G01*
X127640000Y-60606250D01*
G75*
G02*
X127396250Y-60850000I-243750J0D01*
G01*
X126908750Y-60850000D01*
G75*
G02*
X126665000Y-60606250I0J243750D01*
G01*
G37*
G36*
G01*
X125090000Y-60606250D02*
X125090000Y-60043750D01*
G75*
G02*
X125333750Y-59800000I243750J0D01*
G01*
X125821250Y-59800000D01*
G75*
G02*
X126065000Y-60043750I0J-243750D01*
G01*
X126065000Y-60606250D01*
G75*
G02*
X125821250Y-60850000I-243750J0D01*
G01*
X125333750Y-60850000D01*
G75*
G02*
X125090000Y-60606250I0J243750D01*
G01*
G37*
%TD*%
%TO.C,D3*%
G36*
G01*
X126665000Y-62511250D02*
X126665000Y-61948750D01*
G75*
G02*
X126908750Y-61705000I243750J0D01*
G01*
X127396250Y-61705000D01*
G75*
G02*
X127640000Y-61948750I0J-243750D01*
G01*
X127640000Y-62511250D01*
G75*
G02*
X127396250Y-62755000I-243750J0D01*
G01*
X126908750Y-62755000D01*
G75*
G02*
X126665000Y-62511250I0J243750D01*
G01*
G37*
G36*
G01*
X125090000Y-62511250D02*
X125090000Y-61948750D01*
G75*
G02*
X125333750Y-61705000I243750J0D01*
G01*
X125821250Y-61705000D01*
G75*
G02*
X126065000Y-61948750I0J-243750D01*
G01*
X126065000Y-62511250D01*
G75*
G02*
X125821250Y-62755000I-243750J0D01*
G01*
X125333750Y-62755000D01*
G75*
G02*
X125090000Y-62511250I0J243750D01*
G01*
G37*
%TD*%
%TO.C,D6*%
G36*
G01*
X147038750Y-63165000D02*
X147601250Y-63165000D01*
G75*
G02*
X147845000Y-63408750I0J-243750D01*
G01*
X147845000Y-63896250D01*
G75*
G02*
X147601250Y-64140000I-243750J0D01*
G01*
X147038750Y-64140000D01*
G75*
G02*
X146795000Y-63896250I0J243750D01*
G01*
X146795000Y-63408750D01*
G75*
G02*
X147038750Y-63165000I243750J0D01*
G01*
G37*
G36*
G01*
X147038750Y-61590000D02*
X147601250Y-61590000D01*
G75*
G02*
X147845000Y-61833750I0J-243750D01*
G01*
X147845000Y-62321250D01*
G75*
G02*
X147601250Y-62565000I-243750J0D01*
G01*
X147038750Y-62565000D01*
G75*
G02*
X146795000Y-62321250I0J243750D01*
G01*
X146795000Y-61833750D01*
G75*
G02*
X147038750Y-61590000I243750J0D01*
G01*
G37*
%TD*%
D14*
%TO.C,IC1*%
X117475000Y-62230000D03*
D15*
X118110000Y-63373000D03*
X118110000Y-62230000D03*
X116840000Y-62230000D03*
X116840000Y-63373000D03*
X116840000Y-61087000D03*
X118110000Y-61087000D03*
D14*
X117475000Y-62230000D03*
D16*
X114725000Y-64135000D03*
X114725000Y-62865000D03*
X114725000Y-60325000D03*
X114725000Y-61595000D03*
X120225000Y-64135000D03*
X120225000Y-62865000D03*
X120225000Y-60325000D03*
X120225000Y-61595000D03*
%TD*%
D17*
%TO.C,IC2*%
X113635000Y-73660000D03*
X113635000Y-74610000D03*
X113635000Y-72710000D03*
X116235000Y-72710000D03*
X116235000Y-73660000D03*
X116235000Y-74610000D03*
%TD*%
D11*
%TO.C,J1*%
X102870000Y-66040000D03*
X102870000Y-66040000D03*
D12*
X101600000Y-66040000D03*
D13*
X104140000Y-66040000D03*
%TD*%
D11*
%TO.C,J2*%
X102870000Y-68580000D03*
X102870000Y-68580000D03*
D12*
X101600000Y-68580000D03*
D13*
X104140000Y-68580000D03*
%TD*%
D11*
%TO.C,J3*%
X153670000Y-66040000D03*
X153670000Y-66040000D03*
D12*
X154940000Y-66040000D03*
D13*
X152400000Y-66040000D03*
%TD*%
D11*
%TO.C,J4*%
X153670000Y-68580000D03*
X153670000Y-68580000D03*
D12*
X154940000Y-68580000D03*
D13*
X152400000Y-68580000D03*
%TD*%
D11*
%TO.C,J5*%
X153670000Y-71120000D03*
X153670000Y-71120000D03*
D12*
X154940000Y-71120000D03*
D13*
X152400000Y-71120000D03*
%TD*%
D11*
%TO.C,J6*%
X153670000Y-73660000D03*
X153670000Y-73660000D03*
D12*
X154940000Y-73660000D03*
D13*
X152400000Y-73660000D03*
%TD*%
D11*
%TO.C,J7*%
X153670000Y-76200000D03*
X153670000Y-76200000D03*
D12*
X154940000Y-76200000D03*
D13*
X152400000Y-76200000D03*
%TD*%
D11*
%TO.C,J9*%
X102870000Y-71120000D03*
X102870000Y-71120000D03*
D12*
X101600000Y-71120000D03*
D13*
X104140000Y-71120000D03*
%TD*%
D11*
%TO.C,J10*%
X102870000Y-73660000D03*
X102870000Y-73660000D03*
D12*
X101600000Y-73660000D03*
D13*
X104140000Y-73660000D03*
%TD*%
D11*
%TO.C,J12*%
X102870000Y-76200000D03*
X102870000Y-76200000D03*
D12*
X101600000Y-76200000D03*
D13*
X104140000Y-76200000D03*
%TD*%
D18*
%TO.C,L1*%
X139700000Y-77175000D03*
X139700000Y-68875000D03*
%TD*%
%TO.C,Q1*%
G36*
G01*
X131625000Y-68120000D02*
X131625000Y-67770000D01*
G75*
G02*
X131800000Y-67595000I175000J0D01*
G01*
X133500000Y-67595000D01*
G75*
G02*
X133675000Y-67770000I0J-175000D01*
G01*
X133675000Y-68120000D01*
G75*
G02*
X133500000Y-68295000I-175000J0D01*
G01*
X131800000Y-68295000D01*
G75*
G02*
X131625000Y-68120000I0J175000D01*
G01*
G37*
G36*
G01*
X131625000Y-69390000D02*
X131625000Y-69040000D01*
G75*
G02*
X131800000Y-68865000I175000J0D01*
G01*
X133500000Y-68865000D01*
G75*
G02*
X133675000Y-69040000I0J-175000D01*
G01*
X133675000Y-69390000D01*
G75*
G02*
X133500000Y-69565000I-175000J0D01*
G01*
X131800000Y-69565000D01*
G75*
G02*
X131625000Y-69390000I0J175000D01*
G01*
G37*
G36*
G01*
X131625000Y-70660000D02*
X131625000Y-70310000D01*
G75*
G02*
X131800000Y-70135000I175000J0D01*
G01*
X133500000Y-70135000D01*
G75*
G02*
X133675000Y-70310000I0J-175000D01*
G01*
X133675000Y-70660000D01*
G75*
G02*
X133500000Y-70835000I-175000J0D01*
G01*
X131800000Y-70835000D01*
G75*
G02*
X131625000Y-70660000I0J175000D01*
G01*
G37*
G36*
G01*
X131625000Y-71930000D02*
X131625000Y-71580000D01*
G75*
G02*
X131800000Y-71405000I175000J0D01*
G01*
X133500000Y-71405000D01*
G75*
G02*
X133675000Y-71580000I0J-175000D01*
G01*
X133675000Y-71930000D01*
G75*
G02*
X133500000Y-72105000I-175000J0D01*
G01*
X131800000Y-72105000D01*
G75*
G02*
X131625000Y-71930000I0J175000D01*
G01*
G37*
G36*
G01*
X126675000Y-71930000D02*
X126675000Y-71580000D01*
G75*
G02*
X126850000Y-71405000I175000J0D01*
G01*
X128550000Y-71405000D01*
G75*
G02*
X128725000Y-71580000I0J-175000D01*
G01*
X128725000Y-71930000D01*
G75*
G02*
X128550000Y-72105000I-175000J0D01*
G01*
X126850000Y-72105000D01*
G75*
G02*
X126675000Y-71930000I0J175000D01*
G01*
G37*
G36*
G01*
X126675000Y-70660000D02*
X126675000Y-70310000D01*
G75*
G02*
X126850000Y-70135000I175000J0D01*
G01*
X128550000Y-70135000D01*
G75*
G02*
X128725000Y-70310000I0J-175000D01*
G01*
X128725000Y-70660000D01*
G75*
G02*
X128550000Y-70835000I-175000J0D01*
G01*
X126850000Y-70835000D01*
G75*
G02*
X126675000Y-70660000I0J175000D01*
G01*
G37*
G36*
G01*
X126675000Y-69390000D02*
X126675000Y-69040000D01*
G75*
G02*
X126850000Y-68865000I175000J0D01*
G01*
X128550000Y-68865000D01*
G75*
G02*
X128725000Y-69040000I0J-175000D01*
G01*
X128725000Y-69390000D01*
G75*
G02*
X128550000Y-69565000I-175000J0D01*
G01*
X126850000Y-69565000D01*
G75*
G02*
X126675000Y-69390000I0J175000D01*
G01*
G37*
G36*
G01*
X126675000Y-68120000D02*
X126675000Y-67770000D01*
G75*
G02*
X126850000Y-67595000I175000J0D01*
G01*
X128550000Y-67595000D01*
G75*
G02*
X128725000Y-67770000I0J-175000D01*
G01*
X128725000Y-68120000D01*
G75*
G02*
X128550000Y-68295000I-175000J0D01*
G01*
X126850000Y-68295000D01*
G75*
G02*
X126675000Y-68120000I0J175000D01*
G01*
G37*
%TD*%
D19*
%TO.C,Q2*%
X147320000Y-72660000D03*
X148270000Y-74660000D03*
X146370000Y-74660000D03*
%TD*%
%TO.C,Q3*%
G36*
G01*
X121105000Y-71580000D02*
X121105000Y-71930000D01*
G75*
G02*
X120930000Y-72105000I-175000J0D01*
G01*
X119230000Y-72105000D01*
G75*
G02*
X119055000Y-71930000I0J175000D01*
G01*
X119055000Y-71580000D01*
G75*
G02*
X119230000Y-71405000I175000J0D01*
G01*
X120930000Y-71405000D01*
G75*
G02*
X121105000Y-71580000I0J-175000D01*
G01*
G37*
G36*
G01*
X121105000Y-70310000D02*
X121105000Y-70660000D01*
G75*
G02*
X120930000Y-70835000I-175000J0D01*
G01*
X119230000Y-70835000D01*
G75*
G02*
X119055000Y-70660000I0J175000D01*
G01*
X119055000Y-70310000D01*
G75*
G02*
X119230000Y-70135000I175000J0D01*
G01*
X120930000Y-70135000D01*
G75*
G02*
X121105000Y-70310000I0J-175000D01*
G01*
G37*
G36*
G01*
X121105000Y-69040000D02*
X121105000Y-69390000D01*
G75*
G02*
X120930000Y-69565000I-175000J0D01*
G01*
X119230000Y-69565000D01*
G75*
G02*
X119055000Y-69390000I0J175000D01*
G01*
X119055000Y-69040000D01*
G75*
G02*
X119230000Y-68865000I175000J0D01*
G01*
X120930000Y-68865000D01*
G75*
G02*
X121105000Y-69040000I0J-175000D01*
G01*
G37*
G36*
G01*
X121105000Y-67770000D02*
X121105000Y-68120000D01*
G75*
G02*
X120930000Y-68295000I-175000J0D01*
G01*
X119230000Y-68295000D01*
G75*
G02*
X119055000Y-68120000I0J175000D01*
G01*
X119055000Y-67770000D01*
G75*
G02*
X119230000Y-67595000I175000J0D01*
G01*
X120930000Y-67595000D01*
G75*
G02*
X121105000Y-67770000I0J-175000D01*
G01*
G37*
G36*
G01*
X126055000Y-67770000D02*
X126055000Y-68120000D01*
G75*
G02*
X125880000Y-68295000I-175000J0D01*
G01*
X124180000Y-68295000D01*
G75*
G02*
X124005000Y-68120000I0J175000D01*
G01*
X124005000Y-67770000D01*
G75*
G02*
X124180000Y-67595000I175000J0D01*
G01*
X125880000Y-67595000D01*
G75*
G02*
X126055000Y-67770000I0J-175000D01*
G01*
G37*
G36*
G01*
X126055000Y-69040000D02*
X126055000Y-69390000D01*
G75*
G02*
X125880000Y-69565000I-175000J0D01*
G01*
X124180000Y-69565000D01*
G75*
G02*
X124005000Y-69390000I0J175000D01*
G01*
X124005000Y-69040000D01*
G75*
G02*
X124180000Y-68865000I175000J0D01*
G01*
X125880000Y-68865000D01*
G75*
G02*
X126055000Y-69040000I0J-175000D01*
G01*
G37*
G36*
G01*
X126055000Y-70310000D02*
X126055000Y-70660000D01*
G75*
G02*
X125880000Y-70835000I-175000J0D01*
G01*
X124180000Y-70835000D01*
G75*
G02*
X124005000Y-70660000I0J175000D01*
G01*
X124005000Y-70310000D01*
G75*
G02*
X124180000Y-70135000I175000J0D01*
G01*
X125880000Y-70135000D01*
G75*
G02*
X126055000Y-70310000I0J-175000D01*
G01*
G37*
G36*
G01*
X126055000Y-71580000D02*
X126055000Y-71930000D01*
G75*
G02*
X125880000Y-72105000I-175000J0D01*
G01*
X124180000Y-72105000D01*
G75*
G02*
X124005000Y-71930000I0J175000D01*
G01*
X124005000Y-71580000D01*
G75*
G02*
X124180000Y-71405000I175000J0D01*
G01*
X125880000Y-71405000D01*
G75*
G02*
X126055000Y-71580000I0J-175000D01*
G01*
G37*
%TD*%
D20*
%TO.C,Q4*%
X107610000Y-68240000D03*
X108260000Y-68240000D03*
X108910000Y-68240000D03*
X109560000Y-68240000D03*
X109560000Y-74000000D03*
X108910000Y-74000000D03*
X108260000Y-74000000D03*
X107610000Y-74000000D03*
%TD*%
%TO.C,R1*%
G36*
G01*
X147020000Y-70838750D02*
X147020000Y-71401250D01*
G75*
G02*
X146776250Y-71645000I-243750J0D01*
G01*
X146288750Y-71645000D01*
G75*
G02*
X146045000Y-71401250I0J243750D01*
G01*
X146045000Y-70838750D01*
G75*
G02*
X146288750Y-70595000I243750J0D01*
G01*
X146776250Y-70595000D01*
G75*
G02*
X147020000Y-70838750I0J-243750D01*
G01*
G37*
G36*
G01*
X148595000Y-70838750D02*
X148595000Y-71401250D01*
G75*
G02*
X148351250Y-71645000I-243750J0D01*
G01*
X147863750Y-71645000D01*
G75*
G02*
X147620000Y-71401250I0J243750D01*
G01*
X147620000Y-70838750D01*
G75*
G02*
X147863750Y-70595000I243750J0D01*
G01*
X148351250Y-70595000D01*
G75*
G02*
X148595000Y-70838750I0J-243750D01*
G01*
G37*
%TD*%
%TO.C,R2*%
G36*
G01*
X146403750Y-77770000D02*
X146966250Y-77770000D01*
G75*
G02*
X147210000Y-78013750I0J-243750D01*
G01*
X147210000Y-78501250D01*
G75*
G02*
X146966250Y-78745000I-243750J0D01*
G01*
X146403750Y-78745000D01*
G75*
G02*
X146160000Y-78501250I0J243750D01*
G01*
X146160000Y-78013750D01*
G75*
G02*
X146403750Y-77770000I243750J0D01*
G01*
G37*
G36*
G01*
X146403750Y-76195000D02*
X146966250Y-76195000D01*
G75*
G02*
X147210000Y-76438750I0J-243750D01*
G01*
X147210000Y-76926250D01*
G75*
G02*
X146966250Y-77170000I-243750J0D01*
G01*
X146403750Y-77170000D01*
G75*
G02*
X146160000Y-76926250I0J243750D01*
G01*
X146160000Y-76438750D01*
G75*
G02*
X146403750Y-76195000I243750J0D01*
G01*
G37*
%TD*%
%TO.C,R3*%
G36*
G01*
X128570000Y-75846250D02*
X128570000Y-75283750D01*
G75*
G02*
X128813750Y-75040000I243750J0D01*
G01*
X129301250Y-75040000D01*
G75*
G02*
X129545000Y-75283750I0J-243750D01*
G01*
X129545000Y-75846250D01*
G75*
G02*
X129301250Y-76090000I-243750J0D01*
G01*
X128813750Y-76090000D01*
G75*
G02*
X128570000Y-75846250I0J243750D01*
G01*
G37*
G36*
G01*
X126995000Y-75846250D02*
X126995000Y-75283750D01*
G75*
G02*
X127238750Y-75040000I243750J0D01*
G01*
X127726250Y-75040000D01*
G75*
G02*
X127970000Y-75283750I0J-243750D01*
G01*
X127970000Y-75846250D01*
G75*
G02*
X127726250Y-76090000I-243750J0D01*
G01*
X127238750Y-76090000D01*
G75*
G02*
X126995000Y-75846250I0J243750D01*
G01*
G37*
%TD*%
%TO.C,R4*%
G36*
G01*
X127970000Y-73378750D02*
X127970000Y-73941250D01*
G75*
G02*
X127726250Y-74185000I-243750J0D01*
G01*
X127238750Y-74185000D01*
G75*
G02*
X126995000Y-73941250I0J243750D01*
G01*
X126995000Y-73378750D01*
G75*
G02*
X127238750Y-73135000I243750J0D01*
G01*
X127726250Y-73135000D01*
G75*
G02*
X127970000Y-73378750I0J-243750D01*
G01*
G37*
G36*
G01*
X129545000Y-73378750D02*
X129545000Y-73941250D01*
G75*
G02*
X129301250Y-74185000I-243750J0D01*
G01*
X128813750Y-74185000D01*
G75*
G02*
X128570000Y-73941250I0J243750D01*
G01*
X128570000Y-73378750D01*
G75*
G02*
X128813750Y-73135000I243750J0D01*
G01*
X129301250Y-73135000D01*
G75*
G02*
X129545000Y-73378750I0J-243750D01*
G01*
G37*
%TD*%
%TO.C,R5*%
G36*
G01*
X148871250Y-77170000D02*
X148308750Y-77170000D01*
G75*
G02*
X148065000Y-76926250I0J243750D01*
G01*
X148065000Y-76438750D01*
G75*
G02*
X148308750Y-76195000I243750J0D01*
G01*
X148871250Y-76195000D01*
G75*
G02*
X149115000Y-76438750I0J-243750D01*
G01*
X149115000Y-76926250D01*
G75*
G02*
X148871250Y-77170000I-243750J0D01*
G01*
G37*
G36*
G01*
X148871250Y-78745000D02*
X148308750Y-78745000D01*
G75*
G02*
X148065000Y-78501250I0J243750D01*
G01*
X148065000Y-78013750D01*
G75*
G02*
X148308750Y-77770000I243750J0D01*
G01*
X148871250Y-77770000D01*
G75*
G02*
X149115000Y-78013750I0J-243750D01*
G01*
X149115000Y-78501250D01*
G75*
G02*
X148871250Y-78745000I-243750J0D01*
G01*
G37*
%TD*%
%TO.C,R6*%
G36*
G01*
X122890000Y-60043750D02*
X122890000Y-60606250D01*
G75*
G02*
X122646250Y-60850000I-243750J0D01*
G01*
X122158750Y-60850000D01*
G75*
G02*
X121915000Y-60606250I0J243750D01*
G01*
X121915000Y-60043750D01*
G75*
G02*
X122158750Y-59800000I243750J0D01*
G01*
X122646250Y-59800000D01*
G75*
G02*
X122890000Y-60043750I0J-243750D01*
G01*
G37*
G36*
G01*
X124465000Y-60043750D02*
X124465000Y-60606250D01*
G75*
G02*
X124221250Y-60850000I-243750J0D01*
G01*
X123733750Y-60850000D01*
G75*
G02*
X123490000Y-60606250I0J243750D01*
G01*
X123490000Y-60043750D01*
G75*
G02*
X123733750Y-59800000I243750J0D01*
G01*
X124221250Y-59800000D01*
G75*
G02*
X124465000Y-60043750I0J-243750D01*
G01*
G37*
%TD*%
%TO.C,R7*%
G36*
G01*
X112676250Y-59390000D02*
X112113750Y-59390000D01*
G75*
G02*
X111870000Y-59146250I0J243750D01*
G01*
X111870000Y-58658750D01*
G75*
G02*
X112113750Y-58415000I243750J0D01*
G01*
X112676250Y-58415000D01*
G75*
G02*
X112920000Y-58658750I0J-243750D01*
G01*
X112920000Y-59146250D01*
G75*
G02*
X112676250Y-59390000I-243750J0D01*
G01*
G37*
G36*
G01*
X112676250Y-60965000D02*
X112113750Y-60965000D01*
G75*
G02*
X111870000Y-60721250I0J243750D01*
G01*
X111870000Y-60233750D01*
G75*
G02*
X112113750Y-59990000I243750J0D01*
G01*
X112676250Y-59990000D01*
G75*
G02*
X112920000Y-60233750I0J-243750D01*
G01*
X112920000Y-60721250D01*
G75*
G02*
X112676250Y-60965000I-243750J0D01*
G01*
G37*
%TD*%
%TO.C,R8*%
G36*
G01*
X122890000Y-61948750D02*
X122890000Y-62511250D01*
G75*
G02*
X122646250Y-62755000I-243750J0D01*
G01*
X122158750Y-62755000D01*
G75*
G02*
X121915000Y-62511250I0J243750D01*
G01*
X121915000Y-61948750D01*
G75*
G02*
X122158750Y-61705000I243750J0D01*
G01*
X122646250Y-61705000D01*
G75*
G02*
X122890000Y-61948750I0J-243750D01*
G01*
G37*
G36*
G01*
X124465000Y-61948750D02*
X124465000Y-62511250D01*
G75*
G02*
X124221250Y-62755000I-243750J0D01*
G01*
X123733750Y-62755000D01*
G75*
G02*
X123490000Y-62511250I0J243750D01*
G01*
X123490000Y-61948750D01*
G75*
G02*
X123733750Y-61705000I243750J0D01*
G01*
X124221250Y-61705000D01*
G75*
G02*
X124465000Y-61948750I0J-243750D01*
G01*
G37*
%TD*%
%TO.C,R9*%
G36*
G01*
X108920000Y-58773750D02*
X108920000Y-59336250D01*
G75*
G02*
X108676250Y-59580000I-243750J0D01*
G01*
X108188750Y-59580000D01*
G75*
G02*
X107945000Y-59336250I0J243750D01*
G01*
X107945000Y-58773750D01*
G75*
G02*
X108188750Y-58530000I243750J0D01*
G01*
X108676250Y-58530000D01*
G75*
G02*
X108920000Y-58773750I0J-243750D01*
G01*
G37*
G36*
G01*
X110495000Y-58773750D02*
X110495000Y-59336250D01*
G75*
G02*
X110251250Y-59580000I-243750J0D01*
G01*
X109763750Y-59580000D01*
G75*
G02*
X109520000Y-59336250I0J243750D01*
G01*
X109520000Y-58773750D01*
G75*
G02*
X109763750Y-58530000I243750J0D01*
G01*
X110251250Y-58530000D01*
G75*
G02*
X110495000Y-58773750I0J-243750D01*
G01*
G37*
%TD*%
%TO.C,R10*%
G36*
G01*
X108920000Y-60678750D02*
X108920000Y-61241250D01*
G75*
G02*
X108676250Y-61485000I-243750J0D01*
G01*
X108188750Y-61485000D01*
G75*
G02*
X107945000Y-61241250I0J243750D01*
G01*
X107945000Y-60678750D01*
G75*
G02*
X108188750Y-60435000I243750J0D01*
G01*
X108676250Y-60435000D01*
G75*
G02*
X108920000Y-60678750I0J-243750D01*
G01*
G37*
G36*
G01*
X110495000Y-60678750D02*
X110495000Y-61241250D01*
G75*
G02*
X110251250Y-61485000I-243750J0D01*
G01*
X109763750Y-61485000D01*
G75*
G02*
X109520000Y-61241250I0J243750D01*
G01*
X109520000Y-60678750D01*
G75*
G02*
X109763750Y-60435000I243750J0D01*
G01*
X110251250Y-60435000D01*
G75*
G02*
X110495000Y-60678750I0J-243750D01*
G01*
G37*
%TD*%
%TO.C,R11*%
G36*
G01*
X124795000Y-65758750D02*
X124795000Y-66321250D01*
G75*
G02*
X124551250Y-66565000I-243750J0D01*
G01*
X124063750Y-66565000D01*
G75*
G02*
X123820000Y-66321250I0J243750D01*
G01*
X123820000Y-65758750D01*
G75*
G02*
X124063750Y-65515000I243750J0D01*
G01*
X124551250Y-65515000D01*
G75*
G02*
X124795000Y-65758750I0J-243750D01*
G01*
G37*
G36*
G01*
X126370000Y-65758750D02*
X126370000Y-66321250D01*
G75*
G02*
X126126250Y-66565000I-243750J0D01*
G01*
X125638750Y-66565000D01*
G75*
G02*
X125395000Y-66321250I0J243750D01*
G01*
X125395000Y-65758750D01*
G75*
G02*
X125638750Y-65515000I243750J0D01*
G01*
X126126250Y-65515000D01*
G75*
G02*
X126370000Y-65758750I0J-243750D01*
G01*
G37*
%TD*%
%TO.C,R12*%
G36*
G01*
X108920000Y-62583750D02*
X108920000Y-63146250D01*
G75*
G02*
X108676250Y-63390000I-243750J0D01*
G01*
X108188750Y-63390000D01*
G75*
G02*
X107945000Y-63146250I0J243750D01*
G01*
X107945000Y-62583750D01*
G75*
G02*
X108188750Y-62340000I243750J0D01*
G01*
X108676250Y-62340000D01*
G75*
G02*
X108920000Y-62583750I0J-243750D01*
G01*
G37*
G36*
G01*
X110495000Y-62583750D02*
X110495000Y-63146250D01*
G75*
G02*
X110251250Y-63390000I-243750J0D01*
G01*
X109763750Y-63390000D01*
G75*
G02*
X109520000Y-63146250I0J243750D01*
G01*
X109520000Y-62583750D01*
G75*
G02*
X109763750Y-62340000I243750J0D01*
G01*
X110251250Y-62340000D01*
G75*
G02*
X110495000Y-62583750I0J-243750D01*
G01*
G37*
%TD*%
%TO.C,R13*%
G36*
G01*
X124795000Y-63853750D02*
X124795000Y-64416250D01*
G75*
G02*
X124551250Y-64660000I-243750J0D01*
G01*
X124063750Y-64660000D01*
G75*
G02*
X123820000Y-64416250I0J243750D01*
G01*
X123820000Y-63853750D01*
G75*
G02*
X124063750Y-63610000I243750J0D01*
G01*
X124551250Y-63610000D01*
G75*
G02*
X124795000Y-63853750I0J-243750D01*
G01*
G37*
G36*
G01*
X126370000Y-63853750D02*
X126370000Y-64416250D01*
G75*
G02*
X126126250Y-64660000I-243750J0D01*
G01*
X125638750Y-64660000D01*
G75*
G02*
X125395000Y-64416250I0J243750D01*
G01*
X125395000Y-63853750D01*
G75*
G02*
X125638750Y-63610000I243750J0D01*
G01*
X126126250Y-63610000D01*
G75*
G02*
X126370000Y-63853750I0J-243750D01*
G01*
G37*
%TD*%
%TO.C,R14*%
G36*
G01*
X108920000Y-64488750D02*
X108920000Y-65051250D01*
G75*
G02*
X108676250Y-65295000I-243750J0D01*
G01*
X108188750Y-65295000D01*
G75*
G02*
X107945000Y-65051250I0J243750D01*
G01*
X107945000Y-64488750D01*
G75*
G02*
X108188750Y-64245000I243750J0D01*
G01*
X108676250Y-64245000D01*
G75*
G02*
X108920000Y-64488750I0J-243750D01*
G01*
G37*
G36*
G01*
X110495000Y-64488750D02*
X110495000Y-65051250D01*
G75*
G02*
X110251250Y-65295000I-243750J0D01*
G01*
X109763750Y-65295000D01*
G75*
G02*
X109520000Y-65051250I0J243750D01*
G01*
X109520000Y-64488750D01*
G75*
G02*
X109763750Y-64245000I243750J0D01*
G01*
X110251250Y-64245000D01*
G75*
G02*
X110495000Y-64488750I0J-243750D01*
G01*
G37*
%TD*%
%TO.C,R15*%
G36*
G01*
X149525000Y-60606250D02*
X149525000Y-60043750D01*
G75*
G02*
X149768750Y-59800000I243750J0D01*
G01*
X150256250Y-59800000D01*
G75*
G02*
X150500000Y-60043750I0J-243750D01*
G01*
X150500000Y-60606250D01*
G75*
G02*
X150256250Y-60850000I-243750J0D01*
G01*
X149768750Y-60850000D01*
G75*
G02*
X149525000Y-60606250I0J243750D01*
G01*
G37*
G36*
G01*
X147950000Y-60606250D02*
X147950000Y-60043750D01*
G75*
G02*
X148193750Y-59800000I243750J0D01*
G01*
X148681250Y-59800000D01*
G75*
G02*
X148925000Y-60043750I0J-243750D01*
G01*
X148925000Y-60606250D01*
G75*
G02*
X148681250Y-60850000I-243750J0D01*
G01*
X148193750Y-60850000D01*
G75*
G02*
X147950000Y-60606250I0J243750D01*
G01*
G37*
%TD*%
%TO.C,R16*%
G36*
G01*
X114219000Y-71147250D02*
X114219000Y-70584750D01*
G75*
G02*
X114462750Y-70341000I243750J0D01*
G01*
X114950250Y-70341000D01*
G75*
G02*
X115194000Y-70584750I0J-243750D01*
G01*
X115194000Y-71147250D01*
G75*
G02*
X114950250Y-71391000I-243750J0D01*
G01*
X114462750Y-71391000D01*
G75*
G02*
X114219000Y-71147250I0J243750D01*
G01*
G37*
G36*
G01*
X112644000Y-71147250D02*
X112644000Y-70584750D01*
G75*
G02*
X112887750Y-70341000I243750J0D01*
G01*
X113375250Y-70341000D01*
G75*
G02*
X113619000Y-70584750I0J-243750D01*
G01*
X113619000Y-71147250D01*
G75*
G02*
X113375250Y-71391000I-243750J0D01*
G01*
X112887750Y-71391000D01*
G75*
G02*
X112644000Y-71147250I0J243750D01*
G01*
G37*
%TD*%
D21*
%TO.C,U1*%
X143740000Y-64770000D03*
X140740000Y-65720000D03*
X140740000Y-63820000D03*
%TD*%
D22*
%TO.C,D1*%
X107690000Y-78740000D03*
X110490000Y-78740000D03*
%TD*%
%TO.C,D4*%
X129540000Y-65532000D03*
X129540000Y-62732000D03*
%TD*%
%TO.C,D5*%
X143767000Y-61595000D03*
X140967000Y-61595000D03*
%TD*%
%TO.C,D7*%
X103629000Y-60452000D03*
X106429000Y-60452000D03*
%TD*%
%TO.C,D8*%
X106429000Y-62992000D03*
X103629000Y-62992000D03*
%TD*%
M02*
