%TF.GenerationSoftware,KiCad,Pcbnew,(5.1.6)-1*%
%TF.CreationDate,2020-12-16T23:33:52+01:00*%
%TF.ProjectId,02_Batt_Alim,30325f42-6174-4745-9f41-6c696d2e6b69,rev?*%
%TF.SameCoordinates,Original*%
%TF.FileFunction,Copper,L1,Top*%
%TF.FilePolarity,Positive*%
%FSLAX46Y46*%
G04 Gerber Fmt 4.6, Leading zero omitted, Abs format (unit mm)*
G04 Created by KiCad (PCBNEW (5.1.6)-1) date 2020-12-16 23:33:52*
%MOMM*%
%LPD*%
G01*
G04 APERTURE LIST*
%TA.AperFunction,Profile*%
%ADD10C,0.050000*%
%TD*%
%TA.AperFunction,SMDPad,CuDef*%
%ADD11R,2.524000X1.700000*%
%TD*%
%TA.AperFunction,ComponentPad*%
%ADD12C,1.524000*%
%TD*%
%TA.AperFunction,ComponentPad*%
%ADD13R,1.700000X1.700000*%
%TD*%
%TA.AperFunction,SMDPad,CuDef*%
%ADD14R,2.200000X3.300000*%
%TD*%
%TA.AperFunction,ComponentPad*%
%ADD15C,1.000000*%
%TD*%
%TA.AperFunction,SMDPad,CuDef*%
%ADD16R,1.300000X0.700000*%
%TD*%
%TA.AperFunction,SMDPad,CuDef*%
%ADD17R,1.200000X0.550000*%
%TD*%
%TA.AperFunction,SMDPad,CuDef*%
%ADD18R,3.600000X2.700000*%
%TD*%
%TA.AperFunction,SMDPad,CuDef*%
%ADD19R,0.800000X0.900000*%
%TD*%
%TA.AperFunction,SMDPad,CuDef*%
%ADD20R,0.400000X1.560000*%
%TD*%
%TA.AperFunction,SMDPad,CuDef*%
%ADD21R,1.900000X0.800000*%
%TD*%
%TA.AperFunction,SMDPad,CuDef*%
%ADD22R,1.100000X1.100000*%
%TD*%
%TA.AperFunction,ViaPad*%
%ADD23C,1.000000*%
%TD*%
%TA.AperFunction,Conductor*%
%ADD24C,0.400000*%
%TD*%
%TA.AperFunction,Conductor*%
%ADD25C,1.000000*%
%TD*%
%TA.AperFunction,Conductor*%
%ADD26C,0.500000*%
%TD*%
%TA.AperFunction,Conductor*%
%ADD27C,0.254000*%
%TD*%
G04 APERTURE END LIST*
D10*
X99441000Y-54610000D02*
X99441000Y-81280000D01*
X157861000Y-54610000D02*
X99441000Y-54610000D01*
X157861000Y-81280000D02*
X157861000Y-54610000D01*
X99441000Y-81280000D02*
X157861000Y-81280000D01*
D11*
%TO.P,J8,1*%
%TO.N,GND*%
X153670000Y-78740000D03*
D12*
X154940000Y-78740000D03*
D13*
X152400000Y-78740000D03*
%TD*%
D11*
%TO.P,J11,1*%
%TO.N,SWITCH_OUT*%
X102870000Y-78740000D03*
D12*
X101600000Y-78740000D03*
D13*
X104140000Y-78740000D03*
%TD*%
%TO.P,R17,2*%
%TO.N,GND*%
%TA.AperFunction,SMDPad,CuDef*%
G36*
G01*
X119603000Y-73916250D02*
X119603000Y-73403750D01*
G75*
G02*
X119821750Y-73185000I218750J0D01*
G01*
X120259250Y-73185000D01*
G75*
G02*
X120478000Y-73403750I0J-218750D01*
G01*
X120478000Y-73916250D01*
G75*
G02*
X120259250Y-74135000I-218750J0D01*
G01*
X119821750Y-74135000D01*
G75*
G02*
X119603000Y-73916250I0J218750D01*
G01*
G37*
%TD.AperFunction*%
%TO.P,R17,1*%
%TO.N,Net-(IC2-Pad2)*%
%TA.AperFunction,SMDPad,CuDef*%
G36*
G01*
X118028000Y-73916250D02*
X118028000Y-73403750D01*
G75*
G02*
X118246750Y-73185000I218750J0D01*
G01*
X118684250Y-73185000D01*
G75*
G02*
X118903000Y-73403750I0J-218750D01*
G01*
X118903000Y-73916250D01*
G75*
G02*
X118684250Y-74135000I-218750J0D01*
G01*
X118246750Y-74135000D01*
G75*
G02*
X118028000Y-73916250I0J218750D01*
G01*
G37*
%TD.AperFunction*%
%TD*%
%TO.P,C1,2*%
%TO.N,GND*%
%TA.AperFunction,SMDPad,CuDef*%
G36*
G01*
X112651250Y-63150000D02*
X112138750Y-63150000D01*
G75*
G02*
X111920000Y-62931250I0J218750D01*
G01*
X111920000Y-62493750D01*
G75*
G02*
X112138750Y-62275000I218750J0D01*
G01*
X112651250Y-62275000D01*
G75*
G02*
X112870000Y-62493750I0J-218750D01*
G01*
X112870000Y-62931250D01*
G75*
G02*
X112651250Y-63150000I-218750J0D01*
G01*
G37*
%TD.AperFunction*%
%TO.P,C1,1*%
%TO.N,V_chg*%
%TA.AperFunction,SMDPad,CuDef*%
G36*
G01*
X112651250Y-64725000D02*
X112138750Y-64725000D01*
G75*
G02*
X111920000Y-64506250I0J218750D01*
G01*
X111920000Y-64068750D01*
G75*
G02*
X112138750Y-63850000I218750J0D01*
G01*
X112651250Y-63850000D01*
G75*
G02*
X112870000Y-64068750I0J-218750D01*
G01*
X112870000Y-64506250D01*
G75*
G02*
X112651250Y-64725000I-218750J0D01*
G01*
G37*
%TD.AperFunction*%
%TD*%
%TO.P,C2,2*%
%TO.N,V_BAT+*%
%TA.AperFunction,SMDPad,CuDef*%
G36*
G01*
X116936000Y-66804250D02*
X116936000Y-66291750D01*
G75*
G02*
X117154750Y-66073000I218750J0D01*
G01*
X117592250Y-66073000D01*
G75*
G02*
X117811000Y-66291750I0J-218750D01*
G01*
X117811000Y-66804250D01*
G75*
G02*
X117592250Y-67023000I-218750J0D01*
G01*
X117154750Y-67023000D01*
G75*
G02*
X116936000Y-66804250I0J218750D01*
G01*
G37*
%TD.AperFunction*%
%TO.P,C2,1*%
%TO.N,GND*%
%TA.AperFunction,SMDPad,CuDef*%
G36*
G01*
X115361000Y-66804250D02*
X115361000Y-66291750D01*
G75*
G02*
X115579750Y-66073000I218750J0D01*
G01*
X116017250Y-66073000D01*
G75*
G02*
X116236000Y-66291750I0J-218750D01*
G01*
X116236000Y-66804250D01*
G75*
G02*
X116017250Y-67023000I-218750J0D01*
G01*
X115579750Y-67023000D01*
G75*
G02*
X115361000Y-66804250I0J218750D01*
G01*
G37*
%TD.AperFunction*%
%TD*%
%TO.P,C3,2*%
%TO.N,GND*%
%TA.AperFunction,SMDPad,CuDef*%
G36*
G01*
X146245000Y-68085000D02*
X148395000Y-68085000D01*
G75*
G02*
X148645000Y-68335000I0J-250000D01*
G01*
X148645000Y-69085000D01*
G75*
G02*
X148395000Y-69335000I-250000J0D01*
G01*
X146245000Y-69335000D01*
G75*
G02*
X145995000Y-69085000I0J250000D01*
G01*
X145995000Y-68335000D01*
G75*
G02*
X146245000Y-68085000I250000J0D01*
G01*
G37*
%TD.AperFunction*%
%TO.P,C3,1*%
%TO.N,5V*%
%TA.AperFunction,SMDPad,CuDef*%
G36*
G01*
X146245000Y-65285000D02*
X148395000Y-65285000D01*
G75*
G02*
X148645000Y-65535000I0J-250000D01*
G01*
X148645000Y-66285000D01*
G75*
G02*
X148395000Y-66535000I-250000J0D01*
G01*
X146245000Y-66535000D01*
G75*
G02*
X145995000Y-66285000I0J250000D01*
G01*
X145995000Y-65535000D01*
G75*
G02*
X146245000Y-65285000I250000J0D01*
G01*
G37*
%TD.AperFunction*%
%TD*%
%TO.P,C4,2*%
%TO.N,GND*%
%TA.AperFunction,SMDPad,CuDef*%
G36*
G01*
X133409000Y-75679000D02*
X131259000Y-75679000D01*
G75*
G02*
X131009000Y-75429000I0J250000D01*
G01*
X131009000Y-74679000D01*
G75*
G02*
X131259000Y-74429000I250000J0D01*
G01*
X133409000Y-74429000D01*
G75*
G02*
X133659000Y-74679000I0J-250000D01*
G01*
X133659000Y-75429000D01*
G75*
G02*
X133409000Y-75679000I-250000J0D01*
G01*
G37*
%TD.AperFunction*%
%TO.P,C4,1*%
%TO.N,V_OUT*%
%TA.AperFunction,SMDPad,CuDef*%
G36*
G01*
X133409000Y-78479000D02*
X131259000Y-78479000D01*
G75*
G02*
X131009000Y-78229000I0J250000D01*
G01*
X131009000Y-77479000D01*
G75*
G02*
X131259000Y-77229000I250000J0D01*
G01*
X133409000Y-77229000D01*
G75*
G02*
X133659000Y-77479000I0J-250000D01*
G01*
X133659000Y-78229000D01*
G75*
G02*
X133409000Y-78479000I-250000J0D01*
G01*
G37*
%TD.AperFunction*%
%TD*%
%TO.P,C5,2*%
%TO.N,V_BAT-*%
%TA.AperFunction,SMDPad,CuDef*%
G36*
G01*
X111122750Y-74010000D02*
X111635250Y-74010000D01*
G75*
G02*
X111854000Y-74228750I0J-218750D01*
G01*
X111854000Y-74666250D01*
G75*
G02*
X111635250Y-74885000I-218750J0D01*
G01*
X111122750Y-74885000D01*
G75*
G02*
X110904000Y-74666250I0J218750D01*
G01*
X110904000Y-74228750D01*
G75*
G02*
X111122750Y-74010000I218750J0D01*
G01*
G37*
%TD.AperFunction*%
%TO.P,C5,1*%
%TO.N,/V_BAT+_F*%
%TA.AperFunction,SMDPad,CuDef*%
G36*
G01*
X111122750Y-72435000D02*
X111635250Y-72435000D01*
G75*
G02*
X111854000Y-72653750I0J-218750D01*
G01*
X111854000Y-73091250D01*
G75*
G02*
X111635250Y-73310000I-218750J0D01*
G01*
X111122750Y-73310000D01*
G75*
G02*
X110904000Y-73091250I0J218750D01*
G01*
X110904000Y-72653750D01*
G75*
G02*
X111122750Y-72435000I218750J0D01*
G01*
G37*
%TD.AperFunction*%
%TD*%
%TO.P,D2,2*%
%TO.N,V_chg*%
%TA.AperFunction,SMDPad,CuDef*%
G36*
G01*
X126715000Y-60581250D02*
X126715000Y-60068750D01*
G75*
G02*
X126933750Y-59850000I218750J0D01*
G01*
X127371250Y-59850000D01*
G75*
G02*
X127590000Y-60068750I0J-218750D01*
G01*
X127590000Y-60581250D01*
G75*
G02*
X127371250Y-60800000I-218750J0D01*
G01*
X126933750Y-60800000D01*
G75*
G02*
X126715000Y-60581250I0J218750D01*
G01*
G37*
%TD.AperFunction*%
%TO.P,D2,1*%
%TO.N,Net-(D2-Pad1)*%
%TA.AperFunction,SMDPad,CuDef*%
G36*
G01*
X125140000Y-60581250D02*
X125140000Y-60068750D01*
G75*
G02*
X125358750Y-59850000I218750J0D01*
G01*
X125796250Y-59850000D01*
G75*
G02*
X126015000Y-60068750I0J-218750D01*
G01*
X126015000Y-60581250D01*
G75*
G02*
X125796250Y-60800000I-218750J0D01*
G01*
X125358750Y-60800000D01*
G75*
G02*
X125140000Y-60581250I0J218750D01*
G01*
G37*
%TD.AperFunction*%
%TD*%
%TO.P,D3,2*%
%TO.N,V_chg*%
%TA.AperFunction,SMDPad,CuDef*%
G36*
G01*
X126715000Y-62486250D02*
X126715000Y-61973750D01*
G75*
G02*
X126933750Y-61755000I218750J0D01*
G01*
X127371250Y-61755000D01*
G75*
G02*
X127590000Y-61973750I0J-218750D01*
G01*
X127590000Y-62486250D01*
G75*
G02*
X127371250Y-62705000I-218750J0D01*
G01*
X126933750Y-62705000D01*
G75*
G02*
X126715000Y-62486250I0J218750D01*
G01*
G37*
%TD.AperFunction*%
%TO.P,D3,1*%
%TO.N,Net-(D3-Pad1)*%
%TA.AperFunction,SMDPad,CuDef*%
G36*
G01*
X125140000Y-62486250D02*
X125140000Y-61973750D01*
G75*
G02*
X125358750Y-61755000I218750J0D01*
G01*
X125796250Y-61755000D01*
G75*
G02*
X126015000Y-61973750I0J-218750D01*
G01*
X126015000Y-62486250D01*
G75*
G02*
X125796250Y-62705000I-218750J0D01*
G01*
X125358750Y-62705000D01*
G75*
G02*
X125140000Y-62486250I0J218750D01*
G01*
G37*
%TD.AperFunction*%
%TD*%
%TO.P,D6,2*%
%TO.N,5V*%
%TA.AperFunction,SMDPad,CuDef*%
G36*
G01*
X147063750Y-63215000D02*
X147576250Y-63215000D01*
G75*
G02*
X147795000Y-63433750I0J-218750D01*
G01*
X147795000Y-63871250D01*
G75*
G02*
X147576250Y-64090000I-218750J0D01*
G01*
X147063750Y-64090000D01*
G75*
G02*
X146845000Y-63871250I0J218750D01*
G01*
X146845000Y-63433750D01*
G75*
G02*
X147063750Y-63215000I218750J0D01*
G01*
G37*
%TD.AperFunction*%
%TO.P,D6,1*%
%TO.N,Net-(D6-Pad1)*%
%TA.AperFunction,SMDPad,CuDef*%
G36*
G01*
X147063750Y-61640000D02*
X147576250Y-61640000D01*
G75*
G02*
X147795000Y-61858750I0J-218750D01*
G01*
X147795000Y-62296250D01*
G75*
G02*
X147576250Y-62515000I-218750J0D01*
G01*
X147063750Y-62515000D01*
G75*
G02*
X146845000Y-62296250I0J218750D01*
G01*
X146845000Y-61858750D01*
G75*
G02*
X147063750Y-61640000I218750J0D01*
G01*
G37*
%TD.AperFunction*%
%TD*%
D14*
%TO.P,IC1,1*%
%TO.N,GND*%
X117475000Y-62230000D03*
D15*
X118110000Y-63373000D03*
X118110000Y-62230000D03*
X116840000Y-62230000D03*
X116840000Y-63373000D03*
X116840000Y-61087000D03*
X118110000Y-61087000D03*
D14*
X117475000Y-62230000D03*
D16*
%TO.P,IC1,4*%
%TO.N,V_chg*%
X114725000Y-64135000D03*
%TO.P,IC1,3*%
%TO.N,GND*%
X114725000Y-62865000D03*
%TO.P,IC1,1*%
X114725000Y-60325000D03*
%TO.P,IC1,2*%
%TO.N,Net-(IC1-Pad2)*%
X114725000Y-61595000D03*
%TO.P,IC1,5*%
%TO.N,V_BAT+*%
X120225000Y-64135000D03*
%TO.P,IC1,6*%
%TO.N,Net-(IC1-Pad6)*%
X120225000Y-62865000D03*
%TO.P,IC1,8*%
%TO.N,V_chg*%
X120225000Y-60325000D03*
%TO.P,IC1,7*%
%TO.N,Net-(IC1-Pad7)*%
X120225000Y-61595000D03*
%TD*%
D17*
%TO.P,IC2,5*%
%TO.N,/V_BAT+_F*%
X113635000Y-73660000D03*
%TO.P,IC2,6*%
%TO.N,V_BAT-*%
X113635000Y-74610000D03*
%TO.P,IC2,4*%
%TO.N,Net-(IC2-Pad4)*%
X113635000Y-72710000D03*
%TO.P,IC2,3*%
%TO.N,Net-(IC2-Pad3)*%
X116235000Y-72710000D03*
%TO.P,IC2,2*%
%TO.N,Net-(IC2-Pad2)*%
X116235000Y-73660000D03*
%TO.P,IC2,1*%
%TO.N,Net-(IC2-Pad1)*%
X116235000Y-74610000D03*
%TD*%
D11*
%TO.P,J1,1*%
%TO.N,V_ext*%
X102870000Y-66040000D03*
D12*
X101600000Y-66040000D03*
D13*
X104140000Y-66040000D03*
%TD*%
D11*
%TO.P,J2,1*%
%TO.N,GND*%
X102870000Y-68580000D03*
D12*
X101600000Y-68580000D03*
D13*
X104140000Y-68580000D03*
%TD*%
D11*
%TO.P,J3,1*%
%TO.N,5V*%
X153670000Y-66040000D03*
D12*
X154940000Y-66040000D03*
D13*
X152400000Y-66040000D03*
%TD*%
D11*
%TO.P,J4,1*%
%TO.N,GND*%
X153670000Y-68580000D03*
D12*
X154940000Y-68580000D03*
D13*
X152400000Y-68580000D03*
%TD*%
D11*
%TO.P,J5,1*%
%TO.N,V_uC*%
X153670000Y-71120000D03*
D12*
X154940000Y-71120000D03*
D13*
X152400000Y-71120000D03*
%TD*%
D11*
%TO.P,J6,1*%
%TO.N,V_2_uC*%
X153670000Y-73660000D03*
D12*
X154940000Y-73660000D03*
D13*
X152400000Y-73660000D03*
%TD*%
D11*
%TO.P,J7,1*%
%TO.N,uC_2_V*%
X153670000Y-76200000D03*
D12*
X154940000Y-76200000D03*
D13*
X152400000Y-76200000D03*
%TD*%
D11*
%TO.P,J9,1*%
%TO.N,V_BAT+*%
X102870000Y-71120000D03*
D12*
X101600000Y-71120000D03*
D13*
X104140000Y-71120000D03*
%TD*%
D11*
%TO.P,J10,1*%
%TO.N,V_BAT-*%
X102870000Y-73660000D03*
D12*
X101600000Y-73660000D03*
D13*
X104140000Y-73660000D03*
%TD*%
D11*
%TO.P,J12,1*%
%TO.N,SWITCH_IN*%
X102870000Y-76200000D03*
D12*
X101600000Y-76200000D03*
D13*
X104140000Y-76200000D03*
%TD*%
D18*
%TO.P,L1,2*%
%TO.N,V_OUT*%
X139700000Y-77175000D03*
%TO.P,L1,1*%
%TO.N,/LX*%
X139700000Y-68875000D03*
%TD*%
%TO.P,Q1,8*%
%TO.N,V_OUT*%
%TA.AperFunction,SMDPad,CuDef*%
G36*
G01*
X131675000Y-68095000D02*
X131675000Y-67795000D01*
G75*
G02*
X131825000Y-67645000I150000J0D01*
G01*
X133475000Y-67645000D01*
G75*
G02*
X133625000Y-67795000I0J-150000D01*
G01*
X133625000Y-68095000D01*
G75*
G02*
X133475000Y-68245000I-150000J0D01*
G01*
X131825000Y-68245000D01*
G75*
G02*
X131675000Y-68095000I0J150000D01*
G01*
G37*
%TD.AperFunction*%
%TO.P,Q1,7*%
%TA.AperFunction,SMDPad,CuDef*%
G36*
G01*
X131675000Y-69365000D02*
X131675000Y-69065000D01*
G75*
G02*
X131825000Y-68915000I150000J0D01*
G01*
X133475000Y-68915000D01*
G75*
G02*
X133625000Y-69065000I0J-150000D01*
G01*
X133625000Y-69365000D01*
G75*
G02*
X133475000Y-69515000I-150000J0D01*
G01*
X131825000Y-69515000D01*
G75*
G02*
X131675000Y-69365000I0J150000D01*
G01*
G37*
%TD.AperFunction*%
%TO.P,Q1,6*%
%TA.AperFunction,SMDPad,CuDef*%
G36*
G01*
X131675000Y-70635000D02*
X131675000Y-70335000D01*
G75*
G02*
X131825000Y-70185000I150000J0D01*
G01*
X133475000Y-70185000D01*
G75*
G02*
X133625000Y-70335000I0J-150000D01*
G01*
X133625000Y-70635000D01*
G75*
G02*
X133475000Y-70785000I-150000J0D01*
G01*
X131825000Y-70785000D01*
G75*
G02*
X131675000Y-70635000I0J150000D01*
G01*
G37*
%TD.AperFunction*%
%TO.P,Q1,5*%
%TA.AperFunction,SMDPad,CuDef*%
G36*
G01*
X131675000Y-71905000D02*
X131675000Y-71605000D01*
G75*
G02*
X131825000Y-71455000I150000J0D01*
G01*
X133475000Y-71455000D01*
G75*
G02*
X133625000Y-71605000I0J-150000D01*
G01*
X133625000Y-71905000D01*
G75*
G02*
X133475000Y-72055000I-150000J0D01*
G01*
X131825000Y-72055000D01*
G75*
G02*
X131675000Y-71905000I0J150000D01*
G01*
G37*
%TD.AperFunction*%
%TO.P,Q1,4*%
%TO.N,Net-(Q1-Pad4)*%
%TA.AperFunction,SMDPad,CuDef*%
G36*
G01*
X126725000Y-71905000D02*
X126725000Y-71605000D01*
G75*
G02*
X126875000Y-71455000I150000J0D01*
G01*
X128525000Y-71455000D01*
G75*
G02*
X128675000Y-71605000I0J-150000D01*
G01*
X128675000Y-71905000D01*
G75*
G02*
X128525000Y-72055000I-150000J0D01*
G01*
X126875000Y-72055000D01*
G75*
G02*
X126725000Y-71905000I0J150000D01*
G01*
G37*
%TD.AperFunction*%
%TO.P,Q1,3*%
%TO.N,SWITCH_IN*%
%TA.AperFunction,SMDPad,CuDef*%
G36*
G01*
X126725000Y-70635000D02*
X126725000Y-70335000D01*
G75*
G02*
X126875000Y-70185000I150000J0D01*
G01*
X128525000Y-70185000D01*
G75*
G02*
X128675000Y-70335000I0J-150000D01*
G01*
X128675000Y-70635000D01*
G75*
G02*
X128525000Y-70785000I-150000J0D01*
G01*
X126875000Y-70785000D01*
G75*
G02*
X126725000Y-70635000I0J150000D01*
G01*
G37*
%TD.AperFunction*%
%TO.P,Q1,2*%
%TA.AperFunction,SMDPad,CuDef*%
G36*
G01*
X126725000Y-69365000D02*
X126725000Y-69065000D01*
G75*
G02*
X126875000Y-68915000I150000J0D01*
G01*
X128525000Y-68915000D01*
G75*
G02*
X128675000Y-69065000I0J-150000D01*
G01*
X128675000Y-69365000D01*
G75*
G02*
X128525000Y-69515000I-150000J0D01*
G01*
X126875000Y-69515000D01*
G75*
G02*
X126725000Y-69365000I0J150000D01*
G01*
G37*
%TD.AperFunction*%
%TO.P,Q1,1*%
%TA.AperFunction,SMDPad,CuDef*%
G36*
G01*
X126725000Y-68095000D02*
X126725000Y-67795000D01*
G75*
G02*
X126875000Y-67645000I150000J0D01*
G01*
X128525000Y-67645000D01*
G75*
G02*
X128675000Y-67795000I0J-150000D01*
G01*
X128675000Y-68095000D01*
G75*
G02*
X128525000Y-68245000I-150000J0D01*
G01*
X126875000Y-68245000D01*
G75*
G02*
X126725000Y-68095000I0J150000D01*
G01*
G37*
%TD.AperFunction*%
%TD*%
D19*
%TO.P,Q2,3*%
%TO.N,V_2_uC*%
X147320000Y-72660000D03*
%TO.P,Q2,2*%
%TO.N,GND*%
X148270000Y-74660000D03*
%TO.P,Q2,1*%
%TO.N,Net-(Q2-Pad1)*%
X146370000Y-74660000D03*
%TD*%
%TO.P,Q3,8*%
%TO.N,V_BAT+*%
%TA.AperFunction,SMDPad,CuDef*%
G36*
G01*
X121055000Y-71605000D02*
X121055000Y-71905000D01*
G75*
G02*
X120905000Y-72055000I-150000J0D01*
G01*
X119255000Y-72055000D01*
G75*
G02*
X119105000Y-71905000I0J150000D01*
G01*
X119105000Y-71605000D01*
G75*
G02*
X119255000Y-71455000I150000J0D01*
G01*
X120905000Y-71455000D01*
G75*
G02*
X121055000Y-71605000I0J-150000D01*
G01*
G37*
%TD.AperFunction*%
%TO.P,Q3,7*%
%TA.AperFunction,SMDPad,CuDef*%
G36*
G01*
X121055000Y-70335000D02*
X121055000Y-70635000D01*
G75*
G02*
X120905000Y-70785000I-150000J0D01*
G01*
X119255000Y-70785000D01*
G75*
G02*
X119105000Y-70635000I0J150000D01*
G01*
X119105000Y-70335000D01*
G75*
G02*
X119255000Y-70185000I150000J0D01*
G01*
X120905000Y-70185000D01*
G75*
G02*
X121055000Y-70335000I0J-150000D01*
G01*
G37*
%TD.AperFunction*%
%TO.P,Q3,6*%
%TA.AperFunction,SMDPad,CuDef*%
G36*
G01*
X121055000Y-69065000D02*
X121055000Y-69365000D01*
G75*
G02*
X120905000Y-69515000I-150000J0D01*
G01*
X119255000Y-69515000D01*
G75*
G02*
X119105000Y-69365000I0J150000D01*
G01*
X119105000Y-69065000D01*
G75*
G02*
X119255000Y-68915000I150000J0D01*
G01*
X120905000Y-68915000D01*
G75*
G02*
X121055000Y-69065000I0J-150000D01*
G01*
G37*
%TD.AperFunction*%
%TO.P,Q3,5*%
%TA.AperFunction,SMDPad,CuDef*%
G36*
G01*
X121055000Y-67795000D02*
X121055000Y-68095000D01*
G75*
G02*
X120905000Y-68245000I-150000J0D01*
G01*
X119255000Y-68245000D01*
G75*
G02*
X119105000Y-68095000I0J150000D01*
G01*
X119105000Y-67795000D01*
G75*
G02*
X119255000Y-67645000I150000J0D01*
G01*
X120905000Y-67645000D01*
G75*
G02*
X121055000Y-67795000I0J-150000D01*
G01*
G37*
%TD.AperFunction*%
%TO.P,Q3,4*%
%TO.N,Net-(Q3-Pad4)*%
%TA.AperFunction,SMDPad,CuDef*%
G36*
G01*
X126005000Y-67795000D02*
X126005000Y-68095000D01*
G75*
G02*
X125855000Y-68245000I-150000J0D01*
G01*
X124205000Y-68245000D01*
G75*
G02*
X124055000Y-68095000I0J150000D01*
G01*
X124055000Y-67795000D01*
G75*
G02*
X124205000Y-67645000I150000J0D01*
G01*
X125855000Y-67645000D01*
G75*
G02*
X126005000Y-67795000I0J-150000D01*
G01*
G37*
%TD.AperFunction*%
%TO.P,Q3,3*%
%TO.N,SWITCH_IN*%
%TA.AperFunction,SMDPad,CuDef*%
G36*
G01*
X126005000Y-69065000D02*
X126005000Y-69365000D01*
G75*
G02*
X125855000Y-69515000I-150000J0D01*
G01*
X124205000Y-69515000D01*
G75*
G02*
X124055000Y-69365000I0J150000D01*
G01*
X124055000Y-69065000D01*
G75*
G02*
X124205000Y-68915000I150000J0D01*
G01*
X125855000Y-68915000D01*
G75*
G02*
X126005000Y-69065000I0J-150000D01*
G01*
G37*
%TD.AperFunction*%
%TO.P,Q3,2*%
%TA.AperFunction,SMDPad,CuDef*%
G36*
G01*
X126005000Y-70335000D02*
X126005000Y-70635000D01*
G75*
G02*
X125855000Y-70785000I-150000J0D01*
G01*
X124205000Y-70785000D01*
G75*
G02*
X124055000Y-70635000I0J150000D01*
G01*
X124055000Y-70335000D01*
G75*
G02*
X124205000Y-70185000I150000J0D01*
G01*
X125855000Y-70185000D01*
G75*
G02*
X126005000Y-70335000I0J-150000D01*
G01*
G37*
%TD.AperFunction*%
%TO.P,Q3,1*%
%TA.AperFunction,SMDPad,CuDef*%
G36*
G01*
X126005000Y-71605000D02*
X126005000Y-71905000D01*
G75*
G02*
X125855000Y-72055000I-150000J0D01*
G01*
X124205000Y-72055000D01*
G75*
G02*
X124055000Y-71905000I0J150000D01*
G01*
X124055000Y-71605000D01*
G75*
G02*
X124205000Y-71455000I150000J0D01*
G01*
X125855000Y-71455000D01*
G75*
G02*
X126005000Y-71605000I0J-150000D01*
G01*
G37*
%TD.AperFunction*%
%TD*%
D20*
%TO.P,Q4,8*%
%TO.N,Net-(Q4-Pad1)*%
X107610000Y-68240000D03*
%TO.P,Q4,7*%
%TO.N,GND*%
X108260000Y-68240000D03*
%TO.P,Q4,6*%
X108910000Y-68240000D03*
%TO.P,Q4,5*%
%TO.N,Net-(IC2-Pad3)*%
X109560000Y-68240000D03*
%TO.P,Q4,4*%
%TO.N,Net-(IC2-Pad1)*%
X109560000Y-74000000D03*
%TO.P,Q4,3*%
%TO.N,V_BAT-*%
X108910000Y-74000000D03*
%TO.P,Q4,2*%
X108260000Y-74000000D03*
%TO.P,Q4,1*%
%TO.N,Net-(Q4-Pad1)*%
X107610000Y-74000000D03*
%TD*%
%TO.P,R1,2*%
%TO.N,V_2_uC*%
%TA.AperFunction,SMDPad,CuDef*%
G36*
G01*
X146970000Y-70863750D02*
X146970000Y-71376250D01*
G75*
G02*
X146751250Y-71595000I-218750J0D01*
G01*
X146313750Y-71595000D01*
G75*
G02*
X146095000Y-71376250I0J218750D01*
G01*
X146095000Y-70863750D01*
G75*
G02*
X146313750Y-70645000I218750J0D01*
G01*
X146751250Y-70645000D01*
G75*
G02*
X146970000Y-70863750I0J-218750D01*
G01*
G37*
%TD.AperFunction*%
%TO.P,R1,1*%
%TO.N,V_uC*%
%TA.AperFunction,SMDPad,CuDef*%
G36*
G01*
X148545000Y-70863750D02*
X148545000Y-71376250D01*
G75*
G02*
X148326250Y-71595000I-218750J0D01*
G01*
X147888750Y-71595000D01*
G75*
G02*
X147670000Y-71376250I0J218750D01*
G01*
X147670000Y-70863750D01*
G75*
G02*
X147888750Y-70645000I218750J0D01*
G01*
X148326250Y-70645000D01*
G75*
G02*
X148545000Y-70863750I0J-218750D01*
G01*
G37*
%TD.AperFunction*%
%TD*%
%TO.P,R2,2*%
%TO.N,SWITCH_OUT*%
%TA.AperFunction,SMDPad,CuDef*%
G36*
G01*
X146428750Y-77820000D02*
X146941250Y-77820000D01*
G75*
G02*
X147160000Y-78038750I0J-218750D01*
G01*
X147160000Y-78476250D01*
G75*
G02*
X146941250Y-78695000I-218750J0D01*
G01*
X146428750Y-78695000D01*
G75*
G02*
X146210000Y-78476250I0J218750D01*
G01*
X146210000Y-78038750D01*
G75*
G02*
X146428750Y-77820000I218750J0D01*
G01*
G37*
%TD.AperFunction*%
%TO.P,R2,1*%
%TO.N,Net-(Q2-Pad1)*%
%TA.AperFunction,SMDPad,CuDef*%
G36*
G01*
X146428750Y-76245000D02*
X146941250Y-76245000D01*
G75*
G02*
X147160000Y-76463750I0J-218750D01*
G01*
X147160000Y-76901250D01*
G75*
G02*
X146941250Y-77120000I-218750J0D01*
G01*
X146428750Y-77120000D01*
G75*
G02*
X146210000Y-76901250I0J218750D01*
G01*
X146210000Y-76463750D01*
G75*
G02*
X146428750Y-76245000I218750J0D01*
G01*
G37*
%TD.AperFunction*%
%TD*%
%TO.P,R3,2*%
%TO.N,uC_2_V*%
%TA.AperFunction,SMDPad,CuDef*%
G36*
G01*
X128620000Y-75821250D02*
X128620000Y-75308750D01*
G75*
G02*
X128838750Y-75090000I218750J0D01*
G01*
X129276250Y-75090000D01*
G75*
G02*
X129495000Y-75308750I0J-218750D01*
G01*
X129495000Y-75821250D01*
G75*
G02*
X129276250Y-76040000I-218750J0D01*
G01*
X128838750Y-76040000D01*
G75*
G02*
X128620000Y-75821250I0J218750D01*
G01*
G37*
%TD.AperFunction*%
%TO.P,R3,1*%
%TO.N,SWITCH_IN*%
%TA.AperFunction,SMDPad,CuDef*%
G36*
G01*
X127045000Y-75821250D02*
X127045000Y-75308750D01*
G75*
G02*
X127263750Y-75090000I218750J0D01*
G01*
X127701250Y-75090000D01*
G75*
G02*
X127920000Y-75308750I0J-218750D01*
G01*
X127920000Y-75821250D01*
G75*
G02*
X127701250Y-76040000I-218750J0D01*
G01*
X127263750Y-76040000D01*
G75*
G02*
X127045000Y-75821250I0J218750D01*
G01*
G37*
%TD.AperFunction*%
%TD*%
%TO.P,R4,2*%
%TO.N,Net-(Q1-Pad4)*%
%TA.AperFunction,SMDPad,CuDef*%
G36*
G01*
X127920000Y-73403750D02*
X127920000Y-73916250D01*
G75*
G02*
X127701250Y-74135000I-218750J0D01*
G01*
X127263750Y-74135000D01*
G75*
G02*
X127045000Y-73916250I0J218750D01*
G01*
X127045000Y-73403750D01*
G75*
G02*
X127263750Y-73185000I218750J0D01*
G01*
X127701250Y-73185000D01*
G75*
G02*
X127920000Y-73403750I0J-218750D01*
G01*
G37*
%TD.AperFunction*%
%TO.P,R4,1*%
%TO.N,uC_2_V*%
%TA.AperFunction,SMDPad,CuDef*%
G36*
G01*
X129495000Y-73403750D02*
X129495000Y-73916250D01*
G75*
G02*
X129276250Y-74135000I-218750J0D01*
G01*
X128838750Y-74135000D01*
G75*
G02*
X128620000Y-73916250I0J218750D01*
G01*
X128620000Y-73403750D01*
G75*
G02*
X128838750Y-73185000I218750J0D01*
G01*
X129276250Y-73185000D01*
G75*
G02*
X129495000Y-73403750I0J-218750D01*
G01*
G37*
%TD.AperFunction*%
%TD*%
%TO.P,R5,2*%
%TO.N,GND*%
%TA.AperFunction,SMDPad,CuDef*%
G36*
G01*
X148846250Y-77120000D02*
X148333750Y-77120000D01*
G75*
G02*
X148115000Y-76901250I0J218750D01*
G01*
X148115000Y-76463750D01*
G75*
G02*
X148333750Y-76245000I218750J0D01*
G01*
X148846250Y-76245000D01*
G75*
G02*
X149065000Y-76463750I0J-218750D01*
G01*
X149065000Y-76901250D01*
G75*
G02*
X148846250Y-77120000I-218750J0D01*
G01*
G37*
%TD.AperFunction*%
%TO.P,R5,1*%
%TO.N,SWITCH_OUT*%
%TA.AperFunction,SMDPad,CuDef*%
G36*
G01*
X148846250Y-78695000D02*
X148333750Y-78695000D01*
G75*
G02*
X148115000Y-78476250I0J218750D01*
G01*
X148115000Y-78038750D01*
G75*
G02*
X148333750Y-77820000I218750J0D01*
G01*
X148846250Y-77820000D01*
G75*
G02*
X149065000Y-78038750I0J-218750D01*
G01*
X149065000Y-78476250D01*
G75*
G02*
X148846250Y-78695000I-218750J0D01*
G01*
G37*
%TD.AperFunction*%
%TD*%
%TO.P,R6,2*%
%TO.N,Net-(IC1-Pad7)*%
%TA.AperFunction,SMDPad,CuDef*%
G36*
G01*
X122840000Y-60068750D02*
X122840000Y-60581250D01*
G75*
G02*
X122621250Y-60800000I-218750J0D01*
G01*
X122183750Y-60800000D01*
G75*
G02*
X121965000Y-60581250I0J218750D01*
G01*
X121965000Y-60068750D01*
G75*
G02*
X122183750Y-59850000I218750J0D01*
G01*
X122621250Y-59850000D01*
G75*
G02*
X122840000Y-60068750I0J-218750D01*
G01*
G37*
%TD.AperFunction*%
%TO.P,R6,1*%
%TO.N,Net-(D2-Pad1)*%
%TA.AperFunction,SMDPad,CuDef*%
G36*
G01*
X124415000Y-60068750D02*
X124415000Y-60581250D01*
G75*
G02*
X124196250Y-60800000I-218750J0D01*
G01*
X123758750Y-60800000D01*
G75*
G02*
X123540000Y-60581250I0J218750D01*
G01*
X123540000Y-60068750D01*
G75*
G02*
X123758750Y-59850000I218750J0D01*
G01*
X124196250Y-59850000D01*
G75*
G02*
X124415000Y-60068750I0J-218750D01*
G01*
G37*
%TD.AperFunction*%
%TD*%
%TO.P,R7,2*%
%TO.N,GND*%
%TA.AperFunction,SMDPad,CuDef*%
G36*
G01*
X112651250Y-59340000D02*
X112138750Y-59340000D01*
G75*
G02*
X111920000Y-59121250I0J218750D01*
G01*
X111920000Y-58683750D01*
G75*
G02*
X112138750Y-58465000I218750J0D01*
G01*
X112651250Y-58465000D01*
G75*
G02*
X112870000Y-58683750I0J-218750D01*
G01*
X112870000Y-59121250D01*
G75*
G02*
X112651250Y-59340000I-218750J0D01*
G01*
G37*
%TD.AperFunction*%
%TO.P,R7,1*%
%TO.N,Net-(IC1-Pad2)*%
%TA.AperFunction,SMDPad,CuDef*%
G36*
G01*
X112651250Y-60915000D02*
X112138750Y-60915000D01*
G75*
G02*
X111920000Y-60696250I0J218750D01*
G01*
X111920000Y-60258750D01*
G75*
G02*
X112138750Y-60040000I218750J0D01*
G01*
X112651250Y-60040000D01*
G75*
G02*
X112870000Y-60258750I0J-218750D01*
G01*
X112870000Y-60696250D01*
G75*
G02*
X112651250Y-60915000I-218750J0D01*
G01*
G37*
%TD.AperFunction*%
%TD*%
%TO.P,R8,2*%
%TO.N,Net-(IC1-Pad6)*%
%TA.AperFunction,SMDPad,CuDef*%
G36*
G01*
X122840000Y-61973750D02*
X122840000Y-62486250D01*
G75*
G02*
X122621250Y-62705000I-218750J0D01*
G01*
X122183750Y-62705000D01*
G75*
G02*
X121965000Y-62486250I0J218750D01*
G01*
X121965000Y-61973750D01*
G75*
G02*
X122183750Y-61755000I218750J0D01*
G01*
X122621250Y-61755000D01*
G75*
G02*
X122840000Y-61973750I0J-218750D01*
G01*
G37*
%TD.AperFunction*%
%TO.P,R8,1*%
%TO.N,Net-(D3-Pad1)*%
%TA.AperFunction,SMDPad,CuDef*%
G36*
G01*
X124415000Y-61973750D02*
X124415000Y-62486250D01*
G75*
G02*
X124196250Y-62705000I-218750J0D01*
G01*
X123758750Y-62705000D01*
G75*
G02*
X123540000Y-62486250I0J218750D01*
G01*
X123540000Y-61973750D01*
G75*
G02*
X123758750Y-61755000I218750J0D01*
G01*
X124196250Y-61755000D01*
G75*
G02*
X124415000Y-61973750I0J-218750D01*
G01*
G37*
%TD.AperFunction*%
%TD*%
%TO.P,R9,2*%
%TO.N,V_ext_p*%
%TA.AperFunction,SMDPad,CuDef*%
G36*
G01*
X108870000Y-58798750D02*
X108870000Y-59311250D01*
G75*
G02*
X108651250Y-59530000I-218750J0D01*
G01*
X108213750Y-59530000D01*
G75*
G02*
X107995000Y-59311250I0J218750D01*
G01*
X107995000Y-58798750D01*
G75*
G02*
X108213750Y-58580000I218750J0D01*
G01*
X108651250Y-58580000D01*
G75*
G02*
X108870000Y-58798750I0J-218750D01*
G01*
G37*
%TD.AperFunction*%
%TO.P,R9,1*%
%TO.N,V_chg*%
%TA.AperFunction,SMDPad,CuDef*%
G36*
G01*
X110445000Y-58798750D02*
X110445000Y-59311250D01*
G75*
G02*
X110226250Y-59530000I-218750J0D01*
G01*
X109788750Y-59530000D01*
G75*
G02*
X109570000Y-59311250I0J218750D01*
G01*
X109570000Y-58798750D01*
G75*
G02*
X109788750Y-58580000I218750J0D01*
G01*
X110226250Y-58580000D01*
G75*
G02*
X110445000Y-58798750I0J-218750D01*
G01*
G37*
%TD.AperFunction*%
%TD*%
%TO.P,R10,2*%
%TO.N,V_ext_p*%
%TA.AperFunction,SMDPad,CuDef*%
G36*
G01*
X108870000Y-60703750D02*
X108870000Y-61216250D01*
G75*
G02*
X108651250Y-61435000I-218750J0D01*
G01*
X108213750Y-61435000D01*
G75*
G02*
X107995000Y-61216250I0J218750D01*
G01*
X107995000Y-60703750D01*
G75*
G02*
X108213750Y-60485000I218750J0D01*
G01*
X108651250Y-60485000D01*
G75*
G02*
X108870000Y-60703750I0J-218750D01*
G01*
G37*
%TD.AperFunction*%
%TO.P,R10,1*%
%TO.N,V_chg*%
%TA.AperFunction,SMDPad,CuDef*%
G36*
G01*
X110445000Y-60703750D02*
X110445000Y-61216250D01*
G75*
G02*
X110226250Y-61435000I-218750J0D01*
G01*
X109788750Y-61435000D01*
G75*
G02*
X109570000Y-61216250I0J218750D01*
G01*
X109570000Y-60703750D01*
G75*
G02*
X109788750Y-60485000I218750J0D01*
G01*
X110226250Y-60485000D01*
G75*
G02*
X110445000Y-60703750I0J-218750D01*
G01*
G37*
%TD.AperFunction*%
%TD*%
%TO.P,R11,2*%
%TO.N,Net-(Q3-Pad4)*%
%TA.AperFunction,SMDPad,CuDef*%
G36*
G01*
X124745000Y-65783750D02*
X124745000Y-66296250D01*
G75*
G02*
X124526250Y-66515000I-218750J0D01*
G01*
X124088750Y-66515000D01*
G75*
G02*
X123870000Y-66296250I0J218750D01*
G01*
X123870000Y-65783750D01*
G75*
G02*
X124088750Y-65565000I218750J0D01*
G01*
X124526250Y-65565000D01*
G75*
G02*
X124745000Y-65783750I0J-218750D01*
G01*
G37*
%TD.AperFunction*%
%TO.P,R11,1*%
%TO.N,V_ext_p*%
%TA.AperFunction,SMDPad,CuDef*%
G36*
G01*
X126320000Y-65783750D02*
X126320000Y-66296250D01*
G75*
G02*
X126101250Y-66515000I-218750J0D01*
G01*
X125663750Y-66515000D01*
G75*
G02*
X125445000Y-66296250I0J218750D01*
G01*
X125445000Y-65783750D01*
G75*
G02*
X125663750Y-65565000I218750J0D01*
G01*
X126101250Y-65565000D01*
G75*
G02*
X126320000Y-65783750I0J-218750D01*
G01*
G37*
%TD.AperFunction*%
%TD*%
%TO.P,R12,2*%
%TO.N,V_ext_p*%
%TA.AperFunction,SMDPad,CuDef*%
G36*
G01*
X108870000Y-62608750D02*
X108870000Y-63121250D01*
G75*
G02*
X108651250Y-63340000I-218750J0D01*
G01*
X108213750Y-63340000D01*
G75*
G02*
X107995000Y-63121250I0J218750D01*
G01*
X107995000Y-62608750D01*
G75*
G02*
X108213750Y-62390000I218750J0D01*
G01*
X108651250Y-62390000D01*
G75*
G02*
X108870000Y-62608750I0J-218750D01*
G01*
G37*
%TD.AperFunction*%
%TO.P,R12,1*%
%TO.N,V_chg*%
%TA.AperFunction,SMDPad,CuDef*%
G36*
G01*
X110445000Y-62608750D02*
X110445000Y-63121250D01*
G75*
G02*
X110226250Y-63340000I-218750J0D01*
G01*
X109788750Y-63340000D01*
G75*
G02*
X109570000Y-63121250I0J218750D01*
G01*
X109570000Y-62608750D01*
G75*
G02*
X109788750Y-62390000I218750J0D01*
G01*
X110226250Y-62390000D01*
G75*
G02*
X110445000Y-62608750I0J-218750D01*
G01*
G37*
%TD.AperFunction*%
%TD*%
%TO.P,R13,2*%
%TO.N,GND*%
%TA.AperFunction,SMDPad,CuDef*%
G36*
G01*
X124745000Y-63878750D02*
X124745000Y-64391250D01*
G75*
G02*
X124526250Y-64610000I-218750J0D01*
G01*
X124088750Y-64610000D01*
G75*
G02*
X123870000Y-64391250I0J218750D01*
G01*
X123870000Y-63878750D01*
G75*
G02*
X124088750Y-63660000I218750J0D01*
G01*
X124526250Y-63660000D01*
G75*
G02*
X124745000Y-63878750I0J-218750D01*
G01*
G37*
%TD.AperFunction*%
%TO.P,R13,1*%
%TO.N,V_ext_p*%
%TA.AperFunction,SMDPad,CuDef*%
G36*
G01*
X126320000Y-63878750D02*
X126320000Y-64391250D01*
G75*
G02*
X126101250Y-64610000I-218750J0D01*
G01*
X125663750Y-64610000D01*
G75*
G02*
X125445000Y-64391250I0J218750D01*
G01*
X125445000Y-63878750D01*
G75*
G02*
X125663750Y-63660000I218750J0D01*
G01*
X126101250Y-63660000D01*
G75*
G02*
X126320000Y-63878750I0J-218750D01*
G01*
G37*
%TD.AperFunction*%
%TD*%
%TO.P,R14,2*%
%TO.N,V_ext_p*%
%TA.AperFunction,SMDPad,CuDef*%
G36*
G01*
X108870000Y-64513750D02*
X108870000Y-65026250D01*
G75*
G02*
X108651250Y-65245000I-218750J0D01*
G01*
X108213750Y-65245000D01*
G75*
G02*
X107995000Y-65026250I0J218750D01*
G01*
X107995000Y-64513750D01*
G75*
G02*
X108213750Y-64295000I218750J0D01*
G01*
X108651250Y-64295000D01*
G75*
G02*
X108870000Y-64513750I0J-218750D01*
G01*
G37*
%TD.AperFunction*%
%TO.P,R14,1*%
%TO.N,V_chg*%
%TA.AperFunction,SMDPad,CuDef*%
G36*
G01*
X110445000Y-64513750D02*
X110445000Y-65026250D01*
G75*
G02*
X110226250Y-65245000I-218750J0D01*
G01*
X109788750Y-65245000D01*
G75*
G02*
X109570000Y-65026250I0J218750D01*
G01*
X109570000Y-64513750D01*
G75*
G02*
X109788750Y-64295000I218750J0D01*
G01*
X110226250Y-64295000D01*
G75*
G02*
X110445000Y-64513750I0J-218750D01*
G01*
G37*
%TD.AperFunction*%
%TD*%
%TO.P,R15,2*%
%TO.N,GND*%
%TA.AperFunction,SMDPad,CuDef*%
G36*
G01*
X149575000Y-60581250D02*
X149575000Y-60068750D01*
G75*
G02*
X149793750Y-59850000I218750J0D01*
G01*
X150231250Y-59850000D01*
G75*
G02*
X150450000Y-60068750I0J-218750D01*
G01*
X150450000Y-60581250D01*
G75*
G02*
X150231250Y-60800000I-218750J0D01*
G01*
X149793750Y-60800000D01*
G75*
G02*
X149575000Y-60581250I0J218750D01*
G01*
G37*
%TD.AperFunction*%
%TO.P,R15,1*%
%TO.N,Net-(D6-Pad1)*%
%TA.AperFunction,SMDPad,CuDef*%
G36*
G01*
X148000000Y-60581250D02*
X148000000Y-60068750D01*
G75*
G02*
X148218750Y-59850000I218750J0D01*
G01*
X148656250Y-59850000D01*
G75*
G02*
X148875000Y-60068750I0J-218750D01*
G01*
X148875000Y-60581250D01*
G75*
G02*
X148656250Y-60800000I-218750J0D01*
G01*
X148218750Y-60800000D01*
G75*
G02*
X148000000Y-60581250I0J218750D01*
G01*
G37*
%TD.AperFunction*%
%TD*%
%TO.P,R16,2*%
%TO.N,V_BAT+*%
%TA.AperFunction,SMDPad,CuDef*%
G36*
G01*
X114269000Y-71122250D02*
X114269000Y-70609750D01*
G75*
G02*
X114487750Y-70391000I218750J0D01*
G01*
X114925250Y-70391000D01*
G75*
G02*
X115144000Y-70609750I0J-218750D01*
G01*
X115144000Y-71122250D01*
G75*
G02*
X114925250Y-71341000I-218750J0D01*
G01*
X114487750Y-71341000D01*
G75*
G02*
X114269000Y-71122250I0J218750D01*
G01*
G37*
%TD.AperFunction*%
%TO.P,R16,1*%
%TO.N,/V_BAT+_F*%
%TA.AperFunction,SMDPad,CuDef*%
G36*
G01*
X112694000Y-71122250D02*
X112694000Y-70609750D01*
G75*
G02*
X112912750Y-70391000I218750J0D01*
G01*
X113350250Y-70391000D01*
G75*
G02*
X113569000Y-70609750I0J-218750D01*
G01*
X113569000Y-71122250D01*
G75*
G02*
X113350250Y-71341000I-218750J0D01*
G01*
X112912750Y-71341000D01*
G75*
G02*
X112694000Y-71122250I0J218750D01*
G01*
G37*
%TD.AperFunction*%
%TD*%
D21*
%TO.P,U1,3*%
%TO.N,5V*%
X143740000Y-64770000D03*
%TO.P,U1,2*%
%TO.N,/LX*%
X140740000Y-65720000D03*
%TO.P,U1,1*%
%TO.N,GND*%
X140740000Y-63820000D03*
%TD*%
D22*
%TO.P,D1,2*%
%TO.N,SWITCH_OUT*%
X107690000Y-78740000D03*
%TO.P,D1,1*%
%TO.N,V_OUT*%
X110490000Y-78740000D03*
%TD*%
%TO.P,D4,1*%
%TO.N,SWITCH_IN*%
X129540000Y-65532000D03*
%TO.P,D4,2*%
%TO.N,V_ext_p*%
X129540000Y-62732000D03*
%TD*%
%TO.P,D5,1*%
%TO.N,5V*%
X143767000Y-61595000D03*
%TO.P,D5,2*%
%TO.N,/LX*%
X140967000Y-61595000D03*
%TD*%
%TO.P,D7,2*%
%TO.N,V_ext*%
X103629000Y-60452000D03*
%TO.P,D7,1*%
%TO.N,V_ext_p*%
X106429000Y-60452000D03*
%TD*%
%TO.P,D8,1*%
%TO.N,V_ext_p*%
X106429000Y-62992000D03*
%TO.P,D8,2*%
%TO.N,V_ext*%
X103629000Y-62992000D03*
%TD*%
D23*
%TO.N,GND*%
X112522000Y-61722000D03*
X114046000Y-58928000D03*
X108204000Y-66802000D03*
X108458000Y-69596000D03*
X149352000Y-75565000D03*
X114554000Y-66548000D03*
X121285000Y-73660000D03*
X123063000Y-64135000D03*
X138684000Y-63754000D03*
X151384000Y-60325000D03*
X149733000Y-68580000D03*
X132334000Y-73406000D03*
X133604000Y-73406000D03*
X132461000Y-64770000D03*
X101981000Y-57150000D03*
X104521000Y-57150000D03*
X132461000Y-62230000D03*
X132461000Y-59690000D03*
X132461000Y-57150000D03*
X135001000Y-57150000D03*
X137541000Y-57150000D03*
X140081000Y-57150000D03*
X142621000Y-57150000D03*
X145161000Y-57150000D03*
X147701000Y-57150000D03*
X150241000Y-57150000D03*
X152781000Y-57150000D03*
X155321000Y-57150000D03*
X155321000Y-59690000D03*
X155321000Y-62230000D03*
X152781000Y-62230000D03*
%TO.N,V_BAT-*%
X112395000Y-75057000D03*
%TO.N,Net-(IC2-Pad3)*%
X117348000Y-72390000D03*
X109982000Y-66675000D03*
%TO.N,uC_2_V*%
X129667000Y-77089000D03*
%TD*%
D24*
%TO.N,GND*%
X102870000Y-68580000D02*
X101600000Y-68580000D01*
X104140000Y-68580000D02*
X102870000Y-68580000D01*
X112395000Y-62712500D02*
X112395000Y-61849000D01*
X112395000Y-61849000D02*
X112522000Y-61722000D01*
X114725000Y-62865000D02*
X113665000Y-62865000D01*
X113665000Y-62865000D02*
X112522000Y-61722000D01*
X114020500Y-58902500D02*
X114046000Y-58928000D01*
X114725000Y-60325000D02*
X113919000Y-60325000D01*
X113258500Y-59664500D02*
X113258500Y-58902500D01*
X113919000Y-60325000D02*
X113258500Y-59664500D01*
X112395000Y-58902500D02*
X113258500Y-58902500D01*
X113258500Y-58902500D02*
X114020500Y-58902500D01*
X108260000Y-68240000D02*
X108260000Y-66858000D01*
X108910000Y-68240000D02*
X108910000Y-66858000D01*
X108260000Y-66858000D02*
X108204000Y-66802000D01*
X108910000Y-66858000D02*
X108260000Y-66858000D01*
X108260000Y-68240000D02*
X108260000Y-69398000D01*
X108260000Y-69398000D02*
X108458000Y-69596000D01*
X108910000Y-69144000D02*
X108458000Y-69596000D01*
X108910000Y-68240000D02*
X108910000Y-69144000D01*
X148590000Y-76682500D02*
X148590000Y-76327000D01*
X148590000Y-76327000D02*
X149352000Y-75565000D01*
X148270000Y-74660000D02*
X148270000Y-75499000D01*
X148336000Y-75565000D02*
X149352000Y-75565000D01*
X148270000Y-75499000D02*
X148336000Y-75565000D01*
X153670000Y-78740000D02*
X154940000Y-78740000D01*
X153670000Y-78740000D02*
X152400000Y-78740000D01*
X153670000Y-68580000D02*
X154940000Y-68580000D01*
X153670000Y-68580000D02*
X152400000Y-68580000D01*
X115798500Y-66548000D02*
X114554000Y-66548000D01*
X120040500Y-73660000D02*
X121285000Y-73660000D01*
X124307500Y-64135000D02*
X123063000Y-64135000D01*
X140740000Y-63820000D02*
X138750000Y-63820000D01*
X138750000Y-63820000D02*
X138684000Y-63754000D01*
X150012500Y-60325000D02*
X151384000Y-60325000D01*
X147450000Y-68580000D02*
X147320000Y-68710000D01*
X149733000Y-68580000D02*
X147450000Y-68580000D01*
X152400000Y-68580000D02*
X149733000Y-68580000D01*
X152400000Y-78740000D02*
X150622000Y-78740000D01*
X150622000Y-78740000D02*
X150241000Y-78359000D01*
X150241000Y-76454000D02*
X149352000Y-75565000D01*
X150241000Y-78359000D02*
X150241000Y-76454000D01*
X132334000Y-75054000D02*
X132334000Y-73406000D01*
X132334000Y-75054000D02*
X132334000Y-74676000D01*
X132334000Y-74676000D02*
X133604000Y-73406000D01*
X114725000Y-60325000D02*
X116332000Y-60325000D01*
X116332000Y-60325000D02*
X117602000Y-61595000D01*
X117602000Y-61595000D02*
X117602000Y-62230000D01*
%TO.N,5V*%
X153670000Y-66040000D02*
X152400000Y-66040000D01*
X153670000Y-66040000D02*
X154940000Y-66040000D01*
X143640000Y-61595000D02*
X145161000Y-61595000D01*
X145161000Y-61595000D02*
X145415000Y-61849000D01*
X145415000Y-61849000D02*
X145415000Y-64770000D01*
X145415000Y-64770000D02*
X143740000Y-64770000D01*
X145542000Y-64643000D02*
X145415000Y-64770000D01*
X147320000Y-64643000D02*
X145542000Y-64643000D01*
X147320000Y-64643000D02*
X147320000Y-63652500D01*
X147320000Y-65910000D02*
X147320000Y-64643000D01*
X147450000Y-66040000D02*
X147320000Y-65910000D01*
X152400000Y-66040000D02*
X147450000Y-66040000D01*
%TO.N,V_chg*%
X110007500Y-59055000D02*
X110871000Y-59055000D01*
X110871000Y-59055000D02*
X110998000Y-59182000D01*
X110744000Y-64770000D02*
X110007500Y-64770000D01*
X110998000Y-64516000D02*
X110744000Y-64770000D01*
X110871000Y-62865000D02*
X110998000Y-62992000D01*
X110007500Y-62865000D02*
X110871000Y-62865000D01*
X110998000Y-62992000D02*
X110998000Y-64516000D01*
X110007500Y-60960000D02*
X110998000Y-60960000D01*
X110998000Y-59182000D02*
X110998000Y-60960000D01*
X110998000Y-60960000D02*
X110998000Y-62992000D01*
X112395000Y-64287500D02*
X112395000Y-64897000D01*
X112395000Y-64897000D02*
X112268000Y-65024000D01*
X111506000Y-65024000D02*
X110998000Y-64516000D01*
X112268000Y-65024000D02*
X111506000Y-65024000D01*
X114725000Y-64135000D02*
X113665000Y-64135000D01*
X113665000Y-64135000D02*
X113538000Y-64262000D01*
X113538000Y-64262000D02*
X113538000Y-64770000D01*
X113284000Y-65024000D02*
X112268000Y-65024000D01*
X113538000Y-64770000D02*
X113284000Y-65024000D01*
X127152500Y-62230000D02*
X127635000Y-62230000D01*
X127635000Y-62230000D02*
X128143000Y-61722000D01*
X128143000Y-61722000D02*
X128143000Y-60579000D01*
X127889000Y-60325000D02*
X127152500Y-60325000D01*
X128143000Y-60579000D02*
X127889000Y-60325000D01*
X120225000Y-60325000D02*
X120904000Y-60325000D01*
X122174000Y-59055000D02*
X127762000Y-59055000D01*
X128143000Y-59436000D02*
X128143000Y-60579000D01*
X127762000Y-59055000D02*
X128143000Y-59436000D01*
X122174000Y-59055000D02*
X121539000Y-59055000D01*
X121539000Y-59690000D02*
X121539000Y-59055000D01*
X120904000Y-60325000D02*
X121539000Y-59690000D01*
X114744500Y-57721500D02*
X116078000Y-59055000D01*
X111569500Y-57721500D02*
X114744500Y-57721500D01*
X116078000Y-59055000D02*
X121539000Y-59055000D01*
X110998000Y-58293000D02*
X111569500Y-57721500D01*
X110998000Y-59182000D02*
X110998000Y-58293000D01*
%TO.N,V_BAT+*%
X104140000Y-71120000D02*
X101600000Y-71120000D01*
D25*
X104140000Y-71120000D02*
X108858002Y-71120000D01*
X108858002Y-71120000D02*
X109474000Y-71120000D01*
X109474000Y-71120000D02*
X112014000Y-68580000D01*
X114706500Y-70866000D02*
X115824000Y-70866000D01*
X112014000Y-68580000D02*
X116586000Y-68580000D01*
X115824000Y-70866000D02*
X116586000Y-70104000D01*
X116586000Y-68580000D02*
X117856000Y-68580000D01*
X120225000Y-64135000D02*
X121412000Y-64135000D01*
X121412000Y-64135000D02*
X121793000Y-64516000D01*
X121793000Y-64516000D02*
X121793000Y-65659000D01*
X120904000Y-66548000D02*
X120142000Y-66548000D01*
X121793000Y-65659000D02*
X120904000Y-66548000D01*
X117856000Y-67437000D02*
X118745000Y-66548000D01*
X117373500Y-66548000D02*
X118745000Y-66548000D01*
X118745000Y-66548000D02*
X120142000Y-66548000D01*
X117983000Y-67945000D02*
X117856000Y-68072000D01*
X120080000Y-67945000D02*
X117983000Y-67945000D01*
X117856000Y-68580000D02*
X117856000Y-68072000D01*
X117856000Y-68072000D02*
X117856000Y-67437000D01*
X116967000Y-69215000D02*
X116586000Y-68834000D01*
X116586000Y-70104000D02*
X116586000Y-68834000D01*
X116586000Y-68834000D02*
X116586000Y-68580000D01*
X120080000Y-70485000D02*
X118618000Y-70485000D01*
X118618000Y-70485000D02*
X117348000Y-69215000D01*
X120080000Y-69215000D02*
X117348000Y-69215000D01*
X117348000Y-69215000D02*
X116967000Y-69215000D01*
X120080000Y-71755000D02*
X118872000Y-71755000D01*
X118872000Y-71755000D02*
X117094000Y-69977000D01*
X117094000Y-69342000D02*
X116586000Y-68834000D01*
X117094000Y-69977000D02*
X117094000Y-69342000D01*
D24*
%TO.N,V_OUT*%
X139659000Y-77216000D02*
X139700000Y-77175000D01*
X135382000Y-77216000D02*
X139659000Y-77216000D01*
X132845000Y-78105000D02*
X134493000Y-78105000D01*
X135382000Y-71882000D02*
X135382000Y-77216000D01*
X135001000Y-70485000D02*
X135382000Y-70866000D01*
X132650000Y-70485000D02*
X135001000Y-70485000D01*
X135382000Y-70866000D02*
X135382000Y-71882000D01*
X135382000Y-68961000D02*
X135382000Y-69723000D01*
D25*
X110620000Y-78740000D02*
X126492000Y-78740000D01*
X132334000Y-77854000D02*
X132334000Y-78359000D01*
X131953000Y-78740000D02*
X126492000Y-78740000D01*
X132334000Y-78359000D02*
X131953000Y-78740000D01*
X139700000Y-77175000D02*
X135423000Y-77175000D01*
D24*
X134493000Y-78105000D02*
X134683500Y-77914500D01*
D25*
X135423000Y-77175000D02*
X134683500Y-77914500D01*
D24*
X134683500Y-77914500D02*
X135382000Y-77216000D01*
D25*
X132334000Y-77854000D02*
X133093000Y-78613000D01*
X133985000Y-78613000D02*
X134683500Y-77914500D01*
X133093000Y-78613000D02*
X133985000Y-78613000D01*
X135382000Y-68961000D02*
X134366000Y-67945000D01*
X135382000Y-77216000D02*
X135382000Y-68961000D01*
X135255000Y-71755000D02*
X135382000Y-71882000D01*
X132650000Y-71755000D02*
X135255000Y-71755000D01*
X135255000Y-70485000D02*
X135382000Y-70358000D01*
X132650000Y-70485000D02*
X135255000Y-70485000D01*
D24*
X135382000Y-69723000D02*
X135382000Y-70358000D01*
X135382000Y-70358000D02*
X135382000Y-70866000D01*
D25*
X134874000Y-69215000D02*
X135128000Y-69469000D01*
X132650000Y-69215000D02*
X134874000Y-69215000D01*
D24*
X135128000Y-69469000D02*
X135382000Y-69723000D01*
D25*
X133920000Y-69215000D02*
X134874000Y-69215000D01*
X132650000Y-67945000D02*
X134366000Y-67945000D01*
D24*
%TO.N,V_BAT-*%
X102870000Y-73660000D02*
X104140000Y-73660000D01*
X108260000Y-74000000D02*
X108260000Y-72827000D01*
X108260000Y-72827000D02*
X108204000Y-72771000D01*
X108204000Y-72771000D02*
X106553000Y-72771000D01*
X105664000Y-73660000D02*
X104140000Y-73660000D01*
X106553000Y-72771000D02*
X105664000Y-73660000D01*
X108910000Y-74000000D02*
X108910000Y-72842000D01*
X108839000Y-72771000D02*
X108204000Y-72771000D01*
X108910000Y-72842000D02*
X108839000Y-72771000D01*
X108260000Y-75180000D02*
X108129000Y-75311000D01*
X108260000Y-74000000D02*
X108260000Y-75180000D01*
X108129000Y-75311000D02*
X107061000Y-75311000D01*
X105410000Y-73660000D02*
X104140000Y-73660000D01*
X107061000Y-75311000D02*
X105410000Y-73660000D01*
X108910000Y-74000000D02*
X108910000Y-74986000D01*
X108585000Y-75311000D02*
X108129000Y-75311000D01*
X108910000Y-74986000D02*
X108585000Y-75311000D01*
X102870000Y-73660000D02*
X102743000Y-73660000D01*
X102743000Y-73660000D02*
X101600000Y-73660000D01*
X113635000Y-74610000D02*
X112842000Y-74610000D01*
X112842000Y-74610000D02*
X112395000Y-75057000D01*
X111379000Y-74447500D02*
X111379000Y-74930000D01*
X111506000Y-75057000D02*
X112395000Y-75057000D01*
X111379000Y-74930000D02*
X111506000Y-75057000D01*
%TO.N,SWITCH_OUT*%
X101600000Y-78740000D02*
X102870000Y-78740000D01*
X102870000Y-78740000D02*
X104140000Y-78740000D01*
X106553000Y-78740000D02*
X106553000Y-79629000D01*
X106553000Y-78740000D02*
X107820000Y-78740000D01*
X104140000Y-78740000D02*
X106553000Y-78740000D01*
X106553000Y-79629000D02*
X107061000Y-80137000D01*
X148590000Y-79502000D02*
X148590000Y-78257500D01*
X147955000Y-80137000D02*
X148590000Y-79502000D01*
X146685000Y-78257500D02*
X146685000Y-80137000D01*
X107061000Y-80137000D02*
X146685000Y-80137000D01*
X146685000Y-80137000D02*
X147955000Y-80137000D01*
%TO.N,Net-(D2-Pad1)*%
X125577500Y-60325000D02*
X123977500Y-60325000D01*
%TO.N,Net-(D3-Pad1)*%
X125577500Y-62230000D02*
X123977500Y-62230000D01*
D25*
%TO.N,V_ext*%
X101600000Y-66040000D02*
X102870000Y-66040000D01*
X101600000Y-66040000D02*
X104140000Y-66040000D01*
X102870000Y-66040000D02*
X102870000Y-64770000D01*
X102870000Y-64770000D02*
X104140000Y-66040000D01*
X102870000Y-60452000D02*
X103629000Y-60452000D01*
X102997000Y-62992000D02*
X102870000Y-63119000D01*
X103629000Y-62992000D02*
X102997000Y-62992000D01*
X102870000Y-64770000D02*
X102870000Y-63119000D01*
X102870000Y-63119000D02*
X102870000Y-60452000D01*
D24*
%TO.N,SWITCH_IN*%
X101600000Y-76200000D02*
X102870000Y-76200000D01*
X102870000Y-76200000D02*
X104140000Y-76200000D01*
X123190000Y-69215000D02*
X125030000Y-69215000D01*
X123063000Y-69342000D02*
X123190000Y-69215000D01*
X123063000Y-70612000D02*
X123063000Y-69342000D01*
X125030000Y-71755000D02*
X123063000Y-71755000D01*
X123063000Y-74168000D02*
X123063000Y-71755000D01*
X123063000Y-71755000D02*
X123063000Y-70612000D01*
X123444000Y-70485000D02*
X123317000Y-70612000D01*
X125030000Y-70485000D02*
X123444000Y-70485000D01*
X123317000Y-70612000D02*
X123063000Y-70612000D01*
X127700000Y-69215000D02*
X125030000Y-69215000D01*
X127700000Y-70485000D02*
X125030000Y-70485000D01*
X129540000Y-65535000D02*
X129540000Y-67310000D01*
X128905000Y-67945000D02*
X127700000Y-67945000D01*
X129540000Y-67310000D02*
X128905000Y-67945000D01*
X129540000Y-70485000D02*
X127700000Y-70485000D01*
X127700000Y-69215000D02*
X129413000Y-69215000D01*
X129413000Y-69215000D02*
X129540000Y-69342000D01*
X129540000Y-67310000D02*
X129540000Y-69342000D01*
X129540000Y-69342000D02*
X129540000Y-70485000D01*
X123698000Y-74803000D02*
X123063000Y-74168000D01*
D25*
X123063000Y-75438000D02*
X123063000Y-69342000D01*
X123063000Y-75438000D02*
X123698000Y-74803000D01*
X129540000Y-65535000D02*
X129540000Y-70485000D01*
X124460000Y-75565000D02*
X123698000Y-74803000D01*
X127482500Y-75565000D02*
X124460000Y-75565000D01*
X121427990Y-77073010D02*
X123063000Y-75438000D01*
X106029010Y-77073010D02*
X121427990Y-77073010D01*
X104140000Y-76200000D02*
X105156000Y-76200000D01*
X105156000Y-76200000D02*
X106029010Y-77073010D01*
D24*
%TO.N,Net-(D6-Pad1)*%
X147320000Y-62077500D02*
X147320000Y-60706000D01*
X147701000Y-60325000D02*
X148437500Y-60325000D01*
X147320000Y-60706000D02*
X147701000Y-60325000D01*
%TO.N,Net-(IC1-Pad7)*%
X120225000Y-61595000D02*
X120904000Y-61595000D01*
X120904000Y-61595000D02*
X121539000Y-60960000D01*
X121539000Y-60960000D02*
X121539000Y-60706000D01*
X121920000Y-60325000D02*
X122402500Y-60325000D01*
X121539000Y-60706000D02*
X121920000Y-60325000D01*
%TO.N,Net-(IC1-Pad6)*%
X120225000Y-62865000D02*
X121031000Y-62865000D01*
X121666000Y-62230000D02*
X122402500Y-62230000D01*
X121031000Y-62865000D02*
X121666000Y-62230000D01*
%TO.N,Net-(IC1-Pad2)*%
X112395000Y-60477500D02*
X112801500Y-60477500D01*
X113919000Y-61595000D02*
X114725000Y-61595000D01*
X112801500Y-60477500D02*
X113919000Y-61595000D01*
%TO.N,Net-(IC2-Pad1)*%
X117157500Y-75501500D02*
X117602000Y-75057000D01*
X114109500Y-75501500D02*
X117157500Y-75501500D01*
X113653999Y-75957001D02*
X114109500Y-75501500D01*
X117602000Y-75057000D02*
X117155000Y-74610000D01*
X109560000Y-75016000D02*
X110172500Y-75628500D01*
X117155000Y-74610000D02*
X116235000Y-74610000D01*
X109560000Y-74000000D02*
X109560000Y-75016000D01*
X110172500Y-75628500D02*
X111228958Y-75628500D01*
X111228958Y-75628500D02*
X111557459Y-75957001D01*
X111557459Y-75957001D02*
X113653999Y-75957001D01*
%TO.N,Net-(IC2-Pad2)*%
X116235000Y-73660000D02*
X118465500Y-73660000D01*
%TO.N,Net-(IC2-Pad3)*%
X116235000Y-72710000D02*
X117028000Y-72710000D01*
X117028000Y-72710000D02*
X117348000Y-72390000D01*
X109560000Y-67097000D02*
X109982000Y-66675000D01*
X109560000Y-68240000D02*
X109560000Y-67097000D01*
%TO.N,V_uC*%
X148107500Y-71120000D02*
X153670000Y-71120000D01*
X154940000Y-71120000D02*
X153670000Y-71120000D01*
%TO.N,V_2_uC*%
X147320000Y-72660000D02*
X147320000Y-72390000D01*
X147320000Y-72390000D02*
X146939000Y-72009000D01*
X146939000Y-72009000D02*
X146050000Y-72009000D01*
X146050000Y-72009000D02*
X145796000Y-71755000D01*
X145796000Y-71755000D02*
X145796000Y-71247000D01*
X145923000Y-71120000D02*
X146532500Y-71120000D01*
X145796000Y-71247000D02*
X145923000Y-71120000D01*
X153670000Y-73660000D02*
X154940000Y-73660000D01*
X153670000Y-73660000D02*
X152400000Y-73660000D01*
X152400000Y-73660000D02*
X150749000Y-73660000D01*
X149098000Y-72009000D02*
X146939000Y-72009000D01*
X150749000Y-73660000D02*
X149098000Y-72009000D01*
%TO.N,uC_2_V*%
X153670000Y-76200000D02*
X154940000Y-76200000D01*
X153670000Y-76200000D02*
X152400000Y-76200000D01*
X129057500Y-73660000D02*
X129540000Y-73660000D01*
X129540000Y-73660000D02*
X129921000Y-74041000D01*
X129921000Y-76835000D02*
X129667000Y-77089000D01*
X129057500Y-75565000D02*
X129794000Y-75565000D01*
X129794000Y-75565000D02*
X129921000Y-75692000D01*
X129921000Y-74041000D02*
X129921000Y-75692000D01*
X129921000Y-75692000D02*
X129921000Y-76835000D01*
%TO.N,Net-(Q1-Pad4)*%
X126238000Y-72517000D02*
X126238000Y-73406000D01*
X127700000Y-71755000D02*
X127000000Y-71755000D01*
X126492000Y-73660000D02*
X127482500Y-73660000D01*
X126238000Y-73406000D02*
X126492000Y-73660000D01*
X127000000Y-71755000D02*
X126238000Y-72517000D01*
%TO.N,Net-(Q2-Pad1)*%
X146370000Y-74660000D02*
X146370000Y-75504000D01*
X146685000Y-75819000D02*
X146685000Y-76682500D01*
X146370000Y-75504000D02*
X146685000Y-75819000D01*
%TO.N,Net-(Q3-Pad4)*%
X125030000Y-67945000D02*
X123444000Y-67945000D01*
X123444000Y-67945000D02*
X122936000Y-67437000D01*
X122936000Y-67437000D02*
X122936000Y-66294000D01*
X123190000Y-66040000D02*
X124307500Y-66040000D01*
X122936000Y-66294000D02*
X123190000Y-66040000D01*
D26*
%TO.N,V_ext_p*%
X107950000Y-60960000D02*
X107696000Y-61214000D01*
X108432500Y-60960000D02*
X107950000Y-60960000D01*
X107442000Y-62230000D02*
X107696000Y-62484000D01*
X107696000Y-62484000D02*
X107696000Y-61214000D01*
X107823000Y-62865000D02*
X107696000Y-62992000D01*
X108432500Y-62865000D02*
X107823000Y-62865000D01*
X107696000Y-62992000D02*
X107696000Y-62484000D01*
X108432500Y-59055000D02*
X107823000Y-59055000D01*
X107696000Y-59182000D02*
X107696000Y-61214000D01*
X107823000Y-59055000D02*
X107696000Y-59182000D01*
X125882500Y-66040000D02*
X126746000Y-66040000D01*
X126746000Y-66040000D02*
X127127000Y-65659000D01*
X127127000Y-65659000D02*
X127127000Y-64135000D01*
X127127000Y-64135000D02*
X125882500Y-64135000D01*
X129540000Y-62735000D02*
X129035000Y-62735000D01*
X127635000Y-64135000D02*
X127127000Y-64135000D01*
X129035000Y-62735000D02*
X127635000Y-64135000D01*
X107823000Y-59055000D02*
X107823000Y-58293000D01*
X107823000Y-58293000D02*
X109474000Y-56642000D01*
D25*
X107696000Y-58420000D02*
X107823000Y-58293000D01*
X129540000Y-62735000D02*
X129540000Y-58674000D01*
X129540000Y-58674000D02*
X127396990Y-56530990D01*
X107950000Y-64770000D02*
X107696000Y-64516000D01*
X108432500Y-64770000D02*
X107950000Y-64770000D01*
X107696000Y-62992000D02*
X107696000Y-64516000D01*
X109585010Y-56530990D02*
X111871010Y-56530990D01*
X108458000Y-57658000D02*
X109585010Y-56530990D01*
X107696000Y-58420000D02*
X108458000Y-57658000D01*
X108458000Y-57658000D02*
X109474000Y-56642000D01*
X127396990Y-56530990D02*
X111871010Y-56530990D01*
X111871010Y-56530990D02*
X110964783Y-56530990D01*
X107569000Y-60452000D02*
X107696000Y-60325000D01*
X107696000Y-62992000D02*
X107696000Y-60325000D01*
X106429000Y-60452000D02*
X107569000Y-60452000D01*
X107696000Y-60325000D02*
X107696000Y-58420000D01*
X106429000Y-62992000D02*
X107696000Y-62992000D01*
D24*
%TO.N,/LX*%
X140740000Y-65720000D02*
X138877000Y-65720000D01*
X138877000Y-65720000D02*
X138811000Y-65786000D01*
X138811000Y-65786000D02*
X138811000Y-66421000D01*
X139700000Y-67310000D02*
X139700000Y-68875000D01*
X138811000Y-66421000D02*
X139700000Y-67310000D01*
X140840000Y-61595000D02*
X137922000Y-61595000D01*
X137922000Y-61595000D02*
X137160000Y-62357000D01*
X137160000Y-64770000D02*
X138811000Y-66421000D01*
X137160000Y-62357000D02*
X137160000Y-64770000D01*
%TO.N,/V_BAT+_F*%
X111379000Y-72872500D02*
X111379000Y-71628000D01*
X112141000Y-70866000D02*
X113131500Y-70866000D01*
X113635000Y-73660000D02*
X112522000Y-73660000D01*
X112522000Y-73660000D02*
X112395000Y-73533000D01*
X112395000Y-72136000D02*
X111633000Y-71374000D01*
X112395000Y-73533000D02*
X112395000Y-72136000D01*
X111379000Y-71628000D02*
X111633000Y-71374000D01*
X111633000Y-71374000D02*
X112141000Y-70866000D01*
%TD*%
D27*
%TO.N,SWITCH_OUT*%
G36*
X105395387Y-78021294D02*
G01*
X105592563Y-78126686D01*
X105806511Y-78191587D01*
X106029010Y-78213501D01*
X106084762Y-78208010D01*
X107315000Y-78208010D01*
X107315000Y-79502000D01*
X104775000Y-79502000D01*
X104775000Y-77978000D01*
X105342633Y-77978000D01*
X105395387Y-78021294D01*
G37*
X105395387Y-78021294D02*
X105592563Y-78126686D01*
X105806511Y-78191587D01*
X106029010Y-78213501D01*
X106084762Y-78208010D01*
X107315000Y-78208010D01*
X107315000Y-79502000D01*
X104775000Y-79502000D01*
X104775000Y-77978000D01*
X105342633Y-77978000D01*
X105395387Y-78021294D01*
%TO.N,5V*%
G36*
X146485001Y-61230632D02*
G01*
X146457885Y-61252885D01*
X146351329Y-61382725D01*
X146272150Y-61530858D01*
X146223392Y-61691592D01*
X146206928Y-61858750D01*
X146206928Y-62296250D01*
X146223392Y-62463408D01*
X146272150Y-62624142D01*
X146351329Y-62772275D01*
X146457885Y-62902115D01*
X146587725Y-63008671D01*
X146735858Y-63087850D01*
X146896592Y-63136608D01*
X147063750Y-63153072D01*
X147576250Y-63153072D01*
X147701000Y-63140785D01*
X147701000Y-66294000D01*
X144145000Y-66294000D01*
X144145000Y-60833000D01*
X146485001Y-60833000D01*
X146485001Y-61230632D01*
G37*
X146485001Y-61230632D02*
X146457885Y-61252885D01*
X146351329Y-61382725D01*
X146272150Y-61530858D01*
X146223392Y-61691592D01*
X146206928Y-61858750D01*
X146206928Y-62296250D01*
X146223392Y-62463408D01*
X146272150Y-62624142D01*
X146351329Y-62772275D01*
X146457885Y-62902115D01*
X146587725Y-63008671D01*
X146735858Y-63087850D01*
X146896592Y-63136608D01*
X147063750Y-63153072D01*
X147576250Y-63153072D01*
X147701000Y-63140785D01*
X147701000Y-66294000D01*
X144145000Y-66294000D01*
X144145000Y-60833000D01*
X146485001Y-60833000D01*
X146485001Y-61230632D01*
G36*
X151511000Y-66675000D02*
G01*
X147701000Y-66675000D01*
X147701000Y-65024000D01*
X151511000Y-65024000D01*
X151511000Y-66675000D01*
G37*
X151511000Y-66675000D02*
X147701000Y-66675000D01*
X147701000Y-65024000D01*
X151511000Y-65024000D01*
X151511000Y-66675000D01*
%TO.N,V_BAT+*%
G36*
X118745000Y-71374000D02*
G01*
X117861057Y-71374000D01*
X117679067Y-71298617D01*
X117459788Y-71255000D01*
X117236212Y-71255000D01*
X117016933Y-71298617D01*
X116834943Y-71374000D01*
X115570000Y-71374000D01*
X115570000Y-67660112D01*
X115579750Y-67661072D01*
X116017250Y-67661072D01*
X116184408Y-67644608D01*
X116345142Y-67595850D01*
X116493275Y-67516671D01*
X116623115Y-67410115D01*
X116729671Y-67280275D01*
X116808850Y-67132142D01*
X116831947Y-67056000D01*
X118745000Y-67056000D01*
X118745000Y-71374000D01*
G37*
X118745000Y-71374000D02*
X117861057Y-71374000D01*
X117679067Y-71298617D01*
X117459788Y-71255000D01*
X117236212Y-71255000D01*
X117016933Y-71298617D01*
X116834943Y-71374000D01*
X115570000Y-71374000D01*
X115570000Y-67660112D01*
X115579750Y-67661072D01*
X116017250Y-67661072D01*
X116184408Y-67644608D01*
X116345142Y-67595850D01*
X116493275Y-67516671D01*
X116623115Y-67410115D01*
X116729671Y-67280275D01*
X116808850Y-67132142D01*
X116831947Y-67056000D01*
X118745000Y-67056000D01*
X118745000Y-71374000D01*
%TO.N,V_chg*%
G36*
X111379000Y-58296271D02*
G01*
X111347150Y-58355858D01*
X111298392Y-58516592D01*
X111281928Y-58683750D01*
X111281928Y-59121250D01*
X111298392Y-59288408D01*
X111347150Y-59449142D01*
X111379000Y-59508729D01*
X111379000Y-59871271D01*
X111347150Y-59930858D01*
X111298392Y-60091592D01*
X111281928Y-60258750D01*
X111281928Y-60696250D01*
X111298392Y-60863408D01*
X111347150Y-61024142D01*
X111379000Y-61083729D01*
X111379000Y-62106271D01*
X111347150Y-62165858D01*
X111298392Y-62326592D01*
X111281928Y-62493750D01*
X111281928Y-62931250D01*
X111298392Y-63098408D01*
X111347150Y-63259142D01*
X111379000Y-63318729D01*
X111379000Y-64135000D01*
X111381440Y-64159776D01*
X111388667Y-64183601D01*
X111400403Y-64205557D01*
X111416197Y-64224803D01*
X111435443Y-64240597D01*
X111457399Y-64252333D01*
X111481224Y-64259560D01*
X111506000Y-64262000D01*
X113157000Y-64262000D01*
X113181776Y-64259560D01*
X113205601Y-64252333D01*
X113227557Y-64240597D01*
X113246803Y-64224803D01*
X113262597Y-64205557D01*
X113274333Y-64183601D01*
X113281560Y-64159776D01*
X113284000Y-64135000D01*
X113284000Y-63754000D01*
X113736339Y-63754000D01*
X113830820Y-63804502D01*
X113950518Y-63840812D01*
X114075000Y-63853072D01*
X115189000Y-63853072D01*
X115189000Y-65405000D01*
X110363000Y-65405000D01*
X110363000Y-57912000D01*
X111379000Y-57912000D01*
X111379000Y-58296271D01*
G37*
X111379000Y-58296271D02*
X111347150Y-58355858D01*
X111298392Y-58516592D01*
X111281928Y-58683750D01*
X111281928Y-59121250D01*
X111298392Y-59288408D01*
X111347150Y-59449142D01*
X111379000Y-59508729D01*
X111379000Y-59871271D01*
X111347150Y-59930858D01*
X111298392Y-60091592D01*
X111281928Y-60258750D01*
X111281928Y-60696250D01*
X111298392Y-60863408D01*
X111347150Y-61024142D01*
X111379000Y-61083729D01*
X111379000Y-62106271D01*
X111347150Y-62165858D01*
X111298392Y-62326592D01*
X111281928Y-62493750D01*
X111281928Y-62931250D01*
X111298392Y-63098408D01*
X111347150Y-63259142D01*
X111379000Y-63318729D01*
X111379000Y-64135000D01*
X111381440Y-64159776D01*
X111388667Y-64183601D01*
X111400403Y-64205557D01*
X111416197Y-64224803D01*
X111435443Y-64240597D01*
X111457399Y-64252333D01*
X111481224Y-64259560D01*
X111506000Y-64262000D01*
X113157000Y-64262000D01*
X113181776Y-64259560D01*
X113205601Y-64252333D01*
X113227557Y-64240597D01*
X113246803Y-64224803D01*
X113262597Y-64205557D01*
X113274333Y-64183601D01*
X113281560Y-64159776D01*
X113284000Y-64135000D01*
X113284000Y-63754000D01*
X113736339Y-63754000D01*
X113830820Y-63804502D01*
X113950518Y-63840812D01*
X114075000Y-63853072D01*
X115189000Y-63853072D01*
X115189000Y-65405000D01*
X110363000Y-65405000D01*
X110363000Y-57912000D01*
X111379000Y-57912000D01*
X111379000Y-58296271D01*
%TO.N,V_BAT-*%
G36*
X108839000Y-72853885D02*
G01*
X108829463Y-72865506D01*
X108770498Y-72975820D01*
X108734188Y-73095518D01*
X108721928Y-73220000D01*
X108721928Y-74780000D01*
X108725001Y-74811199D01*
X108725001Y-74974972D01*
X108720960Y-75016000D01*
X108737082Y-75179688D01*
X108784828Y-75337086D01*
X108838768Y-75438000D01*
X105999131Y-75438000D01*
X105997995Y-75436864D01*
X105962449Y-75393551D01*
X105789623Y-75251716D01*
X105778235Y-75245629D01*
X105485870Y-74953264D01*
X105441185Y-74898815D01*
X105386736Y-74854130D01*
X105029000Y-74496394D01*
X105029000Y-73220000D01*
X106771928Y-73220000D01*
X106771928Y-74780000D01*
X106784188Y-74904482D01*
X106820498Y-75024180D01*
X106879463Y-75134494D01*
X106958815Y-75231185D01*
X107055506Y-75310537D01*
X107165820Y-75369502D01*
X107285518Y-75405812D01*
X107410000Y-75418072D01*
X107810000Y-75418072D01*
X107934482Y-75405812D01*
X108054180Y-75369502D01*
X108164494Y-75310537D01*
X108261185Y-75231185D01*
X108340537Y-75134494D01*
X108399502Y-75024180D01*
X108435812Y-74904482D01*
X108448072Y-74780000D01*
X108448072Y-73220000D01*
X108435812Y-73095518D01*
X108399502Y-72975820D01*
X108340537Y-72865506D01*
X108261185Y-72768815D01*
X108164494Y-72689463D01*
X108054180Y-72630498D01*
X107934482Y-72594188D01*
X107810000Y-72581928D01*
X107410000Y-72581928D01*
X107285518Y-72594188D01*
X107165820Y-72630498D01*
X107055506Y-72689463D01*
X106958815Y-72768815D01*
X106879463Y-72865506D01*
X106820498Y-72975820D01*
X106784188Y-73095518D01*
X106771928Y-73220000D01*
X105029000Y-73220000D01*
X105029000Y-72604231D01*
X105114482Y-72595812D01*
X105234180Y-72559502D01*
X105344494Y-72500537D01*
X105441185Y-72421185D01*
X105466778Y-72390000D01*
X108839000Y-72390000D01*
X108839000Y-72853885D01*
G37*
X108839000Y-72853885D02*
X108829463Y-72865506D01*
X108770498Y-72975820D01*
X108734188Y-73095518D01*
X108721928Y-73220000D01*
X108721928Y-74780000D01*
X108725001Y-74811199D01*
X108725001Y-74974972D01*
X108720960Y-75016000D01*
X108737082Y-75179688D01*
X108784828Y-75337086D01*
X108838768Y-75438000D01*
X105999131Y-75438000D01*
X105997995Y-75436864D01*
X105962449Y-75393551D01*
X105789623Y-75251716D01*
X105778235Y-75245629D01*
X105485870Y-74953264D01*
X105441185Y-74898815D01*
X105386736Y-74854130D01*
X105029000Y-74496394D01*
X105029000Y-73220000D01*
X106771928Y-73220000D01*
X106771928Y-74780000D01*
X106784188Y-74904482D01*
X106820498Y-75024180D01*
X106879463Y-75134494D01*
X106958815Y-75231185D01*
X107055506Y-75310537D01*
X107165820Y-75369502D01*
X107285518Y-75405812D01*
X107410000Y-75418072D01*
X107810000Y-75418072D01*
X107934482Y-75405812D01*
X108054180Y-75369502D01*
X108164494Y-75310537D01*
X108261185Y-75231185D01*
X108340537Y-75134494D01*
X108399502Y-75024180D01*
X108435812Y-74904482D01*
X108448072Y-74780000D01*
X108448072Y-73220000D01*
X108435812Y-73095518D01*
X108399502Y-72975820D01*
X108340537Y-72865506D01*
X108261185Y-72768815D01*
X108164494Y-72689463D01*
X108054180Y-72630498D01*
X107934482Y-72594188D01*
X107810000Y-72581928D01*
X107410000Y-72581928D01*
X107285518Y-72594188D01*
X107165820Y-72630498D01*
X107055506Y-72689463D01*
X106958815Y-72768815D01*
X106879463Y-72865506D01*
X106820498Y-72975820D01*
X106784188Y-73095518D01*
X106771928Y-73220000D01*
X105029000Y-73220000D01*
X105029000Y-72604231D01*
X105114482Y-72595812D01*
X105234180Y-72559502D01*
X105344494Y-72500537D01*
X105441185Y-72421185D01*
X105466778Y-72390000D01*
X108839000Y-72390000D01*
X108839000Y-72853885D01*
%TO.N,GND*%
G36*
X151305820Y-67479502D02*
G01*
X151425518Y-67515812D01*
X151550000Y-67528072D01*
X154932000Y-67528072D01*
X155056482Y-67515812D01*
X155176180Y-67479502D01*
X155255694Y-67437000D01*
X157201001Y-67437000D01*
X157201000Y-80620000D01*
X148652867Y-80620000D01*
X149151432Y-80121436D01*
X149183291Y-80095291D01*
X149287636Y-79968146D01*
X149365172Y-79823087D01*
X149412918Y-79665689D01*
X149425000Y-79543019D01*
X149425000Y-79543018D01*
X149429040Y-79502000D01*
X149425000Y-79460982D01*
X149425000Y-79104368D01*
X149452115Y-79082115D01*
X149558671Y-78952275D01*
X149637850Y-78804142D01*
X149686608Y-78643408D01*
X149703072Y-78476250D01*
X149703072Y-78038750D01*
X149686608Y-77871592D01*
X149637850Y-77710858D01*
X149558671Y-77562725D01*
X149452115Y-77432885D01*
X149322275Y-77326329D01*
X149174142Y-77247150D01*
X149013408Y-77198392D01*
X148846250Y-77181928D01*
X148333750Y-77181928D01*
X148166592Y-77198392D01*
X148005858Y-77247150D01*
X147857725Y-77326329D01*
X147727885Y-77432885D01*
X147637500Y-77543020D01*
X147577574Y-77470000D01*
X147653671Y-77377275D01*
X147732850Y-77229142D01*
X147781608Y-77068408D01*
X147798072Y-76901250D01*
X147798072Y-76463750D01*
X147781608Y-76296592D01*
X147732850Y-76135858D01*
X147653671Y-75987725D01*
X147547115Y-75857885D01*
X147522221Y-75837455D01*
X147524039Y-75818999D01*
X147520000Y-75777991D01*
X147520000Y-75777981D01*
X147507918Y-75655311D01*
X147460172Y-75497913D01*
X147382636Y-75352854D01*
X147366039Y-75332630D01*
X147395812Y-75234482D01*
X147408072Y-75110000D01*
X147408072Y-74210000D01*
X147395812Y-74085518D01*
X147359502Y-73965820D01*
X147300537Y-73855506D01*
X147221185Y-73758815D01*
X147208095Y-73748072D01*
X147720000Y-73748072D01*
X147844482Y-73735812D01*
X147964180Y-73699502D01*
X148074494Y-73640537D01*
X148171185Y-73561185D01*
X148250537Y-73464494D01*
X148309502Y-73354180D01*
X148345812Y-73234482D01*
X148358072Y-73110000D01*
X148358072Y-72844000D01*
X148752133Y-72844000D01*
X150129563Y-74221432D01*
X150155709Y-74253291D01*
X150187568Y-74279437D01*
X150187570Y-74279439D01*
X150260040Y-74338913D01*
X150282854Y-74357636D01*
X150427913Y-74435172D01*
X150585311Y-74482918D01*
X150707981Y-74495000D01*
X150707982Y-74495000D01*
X150749000Y-74499040D01*
X150790018Y-74495000D01*
X150911928Y-74495000D01*
X150911928Y-74510000D01*
X150924188Y-74634482D01*
X150960498Y-74754180D01*
X151019463Y-74864494D01*
X151073222Y-74930000D01*
X151019463Y-74995506D01*
X150960498Y-75105820D01*
X150924188Y-75225518D01*
X150911928Y-75350000D01*
X150911928Y-77050000D01*
X150924188Y-77174482D01*
X150960498Y-77294180D01*
X151019463Y-77404494D01*
X151098815Y-77501185D01*
X151195506Y-77580537D01*
X151305820Y-77639502D01*
X151425518Y-77675812D01*
X151550000Y-77688072D01*
X154932000Y-77688072D01*
X155056482Y-77675812D01*
X155176180Y-77639502D01*
X155286494Y-77580537D01*
X155326847Y-77547420D01*
X155347490Y-77543314D01*
X155601727Y-77438005D01*
X155830535Y-77285120D01*
X156025120Y-77090535D01*
X156178005Y-76861727D01*
X156283314Y-76607490D01*
X156337000Y-76337592D01*
X156337000Y-76062408D01*
X156283314Y-75792510D01*
X156178005Y-75538273D01*
X156025120Y-75309465D01*
X155830535Y-75114880D01*
X155601727Y-74961995D01*
X155524485Y-74930000D01*
X155601727Y-74898005D01*
X155830535Y-74745120D01*
X156025120Y-74550535D01*
X156178005Y-74321727D01*
X156283314Y-74067490D01*
X156337000Y-73797592D01*
X156337000Y-73522408D01*
X156283314Y-73252510D01*
X156178005Y-72998273D01*
X156025120Y-72769465D01*
X155830535Y-72574880D01*
X155601727Y-72421995D01*
X155524485Y-72390000D01*
X155601727Y-72358005D01*
X155830535Y-72205120D01*
X156025120Y-72010535D01*
X156178005Y-71781727D01*
X156283314Y-71527490D01*
X156337000Y-71257592D01*
X156337000Y-70982408D01*
X156283314Y-70712510D01*
X156178005Y-70458273D01*
X156025120Y-70229465D01*
X155830535Y-70034880D01*
X155601727Y-69881995D01*
X155347490Y-69776686D01*
X155326847Y-69772580D01*
X155286494Y-69739463D01*
X155176180Y-69680498D01*
X155056482Y-69644188D01*
X154932000Y-69631928D01*
X151550000Y-69631928D01*
X151425518Y-69644188D01*
X151305820Y-69680498D01*
X151195506Y-69739463D01*
X151098815Y-69818815D01*
X151019463Y-69915506D01*
X150960498Y-70025820D01*
X150924188Y-70145518D01*
X150911928Y-70270000D01*
X150911928Y-70285000D01*
X148954368Y-70285000D01*
X148932115Y-70257885D01*
X148802275Y-70151329D01*
X148654142Y-70072150D01*
X148493408Y-70023392D01*
X148326250Y-70006928D01*
X147888750Y-70006928D01*
X147721592Y-70023392D01*
X147560858Y-70072150D01*
X147412725Y-70151329D01*
X147320000Y-70227426D01*
X147227275Y-70151329D01*
X147079142Y-70072150D01*
X146918408Y-70023392D01*
X146751250Y-70006928D01*
X146313750Y-70006928D01*
X146146592Y-70023392D01*
X145985858Y-70072150D01*
X145837725Y-70151329D01*
X145707885Y-70257885D01*
X145648009Y-70330845D01*
X145601913Y-70344828D01*
X145456854Y-70422364D01*
X145329709Y-70526709D01*
X145303554Y-70558579D01*
X145288000Y-70574133D01*
X145288000Y-67437000D01*
X151226306Y-67437000D01*
X151305820Y-67479502D01*
G37*
X151305820Y-67479502D02*
X151425518Y-67515812D01*
X151550000Y-67528072D01*
X154932000Y-67528072D01*
X155056482Y-67515812D01*
X155176180Y-67479502D01*
X155255694Y-67437000D01*
X157201001Y-67437000D01*
X157201000Y-80620000D01*
X148652867Y-80620000D01*
X149151432Y-80121436D01*
X149183291Y-80095291D01*
X149287636Y-79968146D01*
X149365172Y-79823087D01*
X149412918Y-79665689D01*
X149425000Y-79543019D01*
X149425000Y-79543018D01*
X149429040Y-79502000D01*
X149425000Y-79460982D01*
X149425000Y-79104368D01*
X149452115Y-79082115D01*
X149558671Y-78952275D01*
X149637850Y-78804142D01*
X149686608Y-78643408D01*
X149703072Y-78476250D01*
X149703072Y-78038750D01*
X149686608Y-77871592D01*
X149637850Y-77710858D01*
X149558671Y-77562725D01*
X149452115Y-77432885D01*
X149322275Y-77326329D01*
X149174142Y-77247150D01*
X149013408Y-77198392D01*
X148846250Y-77181928D01*
X148333750Y-77181928D01*
X148166592Y-77198392D01*
X148005858Y-77247150D01*
X147857725Y-77326329D01*
X147727885Y-77432885D01*
X147637500Y-77543020D01*
X147577574Y-77470000D01*
X147653671Y-77377275D01*
X147732850Y-77229142D01*
X147781608Y-77068408D01*
X147798072Y-76901250D01*
X147798072Y-76463750D01*
X147781608Y-76296592D01*
X147732850Y-76135858D01*
X147653671Y-75987725D01*
X147547115Y-75857885D01*
X147522221Y-75837455D01*
X147524039Y-75818999D01*
X147520000Y-75777991D01*
X147520000Y-75777981D01*
X147507918Y-75655311D01*
X147460172Y-75497913D01*
X147382636Y-75352854D01*
X147366039Y-75332630D01*
X147395812Y-75234482D01*
X147408072Y-75110000D01*
X147408072Y-74210000D01*
X147395812Y-74085518D01*
X147359502Y-73965820D01*
X147300537Y-73855506D01*
X147221185Y-73758815D01*
X147208095Y-73748072D01*
X147720000Y-73748072D01*
X147844482Y-73735812D01*
X147964180Y-73699502D01*
X148074494Y-73640537D01*
X148171185Y-73561185D01*
X148250537Y-73464494D01*
X148309502Y-73354180D01*
X148345812Y-73234482D01*
X148358072Y-73110000D01*
X148358072Y-72844000D01*
X148752133Y-72844000D01*
X150129563Y-74221432D01*
X150155709Y-74253291D01*
X150187568Y-74279437D01*
X150187570Y-74279439D01*
X150260040Y-74338913D01*
X150282854Y-74357636D01*
X150427913Y-74435172D01*
X150585311Y-74482918D01*
X150707981Y-74495000D01*
X150707982Y-74495000D01*
X150749000Y-74499040D01*
X150790018Y-74495000D01*
X150911928Y-74495000D01*
X150911928Y-74510000D01*
X150924188Y-74634482D01*
X150960498Y-74754180D01*
X151019463Y-74864494D01*
X151073222Y-74930000D01*
X151019463Y-74995506D01*
X150960498Y-75105820D01*
X150924188Y-75225518D01*
X150911928Y-75350000D01*
X150911928Y-77050000D01*
X150924188Y-77174482D01*
X150960498Y-77294180D01*
X151019463Y-77404494D01*
X151098815Y-77501185D01*
X151195506Y-77580537D01*
X151305820Y-77639502D01*
X151425518Y-77675812D01*
X151550000Y-77688072D01*
X154932000Y-77688072D01*
X155056482Y-77675812D01*
X155176180Y-77639502D01*
X155286494Y-77580537D01*
X155326847Y-77547420D01*
X155347490Y-77543314D01*
X155601727Y-77438005D01*
X155830535Y-77285120D01*
X156025120Y-77090535D01*
X156178005Y-76861727D01*
X156283314Y-76607490D01*
X156337000Y-76337592D01*
X156337000Y-76062408D01*
X156283314Y-75792510D01*
X156178005Y-75538273D01*
X156025120Y-75309465D01*
X155830535Y-75114880D01*
X155601727Y-74961995D01*
X155524485Y-74930000D01*
X155601727Y-74898005D01*
X155830535Y-74745120D01*
X156025120Y-74550535D01*
X156178005Y-74321727D01*
X156283314Y-74067490D01*
X156337000Y-73797592D01*
X156337000Y-73522408D01*
X156283314Y-73252510D01*
X156178005Y-72998273D01*
X156025120Y-72769465D01*
X155830535Y-72574880D01*
X155601727Y-72421995D01*
X155524485Y-72390000D01*
X155601727Y-72358005D01*
X155830535Y-72205120D01*
X156025120Y-72010535D01*
X156178005Y-71781727D01*
X156283314Y-71527490D01*
X156337000Y-71257592D01*
X156337000Y-70982408D01*
X156283314Y-70712510D01*
X156178005Y-70458273D01*
X156025120Y-70229465D01*
X155830535Y-70034880D01*
X155601727Y-69881995D01*
X155347490Y-69776686D01*
X155326847Y-69772580D01*
X155286494Y-69739463D01*
X155176180Y-69680498D01*
X155056482Y-69644188D01*
X154932000Y-69631928D01*
X151550000Y-69631928D01*
X151425518Y-69644188D01*
X151305820Y-69680498D01*
X151195506Y-69739463D01*
X151098815Y-69818815D01*
X151019463Y-69915506D01*
X150960498Y-70025820D01*
X150924188Y-70145518D01*
X150911928Y-70270000D01*
X150911928Y-70285000D01*
X148954368Y-70285000D01*
X148932115Y-70257885D01*
X148802275Y-70151329D01*
X148654142Y-70072150D01*
X148493408Y-70023392D01*
X148326250Y-70006928D01*
X147888750Y-70006928D01*
X147721592Y-70023392D01*
X147560858Y-70072150D01*
X147412725Y-70151329D01*
X147320000Y-70227426D01*
X147227275Y-70151329D01*
X147079142Y-70072150D01*
X146918408Y-70023392D01*
X146751250Y-70006928D01*
X146313750Y-70006928D01*
X146146592Y-70023392D01*
X145985858Y-70072150D01*
X145837725Y-70151329D01*
X145707885Y-70257885D01*
X145648009Y-70330845D01*
X145601913Y-70344828D01*
X145456854Y-70422364D01*
X145329709Y-70526709D01*
X145303554Y-70558579D01*
X145288000Y-70574133D01*
X145288000Y-67437000D01*
X151226306Y-67437000D01*
X151305820Y-67479502D01*
G36*
X157201001Y-67818000D02*
G01*
X156083000Y-67818000D01*
X156083000Y-66843912D01*
X156178005Y-66701727D01*
X156283314Y-66447490D01*
X156337000Y-66177592D01*
X156337000Y-65902408D01*
X156283314Y-65632510D01*
X156178005Y-65378273D01*
X156083000Y-65236088D01*
X156083000Y-64135000D01*
X156080560Y-64110224D01*
X156073333Y-64086399D01*
X156061597Y-64064443D01*
X156045803Y-64045197D01*
X156026557Y-64029403D01*
X156004601Y-64017667D01*
X155980776Y-64010440D01*
X155956000Y-64008000D01*
X149098000Y-64008000D01*
X149098000Y-61311991D01*
X149132275Y-61293671D01*
X149262115Y-61187115D01*
X149368671Y-61057275D01*
X149447850Y-60909142D01*
X149496608Y-60748408D01*
X149513072Y-60581250D01*
X149513072Y-60068750D01*
X149496608Y-59901592D01*
X149447850Y-59740858D01*
X149368671Y-59592725D01*
X149262115Y-59462885D01*
X149132275Y-59356329D01*
X148984142Y-59277150D01*
X148823408Y-59228392D01*
X148656250Y-59211928D01*
X148218750Y-59211928D01*
X148051592Y-59228392D01*
X147890858Y-59277150D01*
X147742725Y-59356329D01*
X147612885Y-59462885D01*
X147584534Y-59497431D01*
X147537311Y-59502082D01*
X147379913Y-59549828D01*
X147355270Y-59563000D01*
X135763000Y-59563000D01*
X135763000Y-55270000D01*
X157201001Y-55270000D01*
X157201001Y-67818000D01*
G37*
X157201001Y-67818000D02*
X156083000Y-67818000D01*
X156083000Y-66843912D01*
X156178005Y-66701727D01*
X156283314Y-66447490D01*
X156337000Y-66177592D01*
X156337000Y-65902408D01*
X156283314Y-65632510D01*
X156178005Y-65378273D01*
X156083000Y-65236088D01*
X156083000Y-64135000D01*
X156080560Y-64110224D01*
X156073333Y-64086399D01*
X156061597Y-64064443D01*
X156045803Y-64045197D01*
X156026557Y-64029403D01*
X156004601Y-64017667D01*
X155980776Y-64010440D01*
X155956000Y-64008000D01*
X149098000Y-64008000D01*
X149098000Y-61311991D01*
X149132275Y-61293671D01*
X149262115Y-61187115D01*
X149368671Y-61057275D01*
X149447850Y-60909142D01*
X149496608Y-60748408D01*
X149513072Y-60581250D01*
X149513072Y-60068750D01*
X149496608Y-59901592D01*
X149447850Y-59740858D01*
X149368671Y-59592725D01*
X149262115Y-59462885D01*
X149132275Y-59356329D01*
X148984142Y-59277150D01*
X148823408Y-59228392D01*
X148656250Y-59211928D01*
X148218750Y-59211928D01*
X148051592Y-59228392D01*
X147890858Y-59277150D01*
X147742725Y-59356329D01*
X147612885Y-59462885D01*
X147584534Y-59497431D01*
X147537311Y-59502082D01*
X147379913Y-59549828D01*
X147355270Y-59563000D01*
X135763000Y-59563000D01*
X135763000Y-55270000D01*
X157201001Y-55270000D01*
X157201001Y-67818000D01*
%TO.N,SWITCH_IN*%
G36*
X123122913Y-68720172D02*
G01*
X123280311Y-68767918D01*
X123402981Y-68780000D01*
X123402991Y-68780000D01*
X123443999Y-68784039D01*
X123485007Y-68780000D01*
X123822814Y-68780000D01*
X123903418Y-68823084D01*
X124051255Y-68867929D01*
X124205000Y-68883072D01*
X125855000Y-68883072D01*
X126008745Y-68867929D01*
X126156582Y-68823084D01*
X126292829Y-68750258D01*
X126345539Y-68707000D01*
X129794000Y-68707000D01*
X129794000Y-70993000D01*
X129015539Y-70993000D01*
X128962829Y-70949742D01*
X128826582Y-70876916D01*
X128678745Y-70832071D01*
X128525000Y-70816928D01*
X126875000Y-70816928D01*
X126721255Y-70832071D01*
X126573418Y-70876916D01*
X126437171Y-70949742D01*
X126384461Y-70993000D01*
X123063000Y-70993000D01*
X123063000Y-68707000D01*
X123098270Y-68707000D01*
X123122913Y-68720172D01*
G37*
X123122913Y-68720172D02*
X123280311Y-68767918D01*
X123402981Y-68780000D01*
X123402991Y-68780000D01*
X123443999Y-68784039D01*
X123485007Y-68780000D01*
X123822814Y-68780000D01*
X123903418Y-68823084D01*
X124051255Y-68867929D01*
X124205000Y-68883072D01*
X125855000Y-68883072D01*
X126008745Y-68867929D01*
X126156582Y-68823084D01*
X126292829Y-68750258D01*
X126345539Y-68707000D01*
X129794000Y-68707000D01*
X129794000Y-70993000D01*
X129015539Y-70993000D01*
X128962829Y-70949742D01*
X128826582Y-70876916D01*
X128678745Y-70832071D01*
X128525000Y-70816928D01*
X126875000Y-70816928D01*
X126721255Y-70832071D01*
X126573418Y-70876916D01*
X126437171Y-70949742D01*
X126384461Y-70993000D01*
X123063000Y-70993000D01*
X123063000Y-68707000D01*
X123098270Y-68707000D01*
X123122913Y-68720172D01*
%TO.N,V_OUT*%
G36*
X136144000Y-68632606D02*
G01*
X136144000Y-75565000D01*
X136146440Y-75589776D01*
X136153667Y-75613601D01*
X136165403Y-75635557D01*
X136181197Y-75654803D01*
X136200443Y-75670597D01*
X136222399Y-75682333D01*
X136246224Y-75689560D01*
X136271000Y-75692000D01*
X138684000Y-75692000D01*
X138684000Y-79248000D01*
X131318000Y-79248000D01*
X131318000Y-76962000D01*
X135001000Y-76962000D01*
X135025776Y-76959560D01*
X135049601Y-76952333D01*
X135071557Y-76940597D01*
X135090803Y-76924803D01*
X135106597Y-76905557D01*
X135118333Y-76883601D01*
X135125560Y-76859776D01*
X135128000Y-76835000D01*
X135128000Y-72390000D01*
X135125560Y-72365224D01*
X135118333Y-72341399D01*
X135106597Y-72319443D01*
X135090803Y-72300197D01*
X135071557Y-72284403D01*
X135049601Y-72272667D01*
X135025776Y-72265440D01*
X135001000Y-72263000D01*
X133223000Y-72263000D01*
X133223000Y-67437000D01*
X134948394Y-67437000D01*
X136144000Y-68632606D01*
G37*
X136144000Y-68632606D02*
X136144000Y-75565000D01*
X136146440Y-75589776D01*
X136153667Y-75613601D01*
X136165403Y-75635557D01*
X136181197Y-75654803D01*
X136200443Y-75670597D01*
X136222399Y-75682333D01*
X136246224Y-75689560D01*
X136271000Y-75692000D01*
X138684000Y-75692000D01*
X138684000Y-79248000D01*
X131318000Y-79248000D01*
X131318000Y-76962000D01*
X135001000Y-76962000D01*
X135025776Y-76959560D01*
X135049601Y-76952333D01*
X135071557Y-76940597D01*
X135090803Y-76924803D01*
X135106597Y-76905557D01*
X135118333Y-76883601D01*
X135125560Y-76859776D01*
X135128000Y-76835000D01*
X135128000Y-72390000D01*
X135125560Y-72365224D01*
X135118333Y-72341399D01*
X135106597Y-72319443D01*
X135090803Y-72300197D01*
X135071557Y-72284403D01*
X135049601Y-72272667D01*
X135025776Y-72265440D01*
X135001000Y-72263000D01*
X133223000Y-72263000D01*
X133223000Y-67437000D01*
X134948394Y-67437000D01*
X136144000Y-68632606D01*
%TO.N,V_ext*%
G36*
X104394000Y-66548000D02*
G01*
X101473000Y-66548000D01*
X101473000Y-61087000D01*
X104394000Y-61087000D01*
X104394000Y-66548000D01*
G37*
X104394000Y-66548000D02*
X101473000Y-66548000D01*
X101473000Y-61087000D01*
X104394000Y-61087000D01*
X104394000Y-66548000D01*
%TO.N,V_ext_p*%
G36*
X130429000Y-62738000D02*
G01*
X128778000Y-62738000D01*
X128778000Y-62264468D01*
X128840636Y-62188146D01*
X128918172Y-62043087D01*
X128965918Y-61885689D01*
X128978000Y-61763019D01*
X128978000Y-61763009D01*
X128982039Y-61722001D01*
X128978000Y-61680993D01*
X128978000Y-60620015D01*
X128982040Y-60578999D01*
X128978000Y-60537981D01*
X128978000Y-59477007D01*
X128982039Y-59435999D01*
X128978000Y-59394991D01*
X128978000Y-59394981D01*
X128965918Y-59272311D01*
X128918172Y-59114913D01*
X128840636Y-58969854D01*
X128778000Y-58893532D01*
X128778000Y-57150000D01*
X128775560Y-57125224D01*
X128768333Y-57101399D01*
X128756597Y-57079443D01*
X128740803Y-57060197D01*
X128721557Y-57044403D01*
X128699601Y-57032667D01*
X128675776Y-57025440D01*
X128651000Y-57023000D01*
X115209030Y-57023000D01*
X115065587Y-56946328D01*
X114908189Y-56898582D01*
X114785519Y-56886500D01*
X114785518Y-56886500D01*
X114744500Y-56882460D01*
X114703482Y-56886500D01*
X111610518Y-56886500D01*
X111569499Y-56882460D01*
X111528481Y-56886500D01*
X111405811Y-56898582D01*
X111248413Y-56946328D01*
X111104970Y-57023000D01*
X108331000Y-57023000D01*
X108306224Y-57025440D01*
X108282399Y-57032667D01*
X108260443Y-57044403D01*
X108241197Y-57060197D01*
X108225403Y-57079443D01*
X108213667Y-57101399D01*
X108206440Y-57125224D01*
X108204000Y-57150000D01*
X108204000Y-65278000D01*
X107188000Y-65278000D01*
X107188000Y-55270000D01*
X130429000Y-55270000D01*
X130429000Y-62738000D01*
G37*
X130429000Y-62738000D02*
X128778000Y-62738000D01*
X128778000Y-62264468D01*
X128840636Y-62188146D01*
X128918172Y-62043087D01*
X128965918Y-61885689D01*
X128978000Y-61763019D01*
X128978000Y-61763009D01*
X128982039Y-61722001D01*
X128978000Y-61680993D01*
X128978000Y-60620015D01*
X128982040Y-60578999D01*
X128978000Y-60537981D01*
X128978000Y-59477007D01*
X128982039Y-59435999D01*
X128978000Y-59394991D01*
X128978000Y-59394981D01*
X128965918Y-59272311D01*
X128918172Y-59114913D01*
X128840636Y-58969854D01*
X128778000Y-58893532D01*
X128778000Y-57150000D01*
X128775560Y-57125224D01*
X128768333Y-57101399D01*
X128756597Y-57079443D01*
X128740803Y-57060197D01*
X128721557Y-57044403D01*
X128699601Y-57032667D01*
X128675776Y-57025440D01*
X128651000Y-57023000D01*
X115209030Y-57023000D01*
X115065587Y-56946328D01*
X114908189Y-56898582D01*
X114785519Y-56886500D01*
X114785518Y-56886500D01*
X114744500Y-56882460D01*
X114703482Y-56886500D01*
X111610518Y-56886500D01*
X111569499Y-56882460D01*
X111528481Y-56886500D01*
X111405811Y-56898582D01*
X111248413Y-56946328D01*
X111104970Y-57023000D01*
X108331000Y-57023000D01*
X108306224Y-57025440D01*
X108282399Y-57032667D01*
X108260443Y-57044403D01*
X108241197Y-57060197D01*
X108225403Y-57079443D01*
X108213667Y-57101399D01*
X108206440Y-57125224D01*
X108204000Y-57150000D01*
X108204000Y-65278000D01*
X107188000Y-65278000D01*
X107188000Y-55270000D01*
X130429000Y-55270000D01*
X130429000Y-62738000D01*
%TO.N,GND*%
G36*
X108890617Y-66343933D02*
G01*
X108847000Y-66563212D01*
X108847000Y-66659599D01*
X108784828Y-66775914D01*
X108737082Y-66933312D01*
X108720960Y-67097000D01*
X108725001Y-67138028D01*
X108725001Y-67428801D01*
X108721928Y-67460000D01*
X108721928Y-69020000D01*
X108734188Y-69144482D01*
X108770498Y-69264180D01*
X108829463Y-69374494D01*
X108908815Y-69471185D01*
X109005506Y-69550537D01*
X109115820Y-69609502D01*
X109235518Y-69645812D01*
X109333415Y-69655454D01*
X109265869Y-69723000D01*
X105313694Y-69723000D01*
X105234180Y-69680498D01*
X105114482Y-69644188D01*
X104990000Y-69631928D01*
X104648000Y-69631928D01*
X104648000Y-68072000D01*
X105156000Y-68072000D01*
X105180776Y-68069560D01*
X105204601Y-68062333D01*
X105226557Y-68050597D01*
X105245803Y-68034803D01*
X105261670Y-68015447D01*
X105631968Y-67460000D01*
X106771928Y-67460000D01*
X106771928Y-69020000D01*
X106784188Y-69144482D01*
X106820498Y-69264180D01*
X106879463Y-69374494D01*
X106958815Y-69471185D01*
X107055506Y-69550537D01*
X107165820Y-69609502D01*
X107285518Y-69645812D01*
X107410000Y-69658072D01*
X107810000Y-69658072D01*
X107934482Y-69645812D01*
X108054180Y-69609502D01*
X108164494Y-69550537D01*
X108261185Y-69471185D01*
X108340537Y-69374494D01*
X108399502Y-69264180D01*
X108435812Y-69144482D01*
X108448072Y-69020000D01*
X108448072Y-67460000D01*
X108435812Y-67335518D01*
X108399502Y-67215820D01*
X108340537Y-67105506D01*
X108261185Y-67008815D01*
X108164494Y-66929463D01*
X108054180Y-66870498D01*
X107934482Y-66834188D01*
X107810000Y-66821928D01*
X107410000Y-66821928D01*
X107285518Y-66834188D01*
X107165820Y-66870498D01*
X107055506Y-66929463D01*
X106958815Y-67008815D01*
X106879463Y-67105506D01*
X106820498Y-67215820D01*
X106784188Y-67335518D01*
X106771928Y-67460000D01*
X105631968Y-67460000D01*
X106493968Y-66167000D01*
X108963905Y-66167000D01*
X108890617Y-66343933D01*
G37*
X108890617Y-66343933D02*
X108847000Y-66563212D01*
X108847000Y-66659599D01*
X108784828Y-66775914D01*
X108737082Y-66933312D01*
X108720960Y-67097000D01*
X108725001Y-67138028D01*
X108725001Y-67428801D01*
X108721928Y-67460000D01*
X108721928Y-69020000D01*
X108734188Y-69144482D01*
X108770498Y-69264180D01*
X108829463Y-69374494D01*
X108908815Y-69471185D01*
X109005506Y-69550537D01*
X109115820Y-69609502D01*
X109235518Y-69645812D01*
X109333415Y-69655454D01*
X109265869Y-69723000D01*
X105313694Y-69723000D01*
X105234180Y-69680498D01*
X105114482Y-69644188D01*
X104990000Y-69631928D01*
X104648000Y-69631928D01*
X104648000Y-68072000D01*
X105156000Y-68072000D01*
X105180776Y-68069560D01*
X105204601Y-68062333D01*
X105226557Y-68050597D01*
X105245803Y-68034803D01*
X105261670Y-68015447D01*
X105631968Y-67460000D01*
X106771928Y-67460000D01*
X106771928Y-69020000D01*
X106784188Y-69144482D01*
X106820498Y-69264180D01*
X106879463Y-69374494D01*
X106958815Y-69471185D01*
X107055506Y-69550537D01*
X107165820Y-69609502D01*
X107285518Y-69645812D01*
X107410000Y-69658072D01*
X107810000Y-69658072D01*
X107934482Y-69645812D01*
X108054180Y-69609502D01*
X108164494Y-69550537D01*
X108261185Y-69471185D01*
X108340537Y-69374494D01*
X108399502Y-69264180D01*
X108435812Y-69144482D01*
X108448072Y-69020000D01*
X108448072Y-67460000D01*
X108435812Y-67335518D01*
X108399502Y-67215820D01*
X108340537Y-67105506D01*
X108261185Y-67008815D01*
X108164494Y-66929463D01*
X108054180Y-66870498D01*
X107934482Y-66834188D01*
X107810000Y-66821928D01*
X107410000Y-66821928D01*
X107285518Y-66834188D01*
X107165820Y-66870498D01*
X107055506Y-66929463D01*
X106958815Y-67008815D01*
X106879463Y-67105506D01*
X106820498Y-67215820D01*
X106784188Y-67335518D01*
X106771928Y-67460000D01*
X105631968Y-67460000D01*
X106493968Y-66167000D01*
X108963905Y-66167000D01*
X108890617Y-66343933D01*
%TO.N,/LX*%
G36*
X140589000Y-62781928D02*
G01*
X139790000Y-62781928D01*
X139665518Y-62794188D01*
X139545820Y-62830498D01*
X139435506Y-62889463D01*
X139429513Y-62894381D01*
X139407520Y-62872388D01*
X139221624Y-62748176D01*
X139015067Y-62662617D01*
X138795788Y-62619000D01*
X138572212Y-62619000D01*
X138352933Y-62662617D01*
X138146376Y-62748176D01*
X137960480Y-62872388D01*
X137802388Y-63030480D01*
X137678176Y-63216376D01*
X137592617Y-63422933D01*
X137549000Y-63642212D01*
X137549000Y-63865788D01*
X137592617Y-64085067D01*
X137678176Y-64291624D01*
X137802388Y-64477520D01*
X137960480Y-64635612D01*
X138146376Y-64759824D01*
X138352933Y-64845383D01*
X138572212Y-64889000D01*
X138795788Y-64889000D01*
X139015067Y-64845383D01*
X139221624Y-64759824D01*
X139345756Y-64676881D01*
X139435506Y-64750537D01*
X139545820Y-64809502D01*
X139665518Y-64845812D01*
X139790000Y-64858072D01*
X140589000Y-64858072D01*
X140589000Y-67818000D01*
X138228606Y-67818000D01*
X136995803Y-66585197D01*
X136976557Y-66569403D01*
X136954601Y-66557667D01*
X136930776Y-66550440D01*
X136906000Y-66548000D01*
X135763000Y-66548000D01*
X135763000Y-61087000D01*
X140589000Y-61087000D01*
X140589000Y-62781928D01*
G37*
X140589000Y-62781928D02*
X139790000Y-62781928D01*
X139665518Y-62794188D01*
X139545820Y-62830498D01*
X139435506Y-62889463D01*
X139429513Y-62894381D01*
X139407520Y-62872388D01*
X139221624Y-62748176D01*
X139015067Y-62662617D01*
X138795788Y-62619000D01*
X138572212Y-62619000D01*
X138352933Y-62662617D01*
X138146376Y-62748176D01*
X137960480Y-62872388D01*
X137802388Y-63030480D01*
X137678176Y-63216376D01*
X137592617Y-63422933D01*
X137549000Y-63642212D01*
X137549000Y-63865788D01*
X137592617Y-64085067D01*
X137678176Y-64291624D01*
X137802388Y-64477520D01*
X137960480Y-64635612D01*
X138146376Y-64759824D01*
X138352933Y-64845383D01*
X138572212Y-64889000D01*
X138795788Y-64889000D01*
X139015067Y-64845383D01*
X139221624Y-64759824D01*
X139345756Y-64676881D01*
X139435506Y-64750537D01*
X139545820Y-64809502D01*
X139665518Y-64845812D01*
X139790000Y-64858072D01*
X140589000Y-64858072D01*
X140589000Y-67818000D01*
X138228606Y-67818000D01*
X136995803Y-66585197D01*
X136976557Y-66569403D01*
X136954601Y-66557667D01*
X136930776Y-66550440D01*
X136906000Y-66548000D01*
X135763000Y-66548000D01*
X135763000Y-61087000D01*
X140589000Y-61087000D01*
X140589000Y-62781928D01*
%TO.N,GND*%
G36*
X136144000Y-59563000D02*
G01*
X135001000Y-59563000D01*
X134976224Y-59565440D01*
X134952399Y-59572667D01*
X134930443Y-59584403D01*
X134911197Y-59600197D01*
X134895403Y-59619443D01*
X134883667Y-59641399D01*
X134876440Y-59665224D01*
X134874000Y-59690000D01*
X134874000Y-65913000D01*
X131318000Y-65913000D01*
X131318000Y-55270000D01*
X136144000Y-55270000D01*
X136144000Y-59563000D01*
G37*
X136144000Y-59563000D02*
X135001000Y-59563000D01*
X134976224Y-59565440D01*
X134952399Y-59572667D01*
X134930443Y-59584403D01*
X134911197Y-59600197D01*
X134895403Y-59619443D01*
X134883667Y-59641399D01*
X134876440Y-59665224D01*
X134874000Y-59690000D01*
X134874000Y-65913000D01*
X131318000Y-65913000D01*
X131318000Y-55270000D01*
X136144000Y-55270000D01*
X136144000Y-59563000D01*
%TO.N,/V_BAT+_F*%
G36*
X113284000Y-71796928D02*
G01*
X113035000Y-71796928D01*
X112910518Y-71809188D01*
X112790820Y-71845498D01*
X112680506Y-71904463D01*
X112583815Y-71983815D01*
X112504463Y-72080506D01*
X112445498Y-72190820D01*
X112409188Y-72310518D01*
X112396928Y-72435000D01*
X112396928Y-72985000D01*
X112409188Y-73109482D01*
X112445498Y-73229180D01*
X112504463Y-73339494D01*
X112583815Y-73436185D01*
X112680506Y-73515537D01*
X112713176Y-73533000D01*
X112268000Y-73533000D01*
X112268000Y-73025000D01*
X112265560Y-73000224D01*
X112258333Y-72976399D01*
X112246597Y-72954443D01*
X112230803Y-72935197D01*
X112211557Y-72919403D01*
X112189601Y-72907667D01*
X112165776Y-72900440D01*
X112141000Y-72898000D01*
X110998000Y-72898000D01*
X110998000Y-71807606D01*
X112193606Y-70612000D01*
X113284000Y-70612000D01*
X113284000Y-71796928D01*
G37*
X113284000Y-71796928D02*
X113035000Y-71796928D01*
X112910518Y-71809188D01*
X112790820Y-71845498D01*
X112680506Y-71904463D01*
X112583815Y-71983815D01*
X112504463Y-72080506D01*
X112445498Y-72190820D01*
X112409188Y-72310518D01*
X112396928Y-72435000D01*
X112396928Y-72985000D01*
X112409188Y-73109482D01*
X112445498Y-73229180D01*
X112504463Y-73339494D01*
X112583815Y-73436185D01*
X112680506Y-73515537D01*
X112713176Y-73533000D01*
X112268000Y-73533000D01*
X112268000Y-73025000D01*
X112265560Y-73000224D01*
X112258333Y-72976399D01*
X112246597Y-72954443D01*
X112230803Y-72935197D01*
X112211557Y-72919403D01*
X112189601Y-72907667D01*
X112165776Y-72900440D01*
X112141000Y-72898000D01*
X110998000Y-72898000D01*
X110998000Y-71807606D01*
X112193606Y-70612000D01*
X113284000Y-70612000D01*
X113284000Y-71796928D01*
%TO.N,SWITCH_IN*%
G36*
X123122913Y-68720172D02*
G01*
X123280311Y-68767918D01*
X123402981Y-68780000D01*
X123402991Y-68780000D01*
X123443999Y-68784039D01*
X123485007Y-68780000D01*
X123822814Y-68780000D01*
X123903418Y-68823084D01*
X124051255Y-68867929D01*
X124079000Y-68870662D01*
X124079000Y-74295000D01*
X124081440Y-74319776D01*
X124088667Y-74343601D01*
X124100403Y-74365557D01*
X124116197Y-74384803D01*
X124135443Y-74400597D01*
X124157399Y-74412333D01*
X124181224Y-74419560D01*
X124206000Y-74422000D01*
X125984000Y-74422000D01*
X125984000Y-77343000D01*
X122428000Y-77343000D01*
X122428000Y-68707000D01*
X123098270Y-68707000D01*
X123122913Y-68720172D01*
G37*
X123122913Y-68720172D02*
X123280311Y-68767918D01*
X123402981Y-68780000D01*
X123402991Y-68780000D01*
X123443999Y-68784039D01*
X123485007Y-68780000D01*
X123822814Y-68780000D01*
X123903418Y-68823084D01*
X124051255Y-68867929D01*
X124079000Y-68870662D01*
X124079000Y-74295000D01*
X124081440Y-74319776D01*
X124088667Y-74343601D01*
X124100403Y-74365557D01*
X124116197Y-74384803D01*
X124135443Y-74400597D01*
X124157399Y-74412333D01*
X124181224Y-74419560D01*
X124206000Y-74422000D01*
X125984000Y-74422000D01*
X125984000Y-77343000D01*
X122428000Y-77343000D01*
X122428000Y-68707000D01*
X123098270Y-68707000D01*
X123122913Y-68720172D01*
G36*
X123444000Y-77343000D02*
G01*
X118618000Y-77343000D01*
X118618000Y-75057000D01*
X123444000Y-75057000D01*
X123444000Y-77343000D01*
G37*
X123444000Y-77343000D02*
X118618000Y-77343000D01*
X118618000Y-75057000D01*
X123444000Y-75057000D01*
X123444000Y-77343000D01*
%TO.N,GND*%
G36*
X134239000Y-74803000D02*
G01*
X131318000Y-74803000D01*
X131318000Y-73152000D01*
X134239000Y-73152000D01*
X134239000Y-74803000D01*
G37*
X134239000Y-74803000D02*
X131318000Y-74803000D01*
X131318000Y-73152000D01*
X134239000Y-73152000D01*
X134239000Y-74803000D01*
%TO.N,SWITCH_IN*%
G36*
X105734204Y-76313592D02*
G01*
X105757456Y-76322490D01*
X105791000Y-76327000D01*
X109707970Y-76327000D01*
X109851413Y-76403672D01*
X110008811Y-76451418D01*
X110172500Y-76467540D01*
X110213518Y-76463500D01*
X110883090Y-76463500D01*
X110938017Y-76518427D01*
X110964168Y-76550292D01*
X111091313Y-76654637D01*
X111236372Y-76732173D01*
X111393770Y-76779919D01*
X111516440Y-76792001D01*
X111516441Y-76792001D01*
X111557459Y-76796041D01*
X111598477Y-76792001D01*
X113612981Y-76792001D01*
X113653999Y-76796041D01*
X113695017Y-76792001D01*
X113695018Y-76792001D01*
X113817688Y-76779919D01*
X113975086Y-76732173D01*
X114120145Y-76654637D01*
X114247290Y-76550292D01*
X114273444Y-76518423D01*
X114455367Y-76336500D01*
X117116482Y-76336500D01*
X117157500Y-76340540D01*
X117198518Y-76336500D01*
X117198519Y-76336500D01*
X117294974Y-76327000D01*
X118999000Y-76327000D01*
X118999000Y-77337358D01*
X104648000Y-76713402D01*
X104648000Y-75770490D01*
X105734204Y-76313592D01*
G37*
X105734204Y-76313592D02*
X105757456Y-76322490D01*
X105791000Y-76327000D01*
X109707970Y-76327000D01*
X109851413Y-76403672D01*
X110008811Y-76451418D01*
X110172500Y-76467540D01*
X110213518Y-76463500D01*
X110883090Y-76463500D01*
X110938017Y-76518427D01*
X110964168Y-76550292D01*
X111091313Y-76654637D01*
X111236372Y-76732173D01*
X111393770Y-76779919D01*
X111516440Y-76792001D01*
X111516441Y-76792001D01*
X111557459Y-76796041D01*
X111598477Y-76792001D01*
X113612981Y-76792001D01*
X113653999Y-76796041D01*
X113695017Y-76792001D01*
X113695018Y-76792001D01*
X113817688Y-76779919D01*
X113975086Y-76732173D01*
X114120145Y-76654637D01*
X114247290Y-76550292D01*
X114273444Y-76518423D01*
X114455367Y-76336500D01*
X117116482Y-76336500D01*
X117157500Y-76340540D01*
X117198518Y-76336500D01*
X117198519Y-76336500D01*
X117294974Y-76327000D01*
X118999000Y-76327000D01*
X118999000Y-77337358D01*
X104648000Y-76713402D01*
X104648000Y-75770490D01*
X105734204Y-76313592D01*
%TO.N,V_ext_p*%
G36*
X129794000Y-58293000D02*
G01*
X128107730Y-58293000D01*
X128083087Y-58279828D01*
X127925689Y-58232082D01*
X127803019Y-58220000D01*
X127803018Y-58220000D01*
X127762000Y-58215960D01*
X127720982Y-58220000D01*
X121580019Y-58220000D01*
X121539000Y-58215960D01*
X121497982Y-58220000D01*
X116423869Y-58220000D01*
X116078000Y-57874132D01*
X116078000Y-56007000D01*
X129794000Y-56007000D01*
X129794000Y-58293000D01*
G37*
X129794000Y-58293000D02*
X128107730Y-58293000D01*
X128083087Y-58279828D01*
X127925689Y-58232082D01*
X127803019Y-58220000D01*
X127803018Y-58220000D01*
X127762000Y-58215960D01*
X127720982Y-58220000D01*
X121580019Y-58220000D01*
X121539000Y-58215960D01*
X121497982Y-58220000D01*
X116423869Y-58220000D01*
X116078000Y-57874132D01*
X116078000Y-56007000D01*
X129794000Y-56007000D01*
X129794000Y-58293000D01*
%TO.N,GND*%
G36*
X114554000Y-58711867D02*
G01*
X114554000Y-59690000D01*
X114556440Y-59714776D01*
X114563667Y-59738601D01*
X114575403Y-59760557D01*
X114591197Y-59779803D01*
X114610443Y-59795597D01*
X114632399Y-59807333D01*
X114656224Y-59814560D01*
X114681000Y-59817000D01*
X115732270Y-59817000D01*
X115756913Y-59830172D01*
X115914311Y-59877918D01*
X116036981Y-59890000D01*
X116036982Y-59890000D01*
X116078000Y-59894040D01*
X116119018Y-59890000D01*
X117094000Y-59890000D01*
X117094000Y-62738000D01*
X112268000Y-62738000D01*
X112268000Y-61553072D01*
X112651250Y-61553072D01*
X112692173Y-61549041D01*
X113299563Y-62156432D01*
X113325709Y-62188291D01*
X113452854Y-62292636D01*
X113597913Y-62370172D01*
X113603976Y-62372011D01*
X113623815Y-62396185D01*
X113720506Y-62475537D01*
X113830820Y-62534502D01*
X113950518Y-62570812D01*
X114075000Y-62583072D01*
X115375000Y-62583072D01*
X115499482Y-62570812D01*
X115619180Y-62534502D01*
X115729494Y-62475537D01*
X115826185Y-62396185D01*
X115905537Y-62299494D01*
X115964502Y-62189180D01*
X116000812Y-62069482D01*
X116013072Y-61945000D01*
X116013072Y-61245000D01*
X116000812Y-61120518D01*
X115964502Y-61000820D01*
X115905537Y-60890506D01*
X115826185Y-60793815D01*
X115729494Y-60714463D01*
X115619180Y-60655498D01*
X115499482Y-60619188D01*
X115375000Y-60606928D01*
X114111796Y-60606928D01*
X113445952Y-59941085D01*
X113442850Y-59930858D01*
X113363671Y-59782725D01*
X113257115Y-59652885D01*
X113127275Y-59546329D01*
X112979142Y-59467150D01*
X112818408Y-59418392D01*
X112651250Y-59401928D01*
X112268000Y-59401928D01*
X112268000Y-58556500D01*
X114398633Y-58556500D01*
X114554000Y-58711867D01*
G37*
X114554000Y-58711867D02*
X114554000Y-59690000D01*
X114556440Y-59714776D01*
X114563667Y-59738601D01*
X114575403Y-59760557D01*
X114591197Y-59779803D01*
X114610443Y-59795597D01*
X114632399Y-59807333D01*
X114656224Y-59814560D01*
X114681000Y-59817000D01*
X115732270Y-59817000D01*
X115756913Y-59830172D01*
X115914311Y-59877918D01*
X116036981Y-59890000D01*
X116036982Y-59890000D01*
X116078000Y-59894040D01*
X116119018Y-59890000D01*
X117094000Y-59890000D01*
X117094000Y-62738000D01*
X112268000Y-62738000D01*
X112268000Y-61553072D01*
X112651250Y-61553072D01*
X112692173Y-61549041D01*
X113299563Y-62156432D01*
X113325709Y-62188291D01*
X113452854Y-62292636D01*
X113597913Y-62370172D01*
X113603976Y-62372011D01*
X113623815Y-62396185D01*
X113720506Y-62475537D01*
X113830820Y-62534502D01*
X113950518Y-62570812D01*
X114075000Y-62583072D01*
X115375000Y-62583072D01*
X115499482Y-62570812D01*
X115619180Y-62534502D01*
X115729494Y-62475537D01*
X115826185Y-62396185D01*
X115905537Y-62299494D01*
X115964502Y-62189180D01*
X116000812Y-62069482D01*
X116013072Y-61945000D01*
X116013072Y-61245000D01*
X116000812Y-61120518D01*
X115964502Y-61000820D01*
X115905537Y-60890506D01*
X115826185Y-60793815D01*
X115729494Y-60714463D01*
X115619180Y-60655498D01*
X115499482Y-60619188D01*
X115375000Y-60606928D01*
X114111796Y-60606928D01*
X113445952Y-59941085D01*
X113442850Y-59930858D01*
X113363671Y-59782725D01*
X113257115Y-59652885D01*
X113127275Y-59546329D01*
X112979142Y-59467150D01*
X112818408Y-59418392D01*
X112651250Y-59401928D01*
X112268000Y-59401928D01*
X112268000Y-58556500D01*
X114398633Y-58556500D01*
X114554000Y-58711867D01*
G36*
X106299000Y-58928000D02*
G01*
X100101000Y-58928000D01*
X100101000Y-55270000D01*
X106299000Y-55270000D01*
X106299000Y-58928000D01*
G37*
X106299000Y-58928000D02*
X100101000Y-58928000D01*
X100101000Y-55270000D01*
X106299000Y-55270000D01*
X106299000Y-58928000D01*
%TD*%
M02*
