%TF.GenerationSoftware,KiCad,Pcbnew,(5.1.6)-1*%
%TF.CreationDate,2020-12-22T23:38:05+01:00*%
%TF.ProjectId,02_Batt_Alim,30325f42-6174-4745-9f41-6c696d2e6b69,rev?*%
%TF.SameCoordinates,Original*%
%TF.FileFunction,Copper,L1,Top*%
%TF.FilePolarity,Positive*%
%FSLAX46Y46*%
G04 Gerber Fmt 4.6, Leading zero omitted, Abs format (unit mm)*
G04 Created by KiCad (PCBNEW (5.1.6)-1) date 2020-12-22 23:38:05*
%MOMM*%
%LPD*%
G01*
G04 APERTURE LIST*
%TA.AperFunction,Profile*%
%ADD10C,0.050000*%
%TD*%
%TA.AperFunction,SMDPad,CuDef*%
%ADD11R,2.524000X1.700000*%
%TD*%
%TA.AperFunction,ComponentPad*%
%ADD12C,1.524000*%
%TD*%
%TA.AperFunction,ComponentPad*%
%ADD13R,1.700000X1.700000*%
%TD*%
%TA.AperFunction,SMDPad,CuDef*%
%ADD14R,2.200000X3.300000*%
%TD*%
%TA.AperFunction,ComponentPad*%
%ADD15C,1.000000*%
%TD*%
%TA.AperFunction,SMDPad,CuDef*%
%ADD16R,1.300000X0.700000*%
%TD*%
%TA.AperFunction,SMDPad,CuDef*%
%ADD17R,1.200000X0.550000*%
%TD*%
%TA.AperFunction,SMDPad,CuDef*%
%ADD18R,3.600000X2.700000*%
%TD*%
%TA.AperFunction,SMDPad,CuDef*%
%ADD19R,0.900000X0.800000*%
%TD*%
%TA.AperFunction,SMDPad,CuDef*%
%ADD20R,1.560000X0.400000*%
%TD*%
%TA.AperFunction,SMDPad,CuDef*%
%ADD21R,1.900000X0.800000*%
%TD*%
%TA.AperFunction,SMDPad,CuDef*%
%ADD22R,1.100000X1.100000*%
%TD*%
%TA.AperFunction,ViaPad*%
%ADD23C,1.000000*%
%TD*%
%TA.AperFunction,Conductor*%
%ADD24C,0.400000*%
%TD*%
%TA.AperFunction,Conductor*%
%ADD25C,1.000000*%
%TD*%
%TA.AperFunction,Conductor*%
%ADD26C,0.500000*%
%TD*%
%TA.AperFunction,Conductor*%
%ADD27C,0.254000*%
%TD*%
G04 APERTURE END LIST*
D10*
X134620000Y-97790000D02*
X100330000Y-97790000D01*
X134620000Y-54610000D02*
X134620000Y-97790000D01*
X100330000Y-54610000D02*
X134620000Y-54610000D01*
X100330000Y-97790000D02*
X100330000Y-54610000D01*
%TO.P,Q1,8*%
%TO.N,V_OUT*%
%TA.AperFunction,SMDPad,CuDef*%
G36*
G01*
X131930000Y-77065000D02*
X132230000Y-77065000D01*
G75*
G02*
X132380000Y-77215000I0J-150000D01*
G01*
X132380000Y-78865000D01*
G75*
G02*
X132230000Y-79015000I-150000J0D01*
G01*
X131930000Y-79015000D01*
G75*
G02*
X131780000Y-78865000I0J150000D01*
G01*
X131780000Y-77215000D01*
G75*
G02*
X131930000Y-77065000I150000J0D01*
G01*
G37*
%TD.AperFunction*%
%TO.P,Q1,7*%
%TA.AperFunction,SMDPad,CuDef*%
G36*
G01*
X130660000Y-77065000D02*
X130960000Y-77065000D01*
G75*
G02*
X131110000Y-77215000I0J-150000D01*
G01*
X131110000Y-78865000D01*
G75*
G02*
X130960000Y-79015000I-150000J0D01*
G01*
X130660000Y-79015000D01*
G75*
G02*
X130510000Y-78865000I0J150000D01*
G01*
X130510000Y-77215000D01*
G75*
G02*
X130660000Y-77065000I150000J0D01*
G01*
G37*
%TD.AperFunction*%
%TO.P,Q1,6*%
%TA.AperFunction,SMDPad,CuDef*%
G36*
G01*
X129390000Y-77065000D02*
X129690000Y-77065000D01*
G75*
G02*
X129840000Y-77215000I0J-150000D01*
G01*
X129840000Y-78865000D01*
G75*
G02*
X129690000Y-79015000I-150000J0D01*
G01*
X129390000Y-79015000D01*
G75*
G02*
X129240000Y-78865000I0J150000D01*
G01*
X129240000Y-77215000D01*
G75*
G02*
X129390000Y-77065000I150000J0D01*
G01*
G37*
%TD.AperFunction*%
%TO.P,Q1,5*%
%TA.AperFunction,SMDPad,CuDef*%
G36*
G01*
X128120000Y-77065000D02*
X128420000Y-77065000D01*
G75*
G02*
X128570000Y-77215000I0J-150000D01*
G01*
X128570000Y-78865000D01*
G75*
G02*
X128420000Y-79015000I-150000J0D01*
G01*
X128120000Y-79015000D01*
G75*
G02*
X127970000Y-78865000I0J150000D01*
G01*
X127970000Y-77215000D01*
G75*
G02*
X128120000Y-77065000I150000J0D01*
G01*
G37*
%TD.AperFunction*%
%TO.P,Q1,4*%
%TO.N,Net-(Q1-Pad4)*%
%TA.AperFunction,SMDPad,CuDef*%
G36*
G01*
X128120000Y-72115000D02*
X128420000Y-72115000D01*
G75*
G02*
X128570000Y-72265000I0J-150000D01*
G01*
X128570000Y-73915000D01*
G75*
G02*
X128420000Y-74065000I-150000J0D01*
G01*
X128120000Y-74065000D01*
G75*
G02*
X127970000Y-73915000I0J150000D01*
G01*
X127970000Y-72265000D01*
G75*
G02*
X128120000Y-72115000I150000J0D01*
G01*
G37*
%TD.AperFunction*%
%TO.P,Q1,3*%
%TO.N,SWITCH_IN*%
%TA.AperFunction,SMDPad,CuDef*%
G36*
G01*
X129390000Y-72115000D02*
X129690000Y-72115000D01*
G75*
G02*
X129840000Y-72265000I0J-150000D01*
G01*
X129840000Y-73915000D01*
G75*
G02*
X129690000Y-74065000I-150000J0D01*
G01*
X129390000Y-74065000D01*
G75*
G02*
X129240000Y-73915000I0J150000D01*
G01*
X129240000Y-72265000D01*
G75*
G02*
X129390000Y-72115000I150000J0D01*
G01*
G37*
%TD.AperFunction*%
%TO.P,Q1,2*%
%TA.AperFunction,SMDPad,CuDef*%
G36*
G01*
X130660000Y-72115000D02*
X130960000Y-72115000D01*
G75*
G02*
X131110000Y-72265000I0J-150000D01*
G01*
X131110000Y-73915000D01*
G75*
G02*
X130960000Y-74065000I-150000J0D01*
G01*
X130660000Y-74065000D01*
G75*
G02*
X130510000Y-73915000I0J150000D01*
G01*
X130510000Y-72265000D01*
G75*
G02*
X130660000Y-72115000I150000J0D01*
G01*
G37*
%TD.AperFunction*%
%TO.P,Q1,1*%
%TA.AperFunction,SMDPad,CuDef*%
G36*
G01*
X131930000Y-72115000D02*
X132230000Y-72115000D01*
G75*
G02*
X132380000Y-72265000I0J-150000D01*
G01*
X132380000Y-73915000D01*
G75*
G02*
X132230000Y-74065000I-150000J0D01*
G01*
X131930000Y-74065000D01*
G75*
G02*
X131780000Y-73915000I0J150000D01*
G01*
X131780000Y-72265000D01*
G75*
G02*
X131930000Y-72115000I150000J0D01*
G01*
G37*
%TD.AperFunction*%
%TD*%
D11*
%TO.P,J8,1*%
%TO.N,GND*%
X102870000Y-81280000D03*
D12*
X101600000Y-81280000D03*
D13*
X104140000Y-81280000D03*
%TD*%
D11*
%TO.P,J11,1*%
%TO.N,SWITCH_OUT*%
X102870000Y-78740000D03*
D12*
X101600000Y-78740000D03*
D13*
X104140000Y-78740000D03*
%TD*%
%TO.P,R17,2*%
%TO.N,GND*%
%TA.AperFunction,SMDPad,CuDef*%
G36*
G01*
X116202750Y-73756000D02*
X116715250Y-73756000D01*
G75*
G02*
X116934000Y-73974750I0J-218750D01*
G01*
X116934000Y-74412250D01*
G75*
G02*
X116715250Y-74631000I-218750J0D01*
G01*
X116202750Y-74631000D01*
G75*
G02*
X115984000Y-74412250I0J218750D01*
G01*
X115984000Y-73974750D01*
G75*
G02*
X116202750Y-73756000I218750J0D01*
G01*
G37*
%TD.AperFunction*%
%TO.P,R17,1*%
%TO.N,Net-(IC2-Pad2)*%
%TA.AperFunction,SMDPad,CuDef*%
G36*
G01*
X116202750Y-72181000D02*
X116715250Y-72181000D01*
G75*
G02*
X116934000Y-72399750I0J-218750D01*
G01*
X116934000Y-72837250D01*
G75*
G02*
X116715250Y-73056000I-218750J0D01*
G01*
X116202750Y-73056000D01*
G75*
G02*
X115984000Y-72837250I0J218750D01*
G01*
X115984000Y-72399750D01*
G75*
G02*
X116202750Y-72181000I218750J0D01*
G01*
G37*
%TD.AperFunction*%
%TD*%
%TO.P,C1,2*%
%TO.N,GND*%
%TA.AperFunction,SMDPad,CuDef*%
G36*
G01*
X112651250Y-63150000D02*
X112138750Y-63150000D01*
G75*
G02*
X111920000Y-62931250I0J218750D01*
G01*
X111920000Y-62493750D01*
G75*
G02*
X112138750Y-62275000I218750J0D01*
G01*
X112651250Y-62275000D01*
G75*
G02*
X112870000Y-62493750I0J-218750D01*
G01*
X112870000Y-62931250D01*
G75*
G02*
X112651250Y-63150000I-218750J0D01*
G01*
G37*
%TD.AperFunction*%
%TO.P,C1,1*%
%TO.N,V_chg*%
%TA.AperFunction,SMDPad,CuDef*%
G36*
G01*
X112651250Y-64725000D02*
X112138750Y-64725000D01*
G75*
G02*
X111920000Y-64506250I0J218750D01*
G01*
X111920000Y-64068750D01*
G75*
G02*
X112138750Y-63850000I218750J0D01*
G01*
X112651250Y-63850000D01*
G75*
G02*
X112870000Y-64068750I0J-218750D01*
G01*
X112870000Y-64506250D01*
G75*
G02*
X112651250Y-64725000I-218750J0D01*
G01*
G37*
%TD.AperFunction*%
%TD*%
%TO.P,C2,2*%
%TO.N,V_BAT+*%
%TA.AperFunction,SMDPad,CuDef*%
G36*
G01*
X108074750Y-67533000D02*
X108587250Y-67533000D01*
G75*
G02*
X108806000Y-67751750I0J-218750D01*
G01*
X108806000Y-68189250D01*
G75*
G02*
X108587250Y-68408000I-218750J0D01*
G01*
X108074750Y-68408000D01*
G75*
G02*
X107856000Y-68189250I0J218750D01*
G01*
X107856000Y-67751750D01*
G75*
G02*
X108074750Y-67533000I218750J0D01*
G01*
G37*
%TD.AperFunction*%
%TO.P,C2,1*%
%TO.N,GND*%
%TA.AperFunction,SMDPad,CuDef*%
G36*
G01*
X108074750Y-65958000D02*
X108587250Y-65958000D01*
G75*
G02*
X108806000Y-66176750I0J-218750D01*
G01*
X108806000Y-66614250D01*
G75*
G02*
X108587250Y-66833000I-218750J0D01*
G01*
X108074750Y-66833000D01*
G75*
G02*
X107856000Y-66614250I0J218750D01*
G01*
X107856000Y-66176750D01*
G75*
G02*
X108074750Y-65958000I218750J0D01*
G01*
G37*
%TD.AperFunction*%
%TD*%
%TO.P,C3,2*%
%TO.N,GND*%
%TA.AperFunction,SMDPad,CuDef*%
G36*
G01*
X109025000Y-91300000D02*
X106875000Y-91300000D01*
G75*
G02*
X106625000Y-91050000I0J250000D01*
G01*
X106625000Y-90300000D01*
G75*
G02*
X106875000Y-90050000I250000J0D01*
G01*
X109025000Y-90050000D01*
G75*
G02*
X109275000Y-90300000I0J-250000D01*
G01*
X109275000Y-91050000D01*
G75*
G02*
X109025000Y-91300000I-250000J0D01*
G01*
G37*
%TD.AperFunction*%
%TO.P,C3,1*%
%TO.N,5V*%
%TA.AperFunction,SMDPad,CuDef*%
G36*
G01*
X109025000Y-94100000D02*
X106875000Y-94100000D01*
G75*
G02*
X106625000Y-93850000I0J250000D01*
G01*
X106625000Y-93100000D01*
G75*
G02*
X106875000Y-92850000I250000J0D01*
G01*
X109025000Y-92850000D01*
G75*
G02*
X109275000Y-93100000I0J-250000D01*
G01*
X109275000Y-93850000D01*
G75*
G02*
X109025000Y-94100000I-250000J0D01*
G01*
G37*
%TD.AperFunction*%
%TD*%
%TO.P,C4,2*%
%TO.N,GND*%
%TA.AperFunction,SMDPad,CuDef*%
G36*
G01*
X127830000Y-83960000D02*
X129980000Y-83960000D01*
G75*
G02*
X130230000Y-84210000I0J-250000D01*
G01*
X130230000Y-84960000D01*
G75*
G02*
X129980000Y-85210000I-250000J0D01*
G01*
X127830000Y-85210000D01*
G75*
G02*
X127580000Y-84960000I0J250000D01*
G01*
X127580000Y-84210000D01*
G75*
G02*
X127830000Y-83960000I250000J0D01*
G01*
G37*
%TD.AperFunction*%
%TO.P,C4,1*%
%TO.N,V_OUT*%
%TA.AperFunction,SMDPad,CuDef*%
G36*
G01*
X127830000Y-81160000D02*
X129980000Y-81160000D01*
G75*
G02*
X130230000Y-81410000I0J-250000D01*
G01*
X130230000Y-82160000D01*
G75*
G02*
X129980000Y-82410000I-250000J0D01*
G01*
X127830000Y-82410000D01*
G75*
G02*
X127580000Y-82160000I0J250000D01*
G01*
X127580000Y-81410000D01*
G75*
G02*
X127830000Y-81160000I250000J0D01*
G01*
G37*
%TD.AperFunction*%
%TD*%
%TO.P,C5,2*%
%TO.N,V_BAT-*%
%TA.AperFunction,SMDPad,CuDef*%
G36*
G01*
X109725750Y-70581000D02*
X110238250Y-70581000D01*
G75*
G02*
X110457000Y-70799750I0J-218750D01*
G01*
X110457000Y-71237250D01*
G75*
G02*
X110238250Y-71456000I-218750J0D01*
G01*
X109725750Y-71456000D01*
G75*
G02*
X109507000Y-71237250I0J218750D01*
G01*
X109507000Y-70799750D01*
G75*
G02*
X109725750Y-70581000I218750J0D01*
G01*
G37*
%TD.AperFunction*%
%TO.P,C5,1*%
%TO.N,/V_BAT+_F*%
%TA.AperFunction,SMDPad,CuDef*%
G36*
G01*
X109725750Y-69006000D02*
X110238250Y-69006000D01*
G75*
G02*
X110457000Y-69224750I0J-218750D01*
G01*
X110457000Y-69662250D01*
G75*
G02*
X110238250Y-69881000I-218750J0D01*
G01*
X109725750Y-69881000D01*
G75*
G02*
X109507000Y-69662250I0J218750D01*
G01*
X109507000Y-69224750D01*
G75*
G02*
X109725750Y-69006000I218750J0D01*
G01*
G37*
%TD.AperFunction*%
%TD*%
%TO.P,D2,2*%
%TO.N,V_chg*%
%TA.AperFunction,SMDPad,CuDef*%
G36*
G01*
X126715000Y-60581250D02*
X126715000Y-60068750D01*
G75*
G02*
X126933750Y-59850000I218750J0D01*
G01*
X127371250Y-59850000D01*
G75*
G02*
X127590000Y-60068750I0J-218750D01*
G01*
X127590000Y-60581250D01*
G75*
G02*
X127371250Y-60800000I-218750J0D01*
G01*
X126933750Y-60800000D01*
G75*
G02*
X126715000Y-60581250I0J218750D01*
G01*
G37*
%TD.AperFunction*%
%TO.P,D2,1*%
%TO.N,Net-(D2-Pad1)*%
%TA.AperFunction,SMDPad,CuDef*%
G36*
G01*
X125140000Y-60581250D02*
X125140000Y-60068750D01*
G75*
G02*
X125358750Y-59850000I218750J0D01*
G01*
X125796250Y-59850000D01*
G75*
G02*
X126015000Y-60068750I0J-218750D01*
G01*
X126015000Y-60581250D01*
G75*
G02*
X125796250Y-60800000I-218750J0D01*
G01*
X125358750Y-60800000D01*
G75*
G02*
X125140000Y-60581250I0J218750D01*
G01*
G37*
%TD.AperFunction*%
%TD*%
%TO.P,D3,2*%
%TO.N,V_chg*%
%TA.AperFunction,SMDPad,CuDef*%
G36*
G01*
X126715000Y-62486250D02*
X126715000Y-61973750D01*
G75*
G02*
X126933750Y-61755000I218750J0D01*
G01*
X127371250Y-61755000D01*
G75*
G02*
X127590000Y-61973750I0J-218750D01*
G01*
X127590000Y-62486250D01*
G75*
G02*
X127371250Y-62705000I-218750J0D01*
G01*
X126933750Y-62705000D01*
G75*
G02*
X126715000Y-62486250I0J218750D01*
G01*
G37*
%TD.AperFunction*%
%TO.P,D3,1*%
%TO.N,Net-(D3-Pad1)*%
%TA.AperFunction,SMDPad,CuDef*%
G36*
G01*
X125140000Y-62486250D02*
X125140000Y-61973750D01*
G75*
G02*
X125358750Y-61755000I218750J0D01*
G01*
X125796250Y-61755000D01*
G75*
G02*
X126015000Y-61973750I0J-218750D01*
G01*
X126015000Y-62486250D01*
G75*
G02*
X125796250Y-62705000I-218750J0D01*
G01*
X125358750Y-62705000D01*
G75*
G02*
X125140000Y-62486250I0J218750D01*
G01*
G37*
%TD.AperFunction*%
%TD*%
%TO.P,D6,2*%
%TO.N,5V*%
%TA.AperFunction,SMDPad,CuDef*%
G36*
G01*
X126802500Y-93723750D02*
X126802500Y-94236250D01*
G75*
G02*
X126583750Y-94455000I-218750J0D01*
G01*
X126146250Y-94455000D01*
G75*
G02*
X125927500Y-94236250I0J218750D01*
G01*
X125927500Y-93723750D01*
G75*
G02*
X126146250Y-93505000I218750J0D01*
G01*
X126583750Y-93505000D01*
G75*
G02*
X126802500Y-93723750I0J-218750D01*
G01*
G37*
%TD.AperFunction*%
%TO.P,D6,1*%
%TO.N,Net-(D6-Pad1)*%
%TA.AperFunction,SMDPad,CuDef*%
G36*
G01*
X128377500Y-93723750D02*
X128377500Y-94236250D01*
G75*
G02*
X128158750Y-94455000I-218750J0D01*
G01*
X127721250Y-94455000D01*
G75*
G02*
X127502500Y-94236250I0J218750D01*
G01*
X127502500Y-93723750D01*
G75*
G02*
X127721250Y-93505000I218750J0D01*
G01*
X128158750Y-93505000D01*
G75*
G02*
X128377500Y-93723750I0J-218750D01*
G01*
G37*
%TD.AperFunction*%
%TD*%
D14*
%TO.P,IC1,1*%
%TO.N,GND*%
X117475000Y-62230000D03*
D15*
X118110000Y-63373000D03*
X118110000Y-62230000D03*
X116840000Y-62230000D03*
X116840000Y-63373000D03*
X116840000Y-61087000D03*
X118110000Y-61087000D03*
D14*
X117475000Y-62230000D03*
D16*
%TO.P,IC1,4*%
%TO.N,V_chg*%
X114725000Y-64135000D03*
%TO.P,IC1,3*%
%TO.N,GND*%
X114725000Y-62865000D03*
%TO.P,IC1,1*%
X114725000Y-60325000D03*
%TO.P,IC1,2*%
%TO.N,Net-(IC1-Pad2)*%
X114725000Y-61595000D03*
%TO.P,IC1,5*%
%TO.N,V_BAT+*%
X120225000Y-64135000D03*
%TO.P,IC1,6*%
%TO.N,Net-(IC1-Pad6)*%
X120225000Y-62865000D03*
%TO.P,IC1,8*%
%TO.N,V_chg*%
X120225000Y-60325000D03*
%TO.P,IC1,7*%
%TO.N,Net-(IC1-Pad7)*%
X120225000Y-61595000D03*
%TD*%
D17*
%TO.P,IC2,5*%
%TO.N,/V_BAT+_F*%
X112238000Y-69850000D03*
%TO.P,IC2,6*%
%TO.N,V_BAT-*%
X112238000Y-70800000D03*
%TO.P,IC2,4*%
%TO.N,Net-(IC2-Pad4)*%
X112238000Y-68900000D03*
%TO.P,IC2,3*%
%TO.N,Net-(IC2-Pad3)*%
X114838000Y-68900000D03*
%TO.P,IC2,2*%
%TO.N,Net-(IC2-Pad2)*%
X114838000Y-69850000D03*
%TO.P,IC2,1*%
%TO.N,Net-(IC2-Pad1)*%
X114838000Y-70800000D03*
%TD*%
D11*
%TO.P,J1,1*%
%TO.N,V_ext*%
X102870000Y-66040000D03*
D12*
X101600000Y-66040000D03*
D13*
X104140000Y-66040000D03*
%TD*%
D11*
%TO.P,J2,1*%
%TO.N,GND*%
X102870000Y-68580000D03*
D12*
X101600000Y-68580000D03*
D13*
X104140000Y-68580000D03*
%TD*%
D11*
%TO.P,J3,1*%
%TO.N,5V*%
X102870000Y-93980000D03*
D12*
X101600000Y-93980000D03*
D13*
X104140000Y-93980000D03*
%TD*%
D11*
%TO.P,J4,1*%
%TO.N,GND*%
X102870000Y-91440000D03*
D12*
X101600000Y-91440000D03*
D13*
X104140000Y-91440000D03*
%TD*%
D11*
%TO.P,J5,1*%
%TO.N,V_uC*%
X102870000Y-88900000D03*
D12*
X101600000Y-88900000D03*
D13*
X104140000Y-88900000D03*
%TD*%
D11*
%TO.P,J6,1*%
%TO.N,V_2_uC*%
X102870000Y-86360000D03*
D12*
X101600000Y-86360000D03*
D13*
X104140000Y-86360000D03*
%TD*%
D11*
%TO.P,J7,1*%
%TO.N,uC_2_V*%
X102870000Y-83820000D03*
D12*
X101600000Y-83820000D03*
D13*
X104140000Y-83820000D03*
%TD*%
D11*
%TO.P,J9,1*%
%TO.N,V_BAT+*%
X102870000Y-71120000D03*
D12*
X101600000Y-71120000D03*
D13*
X104140000Y-71120000D03*
%TD*%
D11*
%TO.P,J10,1*%
%TO.N,V_BAT-*%
X102870000Y-73660000D03*
D12*
X101600000Y-73660000D03*
D13*
X104140000Y-73660000D03*
%TD*%
D11*
%TO.P,J12,1*%
%TO.N,SWITCH_IN*%
X102870000Y-76200000D03*
D12*
X101600000Y-76200000D03*
D13*
X104140000Y-76200000D03*
%TD*%
D18*
%TO.P,L1,2*%
%TO.N,V_OUT*%
X121285000Y-79670000D03*
%TO.P,L1,1*%
%TO.N,/LX*%
X121285000Y-87970000D03*
%TD*%
D19*
%TO.P,Q2,3*%
%TO.N,V_2_uC*%
X108855000Y-86995000D03*
%TO.P,Q2,2*%
%TO.N,GND*%
X110855000Y-86045000D03*
%TO.P,Q2,1*%
%TO.N,Net-(Q2-Pad1)*%
X110855000Y-87945000D03*
%TD*%
%TO.P,Q3,8*%
%TO.N,V_BAT+*%
%TA.AperFunction,SMDPad,CuDef*%
G36*
G01*
X121055000Y-71605000D02*
X121055000Y-71905000D01*
G75*
G02*
X120905000Y-72055000I-150000J0D01*
G01*
X119255000Y-72055000D01*
G75*
G02*
X119105000Y-71905000I0J150000D01*
G01*
X119105000Y-71605000D01*
G75*
G02*
X119255000Y-71455000I150000J0D01*
G01*
X120905000Y-71455000D01*
G75*
G02*
X121055000Y-71605000I0J-150000D01*
G01*
G37*
%TD.AperFunction*%
%TO.P,Q3,7*%
%TA.AperFunction,SMDPad,CuDef*%
G36*
G01*
X121055000Y-70335000D02*
X121055000Y-70635000D01*
G75*
G02*
X120905000Y-70785000I-150000J0D01*
G01*
X119255000Y-70785000D01*
G75*
G02*
X119105000Y-70635000I0J150000D01*
G01*
X119105000Y-70335000D01*
G75*
G02*
X119255000Y-70185000I150000J0D01*
G01*
X120905000Y-70185000D01*
G75*
G02*
X121055000Y-70335000I0J-150000D01*
G01*
G37*
%TD.AperFunction*%
%TO.P,Q3,6*%
%TA.AperFunction,SMDPad,CuDef*%
G36*
G01*
X121055000Y-69065000D02*
X121055000Y-69365000D01*
G75*
G02*
X120905000Y-69515000I-150000J0D01*
G01*
X119255000Y-69515000D01*
G75*
G02*
X119105000Y-69365000I0J150000D01*
G01*
X119105000Y-69065000D01*
G75*
G02*
X119255000Y-68915000I150000J0D01*
G01*
X120905000Y-68915000D01*
G75*
G02*
X121055000Y-69065000I0J-150000D01*
G01*
G37*
%TD.AperFunction*%
%TO.P,Q3,5*%
%TA.AperFunction,SMDPad,CuDef*%
G36*
G01*
X121055000Y-67795000D02*
X121055000Y-68095000D01*
G75*
G02*
X120905000Y-68245000I-150000J0D01*
G01*
X119255000Y-68245000D01*
G75*
G02*
X119105000Y-68095000I0J150000D01*
G01*
X119105000Y-67795000D01*
G75*
G02*
X119255000Y-67645000I150000J0D01*
G01*
X120905000Y-67645000D01*
G75*
G02*
X121055000Y-67795000I0J-150000D01*
G01*
G37*
%TD.AperFunction*%
%TO.P,Q3,4*%
%TO.N,Net-(Q3-Pad4)*%
%TA.AperFunction,SMDPad,CuDef*%
G36*
G01*
X126005000Y-67795000D02*
X126005000Y-68095000D01*
G75*
G02*
X125855000Y-68245000I-150000J0D01*
G01*
X124205000Y-68245000D01*
G75*
G02*
X124055000Y-68095000I0J150000D01*
G01*
X124055000Y-67795000D01*
G75*
G02*
X124205000Y-67645000I150000J0D01*
G01*
X125855000Y-67645000D01*
G75*
G02*
X126005000Y-67795000I0J-150000D01*
G01*
G37*
%TD.AperFunction*%
%TO.P,Q3,3*%
%TO.N,SWITCH_IN*%
%TA.AperFunction,SMDPad,CuDef*%
G36*
G01*
X126005000Y-69065000D02*
X126005000Y-69365000D01*
G75*
G02*
X125855000Y-69515000I-150000J0D01*
G01*
X124205000Y-69515000D01*
G75*
G02*
X124055000Y-69365000I0J150000D01*
G01*
X124055000Y-69065000D01*
G75*
G02*
X124205000Y-68915000I150000J0D01*
G01*
X125855000Y-68915000D01*
G75*
G02*
X126005000Y-69065000I0J-150000D01*
G01*
G37*
%TD.AperFunction*%
%TO.P,Q3,2*%
%TA.AperFunction,SMDPad,CuDef*%
G36*
G01*
X126005000Y-70335000D02*
X126005000Y-70635000D01*
G75*
G02*
X125855000Y-70785000I-150000J0D01*
G01*
X124205000Y-70785000D01*
G75*
G02*
X124055000Y-70635000I0J150000D01*
G01*
X124055000Y-70335000D01*
G75*
G02*
X124205000Y-70185000I150000J0D01*
G01*
X125855000Y-70185000D01*
G75*
G02*
X126005000Y-70335000I0J-150000D01*
G01*
G37*
%TD.AperFunction*%
%TO.P,Q3,1*%
%TA.AperFunction,SMDPad,CuDef*%
G36*
G01*
X126005000Y-71605000D02*
X126005000Y-71905000D01*
G75*
G02*
X125855000Y-72055000I-150000J0D01*
G01*
X124205000Y-72055000D01*
G75*
G02*
X124055000Y-71905000I0J150000D01*
G01*
X124055000Y-71605000D01*
G75*
G02*
X124205000Y-71455000I150000J0D01*
G01*
X125855000Y-71455000D01*
G75*
G02*
X126005000Y-71605000I0J-150000D01*
G01*
G37*
%TD.AperFunction*%
%TD*%
D20*
%TO.P,Q4,8*%
%TO.N,Net-(Q4-Pad1)*%
X113370000Y-72685000D03*
%TO.P,Q4,7*%
%TO.N,GND*%
X113370000Y-73335000D03*
%TO.P,Q4,6*%
X113370000Y-73985000D03*
%TO.P,Q4,5*%
%TO.N,Net-(IC2-Pad3)*%
X113370000Y-74635000D03*
%TO.P,Q4,4*%
%TO.N,Net-(IC2-Pad1)*%
X107610000Y-74635000D03*
%TO.P,Q4,3*%
%TO.N,V_BAT-*%
X107610000Y-73985000D03*
%TO.P,Q4,2*%
X107610000Y-73335000D03*
%TO.P,Q4,1*%
%TO.N,Net-(Q4-Pad1)*%
X107610000Y-72685000D03*
%TD*%
%TO.P,R1,2*%
%TO.N,V_2_uC*%
%TA.AperFunction,SMDPad,CuDef*%
G36*
G01*
X107571250Y-87280000D02*
X107058750Y-87280000D01*
G75*
G02*
X106840000Y-87061250I0J218750D01*
G01*
X106840000Y-86623750D01*
G75*
G02*
X107058750Y-86405000I218750J0D01*
G01*
X107571250Y-86405000D01*
G75*
G02*
X107790000Y-86623750I0J-218750D01*
G01*
X107790000Y-87061250D01*
G75*
G02*
X107571250Y-87280000I-218750J0D01*
G01*
G37*
%TD.AperFunction*%
%TO.P,R1,1*%
%TO.N,V_uC*%
%TA.AperFunction,SMDPad,CuDef*%
G36*
G01*
X107571250Y-88855000D02*
X107058750Y-88855000D01*
G75*
G02*
X106840000Y-88636250I0J218750D01*
G01*
X106840000Y-88198750D01*
G75*
G02*
X107058750Y-87980000I218750J0D01*
G01*
X107571250Y-87980000D01*
G75*
G02*
X107790000Y-88198750I0J-218750D01*
G01*
X107790000Y-88636250D01*
G75*
G02*
X107571250Y-88855000I-218750J0D01*
G01*
G37*
%TD.AperFunction*%
%TD*%
%TO.P,R2,2*%
%TO.N,SWITCH_OUT*%
%TA.AperFunction,SMDPad,CuDef*%
G36*
G01*
X113532500Y-88521250D02*
X113532500Y-88008750D01*
G75*
G02*
X113751250Y-87790000I218750J0D01*
G01*
X114188750Y-87790000D01*
G75*
G02*
X114407500Y-88008750I0J-218750D01*
G01*
X114407500Y-88521250D01*
G75*
G02*
X114188750Y-88740000I-218750J0D01*
G01*
X113751250Y-88740000D01*
G75*
G02*
X113532500Y-88521250I0J218750D01*
G01*
G37*
%TD.AperFunction*%
%TO.P,R2,1*%
%TO.N,Net-(Q2-Pad1)*%
%TA.AperFunction,SMDPad,CuDef*%
G36*
G01*
X111957500Y-88521250D02*
X111957500Y-88008750D01*
G75*
G02*
X112176250Y-87790000I218750J0D01*
G01*
X112613750Y-87790000D01*
G75*
G02*
X112832500Y-88008750I0J-218750D01*
G01*
X112832500Y-88521250D01*
G75*
G02*
X112613750Y-88740000I-218750J0D01*
G01*
X112176250Y-88740000D01*
G75*
G02*
X111957500Y-88521250I0J218750D01*
G01*
G37*
%TD.AperFunction*%
%TD*%
%TO.P,R3,2*%
%TO.N,uC_2_V*%
%TA.AperFunction,SMDPad,CuDef*%
G36*
G01*
X107693750Y-82900000D02*
X108206250Y-82900000D01*
G75*
G02*
X108425000Y-83118750I0J-218750D01*
G01*
X108425000Y-83556250D01*
G75*
G02*
X108206250Y-83775000I-218750J0D01*
G01*
X107693750Y-83775000D01*
G75*
G02*
X107475000Y-83556250I0J218750D01*
G01*
X107475000Y-83118750D01*
G75*
G02*
X107693750Y-82900000I218750J0D01*
G01*
G37*
%TD.AperFunction*%
%TO.P,R3,1*%
%TO.N,SWITCH_IN*%
%TA.AperFunction,SMDPad,CuDef*%
G36*
G01*
X107693750Y-81325000D02*
X108206250Y-81325000D01*
G75*
G02*
X108425000Y-81543750I0J-218750D01*
G01*
X108425000Y-81981250D01*
G75*
G02*
X108206250Y-82200000I-218750J0D01*
G01*
X107693750Y-82200000D01*
G75*
G02*
X107475000Y-81981250I0J218750D01*
G01*
X107475000Y-81543750D01*
G75*
G02*
X107693750Y-81325000I218750J0D01*
G01*
G37*
%TD.AperFunction*%
%TD*%
%TO.P,R4,2*%
%TO.N,Net-(Q1-Pad4)*%
%TA.AperFunction,SMDPad,CuDef*%
G36*
G01*
X111475000Y-84076250D02*
X111475000Y-83563750D01*
G75*
G02*
X111693750Y-83345000I218750J0D01*
G01*
X112131250Y-83345000D01*
G75*
G02*
X112350000Y-83563750I0J-218750D01*
G01*
X112350000Y-84076250D01*
G75*
G02*
X112131250Y-84295000I-218750J0D01*
G01*
X111693750Y-84295000D01*
G75*
G02*
X111475000Y-84076250I0J218750D01*
G01*
G37*
%TD.AperFunction*%
%TO.P,R4,1*%
%TO.N,uC_2_V*%
%TA.AperFunction,SMDPad,CuDef*%
G36*
G01*
X109900000Y-84076250D02*
X109900000Y-83563750D01*
G75*
G02*
X110118750Y-83345000I218750J0D01*
G01*
X110556250Y-83345000D01*
G75*
G02*
X110775000Y-83563750I0J-218750D01*
G01*
X110775000Y-84076250D01*
G75*
G02*
X110556250Y-84295000I-218750J0D01*
G01*
X110118750Y-84295000D01*
G75*
G02*
X109900000Y-84076250I0J218750D01*
G01*
G37*
%TD.AperFunction*%
%TD*%
%TO.P,R5,2*%
%TO.N,GND*%
%TA.AperFunction,SMDPad,CuDef*%
G36*
G01*
X112832500Y-86103750D02*
X112832500Y-86616250D01*
G75*
G02*
X112613750Y-86835000I-218750J0D01*
G01*
X112176250Y-86835000D01*
G75*
G02*
X111957500Y-86616250I0J218750D01*
G01*
X111957500Y-86103750D01*
G75*
G02*
X112176250Y-85885000I218750J0D01*
G01*
X112613750Y-85885000D01*
G75*
G02*
X112832500Y-86103750I0J-218750D01*
G01*
G37*
%TD.AperFunction*%
%TO.P,R5,1*%
%TO.N,SWITCH_OUT*%
%TA.AperFunction,SMDPad,CuDef*%
G36*
G01*
X114407500Y-86103750D02*
X114407500Y-86616250D01*
G75*
G02*
X114188750Y-86835000I-218750J0D01*
G01*
X113751250Y-86835000D01*
G75*
G02*
X113532500Y-86616250I0J218750D01*
G01*
X113532500Y-86103750D01*
G75*
G02*
X113751250Y-85885000I218750J0D01*
G01*
X114188750Y-85885000D01*
G75*
G02*
X114407500Y-86103750I0J-218750D01*
G01*
G37*
%TD.AperFunction*%
%TD*%
%TO.P,R6,2*%
%TO.N,Net-(IC1-Pad7)*%
%TA.AperFunction,SMDPad,CuDef*%
G36*
G01*
X122840000Y-60068750D02*
X122840000Y-60581250D01*
G75*
G02*
X122621250Y-60800000I-218750J0D01*
G01*
X122183750Y-60800000D01*
G75*
G02*
X121965000Y-60581250I0J218750D01*
G01*
X121965000Y-60068750D01*
G75*
G02*
X122183750Y-59850000I218750J0D01*
G01*
X122621250Y-59850000D01*
G75*
G02*
X122840000Y-60068750I0J-218750D01*
G01*
G37*
%TD.AperFunction*%
%TO.P,R6,1*%
%TO.N,Net-(D2-Pad1)*%
%TA.AperFunction,SMDPad,CuDef*%
G36*
G01*
X124415000Y-60068750D02*
X124415000Y-60581250D01*
G75*
G02*
X124196250Y-60800000I-218750J0D01*
G01*
X123758750Y-60800000D01*
G75*
G02*
X123540000Y-60581250I0J218750D01*
G01*
X123540000Y-60068750D01*
G75*
G02*
X123758750Y-59850000I218750J0D01*
G01*
X124196250Y-59850000D01*
G75*
G02*
X124415000Y-60068750I0J-218750D01*
G01*
G37*
%TD.AperFunction*%
%TD*%
%TO.P,R7,2*%
%TO.N,GND*%
%TA.AperFunction,SMDPad,CuDef*%
G36*
G01*
X112651250Y-59340000D02*
X112138750Y-59340000D01*
G75*
G02*
X111920000Y-59121250I0J218750D01*
G01*
X111920000Y-58683750D01*
G75*
G02*
X112138750Y-58465000I218750J0D01*
G01*
X112651250Y-58465000D01*
G75*
G02*
X112870000Y-58683750I0J-218750D01*
G01*
X112870000Y-59121250D01*
G75*
G02*
X112651250Y-59340000I-218750J0D01*
G01*
G37*
%TD.AperFunction*%
%TO.P,R7,1*%
%TO.N,Net-(IC1-Pad2)*%
%TA.AperFunction,SMDPad,CuDef*%
G36*
G01*
X112651250Y-60915000D02*
X112138750Y-60915000D01*
G75*
G02*
X111920000Y-60696250I0J218750D01*
G01*
X111920000Y-60258750D01*
G75*
G02*
X112138750Y-60040000I218750J0D01*
G01*
X112651250Y-60040000D01*
G75*
G02*
X112870000Y-60258750I0J-218750D01*
G01*
X112870000Y-60696250D01*
G75*
G02*
X112651250Y-60915000I-218750J0D01*
G01*
G37*
%TD.AperFunction*%
%TD*%
%TO.P,R8,2*%
%TO.N,Net-(IC1-Pad6)*%
%TA.AperFunction,SMDPad,CuDef*%
G36*
G01*
X122840000Y-61973750D02*
X122840000Y-62486250D01*
G75*
G02*
X122621250Y-62705000I-218750J0D01*
G01*
X122183750Y-62705000D01*
G75*
G02*
X121965000Y-62486250I0J218750D01*
G01*
X121965000Y-61973750D01*
G75*
G02*
X122183750Y-61755000I218750J0D01*
G01*
X122621250Y-61755000D01*
G75*
G02*
X122840000Y-61973750I0J-218750D01*
G01*
G37*
%TD.AperFunction*%
%TO.P,R8,1*%
%TO.N,Net-(D3-Pad1)*%
%TA.AperFunction,SMDPad,CuDef*%
G36*
G01*
X124415000Y-61973750D02*
X124415000Y-62486250D01*
G75*
G02*
X124196250Y-62705000I-218750J0D01*
G01*
X123758750Y-62705000D01*
G75*
G02*
X123540000Y-62486250I0J218750D01*
G01*
X123540000Y-61973750D01*
G75*
G02*
X123758750Y-61755000I218750J0D01*
G01*
X124196250Y-61755000D01*
G75*
G02*
X124415000Y-61973750I0J-218750D01*
G01*
G37*
%TD.AperFunction*%
%TD*%
%TO.P,R9,2*%
%TO.N,V_ext_p*%
%TA.AperFunction,SMDPad,CuDef*%
G36*
G01*
X108870000Y-58798750D02*
X108870000Y-59311250D01*
G75*
G02*
X108651250Y-59530000I-218750J0D01*
G01*
X108213750Y-59530000D01*
G75*
G02*
X107995000Y-59311250I0J218750D01*
G01*
X107995000Y-58798750D01*
G75*
G02*
X108213750Y-58580000I218750J0D01*
G01*
X108651250Y-58580000D01*
G75*
G02*
X108870000Y-58798750I0J-218750D01*
G01*
G37*
%TD.AperFunction*%
%TO.P,R9,1*%
%TO.N,V_chg*%
%TA.AperFunction,SMDPad,CuDef*%
G36*
G01*
X110445000Y-58798750D02*
X110445000Y-59311250D01*
G75*
G02*
X110226250Y-59530000I-218750J0D01*
G01*
X109788750Y-59530000D01*
G75*
G02*
X109570000Y-59311250I0J218750D01*
G01*
X109570000Y-58798750D01*
G75*
G02*
X109788750Y-58580000I218750J0D01*
G01*
X110226250Y-58580000D01*
G75*
G02*
X110445000Y-58798750I0J-218750D01*
G01*
G37*
%TD.AperFunction*%
%TD*%
%TO.P,R10,2*%
%TO.N,V_ext_p*%
%TA.AperFunction,SMDPad,CuDef*%
G36*
G01*
X108870000Y-60703750D02*
X108870000Y-61216250D01*
G75*
G02*
X108651250Y-61435000I-218750J0D01*
G01*
X108213750Y-61435000D01*
G75*
G02*
X107995000Y-61216250I0J218750D01*
G01*
X107995000Y-60703750D01*
G75*
G02*
X108213750Y-60485000I218750J0D01*
G01*
X108651250Y-60485000D01*
G75*
G02*
X108870000Y-60703750I0J-218750D01*
G01*
G37*
%TD.AperFunction*%
%TO.P,R10,1*%
%TO.N,V_chg*%
%TA.AperFunction,SMDPad,CuDef*%
G36*
G01*
X110445000Y-60703750D02*
X110445000Y-61216250D01*
G75*
G02*
X110226250Y-61435000I-218750J0D01*
G01*
X109788750Y-61435000D01*
G75*
G02*
X109570000Y-61216250I0J218750D01*
G01*
X109570000Y-60703750D01*
G75*
G02*
X109788750Y-60485000I218750J0D01*
G01*
X110226250Y-60485000D01*
G75*
G02*
X110445000Y-60703750I0J-218750D01*
G01*
G37*
%TD.AperFunction*%
%TD*%
%TO.P,R11,2*%
%TO.N,Net-(Q3-Pad4)*%
%TA.AperFunction,SMDPad,CuDef*%
G36*
G01*
X124745000Y-65783750D02*
X124745000Y-66296250D01*
G75*
G02*
X124526250Y-66515000I-218750J0D01*
G01*
X124088750Y-66515000D01*
G75*
G02*
X123870000Y-66296250I0J218750D01*
G01*
X123870000Y-65783750D01*
G75*
G02*
X124088750Y-65565000I218750J0D01*
G01*
X124526250Y-65565000D01*
G75*
G02*
X124745000Y-65783750I0J-218750D01*
G01*
G37*
%TD.AperFunction*%
%TO.P,R11,1*%
%TO.N,V_ext_p*%
%TA.AperFunction,SMDPad,CuDef*%
G36*
G01*
X126320000Y-65783750D02*
X126320000Y-66296250D01*
G75*
G02*
X126101250Y-66515000I-218750J0D01*
G01*
X125663750Y-66515000D01*
G75*
G02*
X125445000Y-66296250I0J218750D01*
G01*
X125445000Y-65783750D01*
G75*
G02*
X125663750Y-65565000I218750J0D01*
G01*
X126101250Y-65565000D01*
G75*
G02*
X126320000Y-65783750I0J-218750D01*
G01*
G37*
%TD.AperFunction*%
%TD*%
%TO.P,R12,2*%
%TO.N,V_ext_p*%
%TA.AperFunction,SMDPad,CuDef*%
G36*
G01*
X108870000Y-62608750D02*
X108870000Y-63121250D01*
G75*
G02*
X108651250Y-63340000I-218750J0D01*
G01*
X108213750Y-63340000D01*
G75*
G02*
X107995000Y-63121250I0J218750D01*
G01*
X107995000Y-62608750D01*
G75*
G02*
X108213750Y-62390000I218750J0D01*
G01*
X108651250Y-62390000D01*
G75*
G02*
X108870000Y-62608750I0J-218750D01*
G01*
G37*
%TD.AperFunction*%
%TO.P,R12,1*%
%TO.N,V_chg*%
%TA.AperFunction,SMDPad,CuDef*%
G36*
G01*
X110445000Y-62608750D02*
X110445000Y-63121250D01*
G75*
G02*
X110226250Y-63340000I-218750J0D01*
G01*
X109788750Y-63340000D01*
G75*
G02*
X109570000Y-63121250I0J218750D01*
G01*
X109570000Y-62608750D01*
G75*
G02*
X109788750Y-62390000I218750J0D01*
G01*
X110226250Y-62390000D01*
G75*
G02*
X110445000Y-62608750I0J-218750D01*
G01*
G37*
%TD.AperFunction*%
%TD*%
%TO.P,R13,2*%
%TO.N,GND*%
%TA.AperFunction,SMDPad,CuDef*%
G36*
G01*
X124745000Y-63878750D02*
X124745000Y-64391250D01*
G75*
G02*
X124526250Y-64610000I-218750J0D01*
G01*
X124088750Y-64610000D01*
G75*
G02*
X123870000Y-64391250I0J218750D01*
G01*
X123870000Y-63878750D01*
G75*
G02*
X124088750Y-63660000I218750J0D01*
G01*
X124526250Y-63660000D01*
G75*
G02*
X124745000Y-63878750I0J-218750D01*
G01*
G37*
%TD.AperFunction*%
%TO.P,R13,1*%
%TO.N,V_ext_p*%
%TA.AperFunction,SMDPad,CuDef*%
G36*
G01*
X126320000Y-63878750D02*
X126320000Y-64391250D01*
G75*
G02*
X126101250Y-64610000I-218750J0D01*
G01*
X125663750Y-64610000D01*
G75*
G02*
X125445000Y-64391250I0J218750D01*
G01*
X125445000Y-63878750D01*
G75*
G02*
X125663750Y-63660000I218750J0D01*
G01*
X126101250Y-63660000D01*
G75*
G02*
X126320000Y-63878750I0J-218750D01*
G01*
G37*
%TD.AperFunction*%
%TD*%
%TO.P,R14,2*%
%TO.N,V_ext_p*%
%TA.AperFunction,SMDPad,CuDef*%
G36*
G01*
X108870000Y-64513750D02*
X108870000Y-65026250D01*
G75*
G02*
X108651250Y-65245000I-218750J0D01*
G01*
X108213750Y-65245000D01*
G75*
G02*
X107995000Y-65026250I0J218750D01*
G01*
X107995000Y-64513750D01*
G75*
G02*
X108213750Y-64295000I218750J0D01*
G01*
X108651250Y-64295000D01*
G75*
G02*
X108870000Y-64513750I0J-218750D01*
G01*
G37*
%TD.AperFunction*%
%TO.P,R14,1*%
%TO.N,V_chg*%
%TA.AperFunction,SMDPad,CuDef*%
G36*
G01*
X110445000Y-64513750D02*
X110445000Y-65026250D01*
G75*
G02*
X110226250Y-65245000I-218750J0D01*
G01*
X109788750Y-65245000D01*
G75*
G02*
X109570000Y-65026250I0J218750D01*
G01*
X109570000Y-64513750D01*
G75*
G02*
X109788750Y-64295000I218750J0D01*
G01*
X110226250Y-64295000D01*
G75*
G02*
X110445000Y-64513750I0J-218750D01*
G01*
G37*
%TD.AperFunction*%
%TD*%
%TO.P,R15,2*%
%TO.N,GND*%
%TA.AperFunction,SMDPad,CuDef*%
G36*
G01*
X131160000Y-94236250D02*
X131160000Y-93723750D01*
G75*
G02*
X131378750Y-93505000I218750J0D01*
G01*
X131816250Y-93505000D01*
G75*
G02*
X132035000Y-93723750I0J-218750D01*
G01*
X132035000Y-94236250D01*
G75*
G02*
X131816250Y-94455000I-218750J0D01*
G01*
X131378750Y-94455000D01*
G75*
G02*
X131160000Y-94236250I0J218750D01*
G01*
G37*
%TD.AperFunction*%
%TO.P,R15,1*%
%TO.N,Net-(D6-Pad1)*%
%TA.AperFunction,SMDPad,CuDef*%
G36*
G01*
X129585000Y-94236250D02*
X129585000Y-93723750D01*
G75*
G02*
X129803750Y-93505000I218750J0D01*
G01*
X130241250Y-93505000D01*
G75*
G02*
X130460000Y-93723750I0J-218750D01*
G01*
X130460000Y-94236250D01*
G75*
G02*
X130241250Y-94455000I-218750J0D01*
G01*
X129803750Y-94455000D01*
G75*
G02*
X129585000Y-94236250I0J218750D01*
G01*
G37*
%TD.AperFunction*%
%TD*%
%TO.P,R16,2*%
%TO.N,V_BAT+*%
%TA.AperFunction,SMDPad,CuDef*%
G36*
G01*
X108587250Y-69881000D02*
X108074750Y-69881000D01*
G75*
G02*
X107856000Y-69662250I0J218750D01*
G01*
X107856000Y-69224750D01*
G75*
G02*
X108074750Y-69006000I218750J0D01*
G01*
X108587250Y-69006000D01*
G75*
G02*
X108806000Y-69224750I0J-218750D01*
G01*
X108806000Y-69662250D01*
G75*
G02*
X108587250Y-69881000I-218750J0D01*
G01*
G37*
%TD.AperFunction*%
%TO.P,R16,1*%
%TO.N,/V_BAT+_F*%
%TA.AperFunction,SMDPad,CuDef*%
G36*
G01*
X108587250Y-71456000D02*
X108074750Y-71456000D01*
G75*
G02*
X107856000Y-71237250I0J218750D01*
G01*
X107856000Y-70799750D01*
G75*
G02*
X108074750Y-70581000I218750J0D01*
G01*
X108587250Y-70581000D01*
G75*
G02*
X108806000Y-70799750I0J-218750D01*
G01*
X108806000Y-71237250D01*
G75*
G02*
X108587250Y-71456000I-218750J0D01*
G01*
G37*
%TD.AperFunction*%
%TD*%
D21*
%TO.P,U1,3*%
%TO.N,5V*%
X111530000Y-93980000D03*
%TO.P,U1,2*%
%TO.N,/LX*%
X114530000Y-93030000D03*
%TO.P,U1,1*%
%TO.N,GND*%
X114530000Y-94930000D03*
%TD*%
D22*
%TO.P,D1,2*%
%TO.N,SWITCH_OUT*%
X107690000Y-78740000D03*
%TO.P,D1,1*%
%TO.N,V_OUT*%
X110490000Y-78740000D03*
%TD*%
%TO.P,D4,1*%
%TO.N,SWITCH_IN*%
X129540000Y-65532000D03*
%TO.P,D4,2*%
%TO.N,V_ext_p*%
X129540000Y-62732000D03*
%TD*%
%TO.P,D5,1*%
%TO.N,5V*%
X111630000Y-90805000D03*
%TO.P,D5,2*%
%TO.N,/LX*%
X114430000Y-90805000D03*
%TD*%
%TO.P,D7,2*%
%TO.N,V_ext*%
X103629000Y-60452000D03*
%TO.P,D7,1*%
%TO.N,V_ext_p*%
X106429000Y-60452000D03*
%TD*%
%TO.P,D8,1*%
%TO.N,V_ext_p*%
X106429000Y-62992000D03*
%TO.P,D8,2*%
%TO.N,V_ext*%
X103629000Y-62992000D03*
%TD*%
D23*
%TO.N,GND*%
X112522000Y-61722000D03*
X114046000Y-58928000D03*
X123063000Y-64135000D03*
X116840000Y-95250000D03*
X133350000Y-93980000D03*
X108585000Y-85090000D03*
X129540000Y-91440000D03*
X132080000Y-91440000D03*
X132080000Y-88900000D03*
X129540000Y-88900000D03*
X129540000Y-86360000D03*
X132080000Y-86360000D03*
X127000000Y-86360000D03*
X127000000Y-88900000D03*
X127000000Y-91440000D03*
X124460000Y-91440000D03*
X132080000Y-83820000D03*
X132080000Y-66040000D03*
X132080000Y-63500000D03*
X132080000Y-60960000D03*
X132080000Y-58420000D03*
X132080000Y-55880000D03*
X101600000Y-55880000D03*
X104140000Y-55880000D03*
X104140000Y-58420000D03*
X101600000Y-58420000D03*
X115062000Y-73025000D03*
X111760000Y-73025000D03*
X115062000Y-74168000D03*
X111760000Y-74168000D03*
%TO.N,5V*%
X109220000Y-95250000D03*
X125095000Y-93980000D03*
%TO.N,V_BAT-*%
X109093000Y-73152000D03*
X109093000Y-74295000D03*
%TO.N,SWITCH_OUT*%
X115570000Y-86995000D03*
%TO.N,SWITCH_IN*%
X109855000Y-81280000D03*
X109855000Y-76200000D03*
%TO.N,Net-(Q1-Pad4)*%
X126365000Y-74930000D03*
X115570000Y-81280000D03*
%TD*%
D24*
%TO.N,GND*%
X102870000Y-68580000D02*
X101600000Y-68580000D01*
X104140000Y-68580000D02*
X102870000Y-68580000D01*
X112395000Y-62712500D02*
X112395000Y-61849000D01*
X112395000Y-61849000D02*
X112522000Y-61722000D01*
X114725000Y-62865000D02*
X113665000Y-62865000D01*
X113665000Y-62865000D02*
X112522000Y-61722000D01*
X114020500Y-58902500D02*
X114046000Y-58928000D01*
X114725000Y-60325000D02*
X113919000Y-60325000D01*
X113258500Y-59664500D02*
X113258500Y-58902500D01*
X113919000Y-60325000D02*
X113258500Y-59664500D01*
X112395000Y-58902500D02*
X113258500Y-58902500D01*
X113258500Y-58902500D02*
X114020500Y-58902500D01*
X124307500Y-64135000D02*
X123063000Y-64135000D01*
X114725000Y-60325000D02*
X116332000Y-60325000D01*
X116332000Y-60325000D02*
X117602000Y-61595000D01*
X117602000Y-61595000D02*
X117602000Y-62230000D01*
X128905000Y-84585000D02*
X128905000Y-85725000D01*
X107950000Y-90675000D02*
X105540000Y-90675000D01*
X104775000Y-91440000D02*
X104140000Y-91440000D01*
X105540000Y-90675000D02*
X104775000Y-91440000D01*
X101600000Y-91440000D02*
X102870000Y-91440000D01*
X104140000Y-91440000D02*
X102870000Y-91440000D01*
X101600000Y-81280000D02*
X102870000Y-81280000D01*
X102870000Y-81280000D02*
X104140000Y-81280000D01*
X110855000Y-86045000D02*
X110855000Y-85995000D01*
X110855000Y-85995000D02*
X111125000Y-85725000D01*
X111125000Y-85725000D02*
X111760000Y-86360000D01*
X111760000Y-86360000D02*
X112395000Y-86360000D01*
X114530000Y-94930000D02*
X116520000Y-94930000D01*
X116520000Y-94930000D02*
X116840000Y-95250000D01*
X131597500Y-93980000D02*
X133350000Y-93980000D01*
X110855000Y-86045000D02*
X110855000Y-85455000D01*
X110855000Y-85455000D02*
X110490000Y-85090000D01*
X110490000Y-85090000D02*
X108585000Y-85090000D01*
X128905000Y-85725000D02*
X129540000Y-86360000D01*
X113370000Y-73335000D02*
X114752000Y-73335000D01*
X114752000Y-73335000D02*
X115062000Y-73025000D01*
X113370000Y-73335000D02*
X111943000Y-73335000D01*
X111943000Y-73335000D02*
X111760000Y-73152000D01*
X113370000Y-73985000D02*
X114879000Y-73985000D01*
X114879000Y-73985000D02*
X115062000Y-74168000D01*
X113370000Y-73985000D02*
X111943000Y-73985000D01*
X111943000Y-73985000D02*
X111760000Y-74168000D01*
X116433500Y-74168000D02*
X116459000Y-74193500D01*
X115062000Y-74168000D02*
X116433500Y-74168000D01*
X108331000Y-66395500D02*
X107086500Y-66395500D01*
X107086500Y-66395500D02*
X106553000Y-66929000D01*
X106553000Y-66929000D02*
X106553000Y-67945000D01*
X105918000Y-68580000D02*
X104140000Y-68580000D01*
X106553000Y-67945000D02*
X105918000Y-68580000D01*
%TO.N,5V*%
X102870000Y-93980000D02*
X105410000Y-93980000D01*
X105410000Y-93980000D02*
X106680000Y-95250000D01*
X106680000Y-95250000D02*
X107950000Y-95250000D01*
X107950000Y-95250000D02*
X107950000Y-93475000D01*
X111530000Y-93980000D02*
X110490000Y-93980000D01*
X109220000Y-95250000D02*
X107950000Y-95250000D01*
X101600000Y-93980000D02*
X102870000Y-93980000D01*
X111630000Y-90805000D02*
X110490000Y-90805000D01*
X110490000Y-90805000D02*
X109855000Y-91440000D01*
X109855000Y-91440000D02*
X109855000Y-94615000D01*
X110490000Y-93980000D02*
X109855000Y-94615000D01*
X109855000Y-94615000D02*
X109220000Y-95250000D01*
X126365000Y-93980000D02*
X125095000Y-93980000D01*
%TO.N,V_chg*%
X110007500Y-59055000D02*
X110871000Y-59055000D01*
X110871000Y-59055000D02*
X110998000Y-59182000D01*
X110744000Y-64770000D02*
X110007500Y-64770000D01*
X110998000Y-64516000D02*
X110744000Y-64770000D01*
X110871000Y-62865000D02*
X110998000Y-62992000D01*
X110007500Y-62865000D02*
X110871000Y-62865000D01*
X110998000Y-62992000D02*
X110998000Y-64516000D01*
X110007500Y-60960000D02*
X110998000Y-60960000D01*
X110998000Y-59182000D02*
X110998000Y-60960000D01*
X110998000Y-60960000D02*
X110998000Y-62992000D01*
X112395000Y-64287500D02*
X112395000Y-64897000D01*
X112395000Y-64897000D02*
X112268000Y-65024000D01*
X111506000Y-65024000D02*
X110998000Y-64516000D01*
X112268000Y-65024000D02*
X111506000Y-65024000D01*
X114725000Y-64135000D02*
X113665000Y-64135000D01*
X113665000Y-64135000D02*
X113538000Y-64262000D01*
X113538000Y-64262000D02*
X113538000Y-64770000D01*
X113284000Y-65024000D02*
X112268000Y-65024000D01*
X113538000Y-64770000D02*
X113284000Y-65024000D01*
X127152500Y-62230000D02*
X127635000Y-62230000D01*
X127635000Y-62230000D02*
X128143000Y-61722000D01*
X128143000Y-61722000D02*
X128143000Y-60579000D01*
X127889000Y-60325000D02*
X127152500Y-60325000D01*
X128143000Y-60579000D02*
X127889000Y-60325000D01*
X120225000Y-60325000D02*
X120904000Y-60325000D01*
X122174000Y-59055000D02*
X127762000Y-59055000D01*
X128143000Y-59436000D02*
X128143000Y-60579000D01*
X127762000Y-59055000D02*
X128143000Y-59436000D01*
X122174000Y-59055000D02*
X121539000Y-59055000D01*
X121539000Y-59690000D02*
X121539000Y-59055000D01*
X120904000Y-60325000D02*
X121539000Y-59690000D01*
X114744500Y-57721500D02*
X116078000Y-59055000D01*
X111569500Y-57721500D02*
X114744500Y-57721500D01*
X116078000Y-59055000D02*
X121539000Y-59055000D01*
X110998000Y-58293000D02*
X111569500Y-57721500D01*
X110998000Y-59182000D02*
X110998000Y-58293000D01*
%TO.N,V_BAT+*%
X104140000Y-71120000D02*
X101600000Y-71120000D01*
D25*
X120225000Y-64135000D02*
X121412000Y-64135000D01*
X121412000Y-64135000D02*
X121793000Y-64516000D01*
X121793000Y-64516000D02*
X121793000Y-65659000D01*
X120904000Y-66548000D02*
X120142000Y-66548000D01*
X121793000Y-65659000D02*
X120904000Y-66548000D01*
X117856000Y-67437000D02*
X118745000Y-66548000D01*
X118745000Y-66548000D02*
X120142000Y-66548000D01*
X117983000Y-67945000D02*
X117856000Y-68072000D01*
X120080000Y-67945000D02*
X117983000Y-67945000D01*
X117856000Y-68072000D02*
X117856000Y-67437000D01*
X117856000Y-68580000D02*
X117856000Y-68072000D01*
X120080000Y-70485000D02*
X118491000Y-70485000D01*
X118491000Y-70485000D02*
X117856000Y-69850000D01*
X120080000Y-69215000D02*
X117856000Y-69215000D01*
X117856000Y-69850000D02*
X117856000Y-69215000D01*
X117856000Y-69215000D02*
X117856000Y-68580000D01*
X107569000Y-69215000D02*
X108331000Y-69215000D01*
X102870000Y-71120000D02*
X105664000Y-71120000D01*
X108331000Y-69443500D02*
X108331000Y-69215000D01*
X105664000Y-71120000D02*
X107569000Y-69215000D01*
X107569000Y-69215000D02*
X108331000Y-68453000D01*
X108331000Y-69215000D02*
X108331000Y-68453000D01*
X108331000Y-68453000D02*
X108331000Y-67970500D01*
X109347000Y-67437000D02*
X117856000Y-67437000D01*
X107569000Y-69215000D02*
X109347000Y-67437000D01*
X120080000Y-71755000D02*
X118618000Y-71755000D01*
X118334020Y-70641980D02*
X118491000Y-70485000D01*
X118334020Y-71471020D02*
X118334020Y-70641980D01*
X118618000Y-71755000D02*
X118334020Y-71471020D01*
%TO.N,V_OUT*%
X120355000Y-78740000D02*
X121285000Y-79670000D01*
X110490000Y-78740000D02*
X120355000Y-78740000D01*
X129540000Y-78040000D02*
X129540000Y-80010000D01*
X129540000Y-80010000D02*
X132080000Y-80010000D01*
X128905000Y-80645000D02*
X129540000Y-80010000D01*
X128905000Y-81785000D02*
X128905000Y-80645000D01*
X130810000Y-78040000D02*
X130810000Y-80010000D01*
X132080000Y-80010000D02*
X130810000Y-80010000D01*
X130810000Y-80010000D02*
X128270000Y-80010000D01*
X132080000Y-78040000D02*
X132080000Y-80010000D01*
X128270000Y-78040000D02*
X128270000Y-80010000D01*
X121285000Y-79670000D02*
X121285000Y-79375000D01*
X121285000Y-79375000D02*
X121920000Y-78740000D01*
X121920000Y-78740000D02*
X124460000Y-78740000D01*
X125730000Y-80010000D02*
X128270000Y-80010000D01*
X124460000Y-78740000D02*
X125730000Y-80010000D01*
D24*
%TO.N,V_BAT-*%
X102870000Y-73660000D02*
X104140000Y-73660000D01*
X102870000Y-73660000D02*
X102743000Y-73660000D01*
X102743000Y-73660000D02*
X101600000Y-73660000D01*
X104465000Y-73335000D02*
X104140000Y-73660000D01*
X107610000Y-73335000D02*
X104465000Y-73335000D01*
X104465000Y-73985000D02*
X104140000Y-73660000D01*
X107610000Y-73985000D02*
X104465000Y-73985000D01*
X107610000Y-73335000D02*
X108910000Y-73335000D01*
X108910000Y-73335000D02*
X109093000Y-73152000D01*
X107610000Y-73985000D02*
X108783000Y-73985000D01*
X108783000Y-73985000D02*
X109093000Y-74295000D01*
X112238000Y-70800000D02*
X111318000Y-70800000D01*
X111099500Y-71018500D02*
X109982000Y-71018500D01*
X111318000Y-70800000D02*
X111099500Y-71018500D01*
X109982000Y-72263000D02*
X109093000Y-73152000D01*
X109982000Y-71018500D02*
X109982000Y-72263000D01*
%TO.N,SWITCH_OUT*%
X101600000Y-78740000D02*
X102870000Y-78740000D01*
X102870000Y-78740000D02*
X104140000Y-78740000D01*
X106553000Y-78740000D02*
X107820000Y-78740000D01*
X104140000Y-78740000D02*
X106553000Y-78740000D01*
X113970000Y-88265000D02*
X114300000Y-88265000D01*
X114300000Y-88265000D02*
X114935000Y-87630000D01*
X114935000Y-87630000D02*
X114935000Y-86995000D01*
X114300000Y-86360000D02*
X113970000Y-86360000D01*
X114935000Y-86995000D02*
X114300000Y-86360000D01*
X106553000Y-78740000D02*
X106045000Y-78740000D01*
X115570000Y-86995000D02*
X114935000Y-86995000D01*
%TO.N,Net-(D2-Pad1)*%
X125577500Y-60325000D02*
X123977500Y-60325000D01*
%TO.N,Net-(D3-Pad1)*%
X125577500Y-62230000D02*
X123977500Y-62230000D01*
D25*
%TO.N,V_ext*%
X101600000Y-66040000D02*
X102870000Y-66040000D01*
X101600000Y-66040000D02*
X104140000Y-66040000D01*
X102870000Y-66040000D02*
X102870000Y-64770000D01*
X102870000Y-64770000D02*
X104140000Y-66040000D01*
X102870000Y-60452000D02*
X103629000Y-60452000D01*
X102997000Y-62992000D02*
X102870000Y-63119000D01*
X103629000Y-62992000D02*
X102997000Y-62992000D01*
X102870000Y-64770000D02*
X102870000Y-63119000D01*
X102870000Y-63119000D02*
X102870000Y-60452000D01*
D24*
%TO.N,SWITCH_IN*%
X101600000Y-76200000D02*
X102870000Y-76200000D01*
X102870000Y-76200000D02*
X104140000Y-76200000D01*
X123190000Y-69215000D02*
X125030000Y-69215000D01*
X123063000Y-69342000D02*
X123190000Y-69215000D01*
X123063000Y-70612000D02*
X123063000Y-69342000D01*
X125030000Y-71755000D02*
X123063000Y-71755000D01*
X123063000Y-74168000D02*
X123063000Y-71755000D01*
X123063000Y-71755000D02*
X123063000Y-70612000D01*
X123444000Y-70485000D02*
X123317000Y-70612000D01*
X125030000Y-70485000D02*
X123444000Y-70485000D01*
X123317000Y-70612000D02*
X123063000Y-70612000D01*
D25*
X123063000Y-75438000D02*
X123063000Y-69342000D01*
X125030000Y-69215000D02*
X128905000Y-69215000D01*
X129540000Y-68580000D02*
X129540000Y-65532000D01*
X128905000Y-69215000D02*
X129540000Y-68580000D01*
X129540000Y-73090000D02*
X129540000Y-68580000D01*
X130810000Y-73090000D02*
X130810000Y-69850000D01*
X130810000Y-69850000D02*
X129540000Y-68580000D01*
X132080000Y-71120000D02*
X130810000Y-69850000D01*
X132080000Y-73090000D02*
X132080000Y-71120000D01*
X107950000Y-81762500D02*
X107950000Y-81280000D01*
X107950000Y-81280000D02*
X109220000Y-81280000D01*
X109220000Y-81280000D02*
X109855000Y-81280000D01*
X104140000Y-76200000D02*
X109220000Y-76200000D01*
X122301000Y-76200000D02*
X123063000Y-75438000D01*
X109220000Y-76200000D02*
X122301000Y-76200000D01*
D24*
%TO.N,Net-(D6-Pad1)*%
X127940000Y-93980000D02*
X130022500Y-93980000D01*
%TO.N,Net-(IC1-Pad7)*%
X120225000Y-61595000D02*
X120904000Y-61595000D01*
X120904000Y-61595000D02*
X121539000Y-60960000D01*
X121539000Y-60960000D02*
X121539000Y-60706000D01*
X121920000Y-60325000D02*
X122402500Y-60325000D01*
X121539000Y-60706000D02*
X121920000Y-60325000D01*
%TO.N,Net-(IC1-Pad6)*%
X120225000Y-62865000D02*
X121031000Y-62865000D01*
X121666000Y-62230000D02*
X122402500Y-62230000D01*
X121031000Y-62865000D02*
X121666000Y-62230000D01*
%TO.N,Net-(IC1-Pad2)*%
X112395000Y-60477500D02*
X112801500Y-60477500D01*
X113919000Y-61595000D02*
X114725000Y-61595000D01*
X112801500Y-60477500D02*
X113919000Y-61595000D01*
%TO.N,Net-(IC2-Pad1)*%
X114838000Y-70800000D02*
X114112000Y-70800000D01*
X114112000Y-70800000D02*
X112903000Y-72009000D01*
X111443998Y-72009000D02*
X110617000Y-72835998D01*
X112903000Y-72009000D02*
X111443998Y-72009000D01*
X109525001Y-75195001D02*
X108170001Y-75195001D01*
X108170001Y-75195001D02*
X107610000Y-74635000D01*
X110617000Y-74103002D02*
X109525001Y-75195001D01*
X110617000Y-72835998D02*
X110617000Y-74103002D01*
%TO.N,Net-(IC2-Pad2)*%
X116459000Y-72618500D02*
X116459000Y-71628000D01*
X116459000Y-71628000D02*
X115838001Y-71007001D01*
X115838001Y-71007001D02*
X115838001Y-70118001D01*
X115570000Y-69850000D02*
X114838000Y-69850000D01*
X115838001Y-70118001D02*
X115570000Y-69850000D01*
%TO.N,Net-(IC2-Pad3)*%
X114838000Y-68900000D02*
X115468542Y-68900000D01*
X115468542Y-68900000D02*
X116438011Y-69869469D01*
X116438011Y-70758469D02*
X117334010Y-71654468D01*
X116438011Y-69869469D02*
X116438011Y-70758469D01*
X113393998Y-74611002D02*
X113370000Y-74635000D01*
X114173000Y-74611002D02*
X113393998Y-74611002D01*
X114629999Y-75068001D02*
X114173000Y-74611002D01*
X116934559Y-75068001D02*
X114629999Y-75068001D01*
X117334010Y-74668550D02*
X116934559Y-75068001D01*
X117334010Y-71654468D02*
X117334010Y-74668550D01*
%TO.N,V_uC*%
X101600000Y-88900000D02*
X102870000Y-88900000D01*
X102870000Y-88900000D02*
X104140000Y-88900000D01*
X107315000Y-88417500D02*
X107315000Y-88900000D01*
X107315000Y-88900000D02*
X104140000Y-88900000D01*
%TO.N,V_2_uC*%
X102870000Y-86360000D02*
X104140000Y-86360000D01*
X101600000Y-86360000D02*
X102870000Y-86360000D01*
X107315000Y-86842500D02*
X107315000Y-85725000D01*
X107315000Y-85725000D02*
X106045000Y-85725000D01*
X106045000Y-85725000D02*
X105410000Y-86360000D01*
X105410000Y-86360000D02*
X104140000Y-86360000D01*
X108855000Y-86995000D02*
X108585000Y-86995000D01*
X108585000Y-86995000D02*
X107315000Y-85725000D01*
%TO.N,uC_2_V*%
X101600000Y-83820000D02*
X102870000Y-83820000D01*
X104140000Y-83820000D02*
X102870000Y-83820000D01*
X110337500Y-83820000D02*
X107950000Y-83820000D01*
X107950000Y-83820000D02*
X104140000Y-83820000D01*
X107950000Y-83337500D02*
X107950000Y-83820000D01*
%TO.N,Net-(Q1-Pad4)*%
X128270000Y-73090000D02*
X128270000Y-74295000D01*
X128270000Y-74295000D02*
X127635000Y-74930000D01*
X127635000Y-74930000D02*
X126365000Y-74930000D01*
X111912500Y-83820000D02*
X113030000Y-83820000D01*
X113030000Y-83820000D02*
X115570000Y-81280000D01*
%TO.N,Net-(Q2-Pad1)*%
X110855000Y-87945000D02*
X110855000Y-87995000D01*
X111125000Y-88265000D02*
X112395000Y-88265000D01*
X110855000Y-87995000D02*
X111125000Y-88265000D01*
%TO.N,Net-(Q3-Pad4)*%
X125030000Y-67945000D02*
X123444000Y-67945000D01*
X123444000Y-67945000D02*
X122936000Y-67437000D01*
X122936000Y-67437000D02*
X122936000Y-66294000D01*
X123190000Y-66040000D02*
X124307500Y-66040000D01*
X122936000Y-66294000D02*
X123190000Y-66040000D01*
D26*
%TO.N,V_ext_p*%
X107950000Y-60960000D02*
X107696000Y-61214000D01*
X108432500Y-60960000D02*
X107950000Y-60960000D01*
X107442000Y-62230000D02*
X107696000Y-62484000D01*
X107696000Y-62484000D02*
X107696000Y-61214000D01*
X107823000Y-62865000D02*
X107696000Y-62992000D01*
X108432500Y-62865000D02*
X107823000Y-62865000D01*
X107696000Y-62992000D02*
X107696000Y-62484000D01*
X108432500Y-59055000D02*
X107823000Y-59055000D01*
X107696000Y-59182000D02*
X107696000Y-61214000D01*
X107823000Y-59055000D02*
X107696000Y-59182000D01*
X125882500Y-66040000D02*
X126746000Y-66040000D01*
X126746000Y-66040000D02*
X127127000Y-65659000D01*
X127127000Y-65659000D02*
X127127000Y-64135000D01*
X127127000Y-64135000D02*
X125882500Y-64135000D01*
X129540000Y-62735000D02*
X129035000Y-62735000D01*
X127635000Y-64135000D02*
X127127000Y-64135000D01*
X129035000Y-62735000D02*
X127635000Y-64135000D01*
X107823000Y-59055000D02*
X107823000Y-58293000D01*
X107823000Y-58293000D02*
X109474000Y-56642000D01*
D25*
X107696000Y-58420000D02*
X107823000Y-58293000D01*
X129540000Y-62735000D02*
X129540000Y-58674000D01*
X129540000Y-58674000D02*
X127396990Y-56530990D01*
X107950000Y-64770000D02*
X107696000Y-64516000D01*
X108432500Y-64770000D02*
X107950000Y-64770000D01*
X107696000Y-62992000D02*
X107696000Y-64516000D01*
X109585010Y-56530990D02*
X111871010Y-56530990D01*
X108458000Y-57658000D02*
X109585010Y-56530990D01*
X107696000Y-58420000D02*
X108458000Y-57658000D01*
X108458000Y-57658000D02*
X109474000Y-56642000D01*
X127396990Y-56530990D02*
X111871010Y-56530990D01*
X111871010Y-56530990D02*
X110964783Y-56530990D01*
X107569000Y-60452000D02*
X107696000Y-60325000D01*
X107696000Y-62992000D02*
X107696000Y-60325000D01*
X106429000Y-60452000D02*
X107569000Y-60452000D01*
X107696000Y-60325000D02*
X107696000Y-58420000D01*
X106429000Y-62992000D02*
X107696000Y-62992000D01*
D24*
%TO.N,/LX*%
X114530000Y-93030000D02*
X120330000Y-93030000D01*
X121285000Y-92075000D02*
X121285000Y-87970000D01*
X120330000Y-93030000D02*
X121285000Y-92075000D01*
X114430000Y-90805000D02*
X121285000Y-90805000D01*
%TO.N,/V_BAT+_F*%
X108407000Y-71018500D02*
X109982000Y-69443500D01*
X108331000Y-71018500D02*
X108407000Y-71018500D01*
X112238000Y-69850000D02*
X111125000Y-69850000D01*
X110718500Y-69443500D02*
X109982000Y-69443500D01*
X111125000Y-69850000D02*
X110718500Y-69443500D01*
%TD*%
D27*
%TO.N,SWITCH_OUT*%
G36*
X107315000Y-79502000D02*
G01*
X104775000Y-79502000D01*
X104775000Y-77978000D01*
X107315000Y-77978000D01*
X107315000Y-79502000D01*
G37*
X107315000Y-79502000D02*
X104775000Y-79502000D01*
X104775000Y-77978000D01*
X107315000Y-77978000D01*
X107315000Y-79502000D01*
%TO.N,V_chg*%
G36*
X111379000Y-58296271D02*
G01*
X111347150Y-58355858D01*
X111298392Y-58516592D01*
X111281928Y-58683750D01*
X111281928Y-59121250D01*
X111298392Y-59288408D01*
X111347150Y-59449142D01*
X111379000Y-59508729D01*
X111379000Y-59871271D01*
X111347150Y-59930858D01*
X111298392Y-60091592D01*
X111281928Y-60258750D01*
X111281928Y-60696250D01*
X111298392Y-60863408D01*
X111347150Y-61024142D01*
X111379000Y-61083729D01*
X111379000Y-62106271D01*
X111347150Y-62165858D01*
X111298392Y-62326592D01*
X111281928Y-62493750D01*
X111281928Y-62931250D01*
X111298392Y-63098408D01*
X111347150Y-63259142D01*
X111379000Y-63318729D01*
X111379000Y-64135000D01*
X111381440Y-64159776D01*
X111388667Y-64183601D01*
X111400403Y-64205557D01*
X111416197Y-64224803D01*
X111435443Y-64240597D01*
X111457399Y-64252333D01*
X111481224Y-64259560D01*
X111506000Y-64262000D01*
X113157000Y-64262000D01*
X113181776Y-64259560D01*
X113205601Y-64252333D01*
X113227557Y-64240597D01*
X113246803Y-64224803D01*
X113262597Y-64205557D01*
X113274333Y-64183601D01*
X113281560Y-64159776D01*
X113284000Y-64135000D01*
X113284000Y-63754000D01*
X113736339Y-63754000D01*
X113830820Y-63804502D01*
X113950518Y-63840812D01*
X114075000Y-63853072D01*
X115189000Y-63853072D01*
X115189000Y-65405000D01*
X110109000Y-65405000D01*
X110109000Y-57912000D01*
X111379000Y-57912000D01*
X111379000Y-58296271D01*
G37*
X111379000Y-58296271D02*
X111347150Y-58355858D01*
X111298392Y-58516592D01*
X111281928Y-58683750D01*
X111281928Y-59121250D01*
X111298392Y-59288408D01*
X111347150Y-59449142D01*
X111379000Y-59508729D01*
X111379000Y-59871271D01*
X111347150Y-59930858D01*
X111298392Y-60091592D01*
X111281928Y-60258750D01*
X111281928Y-60696250D01*
X111298392Y-60863408D01*
X111347150Y-61024142D01*
X111379000Y-61083729D01*
X111379000Y-62106271D01*
X111347150Y-62165858D01*
X111298392Y-62326592D01*
X111281928Y-62493750D01*
X111281928Y-62931250D01*
X111298392Y-63098408D01*
X111347150Y-63259142D01*
X111379000Y-63318729D01*
X111379000Y-64135000D01*
X111381440Y-64159776D01*
X111388667Y-64183601D01*
X111400403Y-64205557D01*
X111416197Y-64224803D01*
X111435443Y-64240597D01*
X111457399Y-64252333D01*
X111481224Y-64259560D01*
X111506000Y-64262000D01*
X113157000Y-64262000D01*
X113181776Y-64259560D01*
X113205601Y-64252333D01*
X113227557Y-64240597D01*
X113246803Y-64224803D01*
X113262597Y-64205557D01*
X113274333Y-64183601D01*
X113281560Y-64159776D01*
X113284000Y-64135000D01*
X113284000Y-63754000D01*
X113736339Y-63754000D01*
X113830820Y-63804502D01*
X113950518Y-63840812D01*
X114075000Y-63853072D01*
X115189000Y-63853072D01*
X115189000Y-65405000D01*
X110109000Y-65405000D01*
X110109000Y-57912000D01*
X111379000Y-57912000D01*
X111379000Y-58296271D01*
%TO.N,V_ext*%
G36*
X104394000Y-66548000D02*
G01*
X101473000Y-66548000D01*
X101473000Y-61087000D01*
X104394000Y-61087000D01*
X104394000Y-66548000D01*
G37*
X104394000Y-66548000D02*
X101473000Y-66548000D01*
X101473000Y-61087000D01*
X104394000Y-61087000D01*
X104394000Y-66548000D01*
%TO.N,GND*%
G36*
X114554000Y-58711867D02*
G01*
X114554000Y-59690000D01*
X114556440Y-59714776D01*
X114563667Y-59738601D01*
X114575403Y-59760557D01*
X114591197Y-59779803D01*
X114610443Y-59795597D01*
X114632399Y-59807333D01*
X114656224Y-59814560D01*
X114681000Y-59817000D01*
X115732270Y-59817000D01*
X115756913Y-59830172D01*
X115914311Y-59877918D01*
X116036981Y-59890000D01*
X116036982Y-59890000D01*
X116078000Y-59894040D01*
X116119018Y-59890000D01*
X117094000Y-59890000D01*
X117094000Y-62738000D01*
X112268000Y-62738000D01*
X112268000Y-61553072D01*
X112651250Y-61553072D01*
X112692173Y-61549041D01*
X113299563Y-62156432D01*
X113325709Y-62188291D01*
X113452854Y-62292636D01*
X113597913Y-62370172D01*
X113603976Y-62372011D01*
X113623815Y-62396185D01*
X113720506Y-62475537D01*
X113830820Y-62534502D01*
X113950518Y-62570812D01*
X114075000Y-62583072D01*
X115375000Y-62583072D01*
X115499482Y-62570812D01*
X115619180Y-62534502D01*
X115729494Y-62475537D01*
X115826185Y-62396185D01*
X115905537Y-62299494D01*
X115964502Y-62189180D01*
X116000812Y-62069482D01*
X116013072Y-61945000D01*
X116013072Y-61245000D01*
X116000812Y-61120518D01*
X115964502Y-61000820D01*
X115905537Y-60890506D01*
X115826185Y-60793815D01*
X115729494Y-60714463D01*
X115619180Y-60655498D01*
X115499482Y-60619188D01*
X115375000Y-60606928D01*
X114111796Y-60606928D01*
X113445952Y-59941085D01*
X113442850Y-59930858D01*
X113363671Y-59782725D01*
X113257115Y-59652885D01*
X113127275Y-59546329D01*
X112979142Y-59467150D01*
X112818408Y-59418392D01*
X112651250Y-59401928D01*
X112268000Y-59401928D01*
X112268000Y-58556500D01*
X114398633Y-58556500D01*
X114554000Y-58711867D01*
G37*
X114554000Y-58711867D02*
X114554000Y-59690000D01*
X114556440Y-59714776D01*
X114563667Y-59738601D01*
X114575403Y-59760557D01*
X114591197Y-59779803D01*
X114610443Y-59795597D01*
X114632399Y-59807333D01*
X114656224Y-59814560D01*
X114681000Y-59817000D01*
X115732270Y-59817000D01*
X115756913Y-59830172D01*
X115914311Y-59877918D01*
X116036981Y-59890000D01*
X116036982Y-59890000D01*
X116078000Y-59894040D01*
X116119018Y-59890000D01*
X117094000Y-59890000D01*
X117094000Y-62738000D01*
X112268000Y-62738000D01*
X112268000Y-61553072D01*
X112651250Y-61553072D01*
X112692173Y-61549041D01*
X113299563Y-62156432D01*
X113325709Y-62188291D01*
X113452854Y-62292636D01*
X113597913Y-62370172D01*
X113603976Y-62372011D01*
X113623815Y-62396185D01*
X113720506Y-62475537D01*
X113830820Y-62534502D01*
X113950518Y-62570812D01*
X114075000Y-62583072D01*
X115375000Y-62583072D01*
X115499482Y-62570812D01*
X115619180Y-62534502D01*
X115729494Y-62475537D01*
X115826185Y-62396185D01*
X115905537Y-62299494D01*
X115964502Y-62189180D01*
X116000812Y-62069482D01*
X116013072Y-61945000D01*
X116013072Y-61245000D01*
X116000812Y-61120518D01*
X115964502Y-61000820D01*
X115905537Y-60890506D01*
X115826185Y-60793815D01*
X115729494Y-60714463D01*
X115619180Y-60655498D01*
X115499482Y-60619188D01*
X115375000Y-60606928D01*
X114111796Y-60606928D01*
X113445952Y-59941085D01*
X113442850Y-59930858D01*
X113363671Y-59782725D01*
X113257115Y-59652885D01*
X113127275Y-59546329D01*
X112979142Y-59467150D01*
X112818408Y-59418392D01*
X112651250Y-59401928D01*
X112268000Y-59401928D01*
X112268000Y-58556500D01*
X114398633Y-58556500D01*
X114554000Y-58711867D01*
G36*
X124371480Y-94861612D02*
G01*
X124557376Y-94985824D01*
X124763933Y-95071383D01*
X124983212Y-95115000D01*
X125206788Y-95115000D01*
X125426067Y-95071383D01*
X125632624Y-94985824D01*
X125680227Y-94954017D01*
X125818358Y-95027850D01*
X125979092Y-95076608D01*
X126146250Y-95093072D01*
X126583750Y-95093072D01*
X126750908Y-95076608D01*
X126911642Y-95027850D01*
X127059775Y-94948671D01*
X127152500Y-94872574D01*
X127245225Y-94948671D01*
X127393358Y-95027850D01*
X127554092Y-95076608D01*
X127721250Y-95093072D01*
X128158750Y-95093072D01*
X128325908Y-95076608D01*
X128486642Y-95027850D01*
X128634775Y-94948671D01*
X128764615Y-94842115D01*
X128786868Y-94815000D01*
X129175632Y-94815000D01*
X129197885Y-94842115D01*
X129327725Y-94948671D01*
X129475858Y-95027850D01*
X129636592Y-95076608D01*
X129803750Y-95093072D01*
X130241250Y-95093072D01*
X130408408Y-95076608D01*
X130569142Y-95027850D01*
X130717275Y-94948671D01*
X130847115Y-94842115D01*
X130929277Y-94742000D01*
X133960001Y-94742000D01*
X133960001Y-97028000D01*
X114427000Y-97028000D01*
X114427000Y-94742000D01*
X124251868Y-94742000D01*
X124371480Y-94861612D01*
G37*
X124371480Y-94861612D02*
X124557376Y-94985824D01*
X124763933Y-95071383D01*
X124983212Y-95115000D01*
X125206788Y-95115000D01*
X125426067Y-95071383D01*
X125632624Y-94985824D01*
X125680227Y-94954017D01*
X125818358Y-95027850D01*
X125979092Y-95076608D01*
X126146250Y-95093072D01*
X126583750Y-95093072D01*
X126750908Y-95076608D01*
X126911642Y-95027850D01*
X127059775Y-94948671D01*
X127152500Y-94872574D01*
X127245225Y-94948671D01*
X127393358Y-95027850D01*
X127554092Y-95076608D01*
X127721250Y-95093072D01*
X128158750Y-95093072D01*
X128325908Y-95076608D01*
X128486642Y-95027850D01*
X128634775Y-94948671D01*
X128764615Y-94842115D01*
X128786868Y-94815000D01*
X129175632Y-94815000D01*
X129197885Y-94842115D01*
X129327725Y-94948671D01*
X129475858Y-95027850D01*
X129636592Y-95076608D01*
X129803750Y-95093072D01*
X130241250Y-95093072D01*
X130408408Y-95076608D01*
X130569142Y-95027850D01*
X130717275Y-94948671D01*
X130847115Y-94842115D01*
X130929277Y-94742000D01*
X133960001Y-94742000D01*
X133960001Y-97028000D01*
X114427000Y-97028000D01*
X114427000Y-94742000D01*
X124251868Y-94742000D01*
X124371480Y-94861612D01*
%TO.N,/LX*%
G36*
X123063000Y-90752394D02*
G01*
X119962394Y-93853000D01*
X114427000Y-93853000D01*
X114427000Y-90233500D01*
X119422333Y-86487000D01*
X123063000Y-86487000D01*
X123063000Y-90752394D01*
G37*
X123063000Y-90752394D02*
X119962394Y-93853000D01*
X114427000Y-93853000D01*
X114427000Y-90233500D01*
X119422333Y-86487000D01*
X123063000Y-86487000D01*
X123063000Y-90752394D01*
%TO.N,5V*%
G36*
X111633000Y-97028000D02*
G01*
X102362000Y-97028000D01*
X102362000Y-93472000D01*
X109855000Y-93472000D01*
X109879776Y-93469560D01*
X109903601Y-93462333D01*
X109925557Y-93450597D01*
X109944803Y-93434803D01*
X109960597Y-93415557D01*
X109972333Y-93393601D01*
X109979560Y-93369776D01*
X109982000Y-93345000D01*
X109982000Y-89662000D01*
X111633000Y-89662000D01*
X111633000Y-97028000D01*
G37*
X111633000Y-97028000D02*
X102362000Y-97028000D01*
X102362000Y-93472000D01*
X109855000Y-93472000D01*
X109879776Y-93469560D01*
X109903601Y-93462333D01*
X109925557Y-93450597D01*
X109944803Y-93434803D01*
X109960597Y-93415557D01*
X109972333Y-93393601D01*
X109979560Y-93369776D01*
X109982000Y-93345000D01*
X109982000Y-89662000D01*
X111633000Y-89662000D01*
X111633000Y-97028000D01*
%TO.N,GND*%
G36*
X109093000Y-91094271D02*
G01*
X109079828Y-91118914D01*
X109032082Y-91276312D01*
X109028469Y-91313000D01*
X107315000Y-91313000D01*
X107290224Y-91315440D01*
X107266399Y-91322667D01*
X107244443Y-91334403D01*
X107225197Y-91350197D01*
X105992394Y-92583000D01*
X105313694Y-92583000D01*
X105234180Y-92540498D01*
X105114482Y-92504188D01*
X104990000Y-92491928D01*
X102362000Y-92491928D01*
X102362000Y-90388072D01*
X104990000Y-90388072D01*
X105114482Y-90375812D01*
X105234180Y-90339502D01*
X105313694Y-90297000D01*
X106045000Y-90297000D01*
X106069776Y-90294560D01*
X106093601Y-90287333D01*
X106115557Y-90275597D01*
X106134803Y-90259803D01*
X106659606Y-89735000D01*
X107273982Y-89735000D01*
X107315000Y-89739040D01*
X107478689Y-89722918D01*
X107636087Y-89675172D01*
X107660730Y-89662000D01*
X109093000Y-89662000D01*
X109093000Y-91094271D01*
G37*
X109093000Y-91094271D02*
X109079828Y-91118914D01*
X109032082Y-91276312D01*
X109028469Y-91313000D01*
X107315000Y-91313000D01*
X107290224Y-91315440D01*
X107266399Y-91322667D01*
X107244443Y-91334403D01*
X107225197Y-91350197D01*
X105992394Y-92583000D01*
X105313694Y-92583000D01*
X105234180Y-92540498D01*
X105114482Y-92504188D01*
X104990000Y-92491928D01*
X102362000Y-92491928D01*
X102362000Y-90388072D01*
X104990000Y-90388072D01*
X105114482Y-90375812D01*
X105234180Y-90339502D01*
X105313694Y-90297000D01*
X106045000Y-90297000D01*
X106069776Y-90294560D01*
X106093601Y-90287333D01*
X106115557Y-90275597D01*
X106134803Y-90259803D01*
X106659606Y-89735000D01*
X107273982Y-89735000D01*
X107315000Y-89739040D01*
X107478689Y-89722918D01*
X107636087Y-89675172D01*
X107660730Y-89662000D01*
X109093000Y-89662000D01*
X109093000Y-91094271D01*
G36*
X133960001Y-95123000D02*
G01*
X120321606Y-95123000D01*
X121576394Y-93868212D01*
X123960000Y-93868212D01*
X123960000Y-94091788D01*
X124003617Y-94311067D01*
X124089176Y-94517624D01*
X124213388Y-94703520D01*
X124371480Y-94861612D01*
X124557376Y-94985824D01*
X124763933Y-95071383D01*
X124983212Y-95115000D01*
X125206788Y-95115000D01*
X125426067Y-95071383D01*
X125632624Y-94985824D01*
X125680227Y-94954017D01*
X125818358Y-95027850D01*
X125979092Y-95076608D01*
X126146250Y-95093072D01*
X126583750Y-95093072D01*
X126750908Y-95076608D01*
X126911642Y-95027850D01*
X127059775Y-94948671D01*
X127152500Y-94872574D01*
X127245225Y-94948671D01*
X127393358Y-95027850D01*
X127554092Y-95076608D01*
X127721250Y-95093072D01*
X128158750Y-95093072D01*
X128325908Y-95076608D01*
X128486642Y-95027850D01*
X128634775Y-94948671D01*
X128764615Y-94842115D01*
X128786868Y-94815000D01*
X129175632Y-94815000D01*
X129197885Y-94842115D01*
X129327725Y-94948671D01*
X129475858Y-95027850D01*
X129636592Y-95076608D01*
X129803750Y-95093072D01*
X130241250Y-95093072D01*
X130408408Y-95076608D01*
X130569142Y-95027850D01*
X130717275Y-94948671D01*
X130847115Y-94842115D01*
X130953671Y-94712275D01*
X131032850Y-94564142D01*
X131081608Y-94403408D01*
X131098072Y-94236250D01*
X131098072Y-93723750D01*
X131081608Y-93556592D01*
X131032850Y-93395858D01*
X130953671Y-93247725D01*
X130847115Y-93117885D01*
X130717275Y-93011329D01*
X130569142Y-92932150D01*
X130408408Y-92883392D01*
X130241250Y-92866928D01*
X129803750Y-92866928D01*
X129636592Y-92883392D01*
X129475858Y-92932150D01*
X129327725Y-93011329D01*
X129197885Y-93117885D01*
X129175632Y-93145000D01*
X128786868Y-93145000D01*
X128764615Y-93117885D01*
X128634775Y-93011329D01*
X128486642Y-92932150D01*
X128325908Y-92883392D01*
X128158750Y-92866928D01*
X127721250Y-92866928D01*
X127554092Y-92883392D01*
X127393358Y-92932150D01*
X127245225Y-93011329D01*
X127152500Y-93087426D01*
X127059775Y-93011329D01*
X126911642Y-92932150D01*
X126750908Y-92883392D01*
X126583750Y-92866928D01*
X126146250Y-92866928D01*
X125979092Y-92883392D01*
X125818358Y-92932150D01*
X125680227Y-93005983D01*
X125632624Y-92974176D01*
X125426067Y-92888617D01*
X125206788Y-92845000D01*
X124983212Y-92845000D01*
X124763933Y-92888617D01*
X124557376Y-92974176D01*
X124371480Y-93098388D01*
X124213388Y-93256480D01*
X124089176Y-93442376D01*
X124003617Y-93648933D01*
X123960000Y-93868212D01*
X121576394Y-93868212D01*
X127089803Y-88354803D01*
X127105597Y-88335557D01*
X127117333Y-88313601D01*
X127124560Y-88289776D01*
X127127000Y-88265000D01*
X127127000Y-86487000D01*
X133960001Y-86487000D01*
X133960001Y-95123000D01*
G37*
X133960001Y-95123000D02*
X120321606Y-95123000D01*
X121576394Y-93868212D01*
X123960000Y-93868212D01*
X123960000Y-94091788D01*
X124003617Y-94311067D01*
X124089176Y-94517624D01*
X124213388Y-94703520D01*
X124371480Y-94861612D01*
X124557376Y-94985824D01*
X124763933Y-95071383D01*
X124983212Y-95115000D01*
X125206788Y-95115000D01*
X125426067Y-95071383D01*
X125632624Y-94985824D01*
X125680227Y-94954017D01*
X125818358Y-95027850D01*
X125979092Y-95076608D01*
X126146250Y-95093072D01*
X126583750Y-95093072D01*
X126750908Y-95076608D01*
X126911642Y-95027850D01*
X127059775Y-94948671D01*
X127152500Y-94872574D01*
X127245225Y-94948671D01*
X127393358Y-95027850D01*
X127554092Y-95076608D01*
X127721250Y-95093072D01*
X128158750Y-95093072D01*
X128325908Y-95076608D01*
X128486642Y-95027850D01*
X128634775Y-94948671D01*
X128764615Y-94842115D01*
X128786868Y-94815000D01*
X129175632Y-94815000D01*
X129197885Y-94842115D01*
X129327725Y-94948671D01*
X129475858Y-95027850D01*
X129636592Y-95076608D01*
X129803750Y-95093072D01*
X130241250Y-95093072D01*
X130408408Y-95076608D01*
X130569142Y-95027850D01*
X130717275Y-94948671D01*
X130847115Y-94842115D01*
X130953671Y-94712275D01*
X131032850Y-94564142D01*
X131081608Y-94403408D01*
X131098072Y-94236250D01*
X131098072Y-93723750D01*
X131081608Y-93556592D01*
X131032850Y-93395858D01*
X130953671Y-93247725D01*
X130847115Y-93117885D01*
X130717275Y-93011329D01*
X130569142Y-92932150D01*
X130408408Y-92883392D01*
X130241250Y-92866928D01*
X129803750Y-92866928D01*
X129636592Y-92883392D01*
X129475858Y-92932150D01*
X129327725Y-93011329D01*
X129197885Y-93117885D01*
X129175632Y-93145000D01*
X128786868Y-93145000D01*
X128764615Y-93117885D01*
X128634775Y-93011329D01*
X128486642Y-92932150D01*
X128325908Y-92883392D01*
X128158750Y-92866928D01*
X127721250Y-92866928D01*
X127554092Y-92883392D01*
X127393358Y-92932150D01*
X127245225Y-93011329D01*
X127152500Y-93087426D01*
X127059775Y-93011329D01*
X126911642Y-92932150D01*
X126750908Y-92883392D01*
X126583750Y-92866928D01*
X126146250Y-92866928D01*
X125979092Y-92883392D01*
X125818358Y-92932150D01*
X125680227Y-93005983D01*
X125632624Y-92974176D01*
X125426067Y-92888617D01*
X125206788Y-92845000D01*
X124983212Y-92845000D01*
X124763933Y-92888617D01*
X124557376Y-92974176D01*
X124371480Y-93098388D01*
X124213388Y-93256480D01*
X124089176Y-93442376D01*
X124003617Y-93648933D01*
X123960000Y-93868212D01*
X121576394Y-93868212D01*
X127089803Y-88354803D01*
X127105597Y-88335557D01*
X127117333Y-88313601D01*
X127124560Y-88289776D01*
X127127000Y-88265000D01*
X127127000Y-86487000D01*
X133960001Y-86487000D01*
X133960001Y-95123000D01*
%TO.N,V_OUT*%
G36*
X132588000Y-80592394D02*
G01*
X131392394Y-81788000D01*
X125147606Y-81788000D01*
X123914803Y-80555197D01*
X123895557Y-80539403D01*
X123873601Y-80527667D01*
X123849776Y-80520440D01*
X123825000Y-80518000D01*
X116413132Y-80518000D01*
X116293520Y-80398388D01*
X116107624Y-80274176D01*
X115901067Y-80188617D01*
X115681788Y-80145000D01*
X115458212Y-80145000D01*
X115238933Y-80188617D01*
X115032376Y-80274176D01*
X114846480Y-80398388D01*
X114726868Y-80518000D01*
X110698132Y-80518000D01*
X110696991Y-80516859D01*
X110661449Y-80473551D01*
X110618141Y-80438009D01*
X110617000Y-80436868D01*
X110617000Y-78232000D01*
X132588000Y-78232000D01*
X132588000Y-80592394D01*
G37*
X132588000Y-80592394D02*
X131392394Y-81788000D01*
X125147606Y-81788000D01*
X123914803Y-80555197D01*
X123895557Y-80539403D01*
X123873601Y-80527667D01*
X123849776Y-80520440D01*
X123825000Y-80518000D01*
X116413132Y-80518000D01*
X116293520Y-80398388D01*
X116107624Y-80274176D01*
X115901067Y-80188617D01*
X115681788Y-80145000D01*
X115458212Y-80145000D01*
X115238933Y-80188617D01*
X115032376Y-80274176D01*
X114846480Y-80398388D01*
X114726868Y-80518000D01*
X110698132Y-80518000D01*
X110696991Y-80516859D01*
X110661449Y-80473551D01*
X110618141Y-80438009D01*
X110617000Y-80436868D01*
X110617000Y-78232000D01*
X132588000Y-78232000D01*
X132588000Y-80592394D01*
%TO.N,GND*%
G36*
X133960001Y-89408000D02*
G01*
X125857000Y-89408000D01*
X125857000Y-84582000D01*
X130810000Y-84582000D01*
X130834776Y-84579560D01*
X130858601Y-84572333D01*
X130880557Y-84560597D01*
X130899803Y-84544803D01*
X130915597Y-84525557D01*
X130927333Y-84503601D01*
X130934560Y-84479776D01*
X130937000Y-84455000D01*
X130937000Y-83312000D01*
X133960001Y-83312000D01*
X133960001Y-89408000D01*
G37*
X133960001Y-89408000D02*
X125857000Y-89408000D01*
X125857000Y-84582000D01*
X130810000Y-84582000D01*
X130834776Y-84579560D01*
X130858601Y-84572333D01*
X130880557Y-84560597D01*
X130899803Y-84544803D01*
X130915597Y-84525557D01*
X130927333Y-84503601D01*
X130934560Y-84479776D01*
X130937000Y-84455000D01*
X130937000Y-83312000D01*
X133960001Y-83312000D01*
X133960001Y-89408000D01*
%TO.N,SWITCH_IN*%
G36*
X131355197Y-67399803D02*
G01*
X131374443Y-67415597D01*
X131396399Y-67427333D01*
X131420224Y-67434560D01*
X131445000Y-67437000D01*
X132588000Y-67437000D01*
X132588000Y-72898000D01*
X129208072Y-72898000D01*
X129208072Y-72265000D01*
X129192929Y-72111255D01*
X129148084Y-71963418D01*
X129075258Y-71827171D01*
X128977251Y-71707749D01*
X128857829Y-71609742D01*
X128721582Y-71536916D01*
X128573745Y-71492071D01*
X128420000Y-71476928D01*
X128120000Y-71476928D01*
X127966255Y-71492071D01*
X127818418Y-71536916D01*
X127682171Y-71609742D01*
X127562749Y-71707749D01*
X127464742Y-71827171D01*
X127391916Y-71963418D01*
X127347071Y-72111255D01*
X127331928Y-72265000D01*
X127331928Y-72898000D01*
X122682000Y-72898000D01*
X122682000Y-68707000D01*
X123098270Y-68707000D01*
X123122913Y-68720172D01*
X123280311Y-68767918D01*
X123402981Y-68780000D01*
X123402991Y-68780000D01*
X123443999Y-68784039D01*
X123485007Y-68780000D01*
X123822814Y-68780000D01*
X123903418Y-68823084D01*
X124051255Y-68867929D01*
X124205000Y-68883072D01*
X125855000Y-68883072D01*
X126008745Y-68867929D01*
X126156582Y-68823084D01*
X126292829Y-68750258D01*
X126345539Y-68707000D01*
X126365000Y-68707000D01*
X126389776Y-68704560D01*
X126413601Y-68697333D01*
X126435557Y-68685597D01*
X126454803Y-68669803D01*
X126470597Y-68650557D01*
X126482333Y-68628601D01*
X126489560Y-68604776D01*
X126492000Y-68580000D01*
X126492000Y-68555076D01*
X126510258Y-68532829D01*
X126583084Y-68396582D01*
X126627929Y-68248745D01*
X126643072Y-68095000D01*
X126643072Y-67795000D01*
X126627929Y-67641255D01*
X126583084Y-67493418D01*
X126510258Y-67357171D01*
X126504478Y-67350128D01*
X126952392Y-66902214D01*
X127086313Y-66861589D01*
X127240059Y-66779411D01*
X127374817Y-66668817D01*
X127402534Y-66635044D01*
X127722045Y-66315533D01*
X127755817Y-66287817D01*
X127866411Y-66153059D01*
X127948589Y-65999313D01*
X127989214Y-65865392D01*
X128322606Y-65532000D01*
X129487394Y-65532000D01*
X131355197Y-67399803D01*
G37*
X131355197Y-67399803D02*
X131374443Y-67415597D01*
X131396399Y-67427333D01*
X131420224Y-67434560D01*
X131445000Y-67437000D01*
X132588000Y-67437000D01*
X132588000Y-72898000D01*
X129208072Y-72898000D01*
X129208072Y-72265000D01*
X129192929Y-72111255D01*
X129148084Y-71963418D01*
X129075258Y-71827171D01*
X128977251Y-71707749D01*
X128857829Y-71609742D01*
X128721582Y-71536916D01*
X128573745Y-71492071D01*
X128420000Y-71476928D01*
X128120000Y-71476928D01*
X127966255Y-71492071D01*
X127818418Y-71536916D01*
X127682171Y-71609742D01*
X127562749Y-71707749D01*
X127464742Y-71827171D01*
X127391916Y-71963418D01*
X127347071Y-72111255D01*
X127331928Y-72265000D01*
X127331928Y-72898000D01*
X122682000Y-72898000D01*
X122682000Y-68707000D01*
X123098270Y-68707000D01*
X123122913Y-68720172D01*
X123280311Y-68767918D01*
X123402981Y-68780000D01*
X123402991Y-68780000D01*
X123443999Y-68784039D01*
X123485007Y-68780000D01*
X123822814Y-68780000D01*
X123903418Y-68823084D01*
X124051255Y-68867929D01*
X124205000Y-68883072D01*
X125855000Y-68883072D01*
X126008745Y-68867929D01*
X126156582Y-68823084D01*
X126292829Y-68750258D01*
X126345539Y-68707000D01*
X126365000Y-68707000D01*
X126389776Y-68704560D01*
X126413601Y-68697333D01*
X126435557Y-68685597D01*
X126454803Y-68669803D01*
X126470597Y-68650557D01*
X126482333Y-68628601D01*
X126489560Y-68604776D01*
X126492000Y-68580000D01*
X126492000Y-68555076D01*
X126510258Y-68532829D01*
X126583084Y-68396582D01*
X126627929Y-68248745D01*
X126643072Y-68095000D01*
X126643072Y-67795000D01*
X126627929Y-67641255D01*
X126583084Y-67493418D01*
X126510258Y-67357171D01*
X126504478Y-67350128D01*
X126952392Y-66902214D01*
X127086313Y-66861589D01*
X127240059Y-66779411D01*
X127374817Y-66668817D01*
X127402534Y-66635044D01*
X127722045Y-66315533D01*
X127755817Y-66287817D01*
X127866411Y-66153059D01*
X127948589Y-65999313D01*
X127989214Y-65865392D01*
X128322606Y-65532000D01*
X129487394Y-65532000D01*
X131355197Y-67399803D01*
G36*
X126820394Y-72390000D02*
G01*
X125642551Y-73567843D01*
X121871265Y-76962000D01*
X104267000Y-76962000D01*
X104267000Y-75438000D01*
X106630317Y-75438000D01*
X106705518Y-75460812D01*
X106830000Y-75473072D01*
X107267205Y-75473072D01*
X107550555Y-75756422D01*
X107576710Y-75788292D01*
X107701762Y-75890919D01*
X107703855Y-75892637D01*
X107848914Y-75970173D01*
X108006312Y-76017919D01*
X108170000Y-76034041D01*
X108211019Y-76030001D01*
X109483983Y-76030001D01*
X109525001Y-76034041D01*
X109566019Y-76030001D01*
X109566020Y-76030001D01*
X109688690Y-76017919D01*
X109846088Y-75970173D01*
X109991147Y-75892637D01*
X110118292Y-75788292D01*
X110144446Y-75756423D01*
X110462869Y-75438000D01*
X112390317Y-75438000D01*
X112465518Y-75460812D01*
X112590000Y-75473072D01*
X113360172Y-75473072D01*
X113370000Y-75474040D01*
X113379828Y-75473072D01*
X113854203Y-75473072D01*
X114010553Y-75629422D01*
X114036708Y-75661292D01*
X114163853Y-75765637D01*
X114249866Y-75811612D01*
X114308912Y-75843173D01*
X114466310Y-75890919D01*
X114629998Y-75907041D01*
X114671017Y-75903001D01*
X116893541Y-75903001D01*
X116934559Y-75907041D01*
X116975577Y-75903001D01*
X116975578Y-75903001D01*
X117098248Y-75890919D01*
X117255646Y-75843173D01*
X117400705Y-75765637D01*
X117527850Y-75661292D01*
X117554005Y-75629422D01*
X117745427Y-75438000D01*
X119380000Y-75438000D01*
X119404776Y-75435560D01*
X119428601Y-75428333D01*
X119446847Y-75418984D01*
X122113847Y-73767984D01*
X122133629Y-73752868D01*
X122150082Y-73734183D01*
X122162574Y-73712647D01*
X122170902Y-73687878D01*
X123263276Y-68832882D01*
X126820394Y-72390000D01*
G37*
X126820394Y-72390000D02*
X125642551Y-73567843D01*
X121871265Y-76962000D01*
X104267000Y-76962000D01*
X104267000Y-75438000D01*
X106630317Y-75438000D01*
X106705518Y-75460812D01*
X106830000Y-75473072D01*
X107267205Y-75473072D01*
X107550555Y-75756422D01*
X107576710Y-75788292D01*
X107701762Y-75890919D01*
X107703855Y-75892637D01*
X107848914Y-75970173D01*
X108006312Y-76017919D01*
X108170000Y-76034041D01*
X108211019Y-76030001D01*
X109483983Y-76030001D01*
X109525001Y-76034041D01*
X109566019Y-76030001D01*
X109566020Y-76030001D01*
X109688690Y-76017919D01*
X109846088Y-75970173D01*
X109991147Y-75892637D01*
X110118292Y-75788292D01*
X110144446Y-75756423D01*
X110462869Y-75438000D01*
X112390317Y-75438000D01*
X112465518Y-75460812D01*
X112590000Y-75473072D01*
X113360172Y-75473072D01*
X113370000Y-75474040D01*
X113379828Y-75473072D01*
X113854203Y-75473072D01*
X114010553Y-75629422D01*
X114036708Y-75661292D01*
X114163853Y-75765637D01*
X114249866Y-75811612D01*
X114308912Y-75843173D01*
X114466310Y-75890919D01*
X114629998Y-75907041D01*
X114671017Y-75903001D01*
X116893541Y-75903001D01*
X116934559Y-75907041D01*
X116975577Y-75903001D01*
X116975578Y-75903001D01*
X117098248Y-75890919D01*
X117255646Y-75843173D01*
X117400705Y-75765637D01*
X117527850Y-75661292D01*
X117554005Y-75629422D01*
X117745427Y-75438000D01*
X119380000Y-75438000D01*
X119404776Y-75435560D01*
X119428601Y-75428333D01*
X119446847Y-75418984D01*
X122113847Y-73767984D01*
X122133629Y-73752868D01*
X122150082Y-73734183D01*
X122162574Y-73712647D01*
X122170902Y-73687878D01*
X123263276Y-68832882D01*
X126820394Y-72390000D01*
%TO.N,V_BAT-*%
G36*
X106204188Y-73009482D02*
G01*
X106240498Y-73129180D01*
X106299463Y-73239494D01*
X106378815Y-73336185D01*
X106475506Y-73415537D01*
X106585820Y-73474502D01*
X106705518Y-73510812D01*
X106830000Y-73523072D01*
X108390000Y-73523072D01*
X108514482Y-73510812D01*
X108634180Y-73474502D01*
X108744494Y-73415537D01*
X108841185Y-73336185D01*
X108920537Y-73239494D01*
X108979502Y-73129180D01*
X109015812Y-73009482D01*
X109026792Y-72898000D01*
X109474000Y-72898000D01*
X109474000Y-74065134D01*
X109179134Y-74360001D01*
X109020685Y-74360001D01*
X109015812Y-74310518D01*
X108979502Y-74190820D01*
X108920537Y-74080506D01*
X108841185Y-73983815D01*
X108744494Y-73904463D01*
X108634180Y-73845498D01*
X108514482Y-73809188D01*
X108390000Y-73796928D01*
X107619828Y-73796928D01*
X107610000Y-73795960D01*
X107600172Y-73796928D01*
X106830000Y-73796928D01*
X106705518Y-73809188D01*
X106585820Y-73845498D01*
X106475506Y-73904463D01*
X106378815Y-73983815D01*
X106299463Y-74080506D01*
X106240498Y-74190820D01*
X106204188Y-74310518D01*
X106191928Y-74435000D01*
X106191928Y-74549000D01*
X104267000Y-74549000D01*
X104267000Y-72898000D01*
X106193208Y-72898000D01*
X106204188Y-73009482D01*
G37*
X106204188Y-73009482D02*
X106240498Y-73129180D01*
X106299463Y-73239494D01*
X106378815Y-73336185D01*
X106475506Y-73415537D01*
X106585820Y-73474502D01*
X106705518Y-73510812D01*
X106830000Y-73523072D01*
X108390000Y-73523072D01*
X108514482Y-73510812D01*
X108634180Y-73474502D01*
X108744494Y-73415537D01*
X108841185Y-73336185D01*
X108920537Y-73239494D01*
X108979502Y-73129180D01*
X109015812Y-73009482D01*
X109026792Y-72898000D01*
X109474000Y-72898000D01*
X109474000Y-74065134D01*
X109179134Y-74360001D01*
X109020685Y-74360001D01*
X109015812Y-74310518D01*
X108979502Y-74190820D01*
X108920537Y-74080506D01*
X108841185Y-73983815D01*
X108744494Y-73904463D01*
X108634180Y-73845498D01*
X108514482Y-73809188D01*
X108390000Y-73796928D01*
X107619828Y-73796928D01*
X107610000Y-73795960D01*
X107600172Y-73796928D01*
X106830000Y-73796928D01*
X106705518Y-73809188D01*
X106585820Y-73845498D01*
X106475506Y-73904463D01*
X106378815Y-73983815D01*
X106299463Y-74080506D01*
X106240498Y-74190820D01*
X106204188Y-74310518D01*
X106191928Y-74435000D01*
X106191928Y-74549000D01*
X104267000Y-74549000D01*
X104267000Y-72898000D01*
X106193208Y-72898000D01*
X106204188Y-73009482D01*
%TO.N,GND*%
G36*
X115345928Y-72837250D02*
G01*
X115362392Y-73004408D01*
X115411150Y-73165142D01*
X115490329Y-73313275D01*
X115596885Y-73443115D01*
X115726725Y-73549671D01*
X115874858Y-73628850D01*
X115951000Y-73651947D01*
X115951000Y-74233001D01*
X114975866Y-74233001D01*
X114792446Y-74049581D01*
X114766291Y-74017711D01*
X114639146Y-73913366D01*
X114494087Y-73835830D01*
X114336689Y-73788084D01*
X114214019Y-73776002D01*
X114214018Y-73776002D01*
X114173000Y-73771962D01*
X114131982Y-73776002D01*
X113435005Y-73776002D01*
X113393997Y-73771963D01*
X113352989Y-73776002D01*
X113352979Y-73776002D01*
X113230309Y-73788084D01*
X113201154Y-73796928D01*
X112590000Y-73796928D01*
X112465518Y-73809188D01*
X112345820Y-73845498D01*
X112235506Y-73904463D01*
X112138815Y-73983815D01*
X112059463Y-74080506D01*
X112000498Y-74190820D01*
X111964188Y-74310518D01*
X111951928Y-74435000D01*
X111951928Y-74549000D01*
X111506000Y-74549000D01*
X111506000Y-73127866D01*
X111789866Y-72844000D01*
X111951928Y-72844000D01*
X111951928Y-72885000D01*
X111964188Y-73009482D01*
X112000498Y-73129180D01*
X112059463Y-73239494D01*
X112138815Y-73336185D01*
X112235506Y-73415537D01*
X112345820Y-73474502D01*
X112465518Y-73510812D01*
X112590000Y-73523072D01*
X114150000Y-73523072D01*
X114274482Y-73510812D01*
X114394180Y-73474502D01*
X114504494Y-73415537D01*
X114601185Y-73336185D01*
X114680537Y-73239494D01*
X114739502Y-73129180D01*
X114775812Y-73009482D01*
X114788072Y-72885000D01*
X114788072Y-72517000D01*
X115345928Y-72517000D01*
X115345928Y-72837250D01*
G37*
X115345928Y-72837250D02*
X115362392Y-73004408D01*
X115411150Y-73165142D01*
X115490329Y-73313275D01*
X115596885Y-73443115D01*
X115726725Y-73549671D01*
X115874858Y-73628850D01*
X115951000Y-73651947D01*
X115951000Y-74233001D01*
X114975866Y-74233001D01*
X114792446Y-74049581D01*
X114766291Y-74017711D01*
X114639146Y-73913366D01*
X114494087Y-73835830D01*
X114336689Y-73788084D01*
X114214019Y-73776002D01*
X114214018Y-73776002D01*
X114173000Y-73771962D01*
X114131982Y-73776002D01*
X113435005Y-73776002D01*
X113393997Y-73771963D01*
X113352989Y-73776002D01*
X113352979Y-73776002D01*
X113230309Y-73788084D01*
X113201154Y-73796928D01*
X112590000Y-73796928D01*
X112465518Y-73809188D01*
X112345820Y-73845498D01*
X112235506Y-73904463D01*
X112138815Y-73983815D01*
X112059463Y-74080506D01*
X112000498Y-74190820D01*
X111964188Y-74310518D01*
X111951928Y-74435000D01*
X111951928Y-74549000D01*
X111506000Y-74549000D01*
X111506000Y-73127866D01*
X111789866Y-72844000D01*
X111951928Y-72844000D01*
X111951928Y-72885000D01*
X111964188Y-73009482D01*
X112000498Y-73129180D01*
X112059463Y-73239494D01*
X112138815Y-73336185D01*
X112235506Y-73415537D01*
X112345820Y-73474502D01*
X112465518Y-73510812D01*
X112590000Y-73523072D01*
X114150000Y-73523072D01*
X114274482Y-73510812D01*
X114394180Y-73474502D01*
X114504494Y-73415537D01*
X114601185Y-73336185D01*
X114680537Y-73239494D01*
X114739502Y-73129180D01*
X114775812Y-73009482D01*
X114788072Y-72885000D01*
X114788072Y-72517000D01*
X115345928Y-72517000D01*
X115345928Y-72837250D01*
%TO.N,V_BAT+*%
G36*
X117348000Y-68326000D02*
G01*
X116077665Y-68326000D01*
X116061833Y-68306709D01*
X115934688Y-68202364D01*
X115895365Y-68181345D01*
X115889185Y-68173815D01*
X115792494Y-68094463D01*
X115682180Y-68035498D01*
X115562482Y-67999188D01*
X115438000Y-67986928D01*
X114238000Y-67986928D01*
X114113518Y-67999188D01*
X113993820Y-68035498D01*
X113883506Y-68094463D01*
X113786815Y-68173815D01*
X113707463Y-68270506D01*
X113677800Y-68326000D01*
X113398200Y-68326000D01*
X113368537Y-68270506D01*
X113289185Y-68173815D01*
X113192494Y-68094463D01*
X113082180Y-68035498D01*
X112962482Y-67999188D01*
X112838000Y-67986928D01*
X111638000Y-67986928D01*
X111513518Y-67999188D01*
X111393820Y-68035498D01*
X111283506Y-68094463D01*
X111186815Y-68173815D01*
X111107463Y-68270506D01*
X111077800Y-68326000D01*
X109474000Y-68326000D01*
X109449224Y-68328440D01*
X109425399Y-68335667D01*
X109403553Y-68347330D01*
X107498553Y-69617330D01*
X107479291Y-69633104D01*
X107463477Y-69652332D01*
X107451718Y-69674276D01*
X107444466Y-69698093D01*
X107442000Y-69723000D01*
X107442000Y-70226645D01*
X107362329Y-70323725D01*
X107283150Y-70471858D01*
X107234392Y-70632592D01*
X107217928Y-70799750D01*
X107217928Y-71237250D01*
X107234392Y-71404408D01*
X107283150Y-71565142D01*
X107362329Y-71713275D01*
X107442000Y-71810355D01*
X107442000Y-71846928D01*
X106830000Y-71846928D01*
X106705518Y-71859188D01*
X106630317Y-71882000D01*
X104902000Y-71882000D01*
X104902000Y-70291807D01*
X105252454Y-70009734D01*
X105344494Y-69960537D01*
X105441185Y-69881185D01*
X105497651Y-69812380D01*
X105995876Y-69411370D01*
X106081689Y-69402918D01*
X106239087Y-69355172D01*
X106384146Y-69277636D01*
X106511291Y-69173291D01*
X106537445Y-69141422D01*
X107114431Y-68564438D01*
X107146291Y-68538291D01*
X107177291Y-68500518D01*
X107250636Y-68411146D01*
X107259740Y-68394114D01*
X108406549Y-67471072D01*
X108587250Y-67471072D01*
X108754408Y-67454608D01*
X108915142Y-67405850D01*
X109063275Y-67326671D01*
X109193115Y-67220115D01*
X109299671Y-67090275D01*
X109378850Y-66942142D01*
X109427608Y-66781408D01*
X109441746Y-66637865D01*
X110026760Y-66167000D01*
X117348000Y-66167000D01*
X117348000Y-68326000D01*
G37*
X117348000Y-68326000D02*
X116077665Y-68326000D01*
X116061833Y-68306709D01*
X115934688Y-68202364D01*
X115895365Y-68181345D01*
X115889185Y-68173815D01*
X115792494Y-68094463D01*
X115682180Y-68035498D01*
X115562482Y-67999188D01*
X115438000Y-67986928D01*
X114238000Y-67986928D01*
X114113518Y-67999188D01*
X113993820Y-68035498D01*
X113883506Y-68094463D01*
X113786815Y-68173815D01*
X113707463Y-68270506D01*
X113677800Y-68326000D01*
X113398200Y-68326000D01*
X113368537Y-68270506D01*
X113289185Y-68173815D01*
X113192494Y-68094463D01*
X113082180Y-68035498D01*
X112962482Y-67999188D01*
X112838000Y-67986928D01*
X111638000Y-67986928D01*
X111513518Y-67999188D01*
X111393820Y-68035498D01*
X111283506Y-68094463D01*
X111186815Y-68173815D01*
X111107463Y-68270506D01*
X111077800Y-68326000D01*
X109474000Y-68326000D01*
X109449224Y-68328440D01*
X109425399Y-68335667D01*
X109403553Y-68347330D01*
X107498553Y-69617330D01*
X107479291Y-69633104D01*
X107463477Y-69652332D01*
X107451718Y-69674276D01*
X107444466Y-69698093D01*
X107442000Y-69723000D01*
X107442000Y-70226645D01*
X107362329Y-70323725D01*
X107283150Y-70471858D01*
X107234392Y-70632592D01*
X107217928Y-70799750D01*
X107217928Y-71237250D01*
X107234392Y-71404408D01*
X107283150Y-71565142D01*
X107362329Y-71713275D01*
X107442000Y-71810355D01*
X107442000Y-71846928D01*
X106830000Y-71846928D01*
X106705518Y-71859188D01*
X106630317Y-71882000D01*
X104902000Y-71882000D01*
X104902000Y-70291807D01*
X105252454Y-70009734D01*
X105344494Y-69960537D01*
X105441185Y-69881185D01*
X105497651Y-69812380D01*
X105995876Y-69411370D01*
X106081689Y-69402918D01*
X106239087Y-69355172D01*
X106384146Y-69277636D01*
X106511291Y-69173291D01*
X106537445Y-69141422D01*
X107114431Y-68564438D01*
X107146291Y-68538291D01*
X107177291Y-68500518D01*
X107250636Y-68411146D01*
X107259740Y-68394114D01*
X108406549Y-67471072D01*
X108587250Y-67471072D01*
X108754408Y-67454608D01*
X108915142Y-67405850D01*
X109063275Y-67326671D01*
X109193115Y-67220115D01*
X109299671Y-67090275D01*
X109378850Y-66942142D01*
X109427608Y-66781408D01*
X109441746Y-66637865D01*
X110026760Y-66167000D01*
X117348000Y-66167000D01*
X117348000Y-68326000D01*
%TO.N,GND*%
G36*
X105283000Y-58928000D02*
G01*
X100990000Y-58928000D01*
X100990000Y-55270000D01*
X105283000Y-55270000D01*
X105283000Y-58928000D01*
G37*
X105283000Y-58928000D02*
X100990000Y-58928000D01*
X100990000Y-55270000D01*
X105283000Y-55270000D01*
X105283000Y-58928000D01*
%TO.N,V_ext_p*%
G36*
X130048000Y-62738000D02*
G01*
X129032000Y-62738000D01*
X129032000Y-59055000D01*
X129029560Y-59030224D01*
X129022333Y-59006399D01*
X129010597Y-58984443D01*
X128994803Y-58965197D01*
X127089803Y-57060197D01*
X127070557Y-57044403D01*
X127048601Y-57032667D01*
X127024776Y-57025440D01*
X127000000Y-57023000D01*
X115209030Y-57023000D01*
X115065587Y-56946328D01*
X114908189Y-56898582D01*
X114785519Y-56886500D01*
X114785518Y-56886500D01*
X114744500Y-56882460D01*
X114703482Y-56886500D01*
X111610518Y-56886500D01*
X111569499Y-56882460D01*
X111528481Y-56886500D01*
X111405811Y-56898582D01*
X111248413Y-56946328D01*
X111104970Y-57023000D01*
X108585000Y-57023000D01*
X108560224Y-57025440D01*
X108536399Y-57032667D01*
X108514443Y-57044403D01*
X108495197Y-57060197D01*
X108479403Y-57079443D01*
X108467667Y-57101399D01*
X108460440Y-57125224D01*
X108458000Y-57150000D01*
X108458000Y-64643000D01*
X106807000Y-64643000D01*
X106807000Y-55372000D01*
X130048000Y-55372000D01*
X130048000Y-62738000D01*
G37*
X130048000Y-62738000D02*
X129032000Y-62738000D01*
X129032000Y-59055000D01*
X129029560Y-59030224D01*
X129022333Y-59006399D01*
X129010597Y-58984443D01*
X128994803Y-58965197D01*
X127089803Y-57060197D01*
X127070557Y-57044403D01*
X127048601Y-57032667D01*
X127024776Y-57025440D01*
X127000000Y-57023000D01*
X115209030Y-57023000D01*
X115065587Y-56946328D01*
X114908189Y-56898582D01*
X114785519Y-56886500D01*
X114785518Y-56886500D01*
X114744500Y-56882460D01*
X114703482Y-56886500D01*
X111610518Y-56886500D01*
X111569499Y-56882460D01*
X111528481Y-56886500D01*
X111405811Y-56898582D01*
X111248413Y-56946328D01*
X111104970Y-57023000D01*
X108585000Y-57023000D01*
X108560224Y-57025440D01*
X108536399Y-57032667D01*
X108514443Y-57044403D01*
X108495197Y-57060197D01*
X108479403Y-57079443D01*
X108467667Y-57101399D01*
X108460440Y-57125224D01*
X108458000Y-57150000D01*
X108458000Y-64643000D01*
X106807000Y-64643000D01*
X106807000Y-55372000D01*
X130048000Y-55372000D01*
X130048000Y-62738000D01*
%TO.N,GND*%
G36*
X118618000Y-65278000D02*
G01*
X116332000Y-65278000D01*
X116332000Y-59890000D01*
X118618000Y-59890000D01*
X118618000Y-65278000D01*
G37*
X118618000Y-65278000D02*
X116332000Y-65278000D01*
X116332000Y-59890000D01*
X118618000Y-59890000D01*
X118618000Y-65278000D01*
%TO.N,V_BAT+*%
G36*
X120523000Y-72263000D02*
G01*
X118237000Y-72263000D01*
X118237000Y-70485000D01*
X118234560Y-70460224D01*
X118227333Y-70436399D01*
X118215597Y-70414443D01*
X118199803Y-70395197D01*
X116332000Y-68527394D01*
X116332000Y-66167000D01*
X120523000Y-66167000D01*
X120523000Y-72263000D01*
G37*
X120523000Y-72263000D02*
X118237000Y-72263000D01*
X118237000Y-70485000D01*
X118234560Y-70460224D01*
X118227333Y-70436399D01*
X118215597Y-70414443D01*
X118199803Y-70395197D01*
X116332000Y-68527394D01*
X116332000Y-66167000D01*
X120523000Y-66167000D01*
X120523000Y-72263000D01*
G36*
X121793000Y-67183000D02*
G01*
X118872000Y-67183000D01*
X118872000Y-66167000D01*
X119380000Y-66167000D01*
X119404776Y-66164560D01*
X119428601Y-66157333D01*
X119450557Y-66145597D01*
X119469803Y-66129803D01*
X119485597Y-66110557D01*
X119497333Y-66088601D01*
X119504560Y-66064776D01*
X119507000Y-66040000D01*
X119507000Y-63846375D01*
X119575000Y-63853072D01*
X120875000Y-63853072D01*
X120999482Y-63840812D01*
X121119180Y-63804502D01*
X121229494Y-63745537D01*
X121326185Y-63666185D01*
X121346024Y-63642011D01*
X121352087Y-63640172D01*
X121376730Y-63627000D01*
X121793000Y-63627000D01*
X121793000Y-67183000D01*
G37*
X121793000Y-67183000D02*
X118872000Y-67183000D01*
X118872000Y-66167000D01*
X119380000Y-66167000D01*
X119404776Y-66164560D01*
X119428601Y-66157333D01*
X119450557Y-66145597D01*
X119469803Y-66129803D01*
X119485597Y-66110557D01*
X119497333Y-66088601D01*
X119504560Y-66064776D01*
X119507000Y-66040000D01*
X119507000Y-63846375D01*
X119575000Y-63853072D01*
X120875000Y-63853072D01*
X120999482Y-63840812D01*
X121119180Y-63804502D01*
X121229494Y-63745537D01*
X121326185Y-63666185D01*
X121346024Y-63642011D01*
X121352087Y-63640172D01*
X121376730Y-63627000D01*
X121793000Y-63627000D01*
X121793000Y-67183000D01*
%TO.N,GND*%
G36*
X133960000Y-66548000D02*
G01*
X132132606Y-66548000D01*
X130937000Y-65352394D01*
X130937000Y-55270000D01*
X133960000Y-55270000D01*
X133960000Y-66548000D01*
G37*
X133960000Y-66548000D02*
X132132606Y-66548000D01*
X130937000Y-65352394D01*
X130937000Y-55270000D01*
X133960000Y-55270000D01*
X133960000Y-66548000D01*
%TD*%
M02*
