%TF.GenerationSoftware,KiCad,Pcbnew,(5.1.6)-1*%
%TF.CreationDate,2020-12-22T23:38:05+01:00*%
%TF.ProjectId,02_Batt_Alim,30325f42-6174-4745-9f41-6c696d2e6b69,rev?*%
%TF.SameCoordinates,Original*%
%TF.FileFunction,Paste,Top*%
%TF.FilePolarity,Positive*%
%FSLAX46Y46*%
G04 Gerber Fmt 4.6, Leading zero omitted, Abs format (unit mm)*
G04 Created by KiCad (PCBNEW (5.1.6)-1) date 2020-12-22 23:38:05*
%MOMM*%
%LPD*%
G01*
G04 APERTURE LIST*
%TA.AperFunction,Profile*%
%ADD10C,0.050000*%
%TD*%
%ADD11R,2.524000X1.700000*%
%ADD12R,2.200000X3.300000*%
%ADD13R,1.300000X0.700000*%
%ADD14R,1.200000X0.550000*%
%ADD15R,3.600000X2.700000*%
%ADD16R,0.900000X0.800000*%
%ADD17R,1.560000X0.400000*%
%ADD18R,1.900000X0.800000*%
%ADD19R,1.100000X1.100000*%
G04 APERTURE END LIST*
D10*
X134620000Y-97790000D02*
X100330000Y-97790000D01*
X134620000Y-54610000D02*
X134620000Y-97790000D01*
X100330000Y-54610000D02*
X134620000Y-54610000D01*
X100330000Y-97790000D02*
X100330000Y-54610000D01*
%TO.C,Q1*%
G36*
G01*
X131930000Y-77065000D02*
X132230000Y-77065000D01*
G75*
G02*
X132380000Y-77215000I0J-150000D01*
G01*
X132380000Y-78865000D01*
G75*
G02*
X132230000Y-79015000I-150000J0D01*
G01*
X131930000Y-79015000D01*
G75*
G02*
X131780000Y-78865000I0J150000D01*
G01*
X131780000Y-77215000D01*
G75*
G02*
X131930000Y-77065000I150000J0D01*
G01*
G37*
G36*
G01*
X130660000Y-77065000D02*
X130960000Y-77065000D01*
G75*
G02*
X131110000Y-77215000I0J-150000D01*
G01*
X131110000Y-78865000D01*
G75*
G02*
X130960000Y-79015000I-150000J0D01*
G01*
X130660000Y-79015000D01*
G75*
G02*
X130510000Y-78865000I0J150000D01*
G01*
X130510000Y-77215000D01*
G75*
G02*
X130660000Y-77065000I150000J0D01*
G01*
G37*
G36*
G01*
X129390000Y-77065000D02*
X129690000Y-77065000D01*
G75*
G02*
X129840000Y-77215000I0J-150000D01*
G01*
X129840000Y-78865000D01*
G75*
G02*
X129690000Y-79015000I-150000J0D01*
G01*
X129390000Y-79015000D01*
G75*
G02*
X129240000Y-78865000I0J150000D01*
G01*
X129240000Y-77215000D01*
G75*
G02*
X129390000Y-77065000I150000J0D01*
G01*
G37*
G36*
G01*
X128120000Y-77065000D02*
X128420000Y-77065000D01*
G75*
G02*
X128570000Y-77215000I0J-150000D01*
G01*
X128570000Y-78865000D01*
G75*
G02*
X128420000Y-79015000I-150000J0D01*
G01*
X128120000Y-79015000D01*
G75*
G02*
X127970000Y-78865000I0J150000D01*
G01*
X127970000Y-77215000D01*
G75*
G02*
X128120000Y-77065000I150000J0D01*
G01*
G37*
G36*
G01*
X128120000Y-72115000D02*
X128420000Y-72115000D01*
G75*
G02*
X128570000Y-72265000I0J-150000D01*
G01*
X128570000Y-73915000D01*
G75*
G02*
X128420000Y-74065000I-150000J0D01*
G01*
X128120000Y-74065000D01*
G75*
G02*
X127970000Y-73915000I0J150000D01*
G01*
X127970000Y-72265000D01*
G75*
G02*
X128120000Y-72115000I150000J0D01*
G01*
G37*
G36*
G01*
X129390000Y-72115000D02*
X129690000Y-72115000D01*
G75*
G02*
X129840000Y-72265000I0J-150000D01*
G01*
X129840000Y-73915000D01*
G75*
G02*
X129690000Y-74065000I-150000J0D01*
G01*
X129390000Y-74065000D01*
G75*
G02*
X129240000Y-73915000I0J150000D01*
G01*
X129240000Y-72265000D01*
G75*
G02*
X129390000Y-72115000I150000J0D01*
G01*
G37*
G36*
G01*
X130660000Y-72115000D02*
X130960000Y-72115000D01*
G75*
G02*
X131110000Y-72265000I0J-150000D01*
G01*
X131110000Y-73915000D01*
G75*
G02*
X130960000Y-74065000I-150000J0D01*
G01*
X130660000Y-74065000D01*
G75*
G02*
X130510000Y-73915000I0J150000D01*
G01*
X130510000Y-72265000D01*
G75*
G02*
X130660000Y-72115000I150000J0D01*
G01*
G37*
G36*
G01*
X131930000Y-72115000D02*
X132230000Y-72115000D01*
G75*
G02*
X132380000Y-72265000I0J-150000D01*
G01*
X132380000Y-73915000D01*
G75*
G02*
X132230000Y-74065000I-150000J0D01*
G01*
X131930000Y-74065000D01*
G75*
G02*
X131780000Y-73915000I0J150000D01*
G01*
X131780000Y-72265000D01*
G75*
G02*
X131930000Y-72115000I150000J0D01*
G01*
G37*
%TD*%
D11*
%TO.C,J8*%
X102870000Y-81280000D03*
X102870000Y-81280000D03*
%TD*%
%TO.C,J11*%
X102870000Y-78740000D03*
X102870000Y-78740000D03*
%TD*%
%TO.C,R17*%
G36*
G01*
X116202750Y-73756000D02*
X116715250Y-73756000D01*
G75*
G02*
X116934000Y-73974750I0J-218750D01*
G01*
X116934000Y-74412250D01*
G75*
G02*
X116715250Y-74631000I-218750J0D01*
G01*
X116202750Y-74631000D01*
G75*
G02*
X115984000Y-74412250I0J218750D01*
G01*
X115984000Y-73974750D01*
G75*
G02*
X116202750Y-73756000I218750J0D01*
G01*
G37*
G36*
G01*
X116202750Y-72181000D02*
X116715250Y-72181000D01*
G75*
G02*
X116934000Y-72399750I0J-218750D01*
G01*
X116934000Y-72837250D01*
G75*
G02*
X116715250Y-73056000I-218750J0D01*
G01*
X116202750Y-73056000D01*
G75*
G02*
X115984000Y-72837250I0J218750D01*
G01*
X115984000Y-72399750D01*
G75*
G02*
X116202750Y-72181000I218750J0D01*
G01*
G37*
%TD*%
%TO.C,C1*%
G36*
G01*
X112651250Y-63150000D02*
X112138750Y-63150000D01*
G75*
G02*
X111920000Y-62931250I0J218750D01*
G01*
X111920000Y-62493750D01*
G75*
G02*
X112138750Y-62275000I218750J0D01*
G01*
X112651250Y-62275000D01*
G75*
G02*
X112870000Y-62493750I0J-218750D01*
G01*
X112870000Y-62931250D01*
G75*
G02*
X112651250Y-63150000I-218750J0D01*
G01*
G37*
G36*
G01*
X112651250Y-64725000D02*
X112138750Y-64725000D01*
G75*
G02*
X111920000Y-64506250I0J218750D01*
G01*
X111920000Y-64068750D01*
G75*
G02*
X112138750Y-63850000I218750J0D01*
G01*
X112651250Y-63850000D01*
G75*
G02*
X112870000Y-64068750I0J-218750D01*
G01*
X112870000Y-64506250D01*
G75*
G02*
X112651250Y-64725000I-218750J0D01*
G01*
G37*
%TD*%
%TO.C,C2*%
G36*
G01*
X108074750Y-67533000D02*
X108587250Y-67533000D01*
G75*
G02*
X108806000Y-67751750I0J-218750D01*
G01*
X108806000Y-68189250D01*
G75*
G02*
X108587250Y-68408000I-218750J0D01*
G01*
X108074750Y-68408000D01*
G75*
G02*
X107856000Y-68189250I0J218750D01*
G01*
X107856000Y-67751750D01*
G75*
G02*
X108074750Y-67533000I218750J0D01*
G01*
G37*
G36*
G01*
X108074750Y-65958000D02*
X108587250Y-65958000D01*
G75*
G02*
X108806000Y-66176750I0J-218750D01*
G01*
X108806000Y-66614250D01*
G75*
G02*
X108587250Y-66833000I-218750J0D01*
G01*
X108074750Y-66833000D01*
G75*
G02*
X107856000Y-66614250I0J218750D01*
G01*
X107856000Y-66176750D01*
G75*
G02*
X108074750Y-65958000I218750J0D01*
G01*
G37*
%TD*%
%TO.C,C3*%
G36*
G01*
X109025000Y-91300000D02*
X106875000Y-91300000D01*
G75*
G02*
X106625000Y-91050000I0J250000D01*
G01*
X106625000Y-90300000D01*
G75*
G02*
X106875000Y-90050000I250000J0D01*
G01*
X109025000Y-90050000D01*
G75*
G02*
X109275000Y-90300000I0J-250000D01*
G01*
X109275000Y-91050000D01*
G75*
G02*
X109025000Y-91300000I-250000J0D01*
G01*
G37*
G36*
G01*
X109025000Y-94100000D02*
X106875000Y-94100000D01*
G75*
G02*
X106625000Y-93850000I0J250000D01*
G01*
X106625000Y-93100000D01*
G75*
G02*
X106875000Y-92850000I250000J0D01*
G01*
X109025000Y-92850000D01*
G75*
G02*
X109275000Y-93100000I0J-250000D01*
G01*
X109275000Y-93850000D01*
G75*
G02*
X109025000Y-94100000I-250000J0D01*
G01*
G37*
%TD*%
%TO.C,C4*%
G36*
G01*
X127830000Y-83960000D02*
X129980000Y-83960000D01*
G75*
G02*
X130230000Y-84210000I0J-250000D01*
G01*
X130230000Y-84960000D01*
G75*
G02*
X129980000Y-85210000I-250000J0D01*
G01*
X127830000Y-85210000D01*
G75*
G02*
X127580000Y-84960000I0J250000D01*
G01*
X127580000Y-84210000D01*
G75*
G02*
X127830000Y-83960000I250000J0D01*
G01*
G37*
G36*
G01*
X127830000Y-81160000D02*
X129980000Y-81160000D01*
G75*
G02*
X130230000Y-81410000I0J-250000D01*
G01*
X130230000Y-82160000D01*
G75*
G02*
X129980000Y-82410000I-250000J0D01*
G01*
X127830000Y-82410000D01*
G75*
G02*
X127580000Y-82160000I0J250000D01*
G01*
X127580000Y-81410000D01*
G75*
G02*
X127830000Y-81160000I250000J0D01*
G01*
G37*
%TD*%
%TO.C,C5*%
G36*
G01*
X109725750Y-70581000D02*
X110238250Y-70581000D01*
G75*
G02*
X110457000Y-70799750I0J-218750D01*
G01*
X110457000Y-71237250D01*
G75*
G02*
X110238250Y-71456000I-218750J0D01*
G01*
X109725750Y-71456000D01*
G75*
G02*
X109507000Y-71237250I0J218750D01*
G01*
X109507000Y-70799750D01*
G75*
G02*
X109725750Y-70581000I218750J0D01*
G01*
G37*
G36*
G01*
X109725750Y-69006000D02*
X110238250Y-69006000D01*
G75*
G02*
X110457000Y-69224750I0J-218750D01*
G01*
X110457000Y-69662250D01*
G75*
G02*
X110238250Y-69881000I-218750J0D01*
G01*
X109725750Y-69881000D01*
G75*
G02*
X109507000Y-69662250I0J218750D01*
G01*
X109507000Y-69224750D01*
G75*
G02*
X109725750Y-69006000I218750J0D01*
G01*
G37*
%TD*%
%TO.C,D2*%
G36*
G01*
X126715000Y-60581250D02*
X126715000Y-60068750D01*
G75*
G02*
X126933750Y-59850000I218750J0D01*
G01*
X127371250Y-59850000D01*
G75*
G02*
X127590000Y-60068750I0J-218750D01*
G01*
X127590000Y-60581250D01*
G75*
G02*
X127371250Y-60800000I-218750J0D01*
G01*
X126933750Y-60800000D01*
G75*
G02*
X126715000Y-60581250I0J218750D01*
G01*
G37*
G36*
G01*
X125140000Y-60581250D02*
X125140000Y-60068750D01*
G75*
G02*
X125358750Y-59850000I218750J0D01*
G01*
X125796250Y-59850000D01*
G75*
G02*
X126015000Y-60068750I0J-218750D01*
G01*
X126015000Y-60581250D01*
G75*
G02*
X125796250Y-60800000I-218750J0D01*
G01*
X125358750Y-60800000D01*
G75*
G02*
X125140000Y-60581250I0J218750D01*
G01*
G37*
%TD*%
%TO.C,D3*%
G36*
G01*
X126715000Y-62486250D02*
X126715000Y-61973750D01*
G75*
G02*
X126933750Y-61755000I218750J0D01*
G01*
X127371250Y-61755000D01*
G75*
G02*
X127590000Y-61973750I0J-218750D01*
G01*
X127590000Y-62486250D01*
G75*
G02*
X127371250Y-62705000I-218750J0D01*
G01*
X126933750Y-62705000D01*
G75*
G02*
X126715000Y-62486250I0J218750D01*
G01*
G37*
G36*
G01*
X125140000Y-62486250D02*
X125140000Y-61973750D01*
G75*
G02*
X125358750Y-61755000I218750J0D01*
G01*
X125796250Y-61755000D01*
G75*
G02*
X126015000Y-61973750I0J-218750D01*
G01*
X126015000Y-62486250D01*
G75*
G02*
X125796250Y-62705000I-218750J0D01*
G01*
X125358750Y-62705000D01*
G75*
G02*
X125140000Y-62486250I0J218750D01*
G01*
G37*
%TD*%
%TO.C,D6*%
G36*
G01*
X126802500Y-93723750D02*
X126802500Y-94236250D01*
G75*
G02*
X126583750Y-94455000I-218750J0D01*
G01*
X126146250Y-94455000D01*
G75*
G02*
X125927500Y-94236250I0J218750D01*
G01*
X125927500Y-93723750D01*
G75*
G02*
X126146250Y-93505000I218750J0D01*
G01*
X126583750Y-93505000D01*
G75*
G02*
X126802500Y-93723750I0J-218750D01*
G01*
G37*
G36*
G01*
X128377500Y-93723750D02*
X128377500Y-94236250D01*
G75*
G02*
X128158750Y-94455000I-218750J0D01*
G01*
X127721250Y-94455000D01*
G75*
G02*
X127502500Y-94236250I0J218750D01*
G01*
X127502500Y-93723750D01*
G75*
G02*
X127721250Y-93505000I218750J0D01*
G01*
X128158750Y-93505000D01*
G75*
G02*
X128377500Y-93723750I0J-218750D01*
G01*
G37*
%TD*%
D12*
%TO.C,IC1*%
X117475000Y-62230000D03*
X117475000Y-62230000D03*
D13*
X114725000Y-64135000D03*
X114725000Y-62865000D03*
X114725000Y-60325000D03*
X114725000Y-61595000D03*
X120225000Y-64135000D03*
X120225000Y-62865000D03*
X120225000Y-60325000D03*
X120225000Y-61595000D03*
%TD*%
D14*
%TO.C,IC2*%
X112238000Y-69850000D03*
X112238000Y-70800000D03*
X112238000Y-68900000D03*
X114838000Y-68900000D03*
X114838000Y-69850000D03*
X114838000Y-70800000D03*
%TD*%
D11*
%TO.C,J1*%
X102870000Y-66040000D03*
X102870000Y-66040000D03*
%TD*%
%TO.C,J2*%
X102870000Y-68580000D03*
X102870000Y-68580000D03*
%TD*%
%TO.C,J3*%
X102870000Y-93980000D03*
X102870000Y-93980000D03*
%TD*%
%TO.C,J4*%
X102870000Y-91440000D03*
X102870000Y-91440000D03*
%TD*%
%TO.C,J5*%
X102870000Y-88900000D03*
X102870000Y-88900000D03*
%TD*%
%TO.C,J6*%
X102870000Y-86360000D03*
X102870000Y-86360000D03*
%TD*%
%TO.C,J7*%
X102870000Y-83820000D03*
X102870000Y-83820000D03*
%TD*%
%TO.C,J9*%
X102870000Y-71120000D03*
X102870000Y-71120000D03*
%TD*%
%TO.C,J10*%
X102870000Y-73660000D03*
X102870000Y-73660000D03*
%TD*%
%TO.C,J12*%
X102870000Y-76200000D03*
X102870000Y-76200000D03*
%TD*%
D15*
%TO.C,L1*%
X121285000Y-79670000D03*
X121285000Y-87970000D03*
%TD*%
D16*
%TO.C,Q2*%
X108855000Y-86995000D03*
X110855000Y-86045000D03*
X110855000Y-87945000D03*
%TD*%
%TO.C,Q3*%
G36*
G01*
X121055000Y-71605000D02*
X121055000Y-71905000D01*
G75*
G02*
X120905000Y-72055000I-150000J0D01*
G01*
X119255000Y-72055000D01*
G75*
G02*
X119105000Y-71905000I0J150000D01*
G01*
X119105000Y-71605000D01*
G75*
G02*
X119255000Y-71455000I150000J0D01*
G01*
X120905000Y-71455000D01*
G75*
G02*
X121055000Y-71605000I0J-150000D01*
G01*
G37*
G36*
G01*
X121055000Y-70335000D02*
X121055000Y-70635000D01*
G75*
G02*
X120905000Y-70785000I-150000J0D01*
G01*
X119255000Y-70785000D01*
G75*
G02*
X119105000Y-70635000I0J150000D01*
G01*
X119105000Y-70335000D01*
G75*
G02*
X119255000Y-70185000I150000J0D01*
G01*
X120905000Y-70185000D01*
G75*
G02*
X121055000Y-70335000I0J-150000D01*
G01*
G37*
G36*
G01*
X121055000Y-69065000D02*
X121055000Y-69365000D01*
G75*
G02*
X120905000Y-69515000I-150000J0D01*
G01*
X119255000Y-69515000D01*
G75*
G02*
X119105000Y-69365000I0J150000D01*
G01*
X119105000Y-69065000D01*
G75*
G02*
X119255000Y-68915000I150000J0D01*
G01*
X120905000Y-68915000D01*
G75*
G02*
X121055000Y-69065000I0J-150000D01*
G01*
G37*
G36*
G01*
X121055000Y-67795000D02*
X121055000Y-68095000D01*
G75*
G02*
X120905000Y-68245000I-150000J0D01*
G01*
X119255000Y-68245000D01*
G75*
G02*
X119105000Y-68095000I0J150000D01*
G01*
X119105000Y-67795000D01*
G75*
G02*
X119255000Y-67645000I150000J0D01*
G01*
X120905000Y-67645000D01*
G75*
G02*
X121055000Y-67795000I0J-150000D01*
G01*
G37*
G36*
G01*
X126005000Y-67795000D02*
X126005000Y-68095000D01*
G75*
G02*
X125855000Y-68245000I-150000J0D01*
G01*
X124205000Y-68245000D01*
G75*
G02*
X124055000Y-68095000I0J150000D01*
G01*
X124055000Y-67795000D01*
G75*
G02*
X124205000Y-67645000I150000J0D01*
G01*
X125855000Y-67645000D01*
G75*
G02*
X126005000Y-67795000I0J-150000D01*
G01*
G37*
G36*
G01*
X126005000Y-69065000D02*
X126005000Y-69365000D01*
G75*
G02*
X125855000Y-69515000I-150000J0D01*
G01*
X124205000Y-69515000D01*
G75*
G02*
X124055000Y-69365000I0J150000D01*
G01*
X124055000Y-69065000D01*
G75*
G02*
X124205000Y-68915000I150000J0D01*
G01*
X125855000Y-68915000D01*
G75*
G02*
X126005000Y-69065000I0J-150000D01*
G01*
G37*
G36*
G01*
X126005000Y-70335000D02*
X126005000Y-70635000D01*
G75*
G02*
X125855000Y-70785000I-150000J0D01*
G01*
X124205000Y-70785000D01*
G75*
G02*
X124055000Y-70635000I0J150000D01*
G01*
X124055000Y-70335000D01*
G75*
G02*
X124205000Y-70185000I150000J0D01*
G01*
X125855000Y-70185000D01*
G75*
G02*
X126005000Y-70335000I0J-150000D01*
G01*
G37*
G36*
G01*
X126005000Y-71605000D02*
X126005000Y-71905000D01*
G75*
G02*
X125855000Y-72055000I-150000J0D01*
G01*
X124205000Y-72055000D01*
G75*
G02*
X124055000Y-71905000I0J150000D01*
G01*
X124055000Y-71605000D01*
G75*
G02*
X124205000Y-71455000I150000J0D01*
G01*
X125855000Y-71455000D01*
G75*
G02*
X126005000Y-71605000I0J-150000D01*
G01*
G37*
%TD*%
D17*
%TO.C,Q4*%
X113370000Y-72685000D03*
X113370000Y-73335000D03*
X113370000Y-73985000D03*
X113370000Y-74635000D03*
X107610000Y-74635000D03*
X107610000Y-73985000D03*
X107610000Y-73335000D03*
X107610000Y-72685000D03*
%TD*%
%TO.C,R1*%
G36*
G01*
X107571250Y-87280000D02*
X107058750Y-87280000D01*
G75*
G02*
X106840000Y-87061250I0J218750D01*
G01*
X106840000Y-86623750D01*
G75*
G02*
X107058750Y-86405000I218750J0D01*
G01*
X107571250Y-86405000D01*
G75*
G02*
X107790000Y-86623750I0J-218750D01*
G01*
X107790000Y-87061250D01*
G75*
G02*
X107571250Y-87280000I-218750J0D01*
G01*
G37*
G36*
G01*
X107571250Y-88855000D02*
X107058750Y-88855000D01*
G75*
G02*
X106840000Y-88636250I0J218750D01*
G01*
X106840000Y-88198750D01*
G75*
G02*
X107058750Y-87980000I218750J0D01*
G01*
X107571250Y-87980000D01*
G75*
G02*
X107790000Y-88198750I0J-218750D01*
G01*
X107790000Y-88636250D01*
G75*
G02*
X107571250Y-88855000I-218750J0D01*
G01*
G37*
%TD*%
%TO.C,R2*%
G36*
G01*
X113532500Y-88521250D02*
X113532500Y-88008750D01*
G75*
G02*
X113751250Y-87790000I218750J0D01*
G01*
X114188750Y-87790000D01*
G75*
G02*
X114407500Y-88008750I0J-218750D01*
G01*
X114407500Y-88521250D01*
G75*
G02*
X114188750Y-88740000I-218750J0D01*
G01*
X113751250Y-88740000D01*
G75*
G02*
X113532500Y-88521250I0J218750D01*
G01*
G37*
G36*
G01*
X111957500Y-88521250D02*
X111957500Y-88008750D01*
G75*
G02*
X112176250Y-87790000I218750J0D01*
G01*
X112613750Y-87790000D01*
G75*
G02*
X112832500Y-88008750I0J-218750D01*
G01*
X112832500Y-88521250D01*
G75*
G02*
X112613750Y-88740000I-218750J0D01*
G01*
X112176250Y-88740000D01*
G75*
G02*
X111957500Y-88521250I0J218750D01*
G01*
G37*
%TD*%
%TO.C,R3*%
G36*
G01*
X107693750Y-82900000D02*
X108206250Y-82900000D01*
G75*
G02*
X108425000Y-83118750I0J-218750D01*
G01*
X108425000Y-83556250D01*
G75*
G02*
X108206250Y-83775000I-218750J0D01*
G01*
X107693750Y-83775000D01*
G75*
G02*
X107475000Y-83556250I0J218750D01*
G01*
X107475000Y-83118750D01*
G75*
G02*
X107693750Y-82900000I218750J0D01*
G01*
G37*
G36*
G01*
X107693750Y-81325000D02*
X108206250Y-81325000D01*
G75*
G02*
X108425000Y-81543750I0J-218750D01*
G01*
X108425000Y-81981250D01*
G75*
G02*
X108206250Y-82200000I-218750J0D01*
G01*
X107693750Y-82200000D01*
G75*
G02*
X107475000Y-81981250I0J218750D01*
G01*
X107475000Y-81543750D01*
G75*
G02*
X107693750Y-81325000I218750J0D01*
G01*
G37*
%TD*%
%TO.C,R4*%
G36*
G01*
X111475000Y-84076250D02*
X111475000Y-83563750D01*
G75*
G02*
X111693750Y-83345000I218750J0D01*
G01*
X112131250Y-83345000D01*
G75*
G02*
X112350000Y-83563750I0J-218750D01*
G01*
X112350000Y-84076250D01*
G75*
G02*
X112131250Y-84295000I-218750J0D01*
G01*
X111693750Y-84295000D01*
G75*
G02*
X111475000Y-84076250I0J218750D01*
G01*
G37*
G36*
G01*
X109900000Y-84076250D02*
X109900000Y-83563750D01*
G75*
G02*
X110118750Y-83345000I218750J0D01*
G01*
X110556250Y-83345000D01*
G75*
G02*
X110775000Y-83563750I0J-218750D01*
G01*
X110775000Y-84076250D01*
G75*
G02*
X110556250Y-84295000I-218750J0D01*
G01*
X110118750Y-84295000D01*
G75*
G02*
X109900000Y-84076250I0J218750D01*
G01*
G37*
%TD*%
%TO.C,R5*%
G36*
G01*
X112832500Y-86103750D02*
X112832500Y-86616250D01*
G75*
G02*
X112613750Y-86835000I-218750J0D01*
G01*
X112176250Y-86835000D01*
G75*
G02*
X111957500Y-86616250I0J218750D01*
G01*
X111957500Y-86103750D01*
G75*
G02*
X112176250Y-85885000I218750J0D01*
G01*
X112613750Y-85885000D01*
G75*
G02*
X112832500Y-86103750I0J-218750D01*
G01*
G37*
G36*
G01*
X114407500Y-86103750D02*
X114407500Y-86616250D01*
G75*
G02*
X114188750Y-86835000I-218750J0D01*
G01*
X113751250Y-86835000D01*
G75*
G02*
X113532500Y-86616250I0J218750D01*
G01*
X113532500Y-86103750D01*
G75*
G02*
X113751250Y-85885000I218750J0D01*
G01*
X114188750Y-85885000D01*
G75*
G02*
X114407500Y-86103750I0J-218750D01*
G01*
G37*
%TD*%
%TO.C,R6*%
G36*
G01*
X122840000Y-60068750D02*
X122840000Y-60581250D01*
G75*
G02*
X122621250Y-60800000I-218750J0D01*
G01*
X122183750Y-60800000D01*
G75*
G02*
X121965000Y-60581250I0J218750D01*
G01*
X121965000Y-60068750D01*
G75*
G02*
X122183750Y-59850000I218750J0D01*
G01*
X122621250Y-59850000D01*
G75*
G02*
X122840000Y-60068750I0J-218750D01*
G01*
G37*
G36*
G01*
X124415000Y-60068750D02*
X124415000Y-60581250D01*
G75*
G02*
X124196250Y-60800000I-218750J0D01*
G01*
X123758750Y-60800000D01*
G75*
G02*
X123540000Y-60581250I0J218750D01*
G01*
X123540000Y-60068750D01*
G75*
G02*
X123758750Y-59850000I218750J0D01*
G01*
X124196250Y-59850000D01*
G75*
G02*
X124415000Y-60068750I0J-218750D01*
G01*
G37*
%TD*%
%TO.C,R7*%
G36*
G01*
X112651250Y-59340000D02*
X112138750Y-59340000D01*
G75*
G02*
X111920000Y-59121250I0J218750D01*
G01*
X111920000Y-58683750D01*
G75*
G02*
X112138750Y-58465000I218750J0D01*
G01*
X112651250Y-58465000D01*
G75*
G02*
X112870000Y-58683750I0J-218750D01*
G01*
X112870000Y-59121250D01*
G75*
G02*
X112651250Y-59340000I-218750J0D01*
G01*
G37*
G36*
G01*
X112651250Y-60915000D02*
X112138750Y-60915000D01*
G75*
G02*
X111920000Y-60696250I0J218750D01*
G01*
X111920000Y-60258750D01*
G75*
G02*
X112138750Y-60040000I218750J0D01*
G01*
X112651250Y-60040000D01*
G75*
G02*
X112870000Y-60258750I0J-218750D01*
G01*
X112870000Y-60696250D01*
G75*
G02*
X112651250Y-60915000I-218750J0D01*
G01*
G37*
%TD*%
%TO.C,R8*%
G36*
G01*
X122840000Y-61973750D02*
X122840000Y-62486250D01*
G75*
G02*
X122621250Y-62705000I-218750J0D01*
G01*
X122183750Y-62705000D01*
G75*
G02*
X121965000Y-62486250I0J218750D01*
G01*
X121965000Y-61973750D01*
G75*
G02*
X122183750Y-61755000I218750J0D01*
G01*
X122621250Y-61755000D01*
G75*
G02*
X122840000Y-61973750I0J-218750D01*
G01*
G37*
G36*
G01*
X124415000Y-61973750D02*
X124415000Y-62486250D01*
G75*
G02*
X124196250Y-62705000I-218750J0D01*
G01*
X123758750Y-62705000D01*
G75*
G02*
X123540000Y-62486250I0J218750D01*
G01*
X123540000Y-61973750D01*
G75*
G02*
X123758750Y-61755000I218750J0D01*
G01*
X124196250Y-61755000D01*
G75*
G02*
X124415000Y-61973750I0J-218750D01*
G01*
G37*
%TD*%
%TO.C,R9*%
G36*
G01*
X108870000Y-58798750D02*
X108870000Y-59311250D01*
G75*
G02*
X108651250Y-59530000I-218750J0D01*
G01*
X108213750Y-59530000D01*
G75*
G02*
X107995000Y-59311250I0J218750D01*
G01*
X107995000Y-58798750D01*
G75*
G02*
X108213750Y-58580000I218750J0D01*
G01*
X108651250Y-58580000D01*
G75*
G02*
X108870000Y-58798750I0J-218750D01*
G01*
G37*
G36*
G01*
X110445000Y-58798750D02*
X110445000Y-59311250D01*
G75*
G02*
X110226250Y-59530000I-218750J0D01*
G01*
X109788750Y-59530000D01*
G75*
G02*
X109570000Y-59311250I0J218750D01*
G01*
X109570000Y-58798750D01*
G75*
G02*
X109788750Y-58580000I218750J0D01*
G01*
X110226250Y-58580000D01*
G75*
G02*
X110445000Y-58798750I0J-218750D01*
G01*
G37*
%TD*%
%TO.C,R10*%
G36*
G01*
X108870000Y-60703750D02*
X108870000Y-61216250D01*
G75*
G02*
X108651250Y-61435000I-218750J0D01*
G01*
X108213750Y-61435000D01*
G75*
G02*
X107995000Y-61216250I0J218750D01*
G01*
X107995000Y-60703750D01*
G75*
G02*
X108213750Y-60485000I218750J0D01*
G01*
X108651250Y-60485000D01*
G75*
G02*
X108870000Y-60703750I0J-218750D01*
G01*
G37*
G36*
G01*
X110445000Y-60703750D02*
X110445000Y-61216250D01*
G75*
G02*
X110226250Y-61435000I-218750J0D01*
G01*
X109788750Y-61435000D01*
G75*
G02*
X109570000Y-61216250I0J218750D01*
G01*
X109570000Y-60703750D01*
G75*
G02*
X109788750Y-60485000I218750J0D01*
G01*
X110226250Y-60485000D01*
G75*
G02*
X110445000Y-60703750I0J-218750D01*
G01*
G37*
%TD*%
%TO.C,R11*%
G36*
G01*
X124745000Y-65783750D02*
X124745000Y-66296250D01*
G75*
G02*
X124526250Y-66515000I-218750J0D01*
G01*
X124088750Y-66515000D01*
G75*
G02*
X123870000Y-66296250I0J218750D01*
G01*
X123870000Y-65783750D01*
G75*
G02*
X124088750Y-65565000I218750J0D01*
G01*
X124526250Y-65565000D01*
G75*
G02*
X124745000Y-65783750I0J-218750D01*
G01*
G37*
G36*
G01*
X126320000Y-65783750D02*
X126320000Y-66296250D01*
G75*
G02*
X126101250Y-66515000I-218750J0D01*
G01*
X125663750Y-66515000D01*
G75*
G02*
X125445000Y-66296250I0J218750D01*
G01*
X125445000Y-65783750D01*
G75*
G02*
X125663750Y-65565000I218750J0D01*
G01*
X126101250Y-65565000D01*
G75*
G02*
X126320000Y-65783750I0J-218750D01*
G01*
G37*
%TD*%
%TO.C,R12*%
G36*
G01*
X108870000Y-62608750D02*
X108870000Y-63121250D01*
G75*
G02*
X108651250Y-63340000I-218750J0D01*
G01*
X108213750Y-63340000D01*
G75*
G02*
X107995000Y-63121250I0J218750D01*
G01*
X107995000Y-62608750D01*
G75*
G02*
X108213750Y-62390000I218750J0D01*
G01*
X108651250Y-62390000D01*
G75*
G02*
X108870000Y-62608750I0J-218750D01*
G01*
G37*
G36*
G01*
X110445000Y-62608750D02*
X110445000Y-63121250D01*
G75*
G02*
X110226250Y-63340000I-218750J0D01*
G01*
X109788750Y-63340000D01*
G75*
G02*
X109570000Y-63121250I0J218750D01*
G01*
X109570000Y-62608750D01*
G75*
G02*
X109788750Y-62390000I218750J0D01*
G01*
X110226250Y-62390000D01*
G75*
G02*
X110445000Y-62608750I0J-218750D01*
G01*
G37*
%TD*%
%TO.C,R13*%
G36*
G01*
X124745000Y-63878750D02*
X124745000Y-64391250D01*
G75*
G02*
X124526250Y-64610000I-218750J0D01*
G01*
X124088750Y-64610000D01*
G75*
G02*
X123870000Y-64391250I0J218750D01*
G01*
X123870000Y-63878750D01*
G75*
G02*
X124088750Y-63660000I218750J0D01*
G01*
X124526250Y-63660000D01*
G75*
G02*
X124745000Y-63878750I0J-218750D01*
G01*
G37*
G36*
G01*
X126320000Y-63878750D02*
X126320000Y-64391250D01*
G75*
G02*
X126101250Y-64610000I-218750J0D01*
G01*
X125663750Y-64610000D01*
G75*
G02*
X125445000Y-64391250I0J218750D01*
G01*
X125445000Y-63878750D01*
G75*
G02*
X125663750Y-63660000I218750J0D01*
G01*
X126101250Y-63660000D01*
G75*
G02*
X126320000Y-63878750I0J-218750D01*
G01*
G37*
%TD*%
%TO.C,R14*%
G36*
G01*
X108870000Y-64513750D02*
X108870000Y-65026250D01*
G75*
G02*
X108651250Y-65245000I-218750J0D01*
G01*
X108213750Y-65245000D01*
G75*
G02*
X107995000Y-65026250I0J218750D01*
G01*
X107995000Y-64513750D01*
G75*
G02*
X108213750Y-64295000I218750J0D01*
G01*
X108651250Y-64295000D01*
G75*
G02*
X108870000Y-64513750I0J-218750D01*
G01*
G37*
G36*
G01*
X110445000Y-64513750D02*
X110445000Y-65026250D01*
G75*
G02*
X110226250Y-65245000I-218750J0D01*
G01*
X109788750Y-65245000D01*
G75*
G02*
X109570000Y-65026250I0J218750D01*
G01*
X109570000Y-64513750D01*
G75*
G02*
X109788750Y-64295000I218750J0D01*
G01*
X110226250Y-64295000D01*
G75*
G02*
X110445000Y-64513750I0J-218750D01*
G01*
G37*
%TD*%
%TO.C,R15*%
G36*
G01*
X131160000Y-94236250D02*
X131160000Y-93723750D01*
G75*
G02*
X131378750Y-93505000I218750J0D01*
G01*
X131816250Y-93505000D01*
G75*
G02*
X132035000Y-93723750I0J-218750D01*
G01*
X132035000Y-94236250D01*
G75*
G02*
X131816250Y-94455000I-218750J0D01*
G01*
X131378750Y-94455000D01*
G75*
G02*
X131160000Y-94236250I0J218750D01*
G01*
G37*
G36*
G01*
X129585000Y-94236250D02*
X129585000Y-93723750D01*
G75*
G02*
X129803750Y-93505000I218750J0D01*
G01*
X130241250Y-93505000D01*
G75*
G02*
X130460000Y-93723750I0J-218750D01*
G01*
X130460000Y-94236250D01*
G75*
G02*
X130241250Y-94455000I-218750J0D01*
G01*
X129803750Y-94455000D01*
G75*
G02*
X129585000Y-94236250I0J218750D01*
G01*
G37*
%TD*%
%TO.C,R16*%
G36*
G01*
X108587250Y-69881000D02*
X108074750Y-69881000D01*
G75*
G02*
X107856000Y-69662250I0J218750D01*
G01*
X107856000Y-69224750D01*
G75*
G02*
X108074750Y-69006000I218750J0D01*
G01*
X108587250Y-69006000D01*
G75*
G02*
X108806000Y-69224750I0J-218750D01*
G01*
X108806000Y-69662250D01*
G75*
G02*
X108587250Y-69881000I-218750J0D01*
G01*
G37*
G36*
G01*
X108587250Y-71456000D02*
X108074750Y-71456000D01*
G75*
G02*
X107856000Y-71237250I0J218750D01*
G01*
X107856000Y-70799750D01*
G75*
G02*
X108074750Y-70581000I218750J0D01*
G01*
X108587250Y-70581000D01*
G75*
G02*
X108806000Y-70799750I0J-218750D01*
G01*
X108806000Y-71237250D01*
G75*
G02*
X108587250Y-71456000I-218750J0D01*
G01*
G37*
%TD*%
D18*
%TO.C,U1*%
X111530000Y-93980000D03*
X114530000Y-93030000D03*
X114530000Y-94930000D03*
%TD*%
D19*
%TO.C,D1*%
X107690000Y-78740000D03*
X110490000Y-78740000D03*
%TD*%
%TO.C,D4*%
X129540000Y-65532000D03*
X129540000Y-62732000D03*
%TD*%
%TO.C,D5*%
X111630000Y-90805000D03*
X114430000Y-90805000D03*
%TD*%
%TO.C,D7*%
X103629000Y-60452000D03*
X106429000Y-60452000D03*
%TD*%
%TO.C,D8*%
X106429000Y-62992000D03*
X103629000Y-62992000D03*
%TD*%
M02*
