%TF.GenerationSoftware,KiCad,Pcbnew,(5.1.9)-1*%
%TF.CreationDate,2021-05-31T10:41:26+02:00*%
%TF.ProjectId,02_Batt_Alim,30325f42-6174-4745-9f41-6c696d2e6b69,rev?*%
%TF.SameCoordinates,Original*%
%TF.FileFunction,Soldermask,Bot*%
%TF.FilePolarity,Negative*%
%FSLAX46Y46*%
G04 Gerber Fmt 4.6, Leading zero omitted, Abs format (unit mm)*
G04 Created by KiCad (PCBNEW (5.1.9)-1) date 2021-05-31 10:41:26*
%MOMM*%
%LPD*%
G01*
G04 APERTURE LIST*
%TA.AperFunction,Profile*%
%ADD10C,0.050000*%
%TD*%
%ADD11C,1.100000*%
%ADD12C,1.624000*%
%ADD13C,0.100000*%
G04 APERTURE END LIST*
D10*
X130810000Y-82550000D02*
X129540000Y-82550000D01*
X130810000Y-85090000D02*
X130810000Y-82550000D01*
X129540000Y-85090000D02*
X130810000Y-85090000D01*
X129540000Y-87630000D02*
X129540000Y-85090000D01*
X100330000Y-85090000D02*
X101600000Y-85090000D01*
X100330000Y-80010000D02*
X100330000Y-85090000D01*
X101600000Y-80010000D02*
X100330000Y-80010000D01*
X101600000Y-77470000D02*
X101600000Y-80010000D01*
X100330000Y-77470000D02*
X101600000Y-77470000D01*
X100330000Y-72390000D02*
X100330000Y-77470000D01*
X101600000Y-72390000D02*
X100330000Y-72390000D01*
X101600000Y-69850000D02*
X101600000Y-72390000D01*
X100340000Y-69850000D02*
X101600000Y-69850000D01*
X129540000Y-62230000D02*
X129540000Y-82550000D01*
X101600000Y-62230000D02*
X129540000Y-62230000D01*
X101600000Y-85090000D02*
X101600000Y-87630000D01*
X101600000Y-62230000D02*
X101600000Y-64770000D01*
X101600000Y-64770000D02*
X100330000Y-64770000D01*
X129540000Y-87630000D02*
X101600000Y-87630000D01*
X100340000Y-69850000D02*
X100330000Y-64770000D01*
%TO.C,IC1*%
G36*
G01*
X115790000Y-68840000D02*
X115790000Y-72140000D01*
G75*
G02*
X115740000Y-72190000I-50000J0D01*
G01*
X113540000Y-72190000D01*
G75*
G02*
X113490000Y-72140000I0J50000D01*
G01*
X113490000Y-68840000D01*
G75*
G02*
X113540000Y-68790000I50000J0D01*
G01*
X115740000Y-68790000D01*
G75*
G02*
X115790000Y-68840000I0J-50000D01*
G01*
G37*
D11*
X114005000Y-69347000D03*
X114005000Y-70490000D03*
X115275000Y-70490000D03*
X115275000Y-69347000D03*
X115275000Y-71633000D03*
X114005000Y-71633000D03*
%TD*%
D12*
%TO.C,J1*%
X101600000Y-66040000D03*
D13*
G36*
X101939650Y-66939999D02*
G01*
X101927782Y-66939916D01*
X101924993Y-66939818D01*
X101842112Y-66934604D01*
X101837256Y-66934060D01*
X101755280Y-66920782D01*
X101750503Y-66919766D01*
X101670214Y-66898553D01*
X101665558Y-66897076D01*
X101587721Y-66868129D01*
X101583231Y-66866205D01*
X101508591Y-66829801D01*
X101504309Y-66827447D01*
X101433578Y-66783932D01*
X101429548Y-66781173D01*
X101363401Y-66730965D01*
X101359659Y-66727825D01*
X101298726Y-66671401D01*
X101295308Y-66667910D01*
X101240173Y-66605809D01*
X101237112Y-66602003D01*
X101188299Y-66534819D01*
X101185624Y-66530731D01*
X101143601Y-66459104D01*
X101141338Y-66454774D01*
X101106505Y-66379388D01*
X101104675Y-66374859D01*
X101077364Y-66296433D01*
X101075985Y-66291747D01*
X101056458Y-66211031D01*
X101055543Y-66206233D01*
X101043985Y-66123997D01*
X101043542Y-66119131D01*
X101040065Y-66036159D01*
X101040099Y-66031275D01*
X101044734Y-65948360D01*
X101045245Y-65943501D01*
X101057950Y-65861434D01*
X101058932Y-65856650D01*
X101079584Y-65776214D01*
X101081028Y-65771547D01*
X101109431Y-65693511D01*
X101111324Y-65689008D01*
X101147207Y-65614115D01*
X101149531Y-65609818D01*
X101192550Y-65538785D01*
X101195282Y-65534735D01*
X101245028Y-65468239D01*
X101248141Y-65464475D01*
X101304138Y-65403150D01*
X101307604Y-65399708D01*
X101369318Y-65344140D01*
X101373104Y-65341052D01*
X101439946Y-65291772D01*
X101444015Y-65289069D01*
X101515347Y-65246547D01*
X101519660Y-65244254D01*
X101594801Y-65208895D01*
X101599317Y-65207033D01*
X101677550Y-65179175D01*
X101682227Y-65177763D01*
X101762805Y-65157673D01*
X101767597Y-65156724D01*
X101849751Y-65144593D01*
X101854612Y-65144117D01*
X101937557Y-65140060D01*
X101940000Y-65140000D01*
X104990000Y-65140000D01*
X104999755Y-65140961D01*
X105009134Y-65143806D01*
X105017779Y-65148427D01*
X105025355Y-65154645D01*
X105031573Y-65162221D01*
X105036194Y-65170866D01*
X105039039Y-65180245D01*
X105040000Y-65190000D01*
X105040000Y-66890000D01*
X105039039Y-66899755D01*
X105036194Y-66909134D01*
X105031573Y-66917779D01*
X105025355Y-66925355D01*
X105017779Y-66931573D01*
X105009134Y-66936194D01*
X104999755Y-66939039D01*
X104990000Y-66940000D01*
X101940000Y-66940000D01*
X101939650Y-66939999D01*
G37*
%TD*%
D12*
%TO.C,J2*%
X101600000Y-68580000D03*
D13*
G36*
X101939650Y-69479999D02*
G01*
X101927782Y-69479916D01*
X101924993Y-69479818D01*
X101842112Y-69474604D01*
X101837256Y-69474060D01*
X101755280Y-69460782D01*
X101750503Y-69459766D01*
X101670214Y-69438553D01*
X101665558Y-69437076D01*
X101587721Y-69408129D01*
X101583231Y-69406205D01*
X101508591Y-69369801D01*
X101504309Y-69367447D01*
X101433578Y-69323932D01*
X101429548Y-69321173D01*
X101363401Y-69270965D01*
X101359659Y-69267825D01*
X101298726Y-69211401D01*
X101295308Y-69207910D01*
X101240173Y-69145809D01*
X101237112Y-69142003D01*
X101188299Y-69074819D01*
X101185624Y-69070731D01*
X101143601Y-68999104D01*
X101141338Y-68994774D01*
X101106505Y-68919388D01*
X101104675Y-68914859D01*
X101077364Y-68836433D01*
X101075985Y-68831747D01*
X101056458Y-68751031D01*
X101055543Y-68746233D01*
X101043985Y-68663997D01*
X101043542Y-68659131D01*
X101040065Y-68576159D01*
X101040099Y-68571275D01*
X101044734Y-68488360D01*
X101045245Y-68483501D01*
X101057950Y-68401434D01*
X101058932Y-68396650D01*
X101079584Y-68316214D01*
X101081028Y-68311547D01*
X101109431Y-68233511D01*
X101111324Y-68229008D01*
X101147207Y-68154115D01*
X101149531Y-68149818D01*
X101192550Y-68078785D01*
X101195282Y-68074735D01*
X101245028Y-68008239D01*
X101248141Y-68004475D01*
X101304138Y-67943150D01*
X101307604Y-67939708D01*
X101369318Y-67884140D01*
X101373104Y-67881052D01*
X101439946Y-67831772D01*
X101444015Y-67829069D01*
X101515347Y-67786547D01*
X101519660Y-67784254D01*
X101594801Y-67748895D01*
X101599317Y-67747033D01*
X101677550Y-67719175D01*
X101682227Y-67717763D01*
X101762805Y-67697673D01*
X101767597Y-67696724D01*
X101849751Y-67684593D01*
X101854612Y-67684117D01*
X101937557Y-67680060D01*
X101940000Y-67680000D01*
X104990000Y-67680000D01*
X104999755Y-67680961D01*
X105009134Y-67683806D01*
X105017779Y-67688427D01*
X105025355Y-67694645D01*
X105031573Y-67702221D01*
X105036194Y-67710866D01*
X105039039Y-67720245D01*
X105040000Y-67730000D01*
X105040000Y-69430000D01*
X105039039Y-69439755D01*
X105036194Y-69449134D01*
X105031573Y-69457779D01*
X105025355Y-69465355D01*
X105017779Y-69471573D01*
X105009134Y-69476194D01*
X104999755Y-69479039D01*
X104990000Y-69480000D01*
X101940000Y-69480000D01*
X101939650Y-69479999D01*
G37*
%TD*%
D12*
%TO.C,J3*%
X101600000Y-81280000D03*
D13*
G36*
X101939650Y-82179999D02*
G01*
X101927782Y-82179916D01*
X101924993Y-82179818D01*
X101842112Y-82174604D01*
X101837256Y-82174060D01*
X101755280Y-82160782D01*
X101750503Y-82159766D01*
X101670214Y-82138553D01*
X101665558Y-82137076D01*
X101587721Y-82108129D01*
X101583231Y-82106205D01*
X101508591Y-82069801D01*
X101504309Y-82067447D01*
X101433578Y-82023932D01*
X101429548Y-82021173D01*
X101363401Y-81970965D01*
X101359659Y-81967825D01*
X101298726Y-81911401D01*
X101295308Y-81907910D01*
X101240173Y-81845809D01*
X101237112Y-81842003D01*
X101188299Y-81774819D01*
X101185624Y-81770731D01*
X101143601Y-81699104D01*
X101141338Y-81694774D01*
X101106505Y-81619388D01*
X101104675Y-81614859D01*
X101077364Y-81536433D01*
X101075985Y-81531747D01*
X101056458Y-81451031D01*
X101055543Y-81446233D01*
X101043985Y-81363997D01*
X101043542Y-81359131D01*
X101040065Y-81276159D01*
X101040099Y-81271275D01*
X101044734Y-81188360D01*
X101045245Y-81183501D01*
X101057950Y-81101434D01*
X101058932Y-81096650D01*
X101079584Y-81016214D01*
X101081028Y-81011547D01*
X101109431Y-80933511D01*
X101111324Y-80929008D01*
X101147207Y-80854115D01*
X101149531Y-80849818D01*
X101192550Y-80778785D01*
X101195282Y-80774735D01*
X101245028Y-80708239D01*
X101248141Y-80704475D01*
X101304138Y-80643150D01*
X101307604Y-80639708D01*
X101369318Y-80584140D01*
X101373104Y-80581052D01*
X101439946Y-80531772D01*
X101444015Y-80529069D01*
X101515347Y-80486547D01*
X101519660Y-80484254D01*
X101594801Y-80448895D01*
X101599317Y-80447033D01*
X101677550Y-80419175D01*
X101682227Y-80417763D01*
X101762805Y-80397673D01*
X101767597Y-80396724D01*
X101849751Y-80384593D01*
X101854612Y-80384117D01*
X101937557Y-80380060D01*
X101940000Y-80380000D01*
X104990000Y-80380000D01*
X104999755Y-80380961D01*
X105009134Y-80383806D01*
X105017779Y-80388427D01*
X105025355Y-80394645D01*
X105031573Y-80402221D01*
X105036194Y-80410866D01*
X105039039Y-80420245D01*
X105040000Y-80430000D01*
X105040000Y-82130000D01*
X105039039Y-82139755D01*
X105036194Y-82149134D01*
X105031573Y-82157779D01*
X105025355Y-82165355D01*
X105017779Y-82171573D01*
X105009134Y-82176194D01*
X104999755Y-82179039D01*
X104990000Y-82180000D01*
X101940000Y-82180000D01*
X101939650Y-82179999D01*
G37*
%TD*%
D12*
%TO.C,J9*%
X101600000Y-73660000D03*
D13*
G36*
X101939650Y-74559999D02*
G01*
X101927782Y-74559916D01*
X101924993Y-74559818D01*
X101842112Y-74554604D01*
X101837256Y-74554060D01*
X101755280Y-74540782D01*
X101750503Y-74539766D01*
X101670214Y-74518553D01*
X101665558Y-74517076D01*
X101587721Y-74488129D01*
X101583231Y-74486205D01*
X101508591Y-74449801D01*
X101504309Y-74447447D01*
X101433578Y-74403932D01*
X101429548Y-74401173D01*
X101363401Y-74350965D01*
X101359659Y-74347825D01*
X101298726Y-74291401D01*
X101295308Y-74287910D01*
X101240173Y-74225809D01*
X101237112Y-74222003D01*
X101188299Y-74154819D01*
X101185624Y-74150731D01*
X101143601Y-74079104D01*
X101141338Y-74074774D01*
X101106505Y-73999388D01*
X101104675Y-73994859D01*
X101077364Y-73916433D01*
X101075985Y-73911747D01*
X101056458Y-73831031D01*
X101055543Y-73826233D01*
X101043985Y-73743997D01*
X101043542Y-73739131D01*
X101040065Y-73656159D01*
X101040099Y-73651275D01*
X101044734Y-73568360D01*
X101045245Y-73563501D01*
X101057950Y-73481434D01*
X101058932Y-73476650D01*
X101079584Y-73396214D01*
X101081028Y-73391547D01*
X101109431Y-73313511D01*
X101111324Y-73309008D01*
X101147207Y-73234115D01*
X101149531Y-73229818D01*
X101192550Y-73158785D01*
X101195282Y-73154735D01*
X101245028Y-73088239D01*
X101248141Y-73084475D01*
X101304138Y-73023150D01*
X101307604Y-73019708D01*
X101369318Y-72964140D01*
X101373104Y-72961052D01*
X101439946Y-72911772D01*
X101444015Y-72909069D01*
X101515347Y-72866547D01*
X101519660Y-72864254D01*
X101594801Y-72828895D01*
X101599317Y-72827033D01*
X101677550Y-72799175D01*
X101682227Y-72797763D01*
X101762805Y-72777673D01*
X101767597Y-72776724D01*
X101849751Y-72764593D01*
X101854612Y-72764117D01*
X101937557Y-72760060D01*
X101940000Y-72760000D01*
X104990000Y-72760000D01*
X104999755Y-72760961D01*
X105009134Y-72763806D01*
X105017779Y-72768427D01*
X105025355Y-72774645D01*
X105031573Y-72782221D01*
X105036194Y-72790866D01*
X105039039Y-72800245D01*
X105040000Y-72810000D01*
X105040000Y-74510000D01*
X105039039Y-74519755D01*
X105036194Y-74529134D01*
X105031573Y-74537779D01*
X105025355Y-74545355D01*
X105017779Y-74551573D01*
X105009134Y-74556194D01*
X104999755Y-74559039D01*
X104990000Y-74560000D01*
X101940000Y-74560000D01*
X101939650Y-74559999D01*
G37*
%TD*%
D12*
%TO.C,J4*%
X101600000Y-76200000D03*
D13*
G36*
X101939650Y-77099999D02*
G01*
X101927782Y-77099916D01*
X101924993Y-77099818D01*
X101842112Y-77094604D01*
X101837256Y-77094060D01*
X101755280Y-77080782D01*
X101750503Y-77079766D01*
X101670214Y-77058553D01*
X101665558Y-77057076D01*
X101587721Y-77028129D01*
X101583231Y-77026205D01*
X101508591Y-76989801D01*
X101504309Y-76987447D01*
X101433578Y-76943932D01*
X101429548Y-76941173D01*
X101363401Y-76890965D01*
X101359659Y-76887825D01*
X101298726Y-76831401D01*
X101295308Y-76827910D01*
X101240173Y-76765809D01*
X101237112Y-76762003D01*
X101188299Y-76694819D01*
X101185624Y-76690731D01*
X101143601Y-76619104D01*
X101141338Y-76614774D01*
X101106505Y-76539388D01*
X101104675Y-76534859D01*
X101077364Y-76456433D01*
X101075985Y-76451747D01*
X101056458Y-76371031D01*
X101055543Y-76366233D01*
X101043985Y-76283997D01*
X101043542Y-76279131D01*
X101040065Y-76196159D01*
X101040099Y-76191275D01*
X101044734Y-76108360D01*
X101045245Y-76103501D01*
X101057950Y-76021434D01*
X101058932Y-76016650D01*
X101079584Y-75936214D01*
X101081028Y-75931547D01*
X101109431Y-75853511D01*
X101111324Y-75849008D01*
X101147207Y-75774115D01*
X101149531Y-75769818D01*
X101192550Y-75698785D01*
X101195282Y-75694735D01*
X101245028Y-75628239D01*
X101248141Y-75624475D01*
X101304138Y-75563150D01*
X101307604Y-75559708D01*
X101369318Y-75504140D01*
X101373104Y-75501052D01*
X101439946Y-75451772D01*
X101444015Y-75449069D01*
X101515347Y-75406547D01*
X101519660Y-75404254D01*
X101594801Y-75368895D01*
X101599317Y-75367033D01*
X101677550Y-75339175D01*
X101682227Y-75337763D01*
X101762805Y-75317673D01*
X101767597Y-75316724D01*
X101849751Y-75304593D01*
X101854612Y-75304117D01*
X101937557Y-75300060D01*
X101940000Y-75300000D01*
X104990000Y-75300000D01*
X104999755Y-75300961D01*
X105009134Y-75303806D01*
X105017779Y-75308427D01*
X105025355Y-75314645D01*
X105031573Y-75322221D01*
X105036194Y-75330866D01*
X105039039Y-75340245D01*
X105040000Y-75350000D01*
X105040000Y-77050000D01*
X105039039Y-77059755D01*
X105036194Y-77069134D01*
X105031573Y-77077779D01*
X105025355Y-77085355D01*
X105017779Y-77091573D01*
X105009134Y-77096194D01*
X104999755Y-77099039D01*
X104990000Y-77100000D01*
X101940000Y-77100000D01*
X101939650Y-77099999D01*
G37*
%TD*%
D12*
%TO.C,J5*%
X129540000Y-83820000D03*
D13*
G36*
X129200350Y-82920001D02*
G01*
X129212218Y-82920084D01*
X129215007Y-82920182D01*
X129297888Y-82925396D01*
X129302744Y-82925940D01*
X129384720Y-82939218D01*
X129389497Y-82940234D01*
X129469786Y-82961447D01*
X129474442Y-82962924D01*
X129552279Y-82991871D01*
X129556769Y-82993795D01*
X129631409Y-83030199D01*
X129635691Y-83032553D01*
X129706422Y-83076068D01*
X129710452Y-83078827D01*
X129776599Y-83129035D01*
X129780341Y-83132175D01*
X129841274Y-83188599D01*
X129844692Y-83192090D01*
X129899827Y-83254191D01*
X129902888Y-83257997D01*
X129951701Y-83325181D01*
X129954376Y-83329269D01*
X129996399Y-83400896D01*
X129998662Y-83405226D01*
X130033495Y-83480612D01*
X130035325Y-83485141D01*
X130062636Y-83563567D01*
X130064015Y-83568253D01*
X130083542Y-83648969D01*
X130084457Y-83653767D01*
X130096015Y-83736003D01*
X130096458Y-83740869D01*
X130099935Y-83823841D01*
X130099901Y-83828725D01*
X130095266Y-83911640D01*
X130094755Y-83916499D01*
X130082050Y-83998566D01*
X130081068Y-84003350D01*
X130060416Y-84083786D01*
X130058972Y-84088453D01*
X130030569Y-84166489D01*
X130028676Y-84170992D01*
X129992793Y-84245885D01*
X129990469Y-84250182D01*
X129947450Y-84321215D01*
X129944718Y-84325265D01*
X129894972Y-84391761D01*
X129891859Y-84395525D01*
X129835862Y-84456850D01*
X129832396Y-84460292D01*
X129770682Y-84515860D01*
X129766896Y-84518948D01*
X129700054Y-84568228D01*
X129695985Y-84570931D01*
X129624653Y-84613453D01*
X129620340Y-84615746D01*
X129545199Y-84651105D01*
X129540683Y-84652967D01*
X129462450Y-84680825D01*
X129457773Y-84682237D01*
X129377195Y-84702327D01*
X129372403Y-84703276D01*
X129290249Y-84715407D01*
X129285388Y-84715883D01*
X129202443Y-84719940D01*
X129200000Y-84720000D01*
X126150000Y-84720000D01*
X126140245Y-84719039D01*
X126130866Y-84716194D01*
X126122221Y-84711573D01*
X126114645Y-84705355D01*
X126108427Y-84697779D01*
X126103806Y-84689134D01*
X126100961Y-84679755D01*
X126100000Y-84670000D01*
X126100000Y-82970000D01*
X126100961Y-82960245D01*
X126103806Y-82950866D01*
X126108427Y-82942221D01*
X126114645Y-82934645D01*
X126122221Y-82928427D01*
X126130866Y-82923806D01*
X126140245Y-82920961D01*
X126150000Y-82920000D01*
X129200000Y-82920000D01*
X129200350Y-82920001D01*
G37*
%TD*%
D12*
%TO.C,J6*%
X101600000Y-83820000D03*
D13*
G36*
X101939650Y-84719999D02*
G01*
X101927782Y-84719916D01*
X101924993Y-84719818D01*
X101842112Y-84714604D01*
X101837256Y-84714060D01*
X101755280Y-84700782D01*
X101750503Y-84699766D01*
X101670214Y-84678553D01*
X101665558Y-84677076D01*
X101587721Y-84648129D01*
X101583231Y-84646205D01*
X101508591Y-84609801D01*
X101504309Y-84607447D01*
X101433578Y-84563932D01*
X101429548Y-84561173D01*
X101363401Y-84510965D01*
X101359659Y-84507825D01*
X101298726Y-84451401D01*
X101295308Y-84447910D01*
X101240173Y-84385809D01*
X101237112Y-84382003D01*
X101188299Y-84314819D01*
X101185624Y-84310731D01*
X101143601Y-84239104D01*
X101141338Y-84234774D01*
X101106505Y-84159388D01*
X101104675Y-84154859D01*
X101077364Y-84076433D01*
X101075985Y-84071747D01*
X101056458Y-83991031D01*
X101055543Y-83986233D01*
X101043985Y-83903997D01*
X101043542Y-83899131D01*
X101040065Y-83816159D01*
X101040099Y-83811275D01*
X101044734Y-83728360D01*
X101045245Y-83723501D01*
X101057950Y-83641434D01*
X101058932Y-83636650D01*
X101079584Y-83556214D01*
X101081028Y-83551547D01*
X101109431Y-83473511D01*
X101111324Y-83469008D01*
X101147207Y-83394115D01*
X101149531Y-83389818D01*
X101192550Y-83318785D01*
X101195282Y-83314735D01*
X101245028Y-83248239D01*
X101248141Y-83244475D01*
X101304138Y-83183150D01*
X101307604Y-83179708D01*
X101369318Y-83124140D01*
X101373104Y-83121052D01*
X101439946Y-83071772D01*
X101444015Y-83069069D01*
X101515347Y-83026547D01*
X101519660Y-83024254D01*
X101594801Y-82988895D01*
X101599317Y-82987033D01*
X101677550Y-82959175D01*
X101682227Y-82957763D01*
X101762805Y-82937673D01*
X101767597Y-82936724D01*
X101849751Y-82924593D01*
X101854612Y-82924117D01*
X101937557Y-82920060D01*
X101940000Y-82920000D01*
X104990000Y-82920000D01*
X104999755Y-82920961D01*
X105009134Y-82923806D01*
X105017779Y-82928427D01*
X105025355Y-82934645D01*
X105031573Y-82942221D01*
X105036194Y-82950866D01*
X105039039Y-82960245D01*
X105040000Y-82970000D01*
X105040000Y-84670000D01*
X105039039Y-84679755D01*
X105036194Y-84689134D01*
X105031573Y-84697779D01*
X105025355Y-84705355D01*
X105017779Y-84711573D01*
X105009134Y-84716194D01*
X104999755Y-84719039D01*
X104990000Y-84720000D01*
X101940000Y-84720000D01*
X101939650Y-84719999D01*
G37*
%TD*%
M02*
