M48
; DRILL file {KiCad (5.1.6)-1} date 12/16/20 00:39:51
; FORMAT={-:-/ absolute / inch / decimal}
; #@! TF.CreationDate,2020-12-16T00:39:51+01:00
; #@! TF.GenerationSoftware,Kicad,Pcbnew,(5.1.6)-1
; #@! TF.FileFunction,Plated,1,2,PTH
FMAT,2
INCH
T1C0.0236
T2C0.0300
T3C0.0394
%
G90
G05
T1
X4.015Y-2.25
X4.115Y-2.25
X4.26Y-2.63
X4.27Y-2.74
X4.33Y-2.625
X4.425Y-2.955
X4.43Y-2.43
X4.49Y-2.32
X4.51Y-2.62
X4.62Y-2.85
X4.775Y-2.9
X4.845Y-2.525
X5.105Y-3.035
X5.21Y-2.89
X5.215Y-2.25
X5.215Y-2.35
X5.215Y-2.45
X5.215Y-2.55
X5.26Y-2.89
X5.315Y-2.25
X5.415Y-2.25
X5.46Y-2.51
X5.515Y-2.25
X5.615Y-2.25
X5.715Y-2.25
X5.815Y-2.25
X5.88Y-2.975
X5.895Y-2.7
X5.915Y-2.25
X5.96Y-2.375
X6.015Y-2.25
X6.015Y-2.45
X6.115Y-2.25
X6.115Y-2.35
X6.115Y-2.45
X4.6Y-2.405
X4.6Y-2.45
X4.6Y-2.495
X4.65Y-2.405
X4.65Y-2.45
X4.65Y-2.495
T2
X4.0Y-3.0
X6.1Y-2.8
X4.0Y-2.8
X6.1Y-2.6
X4.0Y-2.7
X6.1Y-3.1
X6.1Y-3.0
X6.1Y-2.7
X4.0Y-3.1
X4.0Y-2.9
X6.1Y-2.9
X4.0Y-2.6
T3
X6.0Y-2.6
X4.1Y-2.7
X6.0Y-2.7
X4.1Y-2.6
X6.0Y-2.8
X4.1Y-2.8
X6.0Y-3.1
X6.0Y-3.0
X4.1Y-3.1
X4.1Y-2.9
X6.0Y-2.9
X4.1Y-3.0
T0
M30
