M48
; DRILL file {KiCad (5.1.9)-1} date 05/31/21 10:41:28
; FORMAT={-:-/ absolute / inch / decimal}
; #@! TF.CreationDate,2021-05-31T10:41:28+02:00
; #@! TF.GenerationSoftware,Kicad,Pcbnew,(5.1.9)-1
; #@! TF.FileFunction,Plated,1,2,PTH
FMAT,2
INCH
T1C0.0236
T2C0.0300
T3C0.0394
%
G90
G05
T1
X4.0606Y-2.8047
X4.0606Y-3.415
X4.1197Y-3.415
X4.1787Y-2.6866
X4.1787Y-3.415
X4.2378Y-3.415
X4.2969Y-3.415
X4.3461Y-2.8047
X4.3461Y-2.8539
X4.348Y-2.7573
X4.3559Y-3.415
X4.3953Y-2.6472
X4.4884Y-2.7302
X4.4884Y-2.7752
X4.4884Y-2.8202
X4.5384Y-2.7302
X4.5384Y-2.7752
X4.5384Y-2.8202
X4.6906Y-2.7457
X4.7772Y-2.7457
X4.789Y-3.0724
X4.8441Y-2.7969
X4.848Y-3.0724
X4.9071Y-3.0724
X4.915Y-2.7969
X4.9563Y-2.4819
X4.9937Y-2.5409
T2
X4.0Y-2.6
X4.0Y-2.7
X4.0Y-2.9
X4.0Y-3.0
X4.0Y-3.2
X4.0Y-3.3
X5.1Y-3.3
T3
X4.1Y-2.6
X4.1Y-2.7
X4.1Y-2.9
X4.1Y-3.0
X4.1Y-3.2
X4.1Y-3.3
X5.0Y-3.3
T0
M30
