%TF.GenerationSoftware,KiCad,Pcbnew,(5.1.6)-1*%
%TF.CreationDate,2021-02-23T00:21:00+01:00*%
%TF.ProjectId,02_Batt_Alim,30325f42-6174-4745-9f41-6c696d2e6b69,rev?*%
%TF.SameCoordinates,Original*%
%TF.FileFunction,Soldermask,Top*%
%TF.FilePolarity,Negative*%
%FSLAX46Y46*%
G04 Gerber Fmt 4.6, Leading zero omitted, Abs format (unit mm)*
G04 Created by KiCad (PCBNEW (5.1.6)-1) date 2021-02-23 00:21:00*
%MOMM*%
%LPD*%
G01*
G04 APERTURE LIST*
%TA.AperFunction,Profile*%
%ADD10C,0.050000*%
%TD*%
%ADD11R,0.900000X2.000000*%
%ADD12R,2.300000X3.400000*%
%ADD13C,1.100000*%
%ADD14R,1.400000X0.800000*%
%ADD15R,2.624000X1.800000*%
%ADD16C,1.624000*%
%ADD17R,1.800000X1.800000*%
%ADD18R,3.700000X2.800000*%
%ADD19R,1.200000X1.200000*%
G04 APERTURE END LIST*
D10*
X129540000Y-62230000D02*
X129540000Y-87630000D01*
X101600000Y-62230000D02*
X129540000Y-62230000D01*
X101600000Y-74930000D02*
X101600000Y-87630000D01*
X100330000Y-74930000D02*
X101600000Y-74930000D01*
X101600000Y-62230000D02*
X101600000Y-64770000D01*
X101600000Y-64770000D02*
X100330000Y-64770000D01*
X129540000Y-87630000D02*
X101600000Y-87630000D01*
X100330000Y-74930000D02*
X100330000Y-64770000D01*
D11*
%TO.C,U1*%
X111940000Y-81840000D03*
X112890000Y-84840000D03*
X110990000Y-84840000D03*
%TD*%
%TO.C,C1*%
G36*
G01*
X120940000Y-68771250D02*
X120940000Y-68208750D01*
G75*
G02*
X121183750Y-67965000I243750J0D01*
G01*
X121671250Y-67965000D01*
G75*
G02*
X121915000Y-68208750I0J-243750D01*
G01*
X121915000Y-68771250D01*
G75*
G02*
X121671250Y-69015000I-243750J0D01*
G01*
X121183750Y-69015000D01*
G75*
G02*
X120940000Y-68771250I0J243750D01*
G01*
G37*
G36*
G01*
X119365000Y-68771250D02*
X119365000Y-68208750D01*
G75*
G02*
X119608750Y-67965000I243750J0D01*
G01*
X120096250Y-67965000D01*
G75*
G02*
X120340000Y-68208750I0J-243750D01*
G01*
X120340000Y-68771250D01*
G75*
G02*
X120096250Y-69015000I-243750J0D01*
G01*
X119608750Y-69015000D01*
G75*
G02*
X119365000Y-68771250I0J243750D01*
G01*
G37*
%TD*%
%TO.C,C2*%
G36*
G01*
X107108750Y-69540000D02*
X107671250Y-69540000D01*
G75*
G02*
X107915000Y-69783750I0J-243750D01*
G01*
X107915000Y-70271250D01*
G75*
G02*
X107671250Y-70515000I-243750J0D01*
G01*
X107108750Y-70515000D01*
G75*
G02*
X106865000Y-70271250I0J243750D01*
G01*
X106865000Y-69783750D01*
G75*
G02*
X107108750Y-69540000I243750J0D01*
G01*
G37*
G36*
G01*
X107108750Y-67965000D02*
X107671250Y-67965000D01*
G75*
G02*
X107915000Y-68208750I0J-243750D01*
G01*
X107915000Y-68696250D01*
G75*
G02*
X107671250Y-68940000I-243750J0D01*
G01*
X107108750Y-68940000D01*
G75*
G02*
X106865000Y-68696250I0J243750D01*
G01*
X106865000Y-68208750D01*
G75*
G02*
X107108750Y-67965000I243750J0D01*
G01*
G37*
%TD*%
%TO.C,C3*%
G36*
G01*
X107335000Y-84465000D02*
X109545000Y-84465000D01*
G75*
G02*
X109815000Y-84735000I0J-270000D01*
G01*
X109815000Y-85545000D01*
G75*
G02*
X109545000Y-85815000I-270000J0D01*
G01*
X107335000Y-85815000D01*
G75*
G02*
X107065000Y-85545000I0J270000D01*
G01*
X107065000Y-84735000D01*
G75*
G02*
X107335000Y-84465000I270000J0D01*
G01*
G37*
G36*
G01*
X107335000Y-81665000D02*
X109545000Y-81665000D01*
G75*
G02*
X109815000Y-81935000I0J-270000D01*
G01*
X109815000Y-82745000D01*
G75*
G02*
X109545000Y-83015000I-270000J0D01*
G01*
X107335000Y-83015000D01*
G75*
G02*
X107065000Y-82745000I0J270000D01*
G01*
X107065000Y-81935000D01*
G75*
G02*
X107335000Y-81665000I270000J0D01*
G01*
G37*
%TD*%
%TO.C,C4*%
G36*
G01*
X107615000Y-76035000D02*
X107615000Y-78245000D01*
G75*
G02*
X107345000Y-78515000I-270000J0D01*
G01*
X106535000Y-78515000D01*
G75*
G02*
X106265000Y-78245000I0J270000D01*
G01*
X106265000Y-76035000D01*
G75*
G02*
X106535000Y-75765000I270000J0D01*
G01*
X107345000Y-75765000D01*
G75*
G02*
X107615000Y-76035000I0J-270000D01*
G01*
G37*
G36*
G01*
X110415000Y-76035000D02*
X110415000Y-78245000D01*
G75*
G02*
X110145000Y-78515000I-270000J0D01*
G01*
X109335000Y-78515000D01*
G75*
G02*
X109065000Y-78245000I0J270000D01*
G01*
X109065000Y-76035000D01*
G75*
G02*
X109335000Y-75765000I270000J0D01*
G01*
X110145000Y-75765000D01*
G75*
G02*
X110415000Y-76035000I0J-270000D01*
G01*
G37*
%TD*%
%TO.C,D2*%
G36*
G01*
X125156250Y-65240000D02*
X124593750Y-65240000D01*
G75*
G02*
X124350000Y-64996250I0J243750D01*
G01*
X124350000Y-64508750D01*
G75*
G02*
X124593750Y-64265000I243750J0D01*
G01*
X125156250Y-64265000D01*
G75*
G02*
X125400000Y-64508750I0J-243750D01*
G01*
X125400000Y-64996250D01*
G75*
G02*
X125156250Y-65240000I-243750J0D01*
G01*
G37*
G36*
G01*
X125156250Y-66815000D02*
X124593750Y-66815000D01*
G75*
G02*
X124350000Y-66571250I0J243750D01*
G01*
X124350000Y-66083750D01*
G75*
G02*
X124593750Y-65840000I243750J0D01*
G01*
X125156250Y-65840000D01*
G75*
G02*
X125400000Y-66083750I0J-243750D01*
G01*
X125400000Y-66571250D01*
G75*
G02*
X125156250Y-66815000I-243750J0D01*
G01*
G37*
%TD*%
%TO.C,D3*%
G36*
G01*
X123311250Y-65240000D02*
X122748750Y-65240000D01*
G75*
G02*
X122505000Y-64996250I0J243750D01*
G01*
X122505000Y-64508750D01*
G75*
G02*
X122748750Y-64265000I243750J0D01*
G01*
X123311250Y-64265000D01*
G75*
G02*
X123555000Y-64508750I0J-243750D01*
G01*
X123555000Y-64996250D01*
G75*
G02*
X123311250Y-65240000I-243750J0D01*
G01*
G37*
G36*
G01*
X123311250Y-66815000D02*
X122748750Y-66815000D01*
G75*
G02*
X122505000Y-66571250I0J243750D01*
G01*
X122505000Y-66083750D01*
G75*
G02*
X122748750Y-65840000I243750J0D01*
G01*
X123311250Y-65840000D01*
G75*
G02*
X123555000Y-66083750I0J-243750D01*
G01*
X123555000Y-66571250D01*
G75*
G02*
X123311250Y-66815000I-243750J0D01*
G01*
G37*
%TD*%
%TO.C,D6*%
G36*
G01*
X106121250Y-82940000D02*
X105558750Y-82940000D01*
G75*
G02*
X105315000Y-82696250I0J243750D01*
G01*
X105315000Y-82208750D01*
G75*
G02*
X105558750Y-81965000I243750J0D01*
G01*
X106121250Y-81965000D01*
G75*
G02*
X106365000Y-82208750I0J-243750D01*
G01*
X106365000Y-82696250D01*
G75*
G02*
X106121250Y-82940000I-243750J0D01*
G01*
G37*
G36*
G01*
X106121250Y-84515000D02*
X105558750Y-84515000D01*
G75*
G02*
X105315000Y-84271250I0J243750D01*
G01*
X105315000Y-83783750D01*
G75*
G02*
X105558750Y-83540000I243750J0D01*
G01*
X106121250Y-83540000D01*
G75*
G02*
X106365000Y-83783750I0J-243750D01*
G01*
X106365000Y-84271250D01*
G75*
G02*
X106121250Y-84515000I-243750J0D01*
G01*
G37*
%TD*%
D12*
%TO.C,IC1*%
X114640000Y-70490000D03*
D13*
X114005000Y-69347000D03*
X114005000Y-70490000D03*
X115275000Y-70490000D03*
X115275000Y-69347000D03*
X115275000Y-71633000D03*
X114005000Y-71633000D03*
D12*
X114640000Y-70490000D03*
D14*
X117390000Y-68585000D03*
X117390000Y-69855000D03*
X117390000Y-72395000D03*
X117390000Y-71125000D03*
X111890000Y-68585000D03*
X111890000Y-69855000D03*
X111890000Y-72395000D03*
X111890000Y-71125000D03*
%TD*%
D15*
%TO.C,J1*%
X102870000Y-66040000D03*
X102870000Y-66040000D03*
D16*
X101600000Y-66040000D03*
D17*
X104140000Y-66040000D03*
%TD*%
D15*
%TO.C,J2*%
X102870000Y-68580000D03*
X102870000Y-68580000D03*
D16*
X101600000Y-68580000D03*
D17*
X104140000Y-68580000D03*
%TD*%
D15*
%TO.C,J3*%
X102870000Y-73660000D03*
X102870000Y-73660000D03*
D16*
X101600000Y-73660000D03*
D17*
X104140000Y-73660000D03*
%TD*%
D15*
%TO.C,J9*%
X102870000Y-71120000D03*
X102870000Y-71120000D03*
D16*
X101600000Y-71120000D03*
D17*
X104140000Y-71120000D03*
%TD*%
D18*
%TO.C,L1*%
X121890000Y-76140000D03*
X121890000Y-84440000D03*
%TD*%
%TO.C,R6*%
G36*
G01*
X124593750Y-69340000D02*
X125156250Y-69340000D01*
G75*
G02*
X125400000Y-69583750I0J-243750D01*
G01*
X125400000Y-70071250D01*
G75*
G02*
X125156250Y-70315000I-243750J0D01*
G01*
X124593750Y-70315000D01*
G75*
G02*
X124350000Y-70071250I0J243750D01*
G01*
X124350000Y-69583750D01*
G75*
G02*
X124593750Y-69340000I243750J0D01*
G01*
G37*
G36*
G01*
X124593750Y-67765000D02*
X125156250Y-67765000D01*
G75*
G02*
X125400000Y-68008750I0J-243750D01*
G01*
X125400000Y-68496250D01*
G75*
G02*
X125156250Y-68740000I-243750J0D01*
G01*
X124593750Y-68740000D01*
G75*
G02*
X124350000Y-68496250I0J243750D01*
G01*
X124350000Y-68008750D01*
G75*
G02*
X124593750Y-67765000I243750J0D01*
G01*
G37*
%TD*%
%TO.C,R7*%
G36*
G01*
X120940000Y-71401250D02*
X120940000Y-70838750D01*
G75*
G02*
X121183750Y-70595000I243750J0D01*
G01*
X121671250Y-70595000D01*
G75*
G02*
X121915000Y-70838750I0J-243750D01*
G01*
X121915000Y-71401250D01*
G75*
G02*
X121671250Y-71645000I-243750J0D01*
G01*
X121183750Y-71645000D01*
G75*
G02*
X120940000Y-71401250I0J243750D01*
G01*
G37*
G36*
G01*
X119365000Y-71401250D02*
X119365000Y-70838750D01*
G75*
G02*
X119608750Y-70595000I243750J0D01*
G01*
X120096250Y-70595000D01*
G75*
G02*
X120340000Y-70838750I0J-243750D01*
G01*
X120340000Y-71401250D01*
G75*
G02*
X120096250Y-71645000I-243750J0D01*
G01*
X119608750Y-71645000D01*
G75*
G02*
X119365000Y-71401250I0J243750D01*
G01*
G37*
%TD*%
%TO.C,R8*%
G36*
G01*
X122748750Y-69290000D02*
X123311250Y-69290000D01*
G75*
G02*
X123555000Y-69533750I0J-243750D01*
G01*
X123555000Y-70021250D01*
G75*
G02*
X123311250Y-70265000I-243750J0D01*
G01*
X122748750Y-70265000D01*
G75*
G02*
X122505000Y-70021250I0J243750D01*
G01*
X122505000Y-69533750D01*
G75*
G02*
X122748750Y-69290000I243750J0D01*
G01*
G37*
G36*
G01*
X122748750Y-67715000D02*
X123311250Y-67715000D01*
G75*
G02*
X123555000Y-67958750I0J-243750D01*
G01*
X123555000Y-68446250D01*
G75*
G02*
X123311250Y-68690000I-243750J0D01*
G01*
X122748750Y-68690000D01*
G75*
G02*
X122505000Y-68446250I0J243750D01*
G01*
X122505000Y-67958750D01*
G75*
G02*
X122748750Y-67715000I243750J0D01*
G01*
G37*
%TD*%
%TO.C,R9*%
G36*
G01*
X118921250Y-65190000D02*
X118358750Y-65190000D01*
G75*
G02*
X118115000Y-64946250I0J243750D01*
G01*
X118115000Y-64458750D01*
G75*
G02*
X118358750Y-64215000I243750J0D01*
G01*
X118921250Y-64215000D01*
G75*
G02*
X119165000Y-64458750I0J-243750D01*
G01*
X119165000Y-64946250D01*
G75*
G02*
X118921250Y-65190000I-243750J0D01*
G01*
G37*
G36*
G01*
X118921250Y-66765000D02*
X118358750Y-66765000D01*
G75*
G02*
X118115000Y-66521250I0J243750D01*
G01*
X118115000Y-66033750D01*
G75*
G02*
X118358750Y-65790000I243750J0D01*
G01*
X118921250Y-65790000D01*
G75*
G02*
X119165000Y-66033750I0J-243750D01*
G01*
X119165000Y-66521250D01*
G75*
G02*
X118921250Y-66765000I-243750J0D01*
G01*
G37*
%TD*%
%TO.C,R10*%
G36*
G01*
X116921250Y-65190000D02*
X116358750Y-65190000D01*
G75*
G02*
X116115000Y-64946250I0J243750D01*
G01*
X116115000Y-64458750D01*
G75*
G02*
X116358750Y-64215000I243750J0D01*
G01*
X116921250Y-64215000D01*
G75*
G02*
X117165000Y-64458750I0J-243750D01*
G01*
X117165000Y-64946250D01*
G75*
G02*
X116921250Y-65190000I-243750J0D01*
G01*
G37*
G36*
G01*
X116921250Y-66765000D02*
X116358750Y-66765000D01*
G75*
G02*
X116115000Y-66521250I0J243750D01*
G01*
X116115000Y-66033750D01*
G75*
G02*
X116358750Y-65790000I243750J0D01*
G01*
X116921250Y-65790000D01*
G75*
G02*
X117165000Y-66033750I0J-243750D01*
G01*
X117165000Y-66521250D01*
G75*
G02*
X116921250Y-66765000I-243750J0D01*
G01*
G37*
%TD*%
%TO.C,R12*%
G36*
G01*
X114921250Y-65190000D02*
X114358750Y-65190000D01*
G75*
G02*
X114115000Y-64946250I0J243750D01*
G01*
X114115000Y-64458750D01*
G75*
G02*
X114358750Y-64215000I243750J0D01*
G01*
X114921250Y-64215000D01*
G75*
G02*
X115165000Y-64458750I0J-243750D01*
G01*
X115165000Y-64946250D01*
G75*
G02*
X114921250Y-65190000I-243750J0D01*
G01*
G37*
G36*
G01*
X114921250Y-66765000D02*
X114358750Y-66765000D01*
G75*
G02*
X114115000Y-66521250I0J243750D01*
G01*
X114115000Y-66033750D01*
G75*
G02*
X114358750Y-65790000I243750J0D01*
G01*
X114921250Y-65790000D01*
G75*
G02*
X115165000Y-66033750I0J-243750D01*
G01*
X115165000Y-66521250D01*
G75*
G02*
X114921250Y-66765000I-243750J0D01*
G01*
G37*
%TD*%
%TO.C,R14*%
G36*
G01*
X112921250Y-65190000D02*
X112358750Y-65190000D01*
G75*
G02*
X112115000Y-64946250I0J243750D01*
G01*
X112115000Y-64458750D01*
G75*
G02*
X112358750Y-64215000I243750J0D01*
G01*
X112921250Y-64215000D01*
G75*
G02*
X113165000Y-64458750I0J-243750D01*
G01*
X113165000Y-64946250D01*
G75*
G02*
X112921250Y-65190000I-243750J0D01*
G01*
G37*
G36*
G01*
X112921250Y-66765000D02*
X112358750Y-66765000D01*
G75*
G02*
X112115000Y-66521250I0J243750D01*
G01*
X112115000Y-66033750D01*
G75*
G02*
X112358750Y-65790000I243750J0D01*
G01*
X112921250Y-65790000D01*
G75*
G02*
X113165000Y-66033750I0J-243750D01*
G01*
X113165000Y-66521250D01*
G75*
G02*
X112921250Y-66765000I-243750J0D01*
G01*
G37*
%TD*%
%TO.C,R15*%
G36*
G01*
X103558750Y-85040000D02*
X104121250Y-85040000D01*
G75*
G02*
X104365000Y-85283750I0J-243750D01*
G01*
X104365000Y-85771250D01*
G75*
G02*
X104121250Y-86015000I-243750J0D01*
G01*
X103558750Y-86015000D01*
G75*
G02*
X103315000Y-85771250I0J243750D01*
G01*
X103315000Y-85283750D01*
G75*
G02*
X103558750Y-85040000I243750J0D01*
G01*
G37*
G36*
G01*
X103558750Y-83465000D02*
X104121250Y-83465000D01*
G75*
G02*
X104365000Y-83708750I0J-243750D01*
G01*
X104365000Y-84196250D01*
G75*
G02*
X104121250Y-84440000I-243750J0D01*
G01*
X103558750Y-84440000D01*
G75*
G02*
X103315000Y-84196250I0J243750D01*
G01*
X103315000Y-83708750D01*
G75*
G02*
X103558750Y-83465000I243750J0D01*
G01*
G37*
%TD*%
D19*
%TO.C,D4*%
X126940000Y-68740000D03*
X126940000Y-65940000D03*
%TD*%
%TO.C,D5*%
X115040000Y-82440000D03*
X115040000Y-85240000D03*
%TD*%
%TO.C,D7*%
X107490000Y-65990000D03*
X110290000Y-65990000D03*
%TD*%
%TO.C,D8*%
X109840000Y-74240000D03*
X107040000Y-74240000D03*
%TD*%
M02*
