%TF.GenerationSoftware,KiCad,Pcbnew,(5.1.6)-1*%
%TF.CreationDate,2021-02-23T00:21:00+01:00*%
%TF.ProjectId,02_Batt_Alim,30325f42-6174-4745-9f41-6c696d2e6b69,rev?*%
%TF.SameCoordinates,Original*%
%TF.FileFunction,Copper,L1,Top*%
%TF.FilePolarity,Positive*%
%FSLAX46Y46*%
G04 Gerber Fmt 4.6, Leading zero omitted, Abs format (unit mm)*
G04 Created by KiCad (PCBNEW (5.1.6)-1) date 2021-02-23 00:21:00*
%MOMM*%
%LPD*%
G01*
G04 APERTURE LIST*
%TA.AperFunction,Profile*%
%ADD10C,0.050000*%
%TD*%
%TA.AperFunction,SMDPad,CuDef*%
%ADD11R,0.800000X1.900000*%
%TD*%
%TA.AperFunction,SMDPad,CuDef*%
%ADD12R,2.200000X3.300000*%
%TD*%
%TA.AperFunction,ComponentPad*%
%ADD13C,1.000000*%
%TD*%
%TA.AperFunction,SMDPad,CuDef*%
%ADD14R,1.300000X0.700000*%
%TD*%
%TA.AperFunction,SMDPad,CuDef*%
%ADD15R,2.524000X1.700000*%
%TD*%
%TA.AperFunction,ComponentPad*%
%ADD16C,1.524000*%
%TD*%
%TA.AperFunction,ComponentPad*%
%ADD17R,1.700000X1.700000*%
%TD*%
%TA.AperFunction,SMDPad,CuDef*%
%ADD18R,3.600000X2.700000*%
%TD*%
%TA.AperFunction,SMDPad,CuDef*%
%ADD19R,1.100000X1.100000*%
%TD*%
%TA.AperFunction,ViaPad*%
%ADD20C,1.000000*%
%TD*%
%TA.AperFunction,Conductor*%
%ADD21C,0.400000*%
%TD*%
%TA.AperFunction,Conductor*%
%ADD22C,1.000000*%
%TD*%
%TA.AperFunction,Conductor*%
%ADD23C,0.254000*%
%TD*%
G04 APERTURE END LIST*
D10*
X129540000Y-62230000D02*
X129540000Y-87630000D01*
X101600000Y-62230000D02*
X129540000Y-62230000D01*
X101600000Y-74930000D02*
X101600000Y-87630000D01*
X100330000Y-74930000D02*
X101600000Y-74930000D01*
X101600000Y-62230000D02*
X101600000Y-64770000D01*
X101600000Y-64770000D02*
X100330000Y-64770000D01*
X129540000Y-87630000D02*
X101600000Y-87630000D01*
X100330000Y-74930000D02*
X100330000Y-64770000D01*
D11*
%TO.P,U1,3*%
%TO.N,5V*%
X111940000Y-81840000D03*
%TO.P,U1,2*%
%TO.N,/LX*%
X112890000Y-84840000D03*
%TO.P,U1,1*%
%TO.N,GND*%
X110990000Y-84840000D03*
%TD*%
%TO.P,C1,2*%
%TO.N,GND*%
%TA.AperFunction,SMDPad,CuDef*%
G36*
G01*
X120990000Y-68746250D02*
X120990000Y-68233750D01*
G75*
G02*
X121208750Y-68015000I218750J0D01*
G01*
X121646250Y-68015000D01*
G75*
G02*
X121865000Y-68233750I0J-218750D01*
G01*
X121865000Y-68746250D01*
G75*
G02*
X121646250Y-68965000I-218750J0D01*
G01*
X121208750Y-68965000D01*
G75*
G02*
X120990000Y-68746250I0J218750D01*
G01*
G37*
%TD.AperFunction*%
%TO.P,C1,1*%
%TO.N,V_chg*%
%TA.AperFunction,SMDPad,CuDef*%
G36*
G01*
X119415000Y-68746250D02*
X119415000Y-68233750D01*
G75*
G02*
X119633750Y-68015000I218750J0D01*
G01*
X120071250Y-68015000D01*
G75*
G02*
X120290000Y-68233750I0J-218750D01*
G01*
X120290000Y-68746250D01*
G75*
G02*
X120071250Y-68965000I-218750J0D01*
G01*
X119633750Y-68965000D01*
G75*
G02*
X119415000Y-68746250I0J218750D01*
G01*
G37*
%TD.AperFunction*%
%TD*%
%TO.P,C2,2*%
%TO.N,V_BAT+*%
%TA.AperFunction,SMDPad,CuDef*%
G36*
G01*
X107133750Y-69590000D02*
X107646250Y-69590000D01*
G75*
G02*
X107865000Y-69808750I0J-218750D01*
G01*
X107865000Y-70246250D01*
G75*
G02*
X107646250Y-70465000I-218750J0D01*
G01*
X107133750Y-70465000D01*
G75*
G02*
X106915000Y-70246250I0J218750D01*
G01*
X106915000Y-69808750D01*
G75*
G02*
X107133750Y-69590000I218750J0D01*
G01*
G37*
%TD.AperFunction*%
%TO.P,C2,1*%
%TO.N,GND*%
%TA.AperFunction,SMDPad,CuDef*%
G36*
G01*
X107133750Y-68015000D02*
X107646250Y-68015000D01*
G75*
G02*
X107865000Y-68233750I0J-218750D01*
G01*
X107865000Y-68671250D01*
G75*
G02*
X107646250Y-68890000I-218750J0D01*
G01*
X107133750Y-68890000D01*
G75*
G02*
X106915000Y-68671250I0J218750D01*
G01*
X106915000Y-68233750D01*
G75*
G02*
X107133750Y-68015000I218750J0D01*
G01*
G37*
%TD.AperFunction*%
%TD*%
%TO.P,C3,2*%
%TO.N,GND*%
%TA.AperFunction,SMDPad,CuDef*%
G36*
G01*
X107365000Y-84515000D02*
X109515000Y-84515000D01*
G75*
G02*
X109765000Y-84765000I0J-250000D01*
G01*
X109765000Y-85515000D01*
G75*
G02*
X109515000Y-85765000I-250000J0D01*
G01*
X107365000Y-85765000D01*
G75*
G02*
X107115000Y-85515000I0J250000D01*
G01*
X107115000Y-84765000D01*
G75*
G02*
X107365000Y-84515000I250000J0D01*
G01*
G37*
%TD.AperFunction*%
%TO.P,C3,1*%
%TO.N,5V*%
%TA.AperFunction,SMDPad,CuDef*%
G36*
G01*
X107365000Y-81715000D02*
X109515000Y-81715000D01*
G75*
G02*
X109765000Y-81965000I0J-250000D01*
G01*
X109765000Y-82715000D01*
G75*
G02*
X109515000Y-82965000I-250000J0D01*
G01*
X107365000Y-82965000D01*
G75*
G02*
X107115000Y-82715000I0J250000D01*
G01*
X107115000Y-81965000D01*
G75*
G02*
X107365000Y-81715000I250000J0D01*
G01*
G37*
%TD.AperFunction*%
%TD*%
%TO.P,C4,2*%
%TO.N,GND*%
%TA.AperFunction,SMDPad,CuDef*%
G36*
G01*
X107565000Y-76065000D02*
X107565000Y-78215000D01*
G75*
G02*
X107315000Y-78465000I-250000J0D01*
G01*
X106565000Y-78465000D01*
G75*
G02*
X106315000Y-78215000I0J250000D01*
G01*
X106315000Y-76065000D01*
G75*
G02*
X106565000Y-75815000I250000J0D01*
G01*
X107315000Y-75815000D01*
G75*
G02*
X107565000Y-76065000I0J-250000D01*
G01*
G37*
%TD.AperFunction*%
%TO.P,C4,1*%
%TO.N,V_sum*%
%TA.AperFunction,SMDPad,CuDef*%
G36*
G01*
X110365000Y-76065000D02*
X110365000Y-78215000D01*
G75*
G02*
X110115000Y-78465000I-250000J0D01*
G01*
X109365000Y-78465000D01*
G75*
G02*
X109115000Y-78215000I0J250000D01*
G01*
X109115000Y-76065000D01*
G75*
G02*
X109365000Y-75815000I250000J0D01*
G01*
X110115000Y-75815000D01*
G75*
G02*
X110365000Y-76065000I0J-250000D01*
G01*
G37*
%TD.AperFunction*%
%TD*%
%TO.P,D2,2*%
%TO.N,V_chg*%
%TA.AperFunction,SMDPad,CuDef*%
G36*
G01*
X125131250Y-65190000D02*
X124618750Y-65190000D01*
G75*
G02*
X124400000Y-64971250I0J218750D01*
G01*
X124400000Y-64533750D01*
G75*
G02*
X124618750Y-64315000I218750J0D01*
G01*
X125131250Y-64315000D01*
G75*
G02*
X125350000Y-64533750I0J-218750D01*
G01*
X125350000Y-64971250D01*
G75*
G02*
X125131250Y-65190000I-218750J0D01*
G01*
G37*
%TD.AperFunction*%
%TO.P,D2,1*%
%TO.N,Net-(D2-Pad1)*%
%TA.AperFunction,SMDPad,CuDef*%
G36*
G01*
X125131250Y-66765000D02*
X124618750Y-66765000D01*
G75*
G02*
X124400000Y-66546250I0J218750D01*
G01*
X124400000Y-66108750D01*
G75*
G02*
X124618750Y-65890000I218750J0D01*
G01*
X125131250Y-65890000D01*
G75*
G02*
X125350000Y-66108750I0J-218750D01*
G01*
X125350000Y-66546250D01*
G75*
G02*
X125131250Y-66765000I-218750J0D01*
G01*
G37*
%TD.AperFunction*%
%TD*%
%TO.P,D3,2*%
%TO.N,V_chg*%
%TA.AperFunction,SMDPad,CuDef*%
G36*
G01*
X123286250Y-65190000D02*
X122773750Y-65190000D01*
G75*
G02*
X122555000Y-64971250I0J218750D01*
G01*
X122555000Y-64533750D01*
G75*
G02*
X122773750Y-64315000I218750J0D01*
G01*
X123286250Y-64315000D01*
G75*
G02*
X123505000Y-64533750I0J-218750D01*
G01*
X123505000Y-64971250D01*
G75*
G02*
X123286250Y-65190000I-218750J0D01*
G01*
G37*
%TD.AperFunction*%
%TO.P,D3,1*%
%TO.N,Net-(D3-Pad1)*%
%TA.AperFunction,SMDPad,CuDef*%
G36*
G01*
X123286250Y-66765000D02*
X122773750Y-66765000D01*
G75*
G02*
X122555000Y-66546250I0J218750D01*
G01*
X122555000Y-66108750D01*
G75*
G02*
X122773750Y-65890000I218750J0D01*
G01*
X123286250Y-65890000D01*
G75*
G02*
X123505000Y-66108750I0J-218750D01*
G01*
X123505000Y-66546250D01*
G75*
G02*
X123286250Y-66765000I-218750J0D01*
G01*
G37*
%TD.AperFunction*%
%TD*%
%TO.P,D6,2*%
%TO.N,5V*%
%TA.AperFunction,SMDPad,CuDef*%
G36*
G01*
X106096250Y-82890000D02*
X105583750Y-82890000D01*
G75*
G02*
X105365000Y-82671250I0J218750D01*
G01*
X105365000Y-82233750D01*
G75*
G02*
X105583750Y-82015000I218750J0D01*
G01*
X106096250Y-82015000D01*
G75*
G02*
X106315000Y-82233750I0J-218750D01*
G01*
X106315000Y-82671250D01*
G75*
G02*
X106096250Y-82890000I-218750J0D01*
G01*
G37*
%TD.AperFunction*%
%TO.P,D6,1*%
%TO.N,Net-(D6-Pad1)*%
%TA.AperFunction,SMDPad,CuDef*%
G36*
G01*
X106096250Y-84465000D02*
X105583750Y-84465000D01*
G75*
G02*
X105365000Y-84246250I0J218750D01*
G01*
X105365000Y-83808750D01*
G75*
G02*
X105583750Y-83590000I218750J0D01*
G01*
X106096250Y-83590000D01*
G75*
G02*
X106315000Y-83808750I0J-218750D01*
G01*
X106315000Y-84246250D01*
G75*
G02*
X106096250Y-84465000I-218750J0D01*
G01*
G37*
%TD.AperFunction*%
%TD*%
D12*
%TO.P,IC1,1*%
%TO.N,GND*%
X114640000Y-70490000D03*
D13*
X114005000Y-69347000D03*
X114005000Y-70490000D03*
X115275000Y-70490000D03*
X115275000Y-69347000D03*
X115275000Y-71633000D03*
X114005000Y-71633000D03*
D12*
X114640000Y-70490000D03*
D14*
%TO.P,IC1,4*%
%TO.N,V_chg*%
X117390000Y-68585000D03*
%TO.P,IC1,3*%
%TO.N,GND*%
X117390000Y-69855000D03*
%TO.P,IC1,1*%
X117390000Y-72395000D03*
%TO.P,IC1,2*%
%TO.N,Net-(IC1-Pad2)*%
X117390000Y-71125000D03*
%TO.P,IC1,5*%
%TO.N,V_BAT+*%
X111890000Y-68585000D03*
%TO.P,IC1,6*%
%TO.N,Net-(IC1-Pad6)*%
X111890000Y-69855000D03*
%TO.P,IC1,8*%
%TO.N,V_chg*%
X111890000Y-72395000D03*
%TO.P,IC1,7*%
%TO.N,Net-(IC1-Pad7)*%
X111890000Y-71125000D03*
%TD*%
D15*
%TO.P,J1,1*%
%TO.N,V_ext*%
X102870000Y-66040000D03*
D16*
X101600000Y-66040000D03*
D17*
X104140000Y-66040000D03*
%TD*%
D15*
%TO.P,J2,1*%
%TO.N,GND*%
X102870000Y-68580000D03*
D16*
X101600000Y-68580000D03*
D17*
X104140000Y-68580000D03*
%TD*%
D15*
%TO.P,J3,1*%
%TO.N,5V*%
X102870000Y-73660000D03*
D16*
X101600000Y-73660000D03*
D17*
X104140000Y-73660000D03*
%TD*%
D15*
%TO.P,J9,1*%
%TO.N,V_BAT+*%
X102870000Y-71120000D03*
D16*
X101600000Y-71120000D03*
D17*
X104140000Y-71120000D03*
%TD*%
D18*
%TO.P,L1,2*%
%TO.N,V_sum*%
X121890000Y-76140000D03*
%TO.P,L1,1*%
%TO.N,/LX*%
X121890000Y-84440000D03*
%TD*%
%TO.P,R6,2*%
%TO.N,Net-(IC1-Pad7)*%
%TA.AperFunction,SMDPad,CuDef*%
G36*
G01*
X124618750Y-69390000D02*
X125131250Y-69390000D01*
G75*
G02*
X125350000Y-69608750I0J-218750D01*
G01*
X125350000Y-70046250D01*
G75*
G02*
X125131250Y-70265000I-218750J0D01*
G01*
X124618750Y-70265000D01*
G75*
G02*
X124400000Y-70046250I0J218750D01*
G01*
X124400000Y-69608750D01*
G75*
G02*
X124618750Y-69390000I218750J0D01*
G01*
G37*
%TD.AperFunction*%
%TO.P,R6,1*%
%TO.N,Net-(D2-Pad1)*%
%TA.AperFunction,SMDPad,CuDef*%
G36*
G01*
X124618750Y-67815000D02*
X125131250Y-67815000D01*
G75*
G02*
X125350000Y-68033750I0J-218750D01*
G01*
X125350000Y-68471250D01*
G75*
G02*
X125131250Y-68690000I-218750J0D01*
G01*
X124618750Y-68690000D01*
G75*
G02*
X124400000Y-68471250I0J218750D01*
G01*
X124400000Y-68033750D01*
G75*
G02*
X124618750Y-67815000I218750J0D01*
G01*
G37*
%TD.AperFunction*%
%TD*%
%TO.P,R7,2*%
%TO.N,GND*%
%TA.AperFunction,SMDPad,CuDef*%
G36*
G01*
X120990000Y-71376250D02*
X120990000Y-70863750D01*
G75*
G02*
X121208750Y-70645000I218750J0D01*
G01*
X121646250Y-70645000D01*
G75*
G02*
X121865000Y-70863750I0J-218750D01*
G01*
X121865000Y-71376250D01*
G75*
G02*
X121646250Y-71595000I-218750J0D01*
G01*
X121208750Y-71595000D01*
G75*
G02*
X120990000Y-71376250I0J218750D01*
G01*
G37*
%TD.AperFunction*%
%TO.P,R7,1*%
%TO.N,Net-(IC1-Pad2)*%
%TA.AperFunction,SMDPad,CuDef*%
G36*
G01*
X119415000Y-71376250D02*
X119415000Y-70863750D01*
G75*
G02*
X119633750Y-70645000I218750J0D01*
G01*
X120071250Y-70645000D01*
G75*
G02*
X120290000Y-70863750I0J-218750D01*
G01*
X120290000Y-71376250D01*
G75*
G02*
X120071250Y-71595000I-218750J0D01*
G01*
X119633750Y-71595000D01*
G75*
G02*
X119415000Y-71376250I0J218750D01*
G01*
G37*
%TD.AperFunction*%
%TD*%
%TO.P,R8,2*%
%TO.N,Net-(IC1-Pad6)*%
%TA.AperFunction,SMDPad,CuDef*%
G36*
G01*
X122773750Y-69340000D02*
X123286250Y-69340000D01*
G75*
G02*
X123505000Y-69558750I0J-218750D01*
G01*
X123505000Y-69996250D01*
G75*
G02*
X123286250Y-70215000I-218750J0D01*
G01*
X122773750Y-70215000D01*
G75*
G02*
X122555000Y-69996250I0J218750D01*
G01*
X122555000Y-69558750D01*
G75*
G02*
X122773750Y-69340000I218750J0D01*
G01*
G37*
%TD.AperFunction*%
%TO.P,R8,1*%
%TO.N,Net-(D3-Pad1)*%
%TA.AperFunction,SMDPad,CuDef*%
G36*
G01*
X122773750Y-67765000D02*
X123286250Y-67765000D01*
G75*
G02*
X123505000Y-67983750I0J-218750D01*
G01*
X123505000Y-68421250D01*
G75*
G02*
X123286250Y-68640000I-218750J0D01*
G01*
X122773750Y-68640000D01*
G75*
G02*
X122555000Y-68421250I0J218750D01*
G01*
X122555000Y-67983750D01*
G75*
G02*
X122773750Y-67765000I218750J0D01*
G01*
G37*
%TD.AperFunction*%
%TD*%
%TO.P,R9,2*%
%TO.N,/V_ext_p*%
%TA.AperFunction,SMDPad,CuDef*%
G36*
G01*
X118896250Y-65140000D02*
X118383750Y-65140000D01*
G75*
G02*
X118165000Y-64921250I0J218750D01*
G01*
X118165000Y-64483750D01*
G75*
G02*
X118383750Y-64265000I218750J0D01*
G01*
X118896250Y-64265000D01*
G75*
G02*
X119115000Y-64483750I0J-218750D01*
G01*
X119115000Y-64921250D01*
G75*
G02*
X118896250Y-65140000I-218750J0D01*
G01*
G37*
%TD.AperFunction*%
%TO.P,R9,1*%
%TO.N,V_chg*%
%TA.AperFunction,SMDPad,CuDef*%
G36*
G01*
X118896250Y-66715000D02*
X118383750Y-66715000D01*
G75*
G02*
X118165000Y-66496250I0J218750D01*
G01*
X118165000Y-66058750D01*
G75*
G02*
X118383750Y-65840000I218750J0D01*
G01*
X118896250Y-65840000D01*
G75*
G02*
X119115000Y-66058750I0J-218750D01*
G01*
X119115000Y-66496250D01*
G75*
G02*
X118896250Y-66715000I-218750J0D01*
G01*
G37*
%TD.AperFunction*%
%TD*%
%TO.P,R10,2*%
%TO.N,/V_ext_p*%
%TA.AperFunction,SMDPad,CuDef*%
G36*
G01*
X116896250Y-65140000D02*
X116383750Y-65140000D01*
G75*
G02*
X116165000Y-64921250I0J218750D01*
G01*
X116165000Y-64483750D01*
G75*
G02*
X116383750Y-64265000I218750J0D01*
G01*
X116896250Y-64265000D01*
G75*
G02*
X117115000Y-64483750I0J-218750D01*
G01*
X117115000Y-64921250D01*
G75*
G02*
X116896250Y-65140000I-218750J0D01*
G01*
G37*
%TD.AperFunction*%
%TO.P,R10,1*%
%TO.N,V_chg*%
%TA.AperFunction,SMDPad,CuDef*%
G36*
G01*
X116896250Y-66715000D02*
X116383750Y-66715000D01*
G75*
G02*
X116165000Y-66496250I0J218750D01*
G01*
X116165000Y-66058750D01*
G75*
G02*
X116383750Y-65840000I218750J0D01*
G01*
X116896250Y-65840000D01*
G75*
G02*
X117115000Y-66058750I0J-218750D01*
G01*
X117115000Y-66496250D01*
G75*
G02*
X116896250Y-66715000I-218750J0D01*
G01*
G37*
%TD.AperFunction*%
%TD*%
%TO.P,R12,2*%
%TO.N,/V_ext_p*%
%TA.AperFunction,SMDPad,CuDef*%
G36*
G01*
X114896250Y-65140000D02*
X114383750Y-65140000D01*
G75*
G02*
X114165000Y-64921250I0J218750D01*
G01*
X114165000Y-64483750D01*
G75*
G02*
X114383750Y-64265000I218750J0D01*
G01*
X114896250Y-64265000D01*
G75*
G02*
X115115000Y-64483750I0J-218750D01*
G01*
X115115000Y-64921250D01*
G75*
G02*
X114896250Y-65140000I-218750J0D01*
G01*
G37*
%TD.AperFunction*%
%TO.P,R12,1*%
%TO.N,V_chg*%
%TA.AperFunction,SMDPad,CuDef*%
G36*
G01*
X114896250Y-66715000D02*
X114383750Y-66715000D01*
G75*
G02*
X114165000Y-66496250I0J218750D01*
G01*
X114165000Y-66058750D01*
G75*
G02*
X114383750Y-65840000I218750J0D01*
G01*
X114896250Y-65840000D01*
G75*
G02*
X115115000Y-66058750I0J-218750D01*
G01*
X115115000Y-66496250D01*
G75*
G02*
X114896250Y-66715000I-218750J0D01*
G01*
G37*
%TD.AperFunction*%
%TD*%
%TO.P,R14,2*%
%TO.N,/V_ext_p*%
%TA.AperFunction,SMDPad,CuDef*%
G36*
G01*
X112896250Y-65140000D02*
X112383750Y-65140000D01*
G75*
G02*
X112165000Y-64921250I0J218750D01*
G01*
X112165000Y-64483750D01*
G75*
G02*
X112383750Y-64265000I218750J0D01*
G01*
X112896250Y-64265000D01*
G75*
G02*
X113115000Y-64483750I0J-218750D01*
G01*
X113115000Y-64921250D01*
G75*
G02*
X112896250Y-65140000I-218750J0D01*
G01*
G37*
%TD.AperFunction*%
%TO.P,R14,1*%
%TO.N,V_chg*%
%TA.AperFunction,SMDPad,CuDef*%
G36*
G01*
X112896250Y-66715000D02*
X112383750Y-66715000D01*
G75*
G02*
X112165000Y-66496250I0J218750D01*
G01*
X112165000Y-66058750D01*
G75*
G02*
X112383750Y-65840000I218750J0D01*
G01*
X112896250Y-65840000D01*
G75*
G02*
X113115000Y-66058750I0J-218750D01*
G01*
X113115000Y-66496250D01*
G75*
G02*
X112896250Y-66715000I-218750J0D01*
G01*
G37*
%TD.AperFunction*%
%TD*%
%TO.P,R15,2*%
%TO.N,GND*%
%TA.AperFunction,SMDPad,CuDef*%
G36*
G01*
X103583750Y-85090000D02*
X104096250Y-85090000D01*
G75*
G02*
X104315000Y-85308750I0J-218750D01*
G01*
X104315000Y-85746250D01*
G75*
G02*
X104096250Y-85965000I-218750J0D01*
G01*
X103583750Y-85965000D01*
G75*
G02*
X103365000Y-85746250I0J218750D01*
G01*
X103365000Y-85308750D01*
G75*
G02*
X103583750Y-85090000I218750J0D01*
G01*
G37*
%TD.AperFunction*%
%TO.P,R15,1*%
%TO.N,Net-(D6-Pad1)*%
%TA.AperFunction,SMDPad,CuDef*%
G36*
G01*
X103583750Y-83515000D02*
X104096250Y-83515000D01*
G75*
G02*
X104315000Y-83733750I0J-218750D01*
G01*
X104315000Y-84171250D01*
G75*
G02*
X104096250Y-84390000I-218750J0D01*
G01*
X103583750Y-84390000D01*
G75*
G02*
X103365000Y-84171250I0J218750D01*
G01*
X103365000Y-83733750D01*
G75*
G02*
X103583750Y-83515000I218750J0D01*
G01*
G37*
%TD.AperFunction*%
%TD*%
D19*
%TO.P,D4,1*%
%TO.N,V_sum*%
X126940000Y-68740000D03*
%TO.P,D4,2*%
%TO.N,V_ext*%
X126940000Y-65940000D03*
%TD*%
%TO.P,D5,1*%
%TO.N,5V*%
X115040000Y-82440000D03*
%TO.P,D5,2*%
%TO.N,/LX*%
X115040000Y-85240000D03*
%TD*%
%TO.P,D7,2*%
%TO.N,V_ext*%
X107490000Y-65990000D03*
%TO.P,D7,1*%
%TO.N,/V_ext_p*%
X110290000Y-65990000D03*
%TD*%
%TO.P,D8,1*%
%TO.N,V_sum*%
X109840000Y-74240000D03*
%TO.P,D8,2*%
%TO.N,V_BAT+*%
X107040000Y-74240000D03*
%TD*%
D20*
%TO.N,GND*%
X119140000Y-69740000D03*
X108640000Y-67740000D03*
X121340000Y-69740000D03*
X105340000Y-75840000D03*
X105340000Y-77140000D03*
X105340000Y-78440000D03*
X110640000Y-86740000D03*
X109140000Y-86740000D03*
X107640000Y-86740000D03*
X106140000Y-86740000D03*
X104640000Y-86740000D03*
X103140000Y-86740000D03*
X106240000Y-68840000D03*
%TO.N,V_chg*%
X110390000Y-72490000D03*
X111640000Y-67240000D03*
%TO.N,V_ext*%
X125890000Y-63040000D03*
X126840000Y-64540000D03*
%TO.N,Net-(IC1-Pad7)*%
X110390000Y-71240000D03*
X124840000Y-71040000D03*
%TO.N,Net-(IC1-Pad6)*%
X110440000Y-70034239D03*
X123040000Y-71040000D03*
%TD*%
D21*
%TO.N,GND*%
X102870000Y-68580000D02*
X101600000Y-68580000D01*
X104140000Y-68580000D02*
X102870000Y-68580000D01*
X102870000Y-68580000D02*
X105800000Y-68580000D01*
X105800000Y-68580000D02*
X106640000Y-67740000D01*
X106640000Y-67740000D02*
X107390000Y-67740000D01*
X117390000Y-69855000D02*
X119025000Y-69855000D01*
X119025000Y-69855000D02*
X119140000Y-69740000D01*
X117390000Y-72395000D02*
X121152998Y-72395000D01*
X107390000Y-68452500D02*
X107390000Y-67740000D01*
X107390000Y-67740000D02*
X108640000Y-67740000D01*
X115275000Y-69855000D02*
X114640000Y-70490000D01*
X117390000Y-69855000D02*
X115275000Y-69855000D01*
X116545000Y-72395000D02*
X114640000Y-70490000D01*
X117390000Y-72395000D02*
X116545000Y-72395000D01*
X121427500Y-71120000D02*
X121427500Y-72120498D01*
X121152998Y-72395000D02*
X121273999Y-72273999D01*
X121427500Y-72120498D02*
X121273999Y-72273999D01*
X121427500Y-69827500D02*
X121340000Y-69740000D01*
X121427500Y-69827500D02*
X121427500Y-71120000D01*
X121427500Y-68490000D02*
X121427500Y-69827500D01*
X106680000Y-77400000D02*
X106940000Y-77140000D01*
X106940000Y-77140000D02*
X106240000Y-77140000D01*
X106240000Y-77140000D02*
X105340000Y-76240000D01*
X105340000Y-78440000D02*
X105340000Y-75840000D01*
X110990000Y-84840000D02*
X110990000Y-86390000D01*
X110990000Y-86390000D02*
X110640000Y-86740000D01*
X110640000Y-86740000D02*
X108340000Y-86740000D01*
X108340000Y-85240000D02*
X108440000Y-85140000D01*
X108340000Y-86740000D02*
X108340000Y-85240000D01*
X108340000Y-86740000D02*
X103940000Y-86740000D01*
X103940000Y-85627500D02*
X103840000Y-85527500D01*
X103940000Y-86740000D02*
X103940000Y-85627500D01*
%TO.N,5V*%
X105840000Y-82452500D02*
X105840000Y-80240000D01*
X111940000Y-80340000D02*
X111940000Y-81840000D01*
X108440000Y-82340000D02*
X108440000Y-80340000D01*
X105840000Y-80240000D02*
X108540000Y-80240000D01*
X108440000Y-80340000D02*
X108540000Y-80240000D01*
X108540000Y-80240000D02*
X111840000Y-80240000D01*
X115040000Y-82440000D02*
X115040000Y-80340000D01*
X111940000Y-80340000D02*
X111840000Y-80240000D01*
X115040000Y-80340000D02*
X111940000Y-80340000D01*
%TO.N,V_chg*%
X118640000Y-66277500D02*
X118640000Y-67240000D01*
X112640000Y-67240000D02*
X112640000Y-66277500D01*
X114640000Y-66277500D02*
X114640000Y-67240000D01*
X114640000Y-67240000D02*
X112640000Y-67240000D01*
X116640000Y-66277500D02*
X116640000Y-66990000D01*
X116640000Y-66990000D02*
X116640000Y-67240000D01*
X118640000Y-67240000D02*
X116640000Y-67240000D01*
X116640000Y-67240000D02*
X114640000Y-67240000D01*
X119852500Y-68490000D02*
X118640000Y-68490000D01*
X118640000Y-68490000D02*
X118640000Y-67240000D01*
X118545000Y-68585000D02*
X118640000Y-68490000D01*
X117390000Y-68585000D02*
X118545000Y-68585000D01*
X111890000Y-72395000D02*
X110485000Y-72395000D01*
X110485000Y-72395000D02*
X110390000Y-72490000D01*
X111640000Y-67240000D02*
X112640000Y-67240000D01*
X124875000Y-64752500D02*
X123030000Y-64752500D01*
X121927500Y-64752500D02*
X123030000Y-64752500D01*
X121140000Y-66640000D02*
X121140000Y-65540000D01*
X121140000Y-65540000D02*
X121927500Y-64752500D01*
X118640000Y-67240000D02*
X120540000Y-67240000D01*
X120540000Y-67240000D02*
X121140000Y-66640000D01*
%TO.N,V_BAT+*%
X104140000Y-71120000D02*
X101600000Y-71120000D01*
D22*
X107390000Y-70027500D02*
X107390000Y-70740000D01*
X107640000Y-70990000D02*
X107640000Y-71840000D01*
X107390000Y-70740000D02*
X107640000Y-70990000D01*
X107010000Y-71120000D02*
X107390000Y-70740000D01*
X104140000Y-71120000D02*
X107010000Y-71120000D01*
X111890000Y-68585000D02*
X110045000Y-68585000D01*
X110045000Y-68585000D02*
X109140000Y-69490000D01*
X109140000Y-69490000D02*
X109140000Y-70490000D01*
X108640000Y-70990000D02*
X107640000Y-70990000D01*
X109140000Y-70490000D02*
X108640000Y-70990000D01*
X107040000Y-71150000D02*
X107010000Y-71120000D01*
X107040000Y-74240000D02*
X107040000Y-71150000D01*
D21*
%TO.N,Net-(D2-Pad1)*%
X124875000Y-66602500D02*
X124875000Y-68202500D01*
%TO.N,Net-(D3-Pad1)*%
X123030000Y-66602500D02*
X123030000Y-68202500D01*
D22*
%TO.N,V_ext*%
X101600000Y-66040000D02*
X102870000Y-66040000D01*
X101600000Y-66040000D02*
X104140000Y-66040000D01*
X107440000Y-66040000D02*
X107490000Y-65990000D01*
X102870000Y-66040000D02*
X107440000Y-66040000D01*
X126940000Y-64640000D02*
X126840000Y-64540000D01*
X126940000Y-65940000D02*
X126940000Y-64640000D01*
X126840000Y-64540000D02*
X126840000Y-63340000D01*
X126840000Y-63340000D02*
X126740000Y-63340000D01*
X126840000Y-63340000D02*
X126555010Y-63055010D01*
X126555010Y-63055010D02*
X125890000Y-63055010D01*
D21*
%TO.N,Net-(D6-Pad1)*%
X103915000Y-84027500D02*
X103840000Y-83952500D01*
X105840000Y-84027500D02*
X103915000Y-84027500D01*
%TO.N,Net-(IC1-Pad7)*%
X111890000Y-71125000D02*
X110505000Y-71125000D01*
X110505000Y-71125000D02*
X110390000Y-71240000D01*
X124840000Y-69862500D02*
X124875000Y-69827500D01*
X124840000Y-71040000D02*
X124840000Y-69862500D01*
%TO.N,Net-(IC1-Pad6)*%
X110619239Y-69855000D02*
X110440000Y-70034239D01*
X111890000Y-69855000D02*
X110619239Y-69855000D01*
X123040000Y-69787500D02*
X123030000Y-69777500D01*
X123040000Y-71040000D02*
X123040000Y-69787500D01*
%TO.N,Net-(IC1-Pad2)*%
X119847500Y-71125000D02*
X119852500Y-71120000D01*
X117390000Y-71125000D02*
X119847500Y-71125000D01*
%TO.N,/LX*%
X112890000Y-84840000D02*
X112890000Y-86590000D01*
X112890000Y-86590000D02*
X113040000Y-86740000D01*
X113040000Y-86740000D02*
X115040000Y-86740000D01*
X115040000Y-86740000D02*
X115040000Y-85240000D01*
X121890000Y-84440000D02*
X121890000Y-86690000D01*
X121840000Y-86740000D02*
X115040000Y-86740000D01*
X121890000Y-86690000D02*
X121840000Y-86740000D01*
%TO.N,/V_ext_p*%
X110290000Y-65990000D02*
X111140000Y-65990000D01*
X111140000Y-65990000D02*
X111390000Y-65740000D01*
X111390000Y-65740000D02*
X111390000Y-63740000D01*
X111390000Y-63740000D02*
X111640000Y-63490000D01*
X118640000Y-63490000D02*
X118640000Y-64702500D01*
X116640000Y-64702500D02*
X116640000Y-63490000D01*
X116640000Y-63490000D02*
X118640000Y-63490000D01*
X114640000Y-64702500D02*
X114640000Y-63490000D01*
X114640000Y-63490000D02*
X116640000Y-63490000D01*
X111640000Y-63490000D02*
X112390000Y-63490000D01*
X112640000Y-63740000D02*
X112390000Y-63490000D01*
X112640000Y-64702500D02*
X112640000Y-63740000D01*
X112390000Y-63490000D02*
X114640000Y-63490000D01*
%TO.N,V_sum*%
X126940000Y-68740000D02*
X126940000Y-73040000D01*
X123840000Y-76140000D02*
X121890000Y-76140000D01*
X126940000Y-73040000D02*
X123840000Y-76140000D01*
X109840000Y-74240000D02*
X111540000Y-74240000D01*
X111540000Y-74240000D02*
X112240000Y-74940000D01*
X111840000Y-77140000D02*
X109740000Y-77140000D01*
X112240000Y-76740000D02*
X111840000Y-77140000D01*
X112440000Y-76140000D02*
X112240000Y-75940000D01*
X121890000Y-76140000D02*
X112440000Y-76140000D01*
X112240000Y-74940000D02*
X112240000Y-75940000D01*
X112240000Y-75940000D02*
X112240000Y-76740000D01*
%TD*%
D23*
%TO.N,V_BAT+*%
G36*
X111102376Y-68245824D02*
G01*
X111308933Y-68331383D01*
X111528212Y-68375000D01*
X111751788Y-68375000D01*
X111913000Y-68342933D01*
X111913000Y-68866928D01*
X111240000Y-68866928D01*
X111115518Y-68879188D01*
X111004055Y-68913000D01*
X110620970Y-68913000D01*
X110551788Y-68899239D01*
X110328212Y-68899239D01*
X110259030Y-68913000D01*
X109540000Y-68913000D01*
X109515224Y-68915440D01*
X109491399Y-68922667D01*
X109469443Y-68934403D01*
X109450197Y-68950197D01*
X109434403Y-68969443D01*
X109422667Y-68991399D01*
X109415440Y-69015224D01*
X109413000Y-69040000D01*
X109413000Y-69547738D01*
X109348617Y-69703172D01*
X109305000Y-69922451D01*
X109305000Y-70146027D01*
X109348617Y-70365306D01*
X109413000Y-70520740D01*
X109413000Y-70659238D01*
X109384176Y-70702376D01*
X109298617Y-70908933D01*
X109255000Y-71128212D01*
X109255000Y-71351788D01*
X109298617Y-71571067D01*
X109384176Y-71777624D01*
X109413000Y-71820762D01*
X109413000Y-71909238D01*
X109384176Y-71952376D01*
X109359065Y-72013000D01*
X104367000Y-72013000D01*
X104367000Y-70267000D01*
X107840000Y-70267000D01*
X107864776Y-70264560D01*
X107888601Y-70257333D01*
X107910557Y-70245597D01*
X107929803Y-70229803D01*
X107938710Y-70219908D01*
X109109008Y-68774246D01*
X109177624Y-68745824D01*
X109363520Y-68621612D01*
X109521612Y-68463520D01*
X109645824Y-68277624D01*
X109691646Y-68167000D01*
X110984408Y-68167000D01*
X111102376Y-68245824D01*
G37*
X111102376Y-68245824D02*
X111308933Y-68331383D01*
X111528212Y-68375000D01*
X111751788Y-68375000D01*
X111913000Y-68342933D01*
X111913000Y-68866928D01*
X111240000Y-68866928D01*
X111115518Y-68879188D01*
X111004055Y-68913000D01*
X110620970Y-68913000D01*
X110551788Y-68899239D01*
X110328212Y-68899239D01*
X110259030Y-68913000D01*
X109540000Y-68913000D01*
X109515224Y-68915440D01*
X109491399Y-68922667D01*
X109469443Y-68934403D01*
X109450197Y-68950197D01*
X109434403Y-68969443D01*
X109422667Y-68991399D01*
X109415440Y-69015224D01*
X109413000Y-69040000D01*
X109413000Y-69547738D01*
X109348617Y-69703172D01*
X109305000Y-69922451D01*
X109305000Y-70146027D01*
X109348617Y-70365306D01*
X109413000Y-70520740D01*
X109413000Y-70659238D01*
X109384176Y-70702376D01*
X109298617Y-70908933D01*
X109255000Y-71128212D01*
X109255000Y-71351788D01*
X109298617Y-71571067D01*
X109384176Y-71777624D01*
X109413000Y-71820762D01*
X109413000Y-71909238D01*
X109384176Y-71952376D01*
X109359065Y-72013000D01*
X104367000Y-72013000D01*
X104367000Y-70267000D01*
X107840000Y-70267000D01*
X107864776Y-70264560D01*
X107888601Y-70257333D01*
X107910557Y-70245597D01*
X107929803Y-70229803D01*
X107938710Y-70219908D01*
X109109008Y-68774246D01*
X109177624Y-68745824D01*
X109363520Y-68621612D01*
X109521612Y-68463520D01*
X109645824Y-68277624D01*
X109691646Y-68167000D01*
X110984408Y-68167000D01*
X111102376Y-68245824D01*
%TO.N,GND*%
G36*
X108313000Y-68313000D02*
G01*
X106540000Y-68313000D01*
X106515224Y-68315440D01*
X106491399Y-68322667D01*
X106469443Y-68334403D01*
X106450197Y-68350197D01*
X106434403Y-68369443D01*
X106422667Y-68391399D01*
X106415440Y-68415224D01*
X106413000Y-68440000D01*
X106413000Y-69313000D01*
X104267000Y-69313000D01*
X104267000Y-67867000D01*
X105840000Y-67867000D01*
X105864776Y-67864560D01*
X105888601Y-67857333D01*
X105916200Y-67841600D01*
X106682333Y-67267000D01*
X108313000Y-67267000D01*
X108313000Y-68313000D01*
G37*
X108313000Y-68313000D02*
X106540000Y-68313000D01*
X106515224Y-68315440D01*
X106491399Y-68322667D01*
X106469443Y-68334403D01*
X106450197Y-68350197D01*
X106434403Y-68369443D01*
X106422667Y-68391399D01*
X106415440Y-68415224D01*
X106413000Y-68440000D01*
X106413000Y-69313000D01*
X104267000Y-69313000D01*
X104267000Y-67867000D01*
X105840000Y-67867000D01*
X105864776Y-67864560D01*
X105888601Y-67857333D01*
X105916200Y-67841600D01*
X106682333Y-67267000D01*
X108313000Y-67267000D01*
X108313000Y-68313000D01*
%TO.N,V_chg*%
G36*
X119713000Y-68713000D02*
G01*
X119626501Y-68713000D01*
X119471067Y-68648617D01*
X119251788Y-68605000D01*
X119028212Y-68605000D01*
X118808933Y-68648617D01*
X118653499Y-68713000D01*
X117367000Y-68713000D01*
X117367000Y-67740000D01*
X117364560Y-67715224D01*
X117357333Y-67691399D01*
X117345597Y-67669443D01*
X117329803Y-67650197D01*
X117310557Y-67634403D01*
X117288601Y-67622667D01*
X117264776Y-67615440D01*
X117240000Y-67613000D01*
X112867000Y-67613000D01*
X112867000Y-66467000D01*
X119713000Y-66467000D01*
X119713000Y-68713000D01*
G37*
X119713000Y-68713000D02*
X119626501Y-68713000D01*
X119471067Y-68648617D01*
X119251788Y-68605000D01*
X119028212Y-68605000D01*
X118808933Y-68648617D01*
X118653499Y-68713000D01*
X117367000Y-68713000D01*
X117367000Y-67740000D01*
X117364560Y-67715224D01*
X117357333Y-67691399D01*
X117345597Y-67669443D01*
X117329803Y-67650197D01*
X117310557Y-67634403D01*
X117288601Y-67622667D01*
X117264776Y-67615440D01*
X117240000Y-67613000D01*
X112867000Y-67613000D01*
X112867000Y-66467000D01*
X119713000Y-66467000D01*
X119713000Y-68713000D01*
%TO.N,/V_ext_p*%
G36*
X119613000Y-64613000D02*
G01*
X111740000Y-64613000D01*
X111715224Y-64615440D01*
X111691399Y-64622667D01*
X111669443Y-64634403D01*
X111650197Y-64650197D01*
X111634403Y-64669443D01*
X111622667Y-64691399D01*
X111615440Y-64715224D01*
X111613000Y-64740000D01*
X111613000Y-65691851D01*
X111592150Y-65730858D01*
X111543392Y-65891592D01*
X111527626Y-66051662D01*
X111443369Y-66121876D01*
X111308933Y-66148617D01*
X111102376Y-66234176D01*
X110916480Y-66358388D01*
X110861868Y-66413000D01*
X110467000Y-66413000D01*
X110467000Y-62890000D01*
X119613000Y-62890000D01*
X119613000Y-64613000D01*
G37*
X119613000Y-64613000D02*
X111740000Y-64613000D01*
X111715224Y-64615440D01*
X111691399Y-64622667D01*
X111669443Y-64634403D01*
X111650197Y-64650197D01*
X111634403Y-64669443D01*
X111622667Y-64691399D01*
X111615440Y-64715224D01*
X111613000Y-64740000D01*
X111613000Y-65691851D01*
X111592150Y-65730858D01*
X111543392Y-65891592D01*
X111527626Y-66051662D01*
X111443369Y-66121876D01*
X111308933Y-66148617D01*
X111102376Y-66234176D01*
X110916480Y-66358388D01*
X110861868Y-66413000D01*
X110467000Y-66413000D01*
X110467000Y-62890000D01*
X119613000Y-62890000D01*
X119613000Y-64613000D01*
%TO.N,V_sum*%
G36*
X128013000Y-77413000D02*
G01*
X116240000Y-77413000D01*
X116215224Y-77415440D01*
X116191399Y-77422667D01*
X116169443Y-77434403D01*
X116150197Y-77450197D01*
X116134403Y-77469443D01*
X116122667Y-77491399D01*
X116115440Y-77515224D01*
X116113000Y-77540000D01*
X116113000Y-78413000D01*
X110067000Y-78413000D01*
X110067000Y-73667000D01*
X123840000Y-73667000D01*
X123864776Y-73664560D01*
X123888601Y-73657333D01*
X123910557Y-73645597D01*
X123929803Y-73629803D01*
X126329803Y-71229803D01*
X126345597Y-71210557D01*
X126357333Y-71188601D01*
X126364560Y-71164776D01*
X126367000Y-71140000D01*
X126367000Y-68867000D01*
X128013000Y-68867000D01*
X128013000Y-77413000D01*
G37*
X128013000Y-77413000D02*
X116240000Y-77413000D01*
X116215224Y-77415440D01*
X116191399Y-77422667D01*
X116169443Y-77434403D01*
X116150197Y-77450197D01*
X116134403Y-77469443D01*
X116122667Y-77491399D01*
X116115440Y-77515224D01*
X116113000Y-77540000D01*
X116113000Y-78413000D01*
X110067000Y-78413000D01*
X110067000Y-73667000D01*
X123840000Y-73667000D01*
X123864776Y-73664560D01*
X123888601Y-73657333D01*
X123910557Y-73645597D01*
X123929803Y-73629803D01*
X126329803Y-71229803D01*
X126345597Y-71210557D01*
X126357333Y-71188601D01*
X126364560Y-71164776D01*
X126367000Y-71140000D01*
X126367000Y-68867000D01*
X128013000Y-68867000D01*
X128013000Y-77413000D01*
%TO.N,/LX*%
G36*
X124013000Y-86970000D02*
G01*
X112467000Y-86970000D01*
X112467000Y-85067000D01*
X116740000Y-85067000D01*
X116764776Y-85064560D01*
X116788601Y-85057333D01*
X116810557Y-85045597D01*
X116829803Y-85029803D01*
X116845597Y-85010557D01*
X116857333Y-84988601D01*
X116864560Y-84964776D01*
X116867000Y-84940000D01*
X116867000Y-83067000D01*
X124013000Y-83067000D01*
X124013000Y-86970000D01*
G37*
X124013000Y-86970000D02*
X112467000Y-86970000D01*
X112467000Y-85067000D01*
X116740000Y-85067000D01*
X116764776Y-85064560D01*
X116788601Y-85057333D01*
X116810557Y-85045597D01*
X116829803Y-85029803D01*
X116845597Y-85010557D01*
X116857333Y-84988601D01*
X116864560Y-84964776D01*
X116867000Y-84940000D01*
X116867000Y-83067000D01*
X124013000Y-83067000D01*
X124013000Y-86970000D01*
%TO.N,5V*%
G36*
X104113000Y-79640000D02*
G01*
X104115440Y-79664776D01*
X104122667Y-79688601D01*
X104134403Y-79710557D01*
X104150197Y-79729803D01*
X104169443Y-79745597D01*
X104191399Y-79757333D01*
X104215224Y-79764560D01*
X104240000Y-79767000D01*
X116113000Y-79767000D01*
X116113000Y-82313000D01*
X102260000Y-82313000D01*
X102260000Y-74962419D01*
X102263193Y-74930000D01*
X102250450Y-74800617D01*
X102212710Y-74676207D01*
X102151425Y-74561550D01*
X102068948Y-74461052D01*
X101968450Y-74378575D01*
X101853793Y-74317290D01*
X101767000Y-74290961D01*
X101767000Y-73767000D01*
X104113000Y-73767000D01*
X104113000Y-79640000D01*
G37*
X104113000Y-79640000D02*
X104115440Y-79664776D01*
X104122667Y-79688601D01*
X104134403Y-79710557D01*
X104150197Y-79729803D01*
X104169443Y-79745597D01*
X104191399Y-79757333D01*
X104215224Y-79764560D01*
X104240000Y-79767000D01*
X116113000Y-79767000D01*
X116113000Y-82313000D01*
X102260000Y-82313000D01*
X102260000Y-74962419D01*
X102263193Y-74930000D01*
X102250450Y-74800617D01*
X102212710Y-74676207D01*
X102151425Y-74561550D01*
X102068948Y-74461052D01*
X101968450Y-74378575D01*
X101853793Y-74317290D01*
X101767000Y-74290961D01*
X101767000Y-73767000D01*
X104113000Y-73767000D01*
X104113000Y-79640000D01*
%TO.N,GND*%
G36*
X106513000Y-78813000D02*
G01*
X104967000Y-78813000D01*
X104967000Y-75467000D01*
X106513000Y-75467000D01*
X106513000Y-78813000D01*
G37*
X106513000Y-78813000D02*
X104967000Y-78813000D01*
X104967000Y-75467000D01*
X106513000Y-75467000D01*
X106513000Y-78813000D01*
G36*
X105416592Y-85086608D02*
G01*
X105583750Y-85103072D01*
X106096250Y-85103072D01*
X106263408Y-85086608D01*
X106328047Y-85067000D01*
X111313000Y-85067000D01*
X111313000Y-86970000D01*
X102260000Y-86970000D01*
X102260000Y-85667000D01*
X104840000Y-85667000D01*
X104864776Y-85664560D01*
X104888601Y-85657333D01*
X104910557Y-85645597D01*
X104929803Y-85629803D01*
X104945597Y-85610557D01*
X104957333Y-85588601D01*
X104964560Y-85564776D01*
X104967000Y-85540000D01*
X104967000Y-85067000D01*
X105351953Y-85067000D01*
X105416592Y-85086608D01*
G37*
X105416592Y-85086608D02*
X105583750Y-85103072D01*
X106096250Y-85103072D01*
X106263408Y-85086608D01*
X106328047Y-85067000D01*
X111313000Y-85067000D01*
X111313000Y-86970000D01*
X102260000Y-86970000D01*
X102260000Y-85667000D01*
X104840000Y-85667000D01*
X104864776Y-85664560D01*
X104888601Y-85657333D01*
X104910557Y-85645597D01*
X104929803Y-85629803D01*
X104945597Y-85610557D01*
X104957333Y-85588601D01*
X104964560Y-85564776D01*
X104967000Y-85540000D01*
X104967000Y-85067000D01*
X105351953Y-85067000D01*
X105416592Y-85086608D01*
%TD*%
M02*
