%TF.GenerationSoftware,KiCad,Pcbnew,(5.1.6)-1*%
%TF.CreationDate,2021-02-23T00:21:00+01:00*%
%TF.ProjectId,02_Batt_Alim,30325f42-6174-4745-9f41-6c696d2e6b69,rev?*%
%TF.SameCoordinates,Original*%
%TF.FileFunction,Legend,Bot*%
%TF.FilePolarity,Positive*%
%FSLAX46Y46*%
G04 Gerber Fmt 4.6, Leading zero omitted, Abs format (unit mm)*
G04 Created by KiCad (PCBNEW (5.1.6)-1) date 2021-02-23 00:21:00*
%MOMM*%
%LPD*%
G01*
G04 APERTURE LIST*
%ADD10C,0.150000*%
%TA.AperFunction,Profile*%
%ADD11C,0.050000*%
%TD*%
%ADD12C,0.300000*%
%ADD13C,0.010000*%
G04 APERTURE END LIST*
D10*
X106730476Y-73292380D02*
X107206666Y-73292380D01*
X107254285Y-73768571D01*
X107206666Y-73720952D01*
X107111428Y-73673333D01*
X106873333Y-73673333D01*
X106778095Y-73720952D01*
X106730476Y-73768571D01*
X106682857Y-73863809D01*
X106682857Y-74101904D01*
X106730476Y-74197142D01*
X106778095Y-74244761D01*
X106873333Y-74292380D01*
X107111428Y-74292380D01*
X107206666Y-74244761D01*
X107254285Y-74197142D01*
X106397142Y-73292380D02*
X106063809Y-74292380D01*
X105730476Y-73292380D01*
D11*
X129540000Y-62230000D02*
X129540000Y-87630000D01*
X101600000Y-62230000D02*
X129540000Y-62230000D01*
X101600000Y-74930000D02*
X101600000Y-87630000D01*
X100330000Y-74930000D02*
X101600000Y-74930000D01*
X101600000Y-62230000D02*
X101600000Y-64770000D01*
X101600000Y-64770000D02*
X100330000Y-64770000D01*
D10*
X124775714Y-77263809D02*
X125585238Y-77263809D01*
X125680476Y-77216190D01*
X125728095Y-77168571D01*
X125775714Y-77073333D01*
X125775714Y-76930476D01*
X125728095Y-76835238D01*
X125394761Y-77263809D02*
X125442380Y-77168571D01*
X125442380Y-76978095D01*
X125394761Y-76882857D01*
X125347142Y-76835238D01*
X125251904Y-76787619D01*
X124966190Y-76787619D01*
X124870952Y-76835238D01*
X124823333Y-76882857D01*
X124775714Y-76978095D01*
X124775714Y-77168571D01*
X124823333Y-77263809D01*
X125442380Y-77740000D02*
X124775714Y-77740000D01*
X124442380Y-77740000D02*
X124490000Y-77692380D01*
X124537619Y-77740000D01*
X124490000Y-77787619D01*
X124442380Y-77740000D01*
X124537619Y-77740000D01*
X124775714Y-78073333D02*
X124775714Y-78454285D01*
X124442380Y-78216190D02*
X125299523Y-78216190D01*
X125394761Y-78263809D01*
X125442380Y-78359047D01*
X125442380Y-78454285D01*
X125442380Y-78787619D02*
X124442380Y-78787619D01*
X125442380Y-79216190D02*
X124918571Y-79216190D01*
X124823333Y-79168571D01*
X124775714Y-79073333D01*
X124775714Y-78930476D01*
X124823333Y-78835238D01*
X124870952Y-78787619D01*
X124775714Y-80120952D02*
X125442380Y-80120952D01*
X124775714Y-79692380D02*
X125299523Y-79692380D01*
X125394761Y-79740000D01*
X125442380Y-79835238D01*
X125442380Y-79978095D01*
X125394761Y-80073333D01*
X125347142Y-80120952D01*
X125442380Y-80597142D02*
X124442380Y-80597142D01*
X124823333Y-80597142D02*
X124775714Y-80692380D01*
X124775714Y-80882857D01*
X124823333Y-80978095D01*
X124870952Y-81025714D01*
X124966190Y-81073333D01*
X125251904Y-81073333D01*
X125347142Y-81025714D01*
X125394761Y-80978095D01*
X125442380Y-80882857D01*
X125442380Y-80692380D01*
X125394761Y-80597142D01*
X125347142Y-81501904D02*
X125394761Y-81549523D01*
X125442380Y-81501904D01*
X125394761Y-81454285D01*
X125347142Y-81501904D01*
X125442380Y-81501904D01*
X125394761Y-82406666D02*
X125442380Y-82311428D01*
X125442380Y-82120952D01*
X125394761Y-82025714D01*
X125347142Y-81978095D01*
X125251904Y-81930476D01*
X124966190Y-81930476D01*
X124870952Y-81978095D01*
X124823333Y-82025714D01*
X124775714Y-82120952D01*
X124775714Y-82311428D01*
X124823333Y-82406666D01*
X125442380Y-82978095D02*
X125394761Y-82882857D01*
X125347142Y-82835238D01*
X125251904Y-82787619D01*
X124966190Y-82787619D01*
X124870952Y-82835238D01*
X124823333Y-82882857D01*
X124775714Y-82978095D01*
X124775714Y-83120952D01*
X124823333Y-83216190D01*
X124870952Y-83263809D01*
X124966190Y-83311428D01*
X125251904Y-83311428D01*
X125347142Y-83263809D01*
X125394761Y-83216190D01*
X125442380Y-83120952D01*
X125442380Y-82978095D01*
X125442380Y-83740000D02*
X124775714Y-83740000D01*
X124870952Y-83740000D02*
X124823333Y-83787619D01*
X124775714Y-83882857D01*
X124775714Y-84025714D01*
X124823333Y-84120952D01*
X124918571Y-84168571D01*
X125442380Y-84168571D01*
X124918571Y-84168571D02*
X124823333Y-84216190D01*
X124775714Y-84311428D01*
X124775714Y-84454285D01*
X124823333Y-84549523D01*
X124918571Y-84597142D01*
X125442380Y-84597142D01*
X124394761Y-85787619D02*
X125680476Y-84930476D01*
X126092380Y-75620952D02*
X126092380Y-76192380D01*
X127092380Y-75906666D02*
X126092380Y-75906666D01*
X127092380Y-76525714D02*
X126092380Y-76525714D01*
X127092380Y-76954285D02*
X126568571Y-76954285D01*
X126473333Y-76906666D01*
X126425714Y-76811428D01*
X126425714Y-76668571D01*
X126473333Y-76573333D01*
X126520952Y-76525714D01*
X127092380Y-77430476D02*
X126425714Y-77430476D01*
X126092380Y-77430476D02*
X126140000Y-77382857D01*
X126187619Y-77430476D01*
X126140000Y-77478095D01*
X126092380Y-77430476D01*
X126187619Y-77430476D01*
X127044761Y-78287619D02*
X127092380Y-78192380D01*
X127092380Y-78001904D01*
X127044761Y-77906666D01*
X126949523Y-77859047D01*
X126568571Y-77859047D01*
X126473333Y-77906666D01*
X126425714Y-78001904D01*
X126425714Y-78192380D01*
X126473333Y-78287619D01*
X126568571Y-78335238D01*
X126663809Y-78335238D01*
X126759047Y-77859047D01*
X127092380Y-78763809D02*
X126425714Y-78763809D01*
X126616190Y-78763809D02*
X126520952Y-78811428D01*
X126473333Y-78859047D01*
X126425714Y-78954285D01*
X126425714Y-79049523D01*
X127092380Y-79382857D02*
X126425714Y-79382857D01*
X126616190Y-79382857D02*
X126520952Y-79430476D01*
X126473333Y-79478095D01*
X126425714Y-79573333D01*
X126425714Y-79668571D01*
X126425714Y-79906666D02*
X127092380Y-80144761D01*
X126425714Y-80382857D02*
X127092380Y-80144761D01*
X127330476Y-80049523D01*
X127378095Y-80001904D01*
X127425714Y-79906666D01*
X126092380Y-80954285D02*
X126092380Y-81144761D01*
X126140000Y-81240000D01*
X126235238Y-81335238D01*
X126425714Y-81382857D01*
X126759047Y-81382857D01*
X126949523Y-81335238D01*
X127044761Y-81240000D01*
X127092380Y-81144761D01*
X127092380Y-80954285D01*
X127044761Y-80859047D01*
X126949523Y-80763809D01*
X126759047Y-80716190D01*
X126425714Y-80716190D01*
X126235238Y-80763809D01*
X126140000Y-80859047D01*
X126092380Y-80954285D01*
X127092380Y-81811428D02*
X126425714Y-81811428D01*
X126616190Y-81811428D02*
X126520952Y-81859047D01*
X126473333Y-81906666D01*
X126425714Y-82001904D01*
X126425714Y-82097142D01*
X127092380Y-82573333D02*
X127044761Y-82478095D01*
X126949523Y-82430476D01*
X126092380Y-82430476D01*
X127092380Y-83382857D02*
X126568571Y-83382857D01*
X126473333Y-83335238D01*
X126425714Y-83240000D01*
X126425714Y-83049523D01*
X126473333Y-82954285D01*
X127044761Y-83382857D02*
X127092380Y-83287619D01*
X127092380Y-83049523D01*
X127044761Y-82954285D01*
X126949523Y-82906666D01*
X126854285Y-82906666D01*
X126759047Y-82954285D01*
X126711428Y-83049523D01*
X126711428Y-83287619D01*
X126663809Y-83382857D01*
X126425714Y-83859047D02*
X127092380Y-83859047D01*
X126520952Y-83859047D02*
X126473333Y-83906666D01*
X126425714Y-84001904D01*
X126425714Y-84144761D01*
X126473333Y-84240000D01*
X126568571Y-84287619D01*
X127092380Y-84287619D01*
X127092380Y-85192380D02*
X126092380Y-85192380D01*
X127044761Y-85192380D02*
X127092380Y-85097142D01*
X127092380Y-84906666D01*
X127044761Y-84811428D01*
X126997142Y-84763809D01*
X126901904Y-84716190D01*
X126616190Y-84716190D01*
X126520952Y-84763809D01*
X126473333Y-84811428D01*
X126425714Y-84906666D01*
X126425714Y-85097142D01*
X126473333Y-85192380D01*
X127092380Y-85668571D02*
X126425714Y-85668571D01*
X126092380Y-85668571D02*
X126140000Y-85620952D01*
X126187619Y-85668571D01*
X126140000Y-85716190D01*
X126092380Y-85668571D01*
X126187619Y-85668571D01*
X126044761Y-86859047D02*
X127330476Y-86001904D01*
X127742380Y-76835238D02*
X127742380Y-76930476D01*
X127790000Y-77025714D01*
X127837619Y-77073333D01*
X127932857Y-77120952D01*
X128123333Y-77168571D01*
X128361428Y-77168571D01*
X128551904Y-77120952D01*
X128647142Y-77073333D01*
X128694761Y-77025714D01*
X128742380Y-76930476D01*
X128742380Y-76835238D01*
X128694761Y-76740000D01*
X128647142Y-76692380D01*
X128551904Y-76644761D01*
X128361428Y-76597142D01*
X128123333Y-76597142D01*
X127932857Y-76644761D01*
X127837619Y-76692380D01*
X127790000Y-76740000D01*
X127742380Y-76835238D01*
X127837619Y-77549523D02*
X127790000Y-77597142D01*
X127742380Y-77692380D01*
X127742380Y-77930476D01*
X127790000Y-78025714D01*
X127837619Y-78073333D01*
X127932857Y-78120952D01*
X128028095Y-78120952D01*
X128170952Y-78073333D01*
X128742380Y-77501904D01*
X128742380Y-78120952D01*
X128837619Y-78311428D02*
X128837619Y-79073333D01*
X128218571Y-79644761D02*
X128266190Y-79787619D01*
X128313809Y-79835238D01*
X128409047Y-79882857D01*
X128551904Y-79882857D01*
X128647142Y-79835238D01*
X128694761Y-79787619D01*
X128742380Y-79692380D01*
X128742380Y-79311428D01*
X127742380Y-79311428D01*
X127742380Y-79644761D01*
X127790000Y-79740000D01*
X127837619Y-79787619D01*
X127932857Y-79835238D01*
X128028095Y-79835238D01*
X128123333Y-79787619D01*
X128170952Y-79740000D01*
X128218571Y-79644761D01*
X128218571Y-79311428D01*
X128742380Y-80740000D02*
X128218571Y-80740000D01*
X128123333Y-80692380D01*
X128075714Y-80597142D01*
X128075714Y-80406666D01*
X128123333Y-80311428D01*
X128694761Y-80740000D02*
X128742380Y-80644761D01*
X128742380Y-80406666D01*
X128694761Y-80311428D01*
X128599523Y-80263809D01*
X128504285Y-80263809D01*
X128409047Y-80311428D01*
X128361428Y-80406666D01*
X128361428Y-80644761D01*
X128313809Y-80740000D01*
X128075714Y-81073333D02*
X128075714Y-81454285D01*
X127742380Y-81216190D02*
X128599523Y-81216190D01*
X128694761Y-81263809D01*
X128742380Y-81359047D01*
X128742380Y-81454285D01*
X128075714Y-81644761D02*
X128075714Y-82025714D01*
X127742380Y-81787619D02*
X128599523Y-81787619D01*
X128694761Y-81835238D01*
X128742380Y-81930476D01*
X128742380Y-82025714D01*
X128837619Y-82120952D02*
X128837619Y-82882857D01*
X128456666Y-83073333D02*
X128456666Y-83549523D01*
X128742380Y-82978095D02*
X127742380Y-83311428D01*
X128742380Y-83644761D01*
X128742380Y-84120952D02*
X128694761Y-84025714D01*
X128599523Y-83978095D01*
X127742380Y-83978095D01*
X128742380Y-84501904D02*
X128075714Y-84501904D01*
X127742380Y-84501904D02*
X127790000Y-84454285D01*
X127837619Y-84501904D01*
X127790000Y-84549523D01*
X127742380Y-84501904D01*
X127837619Y-84501904D01*
X128742380Y-84978095D02*
X128075714Y-84978095D01*
X128170952Y-84978095D02*
X128123333Y-85025714D01*
X128075714Y-85120952D01*
X128075714Y-85263809D01*
X128123333Y-85359047D01*
X128218571Y-85406666D01*
X128742380Y-85406666D01*
X128218571Y-85406666D02*
X128123333Y-85454285D01*
X128075714Y-85549523D01*
X128075714Y-85692380D01*
X128123333Y-85787619D01*
X128218571Y-85835238D01*
X128742380Y-85835238D01*
D11*
X129540000Y-87630000D02*
X101600000Y-87630000D01*
X100330000Y-74930000D02*
X100330000Y-64770000D01*
D10*
X108697142Y-70968571D02*
X108554285Y-71016190D01*
X108506666Y-71063809D01*
X108459047Y-71159047D01*
X108459047Y-71301904D01*
X108506666Y-71397142D01*
X108554285Y-71444761D01*
X108649523Y-71492380D01*
X109030476Y-71492380D01*
X109030476Y-70492380D01*
X108697142Y-70492380D01*
X108601904Y-70540000D01*
X108554285Y-70587619D01*
X108506666Y-70682857D01*
X108506666Y-70778095D01*
X108554285Y-70873333D01*
X108601904Y-70920952D01*
X108697142Y-70968571D01*
X109030476Y-70968571D01*
X108078095Y-71206666D02*
X107601904Y-71206666D01*
X108173333Y-71492380D02*
X107840000Y-70492380D01*
X107506666Y-71492380D01*
X107316190Y-70492380D02*
X106744761Y-70492380D01*
X107030476Y-71492380D02*
X107030476Y-70492380D01*
X106411428Y-71111428D02*
X105649523Y-71111428D01*
X106030476Y-71492380D02*
X106030476Y-70730476D01*
X107801904Y-68040000D02*
X107897142Y-67992380D01*
X108040000Y-67992380D01*
X108182857Y-68040000D01*
X108278095Y-68135238D01*
X108325714Y-68230476D01*
X108373333Y-68420952D01*
X108373333Y-68563809D01*
X108325714Y-68754285D01*
X108278095Y-68849523D01*
X108182857Y-68944761D01*
X108040000Y-68992380D01*
X107944761Y-68992380D01*
X107801904Y-68944761D01*
X107754285Y-68897142D01*
X107754285Y-68563809D01*
X107944761Y-68563809D01*
X107325714Y-68992380D02*
X107325714Y-67992380D01*
X106754285Y-68992380D01*
X106754285Y-67992380D01*
X106278095Y-68992380D02*
X106278095Y-67992380D01*
X106040000Y-67992380D01*
X105897142Y-68040000D01*
X105801904Y-68135238D01*
X105754285Y-68230476D01*
X105706666Y-68420952D01*
X105706666Y-68563809D01*
X105754285Y-68754285D01*
X105801904Y-68849523D01*
X105897142Y-68944761D01*
X106040000Y-68992380D01*
X106278095Y-68992380D01*
X109573333Y-65492380D02*
X109240000Y-66492380D01*
X108906666Y-65492380D01*
X108811428Y-66587619D02*
X108049523Y-66587619D01*
X107430476Y-66444761D02*
X107525714Y-66492380D01*
X107716190Y-66492380D01*
X107811428Y-66444761D01*
X107859047Y-66349523D01*
X107859047Y-65968571D01*
X107811428Y-65873333D01*
X107716190Y-65825714D01*
X107525714Y-65825714D01*
X107430476Y-65873333D01*
X107382857Y-65968571D01*
X107382857Y-66063809D01*
X107859047Y-66159047D01*
X107049523Y-66492380D02*
X106525714Y-65825714D01*
X107049523Y-65825714D02*
X106525714Y-66492380D01*
X106287619Y-65825714D02*
X105906666Y-65825714D01*
X106144761Y-65492380D02*
X106144761Y-66349523D01*
X106097142Y-66444761D01*
X106001904Y-66492380D01*
X105906666Y-66492380D01*
D12*
X114532857Y-82357857D02*
X114318571Y-82429285D01*
X114247142Y-82500714D01*
X114175714Y-82643571D01*
X114175714Y-82857857D01*
X114247142Y-83000714D01*
X114318571Y-83072142D01*
X114461428Y-83143571D01*
X115032857Y-83143571D01*
X115032857Y-81643571D01*
X114532857Y-81643571D01*
X114390000Y-81715000D01*
X114318571Y-81786428D01*
X114247142Y-81929285D01*
X114247142Y-82072142D01*
X114318571Y-82215000D01*
X114390000Y-82286428D01*
X114532857Y-82357857D01*
X115032857Y-82357857D01*
X112890000Y-83143571D02*
X112890000Y-82357857D01*
X112961428Y-82215000D01*
X113104285Y-82143571D01*
X113390000Y-82143571D01*
X113532857Y-82215000D01*
X112890000Y-83072142D02*
X113032857Y-83143571D01*
X113390000Y-83143571D01*
X113532857Y-83072142D01*
X113604285Y-82929285D01*
X113604285Y-82786428D01*
X113532857Y-82643571D01*
X113390000Y-82572142D01*
X113032857Y-82572142D01*
X112890000Y-82500714D01*
X112390000Y-82143571D02*
X111818571Y-82143571D01*
X112175714Y-81643571D02*
X112175714Y-82929285D01*
X112104285Y-83072142D01*
X111961428Y-83143571D01*
X111818571Y-83143571D01*
X111532857Y-82143571D02*
X110961428Y-82143571D01*
X111318571Y-81643571D02*
X111318571Y-82929285D01*
X111247142Y-83072142D01*
X111104285Y-83143571D01*
X110961428Y-83143571D01*
X110818571Y-83286428D02*
X109675714Y-83286428D01*
X109390000Y-82715000D02*
X108675714Y-82715000D01*
X109532857Y-83143571D02*
X109032857Y-81643571D01*
X108532857Y-83143571D01*
X107818571Y-83143571D02*
X107961428Y-83072142D01*
X108032857Y-82929285D01*
X108032857Y-81643571D01*
X107247142Y-83143571D02*
X107247142Y-82143571D01*
X107247142Y-81643571D02*
X107318571Y-81715000D01*
X107247142Y-81786428D01*
X107175714Y-81715000D01*
X107247142Y-81643571D01*
X107247142Y-81786428D01*
X106532857Y-83143571D02*
X106532857Y-82143571D01*
X106532857Y-82286428D02*
X106461428Y-82215000D01*
X106318571Y-82143571D01*
X106104285Y-82143571D01*
X105961428Y-82215000D01*
X105890000Y-82357857D01*
X105890000Y-83143571D01*
X105890000Y-82357857D02*
X105818571Y-82215000D01*
X105675714Y-82143571D01*
X105461428Y-82143571D01*
X105318571Y-82215000D01*
X105247142Y-82357857D01*
X105247142Y-83143571D01*
X117140000Y-84336428D02*
X117068571Y-84265000D01*
X116925714Y-84193571D01*
X116568571Y-84193571D01*
X116425714Y-84265000D01*
X116354285Y-84336428D01*
X116282857Y-84479285D01*
X116282857Y-84622142D01*
X116354285Y-84836428D01*
X117211428Y-85693571D01*
X116282857Y-85693571D01*
X115354285Y-84193571D02*
X115211428Y-84193571D01*
X115068571Y-84265000D01*
X114997142Y-84336428D01*
X114925714Y-84479285D01*
X114854285Y-84765000D01*
X114854285Y-85122142D01*
X114925714Y-85407857D01*
X114997142Y-85550714D01*
X115068571Y-85622142D01*
X115211428Y-85693571D01*
X115354285Y-85693571D01*
X115497142Y-85622142D01*
X115568571Y-85550714D01*
X115640000Y-85407857D01*
X115711428Y-85122142D01*
X115711428Y-84765000D01*
X115640000Y-84479285D01*
X115568571Y-84336428D01*
X115497142Y-84265000D01*
X115354285Y-84193571D01*
X114282857Y-84336428D02*
X114211428Y-84265000D01*
X114068571Y-84193571D01*
X113711428Y-84193571D01*
X113568571Y-84265000D01*
X113497142Y-84336428D01*
X113425714Y-84479285D01*
X113425714Y-84622142D01*
X113497142Y-84836428D01*
X114354285Y-85693571D01*
X113425714Y-85693571D01*
X111997142Y-85693571D02*
X112854285Y-85693571D01*
X112425714Y-85693571D02*
X112425714Y-84193571D01*
X112568571Y-84407857D01*
X112711428Y-84550714D01*
X112854285Y-84622142D01*
X110282857Y-84122142D02*
X111568571Y-86050714D01*
X109497142Y-84193571D02*
X109354285Y-84193571D01*
X109211428Y-84265000D01*
X109140000Y-84336428D01*
X109068571Y-84479285D01*
X108997142Y-84765000D01*
X108997142Y-85122142D01*
X109068571Y-85407857D01*
X109140000Y-85550714D01*
X109211428Y-85622142D01*
X109354285Y-85693571D01*
X109497142Y-85693571D01*
X109640000Y-85622142D01*
X109711428Y-85550714D01*
X109782857Y-85407857D01*
X109854285Y-85122142D01*
X109854285Y-84765000D01*
X109782857Y-84479285D01*
X109711428Y-84336428D01*
X109640000Y-84265000D01*
X109497142Y-84193571D01*
X108425714Y-84336428D02*
X108354285Y-84265000D01*
X108211428Y-84193571D01*
X107854285Y-84193571D01*
X107711428Y-84265000D01*
X107640000Y-84336428D01*
X107568571Y-84479285D01*
X107568571Y-84622142D01*
X107640000Y-84836428D01*
X108497142Y-85693571D01*
X107568571Y-85693571D01*
X105854285Y-84122142D02*
X107140000Y-86050714D01*
X105425714Y-84336428D02*
X105354285Y-84265000D01*
X105211428Y-84193571D01*
X104854285Y-84193571D01*
X104711428Y-84265000D01*
X104640000Y-84336428D01*
X104568571Y-84479285D01*
X104568571Y-84622142D01*
X104640000Y-84836428D01*
X105497142Y-85693571D01*
X104568571Y-85693571D01*
X104068571Y-84193571D02*
X103140000Y-84193571D01*
X103640000Y-84765000D01*
X103425714Y-84765000D01*
X103282857Y-84836428D01*
X103211428Y-84907857D01*
X103140000Y-85050714D01*
X103140000Y-85407857D01*
X103211428Y-85550714D01*
X103282857Y-85622142D01*
X103425714Y-85693571D01*
X103854285Y-85693571D01*
X103997142Y-85622142D01*
X104068571Y-85550714D01*
D13*
%TO.C,REF\u002A\u002A*%
G36*
X124240256Y-67559918D02*
G01*
X124184799Y-67587568D01*
X124135852Y-67638480D01*
X124122371Y-67657338D01*
X124107686Y-67682015D01*
X124098158Y-67708816D01*
X124092707Y-67744587D01*
X124090253Y-67796169D01*
X124089714Y-67864267D01*
X124092148Y-67957588D01*
X124100606Y-68027657D01*
X124116826Y-68079931D01*
X124142546Y-68119869D01*
X124179503Y-68152929D01*
X124182218Y-68154886D01*
X124218640Y-68174908D01*
X124262498Y-68184815D01*
X124318276Y-68187257D01*
X124408952Y-68187257D01*
X124408990Y-68275283D01*
X124409834Y-68324308D01*
X124414976Y-68353065D01*
X124428413Y-68370311D01*
X124454142Y-68384808D01*
X124460321Y-68387769D01*
X124489236Y-68401648D01*
X124511624Y-68410414D01*
X124528271Y-68411171D01*
X124539964Y-68401023D01*
X124547490Y-68377073D01*
X124551634Y-68336426D01*
X124553185Y-68276186D01*
X124552929Y-68193455D01*
X124551651Y-68085339D01*
X124551252Y-68053000D01*
X124549815Y-67941524D01*
X124548528Y-67868603D01*
X124409029Y-67868603D01*
X124408245Y-67930499D01*
X124404760Y-67970997D01*
X124396876Y-67997708D01*
X124382895Y-68018244D01*
X124373403Y-68028260D01*
X124334596Y-68057567D01*
X124300237Y-68059952D01*
X124264784Y-68035750D01*
X124263886Y-68034857D01*
X124249461Y-68016153D01*
X124240687Y-67990732D01*
X124236261Y-67951584D01*
X124234882Y-67891697D01*
X124234857Y-67878430D01*
X124238188Y-67795901D01*
X124249031Y-67738691D01*
X124268660Y-67703766D01*
X124298350Y-67688094D01*
X124315509Y-67686514D01*
X124356234Y-67693926D01*
X124384168Y-67718330D01*
X124400983Y-67762980D01*
X124408350Y-67831130D01*
X124409029Y-67868603D01*
X124548528Y-67868603D01*
X124548292Y-67855245D01*
X124546323Y-67790333D01*
X124543550Y-67742958D01*
X124539612Y-67709290D01*
X124534151Y-67685498D01*
X124526808Y-67667753D01*
X124517223Y-67652224D01*
X124513113Y-67646381D01*
X124458595Y-67591185D01*
X124389664Y-67559890D01*
X124309928Y-67551165D01*
X124240256Y-67559918D01*
G37*
X124240256Y-67559918D02*
X124184799Y-67587568D01*
X124135852Y-67638480D01*
X124122371Y-67657338D01*
X124107686Y-67682015D01*
X124098158Y-67708816D01*
X124092707Y-67744587D01*
X124090253Y-67796169D01*
X124089714Y-67864267D01*
X124092148Y-67957588D01*
X124100606Y-68027657D01*
X124116826Y-68079931D01*
X124142546Y-68119869D01*
X124179503Y-68152929D01*
X124182218Y-68154886D01*
X124218640Y-68174908D01*
X124262498Y-68184815D01*
X124318276Y-68187257D01*
X124408952Y-68187257D01*
X124408990Y-68275283D01*
X124409834Y-68324308D01*
X124414976Y-68353065D01*
X124428413Y-68370311D01*
X124454142Y-68384808D01*
X124460321Y-68387769D01*
X124489236Y-68401648D01*
X124511624Y-68410414D01*
X124528271Y-68411171D01*
X124539964Y-68401023D01*
X124547490Y-68377073D01*
X124551634Y-68336426D01*
X124553185Y-68276186D01*
X124552929Y-68193455D01*
X124551651Y-68085339D01*
X124551252Y-68053000D01*
X124549815Y-67941524D01*
X124548528Y-67868603D01*
X124409029Y-67868603D01*
X124408245Y-67930499D01*
X124404760Y-67970997D01*
X124396876Y-67997708D01*
X124382895Y-68018244D01*
X124373403Y-68028260D01*
X124334596Y-68057567D01*
X124300237Y-68059952D01*
X124264784Y-68035750D01*
X124263886Y-68034857D01*
X124249461Y-68016153D01*
X124240687Y-67990732D01*
X124236261Y-67951584D01*
X124234882Y-67891697D01*
X124234857Y-67878430D01*
X124238188Y-67795901D01*
X124249031Y-67738691D01*
X124268660Y-67703766D01*
X124298350Y-67688094D01*
X124315509Y-67686514D01*
X124356234Y-67693926D01*
X124384168Y-67718330D01*
X124400983Y-67762980D01*
X124408350Y-67831130D01*
X124409029Y-67868603D01*
X124548528Y-67868603D01*
X124548292Y-67855245D01*
X124546323Y-67790333D01*
X124543550Y-67742958D01*
X124539612Y-67709290D01*
X124534151Y-67685498D01*
X124526808Y-67667753D01*
X124517223Y-67652224D01*
X124513113Y-67646381D01*
X124458595Y-67591185D01*
X124389664Y-67559890D01*
X124309928Y-67551165D01*
X124240256Y-67559918D01*
G36*
X123123907Y-67567780D02*
G01*
X123077328Y-67594723D01*
X123044943Y-67621466D01*
X123021258Y-67649484D01*
X123004941Y-67683748D01*
X122994661Y-67729227D01*
X122989086Y-67790892D01*
X122986884Y-67873711D01*
X122986629Y-67933246D01*
X122986629Y-68152391D01*
X123048314Y-68180044D01*
X123110000Y-68207697D01*
X123117257Y-67967670D01*
X123120256Y-67878028D01*
X123123402Y-67812962D01*
X123127299Y-67768026D01*
X123132553Y-67738770D01*
X123139769Y-67720748D01*
X123149550Y-67709511D01*
X123152688Y-67707079D01*
X123200239Y-67688083D01*
X123248303Y-67695600D01*
X123276914Y-67715543D01*
X123288553Y-67729675D01*
X123296609Y-67748220D01*
X123301729Y-67776334D01*
X123304559Y-67819173D01*
X123305744Y-67881895D01*
X123305943Y-67947261D01*
X123305982Y-68029268D01*
X123307386Y-68087316D01*
X123312086Y-68126465D01*
X123322013Y-68151780D01*
X123339097Y-68168323D01*
X123365268Y-68181156D01*
X123400225Y-68194491D01*
X123438404Y-68209007D01*
X123433859Y-67951389D01*
X123432029Y-67858519D01*
X123429888Y-67789889D01*
X123426819Y-67740711D01*
X123422206Y-67706198D01*
X123415432Y-67681562D01*
X123405881Y-67662016D01*
X123394366Y-67644770D01*
X123338810Y-67589680D01*
X123271020Y-67557822D01*
X123197287Y-67550191D01*
X123123907Y-67567780D01*
G37*
X123123907Y-67567780D02*
X123077328Y-67594723D01*
X123044943Y-67621466D01*
X123021258Y-67649484D01*
X123004941Y-67683748D01*
X122994661Y-67729227D01*
X122989086Y-67790892D01*
X122986884Y-67873711D01*
X122986629Y-67933246D01*
X122986629Y-68152391D01*
X123048314Y-68180044D01*
X123110000Y-68207697D01*
X123117257Y-67967670D01*
X123120256Y-67878028D01*
X123123402Y-67812962D01*
X123127299Y-67768026D01*
X123132553Y-67738770D01*
X123139769Y-67720748D01*
X123149550Y-67709511D01*
X123152688Y-67707079D01*
X123200239Y-67688083D01*
X123248303Y-67695600D01*
X123276914Y-67715543D01*
X123288553Y-67729675D01*
X123296609Y-67748220D01*
X123301729Y-67776334D01*
X123304559Y-67819173D01*
X123305744Y-67881895D01*
X123305943Y-67947261D01*
X123305982Y-68029268D01*
X123307386Y-68087316D01*
X123312086Y-68126465D01*
X123322013Y-68151780D01*
X123339097Y-68168323D01*
X123365268Y-68181156D01*
X123400225Y-68194491D01*
X123438404Y-68209007D01*
X123433859Y-67951389D01*
X123432029Y-67858519D01*
X123429888Y-67789889D01*
X123426819Y-67740711D01*
X123422206Y-67706198D01*
X123415432Y-67681562D01*
X123405881Y-67662016D01*
X123394366Y-67644770D01*
X123338810Y-67589680D01*
X123271020Y-67557822D01*
X123197287Y-67550191D01*
X123123907Y-67567780D01*
G36*
X124798885Y-67561962D02*
G01*
X124730855Y-67597733D01*
X124680649Y-67655301D01*
X124662815Y-67692312D01*
X124648937Y-67747882D01*
X124641833Y-67818096D01*
X124641160Y-67894727D01*
X124646573Y-67969552D01*
X124657730Y-68034342D01*
X124674286Y-68080873D01*
X124679374Y-68088887D01*
X124739645Y-68148707D01*
X124811231Y-68184535D01*
X124888908Y-68195020D01*
X124967452Y-68178810D01*
X124989311Y-68169092D01*
X125031878Y-68139143D01*
X125069237Y-68099433D01*
X125072768Y-68094397D01*
X125087119Y-68070124D01*
X125096606Y-68044178D01*
X125102210Y-68010022D01*
X125104914Y-67961119D01*
X125105701Y-67890935D01*
X125105714Y-67875200D01*
X125105678Y-67870192D01*
X124960571Y-67870192D01*
X124959727Y-67936430D01*
X124956404Y-67980386D01*
X124949417Y-68008779D01*
X124937584Y-68028325D01*
X124931543Y-68034857D01*
X124896814Y-68059680D01*
X124863097Y-68058548D01*
X124829005Y-68037016D01*
X124808671Y-68014029D01*
X124796629Y-67980478D01*
X124789866Y-67927569D01*
X124789402Y-67921399D01*
X124788248Y-67825513D01*
X124800312Y-67754299D01*
X124825430Y-67708194D01*
X124863440Y-67687635D01*
X124877008Y-67686514D01*
X124912636Y-67692152D01*
X124937006Y-67711686D01*
X124951907Y-67749042D01*
X124959125Y-67808150D01*
X124960571Y-67870192D01*
X125105678Y-67870192D01*
X125105174Y-67800413D01*
X125102904Y-67748159D01*
X125097932Y-67711949D01*
X125089287Y-67685299D01*
X125075995Y-67661722D01*
X125073057Y-67657338D01*
X125023687Y-67598249D01*
X124969891Y-67563947D01*
X124904398Y-67550331D01*
X124882158Y-67549665D01*
X124798885Y-67561962D01*
G37*
X124798885Y-67561962D02*
X124730855Y-67597733D01*
X124680649Y-67655301D01*
X124662815Y-67692312D01*
X124648937Y-67747882D01*
X124641833Y-67818096D01*
X124641160Y-67894727D01*
X124646573Y-67969552D01*
X124657730Y-68034342D01*
X124674286Y-68080873D01*
X124679374Y-68088887D01*
X124739645Y-68148707D01*
X124811231Y-68184535D01*
X124888908Y-68195020D01*
X124967452Y-68178810D01*
X124989311Y-68169092D01*
X125031878Y-68139143D01*
X125069237Y-68099433D01*
X125072768Y-68094397D01*
X125087119Y-68070124D01*
X125096606Y-68044178D01*
X125102210Y-68010022D01*
X125104914Y-67961119D01*
X125105701Y-67890935D01*
X125105714Y-67875200D01*
X125105678Y-67870192D01*
X124960571Y-67870192D01*
X124959727Y-67936430D01*
X124956404Y-67980386D01*
X124949417Y-68008779D01*
X124937584Y-68028325D01*
X124931543Y-68034857D01*
X124896814Y-68059680D01*
X124863097Y-68058548D01*
X124829005Y-68037016D01*
X124808671Y-68014029D01*
X124796629Y-67980478D01*
X124789866Y-67927569D01*
X124789402Y-67921399D01*
X124788248Y-67825513D01*
X124800312Y-67754299D01*
X124825430Y-67708194D01*
X124863440Y-67687635D01*
X124877008Y-67686514D01*
X124912636Y-67692152D01*
X124937006Y-67711686D01*
X124951907Y-67749042D01*
X124959125Y-67808150D01*
X124960571Y-67870192D01*
X125105678Y-67870192D01*
X125105174Y-67800413D01*
X125102904Y-67748159D01*
X125097932Y-67711949D01*
X125089287Y-67685299D01*
X125075995Y-67661722D01*
X125073057Y-67657338D01*
X125023687Y-67598249D01*
X124969891Y-67563947D01*
X124904398Y-67550331D01*
X124882158Y-67549665D01*
X124798885Y-67561962D01*
G36*
X123671697Y-67571239D02*
G01*
X123614473Y-67609735D01*
X123570251Y-67665335D01*
X123543833Y-67736086D01*
X123538490Y-67788162D01*
X123539097Y-67809893D01*
X123544178Y-67826531D01*
X123558145Y-67841437D01*
X123585411Y-67857973D01*
X123630388Y-67879498D01*
X123697489Y-67909374D01*
X123697829Y-67909524D01*
X123759593Y-67937813D01*
X123810241Y-67962933D01*
X123844596Y-67982179D01*
X123857482Y-67992848D01*
X123857486Y-67992934D01*
X123846128Y-68016166D01*
X123819569Y-68041774D01*
X123789077Y-68060221D01*
X123773630Y-68063886D01*
X123731485Y-68051212D01*
X123695192Y-68019471D01*
X123677483Y-67984572D01*
X123660448Y-67958845D01*
X123627078Y-67929546D01*
X123587851Y-67904235D01*
X123553244Y-67890471D01*
X123546007Y-67889714D01*
X123537861Y-67902160D01*
X123537370Y-67933972D01*
X123543357Y-67976866D01*
X123554643Y-68022558D01*
X123570050Y-68062761D01*
X123570829Y-68064322D01*
X123617196Y-68129062D01*
X123677289Y-68173097D01*
X123745535Y-68194711D01*
X123816362Y-68192185D01*
X123884196Y-68163804D01*
X123887212Y-68161808D01*
X123940573Y-68113448D01*
X123975660Y-68050352D01*
X123995078Y-67967387D01*
X123997684Y-67944078D01*
X124002299Y-67834055D01*
X123996767Y-67782748D01*
X123857486Y-67782748D01*
X123855676Y-67814753D01*
X123845778Y-67824093D01*
X123821102Y-67817105D01*
X123782205Y-67800587D01*
X123738725Y-67779881D01*
X123737644Y-67779333D01*
X123700791Y-67759949D01*
X123686000Y-67747013D01*
X123689647Y-67733451D01*
X123705005Y-67715632D01*
X123744077Y-67689845D01*
X123786154Y-67687950D01*
X123823897Y-67706717D01*
X123849966Y-67742915D01*
X123857486Y-67782748D01*
X123996767Y-67782748D01*
X123992806Y-67746027D01*
X123968450Y-67676212D01*
X123934544Y-67627302D01*
X123873347Y-67577878D01*
X123805937Y-67553359D01*
X123737120Y-67551797D01*
X123671697Y-67571239D01*
G37*
X123671697Y-67571239D02*
X123614473Y-67609735D01*
X123570251Y-67665335D01*
X123543833Y-67736086D01*
X123538490Y-67788162D01*
X123539097Y-67809893D01*
X123544178Y-67826531D01*
X123558145Y-67841437D01*
X123585411Y-67857973D01*
X123630388Y-67879498D01*
X123697489Y-67909374D01*
X123697829Y-67909524D01*
X123759593Y-67937813D01*
X123810241Y-67962933D01*
X123844596Y-67982179D01*
X123857482Y-67992848D01*
X123857486Y-67992934D01*
X123846128Y-68016166D01*
X123819569Y-68041774D01*
X123789077Y-68060221D01*
X123773630Y-68063886D01*
X123731485Y-68051212D01*
X123695192Y-68019471D01*
X123677483Y-67984572D01*
X123660448Y-67958845D01*
X123627078Y-67929546D01*
X123587851Y-67904235D01*
X123553244Y-67890471D01*
X123546007Y-67889714D01*
X123537861Y-67902160D01*
X123537370Y-67933972D01*
X123543357Y-67976866D01*
X123554643Y-68022558D01*
X123570050Y-68062761D01*
X123570829Y-68064322D01*
X123617196Y-68129062D01*
X123677289Y-68173097D01*
X123745535Y-68194711D01*
X123816362Y-68192185D01*
X123884196Y-68163804D01*
X123887212Y-68161808D01*
X123940573Y-68113448D01*
X123975660Y-68050352D01*
X123995078Y-67967387D01*
X123997684Y-67944078D01*
X124002299Y-67834055D01*
X123996767Y-67782748D01*
X123857486Y-67782748D01*
X123855676Y-67814753D01*
X123845778Y-67824093D01*
X123821102Y-67817105D01*
X123782205Y-67800587D01*
X123738725Y-67779881D01*
X123737644Y-67779333D01*
X123700791Y-67759949D01*
X123686000Y-67747013D01*
X123689647Y-67733451D01*
X123705005Y-67715632D01*
X123744077Y-67689845D01*
X123786154Y-67687950D01*
X123823897Y-67706717D01*
X123849966Y-67742915D01*
X123857486Y-67782748D01*
X123996767Y-67782748D01*
X123992806Y-67746027D01*
X123968450Y-67676212D01*
X123934544Y-67627302D01*
X123873347Y-67577878D01*
X123805937Y-67553359D01*
X123737120Y-67551797D01*
X123671697Y-67571239D01*
G36*
X122464114Y-67491289D02*
G01*
X122459861Y-67550613D01*
X122454975Y-67585572D01*
X122448205Y-67600820D01*
X122438298Y-67601015D01*
X122435086Y-67599195D01*
X122392356Y-67586015D01*
X122336773Y-67586785D01*
X122280263Y-67600333D01*
X122244918Y-67617861D01*
X122208679Y-67645861D01*
X122182187Y-67677549D01*
X122164001Y-67717813D01*
X122152678Y-67771543D01*
X122146778Y-67843626D01*
X122144857Y-67938951D01*
X122144823Y-67957237D01*
X122144800Y-68162646D01*
X122190509Y-68178580D01*
X122222973Y-68189420D01*
X122240785Y-68194468D01*
X122241309Y-68194514D01*
X122243063Y-68180828D01*
X122244556Y-68143076D01*
X122245674Y-68086224D01*
X122246303Y-68015234D01*
X122246400Y-67972073D01*
X122246602Y-67886973D01*
X122247642Y-67825981D01*
X122250169Y-67784177D01*
X122254836Y-67756642D01*
X122262293Y-67738456D01*
X122273189Y-67724698D01*
X122279993Y-67718073D01*
X122326728Y-67691375D01*
X122377728Y-67689375D01*
X122423999Y-67711955D01*
X122432556Y-67720107D01*
X122445107Y-67735436D01*
X122453812Y-67753618D01*
X122459369Y-67779909D01*
X122462474Y-67819562D01*
X122463824Y-67877832D01*
X122464114Y-67958173D01*
X122464114Y-68162646D01*
X122509823Y-68178580D01*
X122542287Y-68189420D01*
X122560099Y-68194468D01*
X122560623Y-68194514D01*
X122561963Y-68180623D01*
X122563172Y-68141439D01*
X122564199Y-68080700D01*
X122564998Y-68002141D01*
X122565519Y-67909498D01*
X122565714Y-67806509D01*
X122565714Y-67409342D01*
X122518543Y-67389444D01*
X122471371Y-67369547D01*
X122464114Y-67491289D01*
G37*
X122464114Y-67491289D02*
X122459861Y-67550613D01*
X122454975Y-67585572D01*
X122448205Y-67600820D01*
X122438298Y-67601015D01*
X122435086Y-67599195D01*
X122392356Y-67586015D01*
X122336773Y-67586785D01*
X122280263Y-67600333D01*
X122244918Y-67617861D01*
X122208679Y-67645861D01*
X122182187Y-67677549D01*
X122164001Y-67717813D01*
X122152678Y-67771543D01*
X122146778Y-67843626D01*
X122144857Y-67938951D01*
X122144823Y-67957237D01*
X122144800Y-68162646D01*
X122190509Y-68178580D01*
X122222973Y-68189420D01*
X122240785Y-68194468D01*
X122241309Y-68194514D01*
X122243063Y-68180828D01*
X122244556Y-68143076D01*
X122245674Y-68086224D01*
X122246303Y-68015234D01*
X122246400Y-67972073D01*
X122246602Y-67886973D01*
X122247642Y-67825981D01*
X122250169Y-67784177D01*
X122254836Y-67756642D01*
X122262293Y-67738456D01*
X122273189Y-67724698D01*
X122279993Y-67718073D01*
X122326728Y-67691375D01*
X122377728Y-67689375D01*
X122423999Y-67711955D01*
X122432556Y-67720107D01*
X122445107Y-67735436D01*
X122453812Y-67753618D01*
X122459369Y-67779909D01*
X122462474Y-67819562D01*
X122463824Y-67877832D01*
X122464114Y-67958173D01*
X122464114Y-68162646D01*
X122509823Y-68178580D01*
X122542287Y-68189420D01*
X122560099Y-68194468D01*
X122560623Y-68194514D01*
X122561963Y-68180623D01*
X122563172Y-68141439D01*
X122564199Y-68080700D01*
X122564998Y-68002141D01*
X122565519Y-67909498D01*
X122565714Y-67806509D01*
X122565714Y-67409342D01*
X122518543Y-67389444D01*
X122471371Y-67369547D01*
X122464114Y-67491289D01*
G36*
X121800256Y-67590968D02*
G01*
X121743384Y-67612087D01*
X121742733Y-67612493D01*
X121707560Y-67638380D01*
X121681593Y-67668633D01*
X121663330Y-67708058D01*
X121651268Y-67761462D01*
X121643904Y-67833651D01*
X121639736Y-67929432D01*
X121639371Y-67943078D01*
X121634124Y-68148842D01*
X121678284Y-68171678D01*
X121710237Y-68187110D01*
X121729530Y-68194423D01*
X121730422Y-68194514D01*
X121733761Y-68181022D01*
X121736413Y-68144626D01*
X121738044Y-68091452D01*
X121738400Y-68048393D01*
X121738408Y-67978641D01*
X121741597Y-67934837D01*
X121752712Y-67913944D01*
X121776499Y-67912925D01*
X121817704Y-67928741D01*
X121879914Y-67957815D01*
X121925659Y-67981963D01*
X121949187Y-68002913D01*
X121956104Y-68025747D01*
X121956114Y-68026877D01*
X121944701Y-68066212D01*
X121910908Y-68087462D01*
X121859191Y-68090539D01*
X121821939Y-68090006D01*
X121802297Y-68100735D01*
X121790048Y-68126505D01*
X121782998Y-68159337D01*
X121793158Y-68177966D01*
X121796983Y-68180632D01*
X121832999Y-68191340D01*
X121883434Y-68192856D01*
X121935374Y-68185759D01*
X121972178Y-68172788D01*
X122023062Y-68129585D01*
X122051986Y-68069446D01*
X122057714Y-68022462D01*
X122053343Y-67980082D01*
X122037525Y-67945488D01*
X122006203Y-67914763D01*
X121955322Y-67883990D01*
X121880824Y-67849252D01*
X121876286Y-67847288D01*
X121809179Y-67816287D01*
X121767768Y-67790862D01*
X121750019Y-67768014D01*
X121753893Y-67744745D01*
X121777357Y-67718056D01*
X121784373Y-67711914D01*
X121831370Y-67688100D01*
X121880067Y-67689103D01*
X121922478Y-67712451D01*
X121950616Y-67755675D01*
X121953231Y-67764160D01*
X121978692Y-67805308D01*
X122010999Y-67825128D01*
X122057714Y-67844770D01*
X122057714Y-67793950D01*
X122043504Y-67720082D01*
X122001325Y-67652327D01*
X121979376Y-67629661D01*
X121929483Y-67600569D01*
X121866033Y-67587400D01*
X121800256Y-67590968D01*
G37*
X121800256Y-67590968D02*
X121743384Y-67612087D01*
X121742733Y-67612493D01*
X121707560Y-67638380D01*
X121681593Y-67668633D01*
X121663330Y-67708058D01*
X121651268Y-67761462D01*
X121643904Y-67833651D01*
X121639736Y-67929432D01*
X121639371Y-67943078D01*
X121634124Y-68148842D01*
X121678284Y-68171678D01*
X121710237Y-68187110D01*
X121729530Y-68194423D01*
X121730422Y-68194514D01*
X121733761Y-68181022D01*
X121736413Y-68144626D01*
X121738044Y-68091452D01*
X121738400Y-68048393D01*
X121738408Y-67978641D01*
X121741597Y-67934837D01*
X121752712Y-67913944D01*
X121776499Y-67912925D01*
X121817704Y-67928741D01*
X121879914Y-67957815D01*
X121925659Y-67981963D01*
X121949187Y-68002913D01*
X121956104Y-68025747D01*
X121956114Y-68026877D01*
X121944701Y-68066212D01*
X121910908Y-68087462D01*
X121859191Y-68090539D01*
X121821939Y-68090006D01*
X121802297Y-68100735D01*
X121790048Y-68126505D01*
X121782998Y-68159337D01*
X121793158Y-68177966D01*
X121796983Y-68180632D01*
X121832999Y-68191340D01*
X121883434Y-68192856D01*
X121935374Y-68185759D01*
X121972178Y-68172788D01*
X122023062Y-68129585D01*
X122051986Y-68069446D01*
X122057714Y-68022462D01*
X122053343Y-67980082D01*
X122037525Y-67945488D01*
X122006203Y-67914763D01*
X121955322Y-67883990D01*
X121880824Y-67849252D01*
X121876286Y-67847288D01*
X121809179Y-67816287D01*
X121767768Y-67790862D01*
X121750019Y-67768014D01*
X121753893Y-67744745D01*
X121777357Y-67718056D01*
X121784373Y-67711914D01*
X121831370Y-67688100D01*
X121880067Y-67689103D01*
X121922478Y-67712451D01*
X121950616Y-67755675D01*
X121953231Y-67764160D01*
X121978692Y-67805308D01*
X122010999Y-67825128D01*
X122057714Y-67844770D01*
X122057714Y-67793950D01*
X122043504Y-67720082D01*
X122001325Y-67652327D01*
X121979376Y-67629661D01*
X121929483Y-67600569D01*
X121866033Y-67587400D01*
X121800256Y-67590968D01*
G36*
X121310074Y-67589755D02*
G01*
X121244142Y-67614084D01*
X121190727Y-67657117D01*
X121169836Y-67687409D01*
X121147061Y-67742994D01*
X121147534Y-67783186D01*
X121171438Y-67810217D01*
X121180283Y-67814813D01*
X121218470Y-67829144D01*
X121237972Y-67825472D01*
X121244578Y-67801407D01*
X121244914Y-67788114D01*
X121257008Y-67739210D01*
X121288529Y-67704999D01*
X121332341Y-67688476D01*
X121381305Y-67692634D01*
X121421106Y-67714227D01*
X121434550Y-67726544D01*
X121444079Y-67741487D01*
X121450515Y-67764075D01*
X121454683Y-67799328D01*
X121457403Y-67852266D01*
X121459498Y-67927907D01*
X121460040Y-67951857D01*
X121462019Y-68033790D01*
X121464269Y-68091455D01*
X121467643Y-68129608D01*
X121472994Y-68153004D01*
X121481176Y-68166398D01*
X121493041Y-68174545D01*
X121500638Y-68178144D01*
X121532898Y-68190452D01*
X121551889Y-68194514D01*
X121558164Y-68180948D01*
X121561994Y-68139934D01*
X121563400Y-68070999D01*
X121562402Y-67973669D01*
X121562092Y-67958657D01*
X121559899Y-67869859D01*
X121557307Y-67805019D01*
X121553618Y-67759067D01*
X121548136Y-67726935D01*
X121540165Y-67703553D01*
X121529007Y-67683852D01*
X121523170Y-67675410D01*
X121489704Y-67638057D01*
X121452273Y-67609003D01*
X121447691Y-67606467D01*
X121380574Y-67586443D01*
X121310074Y-67589755D01*
G37*
X121310074Y-67589755D02*
X121244142Y-67614084D01*
X121190727Y-67657117D01*
X121169836Y-67687409D01*
X121147061Y-67742994D01*
X121147534Y-67783186D01*
X121171438Y-67810217D01*
X121180283Y-67814813D01*
X121218470Y-67829144D01*
X121237972Y-67825472D01*
X121244578Y-67801407D01*
X121244914Y-67788114D01*
X121257008Y-67739210D01*
X121288529Y-67704999D01*
X121332341Y-67688476D01*
X121381305Y-67692634D01*
X121421106Y-67714227D01*
X121434550Y-67726544D01*
X121444079Y-67741487D01*
X121450515Y-67764075D01*
X121454683Y-67799328D01*
X121457403Y-67852266D01*
X121459498Y-67927907D01*
X121460040Y-67951857D01*
X121462019Y-68033790D01*
X121464269Y-68091455D01*
X121467643Y-68129608D01*
X121472994Y-68153004D01*
X121481176Y-68166398D01*
X121493041Y-68174545D01*
X121500638Y-68178144D01*
X121532898Y-68190452D01*
X121551889Y-68194514D01*
X121558164Y-68180948D01*
X121561994Y-68139934D01*
X121563400Y-68070999D01*
X121562402Y-67973669D01*
X121562092Y-67958657D01*
X121559899Y-67869859D01*
X121557307Y-67805019D01*
X121553618Y-67759067D01*
X121548136Y-67726935D01*
X121540165Y-67703553D01*
X121529007Y-67683852D01*
X121523170Y-67675410D01*
X121489704Y-67638057D01*
X121452273Y-67609003D01*
X121447691Y-67606467D01*
X121380574Y-67586443D01*
X121310074Y-67589755D01*
G36*
X120649883Y-67705358D02*
G01*
X120650067Y-67813837D01*
X120650781Y-67897287D01*
X120652325Y-67959704D01*
X120654999Y-68005085D01*
X120659106Y-68037429D01*
X120664945Y-68060733D01*
X120672818Y-68078995D01*
X120678779Y-68089418D01*
X120728145Y-68145945D01*
X120790736Y-68181377D01*
X120859987Y-68194090D01*
X120929332Y-68182463D01*
X120970625Y-68161568D01*
X121013975Y-68125422D01*
X121043519Y-68081276D01*
X121061345Y-68023462D01*
X121069537Y-67946313D01*
X121070698Y-67889714D01*
X121070542Y-67885647D01*
X120969143Y-67885647D01*
X120968524Y-67950550D01*
X120965686Y-67993514D01*
X120959160Y-68021622D01*
X120947477Y-68041953D01*
X120933517Y-68057288D01*
X120886635Y-68086890D01*
X120836299Y-68089419D01*
X120788724Y-68064705D01*
X120785021Y-68061356D01*
X120769217Y-68043935D01*
X120759307Y-68023209D01*
X120753942Y-67992362D01*
X120751772Y-67944577D01*
X120751429Y-67891748D01*
X120752173Y-67825381D01*
X120755252Y-67781106D01*
X120761939Y-67752009D01*
X120773504Y-67731173D01*
X120782987Y-67720107D01*
X120827040Y-67692198D01*
X120877776Y-67688843D01*
X120926204Y-67710159D01*
X120935550Y-67718073D01*
X120951460Y-67735647D01*
X120961390Y-67756587D01*
X120966722Y-67787782D01*
X120968837Y-67836122D01*
X120969143Y-67885647D01*
X121070542Y-67885647D01*
X121067190Y-67798568D01*
X121055274Y-67730086D01*
X121032865Y-67678600D01*
X120997876Y-67638443D01*
X120970625Y-67617861D01*
X120921093Y-67595625D01*
X120863684Y-67585304D01*
X120810318Y-67588067D01*
X120780457Y-67599212D01*
X120768739Y-67602383D01*
X120760963Y-67590557D01*
X120755535Y-67558866D01*
X120751429Y-67510593D01*
X120746933Y-67456829D01*
X120740687Y-67424482D01*
X120729324Y-67405985D01*
X120709472Y-67393770D01*
X120697000Y-67388362D01*
X120649829Y-67368601D01*
X120649883Y-67705358D01*
G37*
X120649883Y-67705358D02*
X120650067Y-67813837D01*
X120650781Y-67897287D01*
X120652325Y-67959704D01*
X120654999Y-68005085D01*
X120659106Y-68037429D01*
X120664945Y-68060733D01*
X120672818Y-68078995D01*
X120678779Y-68089418D01*
X120728145Y-68145945D01*
X120790736Y-68181377D01*
X120859987Y-68194090D01*
X120929332Y-68182463D01*
X120970625Y-68161568D01*
X121013975Y-68125422D01*
X121043519Y-68081276D01*
X121061345Y-68023462D01*
X121069537Y-67946313D01*
X121070698Y-67889714D01*
X121070542Y-67885647D01*
X120969143Y-67885647D01*
X120968524Y-67950550D01*
X120965686Y-67993514D01*
X120959160Y-68021622D01*
X120947477Y-68041953D01*
X120933517Y-68057288D01*
X120886635Y-68086890D01*
X120836299Y-68089419D01*
X120788724Y-68064705D01*
X120785021Y-68061356D01*
X120769217Y-68043935D01*
X120759307Y-68023209D01*
X120753942Y-67992362D01*
X120751772Y-67944577D01*
X120751429Y-67891748D01*
X120752173Y-67825381D01*
X120755252Y-67781106D01*
X120761939Y-67752009D01*
X120773504Y-67731173D01*
X120782987Y-67720107D01*
X120827040Y-67692198D01*
X120877776Y-67688843D01*
X120926204Y-67710159D01*
X120935550Y-67718073D01*
X120951460Y-67735647D01*
X120961390Y-67756587D01*
X120966722Y-67787782D01*
X120968837Y-67836122D01*
X120969143Y-67885647D01*
X121070542Y-67885647D01*
X121067190Y-67798568D01*
X121055274Y-67730086D01*
X121032865Y-67678600D01*
X120997876Y-67638443D01*
X120970625Y-67617861D01*
X120921093Y-67595625D01*
X120863684Y-67585304D01*
X120810318Y-67588067D01*
X120780457Y-67599212D01*
X120768739Y-67602383D01*
X120760963Y-67590557D01*
X120755535Y-67558866D01*
X120751429Y-67510593D01*
X120746933Y-67456829D01*
X120740687Y-67424482D01*
X120729324Y-67405985D01*
X120709472Y-67393770D01*
X120697000Y-67388362D01*
X120649829Y-67368601D01*
X120649883Y-67705358D01*
G36*
X120060167Y-67598663D02*
G01*
X120057952Y-67636850D01*
X120056216Y-67694886D01*
X120055101Y-67768180D01*
X120054743Y-67845055D01*
X120054743Y-68105196D01*
X120100674Y-68151127D01*
X120132325Y-68179429D01*
X120160110Y-68190893D01*
X120198085Y-68190168D01*
X120213160Y-68188321D01*
X120260274Y-68182948D01*
X120299244Y-68179869D01*
X120308743Y-68179585D01*
X120340767Y-68181445D01*
X120386568Y-68186114D01*
X120404326Y-68188321D01*
X120447943Y-68191735D01*
X120477255Y-68184320D01*
X120506320Y-68161427D01*
X120516812Y-68151127D01*
X120562743Y-68105196D01*
X120562743Y-67618602D01*
X120525774Y-67601758D01*
X120493941Y-67589282D01*
X120475317Y-67584914D01*
X120470542Y-67598718D01*
X120466079Y-67637286D01*
X120462225Y-67696356D01*
X120459278Y-67771663D01*
X120457857Y-67835286D01*
X120453886Y-68085657D01*
X120419241Y-68090556D01*
X120387732Y-68087131D01*
X120372292Y-68076041D01*
X120367977Y-68055308D01*
X120364292Y-68011145D01*
X120361531Y-67949146D01*
X120359988Y-67874909D01*
X120359765Y-67836706D01*
X120359543Y-67616783D01*
X120313834Y-67600849D01*
X120281482Y-67590015D01*
X120263885Y-67584962D01*
X120263377Y-67584914D01*
X120261612Y-67598648D01*
X120259671Y-67636730D01*
X120257718Y-67694482D01*
X120255916Y-67767227D01*
X120254657Y-67835286D01*
X120250686Y-68085657D01*
X120163600Y-68085657D01*
X120159604Y-67857240D01*
X120155608Y-67628822D01*
X120113153Y-67606868D01*
X120081808Y-67591793D01*
X120063256Y-67584951D01*
X120062721Y-67584914D01*
X120060167Y-67598663D01*
G37*
X120060167Y-67598663D02*
X120057952Y-67636850D01*
X120056216Y-67694886D01*
X120055101Y-67768180D01*
X120054743Y-67845055D01*
X120054743Y-68105196D01*
X120100674Y-68151127D01*
X120132325Y-68179429D01*
X120160110Y-68190893D01*
X120198085Y-68190168D01*
X120213160Y-68188321D01*
X120260274Y-68182948D01*
X120299244Y-68179869D01*
X120308743Y-68179585D01*
X120340767Y-68181445D01*
X120386568Y-68186114D01*
X120404326Y-68188321D01*
X120447943Y-68191735D01*
X120477255Y-68184320D01*
X120506320Y-68161427D01*
X120516812Y-68151127D01*
X120562743Y-68105196D01*
X120562743Y-67618602D01*
X120525774Y-67601758D01*
X120493941Y-67589282D01*
X120475317Y-67584914D01*
X120470542Y-67598718D01*
X120466079Y-67637286D01*
X120462225Y-67696356D01*
X120459278Y-67771663D01*
X120457857Y-67835286D01*
X120453886Y-68085657D01*
X120419241Y-68090556D01*
X120387732Y-68087131D01*
X120372292Y-68076041D01*
X120367977Y-68055308D01*
X120364292Y-68011145D01*
X120361531Y-67949146D01*
X120359988Y-67874909D01*
X120359765Y-67836706D01*
X120359543Y-67616783D01*
X120313834Y-67600849D01*
X120281482Y-67590015D01*
X120263885Y-67584962D01*
X120263377Y-67584914D01*
X120261612Y-67598648D01*
X120259671Y-67636730D01*
X120257718Y-67694482D01*
X120255916Y-67767227D01*
X120254657Y-67835286D01*
X120250686Y-68085657D01*
X120163600Y-68085657D01*
X120159604Y-67857240D01*
X120155608Y-67628822D01*
X120113153Y-67606868D01*
X120081808Y-67591793D01*
X120063256Y-67584951D01*
X120062721Y-67584914D01*
X120060167Y-67598663D01*
G36*
X119695124Y-67596335D02*
G01*
X119653333Y-67615344D01*
X119620531Y-67638378D01*
X119596497Y-67664133D01*
X119579903Y-67697358D01*
X119569423Y-67742800D01*
X119563729Y-67805207D01*
X119561493Y-67889327D01*
X119561257Y-67944721D01*
X119561257Y-68160826D01*
X119598226Y-68177670D01*
X119627344Y-68189981D01*
X119641769Y-68194514D01*
X119644528Y-68181025D01*
X119646718Y-68144653D01*
X119648058Y-68091542D01*
X119648343Y-68049372D01*
X119649566Y-67988447D01*
X119652864Y-67940115D01*
X119657679Y-67910518D01*
X119661504Y-67904229D01*
X119687217Y-67910652D01*
X119727582Y-67927125D01*
X119774321Y-67949458D01*
X119819155Y-67973457D01*
X119853807Y-67994930D01*
X119869998Y-68009685D01*
X119870062Y-68009845D01*
X119868670Y-68037152D01*
X119856182Y-68063219D01*
X119834257Y-68084392D01*
X119802257Y-68091474D01*
X119774908Y-68090649D01*
X119736174Y-68090042D01*
X119715842Y-68099116D01*
X119703631Y-68123092D01*
X119702091Y-68127613D01*
X119696797Y-68161806D01*
X119710953Y-68182568D01*
X119747852Y-68192462D01*
X119787711Y-68194292D01*
X119859438Y-68180727D01*
X119896568Y-68161355D01*
X119942424Y-68115845D01*
X119966744Y-68059983D01*
X119968927Y-68000957D01*
X119948371Y-67945953D01*
X119917451Y-67911486D01*
X119886580Y-67892189D01*
X119838058Y-67867759D01*
X119781515Y-67842985D01*
X119772090Y-67839199D01*
X119709981Y-67811791D01*
X119674178Y-67787634D01*
X119662663Y-67763619D01*
X119673420Y-67736635D01*
X119691886Y-67715543D01*
X119735531Y-67689572D01*
X119783554Y-67687624D01*
X119827594Y-67707637D01*
X119859291Y-67747551D01*
X119863451Y-67757848D01*
X119887673Y-67795724D01*
X119923035Y-67823842D01*
X119967657Y-67846917D01*
X119967657Y-67781485D01*
X119965031Y-67741506D01*
X119953770Y-67709997D01*
X119928801Y-67676378D01*
X119904831Y-67650484D01*
X119867559Y-67613817D01*
X119838599Y-67594121D01*
X119807495Y-67586220D01*
X119772287Y-67584914D01*
X119695124Y-67596335D01*
G37*
X119695124Y-67596335D02*
X119653333Y-67615344D01*
X119620531Y-67638378D01*
X119596497Y-67664133D01*
X119579903Y-67697358D01*
X119569423Y-67742800D01*
X119563729Y-67805207D01*
X119561493Y-67889327D01*
X119561257Y-67944721D01*
X119561257Y-68160826D01*
X119598226Y-68177670D01*
X119627344Y-68189981D01*
X119641769Y-68194514D01*
X119644528Y-68181025D01*
X119646718Y-68144653D01*
X119648058Y-68091542D01*
X119648343Y-68049372D01*
X119649566Y-67988447D01*
X119652864Y-67940115D01*
X119657679Y-67910518D01*
X119661504Y-67904229D01*
X119687217Y-67910652D01*
X119727582Y-67927125D01*
X119774321Y-67949458D01*
X119819155Y-67973457D01*
X119853807Y-67994930D01*
X119869998Y-68009685D01*
X119870062Y-68009845D01*
X119868670Y-68037152D01*
X119856182Y-68063219D01*
X119834257Y-68084392D01*
X119802257Y-68091474D01*
X119774908Y-68090649D01*
X119736174Y-68090042D01*
X119715842Y-68099116D01*
X119703631Y-68123092D01*
X119702091Y-68127613D01*
X119696797Y-68161806D01*
X119710953Y-68182568D01*
X119747852Y-68192462D01*
X119787711Y-68194292D01*
X119859438Y-68180727D01*
X119896568Y-68161355D01*
X119942424Y-68115845D01*
X119966744Y-68059983D01*
X119968927Y-68000957D01*
X119948371Y-67945953D01*
X119917451Y-67911486D01*
X119886580Y-67892189D01*
X119838058Y-67867759D01*
X119781515Y-67842985D01*
X119772090Y-67839199D01*
X119709981Y-67811791D01*
X119674178Y-67787634D01*
X119662663Y-67763619D01*
X119673420Y-67736635D01*
X119691886Y-67715543D01*
X119735531Y-67689572D01*
X119783554Y-67687624D01*
X119827594Y-67707637D01*
X119859291Y-67747551D01*
X119863451Y-67757848D01*
X119887673Y-67795724D01*
X119923035Y-67823842D01*
X119967657Y-67846917D01*
X119967657Y-67781485D01*
X119965031Y-67741506D01*
X119953770Y-67709997D01*
X119928801Y-67676378D01*
X119904831Y-67650484D01*
X119867559Y-67613817D01*
X119838599Y-67594121D01*
X119807495Y-67586220D01*
X119772287Y-67584914D01*
X119695124Y-67596335D01*
G36*
X119187400Y-67598752D02*
G01*
X119170052Y-67606334D01*
X119128644Y-67639128D01*
X119093235Y-67686547D01*
X119071336Y-67737151D01*
X119067771Y-67762098D01*
X119079721Y-67796927D01*
X119105933Y-67815357D01*
X119134036Y-67826516D01*
X119146905Y-67828572D01*
X119153171Y-67813649D01*
X119165544Y-67781175D01*
X119170972Y-67766502D01*
X119201410Y-67715744D01*
X119245480Y-67690427D01*
X119301990Y-67691206D01*
X119306175Y-67692203D01*
X119336345Y-67706507D01*
X119358524Y-67734393D01*
X119373673Y-67779287D01*
X119382750Y-67844615D01*
X119386714Y-67933804D01*
X119387086Y-67981261D01*
X119387270Y-68056071D01*
X119388478Y-68107069D01*
X119391691Y-68139471D01*
X119397891Y-68158495D01*
X119408060Y-68169356D01*
X119423181Y-68177272D01*
X119424054Y-68177670D01*
X119453172Y-68189981D01*
X119467597Y-68194514D01*
X119469814Y-68180809D01*
X119471711Y-68142925D01*
X119473153Y-68085715D01*
X119474002Y-68014027D01*
X119474171Y-67961565D01*
X119473308Y-67860047D01*
X119469930Y-67783032D01*
X119462858Y-67726023D01*
X119450912Y-67684526D01*
X119432910Y-67654043D01*
X119407673Y-67630080D01*
X119382753Y-67613355D01*
X119322829Y-67591097D01*
X119253089Y-67586076D01*
X119187400Y-67598752D01*
G37*
X119187400Y-67598752D02*
X119170052Y-67606334D01*
X119128644Y-67639128D01*
X119093235Y-67686547D01*
X119071336Y-67737151D01*
X119067771Y-67762098D01*
X119079721Y-67796927D01*
X119105933Y-67815357D01*
X119134036Y-67826516D01*
X119146905Y-67828572D01*
X119153171Y-67813649D01*
X119165544Y-67781175D01*
X119170972Y-67766502D01*
X119201410Y-67715744D01*
X119245480Y-67690427D01*
X119301990Y-67691206D01*
X119306175Y-67692203D01*
X119336345Y-67706507D01*
X119358524Y-67734393D01*
X119373673Y-67779287D01*
X119382750Y-67844615D01*
X119386714Y-67933804D01*
X119387086Y-67981261D01*
X119387270Y-68056071D01*
X119388478Y-68107069D01*
X119391691Y-68139471D01*
X119397891Y-68158495D01*
X119408060Y-68169356D01*
X119423181Y-68177272D01*
X119424054Y-68177670D01*
X119453172Y-68189981D01*
X119467597Y-68194514D01*
X119469814Y-68180809D01*
X119471711Y-68142925D01*
X119473153Y-68085715D01*
X119474002Y-68014027D01*
X119474171Y-67961565D01*
X119473308Y-67860047D01*
X119469930Y-67783032D01*
X119462858Y-67726023D01*
X119450912Y-67684526D01*
X119432910Y-67654043D01*
X119407673Y-67630080D01*
X119382753Y-67613355D01*
X119322829Y-67591097D01*
X119253089Y-67586076D01*
X119187400Y-67598752D01*
G36*
X118686405Y-67606966D02*
G01*
X118628979Y-67644497D01*
X118601281Y-67678096D01*
X118579338Y-67739064D01*
X118577595Y-67787308D01*
X118581543Y-67851816D01*
X118730314Y-67916934D01*
X118802651Y-67950202D01*
X118849916Y-67976964D01*
X118874493Y-68000144D01*
X118878763Y-68022667D01*
X118865111Y-68047455D01*
X118850057Y-68063886D01*
X118806254Y-68090235D01*
X118758611Y-68092081D01*
X118714855Y-68071546D01*
X118682711Y-68030752D01*
X118676962Y-68016347D01*
X118649424Y-67971356D01*
X118617742Y-67952182D01*
X118574286Y-67935779D01*
X118574286Y-67997966D01*
X118578128Y-68040283D01*
X118593177Y-68075969D01*
X118624720Y-68116943D01*
X118629408Y-68122267D01*
X118664494Y-68158720D01*
X118694653Y-68178283D01*
X118732385Y-68187283D01*
X118763665Y-68190230D01*
X118819615Y-68190965D01*
X118859445Y-68181660D01*
X118884292Y-68167846D01*
X118923344Y-68137467D01*
X118950375Y-68104613D01*
X118967483Y-68063294D01*
X118976762Y-68007521D01*
X118980307Y-67931305D01*
X118980590Y-67892622D01*
X118979628Y-67846247D01*
X118891993Y-67846247D01*
X118890977Y-67871126D01*
X118888444Y-67875200D01*
X118871726Y-67869665D01*
X118835751Y-67855017D01*
X118787669Y-67834190D01*
X118777614Y-67829714D01*
X118716848Y-67798814D01*
X118683368Y-67771657D01*
X118676010Y-67746220D01*
X118693609Y-67720481D01*
X118708144Y-67709109D01*
X118760590Y-67686364D01*
X118809678Y-67690122D01*
X118850773Y-67717884D01*
X118879242Y-67767152D01*
X118888369Y-67806257D01*
X118891993Y-67846247D01*
X118979628Y-67846247D01*
X118978715Y-67802249D01*
X118971804Y-67735384D01*
X118958116Y-67686695D01*
X118935904Y-67650849D01*
X118903426Y-67622513D01*
X118889267Y-67613355D01*
X118824947Y-67589507D01*
X118754527Y-67588006D01*
X118686405Y-67606966D01*
G37*
X118686405Y-67606966D02*
X118628979Y-67644497D01*
X118601281Y-67678096D01*
X118579338Y-67739064D01*
X118577595Y-67787308D01*
X118581543Y-67851816D01*
X118730314Y-67916934D01*
X118802651Y-67950202D01*
X118849916Y-67976964D01*
X118874493Y-68000144D01*
X118878763Y-68022667D01*
X118865111Y-68047455D01*
X118850057Y-68063886D01*
X118806254Y-68090235D01*
X118758611Y-68092081D01*
X118714855Y-68071546D01*
X118682711Y-68030752D01*
X118676962Y-68016347D01*
X118649424Y-67971356D01*
X118617742Y-67952182D01*
X118574286Y-67935779D01*
X118574286Y-67997966D01*
X118578128Y-68040283D01*
X118593177Y-68075969D01*
X118624720Y-68116943D01*
X118629408Y-68122267D01*
X118664494Y-68158720D01*
X118694653Y-68178283D01*
X118732385Y-68187283D01*
X118763665Y-68190230D01*
X118819615Y-68190965D01*
X118859445Y-68181660D01*
X118884292Y-68167846D01*
X118923344Y-68137467D01*
X118950375Y-68104613D01*
X118967483Y-68063294D01*
X118976762Y-68007521D01*
X118980307Y-67931305D01*
X118980590Y-67892622D01*
X118979628Y-67846247D01*
X118891993Y-67846247D01*
X118890977Y-67871126D01*
X118888444Y-67875200D01*
X118871726Y-67869665D01*
X118835751Y-67855017D01*
X118787669Y-67834190D01*
X118777614Y-67829714D01*
X118716848Y-67798814D01*
X118683368Y-67771657D01*
X118676010Y-67746220D01*
X118693609Y-67720481D01*
X118708144Y-67709109D01*
X118760590Y-67686364D01*
X118809678Y-67690122D01*
X118850773Y-67717884D01*
X118879242Y-67767152D01*
X118888369Y-67806257D01*
X118891993Y-67846247D01*
X118979628Y-67846247D01*
X118978715Y-67802249D01*
X118971804Y-67735384D01*
X118958116Y-67686695D01*
X118935904Y-67650849D01*
X118903426Y-67622513D01*
X118889267Y-67613355D01*
X118824947Y-67589507D01*
X118754527Y-67588006D01*
X118686405Y-67606966D01*
G36*
X121736090Y-62882348D02*
G01*
X121657546Y-62882778D01*
X121600702Y-62883942D01*
X121561895Y-62886207D01*
X121537462Y-62889940D01*
X121523738Y-62895506D01*
X121517060Y-62903273D01*
X121513764Y-62913605D01*
X121513444Y-62914943D01*
X121508438Y-62939079D01*
X121499171Y-62986701D01*
X121486608Y-63052741D01*
X121471713Y-63132128D01*
X121455449Y-63219796D01*
X121454881Y-63222875D01*
X121438590Y-63308789D01*
X121423348Y-63384696D01*
X121410139Y-63446045D01*
X121399946Y-63488282D01*
X121393752Y-63506855D01*
X121393457Y-63507184D01*
X121375212Y-63516253D01*
X121337595Y-63531367D01*
X121288729Y-63549262D01*
X121288457Y-63549358D01*
X121226907Y-63572493D01*
X121154343Y-63601965D01*
X121085943Y-63631597D01*
X121082706Y-63633062D01*
X120971298Y-63683626D01*
X120724601Y-63515160D01*
X120648923Y-63463803D01*
X120580369Y-63417889D01*
X120522912Y-63380030D01*
X120480524Y-63352837D01*
X120457175Y-63338921D01*
X120454958Y-63337889D01*
X120437990Y-63342484D01*
X120406299Y-63364655D01*
X120358648Y-63405447D01*
X120293802Y-63465905D01*
X120227603Y-63530227D01*
X120163786Y-63593612D01*
X120106671Y-63651451D01*
X120059695Y-63700175D01*
X120026297Y-63736210D01*
X120009915Y-63755984D01*
X120009306Y-63757002D01*
X120007495Y-63770572D01*
X120014317Y-63792733D01*
X120031460Y-63826478D01*
X120060607Y-63874800D01*
X120103445Y-63940692D01*
X120160552Y-64025517D01*
X120211234Y-64100177D01*
X120256539Y-64167140D01*
X120293850Y-64222516D01*
X120320548Y-64262420D01*
X120334015Y-64282962D01*
X120334863Y-64284356D01*
X120333219Y-64304038D01*
X120320755Y-64342293D01*
X120299952Y-64391889D01*
X120292538Y-64407728D01*
X120260186Y-64478290D01*
X120225672Y-64558353D01*
X120197635Y-64627629D01*
X120177432Y-64679045D01*
X120161385Y-64718119D01*
X120152112Y-64738541D01*
X120150959Y-64740114D01*
X120133904Y-64742721D01*
X120093702Y-64749863D01*
X120035698Y-64760523D01*
X119965237Y-64773685D01*
X119887665Y-64788333D01*
X119808328Y-64803449D01*
X119732569Y-64818018D01*
X119665736Y-64831022D01*
X119613172Y-64841445D01*
X119580224Y-64848270D01*
X119572143Y-64850199D01*
X119563795Y-64854962D01*
X119557494Y-64865718D01*
X119552955Y-64886098D01*
X119549896Y-64919734D01*
X119548033Y-64970255D01*
X119547082Y-65041292D01*
X119546760Y-65136476D01*
X119546743Y-65175492D01*
X119546743Y-65492799D01*
X119622943Y-65507839D01*
X119665337Y-65515995D01*
X119728600Y-65527899D01*
X119805038Y-65542116D01*
X119886957Y-65557210D01*
X119909600Y-65561355D01*
X119985194Y-65576053D01*
X120051047Y-65590505D01*
X120101634Y-65603375D01*
X120131426Y-65613322D01*
X120136388Y-65616287D01*
X120148574Y-65637283D01*
X120166047Y-65677967D01*
X120185423Y-65730322D01*
X120189266Y-65741600D01*
X120214661Y-65811523D01*
X120246183Y-65890418D01*
X120277031Y-65961266D01*
X120277183Y-65961595D01*
X120328553Y-66072733D01*
X120159601Y-66321253D01*
X119990648Y-66569772D01*
X120207571Y-66787058D01*
X120273181Y-66851726D01*
X120333021Y-66908733D01*
X120383733Y-66955033D01*
X120421954Y-66987584D01*
X120444325Y-67003343D01*
X120447534Y-67004343D01*
X120466374Y-66996469D01*
X120504820Y-66974578D01*
X120558670Y-66941267D01*
X120623724Y-66899131D01*
X120694060Y-66851943D01*
X120765445Y-66803810D01*
X120829092Y-66761928D01*
X120880959Y-66728871D01*
X120917005Y-66707218D01*
X120933133Y-66699543D01*
X120952811Y-66706037D01*
X120990125Y-66723150D01*
X121037379Y-66747326D01*
X121042388Y-66750013D01*
X121106023Y-66781927D01*
X121149659Y-66797579D01*
X121176798Y-66797745D01*
X121190943Y-66783204D01*
X121191025Y-66783000D01*
X121198095Y-66765779D01*
X121214958Y-66724899D01*
X121240305Y-66663525D01*
X121272829Y-66584819D01*
X121311222Y-66491947D01*
X121354178Y-66388072D01*
X121395778Y-66287502D01*
X121441496Y-66176516D01*
X121483474Y-66073703D01*
X121520452Y-65982215D01*
X121551173Y-65905201D01*
X121574378Y-65845815D01*
X121588810Y-65807209D01*
X121593257Y-65792800D01*
X121582104Y-65776272D01*
X121552931Y-65749930D01*
X121514029Y-65720887D01*
X121403243Y-65629039D01*
X121316649Y-65523759D01*
X121255284Y-65407266D01*
X121220185Y-65281776D01*
X121212392Y-65149507D01*
X121218057Y-65088457D01*
X121248922Y-64961795D01*
X121302080Y-64849941D01*
X121374233Y-64754001D01*
X121462083Y-64675076D01*
X121562335Y-64614270D01*
X121671690Y-64572687D01*
X121786853Y-64551428D01*
X121904525Y-64551599D01*
X122021410Y-64574301D01*
X122134211Y-64620638D01*
X122239631Y-64691713D01*
X122283632Y-64731911D01*
X122368021Y-64835129D01*
X122426778Y-64947925D01*
X122460296Y-65067010D01*
X122468965Y-65189095D01*
X122453177Y-65310893D01*
X122413322Y-65429116D01*
X122349793Y-65540475D01*
X122262979Y-65641684D01*
X122165971Y-65720887D01*
X122125563Y-65751162D01*
X122097018Y-65777219D01*
X122086743Y-65792825D01*
X122092123Y-65809843D01*
X122107425Y-65850500D01*
X122131388Y-65911642D01*
X122162756Y-65990119D01*
X122200268Y-66082780D01*
X122242667Y-66186472D01*
X122284337Y-66287526D01*
X122330310Y-66398607D01*
X122372893Y-66501541D01*
X122410779Y-66593165D01*
X122442660Y-66670316D01*
X122467229Y-66729831D01*
X122483180Y-66768544D01*
X122489090Y-66783000D01*
X122503052Y-66797685D01*
X122530060Y-66797642D01*
X122573587Y-66782099D01*
X122637110Y-66750284D01*
X122637612Y-66750013D01*
X122685440Y-66725323D01*
X122724103Y-66707338D01*
X122745905Y-66699614D01*
X122746867Y-66699543D01*
X122763279Y-66707378D01*
X122799513Y-66729165D01*
X122851526Y-66762328D01*
X122915275Y-66804291D01*
X122985940Y-66851943D01*
X123057884Y-66900191D01*
X123122726Y-66942151D01*
X123176265Y-66975227D01*
X123214303Y-66996821D01*
X123232467Y-67004343D01*
X123249192Y-66994457D01*
X123282820Y-66966826D01*
X123329990Y-66924495D01*
X123387342Y-66870505D01*
X123451516Y-66807899D01*
X123472503Y-66786983D01*
X123689501Y-66569623D01*
X123524332Y-66327220D01*
X123474136Y-66252781D01*
X123430081Y-66185972D01*
X123394638Y-66130665D01*
X123370281Y-66090729D01*
X123359478Y-66070036D01*
X123359162Y-66068563D01*
X123364857Y-66049058D01*
X123380174Y-66009822D01*
X123402463Y-65957430D01*
X123418107Y-65922355D01*
X123447359Y-65855201D01*
X123474906Y-65787358D01*
X123496263Y-65730034D01*
X123502065Y-65712572D01*
X123518548Y-65665938D01*
X123534660Y-65629905D01*
X123543510Y-65616287D01*
X123563040Y-65607952D01*
X123605666Y-65596137D01*
X123665855Y-65582181D01*
X123738078Y-65567422D01*
X123770400Y-65561355D01*
X123852478Y-65546273D01*
X123931205Y-65531669D01*
X123998891Y-65518980D01*
X124047840Y-65509642D01*
X124057057Y-65507839D01*
X124133257Y-65492799D01*
X124133257Y-65175492D01*
X124133086Y-65071154D01*
X124132384Y-64992213D01*
X124130866Y-64935038D01*
X124128251Y-64895999D01*
X124124254Y-64871465D01*
X124118591Y-64857805D01*
X124110980Y-64851389D01*
X124107857Y-64850199D01*
X124089022Y-64845980D01*
X124047412Y-64837562D01*
X123988370Y-64825961D01*
X123917243Y-64812195D01*
X123839375Y-64797280D01*
X123760113Y-64782232D01*
X123684802Y-64768069D01*
X123618787Y-64755806D01*
X123567413Y-64746461D01*
X123536025Y-64741050D01*
X123529041Y-64740114D01*
X123522715Y-64727596D01*
X123508710Y-64694246D01*
X123489645Y-64646377D01*
X123482366Y-64627629D01*
X123453004Y-64555195D01*
X123418429Y-64475170D01*
X123387463Y-64407728D01*
X123364677Y-64356159D01*
X123349518Y-64313785D01*
X123344458Y-64287834D01*
X123345264Y-64284356D01*
X123355959Y-64267936D01*
X123380380Y-64231417D01*
X123415905Y-64178687D01*
X123459913Y-64113635D01*
X123509783Y-64040151D01*
X123519644Y-64025645D01*
X123577508Y-63939704D01*
X123620044Y-63874261D01*
X123648946Y-63826304D01*
X123665910Y-63792820D01*
X123672633Y-63770795D01*
X123670810Y-63757217D01*
X123670764Y-63757131D01*
X123656414Y-63739297D01*
X123624677Y-63704817D01*
X123578990Y-63657268D01*
X123522796Y-63600222D01*
X123459532Y-63537255D01*
X123452398Y-63530227D01*
X123372670Y-63453020D01*
X123311143Y-63396330D01*
X123266579Y-63359110D01*
X123237743Y-63340315D01*
X123225042Y-63337889D01*
X123206506Y-63348471D01*
X123168039Y-63372916D01*
X123113614Y-63408612D01*
X123047202Y-63452947D01*
X122972775Y-63503311D01*
X122955399Y-63515160D01*
X122708703Y-63683626D01*
X122597294Y-63633062D01*
X122529543Y-63603595D01*
X122456817Y-63573959D01*
X122394297Y-63550330D01*
X122391543Y-63549358D01*
X122342640Y-63531457D01*
X122304943Y-63516320D01*
X122286575Y-63507210D01*
X122286544Y-63507184D01*
X122280715Y-63490717D01*
X122270808Y-63450219D01*
X122257805Y-63390242D01*
X122242691Y-63315340D01*
X122226448Y-63230064D01*
X122225119Y-63222875D01*
X122208825Y-63135014D01*
X122193867Y-63055260D01*
X122181209Y-62988681D01*
X122171814Y-62940347D01*
X122166646Y-62915325D01*
X122166556Y-62914943D01*
X122163411Y-62904299D01*
X122157296Y-62896262D01*
X122144547Y-62890467D01*
X122121500Y-62886547D01*
X122084491Y-62884135D01*
X122029856Y-62882865D01*
X121953933Y-62882371D01*
X121853056Y-62882286D01*
X121840000Y-62882286D01*
X121736090Y-62882348D01*
G37*
X121736090Y-62882348D02*
X121657546Y-62882778D01*
X121600702Y-62883942D01*
X121561895Y-62886207D01*
X121537462Y-62889940D01*
X121523738Y-62895506D01*
X121517060Y-62903273D01*
X121513764Y-62913605D01*
X121513444Y-62914943D01*
X121508438Y-62939079D01*
X121499171Y-62986701D01*
X121486608Y-63052741D01*
X121471713Y-63132128D01*
X121455449Y-63219796D01*
X121454881Y-63222875D01*
X121438590Y-63308789D01*
X121423348Y-63384696D01*
X121410139Y-63446045D01*
X121399946Y-63488282D01*
X121393752Y-63506855D01*
X121393457Y-63507184D01*
X121375212Y-63516253D01*
X121337595Y-63531367D01*
X121288729Y-63549262D01*
X121288457Y-63549358D01*
X121226907Y-63572493D01*
X121154343Y-63601965D01*
X121085943Y-63631597D01*
X121082706Y-63633062D01*
X120971298Y-63683626D01*
X120724601Y-63515160D01*
X120648923Y-63463803D01*
X120580369Y-63417889D01*
X120522912Y-63380030D01*
X120480524Y-63352837D01*
X120457175Y-63338921D01*
X120454958Y-63337889D01*
X120437990Y-63342484D01*
X120406299Y-63364655D01*
X120358648Y-63405447D01*
X120293802Y-63465905D01*
X120227603Y-63530227D01*
X120163786Y-63593612D01*
X120106671Y-63651451D01*
X120059695Y-63700175D01*
X120026297Y-63736210D01*
X120009915Y-63755984D01*
X120009306Y-63757002D01*
X120007495Y-63770572D01*
X120014317Y-63792733D01*
X120031460Y-63826478D01*
X120060607Y-63874800D01*
X120103445Y-63940692D01*
X120160552Y-64025517D01*
X120211234Y-64100177D01*
X120256539Y-64167140D01*
X120293850Y-64222516D01*
X120320548Y-64262420D01*
X120334015Y-64282962D01*
X120334863Y-64284356D01*
X120333219Y-64304038D01*
X120320755Y-64342293D01*
X120299952Y-64391889D01*
X120292538Y-64407728D01*
X120260186Y-64478290D01*
X120225672Y-64558353D01*
X120197635Y-64627629D01*
X120177432Y-64679045D01*
X120161385Y-64718119D01*
X120152112Y-64738541D01*
X120150959Y-64740114D01*
X120133904Y-64742721D01*
X120093702Y-64749863D01*
X120035698Y-64760523D01*
X119965237Y-64773685D01*
X119887665Y-64788333D01*
X119808328Y-64803449D01*
X119732569Y-64818018D01*
X119665736Y-64831022D01*
X119613172Y-64841445D01*
X119580224Y-64848270D01*
X119572143Y-64850199D01*
X119563795Y-64854962D01*
X119557494Y-64865718D01*
X119552955Y-64886098D01*
X119549896Y-64919734D01*
X119548033Y-64970255D01*
X119547082Y-65041292D01*
X119546760Y-65136476D01*
X119546743Y-65175492D01*
X119546743Y-65492799D01*
X119622943Y-65507839D01*
X119665337Y-65515995D01*
X119728600Y-65527899D01*
X119805038Y-65542116D01*
X119886957Y-65557210D01*
X119909600Y-65561355D01*
X119985194Y-65576053D01*
X120051047Y-65590505D01*
X120101634Y-65603375D01*
X120131426Y-65613322D01*
X120136388Y-65616287D01*
X120148574Y-65637283D01*
X120166047Y-65677967D01*
X120185423Y-65730322D01*
X120189266Y-65741600D01*
X120214661Y-65811523D01*
X120246183Y-65890418D01*
X120277031Y-65961266D01*
X120277183Y-65961595D01*
X120328553Y-66072733D01*
X120159601Y-66321253D01*
X119990648Y-66569772D01*
X120207571Y-66787058D01*
X120273181Y-66851726D01*
X120333021Y-66908733D01*
X120383733Y-66955033D01*
X120421954Y-66987584D01*
X120444325Y-67003343D01*
X120447534Y-67004343D01*
X120466374Y-66996469D01*
X120504820Y-66974578D01*
X120558670Y-66941267D01*
X120623724Y-66899131D01*
X120694060Y-66851943D01*
X120765445Y-66803810D01*
X120829092Y-66761928D01*
X120880959Y-66728871D01*
X120917005Y-66707218D01*
X120933133Y-66699543D01*
X120952811Y-66706037D01*
X120990125Y-66723150D01*
X121037379Y-66747326D01*
X121042388Y-66750013D01*
X121106023Y-66781927D01*
X121149659Y-66797579D01*
X121176798Y-66797745D01*
X121190943Y-66783204D01*
X121191025Y-66783000D01*
X121198095Y-66765779D01*
X121214958Y-66724899D01*
X121240305Y-66663525D01*
X121272829Y-66584819D01*
X121311222Y-66491947D01*
X121354178Y-66388072D01*
X121395778Y-66287502D01*
X121441496Y-66176516D01*
X121483474Y-66073703D01*
X121520452Y-65982215D01*
X121551173Y-65905201D01*
X121574378Y-65845815D01*
X121588810Y-65807209D01*
X121593257Y-65792800D01*
X121582104Y-65776272D01*
X121552931Y-65749930D01*
X121514029Y-65720887D01*
X121403243Y-65629039D01*
X121316649Y-65523759D01*
X121255284Y-65407266D01*
X121220185Y-65281776D01*
X121212392Y-65149507D01*
X121218057Y-65088457D01*
X121248922Y-64961795D01*
X121302080Y-64849941D01*
X121374233Y-64754001D01*
X121462083Y-64675076D01*
X121562335Y-64614270D01*
X121671690Y-64572687D01*
X121786853Y-64551428D01*
X121904525Y-64551599D01*
X122021410Y-64574301D01*
X122134211Y-64620638D01*
X122239631Y-64691713D01*
X122283632Y-64731911D01*
X122368021Y-64835129D01*
X122426778Y-64947925D01*
X122460296Y-65067010D01*
X122468965Y-65189095D01*
X122453177Y-65310893D01*
X122413322Y-65429116D01*
X122349793Y-65540475D01*
X122262979Y-65641684D01*
X122165971Y-65720887D01*
X122125563Y-65751162D01*
X122097018Y-65777219D01*
X122086743Y-65792825D01*
X122092123Y-65809843D01*
X122107425Y-65850500D01*
X122131388Y-65911642D01*
X122162756Y-65990119D01*
X122200268Y-66082780D01*
X122242667Y-66186472D01*
X122284337Y-66287526D01*
X122330310Y-66398607D01*
X122372893Y-66501541D01*
X122410779Y-66593165D01*
X122442660Y-66670316D01*
X122467229Y-66729831D01*
X122483180Y-66768544D01*
X122489090Y-66783000D01*
X122503052Y-66797685D01*
X122530060Y-66797642D01*
X122573587Y-66782099D01*
X122637110Y-66750284D01*
X122637612Y-66750013D01*
X122685440Y-66725323D01*
X122724103Y-66707338D01*
X122745905Y-66699614D01*
X122746867Y-66699543D01*
X122763279Y-66707378D01*
X122799513Y-66729165D01*
X122851526Y-66762328D01*
X122915275Y-66804291D01*
X122985940Y-66851943D01*
X123057884Y-66900191D01*
X123122726Y-66942151D01*
X123176265Y-66975227D01*
X123214303Y-66996821D01*
X123232467Y-67004343D01*
X123249192Y-66994457D01*
X123282820Y-66966826D01*
X123329990Y-66924495D01*
X123387342Y-66870505D01*
X123451516Y-66807899D01*
X123472503Y-66786983D01*
X123689501Y-66569623D01*
X123524332Y-66327220D01*
X123474136Y-66252781D01*
X123430081Y-66185972D01*
X123394638Y-66130665D01*
X123370281Y-66090729D01*
X123359478Y-66070036D01*
X123359162Y-66068563D01*
X123364857Y-66049058D01*
X123380174Y-66009822D01*
X123402463Y-65957430D01*
X123418107Y-65922355D01*
X123447359Y-65855201D01*
X123474906Y-65787358D01*
X123496263Y-65730034D01*
X123502065Y-65712572D01*
X123518548Y-65665938D01*
X123534660Y-65629905D01*
X123543510Y-65616287D01*
X123563040Y-65607952D01*
X123605666Y-65596137D01*
X123665855Y-65582181D01*
X123738078Y-65567422D01*
X123770400Y-65561355D01*
X123852478Y-65546273D01*
X123931205Y-65531669D01*
X123998891Y-65518980D01*
X124047840Y-65509642D01*
X124057057Y-65507839D01*
X124133257Y-65492799D01*
X124133257Y-65175492D01*
X124133086Y-65071154D01*
X124132384Y-64992213D01*
X124130866Y-64935038D01*
X124128251Y-64895999D01*
X124124254Y-64871465D01*
X124118591Y-64857805D01*
X124110980Y-64851389D01*
X124107857Y-64850199D01*
X124089022Y-64845980D01*
X124047412Y-64837562D01*
X123988370Y-64825961D01*
X123917243Y-64812195D01*
X123839375Y-64797280D01*
X123760113Y-64782232D01*
X123684802Y-64768069D01*
X123618787Y-64755806D01*
X123567413Y-64746461D01*
X123536025Y-64741050D01*
X123529041Y-64740114D01*
X123522715Y-64727596D01*
X123508710Y-64694246D01*
X123489645Y-64646377D01*
X123482366Y-64627629D01*
X123453004Y-64555195D01*
X123418429Y-64475170D01*
X123387463Y-64407728D01*
X123364677Y-64356159D01*
X123349518Y-64313785D01*
X123344458Y-64287834D01*
X123345264Y-64284356D01*
X123355959Y-64267936D01*
X123380380Y-64231417D01*
X123415905Y-64178687D01*
X123459913Y-64113635D01*
X123509783Y-64040151D01*
X123519644Y-64025645D01*
X123577508Y-63939704D01*
X123620044Y-63874261D01*
X123648946Y-63826304D01*
X123665910Y-63792820D01*
X123672633Y-63770795D01*
X123670810Y-63757217D01*
X123670764Y-63757131D01*
X123656414Y-63739297D01*
X123624677Y-63704817D01*
X123578990Y-63657268D01*
X123522796Y-63600222D01*
X123459532Y-63537255D01*
X123452398Y-63530227D01*
X123372670Y-63453020D01*
X123311143Y-63396330D01*
X123266579Y-63359110D01*
X123237743Y-63340315D01*
X123225042Y-63337889D01*
X123206506Y-63348471D01*
X123168039Y-63372916D01*
X123113614Y-63408612D01*
X123047202Y-63452947D01*
X122972775Y-63503311D01*
X122955399Y-63515160D01*
X122708703Y-63683626D01*
X122597294Y-63633062D01*
X122529543Y-63603595D01*
X122456817Y-63573959D01*
X122394297Y-63550330D01*
X122391543Y-63549358D01*
X122342640Y-63531457D01*
X122304943Y-63516320D01*
X122286575Y-63507210D01*
X122286544Y-63507184D01*
X122280715Y-63490717D01*
X122270808Y-63450219D01*
X122257805Y-63390242D01*
X122242691Y-63315340D01*
X122226448Y-63230064D01*
X122225119Y-63222875D01*
X122208825Y-63135014D01*
X122193867Y-63055260D01*
X122181209Y-62988681D01*
X122171814Y-62940347D01*
X122166646Y-62915325D01*
X122166556Y-62914943D01*
X122163411Y-62904299D01*
X122157296Y-62896262D01*
X122144547Y-62890467D01*
X122121500Y-62886547D01*
X122084491Y-62884135D01*
X122029856Y-62882865D01*
X121953933Y-62882371D01*
X121853056Y-62882286D01*
X121840000Y-62882286D01*
X121736090Y-62882348D01*
G36*
X119586400Y-74429054D02*
G01*
X119575535Y-74542993D01*
X119543918Y-74650616D01*
X119493015Y-74749615D01*
X119424293Y-74837684D01*
X119339219Y-74912516D01*
X119242232Y-74970384D01*
X119135964Y-75010005D01*
X119028950Y-75028573D01*
X118923300Y-75027434D01*
X118821125Y-75007930D01*
X118724534Y-74971406D01*
X118635638Y-74919205D01*
X118556546Y-74852673D01*
X118489369Y-74773152D01*
X118436217Y-74681987D01*
X118399199Y-74580523D01*
X118380427Y-74470102D01*
X118378489Y-74420206D01*
X118378489Y-74332267D01*
X118326560Y-74332267D01*
X118290253Y-74335111D01*
X118263355Y-74346911D01*
X118236249Y-74370649D01*
X118197867Y-74409031D01*
X118197867Y-76600602D01*
X118197876Y-76862739D01*
X118197908Y-77103241D01*
X118197972Y-77323048D01*
X118198076Y-77523101D01*
X118198227Y-77704344D01*
X118198434Y-77867716D01*
X118198706Y-78014160D01*
X118199050Y-78144617D01*
X118199474Y-78260029D01*
X118199987Y-78361338D01*
X118200597Y-78449484D01*
X118201312Y-78525410D01*
X118202140Y-78590057D01*
X118203089Y-78644367D01*
X118204167Y-78689280D01*
X118205383Y-78725740D01*
X118206745Y-78754687D01*
X118208261Y-78777063D01*
X118209938Y-78793809D01*
X118211786Y-78805868D01*
X118213813Y-78814180D01*
X118216025Y-78819687D01*
X118217108Y-78821537D01*
X118221271Y-78828549D01*
X118224805Y-78834996D01*
X118228635Y-78840900D01*
X118233682Y-78846286D01*
X118240871Y-78851178D01*
X118251123Y-78855598D01*
X118265364Y-78859572D01*
X118284514Y-78863121D01*
X118309499Y-78866270D01*
X118341240Y-78869042D01*
X118380662Y-78871461D01*
X118428686Y-78873551D01*
X118486237Y-78875335D01*
X118554237Y-78876837D01*
X118633610Y-78878080D01*
X118725279Y-78879089D01*
X118830166Y-78879885D01*
X118949196Y-78880494D01*
X119083290Y-78880939D01*
X119233373Y-78881243D01*
X119400367Y-78881430D01*
X119585196Y-78881524D01*
X119788783Y-78881548D01*
X120012050Y-78881525D01*
X120255922Y-78881480D01*
X120521321Y-78881437D01*
X120559704Y-78881432D01*
X120826682Y-78881389D01*
X121072002Y-78881318D01*
X121296583Y-78881213D01*
X121501345Y-78881066D01*
X121687206Y-78880869D01*
X121855088Y-78880616D01*
X122005908Y-78880300D01*
X122140587Y-78879913D01*
X122260044Y-78879447D01*
X122365199Y-78878897D01*
X122456971Y-78878253D01*
X122536279Y-78877511D01*
X122604043Y-78876661D01*
X122661182Y-78875697D01*
X122708617Y-78874611D01*
X122747266Y-78873397D01*
X122778049Y-78872047D01*
X122801885Y-78870555D01*
X122819694Y-78868911D01*
X122832395Y-78867111D01*
X122840908Y-78865145D01*
X122845266Y-78863477D01*
X122853728Y-78859906D01*
X122861497Y-78857270D01*
X122868602Y-78854634D01*
X122875073Y-78851062D01*
X122880939Y-78845621D01*
X122886229Y-78837375D01*
X122890974Y-78825390D01*
X122895202Y-78808731D01*
X122898943Y-78786463D01*
X122902227Y-78757652D01*
X122905083Y-78721363D01*
X122907540Y-78676661D01*
X122909629Y-78622611D01*
X122911378Y-78558279D01*
X122912817Y-78482730D01*
X122913976Y-78395030D01*
X122914883Y-78294243D01*
X122915569Y-78179434D01*
X122916063Y-78049670D01*
X122916395Y-77904015D01*
X122916593Y-77741535D01*
X122916687Y-77561295D01*
X122916708Y-77362360D01*
X122916685Y-77143796D01*
X122916646Y-76904668D01*
X122916622Y-76644040D01*
X122916622Y-76601889D01*
X122916636Y-76338992D01*
X122916661Y-76097732D01*
X122916671Y-75877165D01*
X122916642Y-75676352D01*
X122916548Y-75494349D01*
X122916362Y-75330216D01*
X122916059Y-75183011D01*
X122915614Y-75051792D01*
X122915034Y-74941867D01*
X122612197Y-74941867D01*
X122572407Y-74999711D01*
X122561236Y-75015479D01*
X122551166Y-75029441D01*
X122542138Y-75042784D01*
X122534097Y-75056693D01*
X122526986Y-75072356D01*
X122520747Y-75090958D01*
X122515325Y-75113686D01*
X122510662Y-75141727D01*
X122506701Y-75176267D01*
X122503385Y-75218492D01*
X122500659Y-75269589D01*
X122498464Y-75330744D01*
X122496745Y-75403144D01*
X122495444Y-75487975D01*
X122494505Y-75586422D01*
X122493870Y-75699674D01*
X122493484Y-75828916D01*
X122493288Y-75975334D01*
X122493227Y-76140116D01*
X122493243Y-76324447D01*
X122493280Y-76529513D01*
X122493289Y-76652133D01*
X122493265Y-76869082D01*
X122493231Y-77064642D01*
X122493243Y-77239999D01*
X122493358Y-77396341D01*
X122493630Y-77534857D01*
X122494118Y-77656734D01*
X122494876Y-77763160D01*
X122495962Y-77855322D01*
X122497431Y-77934409D01*
X122499340Y-78001608D01*
X122501744Y-78058107D01*
X122504701Y-78105093D01*
X122508266Y-78143755D01*
X122512495Y-78175280D01*
X122517446Y-78200855D01*
X122523173Y-78221670D01*
X122529733Y-78238911D01*
X122537183Y-78253765D01*
X122545579Y-78267422D01*
X122554976Y-78281069D01*
X122565432Y-78295893D01*
X122571523Y-78304783D01*
X122610296Y-78362400D01*
X122078732Y-78362400D01*
X121955483Y-78362365D01*
X121852987Y-78362215D01*
X121769420Y-78361878D01*
X121702956Y-78361286D01*
X121651771Y-78360367D01*
X121614041Y-78359051D01*
X121587940Y-78357269D01*
X121571644Y-78354951D01*
X121563328Y-78352026D01*
X121561168Y-78348424D01*
X121563339Y-78344075D01*
X121564535Y-78342645D01*
X121589685Y-78305573D01*
X121615583Y-78252772D01*
X121639192Y-78190770D01*
X121647461Y-78164357D01*
X121652078Y-78146416D01*
X121655979Y-78125355D01*
X121659248Y-78099089D01*
X121661966Y-78065532D01*
X121664215Y-78022599D01*
X121666077Y-77968204D01*
X121667636Y-77900262D01*
X121668972Y-77816688D01*
X121670169Y-77715395D01*
X121671308Y-77594300D01*
X121671685Y-77549600D01*
X121672702Y-77424449D01*
X121673460Y-77320082D01*
X121673903Y-77234707D01*
X121673970Y-77166533D01*
X121673605Y-77113765D01*
X121672748Y-77074614D01*
X121671341Y-77047285D01*
X121669325Y-77029986D01*
X121666643Y-77020926D01*
X121663236Y-77018312D01*
X121659044Y-77020351D01*
X121654571Y-77024667D01*
X121644216Y-77037602D01*
X121622158Y-77066676D01*
X121589957Y-77109759D01*
X121549174Y-77164718D01*
X121501370Y-77229423D01*
X121448105Y-77301742D01*
X121390940Y-77379544D01*
X121331437Y-77460698D01*
X121271155Y-77543072D01*
X121211655Y-77624536D01*
X121154498Y-77702957D01*
X121101245Y-77776204D01*
X121053457Y-77842147D01*
X121012693Y-77898654D01*
X120980516Y-77943593D01*
X120958485Y-77974834D01*
X120953917Y-77981466D01*
X120930996Y-78018369D01*
X120904188Y-78066359D01*
X120878789Y-78115897D01*
X120875568Y-78122577D01*
X120853890Y-78170772D01*
X120841304Y-78208334D01*
X120835574Y-78244160D01*
X120834456Y-78286200D01*
X120835090Y-78362400D01*
X119680651Y-78362400D01*
X119771815Y-78268669D01*
X119818612Y-78218775D01*
X119868899Y-78162295D01*
X119914944Y-78108026D01*
X119935369Y-78082673D01*
X119965807Y-78043128D01*
X120005862Y-77989916D01*
X120054361Y-77924667D01*
X120110135Y-77849011D01*
X120172011Y-77764577D01*
X120238819Y-77672994D01*
X120309387Y-77575892D01*
X120382545Y-77474901D01*
X120457121Y-77371650D01*
X120531944Y-77267768D01*
X120605843Y-77164885D01*
X120677646Y-77064631D01*
X120746184Y-76968636D01*
X120810284Y-76878527D01*
X120868775Y-76795936D01*
X120920486Y-76722492D01*
X120964247Y-76659824D01*
X120998885Y-76609561D01*
X121023230Y-76573334D01*
X121036111Y-76552771D01*
X121037869Y-76548668D01*
X121029910Y-76537342D01*
X121009115Y-76510162D01*
X120976847Y-76468829D01*
X120934470Y-76415044D01*
X120883347Y-76350506D01*
X120824841Y-76276918D01*
X120760314Y-76195978D01*
X120691131Y-76109388D01*
X120618653Y-76018848D01*
X120544246Y-75926060D01*
X120484517Y-75851702D01*
X119473511Y-75851702D01*
X119467602Y-75864659D01*
X119453272Y-75886908D01*
X119452225Y-75888391D01*
X119433438Y-75918544D01*
X119413791Y-75955375D01*
X119409892Y-75963511D01*
X119406356Y-75971940D01*
X119403230Y-75982059D01*
X119400486Y-75995260D01*
X119398092Y-76012938D01*
X119396019Y-76036484D01*
X119394235Y-76067293D01*
X119392712Y-76106757D01*
X119391419Y-76156269D01*
X119390326Y-76217223D01*
X119389403Y-76291011D01*
X119388619Y-76379028D01*
X119387945Y-76482665D01*
X119387350Y-76603316D01*
X119386805Y-76742374D01*
X119386279Y-76901232D01*
X119385745Y-77080089D01*
X119385206Y-77265207D01*
X119384772Y-77429145D01*
X119384509Y-77573303D01*
X119384484Y-77699079D01*
X119384765Y-77807871D01*
X119385419Y-77901077D01*
X119386514Y-77980097D01*
X119388118Y-78046328D01*
X119390297Y-78101170D01*
X119393119Y-78146021D01*
X119396651Y-78182278D01*
X119400961Y-78211341D01*
X119406117Y-78234609D01*
X119412185Y-78253479D01*
X119419233Y-78269351D01*
X119427329Y-78283622D01*
X119436540Y-78297691D01*
X119445040Y-78310158D01*
X119462176Y-78336452D01*
X119472322Y-78354037D01*
X119473511Y-78357257D01*
X119462604Y-78358334D01*
X119431411Y-78359335D01*
X119382223Y-78360235D01*
X119317333Y-78361010D01*
X119239030Y-78361637D01*
X119149607Y-78362091D01*
X119051356Y-78362349D01*
X118982445Y-78362400D01*
X118877452Y-78362180D01*
X118780610Y-78361548D01*
X118694107Y-78360549D01*
X118620132Y-78359227D01*
X118560874Y-78357626D01*
X118518520Y-78355791D01*
X118495260Y-78353765D01*
X118491378Y-78352493D01*
X118499076Y-78337591D01*
X118507074Y-78329560D01*
X118520246Y-78312434D01*
X118537485Y-78282183D01*
X118549407Y-78257622D01*
X118576045Y-78198711D01*
X118579120Y-77021845D01*
X118582195Y-75844978D01*
X119027853Y-75844978D01*
X119125670Y-75845142D01*
X119216064Y-75845611D01*
X119296630Y-75846347D01*
X119364962Y-75847316D01*
X119418656Y-75848480D01*
X119455305Y-75849803D01*
X119472504Y-75851249D01*
X119473511Y-75851702D01*
X120484517Y-75851702D01*
X120469270Y-75832722D01*
X120395090Y-75740537D01*
X120323069Y-75651204D01*
X120254569Y-75566424D01*
X120190955Y-75487898D01*
X120133588Y-75417326D01*
X120083833Y-75356409D01*
X120043052Y-75306847D01*
X120025888Y-75286178D01*
X119939596Y-75185516D01*
X119862997Y-75102259D01*
X119794183Y-75034438D01*
X119731248Y-74980089D01*
X119721867Y-74972722D01*
X119682356Y-74942117D01*
X120814116Y-74941867D01*
X120808827Y-74989844D01*
X120812130Y-75047188D01*
X120833661Y-75115463D01*
X120873635Y-75195212D01*
X120918943Y-75267495D01*
X120935161Y-75290140D01*
X120963214Y-75327696D01*
X121001430Y-75378021D01*
X121048137Y-75438973D01*
X121101661Y-75508411D01*
X121160331Y-75584194D01*
X121222475Y-75664180D01*
X121286421Y-75746228D01*
X121350495Y-75828196D01*
X121413027Y-75907943D01*
X121472343Y-75983327D01*
X121526771Y-76052207D01*
X121574639Y-76112442D01*
X121614275Y-76161889D01*
X121644006Y-76198408D01*
X121662161Y-76219858D01*
X121665220Y-76223156D01*
X121668079Y-76215149D01*
X121670293Y-76184855D01*
X121671857Y-76132556D01*
X121672767Y-76058531D01*
X121673020Y-75963063D01*
X121672613Y-75846434D01*
X121671704Y-75726445D01*
X121670382Y-75594333D01*
X121668857Y-75482594D01*
X121666881Y-75389025D01*
X121664206Y-75311419D01*
X121660582Y-75247574D01*
X121655761Y-75195283D01*
X121649494Y-75152344D01*
X121641532Y-75116551D01*
X121631627Y-75085700D01*
X121619531Y-75057586D01*
X121604993Y-75030005D01*
X121590311Y-75004966D01*
X121552314Y-74941867D01*
X122612197Y-74941867D01*
X122915034Y-74941867D01*
X122915001Y-74935617D01*
X122914195Y-74833544D01*
X122913170Y-74744633D01*
X122911900Y-74667941D01*
X122910360Y-74602527D01*
X122908524Y-74547449D01*
X122906367Y-74501765D01*
X122903863Y-74464534D01*
X122900987Y-74434813D01*
X122897713Y-74411662D01*
X122894015Y-74394139D01*
X122889869Y-74381301D01*
X122885247Y-74372208D01*
X122880126Y-74365918D01*
X122874478Y-74361488D01*
X122868279Y-74357978D01*
X122861504Y-74354445D01*
X122855508Y-74350876D01*
X122850275Y-74348300D01*
X122842099Y-74345972D01*
X122829886Y-74343878D01*
X122812541Y-74342007D01*
X122788969Y-74340347D01*
X122758077Y-74338884D01*
X122718768Y-74337608D01*
X122669950Y-74336504D01*
X122610527Y-74335561D01*
X122539404Y-74334767D01*
X122455488Y-74334109D01*
X122357683Y-74333575D01*
X122244894Y-74333153D01*
X122116029Y-74332829D01*
X121969991Y-74332592D01*
X121805686Y-74332430D01*
X121622020Y-74332330D01*
X121417897Y-74332280D01*
X121206753Y-74332267D01*
X119586400Y-74332267D01*
X119586400Y-74429054D01*
G37*
X119586400Y-74429054D02*
X119575535Y-74542993D01*
X119543918Y-74650616D01*
X119493015Y-74749615D01*
X119424293Y-74837684D01*
X119339219Y-74912516D01*
X119242232Y-74970384D01*
X119135964Y-75010005D01*
X119028950Y-75028573D01*
X118923300Y-75027434D01*
X118821125Y-75007930D01*
X118724534Y-74971406D01*
X118635638Y-74919205D01*
X118556546Y-74852673D01*
X118489369Y-74773152D01*
X118436217Y-74681987D01*
X118399199Y-74580523D01*
X118380427Y-74470102D01*
X118378489Y-74420206D01*
X118378489Y-74332267D01*
X118326560Y-74332267D01*
X118290253Y-74335111D01*
X118263355Y-74346911D01*
X118236249Y-74370649D01*
X118197867Y-74409031D01*
X118197867Y-76600602D01*
X118197876Y-76862739D01*
X118197908Y-77103241D01*
X118197972Y-77323048D01*
X118198076Y-77523101D01*
X118198227Y-77704344D01*
X118198434Y-77867716D01*
X118198706Y-78014160D01*
X118199050Y-78144617D01*
X118199474Y-78260029D01*
X118199987Y-78361338D01*
X118200597Y-78449484D01*
X118201312Y-78525410D01*
X118202140Y-78590057D01*
X118203089Y-78644367D01*
X118204167Y-78689280D01*
X118205383Y-78725740D01*
X118206745Y-78754687D01*
X118208261Y-78777063D01*
X118209938Y-78793809D01*
X118211786Y-78805868D01*
X118213813Y-78814180D01*
X118216025Y-78819687D01*
X118217108Y-78821537D01*
X118221271Y-78828549D01*
X118224805Y-78834996D01*
X118228635Y-78840900D01*
X118233682Y-78846286D01*
X118240871Y-78851178D01*
X118251123Y-78855598D01*
X118265364Y-78859572D01*
X118284514Y-78863121D01*
X118309499Y-78866270D01*
X118341240Y-78869042D01*
X118380662Y-78871461D01*
X118428686Y-78873551D01*
X118486237Y-78875335D01*
X118554237Y-78876837D01*
X118633610Y-78878080D01*
X118725279Y-78879089D01*
X118830166Y-78879885D01*
X118949196Y-78880494D01*
X119083290Y-78880939D01*
X119233373Y-78881243D01*
X119400367Y-78881430D01*
X119585196Y-78881524D01*
X119788783Y-78881548D01*
X120012050Y-78881525D01*
X120255922Y-78881480D01*
X120521321Y-78881437D01*
X120559704Y-78881432D01*
X120826682Y-78881389D01*
X121072002Y-78881318D01*
X121296583Y-78881213D01*
X121501345Y-78881066D01*
X121687206Y-78880869D01*
X121855088Y-78880616D01*
X122005908Y-78880300D01*
X122140587Y-78879913D01*
X122260044Y-78879447D01*
X122365199Y-78878897D01*
X122456971Y-78878253D01*
X122536279Y-78877511D01*
X122604043Y-78876661D01*
X122661182Y-78875697D01*
X122708617Y-78874611D01*
X122747266Y-78873397D01*
X122778049Y-78872047D01*
X122801885Y-78870555D01*
X122819694Y-78868911D01*
X122832395Y-78867111D01*
X122840908Y-78865145D01*
X122845266Y-78863477D01*
X122853728Y-78859906D01*
X122861497Y-78857270D01*
X122868602Y-78854634D01*
X122875073Y-78851062D01*
X122880939Y-78845621D01*
X122886229Y-78837375D01*
X122890974Y-78825390D01*
X122895202Y-78808731D01*
X122898943Y-78786463D01*
X122902227Y-78757652D01*
X122905083Y-78721363D01*
X122907540Y-78676661D01*
X122909629Y-78622611D01*
X122911378Y-78558279D01*
X122912817Y-78482730D01*
X122913976Y-78395030D01*
X122914883Y-78294243D01*
X122915569Y-78179434D01*
X122916063Y-78049670D01*
X122916395Y-77904015D01*
X122916593Y-77741535D01*
X122916687Y-77561295D01*
X122916708Y-77362360D01*
X122916685Y-77143796D01*
X122916646Y-76904668D01*
X122916622Y-76644040D01*
X122916622Y-76601889D01*
X122916636Y-76338992D01*
X122916661Y-76097732D01*
X122916671Y-75877165D01*
X122916642Y-75676352D01*
X122916548Y-75494349D01*
X122916362Y-75330216D01*
X122916059Y-75183011D01*
X122915614Y-75051792D01*
X122915034Y-74941867D01*
X122612197Y-74941867D01*
X122572407Y-74999711D01*
X122561236Y-75015479D01*
X122551166Y-75029441D01*
X122542138Y-75042784D01*
X122534097Y-75056693D01*
X122526986Y-75072356D01*
X122520747Y-75090958D01*
X122515325Y-75113686D01*
X122510662Y-75141727D01*
X122506701Y-75176267D01*
X122503385Y-75218492D01*
X122500659Y-75269589D01*
X122498464Y-75330744D01*
X122496745Y-75403144D01*
X122495444Y-75487975D01*
X122494505Y-75586422D01*
X122493870Y-75699674D01*
X122493484Y-75828916D01*
X122493288Y-75975334D01*
X122493227Y-76140116D01*
X122493243Y-76324447D01*
X122493280Y-76529513D01*
X122493289Y-76652133D01*
X122493265Y-76869082D01*
X122493231Y-77064642D01*
X122493243Y-77239999D01*
X122493358Y-77396341D01*
X122493630Y-77534857D01*
X122494118Y-77656734D01*
X122494876Y-77763160D01*
X122495962Y-77855322D01*
X122497431Y-77934409D01*
X122499340Y-78001608D01*
X122501744Y-78058107D01*
X122504701Y-78105093D01*
X122508266Y-78143755D01*
X122512495Y-78175280D01*
X122517446Y-78200855D01*
X122523173Y-78221670D01*
X122529733Y-78238911D01*
X122537183Y-78253765D01*
X122545579Y-78267422D01*
X122554976Y-78281069D01*
X122565432Y-78295893D01*
X122571523Y-78304783D01*
X122610296Y-78362400D01*
X122078732Y-78362400D01*
X121955483Y-78362365D01*
X121852987Y-78362215D01*
X121769420Y-78361878D01*
X121702956Y-78361286D01*
X121651771Y-78360367D01*
X121614041Y-78359051D01*
X121587940Y-78357269D01*
X121571644Y-78354951D01*
X121563328Y-78352026D01*
X121561168Y-78348424D01*
X121563339Y-78344075D01*
X121564535Y-78342645D01*
X121589685Y-78305573D01*
X121615583Y-78252772D01*
X121639192Y-78190770D01*
X121647461Y-78164357D01*
X121652078Y-78146416D01*
X121655979Y-78125355D01*
X121659248Y-78099089D01*
X121661966Y-78065532D01*
X121664215Y-78022599D01*
X121666077Y-77968204D01*
X121667636Y-77900262D01*
X121668972Y-77816688D01*
X121670169Y-77715395D01*
X121671308Y-77594300D01*
X121671685Y-77549600D01*
X121672702Y-77424449D01*
X121673460Y-77320082D01*
X121673903Y-77234707D01*
X121673970Y-77166533D01*
X121673605Y-77113765D01*
X121672748Y-77074614D01*
X121671341Y-77047285D01*
X121669325Y-77029986D01*
X121666643Y-77020926D01*
X121663236Y-77018312D01*
X121659044Y-77020351D01*
X121654571Y-77024667D01*
X121644216Y-77037602D01*
X121622158Y-77066676D01*
X121589957Y-77109759D01*
X121549174Y-77164718D01*
X121501370Y-77229423D01*
X121448105Y-77301742D01*
X121390940Y-77379544D01*
X121331437Y-77460698D01*
X121271155Y-77543072D01*
X121211655Y-77624536D01*
X121154498Y-77702957D01*
X121101245Y-77776204D01*
X121053457Y-77842147D01*
X121012693Y-77898654D01*
X120980516Y-77943593D01*
X120958485Y-77974834D01*
X120953917Y-77981466D01*
X120930996Y-78018369D01*
X120904188Y-78066359D01*
X120878789Y-78115897D01*
X120875568Y-78122577D01*
X120853890Y-78170772D01*
X120841304Y-78208334D01*
X120835574Y-78244160D01*
X120834456Y-78286200D01*
X120835090Y-78362400D01*
X119680651Y-78362400D01*
X119771815Y-78268669D01*
X119818612Y-78218775D01*
X119868899Y-78162295D01*
X119914944Y-78108026D01*
X119935369Y-78082673D01*
X119965807Y-78043128D01*
X120005862Y-77989916D01*
X120054361Y-77924667D01*
X120110135Y-77849011D01*
X120172011Y-77764577D01*
X120238819Y-77672994D01*
X120309387Y-77575892D01*
X120382545Y-77474901D01*
X120457121Y-77371650D01*
X120531944Y-77267768D01*
X120605843Y-77164885D01*
X120677646Y-77064631D01*
X120746184Y-76968636D01*
X120810284Y-76878527D01*
X120868775Y-76795936D01*
X120920486Y-76722492D01*
X120964247Y-76659824D01*
X120998885Y-76609561D01*
X121023230Y-76573334D01*
X121036111Y-76552771D01*
X121037869Y-76548668D01*
X121029910Y-76537342D01*
X121009115Y-76510162D01*
X120976847Y-76468829D01*
X120934470Y-76415044D01*
X120883347Y-76350506D01*
X120824841Y-76276918D01*
X120760314Y-76195978D01*
X120691131Y-76109388D01*
X120618653Y-76018848D01*
X120544246Y-75926060D01*
X120484517Y-75851702D01*
X119473511Y-75851702D01*
X119467602Y-75864659D01*
X119453272Y-75886908D01*
X119452225Y-75888391D01*
X119433438Y-75918544D01*
X119413791Y-75955375D01*
X119409892Y-75963511D01*
X119406356Y-75971940D01*
X119403230Y-75982059D01*
X119400486Y-75995260D01*
X119398092Y-76012938D01*
X119396019Y-76036484D01*
X119394235Y-76067293D01*
X119392712Y-76106757D01*
X119391419Y-76156269D01*
X119390326Y-76217223D01*
X119389403Y-76291011D01*
X119388619Y-76379028D01*
X119387945Y-76482665D01*
X119387350Y-76603316D01*
X119386805Y-76742374D01*
X119386279Y-76901232D01*
X119385745Y-77080089D01*
X119385206Y-77265207D01*
X119384772Y-77429145D01*
X119384509Y-77573303D01*
X119384484Y-77699079D01*
X119384765Y-77807871D01*
X119385419Y-77901077D01*
X119386514Y-77980097D01*
X119388118Y-78046328D01*
X119390297Y-78101170D01*
X119393119Y-78146021D01*
X119396651Y-78182278D01*
X119400961Y-78211341D01*
X119406117Y-78234609D01*
X119412185Y-78253479D01*
X119419233Y-78269351D01*
X119427329Y-78283622D01*
X119436540Y-78297691D01*
X119445040Y-78310158D01*
X119462176Y-78336452D01*
X119472322Y-78354037D01*
X119473511Y-78357257D01*
X119462604Y-78358334D01*
X119431411Y-78359335D01*
X119382223Y-78360235D01*
X119317333Y-78361010D01*
X119239030Y-78361637D01*
X119149607Y-78362091D01*
X119051356Y-78362349D01*
X118982445Y-78362400D01*
X118877452Y-78362180D01*
X118780610Y-78361548D01*
X118694107Y-78360549D01*
X118620132Y-78359227D01*
X118560874Y-78357626D01*
X118518520Y-78355791D01*
X118495260Y-78353765D01*
X118491378Y-78352493D01*
X118499076Y-78337591D01*
X118507074Y-78329560D01*
X118520246Y-78312434D01*
X118537485Y-78282183D01*
X118549407Y-78257622D01*
X118576045Y-78198711D01*
X118579120Y-77021845D01*
X118582195Y-75844978D01*
X119027853Y-75844978D01*
X119125670Y-75845142D01*
X119216064Y-75845611D01*
X119296630Y-75846347D01*
X119364962Y-75847316D01*
X119418656Y-75848480D01*
X119455305Y-75849803D01*
X119472504Y-75851249D01*
X119473511Y-75851702D01*
X120484517Y-75851702D01*
X120469270Y-75832722D01*
X120395090Y-75740537D01*
X120323069Y-75651204D01*
X120254569Y-75566424D01*
X120190955Y-75487898D01*
X120133588Y-75417326D01*
X120083833Y-75356409D01*
X120043052Y-75306847D01*
X120025888Y-75286178D01*
X119939596Y-75185516D01*
X119862997Y-75102259D01*
X119794183Y-75034438D01*
X119731248Y-74980089D01*
X119721867Y-74972722D01*
X119682356Y-74942117D01*
X120814116Y-74941867D01*
X120808827Y-74989844D01*
X120812130Y-75047188D01*
X120833661Y-75115463D01*
X120873635Y-75195212D01*
X120918943Y-75267495D01*
X120935161Y-75290140D01*
X120963214Y-75327696D01*
X121001430Y-75378021D01*
X121048137Y-75438973D01*
X121101661Y-75508411D01*
X121160331Y-75584194D01*
X121222475Y-75664180D01*
X121286421Y-75746228D01*
X121350495Y-75828196D01*
X121413027Y-75907943D01*
X121472343Y-75983327D01*
X121526771Y-76052207D01*
X121574639Y-76112442D01*
X121614275Y-76161889D01*
X121644006Y-76198408D01*
X121662161Y-76219858D01*
X121665220Y-76223156D01*
X121668079Y-76215149D01*
X121670293Y-76184855D01*
X121671857Y-76132556D01*
X121672767Y-76058531D01*
X121673020Y-75963063D01*
X121672613Y-75846434D01*
X121671704Y-75726445D01*
X121670382Y-75594333D01*
X121668857Y-75482594D01*
X121666881Y-75389025D01*
X121664206Y-75311419D01*
X121660582Y-75247574D01*
X121655761Y-75195283D01*
X121649494Y-75152344D01*
X121641532Y-75116551D01*
X121631627Y-75085700D01*
X121619531Y-75057586D01*
X121604993Y-75030005D01*
X121590311Y-75004966D01*
X121552314Y-74941867D01*
X122612197Y-74941867D01*
X122915034Y-74941867D01*
X122915001Y-74935617D01*
X122914195Y-74833544D01*
X122913170Y-74744633D01*
X122911900Y-74667941D01*
X122910360Y-74602527D01*
X122908524Y-74547449D01*
X122906367Y-74501765D01*
X122903863Y-74464534D01*
X122900987Y-74434813D01*
X122897713Y-74411662D01*
X122894015Y-74394139D01*
X122889869Y-74381301D01*
X122885247Y-74372208D01*
X122880126Y-74365918D01*
X122874478Y-74361488D01*
X122868279Y-74357978D01*
X122861504Y-74354445D01*
X122855508Y-74350876D01*
X122850275Y-74348300D01*
X122842099Y-74345972D01*
X122829886Y-74343878D01*
X122812541Y-74342007D01*
X122788969Y-74340347D01*
X122758077Y-74338884D01*
X122718768Y-74337608D01*
X122669950Y-74336504D01*
X122610527Y-74335561D01*
X122539404Y-74334767D01*
X122455488Y-74334109D01*
X122357683Y-74333575D01*
X122244894Y-74333153D01*
X122116029Y-74332829D01*
X121969991Y-74332592D01*
X121805686Y-74332430D01*
X121622020Y-74332330D01*
X121417897Y-74332280D01*
X121206753Y-74332267D01*
X119586400Y-74332267D01*
X119586400Y-74429054D01*
G36*
X116311571Y-74889071D02*
G01*
X116151430Y-74910245D01*
X115987490Y-74950385D01*
X115817687Y-75009889D01*
X115639957Y-75089154D01*
X115628690Y-75094699D01*
X115570995Y-75122725D01*
X115519448Y-75146802D01*
X115477809Y-75165249D01*
X115449838Y-75176386D01*
X115440267Y-75178933D01*
X115421050Y-75183941D01*
X115416439Y-75188147D01*
X115421542Y-75198580D01*
X115437582Y-75224868D01*
X115462712Y-75264257D01*
X115495086Y-75313991D01*
X115532857Y-75371315D01*
X115574178Y-75433476D01*
X115617202Y-75497718D01*
X115660083Y-75561285D01*
X115700974Y-75621425D01*
X115738029Y-75675380D01*
X115769400Y-75720397D01*
X115793241Y-75753721D01*
X115807706Y-75772597D01*
X115809691Y-75774787D01*
X115819809Y-75770138D01*
X115842150Y-75752962D01*
X115872720Y-75726440D01*
X115888464Y-75711964D01*
X115984953Y-75636682D01*
X116091664Y-75581241D01*
X116207168Y-75546141D01*
X116330038Y-75531880D01*
X116399439Y-75533051D01*
X116520577Y-75550212D01*
X116629795Y-75586094D01*
X116727418Y-75640959D01*
X116813772Y-75715070D01*
X116889185Y-75808688D01*
X116953982Y-75922076D01*
X116991399Y-76008667D01*
X117035252Y-76144366D01*
X117067572Y-76291850D01*
X117088443Y-76447314D01*
X117097949Y-76606956D01*
X117096173Y-76766973D01*
X117083197Y-76923561D01*
X117059106Y-77072918D01*
X117023982Y-77211240D01*
X116977908Y-77334724D01*
X116961627Y-77368978D01*
X116893380Y-77483064D01*
X116812921Y-77579557D01*
X116721430Y-77657670D01*
X116620089Y-77716617D01*
X116510080Y-77755612D01*
X116392585Y-77773868D01*
X116351117Y-77775211D01*
X116229559Y-77764290D01*
X116109122Y-77731474D01*
X115991334Y-77677439D01*
X115877723Y-77602865D01*
X115786315Y-77524539D01*
X115739785Y-77480008D01*
X115558517Y-77777271D01*
X115513420Y-77851433D01*
X115472181Y-77919646D01*
X115436265Y-77979459D01*
X115407134Y-78028420D01*
X115386250Y-78064079D01*
X115375076Y-78083984D01*
X115373625Y-78087079D01*
X115381854Y-78096718D01*
X115407433Y-78113999D01*
X115447127Y-78137283D01*
X115497703Y-78164934D01*
X115555926Y-78195315D01*
X115618563Y-78226790D01*
X115682379Y-78257722D01*
X115744140Y-78286473D01*
X115800612Y-78311408D01*
X115848562Y-78330889D01*
X115872014Y-78339318D01*
X116005779Y-78377133D01*
X116143673Y-78402136D01*
X116291378Y-78415140D01*
X116418167Y-78417468D01*
X116486122Y-78416373D01*
X116551723Y-78414275D01*
X116609153Y-78411434D01*
X116652597Y-78408106D01*
X116666702Y-78406422D01*
X116805716Y-78377587D01*
X116947243Y-78332468D01*
X117084725Y-78273750D01*
X117211606Y-78204120D01*
X117289111Y-78151441D01*
X117416519Y-78043239D01*
X117534822Y-77916671D01*
X117641828Y-77774866D01*
X117735348Y-77620951D01*
X117813190Y-77458053D01*
X117857044Y-77340756D01*
X117907292Y-77157128D01*
X117940791Y-76962581D01*
X117957551Y-76761325D01*
X117957584Y-76557568D01*
X117940899Y-76355521D01*
X117907507Y-76159392D01*
X117857420Y-75973391D01*
X117853603Y-75961803D01*
X117790719Y-75799750D01*
X117713972Y-75651832D01*
X117620758Y-75513865D01*
X117508473Y-75381661D01*
X117464608Y-75336399D01*
X117328466Y-75212457D01*
X117188509Y-75109915D01*
X117042589Y-75027656D01*
X116888558Y-74964564D01*
X116724268Y-74919523D01*
X116628711Y-74902033D01*
X116469977Y-74886466D01*
X116311571Y-74889071D01*
G37*
X116311571Y-74889071D02*
X116151430Y-74910245D01*
X115987490Y-74950385D01*
X115817687Y-75009889D01*
X115639957Y-75089154D01*
X115628690Y-75094699D01*
X115570995Y-75122725D01*
X115519448Y-75146802D01*
X115477809Y-75165249D01*
X115449838Y-75176386D01*
X115440267Y-75178933D01*
X115421050Y-75183941D01*
X115416439Y-75188147D01*
X115421542Y-75198580D01*
X115437582Y-75224868D01*
X115462712Y-75264257D01*
X115495086Y-75313991D01*
X115532857Y-75371315D01*
X115574178Y-75433476D01*
X115617202Y-75497718D01*
X115660083Y-75561285D01*
X115700974Y-75621425D01*
X115738029Y-75675380D01*
X115769400Y-75720397D01*
X115793241Y-75753721D01*
X115807706Y-75772597D01*
X115809691Y-75774787D01*
X115819809Y-75770138D01*
X115842150Y-75752962D01*
X115872720Y-75726440D01*
X115888464Y-75711964D01*
X115984953Y-75636682D01*
X116091664Y-75581241D01*
X116207168Y-75546141D01*
X116330038Y-75531880D01*
X116399439Y-75533051D01*
X116520577Y-75550212D01*
X116629795Y-75586094D01*
X116727418Y-75640959D01*
X116813772Y-75715070D01*
X116889185Y-75808688D01*
X116953982Y-75922076D01*
X116991399Y-76008667D01*
X117035252Y-76144366D01*
X117067572Y-76291850D01*
X117088443Y-76447314D01*
X117097949Y-76606956D01*
X117096173Y-76766973D01*
X117083197Y-76923561D01*
X117059106Y-77072918D01*
X117023982Y-77211240D01*
X116977908Y-77334724D01*
X116961627Y-77368978D01*
X116893380Y-77483064D01*
X116812921Y-77579557D01*
X116721430Y-77657670D01*
X116620089Y-77716617D01*
X116510080Y-77755612D01*
X116392585Y-77773868D01*
X116351117Y-77775211D01*
X116229559Y-77764290D01*
X116109122Y-77731474D01*
X115991334Y-77677439D01*
X115877723Y-77602865D01*
X115786315Y-77524539D01*
X115739785Y-77480008D01*
X115558517Y-77777271D01*
X115513420Y-77851433D01*
X115472181Y-77919646D01*
X115436265Y-77979459D01*
X115407134Y-78028420D01*
X115386250Y-78064079D01*
X115375076Y-78083984D01*
X115373625Y-78087079D01*
X115381854Y-78096718D01*
X115407433Y-78113999D01*
X115447127Y-78137283D01*
X115497703Y-78164934D01*
X115555926Y-78195315D01*
X115618563Y-78226790D01*
X115682379Y-78257722D01*
X115744140Y-78286473D01*
X115800612Y-78311408D01*
X115848562Y-78330889D01*
X115872014Y-78339318D01*
X116005779Y-78377133D01*
X116143673Y-78402136D01*
X116291378Y-78415140D01*
X116418167Y-78417468D01*
X116486122Y-78416373D01*
X116551723Y-78414275D01*
X116609153Y-78411434D01*
X116652597Y-78408106D01*
X116666702Y-78406422D01*
X116805716Y-78377587D01*
X116947243Y-78332468D01*
X117084725Y-78273750D01*
X117211606Y-78204120D01*
X117289111Y-78151441D01*
X117416519Y-78043239D01*
X117534822Y-77916671D01*
X117641828Y-77774866D01*
X117735348Y-77620951D01*
X117813190Y-77458053D01*
X117857044Y-77340756D01*
X117907292Y-77157128D01*
X117940791Y-76962581D01*
X117957551Y-76761325D01*
X117957584Y-76557568D01*
X117940899Y-76355521D01*
X117907507Y-76159392D01*
X117857420Y-75973391D01*
X117853603Y-75961803D01*
X117790719Y-75799750D01*
X117713972Y-75651832D01*
X117620758Y-75513865D01*
X117508473Y-75381661D01*
X117464608Y-75336399D01*
X117328466Y-75212457D01*
X117188509Y-75109915D01*
X117042589Y-75027656D01*
X116888558Y-74964564D01*
X116724268Y-74919523D01*
X116628711Y-74902033D01*
X116469977Y-74886466D01*
X116311571Y-74889071D01*
G36*
X113966426Y-75806552D02*
G01*
X113814508Y-75826567D01*
X113679244Y-75860202D01*
X113559761Y-75907725D01*
X113455185Y-75969405D01*
X113377576Y-76032965D01*
X113308735Y-76107099D01*
X113254994Y-76186871D01*
X113212090Y-76279091D01*
X113196616Y-76322161D01*
X113183756Y-76361142D01*
X113172554Y-76397289D01*
X113162880Y-76432434D01*
X113154604Y-76468410D01*
X113147597Y-76507050D01*
X113141728Y-76550185D01*
X113136869Y-76599649D01*
X113132890Y-76657273D01*
X113129660Y-76724891D01*
X113127051Y-76804334D01*
X113124933Y-76897436D01*
X113123176Y-77006027D01*
X113121651Y-77131942D01*
X113120228Y-77277012D01*
X113118975Y-77419778D01*
X113117649Y-77575968D01*
X113116444Y-77711239D01*
X113115234Y-77827246D01*
X113113894Y-77925645D01*
X113112300Y-78008093D01*
X113110325Y-78076246D01*
X113107844Y-78131760D01*
X113104731Y-78176292D01*
X113100862Y-78211498D01*
X113096111Y-78239034D01*
X113090352Y-78260556D01*
X113083461Y-78277722D01*
X113075311Y-78292186D01*
X113065777Y-78305606D01*
X113054734Y-78319638D01*
X113050434Y-78325071D01*
X113034614Y-78347910D01*
X113027578Y-78363463D01*
X113027556Y-78363922D01*
X113038433Y-78366121D01*
X113069418Y-78368147D01*
X113118043Y-78369942D01*
X113181837Y-78371451D01*
X113258331Y-78372616D01*
X113345056Y-78373380D01*
X113439543Y-78373686D01*
X113450450Y-78373689D01*
X113873343Y-78373689D01*
X113876605Y-78277622D01*
X113879867Y-78181556D01*
X113941956Y-78232543D01*
X114039286Y-78300057D01*
X114149187Y-78354749D01*
X114235651Y-78384978D01*
X114304722Y-78399666D01*
X114388075Y-78409659D01*
X114477841Y-78414646D01*
X114566155Y-78414313D01*
X114645149Y-78408351D01*
X114681378Y-78402638D01*
X114821397Y-78364776D01*
X114947822Y-78309932D01*
X115059740Y-78238924D01*
X115156238Y-78152568D01*
X115236400Y-78051679D01*
X115299313Y-77937076D01*
X115343688Y-77810984D01*
X115356022Y-77754401D01*
X115363632Y-77692202D01*
X115367261Y-77617363D01*
X115367755Y-77583467D01*
X115367690Y-77580282D01*
X114607752Y-77580282D01*
X114598459Y-77655333D01*
X114570272Y-77719160D01*
X114521803Y-77774798D01*
X114516746Y-77779211D01*
X114468452Y-77814037D01*
X114416743Y-77836620D01*
X114356011Y-77848540D01*
X114280648Y-77851383D01*
X114262541Y-77850978D01*
X114208722Y-77848325D01*
X114168692Y-77842909D01*
X114133676Y-77832745D01*
X114094897Y-77815850D01*
X114084255Y-77810672D01*
X114023604Y-77774844D01*
X113976785Y-77732212D01*
X113964048Y-77716973D01*
X113919378Y-77660462D01*
X113919378Y-77464586D01*
X113919914Y-77385939D01*
X113921604Y-77327988D01*
X113924572Y-77288875D01*
X113928943Y-77266741D01*
X113933028Y-77260274D01*
X113948953Y-77257111D01*
X113982736Y-77254488D01*
X114029660Y-77252655D01*
X114085007Y-77251857D01*
X114093894Y-77251842D01*
X114214670Y-77257096D01*
X114317340Y-77273263D01*
X114403894Y-77300961D01*
X114476319Y-77340808D01*
X114531249Y-77387758D01*
X114575796Y-77445645D01*
X114600520Y-77508693D01*
X114607752Y-77580282D01*
X115367690Y-77580282D01*
X115365822Y-77489712D01*
X115357478Y-77410812D01*
X115341232Y-77339590D01*
X115315595Y-77268864D01*
X115291599Y-77216493D01*
X115232980Y-77121196D01*
X115154883Y-77033170D01*
X115059685Y-76954017D01*
X114949762Y-76885340D01*
X114827490Y-76828741D01*
X114695245Y-76785821D01*
X114630578Y-76770882D01*
X114494396Y-76748777D01*
X114345951Y-76734194D01*
X114194495Y-76727813D01*
X114067936Y-76729445D01*
X113906050Y-76736224D01*
X113913470Y-76677245D01*
X113932762Y-76578092D01*
X113963896Y-76497372D01*
X114007731Y-76434466D01*
X114065129Y-76388756D01*
X114136952Y-76359622D01*
X114224059Y-76346447D01*
X114327314Y-76348611D01*
X114365289Y-76352612D01*
X114506480Y-76377780D01*
X114643293Y-76418814D01*
X114737822Y-76456815D01*
X114782982Y-76476190D01*
X114821415Y-76491760D01*
X114847766Y-76501405D01*
X114855454Y-76503452D01*
X114865198Y-76494374D01*
X114881917Y-76465405D01*
X114905768Y-76416217D01*
X114936907Y-76346484D01*
X114975493Y-76255879D01*
X114982090Y-76240089D01*
X115012147Y-76167772D01*
X115039126Y-76102425D01*
X115061864Y-76046906D01*
X115079194Y-76004072D01*
X115089952Y-75976781D01*
X115093059Y-75967942D01*
X115083060Y-75963187D01*
X115056783Y-75957910D01*
X115028511Y-75954231D01*
X114998354Y-75949474D01*
X114950567Y-75940028D01*
X114889388Y-75926820D01*
X114819054Y-75910776D01*
X114743806Y-75892820D01*
X114715245Y-75885797D01*
X114610184Y-75860209D01*
X114522520Y-75840147D01*
X114447932Y-75824969D01*
X114382097Y-75814035D01*
X114320693Y-75806704D01*
X114259398Y-75802335D01*
X114193890Y-75800287D01*
X114135872Y-75799889D01*
X113966426Y-75806552D01*
G37*
X113966426Y-75806552D02*
X113814508Y-75826567D01*
X113679244Y-75860202D01*
X113559761Y-75907725D01*
X113455185Y-75969405D01*
X113377576Y-76032965D01*
X113308735Y-76107099D01*
X113254994Y-76186871D01*
X113212090Y-76279091D01*
X113196616Y-76322161D01*
X113183756Y-76361142D01*
X113172554Y-76397289D01*
X113162880Y-76432434D01*
X113154604Y-76468410D01*
X113147597Y-76507050D01*
X113141728Y-76550185D01*
X113136869Y-76599649D01*
X113132890Y-76657273D01*
X113129660Y-76724891D01*
X113127051Y-76804334D01*
X113124933Y-76897436D01*
X113123176Y-77006027D01*
X113121651Y-77131942D01*
X113120228Y-77277012D01*
X113118975Y-77419778D01*
X113117649Y-77575968D01*
X113116444Y-77711239D01*
X113115234Y-77827246D01*
X113113894Y-77925645D01*
X113112300Y-78008093D01*
X113110325Y-78076246D01*
X113107844Y-78131760D01*
X113104731Y-78176292D01*
X113100862Y-78211498D01*
X113096111Y-78239034D01*
X113090352Y-78260556D01*
X113083461Y-78277722D01*
X113075311Y-78292186D01*
X113065777Y-78305606D01*
X113054734Y-78319638D01*
X113050434Y-78325071D01*
X113034614Y-78347910D01*
X113027578Y-78363463D01*
X113027556Y-78363922D01*
X113038433Y-78366121D01*
X113069418Y-78368147D01*
X113118043Y-78369942D01*
X113181837Y-78371451D01*
X113258331Y-78372616D01*
X113345056Y-78373380D01*
X113439543Y-78373686D01*
X113450450Y-78373689D01*
X113873343Y-78373689D01*
X113876605Y-78277622D01*
X113879867Y-78181556D01*
X113941956Y-78232543D01*
X114039286Y-78300057D01*
X114149187Y-78354749D01*
X114235651Y-78384978D01*
X114304722Y-78399666D01*
X114388075Y-78409659D01*
X114477841Y-78414646D01*
X114566155Y-78414313D01*
X114645149Y-78408351D01*
X114681378Y-78402638D01*
X114821397Y-78364776D01*
X114947822Y-78309932D01*
X115059740Y-78238924D01*
X115156238Y-78152568D01*
X115236400Y-78051679D01*
X115299313Y-77937076D01*
X115343688Y-77810984D01*
X115356022Y-77754401D01*
X115363632Y-77692202D01*
X115367261Y-77617363D01*
X115367755Y-77583467D01*
X115367690Y-77580282D01*
X114607752Y-77580282D01*
X114598459Y-77655333D01*
X114570272Y-77719160D01*
X114521803Y-77774798D01*
X114516746Y-77779211D01*
X114468452Y-77814037D01*
X114416743Y-77836620D01*
X114356011Y-77848540D01*
X114280648Y-77851383D01*
X114262541Y-77850978D01*
X114208722Y-77848325D01*
X114168692Y-77842909D01*
X114133676Y-77832745D01*
X114094897Y-77815850D01*
X114084255Y-77810672D01*
X114023604Y-77774844D01*
X113976785Y-77732212D01*
X113964048Y-77716973D01*
X113919378Y-77660462D01*
X113919378Y-77464586D01*
X113919914Y-77385939D01*
X113921604Y-77327988D01*
X113924572Y-77288875D01*
X113928943Y-77266741D01*
X113933028Y-77260274D01*
X113948953Y-77257111D01*
X113982736Y-77254488D01*
X114029660Y-77252655D01*
X114085007Y-77251857D01*
X114093894Y-77251842D01*
X114214670Y-77257096D01*
X114317340Y-77273263D01*
X114403894Y-77300961D01*
X114476319Y-77340808D01*
X114531249Y-77387758D01*
X114575796Y-77445645D01*
X114600520Y-77508693D01*
X114607752Y-77580282D01*
X115367690Y-77580282D01*
X115365822Y-77489712D01*
X115357478Y-77410812D01*
X115341232Y-77339590D01*
X115315595Y-77268864D01*
X115291599Y-77216493D01*
X115232980Y-77121196D01*
X115154883Y-77033170D01*
X115059685Y-76954017D01*
X114949762Y-76885340D01*
X114827490Y-76828741D01*
X114695245Y-76785821D01*
X114630578Y-76770882D01*
X114494396Y-76748777D01*
X114345951Y-76734194D01*
X114194495Y-76727813D01*
X114067936Y-76729445D01*
X113906050Y-76736224D01*
X113913470Y-76677245D01*
X113932762Y-76578092D01*
X113963896Y-76497372D01*
X114007731Y-76434466D01*
X114065129Y-76388756D01*
X114136952Y-76359622D01*
X114224059Y-76346447D01*
X114327314Y-76348611D01*
X114365289Y-76352612D01*
X114506480Y-76377780D01*
X114643293Y-76418814D01*
X114737822Y-76456815D01*
X114782982Y-76476190D01*
X114821415Y-76491760D01*
X114847766Y-76501405D01*
X114855454Y-76503452D01*
X114865198Y-76494374D01*
X114881917Y-76465405D01*
X114905768Y-76416217D01*
X114936907Y-76346484D01*
X114975493Y-76255879D01*
X114982090Y-76240089D01*
X115012147Y-76167772D01*
X115039126Y-76102425D01*
X115061864Y-76046906D01*
X115079194Y-76004072D01*
X115089952Y-75976781D01*
X115093059Y-75967942D01*
X115083060Y-75963187D01*
X115056783Y-75957910D01*
X115028511Y-75954231D01*
X114998354Y-75949474D01*
X114950567Y-75940028D01*
X114889388Y-75926820D01*
X114819054Y-75910776D01*
X114743806Y-75892820D01*
X114715245Y-75885797D01*
X114610184Y-75860209D01*
X114522520Y-75840147D01*
X114447932Y-75824969D01*
X114382097Y-75814035D01*
X114320693Y-75806704D01*
X114259398Y-75802335D01*
X114193890Y-75800287D01*
X114135872Y-75799889D01*
X113966426Y-75806552D01*
G36*
X110453493Y-76412245D02*
G01*
X110453474Y-76646662D01*
X110453448Y-76859603D01*
X110453375Y-77052168D01*
X110453218Y-77225459D01*
X110452936Y-77380576D01*
X110452491Y-77518620D01*
X110451844Y-77640692D01*
X110450955Y-77747894D01*
X110449787Y-77841326D01*
X110448299Y-77922090D01*
X110446454Y-77991286D01*
X110444211Y-78050015D01*
X110441531Y-78099379D01*
X110438377Y-78140478D01*
X110434708Y-78174413D01*
X110430487Y-78202286D01*
X110425673Y-78225198D01*
X110420227Y-78244249D01*
X110414112Y-78260540D01*
X110407288Y-78275173D01*
X110399715Y-78289249D01*
X110391355Y-78303868D01*
X110386161Y-78312974D01*
X110351896Y-78373689D01*
X111210045Y-78373689D01*
X111210045Y-78277733D01*
X111210776Y-78234370D01*
X111212728Y-78201205D01*
X111215537Y-78183424D01*
X111216779Y-78181778D01*
X111228201Y-78188662D01*
X111250916Y-78206505D01*
X111273615Y-78225879D01*
X111328200Y-78266614D01*
X111397679Y-78307617D01*
X111474730Y-78345123D01*
X111552035Y-78375364D01*
X111582887Y-78385012D01*
X111651384Y-78399578D01*
X111734236Y-78409539D01*
X111823629Y-78414583D01*
X111911752Y-78414396D01*
X111990793Y-78408666D01*
X112028489Y-78402858D01*
X112166586Y-78364797D01*
X112293887Y-78307073D01*
X112409708Y-78230211D01*
X112513363Y-78134739D01*
X112604167Y-78021179D01*
X112670969Y-77910381D01*
X112725836Y-77793625D01*
X112767837Y-77674276D01*
X112797833Y-77548283D01*
X112816689Y-77411594D01*
X112825268Y-77260158D01*
X112825994Y-77182711D01*
X112823900Y-77125934D01*
X111994783Y-77125934D01*
X111994576Y-77219002D01*
X111991663Y-77306692D01*
X111986000Y-77383772D01*
X111977545Y-77445009D01*
X111974962Y-77457350D01*
X111943160Y-77564633D01*
X111901502Y-77651658D01*
X111849637Y-77718642D01*
X111787219Y-77765805D01*
X111713900Y-77793365D01*
X111629331Y-77801541D01*
X111533165Y-77790551D01*
X111469689Y-77774829D01*
X111420546Y-77756639D01*
X111366417Y-77730791D01*
X111325756Y-77707089D01*
X111255200Y-77660721D01*
X111255200Y-76510530D01*
X111322608Y-76466962D01*
X111401133Y-76426040D01*
X111485319Y-76399389D01*
X111570443Y-76387465D01*
X111651784Y-76390722D01*
X111724620Y-76409615D01*
X111756574Y-76425184D01*
X111814499Y-76468181D01*
X111863456Y-76524953D01*
X111904610Y-76597575D01*
X111939126Y-76688121D01*
X111968167Y-76798666D01*
X111969448Y-76804533D01*
X111979619Y-76866788D01*
X111987261Y-76944594D01*
X111992330Y-77032720D01*
X111994783Y-77125934D01*
X112823900Y-77125934D01*
X112818143Y-76969895D01*
X112796198Y-76774059D01*
X112760214Y-76595332D01*
X112710241Y-76433845D01*
X112646332Y-76289726D01*
X112568538Y-76163106D01*
X112476911Y-76054115D01*
X112371503Y-75962883D01*
X112326338Y-75931932D01*
X112225389Y-75875785D01*
X112122099Y-75836174D01*
X112012011Y-75812014D01*
X111890670Y-75802219D01*
X111798164Y-75803265D01*
X111668510Y-75814231D01*
X111555916Y-75836046D01*
X111457125Y-75869714D01*
X111368879Y-75916236D01*
X111320014Y-75950448D01*
X111290647Y-75972362D01*
X111268957Y-75987333D01*
X111260747Y-75991733D01*
X111259132Y-75980904D01*
X111257841Y-75950251D01*
X111256862Y-75902526D01*
X111256183Y-75840479D01*
X111255790Y-75766862D01*
X111255670Y-75684427D01*
X111255812Y-75595925D01*
X111256203Y-75504107D01*
X111256829Y-75411724D01*
X111257680Y-75321528D01*
X111258740Y-75236271D01*
X111259999Y-75158703D01*
X111261444Y-75091576D01*
X111263062Y-75037641D01*
X111264839Y-74999650D01*
X111265331Y-74992667D01*
X111272908Y-74922251D01*
X111284469Y-74867102D01*
X111302208Y-74819981D01*
X111328318Y-74773647D01*
X111334585Y-74764067D01*
X111359017Y-74727378D01*
X110453689Y-74727378D01*
X110453493Y-76412245D01*
G37*
X110453493Y-76412245D02*
X110453474Y-76646662D01*
X110453448Y-76859603D01*
X110453375Y-77052168D01*
X110453218Y-77225459D01*
X110452936Y-77380576D01*
X110452491Y-77518620D01*
X110451844Y-77640692D01*
X110450955Y-77747894D01*
X110449787Y-77841326D01*
X110448299Y-77922090D01*
X110446454Y-77991286D01*
X110444211Y-78050015D01*
X110441531Y-78099379D01*
X110438377Y-78140478D01*
X110434708Y-78174413D01*
X110430487Y-78202286D01*
X110425673Y-78225198D01*
X110420227Y-78244249D01*
X110414112Y-78260540D01*
X110407288Y-78275173D01*
X110399715Y-78289249D01*
X110391355Y-78303868D01*
X110386161Y-78312974D01*
X110351896Y-78373689D01*
X111210045Y-78373689D01*
X111210045Y-78277733D01*
X111210776Y-78234370D01*
X111212728Y-78201205D01*
X111215537Y-78183424D01*
X111216779Y-78181778D01*
X111228201Y-78188662D01*
X111250916Y-78206505D01*
X111273615Y-78225879D01*
X111328200Y-78266614D01*
X111397679Y-78307617D01*
X111474730Y-78345123D01*
X111552035Y-78375364D01*
X111582887Y-78385012D01*
X111651384Y-78399578D01*
X111734236Y-78409539D01*
X111823629Y-78414583D01*
X111911752Y-78414396D01*
X111990793Y-78408666D01*
X112028489Y-78402858D01*
X112166586Y-78364797D01*
X112293887Y-78307073D01*
X112409708Y-78230211D01*
X112513363Y-78134739D01*
X112604167Y-78021179D01*
X112670969Y-77910381D01*
X112725836Y-77793625D01*
X112767837Y-77674276D01*
X112797833Y-77548283D01*
X112816689Y-77411594D01*
X112825268Y-77260158D01*
X112825994Y-77182711D01*
X112823900Y-77125934D01*
X111994783Y-77125934D01*
X111994576Y-77219002D01*
X111991663Y-77306692D01*
X111986000Y-77383772D01*
X111977545Y-77445009D01*
X111974962Y-77457350D01*
X111943160Y-77564633D01*
X111901502Y-77651658D01*
X111849637Y-77718642D01*
X111787219Y-77765805D01*
X111713900Y-77793365D01*
X111629331Y-77801541D01*
X111533165Y-77790551D01*
X111469689Y-77774829D01*
X111420546Y-77756639D01*
X111366417Y-77730791D01*
X111325756Y-77707089D01*
X111255200Y-77660721D01*
X111255200Y-76510530D01*
X111322608Y-76466962D01*
X111401133Y-76426040D01*
X111485319Y-76399389D01*
X111570443Y-76387465D01*
X111651784Y-76390722D01*
X111724620Y-76409615D01*
X111756574Y-76425184D01*
X111814499Y-76468181D01*
X111863456Y-76524953D01*
X111904610Y-76597575D01*
X111939126Y-76688121D01*
X111968167Y-76798666D01*
X111969448Y-76804533D01*
X111979619Y-76866788D01*
X111987261Y-76944594D01*
X111992330Y-77032720D01*
X111994783Y-77125934D01*
X112823900Y-77125934D01*
X112818143Y-76969895D01*
X112796198Y-76774059D01*
X112760214Y-76595332D01*
X112710241Y-76433845D01*
X112646332Y-76289726D01*
X112568538Y-76163106D01*
X112476911Y-76054115D01*
X112371503Y-75962883D01*
X112326338Y-75931932D01*
X112225389Y-75875785D01*
X112122099Y-75836174D01*
X112012011Y-75812014D01*
X111890670Y-75802219D01*
X111798164Y-75803265D01*
X111668510Y-75814231D01*
X111555916Y-75836046D01*
X111457125Y-75869714D01*
X111368879Y-75916236D01*
X111320014Y-75950448D01*
X111290647Y-75972362D01*
X111268957Y-75987333D01*
X111260747Y-75991733D01*
X111259132Y-75980904D01*
X111257841Y-75950251D01*
X111256862Y-75902526D01*
X111256183Y-75840479D01*
X111255790Y-75766862D01*
X111255670Y-75684427D01*
X111255812Y-75595925D01*
X111256203Y-75504107D01*
X111256829Y-75411724D01*
X111257680Y-75321528D01*
X111258740Y-75236271D01*
X111259999Y-75158703D01*
X111261444Y-75091576D01*
X111263062Y-75037641D01*
X111264839Y-74999650D01*
X111265331Y-74992667D01*
X111272908Y-74922251D01*
X111284469Y-74867102D01*
X111302208Y-74819981D01*
X111328318Y-74773647D01*
X111334585Y-74764067D01*
X111359017Y-74727378D01*
X110453689Y-74727378D01*
X110453493Y-76412245D01*
G36*
X118913043Y-73966571D02*
G01*
X118816768Y-73990809D01*
X118730184Y-74033641D01*
X118655373Y-74093419D01*
X118594418Y-74168494D01*
X118549399Y-74257220D01*
X118523136Y-74353530D01*
X118517286Y-74450795D01*
X118532140Y-74544654D01*
X118565840Y-74632511D01*
X118616528Y-74711770D01*
X118682345Y-74779836D01*
X118761434Y-74834112D01*
X118851934Y-74872002D01*
X118903200Y-74884426D01*
X118947698Y-74891947D01*
X118981999Y-74894919D01*
X119014960Y-74893094D01*
X119055434Y-74886225D01*
X119088531Y-74879250D01*
X119181947Y-74847741D01*
X119265619Y-74796617D01*
X119337665Y-74727429D01*
X119396200Y-74641728D01*
X119410148Y-74614489D01*
X119426586Y-74578122D01*
X119436894Y-74547582D01*
X119442460Y-74515450D01*
X119444669Y-74474307D01*
X119444948Y-74428222D01*
X119440861Y-74343865D01*
X119427446Y-74274586D01*
X119402256Y-74213961D01*
X119362846Y-74155567D01*
X119324298Y-74111302D01*
X119252406Y-74045484D01*
X119177313Y-74000053D01*
X119094562Y-73972850D01*
X119016928Y-73962576D01*
X118913043Y-73966571D01*
G37*
X118913043Y-73966571D02*
X118816768Y-73990809D01*
X118730184Y-74033641D01*
X118655373Y-74093419D01*
X118594418Y-74168494D01*
X118549399Y-74257220D01*
X118523136Y-74353530D01*
X118517286Y-74450795D01*
X118532140Y-74544654D01*
X118565840Y-74632511D01*
X118616528Y-74711770D01*
X118682345Y-74779836D01*
X118761434Y-74834112D01*
X118851934Y-74872002D01*
X118903200Y-74884426D01*
X118947698Y-74891947D01*
X118981999Y-74894919D01*
X119014960Y-74893094D01*
X119055434Y-74886225D01*
X119088531Y-74879250D01*
X119181947Y-74847741D01*
X119265619Y-74796617D01*
X119337665Y-74727429D01*
X119396200Y-74641728D01*
X119410148Y-74614489D01*
X119426586Y-74578122D01*
X119436894Y-74547582D01*
X119442460Y-74515450D01*
X119444669Y-74474307D01*
X119444948Y-74428222D01*
X119440861Y-74343865D01*
X119427446Y-74274586D01*
X119402256Y-74213961D01*
X119362846Y-74155567D01*
X119324298Y-74111302D01*
X119252406Y-74045484D01*
X119177313Y-74000053D01*
X119094562Y-73972850D01*
X119016928Y-73962576D01*
X118913043Y-73966571D01*
G36*
X122761371Y-79209066D02*
G01*
X122721889Y-79209467D01*
X122606200Y-79212259D01*
X122509311Y-79220550D01*
X122427919Y-79235232D01*
X122358723Y-79257193D01*
X122298420Y-79287322D01*
X122243708Y-79326510D01*
X122224167Y-79343532D01*
X122191750Y-79383363D01*
X122162520Y-79437413D01*
X122139991Y-79497323D01*
X122127679Y-79554739D01*
X122126400Y-79575956D01*
X122134417Y-79634769D01*
X122155899Y-79699013D01*
X122186999Y-79759821D01*
X122223866Y-79808330D01*
X122229854Y-79814182D01*
X122280579Y-79855321D01*
X122336125Y-79887435D01*
X122399696Y-79911365D01*
X122474494Y-79927953D01*
X122563722Y-79938041D01*
X122670582Y-79942469D01*
X122719528Y-79942845D01*
X122781762Y-79942545D01*
X122825528Y-79941292D01*
X122854931Y-79938554D01*
X122874079Y-79933801D01*
X122887077Y-79926501D01*
X122894045Y-79920267D01*
X122900626Y-79912694D01*
X122905788Y-79902924D01*
X122909703Y-79888340D01*
X122912543Y-79866326D01*
X122914480Y-79834264D01*
X122915684Y-79789536D01*
X122916328Y-79729526D01*
X122916583Y-79651617D01*
X122916622Y-79575956D01*
X122916870Y-79475041D01*
X122916817Y-79394427D01*
X122915857Y-79355822D01*
X122769867Y-79355822D01*
X122769867Y-79796089D01*
X122676734Y-79796004D01*
X122620693Y-79794396D01*
X122561999Y-79790256D01*
X122513028Y-79784464D01*
X122511538Y-79784226D01*
X122432392Y-79765090D01*
X122371002Y-79735287D01*
X122324305Y-79692878D01*
X122294635Y-79646961D01*
X122276353Y-79596026D01*
X122277771Y-79548200D01*
X122298988Y-79496933D01*
X122340489Y-79443899D01*
X122397998Y-79404600D01*
X122472750Y-79378331D01*
X122522708Y-79369035D01*
X122579416Y-79362507D01*
X122639519Y-79357782D01*
X122690639Y-79355817D01*
X122693667Y-79355808D01*
X122769867Y-79355822D01*
X122915857Y-79355822D01*
X122915260Y-79331851D01*
X122910998Y-79285055D01*
X122902830Y-79251778D01*
X122889556Y-79229759D01*
X122869974Y-79216739D01*
X122842883Y-79210457D01*
X122807082Y-79208653D01*
X122761371Y-79209066D01*
G37*
X122761371Y-79209066D02*
X122721889Y-79209467D01*
X122606200Y-79212259D01*
X122509311Y-79220550D01*
X122427919Y-79235232D01*
X122358723Y-79257193D01*
X122298420Y-79287322D01*
X122243708Y-79326510D01*
X122224167Y-79343532D01*
X122191750Y-79383363D01*
X122162520Y-79437413D01*
X122139991Y-79497323D01*
X122127679Y-79554739D01*
X122126400Y-79575956D01*
X122134417Y-79634769D01*
X122155899Y-79699013D01*
X122186999Y-79759821D01*
X122223866Y-79808330D01*
X122229854Y-79814182D01*
X122280579Y-79855321D01*
X122336125Y-79887435D01*
X122399696Y-79911365D01*
X122474494Y-79927953D01*
X122563722Y-79938041D01*
X122670582Y-79942469D01*
X122719528Y-79942845D01*
X122781762Y-79942545D01*
X122825528Y-79941292D01*
X122854931Y-79938554D01*
X122874079Y-79933801D01*
X122887077Y-79926501D01*
X122894045Y-79920267D01*
X122900626Y-79912694D01*
X122905788Y-79902924D01*
X122909703Y-79888340D01*
X122912543Y-79866326D01*
X122914480Y-79834264D01*
X122915684Y-79789536D01*
X122916328Y-79729526D01*
X122916583Y-79651617D01*
X122916622Y-79575956D01*
X122916870Y-79475041D01*
X122916817Y-79394427D01*
X122915857Y-79355822D01*
X122769867Y-79355822D01*
X122769867Y-79796089D01*
X122676734Y-79796004D01*
X122620693Y-79794396D01*
X122561999Y-79790256D01*
X122513028Y-79784464D01*
X122511538Y-79784226D01*
X122432392Y-79765090D01*
X122371002Y-79735287D01*
X122324305Y-79692878D01*
X122294635Y-79646961D01*
X122276353Y-79596026D01*
X122277771Y-79548200D01*
X122298988Y-79496933D01*
X122340489Y-79443899D01*
X122397998Y-79404600D01*
X122472750Y-79378331D01*
X122522708Y-79369035D01*
X122579416Y-79362507D01*
X122639519Y-79357782D01*
X122690639Y-79355817D01*
X122693667Y-79355808D01*
X122769867Y-79355822D01*
X122915857Y-79355822D01*
X122915260Y-79331851D01*
X122910998Y-79285055D01*
X122902830Y-79251778D01*
X122889556Y-79229759D01*
X122869974Y-79216739D01*
X122842883Y-79210457D01*
X122807082Y-79208653D01*
X122761371Y-79209066D01*
G36*
X121352794Y-79209146D02*
G01*
X121283386Y-79209518D01*
X121230997Y-79210385D01*
X121192847Y-79211946D01*
X121166159Y-79214403D01*
X121148153Y-79217957D01*
X121136049Y-79222810D01*
X121127069Y-79229161D01*
X121123818Y-79232084D01*
X121104043Y-79263142D01*
X121100482Y-79298828D01*
X121113491Y-79330510D01*
X121119506Y-79336913D01*
X121129235Y-79343121D01*
X121144901Y-79347910D01*
X121169408Y-79351514D01*
X121205661Y-79354164D01*
X121256565Y-79356095D01*
X121325026Y-79357539D01*
X121387617Y-79358418D01*
X121635334Y-79361467D01*
X121638719Y-79426378D01*
X121642105Y-79491289D01*
X121473958Y-79491289D01*
X121400959Y-79491919D01*
X121347517Y-79494553D01*
X121310628Y-79500309D01*
X121287288Y-79510304D01*
X121274494Y-79525656D01*
X121269242Y-79547482D01*
X121268445Y-79567738D01*
X121270923Y-79592592D01*
X121280277Y-79610906D01*
X121299383Y-79623637D01*
X121331118Y-79631741D01*
X121378359Y-79636176D01*
X121443983Y-79637899D01*
X121479801Y-79638045D01*
X121640978Y-79638045D01*
X121640978Y-79796089D01*
X121392622Y-79796089D01*
X121311213Y-79796202D01*
X121249342Y-79796712D01*
X121203968Y-79797870D01*
X121172054Y-79799930D01*
X121150559Y-79803146D01*
X121136443Y-79807772D01*
X121126668Y-79814059D01*
X121121689Y-79818667D01*
X121104610Y-79845560D01*
X121099111Y-79869467D01*
X121106963Y-79898667D01*
X121121689Y-79920267D01*
X121129546Y-79927066D01*
X121139688Y-79932346D01*
X121154844Y-79936298D01*
X121177741Y-79939113D01*
X121211109Y-79940982D01*
X121257675Y-79942098D01*
X121320167Y-79942651D01*
X121401314Y-79942833D01*
X121443422Y-79942845D01*
X121533598Y-79942765D01*
X121603924Y-79942398D01*
X121657129Y-79941552D01*
X121695940Y-79940036D01*
X121723087Y-79937659D01*
X121741298Y-79934229D01*
X121753300Y-79929554D01*
X121761822Y-79923444D01*
X121765156Y-79920267D01*
X121771755Y-79912670D01*
X121776927Y-79902870D01*
X121780846Y-79888239D01*
X121783684Y-79866152D01*
X121785615Y-79833982D01*
X121786812Y-79789103D01*
X121787448Y-79728889D01*
X121787697Y-79650713D01*
X121787734Y-79577923D01*
X121787700Y-79484707D01*
X121787465Y-79411431D01*
X121786830Y-79355458D01*
X121785594Y-79314151D01*
X121783556Y-79284872D01*
X121780517Y-79264984D01*
X121776277Y-79251850D01*
X121770635Y-79242832D01*
X121763391Y-79235293D01*
X121761606Y-79233612D01*
X121752945Y-79226172D01*
X121742882Y-79220409D01*
X121728625Y-79216112D01*
X121707383Y-79213064D01*
X121676364Y-79211051D01*
X121632777Y-79209860D01*
X121573831Y-79209275D01*
X121496734Y-79209083D01*
X121442001Y-79209067D01*
X121352794Y-79209146D01*
G37*
X121352794Y-79209146D02*
X121283386Y-79209518D01*
X121230997Y-79210385D01*
X121192847Y-79211946D01*
X121166159Y-79214403D01*
X121148153Y-79217957D01*
X121136049Y-79222810D01*
X121127069Y-79229161D01*
X121123818Y-79232084D01*
X121104043Y-79263142D01*
X121100482Y-79298828D01*
X121113491Y-79330510D01*
X121119506Y-79336913D01*
X121129235Y-79343121D01*
X121144901Y-79347910D01*
X121169408Y-79351514D01*
X121205661Y-79354164D01*
X121256565Y-79356095D01*
X121325026Y-79357539D01*
X121387617Y-79358418D01*
X121635334Y-79361467D01*
X121638719Y-79426378D01*
X121642105Y-79491289D01*
X121473958Y-79491289D01*
X121400959Y-79491919D01*
X121347517Y-79494553D01*
X121310628Y-79500309D01*
X121287288Y-79510304D01*
X121274494Y-79525656D01*
X121269242Y-79547482D01*
X121268445Y-79567738D01*
X121270923Y-79592592D01*
X121280277Y-79610906D01*
X121299383Y-79623637D01*
X121331118Y-79631741D01*
X121378359Y-79636176D01*
X121443983Y-79637899D01*
X121479801Y-79638045D01*
X121640978Y-79638045D01*
X121640978Y-79796089D01*
X121392622Y-79796089D01*
X121311213Y-79796202D01*
X121249342Y-79796712D01*
X121203968Y-79797870D01*
X121172054Y-79799930D01*
X121150559Y-79803146D01*
X121136443Y-79807772D01*
X121126668Y-79814059D01*
X121121689Y-79818667D01*
X121104610Y-79845560D01*
X121099111Y-79869467D01*
X121106963Y-79898667D01*
X121121689Y-79920267D01*
X121129546Y-79927066D01*
X121139688Y-79932346D01*
X121154844Y-79936298D01*
X121177741Y-79939113D01*
X121211109Y-79940982D01*
X121257675Y-79942098D01*
X121320167Y-79942651D01*
X121401314Y-79942833D01*
X121443422Y-79942845D01*
X121533598Y-79942765D01*
X121603924Y-79942398D01*
X121657129Y-79941552D01*
X121695940Y-79940036D01*
X121723087Y-79937659D01*
X121741298Y-79934229D01*
X121753300Y-79929554D01*
X121761822Y-79923444D01*
X121765156Y-79920267D01*
X121771755Y-79912670D01*
X121776927Y-79902870D01*
X121780846Y-79888239D01*
X121783684Y-79866152D01*
X121785615Y-79833982D01*
X121786812Y-79789103D01*
X121787448Y-79728889D01*
X121787697Y-79650713D01*
X121787734Y-79577923D01*
X121787700Y-79484707D01*
X121787465Y-79411431D01*
X121786830Y-79355458D01*
X121785594Y-79314151D01*
X121783556Y-79284872D01*
X121780517Y-79264984D01*
X121776277Y-79251850D01*
X121770635Y-79242832D01*
X121763391Y-79235293D01*
X121761606Y-79233612D01*
X121752945Y-79226172D01*
X121742882Y-79220409D01*
X121728625Y-79216112D01*
X121707383Y-79213064D01*
X121676364Y-79211051D01*
X121632777Y-79209860D01*
X121573831Y-79209275D01*
X121496734Y-79209083D01*
X121442001Y-79209067D01*
X121352794Y-79209146D01*
G36*
X120331703Y-79210351D02*
G01*
X120256888Y-79215581D01*
X120187306Y-79223750D01*
X120127002Y-79234550D01*
X120080020Y-79247673D01*
X120050406Y-79262813D01*
X120045860Y-79267269D01*
X120030054Y-79301850D01*
X120034847Y-79337351D01*
X120059364Y-79367725D01*
X120060534Y-79368596D01*
X120074954Y-79377954D01*
X120090008Y-79382876D01*
X120111005Y-79383473D01*
X120143257Y-79379861D01*
X120192073Y-79372154D01*
X120196000Y-79371505D01*
X120268739Y-79362569D01*
X120347217Y-79358161D01*
X120425927Y-79358119D01*
X120499361Y-79362279D01*
X120562011Y-79370479D01*
X120608370Y-79382557D01*
X120611416Y-79383771D01*
X120645048Y-79402615D01*
X120656864Y-79421685D01*
X120647614Y-79440439D01*
X120618047Y-79458337D01*
X120568911Y-79474837D01*
X120500957Y-79489396D01*
X120455645Y-79496406D01*
X120361456Y-79509889D01*
X120286544Y-79522214D01*
X120227717Y-79534449D01*
X120181785Y-79547661D01*
X120145555Y-79562917D01*
X120115838Y-79581285D01*
X120089442Y-79603831D01*
X120068230Y-79625971D01*
X120043065Y-79656819D01*
X120030681Y-79683345D01*
X120026808Y-79716026D01*
X120026667Y-79727995D01*
X120029576Y-79767712D01*
X120041202Y-79797259D01*
X120061323Y-79823486D01*
X120102216Y-79863576D01*
X120147817Y-79894149D01*
X120201513Y-79916203D01*
X120266692Y-79930735D01*
X120346744Y-79938741D01*
X120445057Y-79941218D01*
X120461289Y-79941177D01*
X120526849Y-79939818D01*
X120591866Y-79936730D01*
X120649252Y-79932356D01*
X120691922Y-79927140D01*
X120695372Y-79926541D01*
X120737796Y-79916491D01*
X120773780Y-79903796D01*
X120794150Y-79892190D01*
X120813107Y-79861572D01*
X120814427Y-79825918D01*
X120798085Y-79794144D01*
X120794429Y-79790551D01*
X120779315Y-79779876D01*
X120760415Y-79775276D01*
X120731162Y-79776059D01*
X120695651Y-79780127D01*
X120655970Y-79783762D01*
X120600345Y-79786828D01*
X120535406Y-79789053D01*
X120467785Y-79790164D01*
X120450000Y-79790237D01*
X120382128Y-79789964D01*
X120332454Y-79788646D01*
X120296610Y-79785827D01*
X120270224Y-79781050D01*
X120248926Y-79773857D01*
X120236126Y-79767867D01*
X120208000Y-79751233D01*
X120190068Y-79736168D01*
X120187447Y-79731897D01*
X120192976Y-79714263D01*
X120219260Y-79697192D01*
X120264478Y-79681458D01*
X120326808Y-79667838D01*
X120345171Y-79664804D01*
X120441090Y-79649738D01*
X120517641Y-79637146D01*
X120577780Y-79626111D01*
X120624460Y-79615720D01*
X120660637Y-79605056D01*
X120689265Y-79593205D01*
X120713298Y-79579251D01*
X120735692Y-79562281D01*
X120759402Y-79541378D01*
X120767380Y-79534049D01*
X120795353Y-79506699D01*
X120810160Y-79485029D01*
X120815952Y-79460232D01*
X120816889Y-79428983D01*
X120806575Y-79367705D01*
X120775752Y-79315640D01*
X120724595Y-79272958D01*
X120653283Y-79239825D01*
X120602400Y-79224964D01*
X120547100Y-79215366D01*
X120480853Y-79209936D01*
X120407706Y-79208367D01*
X120331703Y-79210351D01*
G37*
X120331703Y-79210351D02*
X120256888Y-79215581D01*
X120187306Y-79223750D01*
X120127002Y-79234550D01*
X120080020Y-79247673D01*
X120050406Y-79262813D01*
X120045860Y-79267269D01*
X120030054Y-79301850D01*
X120034847Y-79337351D01*
X120059364Y-79367725D01*
X120060534Y-79368596D01*
X120074954Y-79377954D01*
X120090008Y-79382876D01*
X120111005Y-79383473D01*
X120143257Y-79379861D01*
X120192073Y-79372154D01*
X120196000Y-79371505D01*
X120268739Y-79362569D01*
X120347217Y-79358161D01*
X120425927Y-79358119D01*
X120499361Y-79362279D01*
X120562011Y-79370479D01*
X120608370Y-79382557D01*
X120611416Y-79383771D01*
X120645048Y-79402615D01*
X120656864Y-79421685D01*
X120647614Y-79440439D01*
X120618047Y-79458337D01*
X120568911Y-79474837D01*
X120500957Y-79489396D01*
X120455645Y-79496406D01*
X120361456Y-79509889D01*
X120286544Y-79522214D01*
X120227717Y-79534449D01*
X120181785Y-79547661D01*
X120145555Y-79562917D01*
X120115838Y-79581285D01*
X120089442Y-79603831D01*
X120068230Y-79625971D01*
X120043065Y-79656819D01*
X120030681Y-79683345D01*
X120026808Y-79716026D01*
X120026667Y-79727995D01*
X120029576Y-79767712D01*
X120041202Y-79797259D01*
X120061323Y-79823486D01*
X120102216Y-79863576D01*
X120147817Y-79894149D01*
X120201513Y-79916203D01*
X120266692Y-79930735D01*
X120346744Y-79938741D01*
X120445057Y-79941218D01*
X120461289Y-79941177D01*
X120526849Y-79939818D01*
X120591866Y-79936730D01*
X120649252Y-79932356D01*
X120691922Y-79927140D01*
X120695372Y-79926541D01*
X120737796Y-79916491D01*
X120773780Y-79903796D01*
X120794150Y-79892190D01*
X120813107Y-79861572D01*
X120814427Y-79825918D01*
X120798085Y-79794144D01*
X120794429Y-79790551D01*
X120779315Y-79779876D01*
X120760415Y-79775276D01*
X120731162Y-79776059D01*
X120695651Y-79780127D01*
X120655970Y-79783762D01*
X120600345Y-79786828D01*
X120535406Y-79789053D01*
X120467785Y-79790164D01*
X120450000Y-79790237D01*
X120382128Y-79789964D01*
X120332454Y-79788646D01*
X120296610Y-79785827D01*
X120270224Y-79781050D01*
X120248926Y-79773857D01*
X120236126Y-79767867D01*
X120208000Y-79751233D01*
X120190068Y-79736168D01*
X120187447Y-79731897D01*
X120192976Y-79714263D01*
X120219260Y-79697192D01*
X120264478Y-79681458D01*
X120326808Y-79667838D01*
X120345171Y-79664804D01*
X120441090Y-79649738D01*
X120517641Y-79637146D01*
X120577780Y-79626111D01*
X120624460Y-79615720D01*
X120660637Y-79605056D01*
X120689265Y-79593205D01*
X120713298Y-79579251D01*
X120735692Y-79562281D01*
X120759402Y-79541378D01*
X120767380Y-79534049D01*
X120795353Y-79506699D01*
X120810160Y-79485029D01*
X120815952Y-79460232D01*
X120816889Y-79428983D01*
X120806575Y-79367705D01*
X120775752Y-79315640D01*
X120724595Y-79272958D01*
X120653283Y-79239825D01*
X120602400Y-79224964D01*
X120547100Y-79215366D01*
X120480853Y-79209936D01*
X120407706Y-79208367D01*
X120331703Y-79210351D01*
G36*
X119563822Y-79231645D02*
G01*
X119557242Y-79239218D01*
X119552079Y-79248987D01*
X119548164Y-79263571D01*
X119545324Y-79285585D01*
X119543387Y-79317648D01*
X119542183Y-79362375D01*
X119541539Y-79422385D01*
X119541284Y-79500294D01*
X119541245Y-79575956D01*
X119541314Y-79669802D01*
X119541638Y-79743689D01*
X119542386Y-79800232D01*
X119543732Y-79842049D01*
X119545846Y-79871757D01*
X119548900Y-79891973D01*
X119553066Y-79905314D01*
X119558516Y-79914398D01*
X119563822Y-79920267D01*
X119596826Y-79939947D01*
X119631991Y-79938181D01*
X119663455Y-79916717D01*
X119670684Y-79908337D01*
X119676334Y-79898614D01*
X119680599Y-79884861D01*
X119683673Y-79864389D01*
X119685752Y-79834512D01*
X119687030Y-79792541D01*
X119687701Y-79735789D01*
X119687959Y-79661567D01*
X119688000Y-79577537D01*
X119688000Y-79264485D01*
X119660291Y-79236776D01*
X119626137Y-79213463D01*
X119593006Y-79212623D01*
X119563822Y-79231645D01*
G37*
X119563822Y-79231645D02*
X119557242Y-79239218D01*
X119552079Y-79248987D01*
X119548164Y-79263571D01*
X119545324Y-79285585D01*
X119543387Y-79317648D01*
X119542183Y-79362375D01*
X119541539Y-79422385D01*
X119541284Y-79500294D01*
X119541245Y-79575956D01*
X119541314Y-79669802D01*
X119541638Y-79743689D01*
X119542386Y-79800232D01*
X119543732Y-79842049D01*
X119545846Y-79871757D01*
X119548900Y-79891973D01*
X119553066Y-79905314D01*
X119558516Y-79914398D01*
X119563822Y-79920267D01*
X119596826Y-79939947D01*
X119631991Y-79938181D01*
X119663455Y-79916717D01*
X119670684Y-79908337D01*
X119676334Y-79898614D01*
X119680599Y-79884861D01*
X119683673Y-79864389D01*
X119685752Y-79834512D01*
X119687030Y-79792541D01*
X119687701Y-79735789D01*
X119687959Y-79661567D01*
X119688000Y-79577537D01*
X119688000Y-79264485D01*
X119660291Y-79236776D01*
X119626137Y-79213463D01*
X119593006Y-79212623D01*
X119563822Y-79231645D01*
G36*
X118590081Y-79214599D02*
G01*
X118521565Y-79226095D01*
X118468943Y-79243967D01*
X118434708Y-79267499D01*
X118425379Y-79280924D01*
X118415893Y-79312148D01*
X118422277Y-79340395D01*
X118442430Y-79367182D01*
X118473745Y-79379713D01*
X118519183Y-79378696D01*
X118554326Y-79371906D01*
X118632419Y-79358971D01*
X118712226Y-79357742D01*
X118801555Y-79368241D01*
X118826229Y-79372690D01*
X118909291Y-79396108D01*
X118974273Y-79430945D01*
X119020461Y-79476604D01*
X119047145Y-79532494D01*
X119052663Y-79561388D01*
X119049051Y-79620012D01*
X119025729Y-79671879D01*
X118984824Y-79715978D01*
X118928459Y-79751299D01*
X118858760Y-79776829D01*
X118777852Y-79791559D01*
X118687860Y-79794478D01*
X118590910Y-79784575D01*
X118585436Y-79783641D01*
X118546875Y-79776459D01*
X118525494Y-79769521D01*
X118516227Y-79759227D01*
X118514006Y-79741976D01*
X118513956Y-79732841D01*
X118513956Y-79694489D01*
X118582431Y-79694489D01*
X118642900Y-79690347D01*
X118684165Y-79677147D01*
X118708175Y-79653730D01*
X118716877Y-79618936D01*
X118716983Y-79614394D01*
X118711892Y-79584654D01*
X118694433Y-79563419D01*
X118661939Y-79549366D01*
X118611743Y-79541173D01*
X118563123Y-79538161D01*
X118492456Y-79536433D01*
X118441198Y-79539070D01*
X118406239Y-79548800D01*
X118384470Y-79568353D01*
X118372780Y-79600456D01*
X118368060Y-79647838D01*
X118367200Y-79710071D01*
X118368609Y-79779535D01*
X118372848Y-79826786D01*
X118379936Y-79852012D01*
X118381311Y-79853988D01*
X118420228Y-79885508D01*
X118477286Y-79910470D01*
X118548869Y-79928340D01*
X118631358Y-79938586D01*
X118721139Y-79940673D01*
X118814592Y-79934068D01*
X118869556Y-79925956D01*
X118955766Y-79901554D01*
X119035892Y-79861662D01*
X119102977Y-79809887D01*
X119113173Y-79799539D01*
X119146302Y-79756035D01*
X119176194Y-79702118D01*
X119199357Y-79645592D01*
X119212298Y-79594259D01*
X119213858Y-79574544D01*
X119207218Y-79533419D01*
X119189568Y-79482252D01*
X119164297Y-79428394D01*
X119134789Y-79379195D01*
X119108719Y-79346334D01*
X119047765Y-79297452D01*
X118968969Y-79258545D01*
X118875157Y-79230494D01*
X118769150Y-79214179D01*
X118672000Y-79210192D01*
X118590081Y-79214599D01*
G37*
X118590081Y-79214599D02*
X118521565Y-79226095D01*
X118468943Y-79243967D01*
X118434708Y-79267499D01*
X118425379Y-79280924D01*
X118415893Y-79312148D01*
X118422277Y-79340395D01*
X118442430Y-79367182D01*
X118473745Y-79379713D01*
X118519183Y-79378696D01*
X118554326Y-79371906D01*
X118632419Y-79358971D01*
X118712226Y-79357742D01*
X118801555Y-79368241D01*
X118826229Y-79372690D01*
X118909291Y-79396108D01*
X118974273Y-79430945D01*
X119020461Y-79476604D01*
X119047145Y-79532494D01*
X119052663Y-79561388D01*
X119049051Y-79620012D01*
X119025729Y-79671879D01*
X118984824Y-79715978D01*
X118928459Y-79751299D01*
X118858760Y-79776829D01*
X118777852Y-79791559D01*
X118687860Y-79794478D01*
X118590910Y-79784575D01*
X118585436Y-79783641D01*
X118546875Y-79776459D01*
X118525494Y-79769521D01*
X118516227Y-79759227D01*
X118514006Y-79741976D01*
X118513956Y-79732841D01*
X118513956Y-79694489D01*
X118582431Y-79694489D01*
X118642900Y-79690347D01*
X118684165Y-79677147D01*
X118708175Y-79653730D01*
X118716877Y-79618936D01*
X118716983Y-79614394D01*
X118711892Y-79584654D01*
X118694433Y-79563419D01*
X118661939Y-79549366D01*
X118611743Y-79541173D01*
X118563123Y-79538161D01*
X118492456Y-79536433D01*
X118441198Y-79539070D01*
X118406239Y-79548800D01*
X118384470Y-79568353D01*
X118372780Y-79600456D01*
X118368060Y-79647838D01*
X118367200Y-79710071D01*
X118368609Y-79779535D01*
X118372848Y-79826786D01*
X118379936Y-79852012D01*
X118381311Y-79853988D01*
X118420228Y-79885508D01*
X118477286Y-79910470D01*
X118548869Y-79928340D01*
X118631358Y-79938586D01*
X118721139Y-79940673D01*
X118814592Y-79934068D01*
X118869556Y-79925956D01*
X118955766Y-79901554D01*
X119035892Y-79861662D01*
X119102977Y-79809887D01*
X119113173Y-79799539D01*
X119146302Y-79756035D01*
X119176194Y-79702118D01*
X119199357Y-79645592D01*
X119212298Y-79594259D01*
X119213858Y-79574544D01*
X119207218Y-79533419D01*
X119189568Y-79482252D01*
X119164297Y-79428394D01*
X119134789Y-79379195D01*
X119108719Y-79346334D01*
X119047765Y-79297452D01*
X118968969Y-79258545D01*
X118875157Y-79230494D01*
X118769150Y-79214179D01*
X118672000Y-79210192D01*
X118590081Y-79214599D01*
G36*
X117940114Y-79213448D02*
G01*
X117916548Y-79227273D01*
X117885735Y-79249881D01*
X117846078Y-79282338D01*
X117795980Y-79325708D01*
X117733843Y-79381058D01*
X117658072Y-79449451D01*
X117571334Y-79528084D01*
X117390711Y-79691878D01*
X117385067Y-79472029D01*
X117383029Y-79396351D01*
X117381063Y-79339994D01*
X117378734Y-79299706D01*
X117375606Y-79272235D01*
X117371245Y-79254329D01*
X117365216Y-79242737D01*
X117357084Y-79234208D01*
X117352772Y-79230623D01*
X117318241Y-79211670D01*
X117285383Y-79214441D01*
X117259318Y-79230633D01*
X117232667Y-79252199D01*
X117229352Y-79567151D01*
X117228435Y-79659779D01*
X117227968Y-79732544D01*
X117228113Y-79788161D01*
X117229032Y-79829342D01*
X117230887Y-79858803D01*
X117233839Y-79879255D01*
X117238050Y-79893413D01*
X117243682Y-79903991D01*
X117249927Y-79912474D01*
X117263439Y-79928207D01*
X117276883Y-79938636D01*
X117292124Y-79942639D01*
X117311026Y-79939094D01*
X117335455Y-79926879D01*
X117367273Y-79904871D01*
X117408348Y-79871949D01*
X117460542Y-79826991D01*
X117525722Y-79768875D01*
X117599556Y-79702099D01*
X117864845Y-79461458D01*
X117870489Y-79680589D01*
X117872531Y-79756128D01*
X117874502Y-79812354D01*
X117876839Y-79852524D01*
X117879981Y-79879896D01*
X117884364Y-79897728D01*
X117890424Y-79909279D01*
X117898600Y-79917807D01*
X117902784Y-79921282D01*
X117939765Y-79940372D01*
X117974708Y-79937493D01*
X118005136Y-79913100D01*
X118012097Y-79903286D01*
X118017523Y-79891826D01*
X118021603Y-79875968D01*
X118024529Y-79852963D01*
X118026492Y-79820062D01*
X118027683Y-79774516D01*
X118028292Y-79713573D01*
X118028511Y-79634486D01*
X118028534Y-79575956D01*
X118028460Y-79484407D01*
X118028113Y-79412687D01*
X118027301Y-79358045D01*
X118025833Y-79317732D01*
X118023519Y-79288998D01*
X118020167Y-79269093D01*
X118015588Y-79255268D01*
X118009589Y-79244772D01*
X118005136Y-79238811D01*
X117993850Y-79224691D01*
X117983301Y-79214029D01*
X117971893Y-79207892D01*
X117958030Y-79207343D01*
X117940114Y-79213448D01*
G37*
X117940114Y-79213448D02*
X117916548Y-79227273D01*
X117885735Y-79249881D01*
X117846078Y-79282338D01*
X117795980Y-79325708D01*
X117733843Y-79381058D01*
X117658072Y-79449451D01*
X117571334Y-79528084D01*
X117390711Y-79691878D01*
X117385067Y-79472029D01*
X117383029Y-79396351D01*
X117381063Y-79339994D01*
X117378734Y-79299706D01*
X117375606Y-79272235D01*
X117371245Y-79254329D01*
X117365216Y-79242737D01*
X117357084Y-79234208D01*
X117352772Y-79230623D01*
X117318241Y-79211670D01*
X117285383Y-79214441D01*
X117259318Y-79230633D01*
X117232667Y-79252199D01*
X117229352Y-79567151D01*
X117228435Y-79659779D01*
X117227968Y-79732544D01*
X117228113Y-79788161D01*
X117229032Y-79829342D01*
X117230887Y-79858803D01*
X117233839Y-79879255D01*
X117238050Y-79893413D01*
X117243682Y-79903991D01*
X117249927Y-79912474D01*
X117263439Y-79928207D01*
X117276883Y-79938636D01*
X117292124Y-79942639D01*
X117311026Y-79939094D01*
X117335455Y-79926879D01*
X117367273Y-79904871D01*
X117408348Y-79871949D01*
X117460542Y-79826991D01*
X117525722Y-79768875D01*
X117599556Y-79702099D01*
X117864845Y-79461458D01*
X117870489Y-79680589D01*
X117872531Y-79756128D01*
X117874502Y-79812354D01*
X117876839Y-79852524D01*
X117879981Y-79879896D01*
X117884364Y-79897728D01*
X117890424Y-79909279D01*
X117898600Y-79917807D01*
X117902784Y-79921282D01*
X117939765Y-79940372D01*
X117974708Y-79937493D01*
X118005136Y-79913100D01*
X118012097Y-79903286D01*
X118017523Y-79891826D01*
X118021603Y-79875968D01*
X118024529Y-79852963D01*
X118026492Y-79820062D01*
X118027683Y-79774516D01*
X118028292Y-79713573D01*
X118028511Y-79634486D01*
X118028534Y-79575956D01*
X118028460Y-79484407D01*
X118028113Y-79412687D01*
X118027301Y-79358045D01*
X118025833Y-79317732D01*
X118023519Y-79288998D01*
X118020167Y-79269093D01*
X118015588Y-79255268D01*
X118009589Y-79244772D01*
X118005136Y-79238811D01*
X117993850Y-79224691D01*
X117983301Y-79214029D01*
X117971893Y-79207892D01*
X117958030Y-79207343D01*
X117940114Y-79213448D01*
G36*
X116409657Y-79209260D02*
G01*
X116333299Y-79210174D01*
X116274783Y-79212311D01*
X116231745Y-79216175D01*
X116201817Y-79222267D01*
X116182632Y-79231090D01*
X116171824Y-79243146D01*
X116167027Y-79258939D01*
X116165873Y-79278970D01*
X116165867Y-79281335D01*
X116166869Y-79303992D01*
X116171604Y-79321503D01*
X116182667Y-79334574D01*
X116202652Y-79343913D01*
X116234154Y-79350227D01*
X116279768Y-79354222D01*
X116342087Y-79356606D01*
X116423707Y-79358086D01*
X116448723Y-79358414D01*
X116690800Y-79361467D01*
X116694186Y-79426378D01*
X116697571Y-79491289D01*
X116529424Y-79491289D01*
X116463734Y-79491531D01*
X116416828Y-79492556D01*
X116384917Y-79494811D01*
X116364209Y-79498742D01*
X116350916Y-79504798D01*
X116341245Y-79513424D01*
X116341183Y-79513493D01*
X116323644Y-79547112D01*
X116324278Y-79583448D01*
X116342686Y-79614423D01*
X116346329Y-79617607D01*
X116359259Y-79625812D01*
X116376976Y-79631521D01*
X116403430Y-79635162D01*
X116442568Y-79637167D01*
X116498338Y-79637964D01*
X116534006Y-79638045D01*
X116696445Y-79638045D01*
X116696445Y-79796089D01*
X116449839Y-79796089D01*
X116368420Y-79796231D01*
X116306590Y-79796814D01*
X116261363Y-79798068D01*
X116229752Y-79800227D01*
X116208769Y-79803523D01*
X116195427Y-79808189D01*
X116186739Y-79814457D01*
X116184550Y-79816733D01*
X116168386Y-79848280D01*
X116167203Y-79884168D01*
X116180464Y-79915285D01*
X116190957Y-79925271D01*
X116201871Y-79930769D01*
X116218783Y-79935022D01*
X116244367Y-79938180D01*
X116281299Y-79940392D01*
X116332254Y-79941806D01*
X116399906Y-79942572D01*
X116486931Y-79942838D01*
X116506606Y-79942845D01*
X116595089Y-79942787D01*
X116663773Y-79942467D01*
X116715436Y-79941667D01*
X116752855Y-79940167D01*
X116778810Y-79937749D01*
X116796078Y-79934194D01*
X116807438Y-79929282D01*
X116815668Y-79922795D01*
X116820183Y-79918138D01*
X116826979Y-79909889D01*
X116832288Y-79899669D01*
X116836294Y-79884800D01*
X116839179Y-79862602D01*
X116841126Y-79830393D01*
X116842319Y-79785496D01*
X116842939Y-79725228D01*
X116843171Y-79646911D01*
X116843200Y-79580994D01*
X116843129Y-79488628D01*
X116842792Y-79416117D01*
X116842002Y-79360737D01*
X116840574Y-79319765D01*
X116838321Y-79290478D01*
X116835057Y-79270153D01*
X116830596Y-79256066D01*
X116824752Y-79245495D01*
X116819803Y-79238811D01*
X116796406Y-79209067D01*
X116506226Y-79209067D01*
X116409657Y-79209260D01*
G37*
X116409657Y-79209260D02*
X116333299Y-79210174D01*
X116274783Y-79212311D01*
X116231745Y-79216175D01*
X116201817Y-79222267D01*
X116182632Y-79231090D01*
X116171824Y-79243146D01*
X116167027Y-79258939D01*
X116165873Y-79278970D01*
X116165867Y-79281335D01*
X116166869Y-79303992D01*
X116171604Y-79321503D01*
X116182667Y-79334574D01*
X116202652Y-79343913D01*
X116234154Y-79350227D01*
X116279768Y-79354222D01*
X116342087Y-79356606D01*
X116423707Y-79358086D01*
X116448723Y-79358414D01*
X116690800Y-79361467D01*
X116694186Y-79426378D01*
X116697571Y-79491289D01*
X116529424Y-79491289D01*
X116463734Y-79491531D01*
X116416828Y-79492556D01*
X116384917Y-79494811D01*
X116364209Y-79498742D01*
X116350916Y-79504798D01*
X116341245Y-79513424D01*
X116341183Y-79513493D01*
X116323644Y-79547112D01*
X116324278Y-79583448D01*
X116342686Y-79614423D01*
X116346329Y-79617607D01*
X116359259Y-79625812D01*
X116376976Y-79631521D01*
X116403430Y-79635162D01*
X116442568Y-79637167D01*
X116498338Y-79637964D01*
X116534006Y-79638045D01*
X116696445Y-79638045D01*
X116696445Y-79796089D01*
X116449839Y-79796089D01*
X116368420Y-79796231D01*
X116306590Y-79796814D01*
X116261363Y-79798068D01*
X116229752Y-79800227D01*
X116208769Y-79803523D01*
X116195427Y-79808189D01*
X116186739Y-79814457D01*
X116184550Y-79816733D01*
X116168386Y-79848280D01*
X116167203Y-79884168D01*
X116180464Y-79915285D01*
X116190957Y-79925271D01*
X116201871Y-79930769D01*
X116218783Y-79935022D01*
X116244367Y-79938180D01*
X116281299Y-79940392D01*
X116332254Y-79941806D01*
X116399906Y-79942572D01*
X116486931Y-79942838D01*
X116506606Y-79942845D01*
X116595089Y-79942787D01*
X116663773Y-79942467D01*
X116715436Y-79941667D01*
X116752855Y-79940167D01*
X116778810Y-79937749D01*
X116796078Y-79934194D01*
X116807438Y-79929282D01*
X116815668Y-79922795D01*
X116820183Y-79918138D01*
X116826979Y-79909889D01*
X116832288Y-79899669D01*
X116836294Y-79884800D01*
X116839179Y-79862602D01*
X116841126Y-79830393D01*
X116842319Y-79785496D01*
X116842939Y-79725228D01*
X116843171Y-79646911D01*
X116843200Y-79580994D01*
X116843129Y-79488628D01*
X116842792Y-79416117D01*
X116842002Y-79360737D01*
X116840574Y-79319765D01*
X116838321Y-79290478D01*
X116835057Y-79270153D01*
X116830596Y-79256066D01*
X116824752Y-79245495D01*
X116819803Y-79238811D01*
X116796406Y-79209067D01*
X116506226Y-79209067D01*
X116409657Y-79209260D01*
G36*
X115621691Y-79209275D02*
G01*
X115492712Y-79213636D01*
X115383009Y-79226861D01*
X115290774Y-79249741D01*
X115214198Y-79283070D01*
X115151473Y-79327638D01*
X115100788Y-79384236D01*
X115060337Y-79453658D01*
X115059541Y-79455351D01*
X115035399Y-79517483D01*
X115026797Y-79572509D01*
X115033769Y-79627887D01*
X115056346Y-79691073D01*
X115060628Y-79700689D01*
X115089828Y-79756966D01*
X115122644Y-79800451D01*
X115164998Y-79837417D01*
X115222810Y-79874135D01*
X115226169Y-79876052D01*
X115276496Y-79900227D01*
X115333379Y-79918282D01*
X115400473Y-79930839D01*
X115481435Y-79938522D01*
X115579918Y-79941953D01*
X115614714Y-79942251D01*
X115780406Y-79942845D01*
X115803803Y-79913100D01*
X115810743Y-79903319D01*
X115816158Y-79891897D01*
X115820235Y-79876095D01*
X115823163Y-79853175D01*
X115825133Y-79820396D01*
X115825775Y-79796089D01*
X115669156Y-79796089D01*
X115575274Y-79796089D01*
X115520336Y-79794483D01*
X115463940Y-79790255D01*
X115417655Y-79784292D01*
X115414861Y-79783790D01*
X115332652Y-79761736D01*
X115268886Y-79728600D01*
X115221548Y-79682847D01*
X115188618Y-79622939D01*
X115182892Y-79607061D01*
X115177279Y-79582333D01*
X115179709Y-79557902D01*
X115191533Y-79525400D01*
X115198660Y-79509434D01*
X115222000Y-79467006D01*
X115250120Y-79437240D01*
X115281060Y-79416511D01*
X115343034Y-79389537D01*
X115422349Y-79369998D01*
X115514747Y-79358746D01*
X115581667Y-79356270D01*
X115669156Y-79355822D01*
X115669156Y-79796089D01*
X115825775Y-79796089D01*
X115826332Y-79775021D01*
X115826950Y-79714311D01*
X115827175Y-79635526D01*
X115827200Y-79573920D01*
X115827200Y-79264485D01*
X115799491Y-79236776D01*
X115787194Y-79225544D01*
X115773897Y-79217853D01*
X115755328Y-79213040D01*
X115727214Y-79210446D01*
X115685283Y-79209410D01*
X115625263Y-79209270D01*
X115621691Y-79209275D01*
G37*
X115621691Y-79209275D02*
X115492712Y-79213636D01*
X115383009Y-79226861D01*
X115290774Y-79249741D01*
X115214198Y-79283070D01*
X115151473Y-79327638D01*
X115100788Y-79384236D01*
X115060337Y-79453658D01*
X115059541Y-79455351D01*
X115035399Y-79517483D01*
X115026797Y-79572509D01*
X115033769Y-79627887D01*
X115056346Y-79691073D01*
X115060628Y-79700689D01*
X115089828Y-79756966D01*
X115122644Y-79800451D01*
X115164998Y-79837417D01*
X115222810Y-79874135D01*
X115226169Y-79876052D01*
X115276496Y-79900227D01*
X115333379Y-79918282D01*
X115400473Y-79930839D01*
X115481435Y-79938522D01*
X115579918Y-79941953D01*
X115614714Y-79942251D01*
X115780406Y-79942845D01*
X115803803Y-79913100D01*
X115810743Y-79903319D01*
X115816158Y-79891897D01*
X115820235Y-79876095D01*
X115823163Y-79853175D01*
X115825133Y-79820396D01*
X115825775Y-79796089D01*
X115669156Y-79796089D01*
X115575274Y-79796089D01*
X115520336Y-79794483D01*
X115463940Y-79790255D01*
X115417655Y-79784292D01*
X115414861Y-79783790D01*
X115332652Y-79761736D01*
X115268886Y-79728600D01*
X115221548Y-79682847D01*
X115188618Y-79622939D01*
X115182892Y-79607061D01*
X115177279Y-79582333D01*
X115179709Y-79557902D01*
X115191533Y-79525400D01*
X115198660Y-79509434D01*
X115222000Y-79467006D01*
X115250120Y-79437240D01*
X115281060Y-79416511D01*
X115343034Y-79389537D01*
X115422349Y-79369998D01*
X115514747Y-79358746D01*
X115581667Y-79356270D01*
X115669156Y-79355822D01*
X115669156Y-79796089D01*
X115825775Y-79796089D01*
X115826332Y-79775021D01*
X115826950Y-79714311D01*
X115827175Y-79635526D01*
X115827200Y-79573920D01*
X115827200Y-79264485D01*
X115799491Y-79236776D01*
X115787194Y-79225544D01*
X115773897Y-79217853D01*
X115755328Y-79213040D01*
X115727214Y-79210446D01*
X115685283Y-79209410D01*
X115625263Y-79209270D01*
X115621691Y-79209275D01*
G36*
X112895335Y-79211034D02*
G01*
X112875745Y-79218035D01*
X112874990Y-79218377D01*
X112848387Y-79238678D01*
X112833730Y-79259561D01*
X112830862Y-79269352D01*
X112831004Y-79282361D01*
X112835039Y-79300895D01*
X112843854Y-79327257D01*
X112858331Y-79363752D01*
X112879355Y-79412687D01*
X112907812Y-79476365D01*
X112944585Y-79557093D01*
X112964825Y-79601216D01*
X113001375Y-79679985D01*
X113035685Y-79752423D01*
X113066448Y-79815880D01*
X113092352Y-79867708D01*
X113112090Y-79905259D01*
X113124350Y-79925884D01*
X113126776Y-79928733D01*
X113157817Y-79941302D01*
X113192879Y-79939619D01*
X113221000Y-79924332D01*
X113222146Y-79923089D01*
X113233332Y-79906154D01*
X113252096Y-79873170D01*
X113276125Y-79828380D01*
X113303103Y-79776032D01*
X113312799Y-79756742D01*
X113385986Y-79610150D01*
X113465760Y-79769393D01*
X113494233Y-79824415D01*
X113520650Y-79872132D01*
X113542852Y-79908893D01*
X113558681Y-79931044D01*
X113564046Y-79935741D01*
X113605743Y-79942102D01*
X113640151Y-79928733D01*
X113650272Y-79914446D01*
X113667786Y-79882692D01*
X113691265Y-79836597D01*
X113719280Y-79779285D01*
X113750401Y-79713880D01*
X113783201Y-79643507D01*
X113816250Y-79571291D01*
X113848119Y-79500355D01*
X113877381Y-79433825D01*
X113902605Y-79374826D01*
X113922364Y-79326481D01*
X113935228Y-79291915D01*
X113939769Y-79274253D01*
X113939723Y-79273613D01*
X113928674Y-79251388D01*
X113906590Y-79228753D01*
X113905290Y-79227768D01*
X113878147Y-79212425D01*
X113853042Y-79212574D01*
X113843632Y-79215466D01*
X113832166Y-79221718D01*
X113819990Y-79234014D01*
X113805643Y-79254908D01*
X113787664Y-79286949D01*
X113764593Y-79332688D01*
X113734970Y-79394677D01*
X113708255Y-79451898D01*
X113677520Y-79518226D01*
X113649979Y-79577874D01*
X113627062Y-79627725D01*
X113610202Y-79664664D01*
X113600827Y-79685573D01*
X113599460Y-79688845D01*
X113593311Y-79683497D01*
X113579178Y-79661109D01*
X113558943Y-79624946D01*
X113534485Y-79578277D01*
X113524752Y-79559022D01*
X113491783Y-79494004D01*
X113466357Y-79446654D01*
X113446388Y-79414219D01*
X113429790Y-79393946D01*
X113414476Y-79383082D01*
X113398360Y-79378875D01*
X113387857Y-79378400D01*
X113369330Y-79380042D01*
X113353096Y-79386831D01*
X113336965Y-79401566D01*
X113318749Y-79427044D01*
X113296261Y-79466061D01*
X113267311Y-79521414D01*
X113251338Y-79552903D01*
X113225430Y-79603087D01*
X113202833Y-79644704D01*
X113185542Y-79674242D01*
X113175550Y-79688189D01*
X113174191Y-79688770D01*
X113167739Y-79677793D01*
X113153292Y-79649290D01*
X113132297Y-79606244D01*
X113106203Y-79551638D01*
X113076454Y-79488454D01*
X113061820Y-79457071D01*
X113023750Y-79376078D01*
X112993095Y-79313756D01*
X112968263Y-79268071D01*
X112947663Y-79236989D01*
X112929702Y-79218478D01*
X112912790Y-79210504D01*
X112895335Y-79211034D01*
G37*
X112895335Y-79211034D02*
X112875745Y-79218035D01*
X112874990Y-79218377D01*
X112848387Y-79238678D01*
X112833730Y-79259561D01*
X112830862Y-79269352D01*
X112831004Y-79282361D01*
X112835039Y-79300895D01*
X112843854Y-79327257D01*
X112858331Y-79363752D01*
X112879355Y-79412687D01*
X112907812Y-79476365D01*
X112944585Y-79557093D01*
X112964825Y-79601216D01*
X113001375Y-79679985D01*
X113035685Y-79752423D01*
X113066448Y-79815880D01*
X113092352Y-79867708D01*
X113112090Y-79905259D01*
X113124350Y-79925884D01*
X113126776Y-79928733D01*
X113157817Y-79941302D01*
X113192879Y-79939619D01*
X113221000Y-79924332D01*
X113222146Y-79923089D01*
X113233332Y-79906154D01*
X113252096Y-79873170D01*
X113276125Y-79828380D01*
X113303103Y-79776032D01*
X113312799Y-79756742D01*
X113385986Y-79610150D01*
X113465760Y-79769393D01*
X113494233Y-79824415D01*
X113520650Y-79872132D01*
X113542852Y-79908893D01*
X113558681Y-79931044D01*
X113564046Y-79935741D01*
X113605743Y-79942102D01*
X113640151Y-79928733D01*
X113650272Y-79914446D01*
X113667786Y-79882692D01*
X113691265Y-79836597D01*
X113719280Y-79779285D01*
X113750401Y-79713880D01*
X113783201Y-79643507D01*
X113816250Y-79571291D01*
X113848119Y-79500355D01*
X113877381Y-79433825D01*
X113902605Y-79374826D01*
X113922364Y-79326481D01*
X113935228Y-79291915D01*
X113939769Y-79274253D01*
X113939723Y-79273613D01*
X113928674Y-79251388D01*
X113906590Y-79228753D01*
X113905290Y-79227768D01*
X113878147Y-79212425D01*
X113853042Y-79212574D01*
X113843632Y-79215466D01*
X113832166Y-79221718D01*
X113819990Y-79234014D01*
X113805643Y-79254908D01*
X113787664Y-79286949D01*
X113764593Y-79332688D01*
X113734970Y-79394677D01*
X113708255Y-79451898D01*
X113677520Y-79518226D01*
X113649979Y-79577874D01*
X113627062Y-79627725D01*
X113610202Y-79664664D01*
X113600827Y-79685573D01*
X113599460Y-79688845D01*
X113593311Y-79683497D01*
X113579178Y-79661109D01*
X113558943Y-79624946D01*
X113534485Y-79578277D01*
X113524752Y-79559022D01*
X113491783Y-79494004D01*
X113466357Y-79446654D01*
X113446388Y-79414219D01*
X113429790Y-79393946D01*
X113414476Y-79383082D01*
X113398360Y-79378875D01*
X113387857Y-79378400D01*
X113369330Y-79380042D01*
X113353096Y-79386831D01*
X113336965Y-79401566D01*
X113318749Y-79427044D01*
X113296261Y-79466061D01*
X113267311Y-79521414D01*
X113251338Y-79552903D01*
X113225430Y-79603087D01*
X113202833Y-79644704D01*
X113185542Y-79674242D01*
X113175550Y-79688189D01*
X113174191Y-79688770D01*
X113167739Y-79677793D01*
X113153292Y-79649290D01*
X113132297Y-79606244D01*
X113106203Y-79551638D01*
X113076454Y-79488454D01*
X113061820Y-79457071D01*
X113023750Y-79376078D01*
X112993095Y-79313756D01*
X112968263Y-79268071D01*
X112947663Y-79236989D01*
X112929702Y-79218478D01*
X112912790Y-79210504D01*
X112895335Y-79211034D01*
G36*
X112451386Y-79215877D02*
G01*
X112427673Y-79230647D01*
X112401022Y-79252227D01*
X112401022Y-79573773D01*
X112401107Y-79667830D01*
X112401471Y-79741932D01*
X112402276Y-79798704D01*
X112403687Y-79840768D01*
X112405867Y-79870748D01*
X112408979Y-79891267D01*
X112413186Y-79904949D01*
X112418652Y-79914416D01*
X112422528Y-79919082D01*
X112453966Y-79939575D01*
X112489767Y-79938739D01*
X112521127Y-79921264D01*
X112547778Y-79899684D01*
X112547778Y-79252227D01*
X112521127Y-79230647D01*
X112495406Y-79214949D01*
X112474400Y-79209067D01*
X112451386Y-79215877D01*
G37*
X112451386Y-79215877D02*
X112427673Y-79230647D01*
X112401022Y-79252227D01*
X112401022Y-79573773D01*
X112401107Y-79667830D01*
X112401471Y-79741932D01*
X112402276Y-79798704D01*
X112403687Y-79840768D01*
X112405867Y-79870748D01*
X112408979Y-79891267D01*
X112413186Y-79904949D01*
X112418652Y-79914416D01*
X112422528Y-79919082D01*
X112453966Y-79939575D01*
X112489767Y-79938739D01*
X112521127Y-79921264D01*
X112547778Y-79899684D01*
X112547778Y-79252227D01*
X112521127Y-79230647D01*
X112495406Y-79214949D01*
X112474400Y-79209067D01*
X112451386Y-79215877D01*
G36*
X111676935Y-79209163D02*
G01*
X111598228Y-79209542D01*
X111537137Y-79210333D01*
X111491183Y-79211670D01*
X111457886Y-79213683D01*
X111434764Y-79216506D01*
X111419338Y-79220269D01*
X111409129Y-79225105D01*
X111404187Y-79228822D01*
X111378543Y-79261358D01*
X111375441Y-79295138D01*
X111391289Y-79325826D01*
X111401652Y-79338089D01*
X111412804Y-79346450D01*
X111428965Y-79351657D01*
X111454358Y-79354457D01*
X111493202Y-79355596D01*
X111549720Y-79355821D01*
X111560820Y-79355822D01*
X111706756Y-79355822D01*
X111706756Y-79626756D01*
X111706852Y-79712154D01*
X111707289Y-79777864D01*
X111708288Y-79826774D01*
X111710072Y-79861773D01*
X111712863Y-79885749D01*
X111716883Y-79901593D01*
X111722355Y-79912191D01*
X111729334Y-79920267D01*
X111762266Y-79940112D01*
X111796646Y-79938548D01*
X111827824Y-79915906D01*
X111830114Y-79913100D01*
X111837571Y-79902492D01*
X111843253Y-79890081D01*
X111847399Y-79872850D01*
X111850250Y-79847784D01*
X111852046Y-79811867D01*
X111853028Y-79762083D01*
X111853436Y-79695417D01*
X111853511Y-79619589D01*
X111853511Y-79355822D01*
X111992873Y-79355822D01*
X112052678Y-79355418D01*
X112094082Y-79353840D01*
X112121252Y-79350547D01*
X112138354Y-79344992D01*
X112149557Y-79336631D01*
X112150917Y-79335178D01*
X112167275Y-79301939D01*
X112165828Y-79264362D01*
X112147022Y-79231645D01*
X112139750Y-79225298D01*
X112130373Y-79220266D01*
X112116391Y-79216396D01*
X112095304Y-79213537D01*
X112064611Y-79211535D01*
X112021811Y-79210239D01*
X111964405Y-79209498D01*
X111889890Y-79209158D01*
X111795767Y-79209068D01*
X111775740Y-79209067D01*
X111676935Y-79209163D01*
G37*
X111676935Y-79209163D02*
X111598228Y-79209542D01*
X111537137Y-79210333D01*
X111491183Y-79211670D01*
X111457886Y-79213683D01*
X111434764Y-79216506D01*
X111419338Y-79220269D01*
X111409129Y-79225105D01*
X111404187Y-79228822D01*
X111378543Y-79261358D01*
X111375441Y-79295138D01*
X111391289Y-79325826D01*
X111401652Y-79338089D01*
X111412804Y-79346450D01*
X111428965Y-79351657D01*
X111454358Y-79354457D01*
X111493202Y-79355596D01*
X111549720Y-79355821D01*
X111560820Y-79355822D01*
X111706756Y-79355822D01*
X111706756Y-79626756D01*
X111706852Y-79712154D01*
X111707289Y-79777864D01*
X111708288Y-79826774D01*
X111710072Y-79861773D01*
X111712863Y-79885749D01*
X111716883Y-79901593D01*
X111722355Y-79912191D01*
X111729334Y-79920267D01*
X111762266Y-79940112D01*
X111796646Y-79938548D01*
X111827824Y-79915906D01*
X111830114Y-79913100D01*
X111837571Y-79902492D01*
X111843253Y-79890081D01*
X111847399Y-79872850D01*
X111850250Y-79847784D01*
X111852046Y-79811867D01*
X111853028Y-79762083D01*
X111853436Y-79695417D01*
X111853511Y-79619589D01*
X111853511Y-79355822D01*
X111992873Y-79355822D01*
X112052678Y-79355418D01*
X112094082Y-79353840D01*
X112121252Y-79350547D01*
X112138354Y-79344992D01*
X112149557Y-79336631D01*
X112150917Y-79335178D01*
X112167275Y-79301939D01*
X112165828Y-79264362D01*
X112147022Y-79231645D01*
X112139750Y-79225298D01*
X112130373Y-79220266D01*
X112116391Y-79216396D01*
X112095304Y-79213537D01*
X112064611Y-79211535D01*
X112021811Y-79210239D01*
X111964405Y-79209498D01*
X111889890Y-79209158D01*
X111795767Y-79209068D01*
X111775740Y-79209067D01*
X111676935Y-79209163D01*
G36*
X110411177Y-79214533D02*
G01*
X110379798Y-79236776D01*
X110352089Y-79264485D01*
X110352089Y-79573920D01*
X110352162Y-79665799D01*
X110352505Y-79737840D01*
X110353308Y-79792780D01*
X110354759Y-79833360D01*
X110357048Y-79862317D01*
X110360364Y-79882391D01*
X110364895Y-79896321D01*
X110370831Y-79906845D01*
X110375486Y-79913100D01*
X110406217Y-79937673D01*
X110441504Y-79940341D01*
X110473755Y-79925271D01*
X110484412Y-79916374D01*
X110491536Y-79904557D01*
X110495833Y-79885526D01*
X110498009Y-79854992D01*
X110498772Y-79808662D01*
X110498845Y-79772871D01*
X110498845Y-79638045D01*
X110995556Y-79638045D01*
X110995556Y-79760700D01*
X110996069Y-79816787D01*
X110998124Y-79855333D01*
X111002492Y-79881361D01*
X111009944Y-79899897D01*
X111018953Y-79913100D01*
X111049856Y-79937604D01*
X111084804Y-79940506D01*
X111118262Y-79923089D01*
X111127396Y-79913959D01*
X111133848Y-79901855D01*
X111138103Y-79883001D01*
X111140648Y-79853620D01*
X111141971Y-79809937D01*
X111142557Y-79748175D01*
X111142625Y-79734000D01*
X111143109Y-79617631D01*
X111143359Y-79521727D01*
X111143277Y-79444177D01*
X111142769Y-79382869D01*
X111141738Y-79335690D01*
X111140087Y-79300530D01*
X111137721Y-79275276D01*
X111134543Y-79257817D01*
X111130456Y-79246041D01*
X111125366Y-79237835D01*
X111119734Y-79231645D01*
X111087872Y-79211844D01*
X111054643Y-79214533D01*
X111023265Y-79236776D01*
X111010567Y-79251126D01*
X111002474Y-79266978D01*
X110997958Y-79289554D01*
X110995994Y-79324078D01*
X110995556Y-79375776D01*
X110995556Y-79491289D01*
X110498845Y-79491289D01*
X110498845Y-79372756D01*
X110498338Y-79318148D01*
X110496302Y-79281275D01*
X110491965Y-79257307D01*
X110484553Y-79241415D01*
X110476267Y-79231645D01*
X110444406Y-79211844D01*
X110411177Y-79214533D01*
G37*
X110411177Y-79214533D02*
X110379798Y-79236776D01*
X110352089Y-79264485D01*
X110352089Y-79573920D01*
X110352162Y-79665799D01*
X110352505Y-79737840D01*
X110353308Y-79792780D01*
X110354759Y-79833360D01*
X110357048Y-79862317D01*
X110360364Y-79882391D01*
X110364895Y-79896321D01*
X110370831Y-79906845D01*
X110375486Y-79913100D01*
X110406217Y-79937673D01*
X110441504Y-79940341D01*
X110473755Y-79925271D01*
X110484412Y-79916374D01*
X110491536Y-79904557D01*
X110495833Y-79885526D01*
X110498009Y-79854992D01*
X110498772Y-79808662D01*
X110498845Y-79772871D01*
X110498845Y-79638045D01*
X110995556Y-79638045D01*
X110995556Y-79760700D01*
X110996069Y-79816787D01*
X110998124Y-79855333D01*
X111002492Y-79881361D01*
X111009944Y-79899897D01*
X111018953Y-79913100D01*
X111049856Y-79937604D01*
X111084804Y-79940506D01*
X111118262Y-79923089D01*
X111127396Y-79913959D01*
X111133848Y-79901855D01*
X111138103Y-79883001D01*
X111140648Y-79853620D01*
X111141971Y-79809937D01*
X111142557Y-79748175D01*
X111142625Y-79734000D01*
X111143109Y-79617631D01*
X111143359Y-79521727D01*
X111143277Y-79444177D01*
X111142769Y-79382869D01*
X111141738Y-79335690D01*
X111140087Y-79300530D01*
X111137721Y-79275276D01*
X111134543Y-79257817D01*
X111130456Y-79246041D01*
X111125366Y-79237835D01*
X111119734Y-79231645D01*
X111087872Y-79211844D01*
X111054643Y-79214533D01*
X111023265Y-79236776D01*
X111010567Y-79251126D01*
X111002474Y-79266978D01*
X110997958Y-79289554D01*
X110995994Y-79324078D01*
X110995556Y-79375776D01*
X110995556Y-79491289D01*
X110498845Y-79491289D01*
X110498845Y-79372756D01*
X110498338Y-79318148D01*
X110496302Y-79281275D01*
X110491965Y-79257307D01*
X110484553Y-79241415D01*
X110476267Y-79231645D01*
X110444406Y-79211844D01*
X110411177Y-79214533D01*
%TD*%
M02*
