%TF.GenerationSoftware,KiCad,Pcbnew,(5.1.6)-1*%
%TF.CreationDate,2020-12-16T23:33:52+01:00*%
%TF.ProjectId,02_Batt_Alim,30325f42-6174-4745-9f41-6c696d2e6b69,rev?*%
%TF.SameCoordinates,Original*%
%TF.FileFunction,Legend,Bot*%
%TF.FilePolarity,Positive*%
%FSLAX46Y46*%
G04 Gerber Fmt 4.6, Leading zero omitted, Abs format (unit mm)*
G04 Created by KiCad (PCBNEW (5.1.6)-1) date 2020-12-16 23:33:52*
%MOMM*%
%LPD*%
G01*
G04 APERTURE LIST*
%TA.AperFunction,Profile*%
%ADD10C,0.050000*%
%TD*%
%ADD11C,0.300000*%
%ADD12C,0.010000*%
G04 APERTURE END LIST*
D10*
X99441000Y-54610000D02*
X99441000Y-81280000D01*
X157861000Y-54610000D02*
X99441000Y-54610000D01*
X157861000Y-81280000D02*
X157861000Y-54610000D01*
X99441000Y-81280000D02*
X157861000Y-81280000D01*
D11*
X144647428Y-69107857D02*
X144433142Y-69179285D01*
X144361714Y-69250714D01*
X144290285Y-69393571D01*
X144290285Y-69607857D01*
X144361714Y-69750714D01*
X144433142Y-69822142D01*
X144576000Y-69893571D01*
X145147428Y-69893571D01*
X145147428Y-68393571D01*
X144647428Y-68393571D01*
X144504571Y-68465000D01*
X144433142Y-68536428D01*
X144361714Y-68679285D01*
X144361714Y-68822142D01*
X144433142Y-68965000D01*
X144504571Y-69036428D01*
X144647428Y-69107857D01*
X145147428Y-69107857D01*
X143004571Y-69893571D02*
X143004571Y-69107857D01*
X143076000Y-68965000D01*
X143218857Y-68893571D01*
X143504571Y-68893571D01*
X143647428Y-68965000D01*
X143004571Y-69822142D02*
X143147428Y-69893571D01*
X143504571Y-69893571D01*
X143647428Y-69822142D01*
X143718857Y-69679285D01*
X143718857Y-69536428D01*
X143647428Y-69393571D01*
X143504571Y-69322142D01*
X143147428Y-69322142D01*
X143004571Y-69250714D01*
X142504571Y-68893571D02*
X141933142Y-68893571D01*
X142290285Y-68393571D02*
X142290285Y-69679285D01*
X142218857Y-69822142D01*
X142076000Y-69893571D01*
X141933142Y-69893571D01*
X141647428Y-68893571D02*
X141076000Y-68893571D01*
X141433142Y-68393571D02*
X141433142Y-69679285D01*
X141361714Y-69822142D01*
X141218857Y-69893571D01*
X141076000Y-69893571D01*
X140933142Y-70036428D02*
X139790285Y-70036428D01*
X139504571Y-69465000D02*
X138790285Y-69465000D01*
X139647428Y-69893571D02*
X139147428Y-68393571D01*
X138647428Y-69893571D01*
X137933142Y-69893571D02*
X138076000Y-69822142D01*
X138147428Y-69679285D01*
X138147428Y-68393571D01*
X137361714Y-69893571D02*
X137361714Y-68893571D01*
X137361714Y-68393571D02*
X137433142Y-68465000D01*
X137361714Y-68536428D01*
X137290285Y-68465000D01*
X137361714Y-68393571D01*
X137361714Y-68536428D01*
X136647428Y-69893571D02*
X136647428Y-68893571D01*
X136647428Y-69036428D02*
X136576000Y-68965000D01*
X136433142Y-68893571D01*
X136218857Y-68893571D01*
X136076000Y-68965000D01*
X136004571Y-69107857D01*
X136004571Y-69893571D01*
X136004571Y-69107857D02*
X135933142Y-68965000D01*
X135790285Y-68893571D01*
X135576000Y-68893571D01*
X135433142Y-68965000D01*
X135361714Y-69107857D01*
X135361714Y-69893571D01*
X132433142Y-68536428D02*
X132361714Y-68465000D01*
X132218857Y-68393571D01*
X131861714Y-68393571D01*
X131718857Y-68465000D01*
X131647428Y-68536428D01*
X131576000Y-68679285D01*
X131576000Y-68822142D01*
X131647428Y-69036428D01*
X132504571Y-69893571D01*
X131576000Y-69893571D01*
X130647428Y-68393571D02*
X130504571Y-68393571D01*
X130361714Y-68465000D01*
X130290285Y-68536428D01*
X130218857Y-68679285D01*
X130147428Y-68965000D01*
X130147428Y-69322142D01*
X130218857Y-69607857D01*
X130290285Y-69750714D01*
X130361714Y-69822142D01*
X130504571Y-69893571D01*
X130647428Y-69893571D01*
X130790285Y-69822142D01*
X130861714Y-69750714D01*
X130933142Y-69607857D01*
X131004571Y-69322142D01*
X131004571Y-68965000D01*
X130933142Y-68679285D01*
X130861714Y-68536428D01*
X130790285Y-68465000D01*
X130647428Y-68393571D01*
X129575999Y-68536428D02*
X129504571Y-68465000D01*
X129361714Y-68393571D01*
X129004571Y-68393571D01*
X128861714Y-68465000D01*
X128790285Y-68536428D01*
X128718857Y-68679285D01*
X128718857Y-68822142D01*
X128790285Y-69036428D01*
X129647428Y-69893571D01*
X128718857Y-69893571D01*
X127790285Y-68393571D02*
X127647428Y-68393571D01*
X127504571Y-68465000D01*
X127433142Y-68536428D01*
X127361714Y-68679285D01*
X127290285Y-68965000D01*
X127290285Y-69322142D01*
X127361714Y-69607857D01*
X127433142Y-69750714D01*
X127504571Y-69822142D01*
X127647428Y-69893571D01*
X127790285Y-69893571D01*
X127933142Y-69822142D01*
X128004571Y-69750714D01*
X128075999Y-69607857D01*
X128147428Y-69322142D01*
X128147428Y-68965000D01*
X128075999Y-68679285D01*
X128004571Y-68536428D01*
X127933142Y-68465000D01*
X127790285Y-68393571D01*
X125575999Y-68322142D02*
X126861714Y-70250714D01*
X124290285Y-69893571D02*
X125147428Y-69893571D01*
X124718857Y-69893571D02*
X124718857Y-68393571D01*
X124861714Y-68607857D01*
X125004571Y-68750714D01*
X125147428Y-68822142D01*
X123718857Y-68536428D02*
X123647428Y-68465000D01*
X123504571Y-68393571D01*
X123147428Y-68393571D01*
X123004571Y-68465000D01*
X122933142Y-68536428D01*
X122861714Y-68679285D01*
X122861714Y-68822142D01*
X122933142Y-69036428D01*
X123790285Y-69893571D01*
X122861714Y-69893571D01*
X121147428Y-68322142D02*
X122433142Y-70250714D01*
X119861714Y-69893571D02*
X120718857Y-69893571D01*
X120290285Y-69893571D02*
X120290285Y-68393571D01*
X120433142Y-68607857D01*
X120575999Y-68750714D01*
X120718857Y-68822142D01*
X118504571Y-68393571D02*
X119218857Y-68393571D01*
X119290285Y-69107857D01*
X119218857Y-69036428D01*
X119075999Y-68965000D01*
X118718857Y-68965000D01*
X118575999Y-69036428D01*
X118504571Y-69107857D01*
X118433142Y-69250714D01*
X118433142Y-69607857D01*
X118504571Y-69750714D01*
X118575999Y-69822142D01*
X118718857Y-69893571D01*
X119075999Y-69893571D01*
X119218857Y-69822142D01*
X119290285Y-69750714D01*
D12*
%TO.C,REF\u002A\u002A*%
G36*
X145240186Y-59698931D02*
G01*
X145156365Y-60143555D01*
X144847080Y-60271053D01*
X144537794Y-60398551D01*
X144166754Y-60146246D01*
X144062843Y-60075996D01*
X143968913Y-60013272D01*
X143889348Y-59960938D01*
X143828530Y-59921857D01*
X143790843Y-59898893D01*
X143780579Y-59893942D01*
X143762090Y-59906676D01*
X143722580Y-59941882D01*
X143666478Y-59995062D01*
X143598213Y-60061718D01*
X143522214Y-60137354D01*
X143442908Y-60217472D01*
X143364725Y-60297574D01*
X143292093Y-60373164D01*
X143229441Y-60439745D01*
X143181197Y-60492818D01*
X143151790Y-60527887D01*
X143144759Y-60539623D01*
X143154877Y-60561260D01*
X143183241Y-60608662D01*
X143226871Y-60677193D01*
X143282782Y-60762215D01*
X143347994Y-60859093D01*
X143385781Y-60914350D01*
X143454657Y-61015248D01*
X143515860Y-61106299D01*
X143566422Y-61182970D01*
X143603372Y-61240728D01*
X143623742Y-61275043D01*
X143626803Y-61282254D01*
X143619864Y-61302748D01*
X143600949Y-61350513D01*
X143572913Y-61418832D01*
X143538609Y-61500989D01*
X143500891Y-61590270D01*
X143462613Y-61679958D01*
X143426630Y-61763338D01*
X143395794Y-61833694D01*
X143372961Y-61884310D01*
X143360983Y-61908471D01*
X143360276Y-61909422D01*
X143341469Y-61914036D01*
X143291382Y-61924328D01*
X143215207Y-61939287D01*
X143118135Y-61957901D01*
X143005357Y-61979159D01*
X142939558Y-61991418D01*
X142819050Y-62014362D01*
X142710203Y-62036195D01*
X142618524Y-62055722D01*
X142549519Y-62071748D01*
X142508696Y-62083079D01*
X142500489Y-62086674D01*
X142492452Y-62111006D01*
X142485967Y-62165959D01*
X142481030Y-62245108D01*
X142477636Y-62342026D01*
X142475782Y-62450287D01*
X142475462Y-62563465D01*
X142476673Y-62675135D01*
X142479410Y-62778868D01*
X142483669Y-62868241D01*
X142489445Y-62936826D01*
X142496733Y-62978197D01*
X142501105Y-62986810D01*
X142527236Y-62997133D01*
X142582607Y-63011892D01*
X142659893Y-63029352D01*
X142751770Y-63047780D01*
X142783842Y-63053741D01*
X142938476Y-63082066D01*
X143060625Y-63104876D01*
X143154327Y-63123080D01*
X143223616Y-63137583D01*
X143272529Y-63149292D01*
X143305103Y-63159115D01*
X143325372Y-63167956D01*
X143337374Y-63176724D01*
X143339053Y-63178457D01*
X143355816Y-63206371D01*
X143381386Y-63260695D01*
X143413212Y-63334777D01*
X143448740Y-63421965D01*
X143485417Y-63515608D01*
X143520689Y-63609052D01*
X143552004Y-63695647D01*
X143576807Y-63768740D01*
X143592546Y-63821678D01*
X143596668Y-63847811D01*
X143596324Y-63848726D01*
X143582359Y-63870086D01*
X143550678Y-63917084D01*
X143504609Y-63984827D01*
X143447482Y-64068423D01*
X143382627Y-64162982D01*
X143364157Y-64189854D01*
X143298301Y-64287275D01*
X143240350Y-64376163D01*
X143193462Y-64451412D01*
X143160793Y-64507920D01*
X143145500Y-64540581D01*
X143144759Y-64544593D01*
X143157608Y-64565684D01*
X143193112Y-64607464D01*
X143246707Y-64665445D01*
X143313829Y-64735135D01*
X143389913Y-64812045D01*
X143470396Y-64891683D01*
X143550713Y-64969561D01*
X143626301Y-65041186D01*
X143692595Y-65102070D01*
X143745031Y-65147721D01*
X143779045Y-65173650D01*
X143788455Y-65177883D01*
X143810357Y-65167912D01*
X143855200Y-65141020D01*
X143915679Y-65101736D01*
X143962211Y-65070117D01*
X144046525Y-65012098D01*
X144146374Y-64943784D01*
X144246527Y-64875579D01*
X144300373Y-64839075D01*
X144482629Y-64715800D01*
X144635619Y-64798520D01*
X144705318Y-64834759D01*
X144764586Y-64862926D01*
X144804689Y-64878991D01*
X144814897Y-64881226D01*
X144827171Y-64864722D01*
X144851387Y-64818082D01*
X144885737Y-64745609D01*
X144928412Y-64651606D01*
X144977606Y-64540374D01*
X145031510Y-64416215D01*
X145088316Y-64283432D01*
X145146218Y-64146327D01*
X145203407Y-64009202D01*
X145258076Y-63876358D01*
X145308416Y-63752098D01*
X145352620Y-63640725D01*
X145388881Y-63546539D01*
X145415391Y-63473844D01*
X145430342Y-63426941D01*
X145432746Y-63410833D01*
X145413689Y-63390286D01*
X145371964Y-63356933D01*
X145316294Y-63317702D01*
X145311622Y-63314599D01*
X145167736Y-63199423D01*
X145051717Y-63065053D01*
X144964570Y-62915784D01*
X144907301Y-62755913D01*
X144880914Y-62589737D01*
X144886415Y-62421552D01*
X144924810Y-62255655D01*
X144997105Y-62096342D01*
X145018374Y-62061487D01*
X145129004Y-61920737D01*
X145259698Y-61807714D01*
X145405936Y-61723003D01*
X145563192Y-61667194D01*
X145726943Y-61640874D01*
X145892667Y-61644630D01*
X146055838Y-61679050D01*
X146211935Y-61744723D01*
X146356433Y-61842235D01*
X146401131Y-61881813D01*
X146514888Y-62005703D01*
X146597782Y-62136124D01*
X146654644Y-62282315D01*
X146686313Y-62427088D01*
X146694131Y-62589860D01*
X146668062Y-62753440D01*
X146610755Y-62912298D01*
X146524856Y-63060906D01*
X146413014Y-63193735D01*
X146277877Y-63305256D01*
X146260117Y-63317011D01*
X146203850Y-63355508D01*
X146161077Y-63388863D01*
X146140628Y-63410160D01*
X146140331Y-63410833D01*
X146144721Y-63433871D01*
X146162124Y-63486157D01*
X146190732Y-63563390D01*
X146228735Y-63661268D01*
X146274326Y-63775491D01*
X146325697Y-63901758D01*
X146381038Y-64035767D01*
X146438542Y-64173218D01*
X146496399Y-64309808D01*
X146552802Y-64441237D01*
X146605942Y-64563205D01*
X146654010Y-64671409D01*
X146695199Y-64761549D01*
X146727699Y-64829323D01*
X146749703Y-64870430D01*
X146758564Y-64881226D01*
X146785640Y-64872819D01*
X146836303Y-64850272D01*
X146901817Y-64817613D01*
X146937841Y-64798520D01*
X147090832Y-64715800D01*
X147273088Y-64839075D01*
X147366125Y-64902228D01*
X147467985Y-64971727D01*
X147563438Y-65037165D01*
X147611250Y-65070117D01*
X147678495Y-65115273D01*
X147735436Y-65151057D01*
X147774646Y-65172938D01*
X147787381Y-65177563D01*
X147805917Y-65165085D01*
X147846941Y-65130252D01*
X147906475Y-65076678D01*
X147980542Y-65007983D01*
X148065165Y-64927781D01*
X148118685Y-64876286D01*
X148212319Y-64784286D01*
X148293241Y-64701999D01*
X148358177Y-64632945D01*
X148403858Y-64580644D01*
X148427011Y-64548616D01*
X148429232Y-64542116D01*
X148418924Y-64517394D01*
X148390439Y-64467405D01*
X148346937Y-64397212D01*
X148291577Y-64311875D01*
X148227520Y-64216456D01*
X148209303Y-64189854D01*
X148142927Y-64093167D01*
X148083378Y-64006117D01*
X148033984Y-63933595D01*
X147998075Y-63880493D01*
X147978981Y-63851703D01*
X147977136Y-63848726D01*
X147979895Y-63825782D01*
X147994538Y-63775336D01*
X148018513Y-63704041D01*
X148049266Y-63618547D01*
X148084244Y-63525507D01*
X148120893Y-63431574D01*
X148156661Y-63343399D01*
X148188994Y-63267634D01*
X148215338Y-63210931D01*
X148233142Y-63179943D01*
X148234407Y-63178457D01*
X148245294Y-63169601D01*
X148263682Y-63160843D01*
X148293606Y-63151277D01*
X148339103Y-63139996D01*
X148404209Y-63126093D01*
X148492961Y-63108663D01*
X148609393Y-63086798D01*
X148757542Y-63059591D01*
X148789618Y-63053741D01*
X148884686Y-63035374D01*
X148967565Y-63017405D01*
X149030930Y-63001569D01*
X149067458Y-62989600D01*
X149072356Y-62986810D01*
X149080427Y-62962072D01*
X149086987Y-62906790D01*
X149092033Y-62827389D01*
X149095559Y-62730296D01*
X149097561Y-62621938D01*
X149098036Y-62508740D01*
X149096977Y-62397128D01*
X149094382Y-62293529D01*
X149090246Y-62204368D01*
X149084563Y-62136072D01*
X149077331Y-62095066D01*
X149072971Y-62086674D01*
X149048698Y-62078208D01*
X148993426Y-62064435D01*
X148912662Y-62046550D01*
X148811912Y-62025748D01*
X148696683Y-62003223D01*
X148633902Y-61991418D01*
X148514787Y-61969151D01*
X148408565Y-61948979D01*
X148320427Y-61931915D01*
X148255566Y-61918969D01*
X148219174Y-61911155D01*
X148213184Y-61909422D01*
X148203061Y-61889890D01*
X148181662Y-61842843D01*
X148151839Y-61775003D01*
X148116445Y-61693091D01*
X148078332Y-61603828D01*
X148040353Y-61513935D01*
X148005360Y-61430135D01*
X147976206Y-61359147D01*
X147955743Y-61307694D01*
X147946823Y-61282497D01*
X147946657Y-61281396D01*
X147956769Y-61261519D01*
X147985117Y-61215777D01*
X148028723Y-61148717D01*
X148084606Y-61064884D01*
X148149787Y-60968826D01*
X148187679Y-60913650D01*
X148256725Y-60812481D01*
X148318050Y-60720630D01*
X148368663Y-60642744D01*
X148405571Y-60583469D01*
X148425782Y-60547451D01*
X148428701Y-60539377D01*
X148416153Y-60520584D01*
X148381463Y-60480457D01*
X148329063Y-60423493D01*
X148263384Y-60354185D01*
X148188856Y-60277031D01*
X148109913Y-60196525D01*
X148030983Y-60117163D01*
X147956500Y-60043440D01*
X147890894Y-59979852D01*
X147838596Y-59930894D01*
X147804039Y-59901061D01*
X147792478Y-59893942D01*
X147773654Y-59903953D01*
X147728631Y-59932078D01*
X147661787Y-59975454D01*
X147577499Y-60031218D01*
X147480144Y-60096506D01*
X147406707Y-60146246D01*
X147035667Y-60398551D01*
X146417095Y-60143555D01*
X146333275Y-59698931D01*
X146249454Y-59254307D01*
X145324006Y-59254307D01*
X145240186Y-59698931D01*
G37*
X145240186Y-59698931D02*
X145156365Y-60143555D01*
X144847080Y-60271053D01*
X144537794Y-60398551D01*
X144166754Y-60146246D01*
X144062843Y-60075996D01*
X143968913Y-60013272D01*
X143889348Y-59960938D01*
X143828530Y-59921857D01*
X143790843Y-59898893D01*
X143780579Y-59893942D01*
X143762090Y-59906676D01*
X143722580Y-59941882D01*
X143666478Y-59995062D01*
X143598213Y-60061718D01*
X143522214Y-60137354D01*
X143442908Y-60217472D01*
X143364725Y-60297574D01*
X143292093Y-60373164D01*
X143229441Y-60439745D01*
X143181197Y-60492818D01*
X143151790Y-60527887D01*
X143144759Y-60539623D01*
X143154877Y-60561260D01*
X143183241Y-60608662D01*
X143226871Y-60677193D01*
X143282782Y-60762215D01*
X143347994Y-60859093D01*
X143385781Y-60914350D01*
X143454657Y-61015248D01*
X143515860Y-61106299D01*
X143566422Y-61182970D01*
X143603372Y-61240728D01*
X143623742Y-61275043D01*
X143626803Y-61282254D01*
X143619864Y-61302748D01*
X143600949Y-61350513D01*
X143572913Y-61418832D01*
X143538609Y-61500989D01*
X143500891Y-61590270D01*
X143462613Y-61679958D01*
X143426630Y-61763338D01*
X143395794Y-61833694D01*
X143372961Y-61884310D01*
X143360983Y-61908471D01*
X143360276Y-61909422D01*
X143341469Y-61914036D01*
X143291382Y-61924328D01*
X143215207Y-61939287D01*
X143118135Y-61957901D01*
X143005357Y-61979159D01*
X142939558Y-61991418D01*
X142819050Y-62014362D01*
X142710203Y-62036195D01*
X142618524Y-62055722D01*
X142549519Y-62071748D01*
X142508696Y-62083079D01*
X142500489Y-62086674D01*
X142492452Y-62111006D01*
X142485967Y-62165959D01*
X142481030Y-62245108D01*
X142477636Y-62342026D01*
X142475782Y-62450287D01*
X142475462Y-62563465D01*
X142476673Y-62675135D01*
X142479410Y-62778868D01*
X142483669Y-62868241D01*
X142489445Y-62936826D01*
X142496733Y-62978197D01*
X142501105Y-62986810D01*
X142527236Y-62997133D01*
X142582607Y-63011892D01*
X142659893Y-63029352D01*
X142751770Y-63047780D01*
X142783842Y-63053741D01*
X142938476Y-63082066D01*
X143060625Y-63104876D01*
X143154327Y-63123080D01*
X143223616Y-63137583D01*
X143272529Y-63149292D01*
X143305103Y-63159115D01*
X143325372Y-63167956D01*
X143337374Y-63176724D01*
X143339053Y-63178457D01*
X143355816Y-63206371D01*
X143381386Y-63260695D01*
X143413212Y-63334777D01*
X143448740Y-63421965D01*
X143485417Y-63515608D01*
X143520689Y-63609052D01*
X143552004Y-63695647D01*
X143576807Y-63768740D01*
X143592546Y-63821678D01*
X143596668Y-63847811D01*
X143596324Y-63848726D01*
X143582359Y-63870086D01*
X143550678Y-63917084D01*
X143504609Y-63984827D01*
X143447482Y-64068423D01*
X143382627Y-64162982D01*
X143364157Y-64189854D01*
X143298301Y-64287275D01*
X143240350Y-64376163D01*
X143193462Y-64451412D01*
X143160793Y-64507920D01*
X143145500Y-64540581D01*
X143144759Y-64544593D01*
X143157608Y-64565684D01*
X143193112Y-64607464D01*
X143246707Y-64665445D01*
X143313829Y-64735135D01*
X143389913Y-64812045D01*
X143470396Y-64891683D01*
X143550713Y-64969561D01*
X143626301Y-65041186D01*
X143692595Y-65102070D01*
X143745031Y-65147721D01*
X143779045Y-65173650D01*
X143788455Y-65177883D01*
X143810357Y-65167912D01*
X143855200Y-65141020D01*
X143915679Y-65101736D01*
X143962211Y-65070117D01*
X144046525Y-65012098D01*
X144146374Y-64943784D01*
X144246527Y-64875579D01*
X144300373Y-64839075D01*
X144482629Y-64715800D01*
X144635619Y-64798520D01*
X144705318Y-64834759D01*
X144764586Y-64862926D01*
X144804689Y-64878991D01*
X144814897Y-64881226D01*
X144827171Y-64864722D01*
X144851387Y-64818082D01*
X144885737Y-64745609D01*
X144928412Y-64651606D01*
X144977606Y-64540374D01*
X145031510Y-64416215D01*
X145088316Y-64283432D01*
X145146218Y-64146327D01*
X145203407Y-64009202D01*
X145258076Y-63876358D01*
X145308416Y-63752098D01*
X145352620Y-63640725D01*
X145388881Y-63546539D01*
X145415391Y-63473844D01*
X145430342Y-63426941D01*
X145432746Y-63410833D01*
X145413689Y-63390286D01*
X145371964Y-63356933D01*
X145316294Y-63317702D01*
X145311622Y-63314599D01*
X145167736Y-63199423D01*
X145051717Y-63065053D01*
X144964570Y-62915784D01*
X144907301Y-62755913D01*
X144880914Y-62589737D01*
X144886415Y-62421552D01*
X144924810Y-62255655D01*
X144997105Y-62096342D01*
X145018374Y-62061487D01*
X145129004Y-61920737D01*
X145259698Y-61807714D01*
X145405936Y-61723003D01*
X145563192Y-61667194D01*
X145726943Y-61640874D01*
X145892667Y-61644630D01*
X146055838Y-61679050D01*
X146211935Y-61744723D01*
X146356433Y-61842235D01*
X146401131Y-61881813D01*
X146514888Y-62005703D01*
X146597782Y-62136124D01*
X146654644Y-62282315D01*
X146686313Y-62427088D01*
X146694131Y-62589860D01*
X146668062Y-62753440D01*
X146610755Y-62912298D01*
X146524856Y-63060906D01*
X146413014Y-63193735D01*
X146277877Y-63305256D01*
X146260117Y-63317011D01*
X146203850Y-63355508D01*
X146161077Y-63388863D01*
X146140628Y-63410160D01*
X146140331Y-63410833D01*
X146144721Y-63433871D01*
X146162124Y-63486157D01*
X146190732Y-63563390D01*
X146228735Y-63661268D01*
X146274326Y-63775491D01*
X146325697Y-63901758D01*
X146381038Y-64035767D01*
X146438542Y-64173218D01*
X146496399Y-64309808D01*
X146552802Y-64441237D01*
X146605942Y-64563205D01*
X146654010Y-64671409D01*
X146695199Y-64761549D01*
X146727699Y-64829323D01*
X146749703Y-64870430D01*
X146758564Y-64881226D01*
X146785640Y-64872819D01*
X146836303Y-64850272D01*
X146901817Y-64817613D01*
X146937841Y-64798520D01*
X147090832Y-64715800D01*
X147273088Y-64839075D01*
X147366125Y-64902228D01*
X147467985Y-64971727D01*
X147563438Y-65037165D01*
X147611250Y-65070117D01*
X147678495Y-65115273D01*
X147735436Y-65151057D01*
X147774646Y-65172938D01*
X147787381Y-65177563D01*
X147805917Y-65165085D01*
X147846941Y-65130252D01*
X147906475Y-65076678D01*
X147980542Y-65007983D01*
X148065165Y-64927781D01*
X148118685Y-64876286D01*
X148212319Y-64784286D01*
X148293241Y-64701999D01*
X148358177Y-64632945D01*
X148403858Y-64580644D01*
X148427011Y-64548616D01*
X148429232Y-64542116D01*
X148418924Y-64517394D01*
X148390439Y-64467405D01*
X148346937Y-64397212D01*
X148291577Y-64311875D01*
X148227520Y-64216456D01*
X148209303Y-64189854D01*
X148142927Y-64093167D01*
X148083378Y-64006117D01*
X148033984Y-63933595D01*
X147998075Y-63880493D01*
X147978981Y-63851703D01*
X147977136Y-63848726D01*
X147979895Y-63825782D01*
X147994538Y-63775336D01*
X148018513Y-63704041D01*
X148049266Y-63618547D01*
X148084244Y-63525507D01*
X148120893Y-63431574D01*
X148156661Y-63343399D01*
X148188994Y-63267634D01*
X148215338Y-63210931D01*
X148233142Y-63179943D01*
X148234407Y-63178457D01*
X148245294Y-63169601D01*
X148263682Y-63160843D01*
X148293606Y-63151277D01*
X148339103Y-63139996D01*
X148404209Y-63126093D01*
X148492961Y-63108663D01*
X148609393Y-63086798D01*
X148757542Y-63059591D01*
X148789618Y-63053741D01*
X148884686Y-63035374D01*
X148967565Y-63017405D01*
X149030930Y-63001569D01*
X149067458Y-62989600D01*
X149072356Y-62986810D01*
X149080427Y-62962072D01*
X149086987Y-62906790D01*
X149092033Y-62827389D01*
X149095559Y-62730296D01*
X149097561Y-62621938D01*
X149098036Y-62508740D01*
X149096977Y-62397128D01*
X149094382Y-62293529D01*
X149090246Y-62204368D01*
X149084563Y-62136072D01*
X149077331Y-62095066D01*
X149072971Y-62086674D01*
X149048698Y-62078208D01*
X148993426Y-62064435D01*
X148912662Y-62046550D01*
X148811912Y-62025748D01*
X148696683Y-62003223D01*
X148633902Y-61991418D01*
X148514787Y-61969151D01*
X148408565Y-61948979D01*
X148320427Y-61931915D01*
X148255566Y-61918969D01*
X148219174Y-61911155D01*
X148213184Y-61909422D01*
X148203061Y-61889890D01*
X148181662Y-61842843D01*
X148151839Y-61775003D01*
X148116445Y-61693091D01*
X148078332Y-61603828D01*
X148040353Y-61513935D01*
X148005360Y-61430135D01*
X147976206Y-61359147D01*
X147955743Y-61307694D01*
X147946823Y-61282497D01*
X147946657Y-61281396D01*
X147956769Y-61261519D01*
X147985117Y-61215777D01*
X148028723Y-61148717D01*
X148084606Y-61064884D01*
X148149787Y-60968826D01*
X148187679Y-60913650D01*
X148256725Y-60812481D01*
X148318050Y-60720630D01*
X148368663Y-60642744D01*
X148405571Y-60583469D01*
X148425782Y-60547451D01*
X148428701Y-60539377D01*
X148416153Y-60520584D01*
X148381463Y-60480457D01*
X148329063Y-60423493D01*
X148263384Y-60354185D01*
X148188856Y-60277031D01*
X148109913Y-60196525D01*
X148030983Y-60117163D01*
X147956500Y-60043440D01*
X147890894Y-59979852D01*
X147838596Y-59930894D01*
X147804039Y-59901061D01*
X147792478Y-59893942D01*
X147773654Y-59903953D01*
X147728631Y-59932078D01*
X147661787Y-59975454D01*
X147577499Y-60031218D01*
X147480144Y-60096506D01*
X147406707Y-60146246D01*
X147035667Y-60398551D01*
X146417095Y-60143555D01*
X146333275Y-59698931D01*
X146249454Y-59254307D01*
X145324006Y-59254307D01*
X145240186Y-59698931D01*
G36*
X123977400Y-74324054D02*
G01*
X123966535Y-74437993D01*
X123934918Y-74545616D01*
X123884015Y-74644615D01*
X123815293Y-74732684D01*
X123730219Y-74807516D01*
X123633232Y-74865384D01*
X123526964Y-74905005D01*
X123419950Y-74923573D01*
X123314300Y-74922434D01*
X123212125Y-74902930D01*
X123115534Y-74866406D01*
X123026638Y-74814205D01*
X122947546Y-74747673D01*
X122880369Y-74668152D01*
X122827217Y-74576987D01*
X122790199Y-74475523D01*
X122771427Y-74365102D01*
X122769489Y-74315206D01*
X122769489Y-74227267D01*
X122717560Y-74227267D01*
X122681253Y-74230111D01*
X122654355Y-74241911D01*
X122627249Y-74265649D01*
X122588867Y-74304031D01*
X122588867Y-76495602D01*
X122588876Y-76757739D01*
X122588908Y-76998241D01*
X122588972Y-77218048D01*
X122589076Y-77418101D01*
X122589227Y-77599344D01*
X122589434Y-77762716D01*
X122589706Y-77909160D01*
X122590050Y-78039617D01*
X122590474Y-78155029D01*
X122590987Y-78256338D01*
X122591597Y-78344484D01*
X122592312Y-78420410D01*
X122593140Y-78485057D01*
X122594089Y-78539367D01*
X122595167Y-78584280D01*
X122596383Y-78620740D01*
X122597745Y-78649687D01*
X122599261Y-78672063D01*
X122600938Y-78688809D01*
X122602786Y-78700868D01*
X122604813Y-78709180D01*
X122607025Y-78714687D01*
X122608108Y-78716537D01*
X122612271Y-78723549D01*
X122615805Y-78729996D01*
X122619635Y-78735900D01*
X122624682Y-78741286D01*
X122631871Y-78746178D01*
X122642123Y-78750598D01*
X122656364Y-78754572D01*
X122675514Y-78758121D01*
X122700499Y-78761270D01*
X122732240Y-78764042D01*
X122771662Y-78766461D01*
X122819686Y-78768551D01*
X122877237Y-78770335D01*
X122945237Y-78771837D01*
X123024610Y-78773080D01*
X123116279Y-78774089D01*
X123221166Y-78774885D01*
X123340196Y-78775494D01*
X123474290Y-78775939D01*
X123624373Y-78776243D01*
X123791367Y-78776430D01*
X123976196Y-78776524D01*
X124179783Y-78776548D01*
X124403050Y-78776525D01*
X124646922Y-78776480D01*
X124912321Y-78776437D01*
X124950704Y-78776432D01*
X125217682Y-78776389D01*
X125463002Y-78776318D01*
X125687583Y-78776213D01*
X125892345Y-78776066D01*
X126078206Y-78775869D01*
X126246088Y-78775616D01*
X126396908Y-78775300D01*
X126531587Y-78774913D01*
X126651044Y-78774447D01*
X126756199Y-78773897D01*
X126847971Y-78773253D01*
X126927279Y-78772511D01*
X126995043Y-78771661D01*
X127052182Y-78770697D01*
X127099617Y-78769611D01*
X127138266Y-78768397D01*
X127169049Y-78767047D01*
X127192885Y-78765555D01*
X127210694Y-78763911D01*
X127223395Y-78762111D01*
X127231908Y-78760145D01*
X127236266Y-78758477D01*
X127244728Y-78754906D01*
X127252497Y-78752270D01*
X127259602Y-78749634D01*
X127266073Y-78746062D01*
X127271939Y-78740621D01*
X127277229Y-78732375D01*
X127281974Y-78720390D01*
X127286202Y-78703731D01*
X127289943Y-78681463D01*
X127293227Y-78652652D01*
X127296083Y-78616363D01*
X127298540Y-78571661D01*
X127300629Y-78517611D01*
X127302378Y-78453279D01*
X127303817Y-78377730D01*
X127304976Y-78290030D01*
X127305883Y-78189243D01*
X127306569Y-78074434D01*
X127307063Y-77944670D01*
X127307395Y-77799015D01*
X127307593Y-77636535D01*
X127307687Y-77456295D01*
X127307708Y-77257360D01*
X127307685Y-77038796D01*
X127307646Y-76799668D01*
X127307622Y-76539040D01*
X127307622Y-76496889D01*
X127307636Y-76233992D01*
X127307661Y-75992732D01*
X127307671Y-75772165D01*
X127307642Y-75571352D01*
X127307548Y-75389349D01*
X127307362Y-75225216D01*
X127307059Y-75078011D01*
X127306614Y-74946792D01*
X127306034Y-74836867D01*
X127003197Y-74836867D01*
X126963407Y-74894711D01*
X126952236Y-74910479D01*
X126942166Y-74924441D01*
X126933138Y-74937784D01*
X126925097Y-74951693D01*
X126917986Y-74967356D01*
X126911747Y-74985958D01*
X126906325Y-75008686D01*
X126901662Y-75036727D01*
X126897701Y-75071267D01*
X126894385Y-75113492D01*
X126891659Y-75164589D01*
X126889464Y-75225744D01*
X126887745Y-75298144D01*
X126886444Y-75382975D01*
X126885505Y-75481422D01*
X126884870Y-75594674D01*
X126884484Y-75723916D01*
X126884288Y-75870334D01*
X126884227Y-76035116D01*
X126884243Y-76219447D01*
X126884280Y-76424513D01*
X126884289Y-76547133D01*
X126884265Y-76764082D01*
X126884231Y-76959642D01*
X126884243Y-77134999D01*
X126884358Y-77291341D01*
X126884630Y-77429857D01*
X126885118Y-77551734D01*
X126885876Y-77658160D01*
X126886962Y-77750322D01*
X126888431Y-77829409D01*
X126890340Y-77896608D01*
X126892744Y-77953107D01*
X126895701Y-78000093D01*
X126899266Y-78038755D01*
X126903495Y-78070280D01*
X126908446Y-78095855D01*
X126914173Y-78116670D01*
X126920733Y-78133911D01*
X126928183Y-78148765D01*
X126936579Y-78162422D01*
X126945976Y-78176069D01*
X126956432Y-78190893D01*
X126962523Y-78199783D01*
X127001296Y-78257400D01*
X126469732Y-78257400D01*
X126346483Y-78257365D01*
X126243987Y-78257215D01*
X126160420Y-78256878D01*
X126093956Y-78256286D01*
X126042771Y-78255367D01*
X126005041Y-78254051D01*
X125978940Y-78252269D01*
X125962644Y-78249951D01*
X125954328Y-78247026D01*
X125952168Y-78243424D01*
X125954339Y-78239075D01*
X125955535Y-78237645D01*
X125980685Y-78200573D01*
X126006583Y-78147772D01*
X126030192Y-78085770D01*
X126038461Y-78059357D01*
X126043078Y-78041416D01*
X126046979Y-78020355D01*
X126050248Y-77994089D01*
X126052966Y-77960532D01*
X126055215Y-77917599D01*
X126057077Y-77863204D01*
X126058636Y-77795262D01*
X126059972Y-77711688D01*
X126061169Y-77610395D01*
X126062308Y-77489300D01*
X126062685Y-77444600D01*
X126063702Y-77319449D01*
X126064460Y-77215082D01*
X126064903Y-77129707D01*
X126064970Y-77061533D01*
X126064605Y-77008765D01*
X126063748Y-76969614D01*
X126062341Y-76942285D01*
X126060325Y-76924986D01*
X126057643Y-76915926D01*
X126054236Y-76913312D01*
X126050044Y-76915351D01*
X126045571Y-76919667D01*
X126035216Y-76932602D01*
X126013158Y-76961676D01*
X125980957Y-77004759D01*
X125940174Y-77059718D01*
X125892370Y-77124423D01*
X125839105Y-77196742D01*
X125781940Y-77274544D01*
X125722437Y-77355698D01*
X125662155Y-77438072D01*
X125602655Y-77519536D01*
X125545498Y-77597957D01*
X125492245Y-77671204D01*
X125444457Y-77737147D01*
X125403693Y-77793654D01*
X125371516Y-77838593D01*
X125349485Y-77869834D01*
X125344917Y-77876466D01*
X125321996Y-77913369D01*
X125295188Y-77961359D01*
X125269789Y-78010897D01*
X125266568Y-78017577D01*
X125244890Y-78065772D01*
X125232304Y-78103334D01*
X125226574Y-78139160D01*
X125225456Y-78181200D01*
X125226090Y-78257400D01*
X124071651Y-78257400D01*
X124162815Y-78163669D01*
X124209612Y-78113775D01*
X124259899Y-78057295D01*
X124305944Y-78003026D01*
X124326369Y-77977673D01*
X124356807Y-77938128D01*
X124396862Y-77884916D01*
X124445361Y-77819667D01*
X124501135Y-77744011D01*
X124563011Y-77659577D01*
X124629819Y-77567994D01*
X124700387Y-77470892D01*
X124773545Y-77369901D01*
X124848121Y-77266650D01*
X124922944Y-77162768D01*
X124996843Y-77059885D01*
X125068646Y-76959631D01*
X125137184Y-76863636D01*
X125201284Y-76773527D01*
X125259775Y-76690936D01*
X125311486Y-76617492D01*
X125355247Y-76554824D01*
X125389885Y-76504561D01*
X125414230Y-76468334D01*
X125427111Y-76447771D01*
X125428869Y-76443668D01*
X125420910Y-76432342D01*
X125400115Y-76405162D01*
X125367847Y-76363829D01*
X125325470Y-76310044D01*
X125274347Y-76245506D01*
X125215841Y-76171918D01*
X125151314Y-76090978D01*
X125082131Y-76004388D01*
X125009653Y-75913848D01*
X124935246Y-75821060D01*
X124875517Y-75746702D01*
X123864511Y-75746702D01*
X123858602Y-75759659D01*
X123844272Y-75781908D01*
X123843225Y-75783391D01*
X123824438Y-75813544D01*
X123804791Y-75850375D01*
X123800892Y-75858511D01*
X123797356Y-75866940D01*
X123794230Y-75877059D01*
X123791486Y-75890260D01*
X123789092Y-75907938D01*
X123787019Y-75931484D01*
X123785235Y-75962293D01*
X123783712Y-76001757D01*
X123782419Y-76051269D01*
X123781326Y-76112223D01*
X123780403Y-76186011D01*
X123779619Y-76274028D01*
X123778945Y-76377665D01*
X123778350Y-76498316D01*
X123777805Y-76637374D01*
X123777279Y-76796232D01*
X123776745Y-76975089D01*
X123776206Y-77160207D01*
X123775772Y-77324145D01*
X123775509Y-77468303D01*
X123775484Y-77594079D01*
X123775765Y-77702871D01*
X123776419Y-77796077D01*
X123777514Y-77875097D01*
X123779118Y-77941328D01*
X123781297Y-77996170D01*
X123784119Y-78041021D01*
X123787651Y-78077278D01*
X123791961Y-78106341D01*
X123797117Y-78129609D01*
X123803185Y-78148479D01*
X123810233Y-78164351D01*
X123818329Y-78178622D01*
X123827540Y-78192691D01*
X123836040Y-78205158D01*
X123853176Y-78231452D01*
X123863322Y-78249037D01*
X123864511Y-78252257D01*
X123853604Y-78253334D01*
X123822411Y-78254335D01*
X123773223Y-78255235D01*
X123708333Y-78256010D01*
X123630030Y-78256637D01*
X123540607Y-78257091D01*
X123442356Y-78257349D01*
X123373445Y-78257400D01*
X123268452Y-78257180D01*
X123171610Y-78256548D01*
X123085107Y-78255549D01*
X123011132Y-78254227D01*
X122951874Y-78252626D01*
X122909520Y-78250791D01*
X122886260Y-78248765D01*
X122882378Y-78247493D01*
X122890076Y-78232591D01*
X122898074Y-78224560D01*
X122911246Y-78207434D01*
X122928485Y-78177183D01*
X122940407Y-78152622D01*
X122967045Y-78093711D01*
X122970120Y-76916845D01*
X122973195Y-75739978D01*
X123418853Y-75739978D01*
X123516670Y-75740142D01*
X123607064Y-75740611D01*
X123687630Y-75741347D01*
X123755962Y-75742316D01*
X123809656Y-75743480D01*
X123846305Y-75744803D01*
X123863504Y-75746249D01*
X123864511Y-75746702D01*
X124875517Y-75746702D01*
X124860270Y-75727722D01*
X124786090Y-75635537D01*
X124714069Y-75546204D01*
X124645569Y-75461424D01*
X124581955Y-75382898D01*
X124524588Y-75312326D01*
X124474833Y-75251409D01*
X124434052Y-75201847D01*
X124416888Y-75181178D01*
X124330596Y-75080516D01*
X124253997Y-74997259D01*
X124185183Y-74929438D01*
X124122248Y-74875089D01*
X124112867Y-74867722D01*
X124073356Y-74837117D01*
X125205116Y-74836867D01*
X125199827Y-74884844D01*
X125203130Y-74942188D01*
X125224661Y-75010463D01*
X125264635Y-75090212D01*
X125309943Y-75162495D01*
X125326161Y-75185140D01*
X125354214Y-75222696D01*
X125392430Y-75273021D01*
X125439137Y-75333973D01*
X125492661Y-75403411D01*
X125551331Y-75479194D01*
X125613475Y-75559180D01*
X125677421Y-75641228D01*
X125741495Y-75723196D01*
X125804027Y-75802943D01*
X125863343Y-75878327D01*
X125917771Y-75947207D01*
X125965639Y-76007442D01*
X126005275Y-76056889D01*
X126035006Y-76093408D01*
X126053161Y-76114858D01*
X126056220Y-76118156D01*
X126059079Y-76110149D01*
X126061293Y-76079855D01*
X126062857Y-76027556D01*
X126063767Y-75953531D01*
X126064020Y-75858063D01*
X126063613Y-75741434D01*
X126062704Y-75621445D01*
X126061382Y-75489333D01*
X126059857Y-75377594D01*
X126057881Y-75284025D01*
X126055206Y-75206419D01*
X126051582Y-75142574D01*
X126046761Y-75090283D01*
X126040494Y-75047344D01*
X126032532Y-75011551D01*
X126022627Y-74980700D01*
X126010531Y-74952586D01*
X125995993Y-74925005D01*
X125981311Y-74899966D01*
X125943314Y-74836867D01*
X127003197Y-74836867D01*
X127306034Y-74836867D01*
X127306001Y-74830617D01*
X127305195Y-74728544D01*
X127304170Y-74639633D01*
X127302900Y-74562941D01*
X127301360Y-74497527D01*
X127299524Y-74442449D01*
X127297367Y-74396765D01*
X127294863Y-74359534D01*
X127291987Y-74329813D01*
X127288713Y-74306662D01*
X127285015Y-74289139D01*
X127280869Y-74276301D01*
X127276247Y-74267208D01*
X127271126Y-74260918D01*
X127265478Y-74256488D01*
X127259279Y-74252978D01*
X127252504Y-74249445D01*
X127246508Y-74245876D01*
X127241275Y-74243300D01*
X127233099Y-74240972D01*
X127220886Y-74238878D01*
X127203541Y-74237007D01*
X127179969Y-74235347D01*
X127149077Y-74233884D01*
X127109768Y-74232608D01*
X127060950Y-74231504D01*
X127001527Y-74230561D01*
X126930404Y-74229767D01*
X126846488Y-74229109D01*
X126748683Y-74228575D01*
X126635894Y-74228153D01*
X126507029Y-74227829D01*
X126360991Y-74227592D01*
X126196686Y-74227430D01*
X126013020Y-74227330D01*
X125808897Y-74227280D01*
X125597753Y-74227267D01*
X123977400Y-74227267D01*
X123977400Y-74324054D01*
G37*
X123977400Y-74324054D02*
X123966535Y-74437993D01*
X123934918Y-74545616D01*
X123884015Y-74644615D01*
X123815293Y-74732684D01*
X123730219Y-74807516D01*
X123633232Y-74865384D01*
X123526964Y-74905005D01*
X123419950Y-74923573D01*
X123314300Y-74922434D01*
X123212125Y-74902930D01*
X123115534Y-74866406D01*
X123026638Y-74814205D01*
X122947546Y-74747673D01*
X122880369Y-74668152D01*
X122827217Y-74576987D01*
X122790199Y-74475523D01*
X122771427Y-74365102D01*
X122769489Y-74315206D01*
X122769489Y-74227267D01*
X122717560Y-74227267D01*
X122681253Y-74230111D01*
X122654355Y-74241911D01*
X122627249Y-74265649D01*
X122588867Y-74304031D01*
X122588867Y-76495602D01*
X122588876Y-76757739D01*
X122588908Y-76998241D01*
X122588972Y-77218048D01*
X122589076Y-77418101D01*
X122589227Y-77599344D01*
X122589434Y-77762716D01*
X122589706Y-77909160D01*
X122590050Y-78039617D01*
X122590474Y-78155029D01*
X122590987Y-78256338D01*
X122591597Y-78344484D01*
X122592312Y-78420410D01*
X122593140Y-78485057D01*
X122594089Y-78539367D01*
X122595167Y-78584280D01*
X122596383Y-78620740D01*
X122597745Y-78649687D01*
X122599261Y-78672063D01*
X122600938Y-78688809D01*
X122602786Y-78700868D01*
X122604813Y-78709180D01*
X122607025Y-78714687D01*
X122608108Y-78716537D01*
X122612271Y-78723549D01*
X122615805Y-78729996D01*
X122619635Y-78735900D01*
X122624682Y-78741286D01*
X122631871Y-78746178D01*
X122642123Y-78750598D01*
X122656364Y-78754572D01*
X122675514Y-78758121D01*
X122700499Y-78761270D01*
X122732240Y-78764042D01*
X122771662Y-78766461D01*
X122819686Y-78768551D01*
X122877237Y-78770335D01*
X122945237Y-78771837D01*
X123024610Y-78773080D01*
X123116279Y-78774089D01*
X123221166Y-78774885D01*
X123340196Y-78775494D01*
X123474290Y-78775939D01*
X123624373Y-78776243D01*
X123791367Y-78776430D01*
X123976196Y-78776524D01*
X124179783Y-78776548D01*
X124403050Y-78776525D01*
X124646922Y-78776480D01*
X124912321Y-78776437D01*
X124950704Y-78776432D01*
X125217682Y-78776389D01*
X125463002Y-78776318D01*
X125687583Y-78776213D01*
X125892345Y-78776066D01*
X126078206Y-78775869D01*
X126246088Y-78775616D01*
X126396908Y-78775300D01*
X126531587Y-78774913D01*
X126651044Y-78774447D01*
X126756199Y-78773897D01*
X126847971Y-78773253D01*
X126927279Y-78772511D01*
X126995043Y-78771661D01*
X127052182Y-78770697D01*
X127099617Y-78769611D01*
X127138266Y-78768397D01*
X127169049Y-78767047D01*
X127192885Y-78765555D01*
X127210694Y-78763911D01*
X127223395Y-78762111D01*
X127231908Y-78760145D01*
X127236266Y-78758477D01*
X127244728Y-78754906D01*
X127252497Y-78752270D01*
X127259602Y-78749634D01*
X127266073Y-78746062D01*
X127271939Y-78740621D01*
X127277229Y-78732375D01*
X127281974Y-78720390D01*
X127286202Y-78703731D01*
X127289943Y-78681463D01*
X127293227Y-78652652D01*
X127296083Y-78616363D01*
X127298540Y-78571661D01*
X127300629Y-78517611D01*
X127302378Y-78453279D01*
X127303817Y-78377730D01*
X127304976Y-78290030D01*
X127305883Y-78189243D01*
X127306569Y-78074434D01*
X127307063Y-77944670D01*
X127307395Y-77799015D01*
X127307593Y-77636535D01*
X127307687Y-77456295D01*
X127307708Y-77257360D01*
X127307685Y-77038796D01*
X127307646Y-76799668D01*
X127307622Y-76539040D01*
X127307622Y-76496889D01*
X127307636Y-76233992D01*
X127307661Y-75992732D01*
X127307671Y-75772165D01*
X127307642Y-75571352D01*
X127307548Y-75389349D01*
X127307362Y-75225216D01*
X127307059Y-75078011D01*
X127306614Y-74946792D01*
X127306034Y-74836867D01*
X127003197Y-74836867D01*
X126963407Y-74894711D01*
X126952236Y-74910479D01*
X126942166Y-74924441D01*
X126933138Y-74937784D01*
X126925097Y-74951693D01*
X126917986Y-74967356D01*
X126911747Y-74985958D01*
X126906325Y-75008686D01*
X126901662Y-75036727D01*
X126897701Y-75071267D01*
X126894385Y-75113492D01*
X126891659Y-75164589D01*
X126889464Y-75225744D01*
X126887745Y-75298144D01*
X126886444Y-75382975D01*
X126885505Y-75481422D01*
X126884870Y-75594674D01*
X126884484Y-75723916D01*
X126884288Y-75870334D01*
X126884227Y-76035116D01*
X126884243Y-76219447D01*
X126884280Y-76424513D01*
X126884289Y-76547133D01*
X126884265Y-76764082D01*
X126884231Y-76959642D01*
X126884243Y-77134999D01*
X126884358Y-77291341D01*
X126884630Y-77429857D01*
X126885118Y-77551734D01*
X126885876Y-77658160D01*
X126886962Y-77750322D01*
X126888431Y-77829409D01*
X126890340Y-77896608D01*
X126892744Y-77953107D01*
X126895701Y-78000093D01*
X126899266Y-78038755D01*
X126903495Y-78070280D01*
X126908446Y-78095855D01*
X126914173Y-78116670D01*
X126920733Y-78133911D01*
X126928183Y-78148765D01*
X126936579Y-78162422D01*
X126945976Y-78176069D01*
X126956432Y-78190893D01*
X126962523Y-78199783D01*
X127001296Y-78257400D01*
X126469732Y-78257400D01*
X126346483Y-78257365D01*
X126243987Y-78257215D01*
X126160420Y-78256878D01*
X126093956Y-78256286D01*
X126042771Y-78255367D01*
X126005041Y-78254051D01*
X125978940Y-78252269D01*
X125962644Y-78249951D01*
X125954328Y-78247026D01*
X125952168Y-78243424D01*
X125954339Y-78239075D01*
X125955535Y-78237645D01*
X125980685Y-78200573D01*
X126006583Y-78147772D01*
X126030192Y-78085770D01*
X126038461Y-78059357D01*
X126043078Y-78041416D01*
X126046979Y-78020355D01*
X126050248Y-77994089D01*
X126052966Y-77960532D01*
X126055215Y-77917599D01*
X126057077Y-77863204D01*
X126058636Y-77795262D01*
X126059972Y-77711688D01*
X126061169Y-77610395D01*
X126062308Y-77489300D01*
X126062685Y-77444600D01*
X126063702Y-77319449D01*
X126064460Y-77215082D01*
X126064903Y-77129707D01*
X126064970Y-77061533D01*
X126064605Y-77008765D01*
X126063748Y-76969614D01*
X126062341Y-76942285D01*
X126060325Y-76924986D01*
X126057643Y-76915926D01*
X126054236Y-76913312D01*
X126050044Y-76915351D01*
X126045571Y-76919667D01*
X126035216Y-76932602D01*
X126013158Y-76961676D01*
X125980957Y-77004759D01*
X125940174Y-77059718D01*
X125892370Y-77124423D01*
X125839105Y-77196742D01*
X125781940Y-77274544D01*
X125722437Y-77355698D01*
X125662155Y-77438072D01*
X125602655Y-77519536D01*
X125545498Y-77597957D01*
X125492245Y-77671204D01*
X125444457Y-77737147D01*
X125403693Y-77793654D01*
X125371516Y-77838593D01*
X125349485Y-77869834D01*
X125344917Y-77876466D01*
X125321996Y-77913369D01*
X125295188Y-77961359D01*
X125269789Y-78010897D01*
X125266568Y-78017577D01*
X125244890Y-78065772D01*
X125232304Y-78103334D01*
X125226574Y-78139160D01*
X125225456Y-78181200D01*
X125226090Y-78257400D01*
X124071651Y-78257400D01*
X124162815Y-78163669D01*
X124209612Y-78113775D01*
X124259899Y-78057295D01*
X124305944Y-78003026D01*
X124326369Y-77977673D01*
X124356807Y-77938128D01*
X124396862Y-77884916D01*
X124445361Y-77819667D01*
X124501135Y-77744011D01*
X124563011Y-77659577D01*
X124629819Y-77567994D01*
X124700387Y-77470892D01*
X124773545Y-77369901D01*
X124848121Y-77266650D01*
X124922944Y-77162768D01*
X124996843Y-77059885D01*
X125068646Y-76959631D01*
X125137184Y-76863636D01*
X125201284Y-76773527D01*
X125259775Y-76690936D01*
X125311486Y-76617492D01*
X125355247Y-76554824D01*
X125389885Y-76504561D01*
X125414230Y-76468334D01*
X125427111Y-76447771D01*
X125428869Y-76443668D01*
X125420910Y-76432342D01*
X125400115Y-76405162D01*
X125367847Y-76363829D01*
X125325470Y-76310044D01*
X125274347Y-76245506D01*
X125215841Y-76171918D01*
X125151314Y-76090978D01*
X125082131Y-76004388D01*
X125009653Y-75913848D01*
X124935246Y-75821060D01*
X124875517Y-75746702D01*
X123864511Y-75746702D01*
X123858602Y-75759659D01*
X123844272Y-75781908D01*
X123843225Y-75783391D01*
X123824438Y-75813544D01*
X123804791Y-75850375D01*
X123800892Y-75858511D01*
X123797356Y-75866940D01*
X123794230Y-75877059D01*
X123791486Y-75890260D01*
X123789092Y-75907938D01*
X123787019Y-75931484D01*
X123785235Y-75962293D01*
X123783712Y-76001757D01*
X123782419Y-76051269D01*
X123781326Y-76112223D01*
X123780403Y-76186011D01*
X123779619Y-76274028D01*
X123778945Y-76377665D01*
X123778350Y-76498316D01*
X123777805Y-76637374D01*
X123777279Y-76796232D01*
X123776745Y-76975089D01*
X123776206Y-77160207D01*
X123775772Y-77324145D01*
X123775509Y-77468303D01*
X123775484Y-77594079D01*
X123775765Y-77702871D01*
X123776419Y-77796077D01*
X123777514Y-77875097D01*
X123779118Y-77941328D01*
X123781297Y-77996170D01*
X123784119Y-78041021D01*
X123787651Y-78077278D01*
X123791961Y-78106341D01*
X123797117Y-78129609D01*
X123803185Y-78148479D01*
X123810233Y-78164351D01*
X123818329Y-78178622D01*
X123827540Y-78192691D01*
X123836040Y-78205158D01*
X123853176Y-78231452D01*
X123863322Y-78249037D01*
X123864511Y-78252257D01*
X123853604Y-78253334D01*
X123822411Y-78254335D01*
X123773223Y-78255235D01*
X123708333Y-78256010D01*
X123630030Y-78256637D01*
X123540607Y-78257091D01*
X123442356Y-78257349D01*
X123373445Y-78257400D01*
X123268452Y-78257180D01*
X123171610Y-78256548D01*
X123085107Y-78255549D01*
X123011132Y-78254227D01*
X122951874Y-78252626D01*
X122909520Y-78250791D01*
X122886260Y-78248765D01*
X122882378Y-78247493D01*
X122890076Y-78232591D01*
X122898074Y-78224560D01*
X122911246Y-78207434D01*
X122928485Y-78177183D01*
X122940407Y-78152622D01*
X122967045Y-78093711D01*
X122970120Y-76916845D01*
X122973195Y-75739978D01*
X123418853Y-75739978D01*
X123516670Y-75740142D01*
X123607064Y-75740611D01*
X123687630Y-75741347D01*
X123755962Y-75742316D01*
X123809656Y-75743480D01*
X123846305Y-75744803D01*
X123863504Y-75746249D01*
X123864511Y-75746702D01*
X124875517Y-75746702D01*
X124860270Y-75727722D01*
X124786090Y-75635537D01*
X124714069Y-75546204D01*
X124645569Y-75461424D01*
X124581955Y-75382898D01*
X124524588Y-75312326D01*
X124474833Y-75251409D01*
X124434052Y-75201847D01*
X124416888Y-75181178D01*
X124330596Y-75080516D01*
X124253997Y-74997259D01*
X124185183Y-74929438D01*
X124122248Y-74875089D01*
X124112867Y-74867722D01*
X124073356Y-74837117D01*
X125205116Y-74836867D01*
X125199827Y-74884844D01*
X125203130Y-74942188D01*
X125224661Y-75010463D01*
X125264635Y-75090212D01*
X125309943Y-75162495D01*
X125326161Y-75185140D01*
X125354214Y-75222696D01*
X125392430Y-75273021D01*
X125439137Y-75333973D01*
X125492661Y-75403411D01*
X125551331Y-75479194D01*
X125613475Y-75559180D01*
X125677421Y-75641228D01*
X125741495Y-75723196D01*
X125804027Y-75802943D01*
X125863343Y-75878327D01*
X125917771Y-75947207D01*
X125965639Y-76007442D01*
X126005275Y-76056889D01*
X126035006Y-76093408D01*
X126053161Y-76114858D01*
X126056220Y-76118156D01*
X126059079Y-76110149D01*
X126061293Y-76079855D01*
X126062857Y-76027556D01*
X126063767Y-75953531D01*
X126064020Y-75858063D01*
X126063613Y-75741434D01*
X126062704Y-75621445D01*
X126061382Y-75489333D01*
X126059857Y-75377594D01*
X126057881Y-75284025D01*
X126055206Y-75206419D01*
X126051582Y-75142574D01*
X126046761Y-75090283D01*
X126040494Y-75047344D01*
X126032532Y-75011551D01*
X126022627Y-74980700D01*
X126010531Y-74952586D01*
X125995993Y-74925005D01*
X125981311Y-74899966D01*
X125943314Y-74836867D01*
X127003197Y-74836867D01*
X127306034Y-74836867D01*
X127306001Y-74830617D01*
X127305195Y-74728544D01*
X127304170Y-74639633D01*
X127302900Y-74562941D01*
X127301360Y-74497527D01*
X127299524Y-74442449D01*
X127297367Y-74396765D01*
X127294863Y-74359534D01*
X127291987Y-74329813D01*
X127288713Y-74306662D01*
X127285015Y-74289139D01*
X127280869Y-74276301D01*
X127276247Y-74267208D01*
X127271126Y-74260918D01*
X127265478Y-74256488D01*
X127259279Y-74252978D01*
X127252504Y-74249445D01*
X127246508Y-74245876D01*
X127241275Y-74243300D01*
X127233099Y-74240972D01*
X127220886Y-74238878D01*
X127203541Y-74237007D01*
X127179969Y-74235347D01*
X127149077Y-74233884D01*
X127109768Y-74232608D01*
X127060950Y-74231504D01*
X127001527Y-74230561D01*
X126930404Y-74229767D01*
X126846488Y-74229109D01*
X126748683Y-74228575D01*
X126635894Y-74228153D01*
X126507029Y-74227829D01*
X126360991Y-74227592D01*
X126196686Y-74227430D01*
X126013020Y-74227330D01*
X125808897Y-74227280D01*
X125597753Y-74227267D01*
X123977400Y-74227267D01*
X123977400Y-74324054D01*
G36*
X120702571Y-74784071D02*
G01*
X120542430Y-74805245D01*
X120378490Y-74845385D01*
X120208687Y-74904889D01*
X120030957Y-74984154D01*
X120019690Y-74989699D01*
X119961995Y-75017725D01*
X119910448Y-75041802D01*
X119868809Y-75060249D01*
X119840838Y-75071386D01*
X119831267Y-75073933D01*
X119812050Y-75078941D01*
X119807439Y-75083147D01*
X119812542Y-75093580D01*
X119828582Y-75119868D01*
X119853712Y-75159257D01*
X119886086Y-75208991D01*
X119923857Y-75266315D01*
X119965178Y-75328476D01*
X120008202Y-75392718D01*
X120051083Y-75456285D01*
X120091974Y-75516425D01*
X120129029Y-75570380D01*
X120160400Y-75615397D01*
X120184241Y-75648721D01*
X120198706Y-75667597D01*
X120200691Y-75669787D01*
X120210809Y-75665138D01*
X120233150Y-75647962D01*
X120263720Y-75621440D01*
X120279464Y-75606964D01*
X120375953Y-75531682D01*
X120482664Y-75476241D01*
X120598168Y-75441141D01*
X120721038Y-75426880D01*
X120790439Y-75428051D01*
X120911577Y-75445212D01*
X121020795Y-75481094D01*
X121118418Y-75535959D01*
X121204772Y-75610070D01*
X121280185Y-75703688D01*
X121344982Y-75817076D01*
X121382399Y-75903667D01*
X121426252Y-76039366D01*
X121458572Y-76186850D01*
X121479443Y-76342314D01*
X121488949Y-76501956D01*
X121487173Y-76661973D01*
X121474197Y-76818561D01*
X121450106Y-76967918D01*
X121414982Y-77106240D01*
X121368908Y-77229724D01*
X121352627Y-77263978D01*
X121284380Y-77378064D01*
X121203921Y-77474557D01*
X121112430Y-77552670D01*
X121011089Y-77611617D01*
X120901080Y-77650612D01*
X120783585Y-77668868D01*
X120742117Y-77670211D01*
X120620559Y-77659290D01*
X120500122Y-77626474D01*
X120382334Y-77572439D01*
X120268723Y-77497865D01*
X120177315Y-77419539D01*
X120130785Y-77375008D01*
X119949517Y-77672271D01*
X119904420Y-77746433D01*
X119863181Y-77814646D01*
X119827265Y-77874459D01*
X119798134Y-77923420D01*
X119777250Y-77959079D01*
X119766076Y-77978984D01*
X119764625Y-77982079D01*
X119772854Y-77991718D01*
X119798433Y-78008999D01*
X119838127Y-78032283D01*
X119888703Y-78059934D01*
X119946926Y-78090315D01*
X120009563Y-78121790D01*
X120073379Y-78152722D01*
X120135140Y-78181473D01*
X120191612Y-78206408D01*
X120239562Y-78225889D01*
X120263014Y-78234318D01*
X120396779Y-78272133D01*
X120534673Y-78297136D01*
X120682378Y-78310140D01*
X120809167Y-78312468D01*
X120877122Y-78311373D01*
X120942723Y-78309275D01*
X121000153Y-78306434D01*
X121043597Y-78303106D01*
X121057702Y-78301422D01*
X121196716Y-78272587D01*
X121338243Y-78227468D01*
X121475725Y-78168750D01*
X121602606Y-78099120D01*
X121680111Y-78046441D01*
X121807519Y-77938239D01*
X121925822Y-77811671D01*
X122032828Y-77669866D01*
X122126348Y-77515951D01*
X122204190Y-77353053D01*
X122248044Y-77235756D01*
X122298292Y-77052128D01*
X122331791Y-76857581D01*
X122348551Y-76656325D01*
X122348584Y-76452568D01*
X122331899Y-76250521D01*
X122298507Y-76054392D01*
X122248420Y-75868391D01*
X122244603Y-75856803D01*
X122181719Y-75694750D01*
X122104972Y-75546832D01*
X122011758Y-75408865D01*
X121899473Y-75276661D01*
X121855608Y-75231399D01*
X121719466Y-75107457D01*
X121579509Y-75004915D01*
X121433589Y-74922656D01*
X121279558Y-74859564D01*
X121115268Y-74814523D01*
X121019711Y-74797033D01*
X120860977Y-74781466D01*
X120702571Y-74784071D01*
G37*
X120702571Y-74784071D02*
X120542430Y-74805245D01*
X120378490Y-74845385D01*
X120208687Y-74904889D01*
X120030957Y-74984154D01*
X120019690Y-74989699D01*
X119961995Y-75017725D01*
X119910448Y-75041802D01*
X119868809Y-75060249D01*
X119840838Y-75071386D01*
X119831267Y-75073933D01*
X119812050Y-75078941D01*
X119807439Y-75083147D01*
X119812542Y-75093580D01*
X119828582Y-75119868D01*
X119853712Y-75159257D01*
X119886086Y-75208991D01*
X119923857Y-75266315D01*
X119965178Y-75328476D01*
X120008202Y-75392718D01*
X120051083Y-75456285D01*
X120091974Y-75516425D01*
X120129029Y-75570380D01*
X120160400Y-75615397D01*
X120184241Y-75648721D01*
X120198706Y-75667597D01*
X120200691Y-75669787D01*
X120210809Y-75665138D01*
X120233150Y-75647962D01*
X120263720Y-75621440D01*
X120279464Y-75606964D01*
X120375953Y-75531682D01*
X120482664Y-75476241D01*
X120598168Y-75441141D01*
X120721038Y-75426880D01*
X120790439Y-75428051D01*
X120911577Y-75445212D01*
X121020795Y-75481094D01*
X121118418Y-75535959D01*
X121204772Y-75610070D01*
X121280185Y-75703688D01*
X121344982Y-75817076D01*
X121382399Y-75903667D01*
X121426252Y-76039366D01*
X121458572Y-76186850D01*
X121479443Y-76342314D01*
X121488949Y-76501956D01*
X121487173Y-76661973D01*
X121474197Y-76818561D01*
X121450106Y-76967918D01*
X121414982Y-77106240D01*
X121368908Y-77229724D01*
X121352627Y-77263978D01*
X121284380Y-77378064D01*
X121203921Y-77474557D01*
X121112430Y-77552670D01*
X121011089Y-77611617D01*
X120901080Y-77650612D01*
X120783585Y-77668868D01*
X120742117Y-77670211D01*
X120620559Y-77659290D01*
X120500122Y-77626474D01*
X120382334Y-77572439D01*
X120268723Y-77497865D01*
X120177315Y-77419539D01*
X120130785Y-77375008D01*
X119949517Y-77672271D01*
X119904420Y-77746433D01*
X119863181Y-77814646D01*
X119827265Y-77874459D01*
X119798134Y-77923420D01*
X119777250Y-77959079D01*
X119766076Y-77978984D01*
X119764625Y-77982079D01*
X119772854Y-77991718D01*
X119798433Y-78008999D01*
X119838127Y-78032283D01*
X119888703Y-78059934D01*
X119946926Y-78090315D01*
X120009563Y-78121790D01*
X120073379Y-78152722D01*
X120135140Y-78181473D01*
X120191612Y-78206408D01*
X120239562Y-78225889D01*
X120263014Y-78234318D01*
X120396779Y-78272133D01*
X120534673Y-78297136D01*
X120682378Y-78310140D01*
X120809167Y-78312468D01*
X120877122Y-78311373D01*
X120942723Y-78309275D01*
X121000153Y-78306434D01*
X121043597Y-78303106D01*
X121057702Y-78301422D01*
X121196716Y-78272587D01*
X121338243Y-78227468D01*
X121475725Y-78168750D01*
X121602606Y-78099120D01*
X121680111Y-78046441D01*
X121807519Y-77938239D01*
X121925822Y-77811671D01*
X122032828Y-77669866D01*
X122126348Y-77515951D01*
X122204190Y-77353053D01*
X122248044Y-77235756D01*
X122298292Y-77052128D01*
X122331791Y-76857581D01*
X122348551Y-76656325D01*
X122348584Y-76452568D01*
X122331899Y-76250521D01*
X122298507Y-76054392D01*
X122248420Y-75868391D01*
X122244603Y-75856803D01*
X122181719Y-75694750D01*
X122104972Y-75546832D01*
X122011758Y-75408865D01*
X121899473Y-75276661D01*
X121855608Y-75231399D01*
X121719466Y-75107457D01*
X121579509Y-75004915D01*
X121433589Y-74922656D01*
X121279558Y-74859564D01*
X121115268Y-74814523D01*
X121019711Y-74797033D01*
X120860977Y-74781466D01*
X120702571Y-74784071D01*
G36*
X118357426Y-75701552D02*
G01*
X118205508Y-75721567D01*
X118070244Y-75755202D01*
X117950761Y-75802725D01*
X117846185Y-75864405D01*
X117768576Y-75927965D01*
X117699735Y-76002099D01*
X117645994Y-76081871D01*
X117603090Y-76174091D01*
X117587616Y-76217161D01*
X117574756Y-76256142D01*
X117563554Y-76292289D01*
X117553880Y-76327434D01*
X117545604Y-76363410D01*
X117538597Y-76402050D01*
X117532728Y-76445185D01*
X117527869Y-76494649D01*
X117523890Y-76552273D01*
X117520660Y-76619891D01*
X117518051Y-76699334D01*
X117515933Y-76792436D01*
X117514176Y-76901027D01*
X117512651Y-77026942D01*
X117511228Y-77172012D01*
X117509975Y-77314778D01*
X117508649Y-77470968D01*
X117507444Y-77606239D01*
X117506234Y-77722246D01*
X117504894Y-77820645D01*
X117503300Y-77903093D01*
X117501325Y-77971246D01*
X117498844Y-78026760D01*
X117495731Y-78071292D01*
X117491862Y-78106498D01*
X117487111Y-78134034D01*
X117481352Y-78155556D01*
X117474461Y-78172722D01*
X117466311Y-78187186D01*
X117456777Y-78200606D01*
X117445734Y-78214638D01*
X117441434Y-78220071D01*
X117425614Y-78242910D01*
X117418578Y-78258463D01*
X117418556Y-78258922D01*
X117429433Y-78261121D01*
X117460418Y-78263147D01*
X117509043Y-78264942D01*
X117572837Y-78266451D01*
X117649331Y-78267616D01*
X117736056Y-78268380D01*
X117830543Y-78268686D01*
X117841450Y-78268689D01*
X118264343Y-78268689D01*
X118267605Y-78172622D01*
X118270867Y-78076556D01*
X118332956Y-78127543D01*
X118430286Y-78195057D01*
X118540187Y-78249749D01*
X118626651Y-78279978D01*
X118695722Y-78294666D01*
X118779075Y-78304659D01*
X118868841Y-78309646D01*
X118957155Y-78309313D01*
X119036149Y-78303351D01*
X119072378Y-78297638D01*
X119212397Y-78259776D01*
X119338822Y-78204932D01*
X119450740Y-78133924D01*
X119547238Y-78047568D01*
X119627400Y-77946679D01*
X119690313Y-77832076D01*
X119734688Y-77705984D01*
X119747022Y-77649401D01*
X119754632Y-77587202D01*
X119758261Y-77512363D01*
X119758755Y-77478467D01*
X119758690Y-77475282D01*
X118998752Y-77475282D01*
X118989459Y-77550333D01*
X118961272Y-77614160D01*
X118912803Y-77669798D01*
X118907746Y-77674211D01*
X118859452Y-77709037D01*
X118807743Y-77731620D01*
X118747011Y-77743540D01*
X118671648Y-77746383D01*
X118653541Y-77745978D01*
X118599722Y-77743325D01*
X118559692Y-77737909D01*
X118524676Y-77727745D01*
X118485897Y-77710850D01*
X118475255Y-77705672D01*
X118414604Y-77669844D01*
X118367785Y-77627212D01*
X118355048Y-77611973D01*
X118310378Y-77555462D01*
X118310378Y-77359586D01*
X118310914Y-77280939D01*
X118312604Y-77222988D01*
X118315572Y-77183875D01*
X118319943Y-77161741D01*
X118324028Y-77155274D01*
X118339953Y-77152111D01*
X118373736Y-77149488D01*
X118420660Y-77147655D01*
X118476007Y-77146857D01*
X118484894Y-77146842D01*
X118605670Y-77152096D01*
X118708340Y-77168263D01*
X118794894Y-77195961D01*
X118867319Y-77235808D01*
X118922249Y-77282758D01*
X118966796Y-77340645D01*
X118991520Y-77403693D01*
X118998752Y-77475282D01*
X119758690Y-77475282D01*
X119756822Y-77384712D01*
X119748478Y-77305812D01*
X119732232Y-77234590D01*
X119706595Y-77163864D01*
X119682599Y-77111493D01*
X119623980Y-77016196D01*
X119545883Y-76928170D01*
X119450685Y-76849017D01*
X119340762Y-76780340D01*
X119218490Y-76723741D01*
X119086245Y-76680821D01*
X119021578Y-76665882D01*
X118885396Y-76643777D01*
X118736951Y-76629194D01*
X118585495Y-76622813D01*
X118458936Y-76624445D01*
X118297050Y-76631224D01*
X118304470Y-76572245D01*
X118323762Y-76473092D01*
X118354896Y-76392372D01*
X118398731Y-76329466D01*
X118456129Y-76283756D01*
X118527952Y-76254622D01*
X118615059Y-76241447D01*
X118718314Y-76243611D01*
X118756289Y-76247612D01*
X118897480Y-76272780D01*
X119034293Y-76313814D01*
X119128822Y-76351815D01*
X119173982Y-76371190D01*
X119212415Y-76386760D01*
X119238766Y-76396405D01*
X119246454Y-76398452D01*
X119256198Y-76389374D01*
X119272917Y-76360405D01*
X119296768Y-76311217D01*
X119327907Y-76241484D01*
X119366493Y-76150879D01*
X119373090Y-76135089D01*
X119403147Y-76062772D01*
X119430126Y-75997425D01*
X119452864Y-75941906D01*
X119470194Y-75899072D01*
X119480952Y-75871781D01*
X119484059Y-75862942D01*
X119474060Y-75858187D01*
X119447783Y-75852910D01*
X119419511Y-75849231D01*
X119389354Y-75844474D01*
X119341567Y-75835028D01*
X119280388Y-75821820D01*
X119210054Y-75805776D01*
X119134806Y-75787820D01*
X119106245Y-75780797D01*
X119001184Y-75755209D01*
X118913520Y-75735147D01*
X118838932Y-75719969D01*
X118773097Y-75709035D01*
X118711693Y-75701704D01*
X118650398Y-75697335D01*
X118584890Y-75695287D01*
X118526872Y-75694889D01*
X118357426Y-75701552D01*
G37*
X118357426Y-75701552D02*
X118205508Y-75721567D01*
X118070244Y-75755202D01*
X117950761Y-75802725D01*
X117846185Y-75864405D01*
X117768576Y-75927965D01*
X117699735Y-76002099D01*
X117645994Y-76081871D01*
X117603090Y-76174091D01*
X117587616Y-76217161D01*
X117574756Y-76256142D01*
X117563554Y-76292289D01*
X117553880Y-76327434D01*
X117545604Y-76363410D01*
X117538597Y-76402050D01*
X117532728Y-76445185D01*
X117527869Y-76494649D01*
X117523890Y-76552273D01*
X117520660Y-76619891D01*
X117518051Y-76699334D01*
X117515933Y-76792436D01*
X117514176Y-76901027D01*
X117512651Y-77026942D01*
X117511228Y-77172012D01*
X117509975Y-77314778D01*
X117508649Y-77470968D01*
X117507444Y-77606239D01*
X117506234Y-77722246D01*
X117504894Y-77820645D01*
X117503300Y-77903093D01*
X117501325Y-77971246D01*
X117498844Y-78026760D01*
X117495731Y-78071292D01*
X117491862Y-78106498D01*
X117487111Y-78134034D01*
X117481352Y-78155556D01*
X117474461Y-78172722D01*
X117466311Y-78187186D01*
X117456777Y-78200606D01*
X117445734Y-78214638D01*
X117441434Y-78220071D01*
X117425614Y-78242910D01*
X117418578Y-78258463D01*
X117418556Y-78258922D01*
X117429433Y-78261121D01*
X117460418Y-78263147D01*
X117509043Y-78264942D01*
X117572837Y-78266451D01*
X117649331Y-78267616D01*
X117736056Y-78268380D01*
X117830543Y-78268686D01*
X117841450Y-78268689D01*
X118264343Y-78268689D01*
X118267605Y-78172622D01*
X118270867Y-78076556D01*
X118332956Y-78127543D01*
X118430286Y-78195057D01*
X118540187Y-78249749D01*
X118626651Y-78279978D01*
X118695722Y-78294666D01*
X118779075Y-78304659D01*
X118868841Y-78309646D01*
X118957155Y-78309313D01*
X119036149Y-78303351D01*
X119072378Y-78297638D01*
X119212397Y-78259776D01*
X119338822Y-78204932D01*
X119450740Y-78133924D01*
X119547238Y-78047568D01*
X119627400Y-77946679D01*
X119690313Y-77832076D01*
X119734688Y-77705984D01*
X119747022Y-77649401D01*
X119754632Y-77587202D01*
X119758261Y-77512363D01*
X119758755Y-77478467D01*
X119758690Y-77475282D01*
X118998752Y-77475282D01*
X118989459Y-77550333D01*
X118961272Y-77614160D01*
X118912803Y-77669798D01*
X118907746Y-77674211D01*
X118859452Y-77709037D01*
X118807743Y-77731620D01*
X118747011Y-77743540D01*
X118671648Y-77746383D01*
X118653541Y-77745978D01*
X118599722Y-77743325D01*
X118559692Y-77737909D01*
X118524676Y-77727745D01*
X118485897Y-77710850D01*
X118475255Y-77705672D01*
X118414604Y-77669844D01*
X118367785Y-77627212D01*
X118355048Y-77611973D01*
X118310378Y-77555462D01*
X118310378Y-77359586D01*
X118310914Y-77280939D01*
X118312604Y-77222988D01*
X118315572Y-77183875D01*
X118319943Y-77161741D01*
X118324028Y-77155274D01*
X118339953Y-77152111D01*
X118373736Y-77149488D01*
X118420660Y-77147655D01*
X118476007Y-77146857D01*
X118484894Y-77146842D01*
X118605670Y-77152096D01*
X118708340Y-77168263D01*
X118794894Y-77195961D01*
X118867319Y-77235808D01*
X118922249Y-77282758D01*
X118966796Y-77340645D01*
X118991520Y-77403693D01*
X118998752Y-77475282D01*
X119758690Y-77475282D01*
X119756822Y-77384712D01*
X119748478Y-77305812D01*
X119732232Y-77234590D01*
X119706595Y-77163864D01*
X119682599Y-77111493D01*
X119623980Y-77016196D01*
X119545883Y-76928170D01*
X119450685Y-76849017D01*
X119340762Y-76780340D01*
X119218490Y-76723741D01*
X119086245Y-76680821D01*
X119021578Y-76665882D01*
X118885396Y-76643777D01*
X118736951Y-76629194D01*
X118585495Y-76622813D01*
X118458936Y-76624445D01*
X118297050Y-76631224D01*
X118304470Y-76572245D01*
X118323762Y-76473092D01*
X118354896Y-76392372D01*
X118398731Y-76329466D01*
X118456129Y-76283756D01*
X118527952Y-76254622D01*
X118615059Y-76241447D01*
X118718314Y-76243611D01*
X118756289Y-76247612D01*
X118897480Y-76272780D01*
X119034293Y-76313814D01*
X119128822Y-76351815D01*
X119173982Y-76371190D01*
X119212415Y-76386760D01*
X119238766Y-76396405D01*
X119246454Y-76398452D01*
X119256198Y-76389374D01*
X119272917Y-76360405D01*
X119296768Y-76311217D01*
X119327907Y-76241484D01*
X119366493Y-76150879D01*
X119373090Y-76135089D01*
X119403147Y-76062772D01*
X119430126Y-75997425D01*
X119452864Y-75941906D01*
X119470194Y-75899072D01*
X119480952Y-75871781D01*
X119484059Y-75862942D01*
X119474060Y-75858187D01*
X119447783Y-75852910D01*
X119419511Y-75849231D01*
X119389354Y-75844474D01*
X119341567Y-75835028D01*
X119280388Y-75821820D01*
X119210054Y-75805776D01*
X119134806Y-75787820D01*
X119106245Y-75780797D01*
X119001184Y-75755209D01*
X118913520Y-75735147D01*
X118838932Y-75719969D01*
X118773097Y-75709035D01*
X118711693Y-75701704D01*
X118650398Y-75697335D01*
X118584890Y-75695287D01*
X118526872Y-75694889D01*
X118357426Y-75701552D01*
G36*
X114844493Y-76307245D02*
G01*
X114844474Y-76541662D01*
X114844448Y-76754603D01*
X114844375Y-76947168D01*
X114844218Y-77120459D01*
X114843936Y-77275576D01*
X114843491Y-77413620D01*
X114842844Y-77535692D01*
X114841955Y-77642894D01*
X114840787Y-77736326D01*
X114839299Y-77817090D01*
X114837454Y-77886286D01*
X114835211Y-77945015D01*
X114832531Y-77994379D01*
X114829377Y-78035478D01*
X114825708Y-78069413D01*
X114821487Y-78097286D01*
X114816673Y-78120198D01*
X114811227Y-78139249D01*
X114805112Y-78155540D01*
X114798288Y-78170173D01*
X114790715Y-78184249D01*
X114782355Y-78198868D01*
X114777161Y-78207974D01*
X114742896Y-78268689D01*
X115601045Y-78268689D01*
X115601045Y-78172733D01*
X115601776Y-78129370D01*
X115603728Y-78096205D01*
X115606537Y-78078424D01*
X115607779Y-78076778D01*
X115619201Y-78083662D01*
X115641916Y-78101505D01*
X115664615Y-78120879D01*
X115719200Y-78161614D01*
X115788679Y-78202617D01*
X115865730Y-78240123D01*
X115943035Y-78270364D01*
X115973887Y-78280012D01*
X116042384Y-78294578D01*
X116125236Y-78304539D01*
X116214629Y-78309583D01*
X116302752Y-78309396D01*
X116381793Y-78303666D01*
X116419489Y-78297858D01*
X116557586Y-78259797D01*
X116684887Y-78202073D01*
X116800708Y-78125211D01*
X116904363Y-78029739D01*
X116995167Y-77916179D01*
X117061969Y-77805381D01*
X117116836Y-77688625D01*
X117158837Y-77569276D01*
X117188833Y-77443283D01*
X117207689Y-77306594D01*
X117216268Y-77155158D01*
X117216994Y-77077711D01*
X117214900Y-77020934D01*
X116385783Y-77020934D01*
X116385576Y-77114002D01*
X116382663Y-77201692D01*
X116377000Y-77278772D01*
X116368545Y-77340009D01*
X116365962Y-77352350D01*
X116334160Y-77459633D01*
X116292502Y-77546658D01*
X116240637Y-77613642D01*
X116178219Y-77660805D01*
X116104900Y-77688365D01*
X116020331Y-77696541D01*
X115924165Y-77685551D01*
X115860689Y-77669829D01*
X115811546Y-77651639D01*
X115757417Y-77625791D01*
X115716756Y-77602089D01*
X115646200Y-77555721D01*
X115646200Y-76405530D01*
X115713608Y-76361962D01*
X115792133Y-76321040D01*
X115876319Y-76294389D01*
X115961443Y-76282465D01*
X116042784Y-76285722D01*
X116115620Y-76304615D01*
X116147574Y-76320184D01*
X116205499Y-76363181D01*
X116254456Y-76419953D01*
X116295610Y-76492575D01*
X116330126Y-76583121D01*
X116359167Y-76693666D01*
X116360448Y-76699533D01*
X116370619Y-76761788D01*
X116378261Y-76839594D01*
X116383330Y-76927720D01*
X116385783Y-77020934D01*
X117214900Y-77020934D01*
X117209143Y-76864895D01*
X117187198Y-76669059D01*
X117151214Y-76490332D01*
X117101241Y-76328845D01*
X117037332Y-76184726D01*
X116959538Y-76058106D01*
X116867911Y-75949115D01*
X116762503Y-75857883D01*
X116717338Y-75826932D01*
X116616389Y-75770785D01*
X116513099Y-75731174D01*
X116403011Y-75707014D01*
X116281670Y-75697219D01*
X116189164Y-75698265D01*
X116059510Y-75709231D01*
X115946916Y-75731046D01*
X115848125Y-75764714D01*
X115759879Y-75811236D01*
X115711014Y-75845448D01*
X115681647Y-75867362D01*
X115659957Y-75882333D01*
X115651747Y-75886733D01*
X115650132Y-75875904D01*
X115648841Y-75845251D01*
X115647862Y-75797526D01*
X115647183Y-75735479D01*
X115646790Y-75661862D01*
X115646670Y-75579427D01*
X115646812Y-75490925D01*
X115647203Y-75399107D01*
X115647829Y-75306724D01*
X115648680Y-75216528D01*
X115649740Y-75131271D01*
X115650999Y-75053703D01*
X115652444Y-74986576D01*
X115654062Y-74932641D01*
X115655839Y-74894650D01*
X115656331Y-74887667D01*
X115663908Y-74817251D01*
X115675469Y-74762102D01*
X115693208Y-74714981D01*
X115719318Y-74668647D01*
X115725585Y-74659067D01*
X115750017Y-74622378D01*
X114844689Y-74622378D01*
X114844493Y-76307245D01*
G37*
X114844493Y-76307245D02*
X114844474Y-76541662D01*
X114844448Y-76754603D01*
X114844375Y-76947168D01*
X114844218Y-77120459D01*
X114843936Y-77275576D01*
X114843491Y-77413620D01*
X114842844Y-77535692D01*
X114841955Y-77642894D01*
X114840787Y-77736326D01*
X114839299Y-77817090D01*
X114837454Y-77886286D01*
X114835211Y-77945015D01*
X114832531Y-77994379D01*
X114829377Y-78035478D01*
X114825708Y-78069413D01*
X114821487Y-78097286D01*
X114816673Y-78120198D01*
X114811227Y-78139249D01*
X114805112Y-78155540D01*
X114798288Y-78170173D01*
X114790715Y-78184249D01*
X114782355Y-78198868D01*
X114777161Y-78207974D01*
X114742896Y-78268689D01*
X115601045Y-78268689D01*
X115601045Y-78172733D01*
X115601776Y-78129370D01*
X115603728Y-78096205D01*
X115606537Y-78078424D01*
X115607779Y-78076778D01*
X115619201Y-78083662D01*
X115641916Y-78101505D01*
X115664615Y-78120879D01*
X115719200Y-78161614D01*
X115788679Y-78202617D01*
X115865730Y-78240123D01*
X115943035Y-78270364D01*
X115973887Y-78280012D01*
X116042384Y-78294578D01*
X116125236Y-78304539D01*
X116214629Y-78309583D01*
X116302752Y-78309396D01*
X116381793Y-78303666D01*
X116419489Y-78297858D01*
X116557586Y-78259797D01*
X116684887Y-78202073D01*
X116800708Y-78125211D01*
X116904363Y-78029739D01*
X116995167Y-77916179D01*
X117061969Y-77805381D01*
X117116836Y-77688625D01*
X117158837Y-77569276D01*
X117188833Y-77443283D01*
X117207689Y-77306594D01*
X117216268Y-77155158D01*
X117216994Y-77077711D01*
X117214900Y-77020934D01*
X116385783Y-77020934D01*
X116385576Y-77114002D01*
X116382663Y-77201692D01*
X116377000Y-77278772D01*
X116368545Y-77340009D01*
X116365962Y-77352350D01*
X116334160Y-77459633D01*
X116292502Y-77546658D01*
X116240637Y-77613642D01*
X116178219Y-77660805D01*
X116104900Y-77688365D01*
X116020331Y-77696541D01*
X115924165Y-77685551D01*
X115860689Y-77669829D01*
X115811546Y-77651639D01*
X115757417Y-77625791D01*
X115716756Y-77602089D01*
X115646200Y-77555721D01*
X115646200Y-76405530D01*
X115713608Y-76361962D01*
X115792133Y-76321040D01*
X115876319Y-76294389D01*
X115961443Y-76282465D01*
X116042784Y-76285722D01*
X116115620Y-76304615D01*
X116147574Y-76320184D01*
X116205499Y-76363181D01*
X116254456Y-76419953D01*
X116295610Y-76492575D01*
X116330126Y-76583121D01*
X116359167Y-76693666D01*
X116360448Y-76699533D01*
X116370619Y-76761788D01*
X116378261Y-76839594D01*
X116383330Y-76927720D01*
X116385783Y-77020934D01*
X117214900Y-77020934D01*
X117209143Y-76864895D01*
X117187198Y-76669059D01*
X117151214Y-76490332D01*
X117101241Y-76328845D01*
X117037332Y-76184726D01*
X116959538Y-76058106D01*
X116867911Y-75949115D01*
X116762503Y-75857883D01*
X116717338Y-75826932D01*
X116616389Y-75770785D01*
X116513099Y-75731174D01*
X116403011Y-75707014D01*
X116281670Y-75697219D01*
X116189164Y-75698265D01*
X116059510Y-75709231D01*
X115946916Y-75731046D01*
X115848125Y-75764714D01*
X115759879Y-75811236D01*
X115711014Y-75845448D01*
X115681647Y-75867362D01*
X115659957Y-75882333D01*
X115651747Y-75886733D01*
X115650132Y-75875904D01*
X115648841Y-75845251D01*
X115647862Y-75797526D01*
X115647183Y-75735479D01*
X115646790Y-75661862D01*
X115646670Y-75579427D01*
X115646812Y-75490925D01*
X115647203Y-75399107D01*
X115647829Y-75306724D01*
X115648680Y-75216528D01*
X115649740Y-75131271D01*
X115650999Y-75053703D01*
X115652444Y-74986576D01*
X115654062Y-74932641D01*
X115655839Y-74894650D01*
X115656331Y-74887667D01*
X115663908Y-74817251D01*
X115675469Y-74762102D01*
X115693208Y-74714981D01*
X115719318Y-74668647D01*
X115725585Y-74659067D01*
X115750017Y-74622378D01*
X114844689Y-74622378D01*
X114844493Y-76307245D01*
G36*
X123304043Y-73861571D02*
G01*
X123207768Y-73885809D01*
X123121184Y-73928641D01*
X123046373Y-73988419D01*
X122985418Y-74063494D01*
X122940399Y-74152220D01*
X122914136Y-74248530D01*
X122908286Y-74345795D01*
X122923140Y-74439654D01*
X122956840Y-74527511D01*
X123007528Y-74606770D01*
X123073345Y-74674836D01*
X123152434Y-74729112D01*
X123242934Y-74767002D01*
X123294200Y-74779426D01*
X123338698Y-74786947D01*
X123372999Y-74789919D01*
X123405960Y-74788094D01*
X123446434Y-74781225D01*
X123479531Y-74774250D01*
X123572947Y-74742741D01*
X123656619Y-74691617D01*
X123728665Y-74622429D01*
X123787200Y-74536728D01*
X123801148Y-74509489D01*
X123817586Y-74473122D01*
X123827894Y-74442582D01*
X123833460Y-74410450D01*
X123835669Y-74369307D01*
X123835948Y-74323222D01*
X123831861Y-74238865D01*
X123818446Y-74169586D01*
X123793256Y-74108961D01*
X123753846Y-74050567D01*
X123715298Y-74006302D01*
X123643406Y-73940484D01*
X123568313Y-73895053D01*
X123485562Y-73867850D01*
X123407928Y-73857576D01*
X123304043Y-73861571D01*
G37*
X123304043Y-73861571D02*
X123207768Y-73885809D01*
X123121184Y-73928641D01*
X123046373Y-73988419D01*
X122985418Y-74063494D01*
X122940399Y-74152220D01*
X122914136Y-74248530D01*
X122908286Y-74345795D01*
X122923140Y-74439654D01*
X122956840Y-74527511D01*
X123007528Y-74606770D01*
X123073345Y-74674836D01*
X123152434Y-74729112D01*
X123242934Y-74767002D01*
X123294200Y-74779426D01*
X123338698Y-74786947D01*
X123372999Y-74789919D01*
X123405960Y-74788094D01*
X123446434Y-74781225D01*
X123479531Y-74774250D01*
X123572947Y-74742741D01*
X123656619Y-74691617D01*
X123728665Y-74622429D01*
X123787200Y-74536728D01*
X123801148Y-74509489D01*
X123817586Y-74473122D01*
X123827894Y-74442582D01*
X123833460Y-74410450D01*
X123835669Y-74369307D01*
X123835948Y-74323222D01*
X123831861Y-74238865D01*
X123818446Y-74169586D01*
X123793256Y-74108961D01*
X123753846Y-74050567D01*
X123715298Y-74006302D01*
X123643406Y-73940484D01*
X123568313Y-73895053D01*
X123485562Y-73867850D01*
X123407928Y-73857576D01*
X123304043Y-73861571D01*
G36*
X127152371Y-79104066D02*
G01*
X127112889Y-79104467D01*
X126997200Y-79107259D01*
X126900311Y-79115550D01*
X126818919Y-79130232D01*
X126749723Y-79152193D01*
X126689420Y-79182322D01*
X126634708Y-79221510D01*
X126615167Y-79238532D01*
X126582750Y-79278363D01*
X126553520Y-79332413D01*
X126530991Y-79392323D01*
X126518679Y-79449739D01*
X126517400Y-79470956D01*
X126525417Y-79529769D01*
X126546899Y-79594013D01*
X126577999Y-79654821D01*
X126614866Y-79703330D01*
X126620854Y-79709182D01*
X126671579Y-79750321D01*
X126727125Y-79782435D01*
X126790696Y-79806365D01*
X126865494Y-79822953D01*
X126954722Y-79833041D01*
X127061582Y-79837469D01*
X127110528Y-79837845D01*
X127172762Y-79837545D01*
X127216528Y-79836292D01*
X127245931Y-79833554D01*
X127265079Y-79828801D01*
X127278077Y-79821501D01*
X127285045Y-79815267D01*
X127291626Y-79807694D01*
X127296788Y-79797924D01*
X127300703Y-79783340D01*
X127303543Y-79761326D01*
X127305480Y-79729264D01*
X127306684Y-79684536D01*
X127307328Y-79624526D01*
X127307583Y-79546617D01*
X127307622Y-79470956D01*
X127307870Y-79370041D01*
X127307817Y-79289427D01*
X127306857Y-79250822D01*
X127160867Y-79250822D01*
X127160867Y-79691089D01*
X127067734Y-79691004D01*
X127011693Y-79689396D01*
X126952999Y-79685256D01*
X126904028Y-79679464D01*
X126902538Y-79679226D01*
X126823392Y-79660090D01*
X126762002Y-79630287D01*
X126715305Y-79587878D01*
X126685635Y-79541961D01*
X126667353Y-79491026D01*
X126668771Y-79443200D01*
X126689988Y-79391933D01*
X126731489Y-79338899D01*
X126788998Y-79299600D01*
X126863750Y-79273331D01*
X126913708Y-79264035D01*
X126970416Y-79257507D01*
X127030519Y-79252782D01*
X127081639Y-79250817D01*
X127084667Y-79250808D01*
X127160867Y-79250822D01*
X127306857Y-79250822D01*
X127306260Y-79226851D01*
X127301998Y-79180055D01*
X127293830Y-79146778D01*
X127280556Y-79124759D01*
X127260974Y-79111739D01*
X127233883Y-79105457D01*
X127198082Y-79103653D01*
X127152371Y-79104066D01*
G37*
X127152371Y-79104066D02*
X127112889Y-79104467D01*
X126997200Y-79107259D01*
X126900311Y-79115550D01*
X126818919Y-79130232D01*
X126749723Y-79152193D01*
X126689420Y-79182322D01*
X126634708Y-79221510D01*
X126615167Y-79238532D01*
X126582750Y-79278363D01*
X126553520Y-79332413D01*
X126530991Y-79392323D01*
X126518679Y-79449739D01*
X126517400Y-79470956D01*
X126525417Y-79529769D01*
X126546899Y-79594013D01*
X126577999Y-79654821D01*
X126614866Y-79703330D01*
X126620854Y-79709182D01*
X126671579Y-79750321D01*
X126727125Y-79782435D01*
X126790696Y-79806365D01*
X126865494Y-79822953D01*
X126954722Y-79833041D01*
X127061582Y-79837469D01*
X127110528Y-79837845D01*
X127172762Y-79837545D01*
X127216528Y-79836292D01*
X127245931Y-79833554D01*
X127265079Y-79828801D01*
X127278077Y-79821501D01*
X127285045Y-79815267D01*
X127291626Y-79807694D01*
X127296788Y-79797924D01*
X127300703Y-79783340D01*
X127303543Y-79761326D01*
X127305480Y-79729264D01*
X127306684Y-79684536D01*
X127307328Y-79624526D01*
X127307583Y-79546617D01*
X127307622Y-79470956D01*
X127307870Y-79370041D01*
X127307817Y-79289427D01*
X127306857Y-79250822D01*
X127160867Y-79250822D01*
X127160867Y-79691089D01*
X127067734Y-79691004D01*
X127011693Y-79689396D01*
X126952999Y-79685256D01*
X126904028Y-79679464D01*
X126902538Y-79679226D01*
X126823392Y-79660090D01*
X126762002Y-79630287D01*
X126715305Y-79587878D01*
X126685635Y-79541961D01*
X126667353Y-79491026D01*
X126668771Y-79443200D01*
X126689988Y-79391933D01*
X126731489Y-79338899D01*
X126788998Y-79299600D01*
X126863750Y-79273331D01*
X126913708Y-79264035D01*
X126970416Y-79257507D01*
X127030519Y-79252782D01*
X127081639Y-79250817D01*
X127084667Y-79250808D01*
X127160867Y-79250822D01*
X127306857Y-79250822D01*
X127306260Y-79226851D01*
X127301998Y-79180055D01*
X127293830Y-79146778D01*
X127280556Y-79124759D01*
X127260974Y-79111739D01*
X127233883Y-79105457D01*
X127198082Y-79103653D01*
X127152371Y-79104066D01*
G36*
X125743794Y-79104146D02*
G01*
X125674386Y-79104518D01*
X125621997Y-79105385D01*
X125583847Y-79106946D01*
X125557159Y-79109403D01*
X125539153Y-79112957D01*
X125527049Y-79117810D01*
X125518069Y-79124161D01*
X125514818Y-79127084D01*
X125495043Y-79158142D01*
X125491482Y-79193828D01*
X125504491Y-79225510D01*
X125510506Y-79231913D01*
X125520235Y-79238121D01*
X125535901Y-79242910D01*
X125560408Y-79246514D01*
X125596661Y-79249164D01*
X125647565Y-79251095D01*
X125716026Y-79252539D01*
X125778617Y-79253418D01*
X126026334Y-79256467D01*
X126029719Y-79321378D01*
X126033105Y-79386289D01*
X125864958Y-79386289D01*
X125791959Y-79386919D01*
X125738517Y-79389553D01*
X125701628Y-79395309D01*
X125678288Y-79405304D01*
X125665494Y-79420656D01*
X125660242Y-79442482D01*
X125659445Y-79462738D01*
X125661923Y-79487592D01*
X125671277Y-79505906D01*
X125690383Y-79518637D01*
X125722118Y-79526741D01*
X125769359Y-79531176D01*
X125834983Y-79532899D01*
X125870801Y-79533045D01*
X126031978Y-79533045D01*
X126031978Y-79691089D01*
X125783622Y-79691089D01*
X125702213Y-79691202D01*
X125640342Y-79691712D01*
X125594968Y-79692870D01*
X125563054Y-79694930D01*
X125541559Y-79698146D01*
X125527443Y-79702772D01*
X125517668Y-79709059D01*
X125512689Y-79713667D01*
X125495610Y-79740560D01*
X125490111Y-79764467D01*
X125497963Y-79793667D01*
X125512689Y-79815267D01*
X125520546Y-79822066D01*
X125530688Y-79827346D01*
X125545844Y-79831298D01*
X125568741Y-79834113D01*
X125602109Y-79835982D01*
X125648675Y-79837098D01*
X125711167Y-79837651D01*
X125792314Y-79837833D01*
X125834422Y-79837845D01*
X125924598Y-79837765D01*
X125994924Y-79837398D01*
X126048129Y-79836552D01*
X126086940Y-79835036D01*
X126114087Y-79832659D01*
X126132298Y-79829229D01*
X126144300Y-79824554D01*
X126152822Y-79818444D01*
X126156156Y-79815267D01*
X126162755Y-79807670D01*
X126167927Y-79797870D01*
X126171846Y-79783239D01*
X126174684Y-79761152D01*
X126176615Y-79728982D01*
X126177812Y-79684103D01*
X126178448Y-79623889D01*
X126178697Y-79545713D01*
X126178734Y-79472923D01*
X126178700Y-79379707D01*
X126178465Y-79306431D01*
X126177830Y-79250458D01*
X126176594Y-79209151D01*
X126174556Y-79179872D01*
X126171517Y-79159984D01*
X126167277Y-79146850D01*
X126161635Y-79137832D01*
X126154391Y-79130293D01*
X126152606Y-79128612D01*
X126143945Y-79121172D01*
X126133882Y-79115409D01*
X126119625Y-79111112D01*
X126098383Y-79108064D01*
X126067364Y-79106051D01*
X126023777Y-79104860D01*
X125964831Y-79104275D01*
X125887734Y-79104083D01*
X125833001Y-79104067D01*
X125743794Y-79104146D01*
G37*
X125743794Y-79104146D02*
X125674386Y-79104518D01*
X125621997Y-79105385D01*
X125583847Y-79106946D01*
X125557159Y-79109403D01*
X125539153Y-79112957D01*
X125527049Y-79117810D01*
X125518069Y-79124161D01*
X125514818Y-79127084D01*
X125495043Y-79158142D01*
X125491482Y-79193828D01*
X125504491Y-79225510D01*
X125510506Y-79231913D01*
X125520235Y-79238121D01*
X125535901Y-79242910D01*
X125560408Y-79246514D01*
X125596661Y-79249164D01*
X125647565Y-79251095D01*
X125716026Y-79252539D01*
X125778617Y-79253418D01*
X126026334Y-79256467D01*
X126029719Y-79321378D01*
X126033105Y-79386289D01*
X125864958Y-79386289D01*
X125791959Y-79386919D01*
X125738517Y-79389553D01*
X125701628Y-79395309D01*
X125678288Y-79405304D01*
X125665494Y-79420656D01*
X125660242Y-79442482D01*
X125659445Y-79462738D01*
X125661923Y-79487592D01*
X125671277Y-79505906D01*
X125690383Y-79518637D01*
X125722118Y-79526741D01*
X125769359Y-79531176D01*
X125834983Y-79532899D01*
X125870801Y-79533045D01*
X126031978Y-79533045D01*
X126031978Y-79691089D01*
X125783622Y-79691089D01*
X125702213Y-79691202D01*
X125640342Y-79691712D01*
X125594968Y-79692870D01*
X125563054Y-79694930D01*
X125541559Y-79698146D01*
X125527443Y-79702772D01*
X125517668Y-79709059D01*
X125512689Y-79713667D01*
X125495610Y-79740560D01*
X125490111Y-79764467D01*
X125497963Y-79793667D01*
X125512689Y-79815267D01*
X125520546Y-79822066D01*
X125530688Y-79827346D01*
X125545844Y-79831298D01*
X125568741Y-79834113D01*
X125602109Y-79835982D01*
X125648675Y-79837098D01*
X125711167Y-79837651D01*
X125792314Y-79837833D01*
X125834422Y-79837845D01*
X125924598Y-79837765D01*
X125994924Y-79837398D01*
X126048129Y-79836552D01*
X126086940Y-79835036D01*
X126114087Y-79832659D01*
X126132298Y-79829229D01*
X126144300Y-79824554D01*
X126152822Y-79818444D01*
X126156156Y-79815267D01*
X126162755Y-79807670D01*
X126167927Y-79797870D01*
X126171846Y-79783239D01*
X126174684Y-79761152D01*
X126176615Y-79728982D01*
X126177812Y-79684103D01*
X126178448Y-79623889D01*
X126178697Y-79545713D01*
X126178734Y-79472923D01*
X126178700Y-79379707D01*
X126178465Y-79306431D01*
X126177830Y-79250458D01*
X126176594Y-79209151D01*
X126174556Y-79179872D01*
X126171517Y-79159984D01*
X126167277Y-79146850D01*
X126161635Y-79137832D01*
X126154391Y-79130293D01*
X126152606Y-79128612D01*
X126143945Y-79121172D01*
X126133882Y-79115409D01*
X126119625Y-79111112D01*
X126098383Y-79108064D01*
X126067364Y-79106051D01*
X126023777Y-79104860D01*
X125964831Y-79104275D01*
X125887734Y-79104083D01*
X125833001Y-79104067D01*
X125743794Y-79104146D01*
G36*
X124722703Y-79105351D02*
G01*
X124647888Y-79110581D01*
X124578306Y-79118750D01*
X124518002Y-79129550D01*
X124471020Y-79142673D01*
X124441406Y-79157813D01*
X124436860Y-79162269D01*
X124421054Y-79196850D01*
X124425847Y-79232351D01*
X124450364Y-79262725D01*
X124451534Y-79263596D01*
X124465954Y-79272954D01*
X124481008Y-79277876D01*
X124502005Y-79278473D01*
X124534257Y-79274861D01*
X124583073Y-79267154D01*
X124587000Y-79266505D01*
X124659739Y-79257569D01*
X124738217Y-79253161D01*
X124816927Y-79253119D01*
X124890361Y-79257279D01*
X124953011Y-79265479D01*
X124999370Y-79277557D01*
X125002416Y-79278771D01*
X125036048Y-79297615D01*
X125047864Y-79316685D01*
X125038614Y-79335439D01*
X125009047Y-79353337D01*
X124959911Y-79369837D01*
X124891957Y-79384396D01*
X124846645Y-79391406D01*
X124752456Y-79404889D01*
X124677544Y-79417214D01*
X124618717Y-79429449D01*
X124572785Y-79442661D01*
X124536555Y-79457917D01*
X124506838Y-79476285D01*
X124480442Y-79498831D01*
X124459230Y-79520971D01*
X124434065Y-79551819D01*
X124421681Y-79578345D01*
X124417808Y-79611026D01*
X124417667Y-79622995D01*
X124420576Y-79662712D01*
X124432202Y-79692259D01*
X124452323Y-79718486D01*
X124493216Y-79758576D01*
X124538817Y-79789149D01*
X124592513Y-79811203D01*
X124657692Y-79825735D01*
X124737744Y-79833741D01*
X124836057Y-79836218D01*
X124852289Y-79836177D01*
X124917849Y-79834818D01*
X124982866Y-79831730D01*
X125040252Y-79827356D01*
X125082922Y-79822140D01*
X125086372Y-79821541D01*
X125128796Y-79811491D01*
X125164780Y-79798796D01*
X125185150Y-79787190D01*
X125204107Y-79756572D01*
X125205427Y-79720918D01*
X125189085Y-79689144D01*
X125185429Y-79685551D01*
X125170315Y-79674876D01*
X125151415Y-79670276D01*
X125122162Y-79671059D01*
X125086651Y-79675127D01*
X125046970Y-79678762D01*
X124991345Y-79681828D01*
X124926406Y-79684053D01*
X124858785Y-79685164D01*
X124841000Y-79685237D01*
X124773128Y-79684964D01*
X124723454Y-79683646D01*
X124687610Y-79680827D01*
X124661224Y-79676050D01*
X124639926Y-79668857D01*
X124627126Y-79662867D01*
X124599000Y-79646233D01*
X124581068Y-79631168D01*
X124578447Y-79626897D01*
X124583976Y-79609263D01*
X124610260Y-79592192D01*
X124655478Y-79576458D01*
X124717808Y-79562838D01*
X124736171Y-79559804D01*
X124832090Y-79544738D01*
X124908641Y-79532146D01*
X124968780Y-79521111D01*
X125015460Y-79510720D01*
X125051637Y-79500056D01*
X125080265Y-79488205D01*
X125104298Y-79474251D01*
X125126692Y-79457281D01*
X125150402Y-79436378D01*
X125158380Y-79429049D01*
X125186353Y-79401699D01*
X125201160Y-79380029D01*
X125206952Y-79355232D01*
X125207889Y-79323983D01*
X125197575Y-79262705D01*
X125166752Y-79210640D01*
X125115595Y-79167958D01*
X125044283Y-79134825D01*
X124993400Y-79119964D01*
X124938100Y-79110366D01*
X124871853Y-79104936D01*
X124798706Y-79103367D01*
X124722703Y-79105351D01*
G37*
X124722703Y-79105351D02*
X124647888Y-79110581D01*
X124578306Y-79118750D01*
X124518002Y-79129550D01*
X124471020Y-79142673D01*
X124441406Y-79157813D01*
X124436860Y-79162269D01*
X124421054Y-79196850D01*
X124425847Y-79232351D01*
X124450364Y-79262725D01*
X124451534Y-79263596D01*
X124465954Y-79272954D01*
X124481008Y-79277876D01*
X124502005Y-79278473D01*
X124534257Y-79274861D01*
X124583073Y-79267154D01*
X124587000Y-79266505D01*
X124659739Y-79257569D01*
X124738217Y-79253161D01*
X124816927Y-79253119D01*
X124890361Y-79257279D01*
X124953011Y-79265479D01*
X124999370Y-79277557D01*
X125002416Y-79278771D01*
X125036048Y-79297615D01*
X125047864Y-79316685D01*
X125038614Y-79335439D01*
X125009047Y-79353337D01*
X124959911Y-79369837D01*
X124891957Y-79384396D01*
X124846645Y-79391406D01*
X124752456Y-79404889D01*
X124677544Y-79417214D01*
X124618717Y-79429449D01*
X124572785Y-79442661D01*
X124536555Y-79457917D01*
X124506838Y-79476285D01*
X124480442Y-79498831D01*
X124459230Y-79520971D01*
X124434065Y-79551819D01*
X124421681Y-79578345D01*
X124417808Y-79611026D01*
X124417667Y-79622995D01*
X124420576Y-79662712D01*
X124432202Y-79692259D01*
X124452323Y-79718486D01*
X124493216Y-79758576D01*
X124538817Y-79789149D01*
X124592513Y-79811203D01*
X124657692Y-79825735D01*
X124737744Y-79833741D01*
X124836057Y-79836218D01*
X124852289Y-79836177D01*
X124917849Y-79834818D01*
X124982866Y-79831730D01*
X125040252Y-79827356D01*
X125082922Y-79822140D01*
X125086372Y-79821541D01*
X125128796Y-79811491D01*
X125164780Y-79798796D01*
X125185150Y-79787190D01*
X125204107Y-79756572D01*
X125205427Y-79720918D01*
X125189085Y-79689144D01*
X125185429Y-79685551D01*
X125170315Y-79674876D01*
X125151415Y-79670276D01*
X125122162Y-79671059D01*
X125086651Y-79675127D01*
X125046970Y-79678762D01*
X124991345Y-79681828D01*
X124926406Y-79684053D01*
X124858785Y-79685164D01*
X124841000Y-79685237D01*
X124773128Y-79684964D01*
X124723454Y-79683646D01*
X124687610Y-79680827D01*
X124661224Y-79676050D01*
X124639926Y-79668857D01*
X124627126Y-79662867D01*
X124599000Y-79646233D01*
X124581068Y-79631168D01*
X124578447Y-79626897D01*
X124583976Y-79609263D01*
X124610260Y-79592192D01*
X124655478Y-79576458D01*
X124717808Y-79562838D01*
X124736171Y-79559804D01*
X124832090Y-79544738D01*
X124908641Y-79532146D01*
X124968780Y-79521111D01*
X125015460Y-79510720D01*
X125051637Y-79500056D01*
X125080265Y-79488205D01*
X125104298Y-79474251D01*
X125126692Y-79457281D01*
X125150402Y-79436378D01*
X125158380Y-79429049D01*
X125186353Y-79401699D01*
X125201160Y-79380029D01*
X125206952Y-79355232D01*
X125207889Y-79323983D01*
X125197575Y-79262705D01*
X125166752Y-79210640D01*
X125115595Y-79167958D01*
X125044283Y-79134825D01*
X124993400Y-79119964D01*
X124938100Y-79110366D01*
X124871853Y-79104936D01*
X124798706Y-79103367D01*
X124722703Y-79105351D01*
G36*
X123954822Y-79126645D02*
G01*
X123948242Y-79134218D01*
X123943079Y-79143987D01*
X123939164Y-79158571D01*
X123936324Y-79180585D01*
X123934387Y-79212648D01*
X123933183Y-79257375D01*
X123932539Y-79317385D01*
X123932284Y-79395294D01*
X123932245Y-79470956D01*
X123932314Y-79564802D01*
X123932638Y-79638689D01*
X123933386Y-79695232D01*
X123934732Y-79737049D01*
X123936846Y-79766757D01*
X123939900Y-79786973D01*
X123944066Y-79800314D01*
X123949516Y-79809398D01*
X123954822Y-79815267D01*
X123987826Y-79834947D01*
X124022991Y-79833181D01*
X124054455Y-79811717D01*
X124061684Y-79803337D01*
X124067334Y-79793614D01*
X124071599Y-79779861D01*
X124074673Y-79759389D01*
X124076752Y-79729512D01*
X124078030Y-79687541D01*
X124078701Y-79630789D01*
X124078959Y-79556567D01*
X124079000Y-79472537D01*
X124079000Y-79159485D01*
X124051291Y-79131776D01*
X124017137Y-79108463D01*
X123984006Y-79107623D01*
X123954822Y-79126645D01*
G37*
X123954822Y-79126645D02*
X123948242Y-79134218D01*
X123943079Y-79143987D01*
X123939164Y-79158571D01*
X123936324Y-79180585D01*
X123934387Y-79212648D01*
X123933183Y-79257375D01*
X123932539Y-79317385D01*
X123932284Y-79395294D01*
X123932245Y-79470956D01*
X123932314Y-79564802D01*
X123932638Y-79638689D01*
X123933386Y-79695232D01*
X123934732Y-79737049D01*
X123936846Y-79766757D01*
X123939900Y-79786973D01*
X123944066Y-79800314D01*
X123949516Y-79809398D01*
X123954822Y-79815267D01*
X123987826Y-79834947D01*
X124022991Y-79833181D01*
X124054455Y-79811717D01*
X124061684Y-79803337D01*
X124067334Y-79793614D01*
X124071599Y-79779861D01*
X124074673Y-79759389D01*
X124076752Y-79729512D01*
X124078030Y-79687541D01*
X124078701Y-79630789D01*
X124078959Y-79556567D01*
X124079000Y-79472537D01*
X124079000Y-79159485D01*
X124051291Y-79131776D01*
X124017137Y-79108463D01*
X123984006Y-79107623D01*
X123954822Y-79126645D01*
G36*
X122981081Y-79109599D02*
G01*
X122912565Y-79121095D01*
X122859943Y-79138967D01*
X122825708Y-79162499D01*
X122816379Y-79175924D01*
X122806893Y-79207148D01*
X122813277Y-79235395D01*
X122833430Y-79262182D01*
X122864745Y-79274713D01*
X122910183Y-79273696D01*
X122945326Y-79266906D01*
X123023419Y-79253971D01*
X123103226Y-79252742D01*
X123192555Y-79263241D01*
X123217229Y-79267690D01*
X123300291Y-79291108D01*
X123365273Y-79325945D01*
X123411461Y-79371604D01*
X123438145Y-79427494D01*
X123443663Y-79456388D01*
X123440051Y-79515012D01*
X123416729Y-79566879D01*
X123375824Y-79610978D01*
X123319459Y-79646299D01*
X123249760Y-79671829D01*
X123168852Y-79686559D01*
X123078860Y-79689478D01*
X122981910Y-79679575D01*
X122976436Y-79678641D01*
X122937875Y-79671459D01*
X122916494Y-79664521D01*
X122907227Y-79654227D01*
X122905006Y-79636976D01*
X122904956Y-79627841D01*
X122904956Y-79589489D01*
X122973431Y-79589489D01*
X123033900Y-79585347D01*
X123075165Y-79572147D01*
X123099175Y-79548730D01*
X123107877Y-79513936D01*
X123107983Y-79509394D01*
X123102892Y-79479654D01*
X123085433Y-79458419D01*
X123052939Y-79444366D01*
X123002743Y-79436173D01*
X122954123Y-79433161D01*
X122883456Y-79431433D01*
X122832198Y-79434070D01*
X122797239Y-79443800D01*
X122775470Y-79463353D01*
X122763780Y-79495456D01*
X122759060Y-79542838D01*
X122758200Y-79605071D01*
X122759609Y-79674535D01*
X122763848Y-79721786D01*
X122770936Y-79747012D01*
X122772311Y-79748988D01*
X122811228Y-79780508D01*
X122868286Y-79805470D01*
X122939869Y-79823340D01*
X123022358Y-79833586D01*
X123112139Y-79835673D01*
X123205592Y-79829068D01*
X123260556Y-79820956D01*
X123346766Y-79796554D01*
X123426892Y-79756662D01*
X123493977Y-79704887D01*
X123504173Y-79694539D01*
X123537302Y-79651035D01*
X123567194Y-79597118D01*
X123590357Y-79540592D01*
X123603298Y-79489259D01*
X123604858Y-79469544D01*
X123598218Y-79428419D01*
X123580568Y-79377252D01*
X123555297Y-79323394D01*
X123525789Y-79274195D01*
X123499719Y-79241334D01*
X123438765Y-79192452D01*
X123359969Y-79153545D01*
X123266157Y-79125494D01*
X123160150Y-79109179D01*
X123063000Y-79105192D01*
X122981081Y-79109599D01*
G37*
X122981081Y-79109599D02*
X122912565Y-79121095D01*
X122859943Y-79138967D01*
X122825708Y-79162499D01*
X122816379Y-79175924D01*
X122806893Y-79207148D01*
X122813277Y-79235395D01*
X122833430Y-79262182D01*
X122864745Y-79274713D01*
X122910183Y-79273696D01*
X122945326Y-79266906D01*
X123023419Y-79253971D01*
X123103226Y-79252742D01*
X123192555Y-79263241D01*
X123217229Y-79267690D01*
X123300291Y-79291108D01*
X123365273Y-79325945D01*
X123411461Y-79371604D01*
X123438145Y-79427494D01*
X123443663Y-79456388D01*
X123440051Y-79515012D01*
X123416729Y-79566879D01*
X123375824Y-79610978D01*
X123319459Y-79646299D01*
X123249760Y-79671829D01*
X123168852Y-79686559D01*
X123078860Y-79689478D01*
X122981910Y-79679575D01*
X122976436Y-79678641D01*
X122937875Y-79671459D01*
X122916494Y-79664521D01*
X122907227Y-79654227D01*
X122905006Y-79636976D01*
X122904956Y-79627841D01*
X122904956Y-79589489D01*
X122973431Y-79589489D01*
X123033900Y-79585347D01*
X123075165Y-79572147D01*
X123099175Y-79548730D01*
X123107877Y-79513936D01*
X123107983Y-79509394D01*
X123102892Y-79479654D01*
X123085433Y-79458419D01*
X123052939Y-79444366D01*
X123002743Y-79436173D01*
X122954123Y-79433161D01*
X122883456Y-79431433D01*
X122832198Y-79434070D01*
X122797239Y-79443800D01*
X122775470Y-79463353D01*
X122763780Y-79495456D01*
X122759060Y-79542838D01*
X122758200Y-79605071D01*
X122759609Y-79674535D01*
X122763848Y-79721786D01*
X122770936Y-79747012D01*
X122772311Y-79748988D01*
X122811228Y-79780508D01*
X122868286Y-79805470D01*
X122939869Y-79823340D01*
X123022358Y-79833586D01*
X123112139Y-79835673D01*
X123205592Y-79829068D01*
X123260556Y-79820956D01*
X123346766Y-79796554D01*
X123426892Y-79756662D01*
X123493977Y-79704887D01*
X123504173Y-79694539D01*
X123537302Y-79651035D01*
X123567194Y-79597118D01*
X123590357Y-79540592D01*
X123603298Y-79489259D01*
X123604858Y-79469544D01*
X123598218Y-79428419D01*
X123580568Y-79377252D01*
X123555297Y-79323394D01*
X123525789Y-79274195D01*
X123499719Y-79241334D01*
X123438765Y-79192452D01*
X123359969Y-79153545D01*
X123266157Y-79125494D01*
X123160150Y-79109179D01*
X123063000Y-79105192D01*
X122981081Y-79109599D01*
G36*
X122331114Y-79108448D02*
G01*
X122307548Y-79122273D01*
X122276735Y-79144881D01*
X122237078Y-79177338D01*
X122186980Y-79220708D01*
X122124843Y-79276058D01*
X122049072Y-79344451D01*
X121962334Y-79423084D01*
X121781711Y-79586878D01*
X121776067Y-79367029D01*
X121774029Y-79291351D01*
X121772063Y-79234994D01*
X121769734Y-79194706D01*
X121766606Y-79167235D01*
X121762245Y-79149329D01*
X121756216Y-79137737D01*
X121748084Y-79129208D01*
X121743772Y-79125623D01*
X121709241Y-79106670D01*
X121676383Y-79109441D01*
X121650318Y-79125633D01*
X121623667Y-79147199D01*
X121620352Y-79462151D01*
X121619435Y-79554779D01*
X121618968Y-79627544D01*
X121619113Y-79683161D01*
X121620032Y-79724342D01*
X121621887Y-79753803D01*
X121624839Y-79774255D01*
X121629050Y-79788413D01*
X121634682Y-79798991D01*
X121640927Y-79807474D01*
X121654439Y-79823207D01*
X121667883Y-79833636D01*
X121683124Y-79837639D01*
X121702026Y-79834094D01*
X121726455Y-79821879D01*
X121758273Y-79799871D01*
X121799348Y-79766949D01*
X121851542Y-79721991D01*
X121916722Y-79663875D01*
X121990556Y-79597099D01*
X122255845Y-79356458D01*
X122261489Y-79575589D01*
X122263531Y-79651128D01*
X122265502Y-79707354D01*
X122267839Y-79747524D01*
X122270981Y-79774896D01*
X122275364Y-79792728D01*
X122281424Y-79804279D01*
X122289600Y-79812807D01*
X122293784Y-79816282D01*
X122330765Y-79835372D01*
X122365708Y-79832493D01*
X122396136Y-79808100D01*
X122403097Y-79798286D01*
X122408523Y-79786826D01*
X122412603Y-79770968D01*
X122415529Y-79747963D01*
X122417492Y-79715062D01*
X122418683Y-79669516D01*
X122419292Y-79608573D01*
X122419511Y-79529486D01*
X122419534Y-79470956D01*
X122419460Y-79379407D01*
X122419113Y-79307687D01*
X122418301Y-79253045D01*
X122416833Y-79212732D01*
X122414519Y-79183998D01*
X122411167Y-79164093D01*
X122406588Y-79150268D01*
X122400589Y-79139772D01*
X122396136Y-79133811D01*
X122384850Y-79119691D01*
X122374301Y-79109029D01*
X122362893Y-79102892D01*
X122349030Y-79102343D01*
X122331114Y-79108448D01*
G37*
X122331114Y-79108448D02*
X122307548Y-79122273D01*
X122276735Y-79144881D01*
X122237078Y-79177338D01*
X122186980Y-79220708D01*
X122124843Y-79276058D01*
X122049072Y-79344451D01*
X121962334Y-79423084D01*
X121781711Y-79586878D01*
X121776067Y-79367029D01*
X121774029Y-79291351D01*
X121772063Y-79234994D01*
X121769734Y-79194706D01*
X121766606Y-79167235D01*
X121762245Y-79149329D01*
X121756216Y-79137737D01*
X121748084Y-79129208D01*
X121743772Y-79125623D01*
X121709241Y-79106670D01*
X121676383Y-79109441D01*
X121650318Y-79125633D01*
X121623667Y-79147199D01*
X121620352Y-79462151D01*
X121619435Y-79554779D01*
X121618968Y-79627544D01*
X121619113Y-79683161D01*
X121620032Y-79724342D01*
X121621887Y-79753803D01*
X121624839Y-79774255D01*
X121629050Y-79788413D01*
X121634682Y-79798991D01*
X121640927Y-79807474D01*
X121654439Y-79823207D01*
X121667883Y-79833636D01*
X121683124Y-79837639D01*
X121702026Y-79834094D01*
X121726455Y-79821879D01*
X121758273Y-79799871D01*
X121799348Y-79766949D01*
X121851542Y-79721991D01*
X121916722Y-79663875D01*
X121990556Y-79597099D01*
X122255845Y-79356458D01*
X122261489Y-79575589D01*
X122263531Y-79651128D01*
X122265502Y-79707354D01*
X122267839Y-79747524D01*
X122270981Y-79774896D01*
X122275364Y-79792728D01*
X122281424Y-79804279D01*
X122289600Y-79812807D01*
X122293784Y-79816282D01*
X122330765Y-79835372D01*
X122365708Y-79832493D01*
X122396136Y-79808100D01*
X122403097Y-79798286D01*
X122408523Y-79786826D01*
X122412603Y-79770968D01*
X122415529Y-79747963D01*
X122417492Y-79715062D01*
X122418683Y-79669516D01*
X122419292Y-79608573D01*
X122419511Y-79529486D01*
X122419534Y-79470956D01*
X122419460Y-79379407D01*
X122419113Y-79307687D01*
X122418301Y-79253045D01*
X122416833Y-79212732D01*
X122414519Y-79183998D01*
X122411167Y-79164093D01*
X122406588Y-79150268D01*
X122400589Y-79139772D01*
X122396136Y-79133811D01*
X122384850Y-79119691D01*
X122374301Y-79109029D01*
X122362893Y-79102892D01*
X122349030Y-79102343D01*
X122331114Y-79108448D01*
G36*
X120800657Y-79104260D02*
G01*
X120724299Y-79105174D01*
X120665783Y-79107311D01*
X120622745Y-79111175D01*
X120592817Y-79117267D01*
X120573632Y-79126090D01*
X120562824Y-79138146D01*
X120558027Y-79153939D01*
X120556873Y-79173970D01*
X120556867Y-79176335D01*
X120557869Y-79198992D01*
X120562604Y-79216503D01*
X120573667Y-79229574D01*
X120593652Y-79238913D01*
X120625154Y-79245227D01*
X120670768Y-79249222D01*
X120733087Y-79251606D01*
X120814707Y-79253086D01*
X120839723Y-79253414D01*
X121081800Y-79256467D01*
X121085186Y-79321378D01*
X121088571Y-79386289D01*
X120920424Y-79386289D01*
X120854734Y-79386531D01*
X120807828Y-79387556D01*
X120775917Y-79389811D01*
X120755209Y-79393742D01*
X120741916Y-79399798D01*
X120732245Y-79408424D01*
X120732183Y-79408493D01*
X120714644Y-79442112D01*
X120715278Y-79478448D01*
X120733686Y-79509423D01*
X120737329Y-79512607D01*
X120750259Y-79520812D01*
X120767976Y-79526521D01*
X120794430Y-79530162D01*
X120833568Y-79532167D01*
X120889338Y-79532964D01*
X120925006Y-79533045D01*
X121087445Y-79533045D01*
X121087445Y-79691089D01*
X120840839Y-79691089D01*
X120759420Y-79691231D01*
X120697590Y-79691814D01*
X120652363Y-79693068D01*
X120620752Y-79695227D01*
X120599769Y-79698523D01*
X120586427Y-79703189D01*
X120577739Y-79709457D01*
X120575550Y-79711733D01*
X120559386Y-79743280D01*
X120558203Y-79779168D01*
X120571464Y-79810285D01*
X120581957Y-79820271D01*
X120592871Y-79825769D01*
X120609783Y-79830022D01*
X120635367Y-79833180D01*
X120672299Y-79835392D01*
X120723254Y-79836806D01*
X120790906Y-79837572D01*
X120877931Y-79837838D01*
X120897606Y-79837845D01*
X120986089Y-79837787D01*
X121054773Y-79837467D01*
X121106436Y-79836667D01*
X121143855Y-79835167D01*
X121169810Y-79832749D01*
X121187078Y-79829194D01*
X121198438Y-79824282D01*
X121206668Y-79817795D01*
X121211183Y-79813138D01*
X121217979Y-79804889D01*
X121223288Y-79794669D01*
X121227294Y-79779800D01*
X121230179Y-79757602D01*
X121232126Y-79725393D01*
X121233319Y-79680496D01*
X121233939Y-79620228D01*
X121234171Y-79541911D01*
X121234200Y-79475994D01*
X121234129Y-79383628D01*
X121233792Y-79311117D01*
X121233002Y-79255737D01*
X121231574Y-79214765D01*
X121229321Y-79185478D01*
X121226057Y-79165153D01*
X121221596Y-79151066D01*
X121215752Y-79140495D01*
X121210803Y-79133811D01*
X121187406Y-79104067D01*
X120897226Y-79104067D01*
X120800657Y-79104260D01*
G37*
X120800657Y-79104260D02*
X120724299Y-79105174D01*
X120665783Y-79107311D01*
X120622745Y-79111175D01*
X120592817Y-79117267D01*
X120573632Y-79126090D01*
X120562824Y-79138146D01*
X120558027Y-79153939D01*
X120556873Y-79173970D01*
X120556867Y-79176335D01*
X120557869Y-79198992D01*
X120562604Y-79216503D01*
X120573667Y-79229574D01*
X120593652Y-79238913D01*
X120625154Y-79245227D01*
X120670768Y-79249222D01*
X120733087Y-79251606D01*
X120814707Y-79253086D01*
X120839723Y-79253414D01*
X121081800Y-79256467D01*
X121085186Y-79321378D01*
X121088571Y-79386289D01*
X120920424Y-79386289D01*
X120854734Y-79386531D01*
X120807828Y-79387556D01*
X120775917Y-79389811D01*
X120755209Y-79393742D01*
X120741916Y-79399798D01*
X120732245Y-79408424D01*
X120732183Y-79408493D01*
X120714644Y-79442112D01*
X120715278Y-79478448D01*
X120733686Y-79509423D01*
X120737329Y-79512607D01*
X120750259Y-79520812D01*
X120767976Y-79526521D01*
X120794430Y-79530162D01*
X120833568Y-79532167D01*
X120889338Y-79532964D01*
X120925006Y-79533045D01*
X121087445Y-79533045D01*
X121087445Y-79691089D01*
X120840839Y-79691089D01*
X120759420Y-79691231D01*
X120697590Y-79691814D01*
X120652363Y-79693068D01*
X120620752Y-79695227D01*
X120599769Y-79698523D01*
X120586427Y-79703189D01*
X120577739Y-79709457D01*
X120575550Y-79711733D01*
X120559386Y-79743280D01*
X120558203Y-79779168D01*
X120571464Y-79810285D01*
X120581957Y-79820271D01*
X120592871Y-79825769D01*
X120609783Y-79830022D01*
X120635367Y-79833180D01*
X120672299Y-79835392D01*
X120723254Y-79836806D01*
X120790906Y-79837572D01*
X120877931Y-79837838D01*
X120897606Y-79837845D01*
X120986089Y-79837787D01*
X121054773Y-79837467D01*
X121106436Y-79836667D01*
X121143855Y-79835167D01*
X121169810Y-79832749D01*
X121187078Y-79829194D01*
X121198438Y-79824282D01*
X121206668Y-79817795D01*
X121211183Y-79813138D01*
X121217979Y-79804889D01*
X121223288Y-79794669D01*
X121227294Y-79779800D01*
X121230179Y-79757602D01*
X121232126Y-79725393D01*
X121233319Y-79680496D01*
X121233939Y-79620228D01*
X121234171Y-79541911D01*
X121234200Y-79475994D01*
X121234129Y-79383628D01*
X121233792Y-79311117D01*
X121233002Y-79255737D01*
X121231574Y-79214765D01*
X121229321Y-79185478D01*
X121226057Y-79165153D01*
X121221596Y-79151066D01*
X121215752Y-79140495D01*
X121210803Y-79133811D01*
X121187406Y-79104067D01*
X120897226Y-79104067D01*
X120800657Y-79104260D01*
G36*
X120012691Y-79104275D02*
G01*
X119883712Y-79108636D01*
X119774009Y-79121861D01*
X119681774Y-79144741D01*
X119605198Y-79178070D01*
X119542473Y-79222638D01*
X119491788Y-79279236D01*
X119451337Y-79348658D01*
X119450541Y-79350351D01*
X119426399Y-79412483D01*
X119417797Y-79467509D01*
X119424769Y-79522887D01*
X119447346Y-79586073D01*
X119451628Y-79595689D01*
X119480828Y-79651966D01*
X119513644Y-79695451D01*
X119555998Y-79732417D01*
X119613810Y-79769135D01*
X119617169Y-79771052D01*
X119667496Y-79795227D01*
X119724379Y-79813282D01*
X119791473Y-79825839D01*
X119872435Y-79833522D01*
X119970918Y-79836953D01*
X120005714Y-79837251D01*
X120171406Y-79837845D01*
X120194803Y-79808100D01*
X120201743Y-79798319D01*
X120207158Y-79786897D01*
X120211235Y-79771095D01*
X120214163Y-79748175D01*
X120216133Y-79715396D01*
X120216775Y-79691089D01*
X120060156Y-79691089D01*
X119966274Y-79691089D01*
X119911336Y-79689483D01*
X119854940Y-79685255D01*
X119808655Y-79679292D01*
X119805861Y-79678790D01*
X119723652Y-79656736D01*
X119659886Y-79623600D01*
X119612548Y-79577847D01*
X119579618Y-79517939D01*
X119573892Y-79502061D01*
X119568279Y-79477333D01*
X119570709Y-79452902D01*
X119582533Y-79420400D01*
X119589660Y-79404434D01*
X119613000Y-79362006D01*
X119641120Y-79332240D01*
X119672060Y-79311511D01*
X119734034Y-79284537D01*
X119813349Y-79264998D01*
X119905747Y-79253746D01*
X119972667Y-79251270D01*
X120060156Y-79250822D01*
X120060156Y-79691089D01*
X120216775Y-79691089D01*
X120217332Y-79670021D01*
X120217950Y-79609311D01*
X120218175Y-79530526D01*
X120218200Y-79468920D01*
X120218200Y-79159485D01*
X120190491Y-79131776D01*
X120178194Y-79120544D01*
X120164897Y-79112853D01*
X120146328Y-79108040D01*
X120118214Y-79105446D01*
X120076283Y-79104410D01*
X120016263Y-79104270D01*
X120012691Y-79104275D01*
G37*
X120012691Y-79104275D02*
X119883712Y-79108636D01*
X119774009Y-79121861D01*
X119681774Y-79144741D01*
X119605198Y-79178070D01*
X119542473Y-79222638D01*
X119491788Y-79279236D01*
X119451337Y-79348658D01*
X119450541Y-79350351D01*
X119426399Y-79412483D01*
X119417797Y-79467509D01*
X119424769Y-79522887D01*
X119447346Y-79586073D01*
X119451628Y-79595689D01*
X119480828Y-79651966D01*
X119513644Y-79695451D01*
X119555998Y-79732417D01*
X119613810Y-79769135D01*
X119617169Y-79771052D01*
X119667496Y-79795227D01*
X119724379Y-79813282D01*
X119791473Y-79825839D01*
X119872435Y-79833522D01*
X119970918Y-79836953D01*
X120005714Y-79837251D01*
X120171406Y-79837845D01*
X120194803Y-79808100D01*
X120201743Y-79798319D01*
X120207158Y-79786897D01*
X120211235Y-79771095D01*
X120214163Y-79748175D01*
X120216133Y-79715396D01*
X120216775Y-79691089D01*
X120060156Y-79691089D01*
X119966274Y-79691089D01*
X119911336Y-79689483D01*
X119854940Y-79685255D01*
X119808655Y-79679292D01*
X119805861Y-79678790D01*
X119723652Y-79656736D01*
X119659886Y-79623600D01*
X119612548Y-79577847D01*
X119579618Y-79517939D01*
X119573892Y-79502061D01*
X119568279Y-79477333D01*
X119570709Y-79452902D01*
X119582533Y-79420400D01*
X119589660Y-79404434D01*
X119613000Y-79362006D01*
X119641120Y-79332240D01*
X119672060Y-79311511D01*
X119734034Y-79284537D01*
X119813349Y-79264998D01*
X119905747Y-79253746D01*
X119972667Y-79251270D01*
X120060156Y-79250822D01*
X120060156Y-79691089D01*
X120216775Y-79691089D01*
X120217332Y-79670021D01*
X120217950Y-79609311D01*
X120218175Y-79530526D01*
X120218200Y-79468920D01*
X120218200Y-79159485D01*
X120190491Y-79131776D01*
X120178194Y-79120544D01*
X120164897Y-79112853D01*
X120146328Y-79108040D01*
X120118214Y-79105446D01*
X120076283Y-79104410D01*
X120016263Y-79104270D01*
X120012691Y-79104275D01*
G36*
X117286335Y-79106034D02*
G01*
X117266745Y-79113035D01*
X117265990Y-79113377D01*
X117239387Y-79133678D01*
X117224730Y-79154561D01*
X117221862Y-79164352D01*
X117222004Y-79177361D01*
X117226039Y-79195895D01*
X117234854Y-79222257D01*
X117249331Y-79258752D01*
X117270355Y-79307687D01*
X117298812Y-79371365D01*
X117335585Y-79452093D01*
X117355825Y-79496216D01*
X117392375Y-79574985D01*
X117426685Y-79647423D01*
X117457448Y-79710880D01*
X117483352Y-79762708D01*
X117503090Y-79800259D01*
X117515350Y-79820884D01*
X117517776Y-79823733D01*
X117548817Y-79836302D01*
X117583879Y-79834619D01*
X117612000Y-79819332D01*
X117613146Y-79818089D01*
X117624332Y-79801154D01*
X117643096Y-79768170D01*
X117667125Y-79723380D01*
X117694103Y-79671032D01*
X117703799Y-79651742D01*
X117776986Y-79505150D01*
X117856760Y-79664393D01*
X117885233Y-79719415D01*
X117911650Y-79767132D01*
X117933852Y-79803893D01*
X117949681Y-79826044D01*
X117955046Y-79830741D01*
X117996743Y-79837102D01*
X118031151Y-79823733D01*
X118041272Y-79809446D01*
X118058786Y-79777692D01*
X118082265Y-79731597D01*
X118110280Y-79674285D01*
X118141401Y-79608880D01*
X118174201Y-79538507D01*
X118207250Y-79466291D01*
X118239119Y-79395355D01*
X118268381Y-79328825D01*
X118293605Y-79269826D01*
X118313364Y-79221481D01*
X118326228Y-79186915D01*
X118330769Y-79169253D01*
X118330723Y-79168613D01*
X118319674Y-79146388D01*
X118297590Y-79123753D01*
X118296290Y-79122768D01*
X118269147Y-79107425D01*
X118244042Y-79107574D01*
X118234632Y-79110466D01*
X118223166Y-79116718D01*
X118210990Y-79129014D01*
X118196643Y-79149908D01*
X118178664Y-79181949D01*
X118155593Y-79227688D01*
X118125970Y-79289677D01*
X118099255Y-79346898D01*
X118068520Y-79413226D01*
X118040979Y-79472874D01*
X118018062Y-79522725D01*
X118001202Y-79559664D01*
X117991827Y-79580573D01*
X117990460Y-79583845D01*
X117984311Y-79578497D01*
X117970178Y-79556109D01*
X117949943Y-79519946D01*
X117925485Y-79473277D01*
X117915752Y-79454022D01*
X117882783Y-79389004D01*
X117857357Y-79341654D01*
X117837388Y-79309219D01*
X117820790Y-79288946D01*
X117805476Y-79278082D01*
X117789360Y-79273875D01*
X117778857Y-79273400D01*
X117760330Y-79275042D01*
X117744096Y-79281831D01*
X117727965Y-79296566D01*
X117709749Y-79322044D01*
X117687261Y-79361061D01*
X117658311Y-79416414D01*
X117642338Y-79447903D01*
X117616430Y-79498087D01*
X117593833Y-79539704D01*
X117576542Y-79569242D01*
X117566550Y-79583189D01*
X117565191Y-79583770D01*
X117558739Y-79572793D01*
X117544292Y-79544290D01*
X117523297Y-79501244D01*
X117497203Y-79446638D01*
X117467454Y-79383454D01*
X117452820Y-79352071D01*
X117414750Y-79271078D01*
X117384095Y-79208756D01*
X117359263Y-79163071D01*
X117338663Y-79131989D01*
X117320702Y-79113478D01*
X117303790Y-79105504D01*
X117286335Y-79106034D01*
G37*
X117286335Y-79106034D02*
X117266745Y-79113035D01*
X117265990Y-79113377D01*
X117239387Y-79133678D01*
X117224730Y-79154561D01*
X117221862Y-79164352D01*
X117222004Y-79177361D01*
X117226039Y-79195895D01*
X117234854Y-79222257D01*
X117249331Y-79258752D01*
X117270355Y-79307687D01*
X117298812Y-79371365D01*
X117335585Y-79452093D01*
X117355825Y-79496216D01*
X117392375Y-79574985D01*
X117426685Y-79647423D01*
X117457448Y-79710880D01*
X117483352Y-79762708D01*
X117503090Y-79800259D01*
X117515350Y-79820884D01*
X117517776Y-79823733D01*
X117548817Y-79836302D01*
X117583879Y-79834619D01*
X117612000Y-79819332D01*
X117613146Y-79818089D01*
X117624332Y-79801154D01*
X117643096Y-79768170D01*
X117667125Y-79723380D01*
X117694103Y-79671032D01*
X117703799Y-79651742D01*
X117776986Y-79505150D01*
X117856760Y-79664393D01*
X117885233Y-79719415D01*
X117911650Y-79767132D01*
X117933852Y-79803893D01*
X117949681Y-79826044D01*
X117955046Y-79830741D01*
X117996743Y-79837102D01*
X118031151Y-79823733D01*
X118041272Y-79809446D01*
X118058786Y-79777692D01*
X118082265Y-79731597D01*
X118110280Y-79674285D01*
X118141401Y-79608880D01*
X118174201Y-79538507D01*
X118207250Y-79466291D01*
X118239119Y-79395355D01*
X118268381Y-79328825D01*
X118293605Y-79269826D01*
X118313364Y-79221481D01*
X118326228Y-79186915D01*
X118330769Y-79169253D01*
X118330723Y-79168613D01*
X118319674Y-79146388D01*
X118297590Y-79123753D01*
X118296290Y-79122768D01*
X118269147Y-79107425D01*
X118244042Y-79107574D01*
X118234632Y-79110466D01*
X118223166Y-79116718D01*
X118210990Y-79129014D01*
X118196643Y-79149908D01*
X118178664Y-79181949D01*
X118155593Y-79227688D01*
X118125970Y-79289677D01*
X118099255Y-79346898D01*
X118068520Y-79413226D01*
X118040979Y-79472874D01*
X118018062Y-79522725D01*
X118001202Y-79559664D01*
X117991827Y-79580573D01*
X117990460Y-79583845D01*
X117984311Y-79578497D01*
X117970178Y-79556109D01*
X117949943Y-79519946D01*
X117925485Y-79473277D01*
X117915752Y-79454022D01*
X117882783Y-79389004D01*
X117857357Y-79341654D01*
X117837388Y-79309219D01*
X117820790Y-79288946D01*
X117805476Y-79278082D01*
X117789360Y-79273875D01*
X117778857Y-79273400D01*
X117760330Y-79275042D01*
X117744096Y-79281831D01*
X117727965Y-79296566D01*
X117709749Y-79322044D01*
X117687261Y-79361061D01*
X117658311Y-79416414D01*
X117642338Y-79447903D01*
X117616430Y-79498087D01*
X117593833Y-79539704D01*
X117576542Y-79569242D01*
X117566550Y-79583189D01*
X117565191Y-79583770D01*
X117558739Y-79572793D01*
X117544292Y-79544290D01*
X117523297Y-79501244D01*
X117497203Y-79446638D01*
X117467454Y-79383454D01*
X117452820Y-79352071D01*
X117414750Y-79271078D01*
X117384095Y-79208756D01*
X117359263Y-79163071D01*
X117338663Y-79131989D01*
X117320702Y-79113478D01*
X117303790Y-79105504D01*
X117286335Y-79106034D01*
G36*
X116842386Y-79110877D02*
G01*
X116818673Y-79125647D01*
X116792022Y-79147227D01*
X116792022Y-79468773D01*
X116792107Y-79562830D01*
X116792471Y-79636932D01*
X116793276Y-79693704D01*
X116794687Y-79735768D01*
X116796867Y-79765748D01*
X116799979Y-79786267D01*
X116804186Y-79799949D01*
X116809652Y-79809416D01*
X116813528Y-79814082D01*
X116844966Y-79834575D01*
X116880767Y-79833739D01*
X116912127Y-79816264D01*
X116938778Y-79794684D01*
X116938778Y-79147227D01*
X116912127Y-79125647D01*
X116886406Y-79109949D01*
X116865400Y-79104067D01*
X116842386Y-79110877D01*
G37*
X116842386Y-79110877D02*
X116818673Y-79125647D01*
X116792022Y-79147227D01*
X116792022Y-79468773D01*
X116792107Y-79562830D01*
X116792471Y-79636932D01*
X116793276Y-79693704D01*
X116794687Y-79735768D01*
X116796867Y-79765748D01*
X116799979Y-79786267D01*
X116804186Y-79799949D01*
X116809652Y-79809416D01*
X116813528Y-79814082D01*
X116844966Y-79834575D01*
X116880767Y-79833739D01*
X116912127Y-79816264D01*
X116938778Y-79794684D01*
X116938778Y-79147227D01*
X116912127Y-79125647D01*
X116886406Y-79109949D01*
X116865400Y-79104067D01*
X116842386Y-79110877D01*
G36*
X116067935Y-79104163D02*
G01*
X115989228Y-79104542D01*
X115928137Y-79105333D01*
X115882183Y-79106670D01*
X115848886Y-79108683D01*
X115825764Y-79111506D01*
X115810338Y-79115269D01*
X115800129Y-79120105D01*
X115795187Y-79123822D01*
X115769543Y-79156358D01*
X115766441Y-79190138D01*
X115782289Y-79220826D01*
X115792652Y-79233089D01*
X115803804Y-79241450D01*
X115819965Y-79246657D01*
X115845358Y-79249457D01*
X115884202Y-79250596D01*
X115940720Y-79250821D01*
X115951820Y-79250822D01*
X116097756Y-79250822D01*
X116097756Y-79521756D01*
X116097852Y-79607154D01*
X116098289Y-79672864D01*
X116099288Y-79721774D01*
X116101072Y-79756773D01*
X116103863Y-79780749D01*
X116107883Y-79796593D01*
X116113355Y-79807191D01*
X116120334Y-79815267D01*
X116153266Y-79835112D01*
X116187646Y-79833548D01*
X116218824Y-79810906D01*
X116221114Y-79808100D01*
X116228571Y-79797492D01*
X116234253Y-79785081D01*
X116238399Y-79767850D01*
X116241250Y-79742784D01*
X116243046Y-79706867D01*
X116244028Y-79657083D01*
X116244436Y-79590417D01*
X116244511Y-79514589D01*
X116244511Y-79250822D01*
X116383873Y-79250822D01*
X116443678Y-79250418D01*
X116485082Y-79248840D01*
X116512252Y-79245547D01*
X116529354Y-79239992D01*
X116540557Y-79231631D01*
X116541917Y-79230178D01*
X116558275Y-79196939D01*
X116556828Y-79159362D01*
X116538022Y-79126645D01*
X116530750Y-79120298D01*
X116521373Y-79115266D01*
X116507391Y-79111396D01*
X116486304Y-79108537D01*
X116455611Y-79106535D01*
X116412811Y-79105239D01*
X116355405Y-79104498D01*
X116280890Y-79104158D01*
X116186767Y-79104068D01*
X116166740Y-79104067D01*
X116067935Y-79104163D01*
G37*
X116067935Y-79104163D02*
X115989228Y-79104542D01*
X115928137Y-79105333D01*
X115882183Y-79106670D01*
X115848886Y-79108683D01*
X115825764Y-79111506D01*
X115810338Y-79115269D01*
X115800129Y-79120105D01*
X115795187Y-79123822D01*
X115769543Y-79156358D01*
X115766441Y-79190138D01*
X115782289Y-79220826D01*
X115792652Y-79233089D01*
X115803804Y-79241450D01*
X115819965Y-79246657D01*
X115845358Y-79249457D01*
X115884202Y-79250596D01*
X115940720Y-79250821D01*
X115951820Y-79250822D01*
X116097756Y-79250822D01*
X116097756Y-79521756D01*
X116097852Y-79607154D01*
X116098289Y-79672864D01*
X116099288Y-79721774D01*
X116101072Y-79756773D01*
X116103863Y-79780749D01*
X116107883Y-79796593D01*
X116113355Y-79807191D01*
X116120334Y-79815267D01*
X116153266Y-79835112D01*
X116187646Y-79833548D01*
X116218824Y-79810906D01*
X116221114Y-79808100D01*
X116228571Y-79797492D01*
X116234253Y-79785081D01*
X116238399Y-79767850D01*
X116241250Y-79742784D01*
X116243046Y-79706867D01*
X116244028Y-79657083D01*
X116244436Y-79590417D01*
X116244511Y-79514589D01*
X116244511Y-79250822D01*
X116383873Y-79250822D01*
X116443678Y-79250418D01*
X116485082Y-79248840D01*
X116512252Y-79245547D01*
X116529354Y-79239992D01*
X116540557Y-79231631D01*
X116541917Y-79230178D01*
X116558275Y-79196939D01*
X116556828Y-79159362D01*
X116538022Y-79126645D01*
X116530750Y-79120298D01*
X116521373Y-79115266D01*
X116507391Y-79111396D01*
X116486304Y-79108537D01*
X116455611Y-79106535D01*
X116412811Y-79105239D01*
X116355405Y-79104498D01*
X116280890Y-79104158D01*
X116186767Y-79104068D01*
X116166740Y-79104067D01*
X116067935Y-79104163D01*
G36*
X114802177Y-79109533D02*
G01*
X114770798Y-79131776D01*
X114743089Y-79159485D01*
X114743089Y-79468920D01*
X114743162Y-79560799D01*
X114743505Y-79632840D01*
X114744308Y-79687780D01*
X114745759Y-79728360D01*
X114748048Y-79757317D01*
X114751364Y-79777391D01*
X114755895Y-79791321D01*
X114761831Y-79801845D01*
X114766486Y-79808100D01*
X114797217Y-79832673D01*
X114832504Y-79835341D01*
X114864755Y-79820271D01*
X114875412Y-79811374D01*
X114882536Y-79799557D01*
X114886833Y-79780526D01*
X114889009Y-79749992D01*
X114889772Y-79703662D01*
X114889845Y-79667871D01*
X114889845Y-79533045D01*
X115386556Y-79533045D01*
X115386556Y-79655700D01*
X115387069Y-79711787D01*
X115389124Y-79750333D01*
X115393492Y-79776361D01*
X115400944Y-79794897D01*
X115409953Y-79808100D01*
X115440856Y-79832604D01*
X115475804Y-79835506D01*
X115509262Y-79818089D01*
X115518396Y-79808959D01*
X115524848Y-79796855D01*
X115529103Y-79778001D01*
X115531648Y-79748620D01*
X115532971Y-79704937D01*
X115533557Y-79643175D01*
X115533625Y-79629000D01*
X115534109Y-79512631D01*
X115534359Y-79416727D01*
X115534277Y-79339177D01*
X115533769Y-79277869D01*
X115532738Y-79230690D01*
X115531087Y-79195530D01*
X115528721Y-79170276D01*
X115525543Y-79152817D01*
X115521456Y-79141041D01*
X115516366Y-79132835D01*
X115510734Y-79126645D01*
X115478872Y-79106844D01*
X115445643Y-79109533D01*
X115414265Y-79131776D01*
X115401567Y-79146126D01*
X115393474Y-79161978D01*
X115388958Y-79184554D01*
X115386994Y-79219078D01*
X115386556Y-79270776D01*
X115386556Y-79386289D01*
X114889845Y-79386289D01*
X114889845Y-79267756D01*
X114889338Y-79213148D01*
X114887302Y-79176275D01*
X114882965Y-79152307D01*
X114875553Y-79136415D01*
X114867267Y-79126645D01*
X114835406Y-79106844D01*
X114802177Y-79109533D01*
G37*
X114802177Y-79109533D02*
X114770798Y-79131776D01*
X114743089Y-79159485D01*
X114743089Y-79468920D01*
X114743162Y-79560799D01*
X114743505Y-79632840D01*
X114744308Y-79687780D01*
X114745759Y-79728360D01*
X114748048Y-79757317D01*
X114751364Y-79777391D01*
X114755895Y-79791321D01*
X114761831Y-79801845D01*
X114766486Y-79808100D01*
X114797217Y-79832673D01*
X114832504Y-79835341D01*
X114864755Y-79820271D01*
X114875412Y-79811374D01*
X114882536Y-79799557D01*
X114886833Y-79780526D01*
X114889009Y-79749992D01*
X114889772Y-79703662D01*
X114889845Y-79667871D01*
X114889845Y-79533045D01*
X115386556Y-79533045D01*
X115386556Y-79655700D01*
X115387069Y-79711787D01*
X115389124Y-79750333D01*
X115393492Y-79776361D01*
X115400944Y-79794897D01*
X115409953Y-79808100D01*
X115440856Y-79832604D01*
X115475804Y-79835506D01*
X115509262Y-79818089D01*
X115518396Y-79808959D01*
X115524848Y-79796855D01*
X115529103Y-79778001D01*
X115531648Y-79748620D01*
X115532971Y-79704937D01*
X115533557Y-79643175D01*
X115533625Y-79629000D01*
X115534109Y-79512631D01*
X115534359Y-79416727D01*
X115534277Y-79339177D01*
X115533769Y-79277869D01*
X115532738Y-79230690D01*
X115531087Y-79195530D01*
X115528721Y-79170276D01*
X115525543Y-79152817D01*
X115521456Y-79141041D01*
X115516366Y-79132835D01*
X115510734Y-79126645D01*
X115478872Y-79106844D01*
X115445643Y-79109533D01*
X115414265Y-79131776D01*
X115401567Y-79146126D01*
X115393474Y-79161978D01*
X115388958Y-79184554D01*
X115386994Y-79219078D01*
X115386556Y-79270776D01*
X115386556Y-79386289D01*
X114889845Y-79386289D01*
X114889845Y-79267756D01*
X114889338Y-79213148D01*
X114887302Y-79176275D01*
X114882965Y-79152307D01*
X114875553Y-79136415D01*
X114867267Y-79126645D01*
X114835406Y-79106844D01*
X114802177Y-79109533D01*
%TD*%
M02*
