%TF.GenerationSoftware,KiCad,Pcbnew,(5.1.6)-1*%
%TF.CreationDate,2020-12-22T23:38:05+01:00*%
%TF.ProjectId,02_Batt_Alim,30325f42-6174-4745-9f41-6c696d2e6b69,rev?*%
%TF.SameCoordinates,Original*%
%TF.FileFunction,Legend,Bot*%
%TF.FilePolarity,Positive*%
%FSLAX46Y46*%
G04 Gerber Fmt 4.6, Leading zero omitted, Abs format (unit mm)*
G04 Created by KiCad (PCBNEW (5.1.6)-1) date 2020-12-22 23:38:05*
%MOMM*%
%LPD*%
G01*
G04 APERTURE LIST*
%ADD10C,0.150000*%
%TA.AperFunction,Profile*%
%ADD11C,0.050000*%
%TD*%
%ADD12C,0.300000*%
%ADD13C,0.010000*%
G04 APERTURE END LIST*
D10*
X131262380Y-59350952D02*
X130262380Y-59350952D01*
X131262380Y-59779523D02*
X130738571Y-59779523D01*
X130643333Y-59731904D01*
X130595714Y-59636666D01*
X130595714Y-59493809D01*
X130643333Y-59398571D01*
X130690952Y-59350952D01*
X130595714Y-60112857D02*
X130595714Y-60493809D01*
X130262380Y-60255714D02*
X131119523Y-60255714D01*
X131214761Y-60303333D01*
X131262380Y-60398571D01*
X131262380Y-60493809D01*
X130595714Y-60684285D02*
X130595714Y-61065238D01*
X130262380Y-60827142D02*
X131119523Y-60827142D01*
X131214761Y-60874761D01*
X131262380Y-60970000D01*
X131262380Y-61065238D01*
X130595714Y-61398571D02*
X131595714Y-61398571D01*
X130643333Y-61398571D02*
X130595714Y-61493809D01*
X130595714Y-61684285D01*
X130643333Y-61779523D01*
X130690952Y-61827142D01*
X130786190Y-61874761D01*
X131071904Y-61874761D01*
X131167142Y-61827142D01*
X131214761Y-61779523D01*
X131262380Y-61684285D01*
X131262380Y-61493809D01*
X131214761Y-61398571D01*
X131214761Y-62255714D02*
X131262380Y-62350952D01*
X131262380Y-62541428D01*
X131214761Y-62636666D01*
X131119523Y-62684285D01*
X131071904Y-62684285D01*
X130976666Y-62636666D01*
X130929047Y-62541428D01*
X130929047Y-62398571D01*
X130881428Y-62303333D01*
X130786190Y-62255714D01*
X130738571Y-62255714D01*
X130643333Y-62303333D01*
X130595714Y-62398571D01*
X130595714Y-62541428D01*
X130643333Y-62636666D01*
X131167142Y-63112857D02*
X131214761Y-63160476D01*
X131262380Y-63112857D01*
X131214761Y-63065238D01*
X131167142Y-63112857D01*
X131262380Y-63112857D01*
X130643333Y-63112857D02*
X130690952Y-63160476D01*
X130738571Y-63112857D01*
X130690952Y-63065238D01*
X130643333Y-63112857D01*
X130738571Y-63112857D01*
X130214761Y-64303333D02*
X131500476Y-63446190D01*
X130214761Y-65350952D02*
X131500476Y-64493809D01*
X130595714Y-66112857D02*
X131405238Y-66112857D01*
X131500476Y-66065238D01*
X131548095Y-66017619D01*
X131595714Y-65922380D01*
X131595714Y-65779523D01*
X131548095Y-65684285D01*
X131214761Y-66112857D02*
X131262380Y-66017619D01*
X131262380Y-65827142D01*
X131214761Y-65731904D01*
X131167142Y-65684285D01*
X131071904Y-65636666D01*
X130786190Y-65636666D01*
X130690952Y-65684285D01*
X130643333Y-65731904D01*
X130595714Y-65827142D01*
X130595714Y-66017619D01*
X130643333Y-66112857D01*
X131262380Y-66589047D02*
X130595714Y-66589047D01*
X130262380Y-66589047D02*
X130310000Y-66541428D01*
X130357619Y-66589047D01*
X130310000Y-66636666D01*
X130262380Y-66589047D01*
X130357619Y-66589047D01*
X130595714Y-66922380D02*
X130595714Y-67303333D01*
X130262380Y-67065238D02*
X131119523Y-67065238D01*
X131214761Y-67112857D01*
X131262380Y-67208095D01*
X131262380Y-67303333D01*
X131262380Y-67636666D02*
X130262380Y-67636666D01*
X131262380Y-68065238D02*
X130738571Y-68065238D01*
X130643333Y-68017619D01*
X130595714Y-67922380D01*
X130595714Y-67779523D01*
X130643333Y-67684285D01*
X130690952Y-67636666D01*
X130595714Y-68970000D02*
X131262380Y-68970000D01*
X130595714Y-68541428D02*
X131119523Y-68541428D01*
X131214761Y-68589047D01*
X131262380Y-68684285D01*
X131262380Y-68827142D01*
X131214761Y-68922380D01*
X131167142Y-68970000D01*
X131262380Y-69446190D02*
X130262380Y-69446190D01*
X130643333Y-69446190D02*
X130595714Y-69541428D01*
X130595714Y-69731904D01*
X130643333Y-69827142D01*
X130690952Y-69874761D01*
X130786190Y-69922380D01*
X131071904Y-69922380D01*
X131167142Y-69874761D01*
X131214761Y-69827142D01*
X131262380Y-69731904D01*
X131262380Y-69541428D01*
X131214761Y-69446190D01*
X131167142Y-70350952D02*
X131214761Y-70398571D01*
X131262380Y-70350952D01*
X131214761Y-70303333D01*
X131167142Y-70350952D01*
X131262380Y-70350952D01*
X131214761Y-71255714D02*
X131262380Y-71160476D01*
X131262380Y-70970000D01*
X131214761Y-70874761D01*
X131167142Y-70827142D01*
X131071904Y-70779523D01*
X130786190Y-70779523D01*
X130690952Y-70827142D01*
X130643333Y-70874761D01*
X130595714Y-70970000D01*
X130595714Y-71160476D01*
X130643333Y-71255714D01*
X131262380Y-71827142D02*
X131214761Y-71731904D01*
X131167142Y-71684285D01*
X131071904Y-71636666D01*
X130786190Y-71636666D01*
X130690952Y-71684285D01*
X130643333Y-71731904D01*
X130595714Y-71827142D01*
X130595714Y-71970000D01*
X130643333Y-72065238D01*
X130690952Y-72112857D01*
X130786190Y-72160476D01*
X131071904Y-72160476D01*
X131167142Y-72112857D01*
X131214761Y-72065238D01*
X131262380Y-71970000D01*
X131262380Y-71827142D01*
X131262380Y-72589047D02*
X130595714Y-72589047D01*
X130690952Y-72589047D02*
X130643333Y-72636666D01*
X130595714Y-72731904D01*
X130595714Y-72874761D01*
X130643333Y-72970000D01*
X130738571Y-73017619D01*
X131262380Y-73017619D01*
X130738571Y-73017619D02*
X130643333Y-73065238D01*
X130595714Y-73160476D01*
X130595714Y-73303333D01*
X130643333Y-73398571D01*
X130738571Y-73446190D01*
X131262380Y-73446190D01*
X130214761Y-74636666D02*
X131500476Y-73779523D01*
X130262380Y-74827142D02*
X130262380Y-75398571D01*
X131262380Y-75112857D02*
X130262380Y-75112857D01*
X131262380Y-75731904D02*
X130262380Y-75731904D01*
X131262380Y-76160476D02*
X130738571Y-76160476D01*
X130643333Y-76112857D01*
X130595714Y-76017619D01*
X130595714Y-75874761D01*
X130643333Y-75779523D01*
X130690952Y-75731904D01*
X131262380Y-76636666D02*
X130595714Y-76636666D01*
X130262380Y-76636666D02*
X130310000Y-76589047D01*
X130357619Y-76636666D01*
X130310000Y-76684285D01*
X130262380Y-76636666D01*
X130357619Y-76636666D01*
X131214761Y-77493809D02*
X131262380Y-77398571D01*
X131262380Y-77208095D01*
X131214761Y-77112857D01*
X131119523Y-77065238D01*
X130738571Y-77065238D01*
X130643333Y-77112857D01*
X130595714Y-77208095D01*
X130595714Y-77398571D01*
X130643333Y-77493809D01*
X130738571Y-77541428D01*
X130833809Y-77541428D01*
X130929047Y-77065238D01*
X131262380Y-77970000D02*
X130595714Y-77970000D01*
X130786190Y-77970000D02*
X130690952Y-78017619D01*
X130643333Y-78065238D01*
X130595714Y-78160476D01*
X130595714Y-78255714D01*
X131262380Y-78589047D02*
X130595714Y-78589047D01*
X130786190Y-78589047D02*
X130690952Y-78636666D01*
X130643333Y-78684285D01*
X130595714Y-78779523D01*
X130595714Y-78874761D01*
X130595714Y-79112857D02*
X131262380Y-79350952D01*
X130595714Y-79589047D02*
X131262380Y-79350952D01*
X131500476Y-79255714D01*
X131548095Y-79208095D01*
X131595714Y-79112857D01*
X130262380Y-80160476D02*
X130262380Y-80350952D01*
X130310000Y-80446190D01*
X130405238Y-80541428D01*
X130595714Y-80589047D01*
X130929047Y-80589047D01*
X131119523Y-80541428D01*
X131214761Y-80446190D01*
X131262380Y-80350952D01*
X131262380Y-80160476D01*
X131214761Y-80065238D01*
X131119523Y-79970000D01*
X130929047Y-79922380D01*
X130595714Y-79922380D01*
X130405238Y-79970000D01*
X130310000Y-80065238D01*
X130262380Y-80160476D01*
X131262380Y-81017619D02*
X130595714Y-81017619D01*
X130786190Y-81017619D02*
X130690952Y-81065238D01*
X130643333Y-81112857D01*
X130595714Y-81208095D01*
X130595714Y-81303333D01*
X131262380Y-81779523D02*
X131214761Y-81684285D01*
X131119523Y-81636666D01*
X130262380Y-81636666D01*
X131262380Y-82589047D02*
X130738571Y-82589047D01*
X130643333Y-82541428D01*
X130595714Y-82446190D01*
X130595714Y-82255714D01*
X130643333Y-82160476D01*
X131214761Y-82589047D02*
X131262380Y-82493809D01*
X131262380Y-82255714D01*
X131214761Y-82160476D01*
X131119523Y-82112857D01*
X131024285Y-82112857D01*
X130929047Y-82160476D01*
X130881428Y-82255714D01*
X130881428Y-82493809D01*
X130833809Y-82589047D01*
X130595714Y-83065238D02*
X131262380Y-83065238D01*
X130690952Y-83065238D02*
X130643333Y-83112857D01*
X130595714Y-83208095D01*
X130595714Y-83350952D01*
X130643333Y-83446190D01*
X130738571Y-83493809D01*
X131262380Y-83493809D01*
X131262380Y-84398571D02*
X130262380Y-84398571D01*
X131214761Y-84398571D02*
X131262380Y-84303333D01*
X131262380Y-84112857D01*
X131214761Y-84017619D01*
X131167142Y-83970000D01*
X131071904Y-83922380D01*
X130786190Y-83922380D01*
X130690952Y-83970000D01*
X130643333Y-84017619D01*
X130595714Y-84112857D01*
X130595714Y-84303333D01*
X130643333Y-84398571D01*
X131262380Y-84874761D02*
X130595714Y-84874761D01*
X130262380Y-84874761D02*
X130310000Y-84827142D01*
X130357619Y-84874761D01*
X130310000Y-84922380D01*
X130262380Y-84874761D01*
X130357619Y-84874761D01*
X130214761Y-86065238D02*
X131500476Y-85208095D01*
X130262380Y-86589047D02*
X130262380Y-86684285D01*
X130310000Y-86779523D01*
X130357619Y-86827142D01*
X130452857Y-86874761D01*
X130643333Y-86922380D01*
X130881428Y-86922380D01*
X131071904Y-86874761D01*
X131167142Y-86827142D01*
X131214761Y-86779523D01*
X131262380Y-86684285D01*
X131262380Y-86589047D01*
X131214761Y-86493809D01*
X131167142Y-86446190D01*
X131071904Y-86398571D01*
X130881428Y-86350952D01*
X130643333Y-86350952D01*
X130452857Y-86398571D01*
X130357619Y-86446190D01*
X130310000Y-86493809D01*
X130262380Y-86589047D01*
X130357619Y-87303333D02*
X130310000Y-87350952D01*
X130262380Y-87446190D01*
X130262380Y-87684285D01*
X130310000Y-87779523D01*
X130357619Y-87827142D01*
X130452857Y-87874761D01*
X130548095Y-87874761D01*
X130690952Y-87827142D01*
X131262380Y-87255714D01*
X131262380Y-87874761D01*
X131357619Y-88065238D02*
X131357619Y-88827142D01*
X130738571Y-89398571D02*
X130786190Y-89541428D01*
X130833809Y-89589047D01*
X130929047Y-89636666D01*
X131071904Y-89636666D01*
X131167142Y-89589047D01*
X131214761Y-89541428D01*
X131262380Y-89446190D01*
X131262380Y-89065238D01*
X130262380Y-89065238D01*
X130262380Y-89398571D01*
X130310000Y-89493809D01*
X130357619Y-89541428D01*
X130452857Y-89589047D01*
X130548095Y-89589047D01*
X130643333Y-89541428D01*
X130690952Y-89493809D01*
X130738571Y-89398571D01*
X130738571Y-89065238D01*
X131262380Y-90493809D02*
X130738571Y-90493809D01*
X130643333Y-90446190D01*
X130595714Y-90350952D01*
X130595714Y-90160476D01*
X130643333Y-90065238D01*
X131214761Y-90493809D02*
X131262380Y-90398571D01*
X131262380Y-90160476D01*
X131214761Y-90065238D01*
X131119523Y-90017619D01*
X131024285Y-90017619D01*
X130929047Y-90065238D01*
X130881428Y-90160476D01*
X130881428Y-90398571D01*
X130833809Y-90493809D01*
X130595714Y-90827142D02*
X130595714Y-91208095D01*
X130262380Y-90970000D02*
X131119523Y-90970000D01*
X131214761Y-91017619D01*
X131262380Y-91112857D01*
X131262380Y-91208095D01*
X130595714Y-91398571D02*
X130595714Y-91779523D01*
X130262380Y-91541428D02*
X131119523Y-91541428D01*
X131214761Y-91589047D01*
X131262380Y-91684285D01*
X131262380Y-91779523D01*
X131357619Y-91874761D02*
X131357619Y-92636666D01*
X130976666Y-92827142D02*
X130976666Y-93303333D01*
X131262380Y-92731904D02*
X130262380Y-93065238D01*
X131262380Y-93398571D01*
X131262380Y-93874761D02*
X131214761Y-93779523D01*
X131119523Y-93731904D01*
X130262380Y-93731904D01*
X131262380Y-94255714D02*
X130595714Y-94255714D01*
X130262380Y-94255714D02*
X130310000Y-94208095D01*
X130357619Y-94255714D01*
X130310000Y-94303333D01*
X130262380Y-94255714D01*
X130357619Y-94255714D01*
X131262380Y-94731904D02*
X130595714Y-94731904D01*
X130690952Y-94731904D02*
X130643333Y-94779523D01*
X130595714Y-94874761D01*
X130595714Y-95017619D01*
X130643333Y-95112857D01*
X130738571Y-95160476D01*
X131262380Y-95160476D01*
X130738571Y-95160476D02*
X130643333Y-95208095D01*
X130595714Y-95303333D01*
X130595714Y-95446190D01*
X130643333Y-95541428D01*
X130738571Y-95589047D01*
X131262380Y-95589047D01*
D11*
X134620000Y-97790000D02*
X100330000Y-97790000D01*
X134620000Y-54610000D02*
X134620000Y-97790000D01*
X100330000Y-54610000D02*
X134620000Y-54610000D01*
X100330000Y-97790000D02*
X100330000Y-54610000D01*
D10*
X108949904Y-85939380D02*
X108616571Y-86939380D01*
X108283238Y-85939380D01*
X107997523Y-86034619D02*
X107949904Y-85987000D01*
X107854666Y-85939380D01*
X107616571Y-85939380D01*
X107521333Y-85987000D01*
X107473714Y-86034619D01*
X107426095Y-86129857D01*
X107426095Y-86225095D01*
X107473714Y-86367952D01*
X108045142Y-86939380D01*
X107426095Y-86939380D01*
X106568952Y-86272714D02*
X106568952Y-86939380D01*
X106997523Y-86272714D02*
X106997523Y-86796523D01*
X106949904Y-86891761D01*
X106854666Y-86939380D01*
X106711809Y-86939380D01*
X106616571Y-86891761D01*
X106568952Y-86844142D01*
X105521333Y-86844142D02*
X105568952Y-86891761D01*
X105711809Y-86939380D01*
X105807047Y-86939380D01*
X105949904Y-86891761D01*
X106045142Y-86796523D01*
X106092761Y-86701285D01*
X106140380Y-86510809D01*
X106140380Y-86367952D01*
X106092761Y-86177476D01*
X106045142Y-86082238D01*
X105949904Y-85987000D01*
X105807047Y-85939380D01*
X105711809Y-85939380D01*
X105568952Y-85987000D01*
X105521333Y-86034619D01*
X108505476Y-83605714D02*
X108505476Y-84272380D01*
X108934047Y-83605714D02*
X108934047Y-84129523D01*
X108886428Y-84224761D01*
X108791190Y-84272380D01*
X108648333Y-84272380D01*
X108553095Y-84224761D01*
X108505476Y-84177142D01*
X107457857Y-84177142D02*
X107505476Y-84224761D01*
X107648333Y-84272380D01*
X107743571Y-84272380D01*
X107886428Y-84224761D01*
X107981666Y-84129523D01*
X108029285Y-84034285D01*
X108076904Y-83843809D01*
X108076904Y-83700952D01*
X108029285Y-83510476D01*
X107981666Y-83415238D01*
X107886428Y-83320000D01*
X107743571Y-83272380D01*
X107648333Y-83272380D01*
X107505476Y-83320000D01*
X107457857Y-83367619D01*
X107076904Y-83367619D02*
X107029285Y-83320000D01*
X106934047Y-83272380D01*
X106695952Y-83272380D01*
X106600714Y-83320000D01*
X106553095Y-83367619D01*
X106505476Y-83462857D01*
X106505476Y-83558095D01*
X106553095Y-83700952D01*
X107124523Y-84272380D01*
X106505476Y-84272380D01*
X106219761Y-83272380D02*
X105886428Y-84272380D01*
X105553095Y-83272380D01*
X107695904Y-80780000D02*
X107791142Y-80732380D01*
X107934000Y-80732380D01*
X108076857Y-80780000D01*
X108172095Y-80875238D01*
X108219714Y-80970476D01*
X108267333Y-81160952D01*
X108267333Y-81303809D01*
X108219714Y-81494285D01*
X108172095Y-81589523D01*
X108076857Y-81684761D01*
X107934000Y-81732380D01*
X107838761Y-81732380D01*
X107695904Y-81684761D01*
X107648285Y-81637142D01*
X107648285Y-81303809D01*
X107838761Y-81303809D01*
X107219714Y-81732380D02*
X107219714Y-80732380D01*
X106648285Y-81732380D01*
X106648285Y-80732380D01*
X106172095Y-81732380D02*
X106172095Y-80732380D01*
X105934000Y-80732380D01*
X105791142Y-80780000D01*
X105695904Y-80875238D01*
X105648285Y-80970476D01*
X105600666Y-81160952D01*
X105600666Y-81303809D01*
X105648285Y-81494285D01*
X105695904Y-81589523D01*
X105791142Y-81684761D01*
X105934000Y-81732380D01*
X106172095Y-81732380D01*
X107965714Y-88352380D02*
X107632380Y-89352380D01*
X107299047Y-88352380D01*
X106537142Y-88685714D02*
X106537142Y-89352380D01*
X106965714Y-88685714D02*
X106965714Y-89209523D01*
X106918095Y-89304761D01*
X106822857Y-89352380D01*
X106680000Y-89352380D01*
X106584761Y-89304761D01*
X106537142Y-89257142D01*
X105489523Y-89257142D02*
X105537142Y-89304761D01*
X105680000Y-89352380D01*
X105775238Y-89352380D01*
X105918095Y-89304761D01*
X106013333Y-89209523D01*
X106060952Y-89114285D01*
X106108571Y-88923809D01*
X106108571Y-88780952D01*
X106060952Y-88590476D01*
X106013333Y-88495238D01*
X105918095Y-88400000D01*
X105775238Y-88352380D01*
X105680000Y-88352380D01*
X105537142Y-88400000D01*
X105489523Y-88447619D01*
X107441904Y-90940000D02*
X107537142Y-90892380D01*
X107680000Y-90892380D01*
X107822857Y-90940000D01*
X107918095Y-91035238D01*
X107965714Y-91130476D01*
X108013333Y-91320952D01*
X108013333Y-91463809D01*
X107965714Y-91654285D01*
X107918095Y-91749523D01*
X107822857Y-91844761D01*
X107680000Y-91892380D01*
X107584761Y-91892380D01*
X107441904Y-91844761D01*
X107394285Y-91797142D01*
X107394285Y-91463809D01*
X107584761Y-91463809D01*
X106965714Y-91892380D02*
X106965714Y-90892380D01*
X106394285Y-91892380D01*
X106394285Y-90892380D01*
X105918095Y-91892380D02*
X105918095Y-90892380D01*
X105680000Y-90892380D01*
X105537142Y-90940000D01*
X105441904Y-91035238D01*
X105394285Y-91130476D01*
X105346666Y-91320952D01*
X105346666Y-91463809D01*
X105394285Y-91654285D01*
X105441904Y-91749523D01*
X105537142Y-91844761D01*
X105680000Y-91892380D01*
X105918095Y-91892380D01*
X106616476Y-93559380D02*
X107092666Y-93559380D01*
X107140285Y-94035571D01*
X107092666Y-93987952D01*
X106997428Y-93940333D01*
X106759333Y-93940333D01*
X106664095Y-93987952D01*
X106616476Y-94035571D01*
X106568857Y-94130809D01*
X106568857Y-94368904D01*
X106616476Y-94464142D01*
X106664095Y-94511761D01*
X106759333Y-94559380D01*
X106997428Y-94559380D01*
X107092666Y-94511761D01*
X107140285Y-94464142D01*
X106283142Y-93559380D02*
X105949809Y-94559380D01*
X105616476Y-93559380D01*
X110870666Y-79144761D02*
X110727809Y-79192380D01*
X110489714Y-79192380D01*
X110394476Y-79144761D01*
X110346857Y-79097142D01*
X110299238Y-79001904D01*
X110299238Y-78906666D01*
X110346857Y-78811428D01*
X110394476Y-78763809D01*
X110489714Y-78716190D01*
X110680190Y-78668571D01*
X110775428Y-78620952D01*
X110823047Y-78573333D01*
X110870666Y-78478095D01*
X110870666Y-78382857D01*
X110823047Y-78287619D01*
X110775428Y-78240000D01*
X110680190Y-78192380D01*
X110442095Y-78192380D01*
X110299238Y-78240000D01*
X109965904Y-78192380D02*
X109727809Y-79192380D01*
X109537333Y-78478095D01*
X109346857Y-79192380D01*
X109108761Y-78192380D01*
X108965904Y-79287619D02*
X108204000Y-79287619D01*
X107775428Y-78192380D02*
X107584952Y-78192380D01*
X107489714Y-78240000D01*
X107394476Y-78335238D01*
X107346857Y-78525714D01*
X107346857Y-78859047D01*
X107394476Y-79049523D01*
X107489714Y-79144761D01*
X107584952Y-79192380D01*
X107775428Y-79192380D01*
X107870666Y-79144761D01*
X107965904Y-79049523D01*
X108013523Y-78859047D01*
X108013523Y-78525714D01*
X107965904Y-78335238D01*
X107870666Y-78240000D01*
X107775428Y-78192380D01*
X106918285Y-78192380D02*
X106918285Y-79001904D01*
X106870666Y-79097142D01*
X106823047Y-79144761D01*
X106727809Y-79192380D01*
X106537333Y-79192380D01*
X106442095Y-79144761D01*
X106394476Y-79097142D01*
X106346857Y-79001904D01*
X106346857Y-78192380D01*
X106013523Y-78192380D02*
X105442095Y-78192380D01*
X105727809Y-79192380D02*
X105727809Y-78192380D01*
X109442000Y-76604761D02*
X109299142Y-76652380D01*
X109061047Y-76652380D01*
X108965809Y-76604761D01*
X108918190Y-76557142D01*
X108870571Y-76461904D01*
X108870571Y-76366666D01*
X108918190Y-76271428D01*
X108965809Y-76223809D01*
X109061047Y-76176190D01*
X109251523Y-76128571D01*
X109346761Y-76080952D01*
X109394380Y-76033333D01*
X109442000Y-75938095D01*
X109442000Y-75842857D01*
X109394380Y-75747619D01*
X109346761Y-75700000D01*
X109251523Y-75652380D01*
X109013428Y-75652380D01*
X108870571Y-75700000D01*
X108537238Y-75652380D02*
X108299142Y-76652380D01*
X108108666Y-75938095D01*
X107918190Y-76652380D01*
X107680095Y-75652380D01*
X107537238Y-76747619D02*
X106775333Y-76747619D01*
X106537238Y-76652380D02*
X106537238Y-75652380D01*
X106061047Y-76652380D02*
X106061047Y-75652380D01*
X105489619Y-76652380D01*
X105489619Y-75652380D01*
X106354571Y-74699523D02*
X106354571Y-73937619D01*
X106497428Y-73128095D02*
X106449809Y-72985238D01*
X106402190Y-72937619D01*
X106306952Y-72890000D01*
X106164095Y-72890000D01*
X106068857Y-72937619D01*
X106021238Y-72985238D01*
X105973619Y-73080476D01*
X105973619Y-73461428D01*
X106973619Y-73461428D01*
X106973619Y-73128095D01*
X106926000Y-73032857D01*
X106878380Y-72985238D01*
X106783142Y-72937619D01*
X106687904Y-72937619D01*
X106592666Y-72985238D01*
X106545047Y-73032857D01*
X106497428Y-73128095D01*
X106497428Y-73461428D01*
X106259333Y-72509047D02*
X106259333Y-72032857D01*
X105973619Y-72604285D02*
X106973619Y-72270952D01*
X105973619Y-71937619D01*
X106973619Y-71747142D02*
X106973619Y-71175714D01*
X105973619Y-71461428D02*
X106973619Y-71461428D01*
X106354571Y-70842380D02*
X106354571Y-70080476D01*
X105973619Y-70461428D02*
X106735523Y-70461428D01*
X107695904Y-68207000D02*
X107791142Y-68159380D01*
X107934000Y-68159380D01*
X108076857Y-68207000D01*
X108172095Y-68302238D01*
X108219714Y-68397476D01*
X108267333Y-68587952D01*
X108267333Y-68730809D01*
X108219714Y-68921285D01*
X108172095Y-69016523D01*
X108076857Y-69111761D01*
X107934000Y-69159380D01*
X107838761Y-69159380D01*
X107695904Y-69111761D01*
X107648285Y-69064142D01*
X107648285Y-68730809D01*
X107838761Y-68730809D01*
X107219714Y-69159380D02*
X107219714Y-68159380D01*
X106648285Y-69159380D01*
X106648285Y-68159380D01*
X106172095Y-69159380D02*
X106172095Y-68159380D01*
X105934000Y-68159380D01*
X105791142Y-68207000D01*
X105695904Y-68302238D01*
X105648285Y-68397476D01*
X105600666Y-68587952D01*
X105600666Y-68730809D01*
X105648285Y-68921285D01*
X105695904Y-69016523D01*
X105791142Y-69111761D01*
X105934000Y-69159380D01*
X106172095Y-69159380D01*
X109275333Y-65619380D02*
X108942000Y-66619380D01*
X108608666Y-65619380D01*
X108513428Y-66714619D02*
X107751523Y-66714619D01*
X107132476Y-66571761D02*
X107227714Y-66619380D01*
X107418190Y-66619380D01*
X107513428Y-66571761D01*
X107561047Y-66476523D01*
X107561047Y-66095571D01*
X107513428Y-66000333D01*
X107418190Y-65952714D01*
X107227714Y-65952714D01*
X107132476Y-66000333D01*
X107084857Y-66095571D01*
X107084857Y-66190809D01*
X107561047Y-66286047D01*
X106751523Y-66619380D02*
X106227714Y-65952714D01*
X106751523Y-65952714D02*
X106227714Y-66619380D01*
X105989619Y-65952714D02*
X105608666Y-65952714D01*
X105846761Y-65619380D02*
X105846761Y-66476523D01*
X105799142Y-66571761D01*
X105703904Y-66619380D01*
X105608666Y-66619380D01*
D12*
X130931428Y-57042857D02*
X130717142Y-57114285D01*
X130645714Y-57185714D01*
X130574285Y-57328571D01*
X130574285Y-57542857D01*
X130645714Y-57685714D01*
X130717142Y-57757142D01*
X130860000Y-57828571D01*
X131431428Y-57828571D01*
X131431428Y-56328571D01*
X130931428Y-56328571D01*
X130788571Y-56400000D01*
X130717142Y-56471428D01*
X130645714Y-56614285D01*
X130645714Y-56757142D01*
X130717142Y-56900000D01*
X130788571Y-56971428D01*
X130931428Y-57042857D01*
X131431428Y-57042857D01*
X129288571Y-57828571D02*
X129288571Y-57042857D01*
X129360000Y-56900000D01*
X129502857Y-56828571D01*
X129788571Y-56828571D01*
X129931428Y-56900000D01*
X129288571Y-57757142D02*
X129431428Y-57828571D01*
X129788571Y-57828571D01*
X129931428Y-57757142D01*
X130002857Y-57614285D01*
X130002857Y-57471428D01*
X129931428Y-57328571D01*
X129788571Y-57257142D01*
X129431428Y-57257142D01*
X129288571Y-57185714D01*
X128788571Y-56828571D02*
X128217142Y-56828571D01*
X128574285Y-56328571D02*
X128574285Y-57614285D01*
X128502857Y-57757142D01*
X128360000Y-57828571D01*
X128217142Y-57828571D01*
X127931428Y-56828571D02*
X127360000Y-56828571D01*
X127717142Y-56328571D02*
X127717142Y-57614285D01*
X127645714Y-57757142D01*
X127502857Y-57828571D01*
X127360000Y-57828571D01*
X127217142Y-57971428D02*
X126074285Y-57971428D01*
X125788571Y-57400000D02*
X125074285Y-57400000D01*
X125931428Y-57828571D02*
X125431428Y-56328571D01*
X124931428Y-57828571D01*
X124217142Y-57828571D02*
X124359999Y-57757142D01*
X124431428Y-57614285D01*
X124431428Y-56328571D01*
X123645714Y-57828571D02*
X123645714Y-56828571D01*
X123645714Y-56328571D02*
X123717142Y-56400000D01*
X123645714Y-56471428D01*
X123574285Y-56400000D01*
X123645714Y-56328571D01*
X123645714Y-56471428D01*
X122931428Y-57828571D02*
X122931428Y-56828571D01*
X122931428Y-56971428D02*
X122859999Y-56900000D01*
X122717142Y-56828571D01*
X122502857Y-56828571D01*
X122359999Y-56900000D01*
X122288571Y-57042857D01*
X122288571Y-57828571D01*
X122288571Y-57042857D02*
X122217142Y-56900000D01*
X122074285Y-56828571D01*
X121859999Y-56828571D01*
X121717142Y-56900000D01*
X121645714Y-57042857D01*
X121645714Y-57828571D01*
X118717142Y-56471428D02*
X118645714Y-56400000D01*
X118502857Y-56328571D01*
X118145714Y-56328571D01*
X118002857Y-56400000D01*
X117931428Y-56471428D01*
X117860000Y-56614285D01*
X117860000Y-56757142D01*
X117931428Y-56971428D01*
X118788571Y-57828571D01*
X117860000Y-57828571D01*
X116931428Y-56328571D02*
X116788571Y-56328571D01*
X116645714Y-56400000D01*
X116574285Y-56471428D01*
X116502857Y-56614285D01*
X116431428Y-56900000D01*
X116431428Y-57257142D01*
X116502857Y-57542857D01*
X116574285Y-57685714D01*
X116645714Y-57757142D01*
X116788571Y-57828571D01*
X116931428Y-57828571D01*
X117074285Y-57757142D01*
X117145714Y-57685714D01*
X117217142Y-57542857D01*
X117288571Y-57257142D01*
X117288571Y-56900000D01*
X117217142Y-56614285D01*
X117145714Y-56471428D01*
X117074285Y-56400000D01*
X116931428Y-56328571D01*
X115859999Y-56471428D02*
X115788571Y-56400000D01*
X115645714Y-56328571D01*
X115288571Y-56328571D01*
X115145714Y-56400000D01*
X115074285Y-56471428D01*
X115002857Y-56614285D01*
X115002857Y-56757142D01*
X115074285Y-56971428D01*
X115931428Y-57828571D01*
X115002857Y-57828571D01*
X114074285Y-56328571D02*
X113931428Y-56328571D01*
X113788571Y-56400000D01*
X113717142Y-56471428D01*
X113645714Y-56614285D01*
X113574285Y-56900000D01*
X113574285Y-57257142D01*
X113645714Y-57542857D01*
X113717142Y-57685714D01*
X113788571Y-57757142D01*
X113931428Y-57828571D01*
X114074285Y-57828571D01*
X114217142Y-57757142D01*
X114288571Y-57685714D01*
X114359999Y-57542857D01*
X114431428Y-57257142D01*
X114431428Y-56900000D01*
X114359999Y-56614285D01*
X114288571Y-56471428D01*
X114217142Y-56400000D01*
X114074285Y-56328571D01*
X111859999Y-56257142D02*
X113145714Y-58185714D01*
X110574285Y-57828571D02*
X111431428Y-57828571D01*
X111002857Y-57828571D02*
X111002857Y-56328571D01*
X111145714Y-56542857D01*
X111288571Y-56685714D01*
X111431428Y-56757142D01*
X110002857Y-56471428D02*
X109931428Y-56400000D01*
X109788571Y-56328571D01*
X109431428Y-56328571D01*
X109288571Y-56400000D01*
X109217142Y-56471428D01*
X109145714Y-56614285D01*
X109145714Y-56757142D01*
X109217142Y-56971428D01*
X110074285Y-57828571D01*
X109145714Y-57828571D01*
X107431428Y-56257142D02*
X108717142Y-58185714D01*
X107002857Y-56471428D02*
X106931428Y-56400000D01*
X106788571Y-56328571D01*
X106431428Y-56328571D01*
X106288571Y-56400000D01*
X106217142Y-56471428D01*
X106145714Y-56614285D01*
X106145714Y-56757142D01*
X106217142Y-56971428D01*
X107074285Y-57828571D01*
X106145714Y-57828571D01*
X105574285Y-56471428D02*
X105502857Y-56400000D01*
X105359999Y-56328571D01*
X105002857Y-56328571D01*
X104859999Y-56400000D01*
X104788571Y-56471428D01*
X104717142Y-56614285D01*
X104717142Y-56757142D01*
X104788571Y-56971428D01*
X105645714Y-57828571D01*
X104717142Y-57828571D01*
D13*
%TO.C,REF\u002A\u002A*%
G36*
X120729186Y-83193931D02*
G01*
X120645365Y-83638555D01*
X120336080Y-83766053D01*
X120026794Y-83893551D01*
X119655754Y-83641246D01*
X119551843Y-83570996D01*
X119457913Y-83508272D01*
X119378348Y-83455938D01*
X119317530Y-83416857D01*
X119279843Y-83393893D01*
X119269579Y-83388942D01*
X119251090Y-83401676D01*
X119211580Y-83436882D01*
X119155478Y-83490062D01*
X119087213Y-83556718D01*
X119011214Y-83632354D01*
X118931908Y-83712472D01*
X118853725Y-83792574D01*
X118781093Y-83868164D01*
X118718441Y-83934745D01*
X118670197Y-83987818D01*
X118640790Y-84022887D01*
X118633759Y-84034623D01*
X118643877Y-84056260D01*
X118672241Y-84103662D01*
X118715871Y-84172193D01*
X118771782Y-84257215D01*
X118836994Y-84354093D01*
X118874781Y-84409350D01*
X118943657Y-84510248D01*
X119004860Y-84601299D01*
X119055422Y-84677970D01*
X119092372Y-84735728D01*
X119112742Y-84770043D01*
X119115803Y-84777254D01*
X119108864Y-84797748D01*
X119089949Y-84845513D01*
X119061913Y-84913832D01*
X119027609Y-84995989D01*
X118989891Y-85085270D01*
X118951613Y-85174958D01*
X118915630Y-85258338D01*
X118884794Y-85328694D01*
X118861961Y-85379310D01*
X118849983Y-85403471D01*
X118849276Y-85404422D01*
X118830469Y-85409036D01*
X118780382Y-85419328D01*
X118704207Y-85434287D01*
X118607135Y-85452901D01*
X118494357Y-85474159D01*
X118428558Y-85486418D01*
X118308050Y-85509362D01*
X118199203Y-85531195D01*
X118107524Y-85550722D01*
X118038519Y-85566748D01*
X117997696Y-85578079D01*
X117989489Y-85581674D01*
X117981452Y-85606006D01*
X117974967Y-85660959D01*
X117970030Y-85740108D01*
X117966636Y-85837026D01*
X117964782Y-85945287D01*
X117964462Y-86058465D01*
X117965673Y-86170135D01*
X117968410Y-86273868D01*
X117972669Y-86363241D01*
X117978445Y-86431826D01*
X117985733Y-86473197D01*
X117990105Y-86481810D01*
X118016236Y-86492133D01*
X118071607Y-86506892D01*
X118148893Y-86524352D01*
X118240770Y-86542780D01*
X118272842Y-86548741D01*
X118427476Y-86577066D01*
X118549625Y-86599876D01*
X118643327Y-86618080D01*
X118712616Y-86632583D01*
X118761529Y-86644292D01*
X118794103Y-86654115D01*
X118814372Y-86662956D01*
X118826374Y-86671724D01*
X118828053Y-86673457D01*
X118844816Y-86701371D01*
X118870386Y-86755695D01*
X118902212Y-86829777D01*
X118937740Y-86916965D01*
X118974417Y-87010608D01*
X119009689Y-87104052D01*
X119041004Y-87190647D01*
X119065807Y-87263740D01*
X119081546Y-87316678D01*
X119085668Y-87342811D01*
X119085324Y-87343726D01*
X119071359Y-87365086D01*
X119039678Y-87412084D01*
X118993609Y-87479827D01*
X118936482Y-87563423D01*
X118871627Y-87657982D01*
X118853157Y-87684854D01*
X118787301Y-87782275D01*
X118729350Y-87871163D01*
X118682462Y-87946412D01*
X118649793Y-88002920D01*
X118634500Y-88035581D01*
X118633759Y-88039593D01*
X118646608Y-88060684D01*
X118682112Y-88102464D01*
X118735707Y-88160445D01*
X118802829Y-88230135D01*
X118878913Y-88307045D01*
X118959396Y-88386683D01*
X119039713Y-88464561D01*
X119115301Y-88536186D01*
X119181595Y-88597070D01*
X119234031Y-88642721D01*
X119268045Y-88668650D01*
X119277455Y-88672883D01*
X119299357Y-88662912D01*
X119344200Y-88636020D01*
X119404679Y-88596736D01*
X119451211Y-88565117D01*
X119535525Y-88507098D01*
X119635374Y-88438784D01*
X119735527Y-88370579D01*
X119789373Y-88334075D01*
X119971629Y-88210800D01*
X120124619Y-88293520D01*
X120194318Y-88329759D01*
X120253586Y-88357926D01*
X120293689Y-88373991D01*
X120303897Y-88376226D01*
X120316171Y-88359722D01*
X120340387Y-88313082D01*
X120374737Y-88240609D01*
X120417412Y-88146606D01*
X120466606Y-88035374D01*
X120520510Y-87911215D01*
X120577316Y-87778432D01*
X120635218Y-87641327D01*
X120692407Y-87504202D01*
X120747076Y-87371358D01*
X120797416Y-87247098D01*
X120841620Y-87135725D01*
X120877881Y-87041539D01*
X120904391Y-86968844D01*
X120919342Y-86921941D01*
X120921746Y-86905833D01*
X120902689Y-86885286D01*
X120860964Y-86851933D01*
X120805294Y-86812702D01*
X120800622Y-86809599D01*
X120656736Y-86694423D01*
X120540717Y-86560053D01*
X120453570Y-86410784D01*
X120396301Y-86250913D01*
X120369914Y-86084737D01*
X120375415Y-85916552D01*
X120413810Y-85750655D01*
X120486105Y-85591342D01*
X120507374Y-85556487D01*
X120618004Y-85415737D01*
X120748698Y-85302714D01*
X120894936Y-85218003D01*
X121052192Y-85162194D01*
X121215943Y-85135874D01*
X121381667Y-85139630D01*
X121544838Y-85174050D01*
X121700935Y-85239723D01*
X121845433Y-85337235D01*
X121890131Y-85376813D01*
X122003888Y-85500703D01*
X122086782Y-85631124D01*
X122143644Y-85777315D01*
X122175313Y-85922088D01*
X122183131Y-86084860D01*
X122157062Y-86248440D01*
X122099755Y-86407298D01*
X122013856Y-86555906D01*
X121902014Y-86688735D01*
X121766877Y-86800256D01*
X121749117Y-86812011D01*
X121692850Y-86850508D01*
X121650077Y-86883863D01*
X121629628Y-86905160D01*
X121629331Y-86905833D01*
X121633721Y-86928871D01*
X121651124Y-86981157D01*
X121679732Y-87058390D01*
X121717735Y-87156268D01*
X121763326Y-87270491D01*
X121814697Y-87396758D01*
X121870038Y-87530767D01*
X121927542Y-87668218D01*
X121985399Y-87804808D01*
X122041802Y-87936237D01*
X122094942Y-88058205D01*
X122143010Y-88166409D01*
X122184199Y-88256549D01*
X122216699Y-88324323D01*
X122238703Y-88365430D01*
X122247564Y-88376226D01*
X122274640Y-88367819D01*
X122325303Y-88345272D01*
X122390817Y-88312613D01*
X122426841Y-88293520D01*
X122579832Y-88210800D01*
X122762088Y-88334075D01*
X122855125Y-88397228D01*
X122956985Y-88466727D01*
X123052438Y-88532165D01*
X123100250Y-88565117D01*
X123167495Y-88610273D01*
X123224436Y-88646057D01*
X123263646Y-88667938D01*
X123276381Y-88672563D01*
X123294917Y-88660085D01*
X123335941Y-88625252D01*
X123395475Y-88571678D01*
X123469542Y-88502983D01*
X123554165Y-88422781D01*
X123607685Y-88371286D01*
X123701319Y-88279286D01*
X123782241Y-88196999D01*
X123847177Y-88127945D01*
X123892858Y-88075644D01*
X123916011Y-88043616D01*
X123918232Y-88037116D01*
X123907924Y-88012394D01*
X123879439Y-87962405D01*
X123835937Y-87892212D01*
X123780577Y-87806875D01*
X123716520Y-87711456D01*
X123698303Y-87684854D01*
X123631927Y-87588167D01*
X123572378Y-87501117D01*
X123522984Y-87428595D01*
X123487075Y-87375493D01*
X123467981Y-87346703D01*
X123466136Y-87343726D01*
X123468895Y-87320782D01*
X123483538Y-87270336D01*
X123507513Y-87199041D01*
X123538266Y-87113547D01*
X123573244Y-87020507D01*
X123609893Y-86926574D01*
X123645661Y-86838399D01*
X123677994Y-86762634D01*
X123704338Y-86705931D01*
X123722142Y-86674943D01*
X123723407Y-86673457D01*
X123734294Y-86664601D01*
X123752682Y-86655843D01*
X123782606Y-86646277D01*
X123828103Y-86634996D01*
X123893209Y-86621093D01*
X123981961Y-86603663D01*
X124098393Y-86581798D01*
X124246542Y-86554591D01*
X124278618Y-86548741D01*
X124373686Y-86530374D01*
X124456565Y-86512405D01*
X124519930Y-86496569D01*
X124556458Y-86484600D01*
X124561356Y-86481810D01*
X124569427Y-86457072D01*
X124575987Y-86401790D01*
X124581033Y-86322389D01*
X124584559Y-86225296D01*
X124586561Y-86116938D01*
X124587036Y-86003740D01*
X124585977Y-85892128D01*
X124583382Y-85788529D01*
X124579246Y-85699368D01*
X124573563Y-85631072D01*
X124566331Y-85590066D01*
X124561971Y-85581674D01*
X124537698Y-85573208D01*
X124482426Y-85559435D01*
X124401662Y-85541550D01*
X124300912Y-85520748D01*
X124185683Y-85498223D01*
X124122902Y-85486418D01*
X124003787Y-85464151D01*
X123897565Y-85443979D01*
X123809427Y-85426915D01*
X123744566Y-85413969D01*
X123708174Y-85406155D01*
X123702184Y-85404422D01*
X123692061Y-85384890D01*
X123670662Y-85337843D01*
X123640839Y-85270003D01*
X123605445Y-85188091D01*
X123567332Y-85098828D01*
X123529353Y-85008935D01*
X123494360Y-84925135D01*
X123465206Y-84854147D01*
X123444743Y-84802694D01*
X123435823Y-84777497D01*
X123435657Y-84776396D01*
X123445769Y-84756519D01*
X123474117Y-84710777D01*
X123517723Y-84643717D01*
X123573606Y-84559884D01*
X123638787Y-84463826D01*
X123676679Y-84408650D01*
X123745725Y-84307481D01*
X123807050Y-84215630D01*
X123857663Y-84137744D01*
X123894571Y-84078469D01*
X123914782Y-84042451D01*
X123917701Y-84034377D01*
X123905153Y-84015584D01*
X123870463Y-83975457D01*
X123818063Y-83918493D01*
X123752384Y-83849185D01*
X123677856Y-83772031D01*
X123598913Y-83691525D01*
X123519983Y-83612163D01*
X123445500Y-83538440D01*
X123379894Y-83474852D01*
X123327596Y-83425894D01*
X123293039Y-83396061D01*
X123281478Y-83388942D01*
X123262654Y-83398953D01*
X123217631Y-83427078D01*
X123150787Y-83470454D01*
X123066499Y-83526218D01*
X122969144Y-83591506D01*
X122895707Y-83641246D01*
X122524667Y-83893551D01*
X121906095Y-83638555D01*
X121822275Y-83193931D01*
X121738454Y-82749307D01*
X120813006Y-82749307D01*
X120729186Y-83193931D01*
G37*
X120729186Y-83193931D02*
X120645365Y-83638555D01*
X120336080Y-83766053D01*
X120026794Y-83893551D01*
X119655754Y-83641246D01*
X119551843Y-83570996D01*
X119457913Y-83508272D01*
X119378348Y-83455938D01*
X119317530Y-83416857D01*
X119279843Y-83393893D01*
X119269579Y-83388942D01*
X119251090Y-83401676D01*
X119211580Y-83436882D01*
X119155478Y-83490062D01*
X119087213Y-83556718D01*
X119011214Y-83632354D01*
X118931908Y-83712472D01*
X118853725Y-83792574D01*
X118781093Y-83868164D01*
X118718441Y-83934745D01*
X118670197Y-83987818D01*
X118640790Y-84022887D01*
X118633759Y-84034623D01*
X118643877Y-84056260D01*
X118672241Y-84103662D01*
X118715871Y-84172193D01*
X118771782Y-84257215D01*
X118836994Y-84354093D01*
X118874781Y-84409350D01*
X118943657Y-84510248D01*
X119004860Y-84601299D01*
X119055422Y-84677970D01*
X119092372Y-84735728D01*
X119112742Y-84770043D01*
X119115803Y-84777254D01*
X119108864Y-84797748D01*
X119089949Y-84845513D01*
X119061913Y-84913832D01*
X119027609Y-84995989D01*
X118989891Y-85085270D01*
X118951613Y-85174958D01*
X118915630Y-85258338D01*
X118884794Y-85328694D01*
X118861961Y-85379310D01*
X118849983Y-85403471D01*
X118849276Y-85404422D01*
X118830469Y-85409036D01*
X118780382Y-85419328D01*
X118704207Y-85434287D01*
X118607135Y-85452901D01*
X118494357Y-85474159D01*
X118428558Y-85486418D01*
X118308050Y-85509362D01*
X118199203Y-85531195D01*
X118107524Y-85550722D01*
X118038519Y-85566748D01*
X117997696Y-85578079D01*
X117989489Y-85581674D01*
X117981452Y-85606006D01*
X117974967Y-85660959D01*
X117970030Y-85740108D01*
X117966636Y-85837026D01*
X117964782Y-85945287D01*
X117964462Y-86058465D01*
X117965673Y-86170135D01*
X117968410Y-86273868D01*
X117972669Y-86363241D01*
X117978445Y-86431826D01*
X117985733Y-86473197D01*
X117990105Y-86481810D01*
X118016236Y-86492133D01*
X118071607Y-86506892D01*
X118148893Y-86524352D01*
X118240770Y-86542780D01*
X118272842Y-86548741D01*
X118427476Y-86577066D01*
X118549625Y-86599876D01*
X118643327Y-86618080D01*
X118712616Y-86632583D01*
X118761529Y-86644292D01*
X118794103Y-86654115D01*
X118814372Y-86662956D01*
X118826374Y-86671724D01*
X118828053Y-86673457D01*
X118844816Y-86701371D01*
X118870386Y-86755695D01*
X118902212Y-86829777D01*
X118937740Y-86916965D01*
X118974417Y-87010608D01*
X119009689Y-87104052D01*
X119041004Y-87190647D01*
X119065807Y-87263740D01*
X119081546Y-87316678D01*
X119085668Y-87342811D01*
X119085324Y-87343726D01*
X119071359Y-87365086D01*
X119039678Y-87412084D01*
X118993609Y-87479827D01*
X118936482Y-87563423D01*
X118871627Y-87657982D01*
X118853157Y-87684854D01*
X118787301Y-87782275D01*
X118729350Y-87871163D01*
X118682462Y-87946412D01*
X118649793Y-88002920D01*
X118634500Y-88035581D01*
X118633759Y-88039593D01*
X118646608Y-88060684D01*
X118682112Y-88102464D01*
X118735707Y-88160445D01*
X118802829Y-88230135D01*
X118878913Y-88307045D01*
X118959396Y-88386683D01*
X119039713Y-88464561D01*
X119115301Y-88536186D01*
X119181595Y-88597070D01*
X119234031Y-88642721D01*
X119268045Y-88668650D01*
X119277455Y-88672883D01*
X119299357Y-88662912D01*
X119344200Y-88636020D01*
X119404679Y-88596736D01*
X119451211Y-88565117D01*
X119535525Y-88507098D01*
X119635374Y-88438784D01*
X119735527Y-88370579D01*
X119789373Y-88334075D01*
X119971629Y-88210800D01*
X120124619Y-88293520D01*
X120194318Y-88329759D01*
X120253586Y-88357926D01*
X120293689Y-88373991D01*
X120303897Y-88376226D01*
X120316171Y-88359722D01*
X120340387Y-88313082D01*
X120374737Y-88240609D01*
X120417412Y-88146606D01*
X120466606Y-88035374D01*
X120520510Y-87911215D01*
X120577316Y-87778432D01*
X120635218Y-87641327D01*
X120692407Y-87504202D01*
X120747076Y-87371358D01*
X120797416Y-87247098D01*
X120841620Y-87135725D01*
X120877881Y-87041539D01*
X120904391Y-86968844D01*
X120919342Y-86921941D01*
X120921746Y-86905833D01*
X120902689Y-86885286D01*
X120860964Y-86851933D01*
X120805294Y-86812702D01*
X120800622Y-86809599D01*
X120656736Y-86694423D01*
X120540717Y-86560053D01*
X120453570Y-86410784D01*
X120396301Y-86250913D01*
X120369914Y-86084737D01*
X120375415Y-85916552D01*
X120413810Y-85750655D01*
X120486105Y-85591342D01*
X120507374Y-85556487D01*
X120618004Y-85415737D01*
X120748698Y-85302714D01*
X120894936Y-85218003D01*
X121052192Y-85162194D01*
X121215943Y-85135874D01*
X121381667Y-85139630D01*
X121544838Y-85174050D01*
X121700935Y-85239723D01*
X121845433Y-85337235D01*
X121890131Y-85376813D01*
X122003888Y-85500703D01*
X122086782Y-85631124D01*
X122143644Y-85777315D01*
X122175313Y-85922088D01*
X122183131Y-86084860D01*
X122157062Y-86248440D01*
X122099755Y-86407298D01*
X122013856Y-86555906D01*
X121902014Y-86688735D01*
X121766877Y-86800256D01*
X121749117Y-86812011D01*
X121692850Y-86850508D01*
X121650077Y-86883863D01*
X121629628Y-86905160D01*
X121629331Y-86905833D01*
X121633721Y-86928871D01*
X121651124Y-86981157D01*
X121679732Y-87058390D01*
X121717735Y-87156268D01*
X121763326Y-87270491D01*
X121814697Y-87396758D01*
X121870038Y-87530767D01*
X121927542Y-87668218D01*
X121985399Y-87804808D01*
X122041802Y-87936237D01*
X122094942Y-88058205D01*
X122143010Y-88166409D01*
X122184199Y-88256549D01*
X122216699Y-88324323D01*
X122238703Y-88365430D01*
X122247564Y-88376226D01*
X122274640Y-88367819D01*
X122325303Y-88345272D01*
X122390817Y-88312613D01*
X122426841Y-88293520D01*
X122579832Y-88210800D01*
X122762088Y-88334075D01*
X122855125Y-88397228D01*
X122956985Y-88466727D01*
X123052438Y-88532165D01*
X123100250Y-88565117D01*
X123167495Y-88610273D01*
X123224436Y-88646057D01*
X123263646Y-88667938D01*
X123276381Y-88672563D01*
X123294917Y-88660085D01*
X123335941Y-88625252D01*
X123395475Y-88571678D01*
X123469542Y-88502983D01*
X123554165Y-88422781D01*
X123607685Y-88371286D01*
X123701319Y-88279286D01*
X123782241Y-88196999D01*
X123847177Y-88127945D01*
X123892858Y-88075644D01*
X123916011Y-88043616D01*
X123918232Y-88037116D01*
X123907924Y-88012394D01*
X123879439Y-87962405D01*
X123835937Y-87892212D01*
X123780577Y-87806875D01*
X123716520Y-87711456D01*
X123698303Y-87684854D01*
X123631927Y-87588167D01*
X123572378Y-87501117D01*
X123522984Y-87428595D01*
X123487075Y-87375493D01*
X123467981Y-87346703D01*
X123466136Y-87343726D01*
X123468895Y-87320782D01*
X123483538Y-87270336D01*
X123507513Y-87199041D01*
X123538266Y-87113547D01*
X123573244Y-87020507D01*
X123609893Y-86926574D01*
X123645661Y-86838399D01*
X123677994Y-86762634D01*
X123704338Y-86705931D01*
X123722142Y-86674943D01*
X123723407Y-86673457D01*
X123734294Y-86664601D01*
X123752682Y-86655843D01*
X123782606Y-86646277D01*
X123828103Y-86634996D01*
X123893209Y-86621093D01*
X123981961Y-86603663D01*
X124098393Y-86581798D01*
X124246542Y-86554591D01*
X124278618Y-86548741D01*
X124373686Y-86530374D01*
X124456565Y-86512405D01*
X124519930Y-86496569D01*
X124556458Y-86484600D01*
X124561356Y-86481810D01*
X124569427Y-86457072D01*
X124575987Y-86401790D01*
X124581033Y-86322389D01*
X124584559Y-86225296D01*
X124586561Y-86116938D01*
X124587036Y-86003740D01*
X124585977Y-85892128D01*
X124583382Y-85788529D01*
X124579246Y-85699368D01*
X124573563Y-85631072D01*
X124566331Y-85590066D01*
X124561971Y-85581674D01*
X124537698Y-85573208D01*
X124482426Y-85559435D01*
X124401662Y-85541550D01*
X124300912Y-85520748D01*
X124185683Y-85498223D01*
X124122902Y-85486418D01*
X124003787Y-85464151D01*
X123897565Y-85443979D01*
X123809427Y-85426915D01*
X123744566Y-85413969D01*
X123708174Y-85406155D01*
X123702184Y-85404422D01*
X123692061Y-85384890D01*
X123670662Y-85337843D01*
X123640839Y-85270003D01*
X123605445Y-85188091D01*
X123567332Y-85098828D01*
X123529353Y-85008935D01*
X123494360Y-84925135D01*
X123465206Y-84854147D01*
X123444743Y-84802694D01*
X123435823Y-84777497D01*
X123435657Y-84776396D01*
X123445769Y-84756519D01*
X123474117Y-84710777D01*
X123517723Y-84643717D01*
X123573606Y-84559884D01*
X123638787Y-84463826D01*
X123676679Y-84408650D01*
X123745725Y-84307481D01*
X123807050Y-84215630D01*
X123857663Y-84137744D01*
X123894571Y-84078469D01*
X123914782Y-84042451D01*
X123917701Y-84034377D01*
X123905153Y-84015584D01*
X123870463Y-83975457D01*
X123818063Y-83918493D01*
X123752384Y-83849185D01*
X123677856Y-83772031D01*
X123598913Y-83691525D01*
X123519983Y-83612163D01*
X123445500Y-83538440D01*
X123379894Y-83474852D01*
X123327596Y-83425894D01*
X123293039Y-83396061D01*
X123281478Y-83388942D01*
X123262654Y-83398953D01*
X123217631Y-83427078D01*
X123150787Y-83470454D01*
X123066499Y-83526218D01*
X122969144Y-83591506D01*
X122895707Y-83641246D01*
X122524667Y-83893551D01*
X121906095Y-83638555D01*
X121822275Y-83193931D01*
X121738454Y-82749307D01*
X120813006Y-82749307D01*
X120729186Y-83193931D01*
G36*
X124231400Y-66069054D02*
G01*
X124220535Y-66182993D01*
X124188918Y-66290616D01*
X124138015Y-66389615D01*
X124069293Y-66477684D01*
X123984219Y-66552516D01*
X123887232Y-66610384D01*
X123780964Y-66650005D01*
X123673950Y-66668573D01*
X123568300Y-66667434D01*
X123466125Y-66647930D01*
X123369534Y-66611406D01*
X123280638Y-66559205D01*
X123201546Y-66492673D01*
X123134369Y-66413152D01*
X123081217Y-66321987D01*
X123044199Y-66220523D01*
X123025427Y-66110102D01*
X123023489Y-66060206D01*
X123023489Y-65972267D01*
X122971560Y-65972267D01*
X122935253Y-65975111D01*
X122908355Y-65986911D01*
X122881249Y-66010649D01*
X122842867Y-66049031D01*
X122842867Y-68240602D01*
X122842876Y-68502739D01*
X122842908Y-68743241D01*
X122842972Y-68963048D01*
X122843076Y-69163101D01*
X122843227Y-69344344D01*
X122843434Y-69507716D01*
X122843706Y-69654160D01*
X122844050Y-69784617D01*
X122844474Y-69900029D01*
X122844987Y-70001338D01*
X122845597Y-70089484D01*
X122846312Y-70165410D01*
X122847140Y-70230057D01*
X122848089Y-70284367D01*
X122849167Y-70329280D01*
X122850383Y-70365740D01*
X122851745Y-70394687D01*
X122853261Y-70417063D01*
X122854938Y-70433809D01*
X122856786Y-70445868D01*
X122858813Y-70454180D01*
X122861025Y-70459687D01*
X122862108Y-70461537D01*
X122866271Y-70468549D01*
X122869805Y-70474996D01*
X122873635Y-70480900D01*
X122878682Y-70486286D01*
X122885871Y-70491178D01*
X122896123Y-70495598D01*
X122910364Y-70499572D01*
X122929514Y-70503121D01*
X122954499Y-70506270D01*
X122986240Y-70509042D01*
X123025662Y-70511461D01*
X123073686Y-70513551D01*
X123131237Y-70515335D01*
X123199237Y-70516837D01*
X123278610Y-70518080D01*
X123370279Y-70519089D01*
X123475166Y-70519885D01*
X123594196Y-70520494D01*
X123728290Y-70520939D01*
X123878373Y-70521243D01*
X124045367Y-70521430D01*
X124230196Y-70521524D01*
X124433783Y-70521548D01*
X124657050Y-70521525D01*
X124900922Y-70521480D01*
X125166321Y-70521437D01*
X125204704Y-70521432D01*
X125471682Y-70521389D01*
X125717002Y-70521318D01*
X125941583Y-70521213D01*
X126146345Y-70521066D01*
X126332206Y-70520869D01*
X126500088Y-70520616D01*
X126650908Y-70520300D01*
X126785587Y-70519913D01*
X126905044Y-70519447D01*
X127010199Y-70518897D01*
X127101971Y-70518253D01*
X127181279Y-70517511D01*
X127249043Y-70516661D01*
X127306182Y-70515697D01*
X127353617Y-70514611D01*
X127392266Y-70513397D01*
X127423049Y-70512047D01*
X127446885Y-70510555D01*
X127464694Y-70508911D01*
X127477395Y-70507111D01*
X127485908Y-70505145D01*
X127490266Y-70503477D01*
X127498728Y-70499906D01*
X127506497Y-70497270D01*
X127513602Y-70494634D01*
X127520073Y-70491062D01*
X127525939Y-70485621D01*
X127531229Y-70477375D01*
X127535974Y-70465390D01*
X127540202Y-70448731D01*
X127543943Y-70426463D01*
X127547227Y-70397652D01*
X127550083Y-70361363D01*
X127552540Y-70316661D01*
X127554629Y-70262611D01*
X127556378Y-70198279D01*
X127557817Y-70122730D01*
X127558976Y-70035030D01*
X127559883Y-69934243D01*
X127560569Y-69819434D01*
X127561063Y-69689670D01*
X127561395Y-69544015D01*
X127561593Y-69381535D01*
X127561687Y-69201295D01*
X127561708Y-69002360D01*
X127561685Y-68783796D01*
X127561646Y-68544668D01*
X127561622Y-68284040D01*
X127561622Y-68241889D01*
X127561636Y-67978992D01*
X127561661Y-67737732D01*
X127561671Y-67517165D01*
X127561642Y-67316352D01*
X127561548Y-67134349D01*
X127561362Y-66970216D01*
X127561059Y-66823011D01*
X127560614Y-66691792D01*
X127560034Y-66581867D01*
X127257197Y-66581867D01*
X127217407Y-66639711D01*
X127206236Y-66655479D01*
X127196166Y-66669441D01*
X127187138Y-66682784D01*
X127179097Y-66696693D01*
X127171986Y-66712356D01*
X127165747Y-66730958D01*
X127160325Y-66753686D01*
X127155662Y-66781727D01*
X127151701Y-66816267D01*
X127148385Y-66858492D01*
X127145659Y-66909589D01*
X127143464Y-66970744D01*
X127141745Y-67043144D01*
X127140444Y-67127975D01*
X127139505Y-67226422D01*
X127138870Y-67339674D01*
X127138484Y-67468916D01*
X127138288Y-67615334D01*
X127138227Y-67780116D01*
X127138243Y-67964447D01*
X127138280Y-68169513D01*
X127138289Y-68292133D01*
X127138265Y-68509082D01*
X127138231Y-68704642D01*
X127138243Y-68879999D01*
X127138358Y-69036341D01*
X127138630Y-69174857D01*
X127139118Y-69296734D01*
X127139876Y-69403160D01*
X127140962Y-69495322D01*
X127142431Y-69574409D01*
X127144340Y-69641608D01*
X127146744Y-69698107D01*
X127149701Y-69745093D01*
X127153266Y-69783755D01*
X127157495Y-69815280D01*
X127162446Y-69840855D01*
X127168173Y-69861670D01*
X127174733Y-69878911D01*
X127182183Y-69893765D01*
X127190579Y-69907422D01*
X127199976Y-69921069D01*
X127210432Y-69935893D01*
X127216523Y-69944783D01*
X127255296Y-70002400D01*
X126723732Y-70002400D01*
X126600483Y-70002365D01*
X126497987Y-70002215D01*
X126414420Y-70001878D01*
X126347956Y-70001286D01*
X126296771Y-70000367D01*
X126259041Y-69999051D01*
X126232940Y-69997269D01*
X126216644Y-69994951D01*
X126208328Y-69992026D01*
X126206168Y-69988424D01*
X126208339Y-69984075D01*
X126209535Y-69982645D01*
X126234685Y-69945573D01*
X126260583Y-69892772D01*
X126284192Y-69830770D01*
X126292461Y-69804357D01*
X126297078Y-69786416D01*
X126300979Y-69765355D01*
X126304248Y-69739089D01*
X126306966Y-69705532D01*
X126309215Y-69662599D01*
X126311077Y-69608204D01*
X126312636Y-69540262D01*
X126313972Y-69456688D01*
X126315169Y-69355395D01*
X126316308Y-69234300D01*
X126316685Y-69189600D01*
X126317702Y-69064449D01*
X126318460Y-68960082D01*
X126318903Y-68874707D01*
X126318970Y-68806533D01*
X126318605Y-68753765D01*
X126317748Y-68714614D01*
X126316341Y-68687285D01*
X126314325Y-68669986D01*
X126311643Y-68660926D01*
X126308236Y-68658312D01*
X126304044Y-68660351D01*
X126299571Y-68664667D01*
X126289216Y-68677602D01*
X126267158Y-68706676D01*
X126234957Y-68749759D01*
X126194174Y-68804718D01*
X126146370Y-68869423D01*
X126093105Y-68941742D01*
X126035940Y-69019544D01*
X125976437Y-69100698D01*
X125916155Y-69183072D01*
X125856655Y-69264536D01*
X125799498Y-69342957D01*
X125746245Y-69416204D01*
X125698457Y-69482147D01*
X125657693Y-69538654D01*
X125625516Y-69583593D01*
X125603485Y-69614834D01*
X125598917Y-69621466D01*
X125575996Y-69658369D01*
X125549188Y-69706359D01*
X125523789Y-69755897D01*
X125520568Y-69762577D01*
X125498890Y-69810772D01*
X125486304Y-69848334D01*
X125480574Y-69884160D01*
X125479456Y-69926200D01*
X125480090Y-70002400D01*
X124325651Y-70002400D01*
X124416815Y-69908669D01*
X124463612Y-69858775D01*
X124513899Y-69802295D01*
X124559944Y-69748026D01*
X124580369Y-69722673D01*
X124610807Y-69683128D01*
X124650862Y-69629916D01*
X124699361Y-69564667D01*
X124755135Y-69489011D01*
X124817011Y-69404577D01*
X124883819Y-69312994D01*
X124954387Y-69215892D01*
X125027545Y-69114901D01*
X125102121Y-69011650D01*
X125176944Y-68907768D01*
X125250843Y-68804885D01*
X125322646Y-68704631D01*
X125391184Y-68608636D01*
X125455284Y-68518527D01*
X125513775Y-68435936D01*
X125565486Y-68362492D01*
X125609247Y-68299824D01*
X125643885Y-68249561D01*
X125668230Y-68213334D01*
X125681111Y-68192771D01*
X125682869Y-68188668D01*
X125674910Y-68177342D01*
X125654115Y-68150162D01*
X125621847Y-68108829D01*
X125579470Y-68055044D01*
X125528347Y-67990506D01*
X125469841Y-67916918D01*
X125405314Y-67835978D01*
X125336131Y-67749388D01*
X125263653Y-67658848D01*
X125189246Y-67566060D01*
X125129517Y-67491702D01*
X124118511Y-67491702D01*
X124112602Y-67504659D01*
X124098272Y-67526908D01*
X124097225Y-67528391D01*
X124078438Y-67558544D01*
X124058791Y-67595375D01*
X124054892Y-67603511D01*
X124051356Y-67611940D01*
X124048230Y-67622059D01*
X124045486Y-67635260D01*
X124043092Y-67652938D01*
X124041019Y-67676484D01*
X124039235Y-67707293D01*
X124037712Y-67746757D01*
X124036419Y-67796269D01*
X124035326Y-67857223D01*
X124034403Y-67931011D01*
X124033619Y-68019028D01*
X124032945Y-68122665D01*
X124032350Y-68243316D01*
X124031805Y-68382374D01*
X124031279Y-68541232D01*
X124030745Y-68720089D01*
X124030206Y-68905207D01*
X124029772Y-69069145D01*
X124029509Y-69213303D01*
X124029484Y-69339079D01*
X124029765Y-69447871D01*
X124030419Y-69541077D01*
X124031514Y-69620097D01*
X124033118Y-69686328D01*
X124035297Y-69741170D01*
X124038119Y-69786021D01*
X124041651Y-69822278D01*
X124045961Y-69851341D01*
X124051117Y-69874609D01*
X124057185Y-69893479D01*
X124064233Y-69909351D01*
X124072329Y-69923622D01*
X124081540Y-69937691D01*
X124090040Y-69950158D01*
X124107176Y-69976452D01*
X124117322Y-69994037D01*
X124118511Y-69997257D01*
X124107604Y-69998334D01*
X124076411Y-69999335D01*
X124027223Y-70000235D01*
X123962333Y-70001010D01*
X123884030Y-70001637D01*
X123794607Y-70002091D01*
X123696356Y-70002349D01*
X123627445Y-70002400D01*
X123522452Y-70002180D01*
X123425610Y-70001548D01*
X123339107Y-70000549D01*
X123265132Y-69999227D01*
X123205874Y-69997626D01*
X123163520Y-69995791D01*
X123140260Y-69993765D01*
X123136378Y-69992493D01*
X123144076Y-69977591D01*
X123152074Y-69969560D01*
X123165246Y-69952434D01*
X123182485Y-69922183D01*
X123194407Y-69897622D01*
X123221045Y-69838711D01*
X123224120Y-68661845D01*
X123227195Y-67484978D01*
X123672853Y-67484978D01*
X123770670Y-67485142D01*
X123861064Y-67485611D01*
X123941630Y-67486347D01*
X124009962Y-67487316D01*
X124063656Y-67488480D01*
X124100305Y-67489803D01*
X124117504Y-67491249D01*
X124118511Y-67491702D01*
X125129517Y-67491702D01*
X125114270Y-67472722D01*
X125040090Y-67380537D01*
X124968069Y-67291204D01*
X124899569Y-67206424D01*
X124835955Y-67127898D01*
X124778588Y-67057326D01*
X124728833Y-66996409D01*
X124688052Y-66946847D01*
X124670888Y-66926178D01*
X124584596Y-66825516D01*
X124507997Y-66742259D01*
X124439183Y-66674438D01*
X124376248Y-66620089D01*
X124366867Y-66612722D01*
X124327356Y-66582117D01*
X125459116Y-66581867D01*
X125453827Y-66629844D01*
X125457130Y-66687188D01*
X125478661Y-66755463D01*
X125518635Y-66835212D01*
X125563943Y-66907495D01*
X125580161Y-66930140D01*
X125608214Y-66967696D01*
X125646430Y-67018021D01*
X125693137Y-67078973D01*
X125746661Y-67148411D01*
X125805331Y-67224194D01*
X125867475Y-67304180D01*
X125931421Y-67386228D01*
X125995495Y-67468196D01*
X126058027Y-67547943D01*
X126117343Y-67623327D01*
X126171771Y-67692207D01*
X126219639Y-67752442D01*
X126259275Y-67801889D01*
X126289006Y-67838408D01*
X126307161Y-67859858D01*
X126310220Y-67863156D01*
X126313079Y-67855149D01*
X126315293Y-67824855D01*
X126316857Y-67772556D01*
X126317767Y-67698531D01*
X126318020Y-67603063D01*
X126317613Y-67486434D01*
X126316704Y-67366445D01*
X126315382Y-67234333D01*
X126313857Y-67122594D01*
X126311881Y-67029025D01*
X126309206Y-66951419D01*
X126305582Y-66887574D01*
X126300761Y-66835283D01*
X126294494Y-66792344D01*
X126286532Y-66756551D01*
X126276627Y-66725700D01*
X126264531Y-66697586D01*
X126249993Y-66670005D01*
X126235311Y-66644966D01*
X126197314Y-66581867D01*
X127257197Y-66581867D01*
X127560034Y-66581867D01*
X127560001Y-66575617D01*
X127559195Y-66473544D01*
X127558170Y-66384633D01*
X127556900Y-66307941D01*
X127555360Y-66242527D01*
X127553524Y-66187449D01*
X127551367Y-66141765D01*
X127548863Y-66104534D01*
X127545987Y-66074813D01*
X127542713Y-66051662D01*
X127539015Y-66034139D01*
X127534869Y-66021301D01*
X127530247Y-66012208D01*
X127525126Y-66005918D01*
X127519478Y-66001488D01*
X127513279Y-65997978D01*
X127506504Y-65994445D01*
X127500508Y-65990876D01*
X127495275Y-65988300D01*
X127487099Y-65985972D01*
X127474886Y-65983878D01*
X127457541Y-65982007D01*
X127433969Y-65980347D01*
X127403077Y-65978884D01*
X127363768Y-65977608D01*
X127314950Y-65976504D01*
X127255527Y-65975561D01*
X127184404Y-65974767D01*
X127100488Y-65974109D01*
X127002683Y-65973575D01*
X126889894Y-65973153D01*
X126761029Y-65972829D01*
X126614991Y-65972592D01*
X126450686Y-65972430D01*
X126267020Y-65972330D01*
X126062897Y-65972280D01*
X125851753Y-65972267D01*
X124231400Y-65972267D01*
X124231400Y-66069054D01*
G37*
X124231400Y-66069054D02*
X124220535Y-66182993D01*
X124188918Y-66290616D01*
X124138015Y-66389615D01*
X124069293Y-66477684D01*
X123984219Y-66552516D01*
X123887232Y-66610384D01*
X123780964Y-66650005D01*
X123673950Y-66668573D01*
X123568300Y-66667434D01*
X123466125Y-66647930D01*
X123369534Y-66611406D01*
X123280638Y-66559205D01*
X123201546Y-66492673D01*
X123134369Y-66413152D01*
X123081217Y-66321987D01*
X123044199Y-66220523D01*
X123025427Y-66110102D01*
X123023489Y-66060206D01*
X123023489Y-65972267D01*
X122971560Y-65972267D01*
X122935253Y-65975111D01*
X122908355Y-65986911D01*
X122881249Y-66010649D01*
X122842867Y-66049031D01*
X122842867Y-68240602D01*
X122842876Y-68502739D01*
X122842908Y-68743241D01*
X122842972Y-68963048D01*
X122843076Y-69163101D01*
X122843227Y-69344344D01*
X122843434Y-69507716D01*
X122843706Y-69654160D01*
X122844050Y-69784617D01*
X122844474Y-69900029D01*
X122844987Y-70001338D01*
X122845597Y-70089484D01*
X122846312Y-70165410D01*
X122847140Y-70230057D01*
X122848089Y-70284367D01*
X122849167Y-70329280D01*
X122850383Y-70365740D01*
X122851745Y-70394687D01*
X122853261Y-70417063D01*
X122854938Y-70433809D01*
X122856786Y-70445868D01*
X122858813Y-70454180D01*
X122861025Y-70459687D01*
X122862108Y-70461537D01*
X122866271Y-70468549D01*
X122869805Y-70474996D01*
X122873635Y-70480900D01*
X122878682Y-70486286D01*
X122885871Y-70491178D01*
X122896123Y-70495598D01*
X122910364Y-70499572D01*
X122929514Y-70503121D01*
X122954499Y-70506270D01*
X122986240Y-70509042D01*
X123025662Y-70511461D01*
X123073686Y-70513551D01*
X123131237Y-70515335D01*
X123199237Y-70516837D01*
X123278610Y-70518080D01*
X123370279Y-70519089D01*
X123475166Y-70519885D01*
X123594196Y-70520494D01*
X123728290Y-70520939D01*
X123878373Y-70521243D01*
X124045367Y-70521430D01*
X124230196Y-70521524D01*
X124433783Y-70521548D01*
X124657050Y-70521525D01*
X124900922Y-70521480D01*
X125166321Y-70521437D01*
X125204704Y-70521432D01*
X125471682Y-70521389D01*
X125717002Y-70521318D01*
X125941583Y-70521213D01*
X126146345Y-70521066D01*
X126332206Y-70520869D01*
X126500088Y-70520616D01*
X126650908Y-70520300D01*
X126785587Y-70519913D01*
X126905044Y-70519447D01*
X127010199Y-70518897D01*
X127101971Y-70518253D01*
X127181279Y-70517511D01*
X127249043Y-70516661D01*
X127306182Y-70515697D01*
X127353617Y-70514611D01*
X127392266Y-70513397D01*
X127423049Y-70512047D01*
X127446885Y-70510555D01*
X127464694Y-70508911D01*
X127477395Y-70507111D01*
X127485908Y-70505145D01*
X127490266Y-70503477D01*
X127498728Y-70499906D01*
X127506497Y-70497270D01*
X127513602Y-70494634D01*
X127520073Y-70491062D01*
X127525939Y-70485621D01*
X127531229Y-70477375D01*
X127535974Y-70465390D01*
X127540202Y-70448731D01*
X127543943Y-70426463D01*
X127547227Y-70397652D01*
X127550083Y-70361363D01*
X127552540Y-70316661D01*
X127554629Y-70262611D01*
X127556378Y-70198279D01*
X127557817Y-70122730D01*
X127558976Y-70035030D01*
X127559883Y-69934243D01*
X127560569Y-69819434D01*
X127561063Y-69689670D01*
X127561395Y-69544015D01*
X127561593Y-69381535D01*
X127561687Y-69201295D01*
X127561708Y-69002360D01*
X127561685Y-68783796D01*
X127561646Y-68544668D01*
X127561622Y-68284040D01*
X127561622Y-68241889D01*
X127561636Y-67978992D01*
X127561661Y-67737732D01*
X127561671Y-67517165D01*
X127561642Y-67316352D01*
X127561548Y-67134349D01*
X127561362Y-66970216D01*
X127561059Y-66823011D01*
X127560614Y-66691792D01*
X127560034Y-66581867D01*
X127257197Y-66581867D01*
X127217407Y-66639711D01*
X127206236Y-66655479D01*
X127196166Y-66669441D01*
X127187138Y-66682784D01*
X127179097Y-66696693D01*
X127171986Y-66712356D01*
X127165747Y-66730958D01*
X127160325Y-66753686D01*
X127155662Y-66781727D01*
X127151701Y-66816267D01*
X127148385Y-66858492D01*
X127145659Y-66909589D01*
X127143464Y-66970744D01*
X127141745Y-67043144D01*
X127140444Y-67127975D01*
X127139505Y-67226422D01*
X127138870Y-67339674D01*
X127138484Y-67468916D01*
X127138288Y-67615334D01*
X127138227Y-67780116D01*
X127138243Y-67964447D01*
X127138280Y-68169513D01*
X127138289Y-68292133D01*
X127138265Y-68509082D01*
X127138231Y-68704642D01*
X127138243Y-68879999D01*
X127138358Y-69036341D01*
X127138630Y-69174857D01*
X127139118Y-69296734D01*
X127139876Y-69403160D01*
X127140962Y-69495322D01*
X127142431Y-69574409D01*
X127144340Y-69641608D01*
X127146744Y-69698107D01*
X127149701Y-69745093D01*
X127153266Y-69783755D01*
X127157495Y-69815280D01*
X127162446Y-69840855D01*
X127168173Y-69861670D01*
X127174733Y-69878911D01*
X127182183Y-69893765D01*
X127190579Y-69907422D01*
X127199976Y-69921069D01*
X127210432Y-69935893D01*
X127216523Y-69944783D01*
X127255296Y-70002400D01*
X126723732Y-70002400D01*
X126600483Y-70002365D01*
X126497987Y-70002215D01*
X126414420Y-70001878D01*
X126347956Y-70001286D01*
X126296771Y-70000367D01*
X126259041Y-69999051D01*
X126232940Y-69997269D01*
X126216644Y-69994951D01*
X126208328Y-69992026D01*
X126206168Y-69988424D01*
X126208339Y-69984075D01*
X126209535Y-69982645D01*
X126234685Y-69945573D01*
X126260583Y-69892772D01*
X126284192Y-69830770D01*
X126292461Y-69804357D01*
X126297078Y-69786416D01*
X126300979Y-69765355D01*
X126304248Y-69739089D01*
X126306966Y-69705532D01*
X126309215Y-69662599D01*
X126311077Y-69608204D01*
X126312636Y-69540262D01*
X126313972Y-69456688D01*
X126315169Y-69355395D01*
X126316308Y-69234300D01*
X126316685Y-69189600D01*
X126317702Y-69064449D01*
X126318460Y-68960082D01*
X126318903Y-68874707D01*
X126318970Y-68806533D01*
X126318605Y-68753765D01*
X126317748Y-68714614D01*
X126316341Y-68687285D01*
X126314325Y-68669986D01*
X126311643Y-68660926D01*
X126308236Y-68658312D01*
X126304044Y-68660351D01*
X126299571Y-68664667D01*
X126289216Y-68677602D01*
X126267158Y-68706676D01*
X126234957Y-68749759D01*
X126194174Y-68804718D01*
X126146370Y-68869423D01*
X126093105Y-68941742D01*
X126035940Y-69019544D01*
X125976437Y-69100698D01*
X125916155Y-69183072D01*
X125856655Y-69264536D01*
X125799498Y-69342957D01*
X125746245Y-69416204D01*
X125698457Y-69482147D01*
X125657693Y-69538654D01*
X125625516Y-69583593D01*
X125603485Y-69614834D01*
X125598917Y-69621466D01*
X125575996Y-69658369D01*
X125549188Y-69706359D01*
X125523789Y-69755897D01*
X125520568Y-69762577D01*
X125498890Y-69810772D01*
X125486304Y-69848334D01*
X125480574Y-69884160D01*
X125479456Y-69926200D01*
X125480090Y-70002400D01*
X124325651Y-70002400D01*
X124416815Y-69908669D01*
X124463612Y-69858775D01*
X124513899Y-69802295D01*
X124559944Y-69748026D01*
X124580369Y-69722673D01*
X124610807Y-69683128D01*
X124650862Y-69629916D01*
X124699361Y-69564667D01*
X124755135Y-69489011D01*
X124817011Y-69404577D01*
X124883819Y-69312994D01*
X124954387Y-69215892D01*
X125027545Y-69114901D01*
X125102121Y-69011650D01*
X125176944Y-68907768D01*
X125250843Y-68804885D01*
X125322646Y-68704631D01*
X125391184Y-68608636D01*
X125455284Y-68518527D01*
X125513775Y-68435936D01*
X125565486Y-68362492D01*
X125609247Y-68299824D01*
X125643885Y-68249561D01*
X125668230Y-68213334D01*
X125681111Y-68192771D01*
X125682869Y-68188668D01*
X125674910Y-68177342D01*
X125654115Y-68150162D01*
X125621847Y-68108829D01*
X125579470Y-68055044D01*
X125528347Y-67990506D01*
X125469841Y-67916918D01*
X125405314Y-67835978D01*
X125336131Y-67749388D01*
X125263653Y-67658848D01*
X125189246Y-67566060D01*
X125129517Y-67491702D01*
X124118511Y-67491702D01*
X124112602Y-67504659D01*
X124098272Y-67526908D01*
X124097225Y-67528391D01*
X124078438Y-67558544D01*
X124058791Y-67595375D01*
X124054892Y-67603511D01*
X124051356Y-67611940D01*
X124048230Y-67622059D01*
X124045486Y-67635260D01*
X124043092Y-67652938D01*
X124041019Y-67676484D01*
X124039235Y-67707293D01*
X124037712Y-67746757D01*
X124036419Y-67796269D01*
X124035326Y-67857223D01*
X124034403Y-67931011D01*
X124033619Y-68019028D01*
X124032945Y-68122665D01*
X124032350Y-68243316D01*
X124031805Y-68382374D01*
X124031279Y-68541232D01*
X124030745Y-68720089D01*
X124030206Y-68905207D01*
X124029772Y-69069145D01*
X124029509Y-69213303D01*
X124029484Y-69339079D01*
X124029765Y-69447871D01*
X124030419Y-69541077D01*
X124031514Y-69620097D01*
X124033118Y-69686328D01*
X124035297Y-69741170D01*
X124038119Y-69786021D01*
X124041651Y-69822278D01*
X124045961Y-69851341D01*
X124051117Y-69874609D01*
X124057185Y-69893479D01*
X124064233Y-69909351D01*
X124072329Y-69923622D01*
X124081540Y-69937691D01*
X124090040Y-69950158D01*
X124107176Y-69976452D01*
X124117322Y-69994037D01*
X124118511Y-69997257D01*
X124107604Y-69998334D01*
X124076411Y-69999335D01*
X124027223Y-70000235D01*
X123962333Y-70001010D01*
X123884030Y-70001637D01*
X123794607Y-70002091D01*
X123696356Y-70002349D01*
X123627445Y-70002400D01*
X123522452Y-70002180D01*
X123425610Y-70001548D01*
X123339107Y-70000549D01*
X123265132Y-69999227D01*
X123205874Y-69997626D01*
X123163520Y-69995791D01*
X123140260Y-69993765D01*
X123136378Y-69992493D01*
X123144076Y-69977591D01*
X123152074Y-69969560D01*
X123165246Y-69952434D01*
X123182485Y-69922183D01*
X123194407Y-69897622D01*
X123221045Y-69838711D01*
X123224120Y-68661845D01*
X123227195Y-67484978D01*
X123672853Y-67484978D01*
X123770670Y-67485142D01*
X123861064Y-67485611D01*
X123941630Y-67486347D01*
X124009962Y-67487316D01*
X124063656Y-67488480D01*
X124100305Y-67489803D01*
X124117504Y-67491249D01*
X124118511Y-67491702D01*
X125129517Y-67491702D01*
X125114270Y-67472722D01*
X125040090Y-67380537D01*
X124968069Y-67291204D01*
X124899569Y-67206424D01*
X124835955Y-67127898D01*
X124778588Y-67057326D01*
X124728833Y-66996409D01*
X124688052Y-66946847D01*
X124670888Y-66926178D01*
X124584596Y-66825516D01*
X124507997Y-66742259D01*
X124439183Y-66674438D01*
X124376248Y-66620089D01*
X124366867Y-66612722D01*
X124327356Y-66582117D01*
X125459116Y-66581867D01*
X125453827Y-66629844D01*
X125457130Y-66687188D01*
X125478661Y-66755463D01*
X125518635Y-66835212D01*
X125563943Y-66907495D01*
X125580161Y-66930140D01*
X125608214Y-66967696D01*
X125646430Y-67018021D01*
X125693137Y-67078973D01*
X125746661Y-67148411D01*
X125805331Y-67224194D01*
X125867475Y-67304180D01*
X125931421Y-67386228D01*
X125995495Y-67468196D01*
X126058027Y-67547943D01*
X126117343Y-67623327D01*
X126171771Y-67692207D01*
X126219639Y-67752442D01*
X126259275Y-67801889D01*
X126289006Y-67838408D01*
X126307161Y-67859858D01*
X126310220Y-67863156D01*
X126313079Y-67855149D01*
X126315293Y-67824855D01*
X126316857Y-67772556D01*
X126317767Y-67698531D01*
X126318020Y-67603063D01*
X126317613Y-67486434D01*
X126316704Y-67366445D01*
X126315382Y-67234333D01*
X126313857Y-67122594D01*
X126311881Y-67029025D01*
X126309206Y-66951419D01*
X126305582Y-66887574D01*
X126300761Y-66835283D01*
X126294494Y-66792344D01*
X126286532Y-66756551D01*
X126276627Y-66725700D01*
X126264531Y-66697586D01*
X126249993Y-66670005D01*
X126235311Y-66644966D01*
X126197314Y-66581867D01*
X127257197Y-66581867D01*
X127560034Y-66581867D01*
X127560001Y-66575617D01*
X127559195Y-66473544D01*
X127558170Y-66384633D01*
X127556900Y-66307941D01*
X127555360Y-66242527D01*
X127553524Y-66187449D01*
X127551367Y-66141765D01*
X127548863Y-66104534D01*
X127545987Y-66074813D01*
X127542713Y-66051662D01*
X127539015Y-66034139D01*
X127534869Y-66021301D01*
X127530247Y-66012208D01*
X127525126Y-66005918D01*
X127519478Y-66001488D01*
X127513279Y-65997978D01*
X127506504Y-65994445D01*
X127500508Y-65990876D01*
X127495275Y-65988300D01*
X127487099Y-65985972D01*
X127474886Y-65983878D01*
X127457541Y-65982007D01*
X127433969Y-65980347D01*
X127403077Y-65978884D01*
X127363768Y-65977608D01*
X127314950Y-65976504D01*
X127255527Y-65975561D01*
X127184404Y-65974767D01*
X127100488Y-65974109D01*
X127002683Y-65973575D01*
X126889894Y-65973153D01*
X126761029Y-65972829D01*
X126614991Y-65972592D01*
X126450686Y-65972430D01*
X126267020Y-65972330D01*
X126062897Y-65972280D01*
X125851753Y-65972267D01*
X124231400Y-65972267D01*
X124231400Y-66069054D01*
G36*
X120956571Y-66529071D02*
G01*
X120796430Y-66550245D01*
X120632490Y-66590385D01*
X120462687Y-66649889D01*
X120284957Y-66729154D01*
X120273690Y-66734699D01*
X120215995Y-66762725D01*
X120164448Y-66786802D01*
X120122809Y-66805249D01*
X120094838Y-66816386D01*
X120085267Y-66818933D01*
X120066050Y-66823941D01*
X120061439Y-66828147D01*
X120066542Y-66838580D01*
X120082582Y-66864868D01*
X120107712Y-66904257D01*
X120140086Y-66953991D01*
X120177857Y-67011315D01*
X120219178Y-67073476D01*
X120262202Y-67137718D01*
X120305083Y-67201285D01*
X120345974Y-67261425D01*
X120383029Y-67315380D01*
X120414400Y-67360397D01*
X120438241Y-67393721D01*
X120452706Y-67412597D01*
X120454691Y-67414787D01*
X120464809Y-67410138D01*
X120487150Y-67392962D01*
X120517720Y-67366440D01*
X120533464Y-67351964D01*
X120629953Y-67276682D01*
X120736664Y-67221241D01*
X120852168Y-67186141D01*
X120975038Y-67171880D01*
X121044439Y-67173051D01*
X121165577Y-67190212D01*
X121274795Y-67226094D01*
X121372418Y-67280959D01*
X121458772Y-67355070D01*
X121534185Y-67448688D01*
X121598982Y-67562076D01*
X121636399Y-67648667D01*
X121680252Y-67784366D01*
X121712572Y-67931850D01*
X121733443Y-68087314D01*
X121742949Y-68246956D01*
X121741173Y-68406973D01*
X121728197Y-68563561D01*
X121704106Y-68712918D01*
X121668982Y-68851240D01*
X121622908Y-68974724D01*
X121606627Y-69008978D01*
X121538380Y-69123064D01*
X121457921Y-69219557D01*
X121366430Y-69297670D01*
X121265089Y-69356617D01*
X121155080Y-69395612D01*
X121037585Y-69413868D01*
X120996117Y-69415211D01*
X120874559Y-69404290D01*
X120754122Y-69371474D01*
X120636334Y-69317439D01*
X120522723Y-69242865D01*
X120431315Y-69164539D01*
X120384785Y-69120008D01*
X120203517Y-69417271D01*
X120158420Y-69491433D01*
X120117181Y-69559646D01*
X120081265Y-69619459D01*
X120052134Y-69668420D01*
X120031250Y-69704079D01*
X120020076Y-69723984D01*
X120018625Y-69727079D01*
X120026854Y-69736718D01*
X120052433Y-69753999D01*
X120092127Y-69777283D01*
X120142703Y-69804934D01*
X120200926Y-69835315D01*
X120263563Y-69866790D01*
X120327379Y-69897722D01*
X120389140Y-69926473D01*
X120445612Y-69951408D01*
X120493562Y-69970889D01*
X120517014Y-69979318D01*
X120650779Y-70017133D01*
X120788673Y-70042136D01*
X120936378Y-70055140D01*
X121063167Y-70057468D01*
X121131122Y-70056373D01*
X121196723Y-70054275D01*
X121254153Y-70051434D01*
X121297597Y-70048106D01*
X121311702Y-70046422D01*
X121450716Y-70017587D01*
X121592243Y-69972468D01*
X121729725Y-69913750D01*
X121856606Y-69844120D01*
X121934111Y-69791441D01*
X122061519Y-69683239D01*
X122179822Y-69556671D01*
X122286828Y-69414866D01*
X122380348Y-69260951D01*
X122458190Y-69098053D01*
X122502044Y-68980756D01*
X122552292Y-68797128D01*
X122585791Y-68602581D01*
X122602551Y-68401325D01*
X122602584Y-68197568D01*
X122585899Y-67995521D01*
X122552507Y-67799392D01*
X122502420Y-67613391D01*
X122498603Y-67601803D01*
X122435719Y-67439750D01*
X122358972Y-67291832D01*
X122265758Y-67153865D01*
X122153473Y-67021661D01*
X122109608Y-66976399D01*
X121973466Y-66852457D01*
X121833509Y-66749915D01*
X121687589Y-66667656D01*
X121533558Y-66604564D01*
X121369268Y-66559523D01*
X121273711Y-66542033D01*
X121114977Y-66526466D01*
X120956571Y-66529071D01*
G37*
X120956571Y-66529071D02*
X120796430Y-66550245D01*
X120632490Y-66590385D01*
X120462687Y-66649889D01*
X120284957Y-66729154D01*
X120273690Y-66734699D01*
X120215995Y-66762725D01*
X120164448Y-66786802D01*
X120122809Y-66805249D01*
X120094838Y-66816386D01*
X120085267Y-66818933D01*
X120066050Y-66823941D01*
X120061439Y-66828147D01*
X120066542Y-66838580D01*
X120082582Y-66864868D01*
X120107712Y-66904257D01*
X120140086Y-66953991D01*
X120177857Y-67011315D01*
X120219178Y-67073476D01*
X120262202Y-67137718D01*
X120305083Y-67201285D01*
X120345974Y-67261425D01*
X120383029Y-67315380D01*
X120414400Y-67360397D01*
X120438241Y-67393721D01*
X120452706Y-67412597D01*
X120454691Y-67414787D01*
X120464809Y-67410138D01*
X120487150Y-67392962D01*
X120517720Y-67366440D01*
X120533464Y-67351964D01*
X120629953Y-67276682D01*
X120736664Y-67221241D01*
X120852168Y-67186141D01*
X120975038Y-67171880D01*
X121044439Y-67173051D01*
X121165577Y-67190212D01*
X121274795Y-67226094D01*
X121372418Y-67280959D01*
X121458772Y-67355070D01*
X121534185Y-67448688D01*
X121598982Y-67562076D01*
X121636399Y-67648667D01*
X121680252Y-67784366D01*
X121712572Y-67931850D01*
X121733443Y-68087314D01*
X121742949Y-68246956D01*
X121741173Y-68406973D01*
X121728197Y-68563561D01*
X121704106Y-68712918D01*
X121668982Y-68851240D01*
X121622908Y-68974724D01*
X121606627Y-69008978D01*
X121538380Y-69123064D01*
X121457921Y-69219557D01*
X121366430Y-69297670D01*
X121265089Y-69356617D01*
X121155080Y-69395612D01*
X121037585Y-69413868D01*
X120996117Y-69415211D01*
X120874559Y-69404290D01*
X120754122Y-69371474D01*
X120636334Y-69317439D01*
X120522723Y-69242865D01*
X120431315Y-69164539D01*
X120384785Y-69120008D01*
X120203517Y-69417271D01*
X120158420Y-69491433D01*
X120117181Y-69559646D01*
X120081265Y-69619459D01*
X120052134Y-69668420D01*
X120031250Y-69704079D01*
X120020076Y-69723984D01*
X120018625Y-69727079D01*
X120026854Y-69736718D01*
X120052433Y-69753999D01*
X120092127Y-69777283D01*
X120142703Y-69804934D01*
X120200926Y-69835315D01*
X120263563Y-69866790D01*
X120327379Y-69897722D01*
X120389140Y-69926473D01*
X120445612Y-69951408D01*
X120493562Y-69970889D01*
X120517014Y-69979318D01*
X120650779Y-70017133D01*
X120788673Y-70042136D01*
X120936378Y-70055140D01*
X121063167Y-70057468D01*
X121131122Y-70056373D01*
X121196723Y-70054275D01*
X121254153Y-70051434D01*
X121297597Y-70048106D01*
X121311702Y-70046422D01*
X121450716Y-70017587D01*
X121592243Y-69972468D01*
X121729725Y-69913750D01*
X121856606Y-69844120D01*
X121934111Y-69791441D01*
X122061519Y-69683239D01*
X122179822Y-69556671D01*
X122286828Y-69414866D01*
X122380348Y-69260951D01*
X122458190Y-69098053D01*
X122502044Y-68980756D01*
X122552292Y-68797128D01*
X122585791Y-68602581D01*
X122602551Y-68401325D01*
X122602584Y-68197568D01*
X122585899Y-67995521D01*
X122552507Y-67799392D01*
X122502420Y-67613391D01*
X122498603Y-67601803D01*
X122435719Y-67439750D01*
X122358972Y-67291832D01*
X122265758Y-67153865D01*
X122153473Y-67021661D01*
X122109608Y-66976399D01*
X121973466Y-66852457D01*
X121833509Y-66749915D01*
X121687589Y-66667656D01*
X121533558Y-66604564D01*
X121369268Y-66559523D01*
X121273711Y-66542033D01*
X121114977Y-66526466D01*
X120956571Y-66529071D01*
G36*
X118611426Y-67446552D02*
G01*
X118459508Y-67466567D01*
X118324244Y-67500202D01*
X118204761Y-67547725D01*
X118100185Y-67609405D01*
X118022576Y-67672965D01*
X117953735Y-67747099D01*
X117899994Y-67826871D01*
X117857090Y-67919091D01*
X117841616Y-67962161D01*
X117828756Y-68001142D01*
X117817554Y-68037289D01*
X117807880Y-68072434D01*
X117799604Y-68108410D01*
X117792597Y-68147050D01*
X117786728Y-68190185D01*
X117781869Y-68239649D01*
X117777890Y-68297273D01*
X117774660Y-68364891D01*
X117772051Y-68444334D01*
X117769933Y-68537436D01*
X117768176Y-68646027D01*
X117766651Y-68771942D01*
X117765228Y-68917012D01*
X117763975Y-69059778D01*
X117762649Y-69215968D01*
X117761444Y-69351239D01*
X117760234Y-69467246D01*
X117758894Y-69565645D01*
X117757300Y-69648093D01*
X117755325Y-69716246D01*
X117752844Y-69771760D01*
X117749731Y-69816292D01*
X117745862Y-69851498D01*
X117741111Y-69879034D01*
X117735352Y-69900556D01*
X117728461Y-69917722D01*
X117720311Y-69932186D01*
X117710777Y-69945606D01*
X117699734Y-69959638D01*
X117695434Y-69965071D01*
X117679614Y-69987910D01*
X117672578Y-70003463D01*
X117672556Y-70003922D01*
X117683433Y-70006121D01*
X117714418Y-70008147D01*
X117763043Y-70009942D01*
X117826837Y-70011451D01*
X117903331Y-70012616D01*
X117990056Y-70013380D01*
X118084543Y-70013686D01*
X118095450Y-70013689D01*
X118518343Y-70013689D01*
X118521605Y-69917622D01*
X118524867Y-69821556D01*
X118586956Y-69872543D01*
X118684286Y-69940057D01*
X118794187Y-69994749D01*
X118880651Y-70024978D01*
X118949722Y-70039666D01*
X119033075Y-70049659D01*
X119122841Y-70054646D01*
X119211155Y-70054313D01*
X119290149Y-70048351D01*
X119326378Y-70042638D01*
X119466397Y-70004776D01*
X119592822Y-69949932D01*
X119704740Y-69878924D01*
X119801238Y-69792568D01*
X119881400Y-69691679D01*
X119944313Y-69577076D01*
X119988688Y-69450984D01*
X120001022Y-69394401D01*
X120008632Y-69332202D01*
X120012261Y-69257363D01*
X120012755Y-69223467D01*
X120012690Y-69220282D01*
X119252752Y-69220282D01*
X119243459Y-69295333D01*
X119215272Y-69359160D01*
X119166803Y-69414798D01*
X119161746Y-69419211D01*
X119113452Y-69454037D01*
X119061743Y-69476620D01*
X119001011Y-69488540D01*
X118925648Y-69491383D01*
X118907541Y-69490978D01*
X118853722Y-69488325D01*
X118813692Y-69482909D01*
X118778676Y-69472745D01*
X118739897Y-69455850D01*
X118729255Y-69450672D01*
X118668604Y-69414844D01*
X118621785Y-69372212D01*
X118609048Y-69356973D01*
X118564378Y-69300462D01*
X118564378Y-69104586D01*
X118564914Y-69025939D01*
X118566604Y-68967988D01*
X118569572Y-68928875D01*
X118573943Y-68906741D01*
X118578028Y-68900274D01*
X118593953Y-68897111D01*
X118627736Y-68894488D01*
X118674660Y-68892655D01*
X118730007Y-68891857D01*
X118738894Y-68891842D01*
X118859670Y-68897096D01*
X118962340Y-68913263D01*
X119048894Y-68940961D01*
X119121319Y-68980808D01*
X119176249Y-69027758D01*
X119220796Y-69085645D01*
X119245520Y-69148693D01*
X119252752Y-69220282D01*
X120012690Y-69220282D01*
X120010822Y-69129712D01*
X120002478Y-69050812D01*
X119986232Y-68979590D01*
X119960595Y-68908864D01*
X119936599Y-68856493D01*
X119877980Y-68761196D01*
X119799883Y-68673170D01*
X119704685Y-68594017D01*
X119594762Y-68525340D01*
X119472490Y-68468741D01*
X119340245Y-68425821D01*
X119275578Y-68410882D01*
X119139396Y-68388777D01*
X118990951Y-68374194D01*
X118839495Y-68367813D01*
X118712936Y-68369445D01*
X118551050Y-68376224D01*
X118558470Y-68317245D01*
X118577762Y-68218092D01*
X118608896Y-68137372D01*
X118652731Y-68074466D01*
X118710129Y-68028756D01*
X118781952Y-67999622D01*
X118869059Y-67986447D01*
X118972314Y-67988611D01*
X119010289Y-67992612D01*
X119151480Y-68017780D01*
X119288293Y-68058814D01*
X119382822Y-68096815D01*
X119427982Y-68116190D01*
X119466415Y-68131760D01*
X119492766Y-68141405D01*
X119500454Y-68143452D01*
X119510198Y-68134374D01*
X119526917Y-68105405D01*
X119550768Y-68056217D01*
X119581907Y-67986484D01*
X119620493Y-67895879D01*
X119627090Y-67880089D01*
X119657147Y-67807772D01*
X119684126Y-67742425D01*
X119706864Y-67686906D01*
X119724194Y-67644072D01*
X119734952Y-67616781D01*
X119738059Y-67607942D01*
X119728060Y-67603187D01*
X119701783Y-67597910D01*
X119673511Y-67594231D01*
X119643354Y-67589474D01*
X119595567Y-67580028D01*
X119534388Y-67566820D01*
X119464054Y-67550776D01*
X119388806Y-67532820D01*
X119360245Y-67525797D01*
X119255184Y-67500209D01*
X119167520Y-67480147D01*
X119092932Y-67464969D01*
X119027097Y-67454035D01*
X118965693Y-67446704D01*
X118904398Y-67442335D01*
X118838890Y-67440287D01*
X118780872Y-67439889D01*
X118611426Y-67446552D01*
G37*
X118611426Y-67446552D02*
X118459508Y-67466567D01*
X118324244Y-67500202D01*
X118204761Y-67547725D01*
X118100185Y-67609405D01*
X118022576Y-67672965D01*
X117953735Y-67747099D01*
X117899994Y-67826871D01*
X117857090Y-67919091D01*
X117841616Y-67962161D01*
X117828756Y-68001142D01*
X117817554Y-68037289D01*
X117807880Y-68072434D01*
X117799604Y-68108410D01*
X117792597Y-68147050D01*
X117786728Y-68190185D01*
X117781869Y-68239649D01*
X117777890Y-68297273D01*
X117774660Y-68364891D01*
X117772051Y-68444334D01*
X117769933Y-68537436D01*
X117768176Y-68646027D01*
X117766651Y-68771942D01*
X117765228Y-68917012D01*
X117763975Y-69059778D01*
X117762649Y-69215968D01*
X117761444Y-69351239D01*
X117760234Y-69467246D01*
X117758894Y-69565645D01*
X117757300Y-69648093D01*
X117755325Y-69716246D01*
X117752844Y-69771760D01*
X117749731Y-69816292D01*
X117745862Y-69851498D01*
X117741111Y-69879034D01*
X117735352Y-69900556D01*
X117728461Y-69917722D01*
X117720311Y-69932186D01*
X117710777Y-69945606D01*
X117699734Y-69959638D01*
X117695434Y-69965071D01*
X117679614Y-69987910D01*
X117672578Y-70003463D01*
X117672556Y-70003922D01*
X117683433Y-70006121D01*
X117714418Y-70008147D01*
X117763043Y-70009942D01*
X117826837Y-70011451D01*
X117903331Y-70012616D01*
X117990056Y-70013380D01*
X118084543Y-70013686D01*
X118095450Y-70013689D01*
X118518343Y-70013689D01*
X118521605Y-69917622D01*
X118524867Y-69821556D01*
X118586956Y-69872543D01*
X118684286Y-69940057D01*
X118794187Y-69994749D01*
X118880651Y-70024978D01*
X118949722Y-70039666D01*
X119033075Y-70049659D01*
X119122841Y-70054646D01*
X119211155Y-70054313D01*
X119290149Y-70048351D01*
X119326378Y-70042638D01*
X119466397Y-70004776D01*
X119592822Y-69949932D01*
X119704740Y-69878924D01*
X119801238Y-69792568D01*
X119881400Y-69691679D01*
X119944313Y-69577076D01*
X119988688Y-69450984D01*
X120001022Y-69394401D01*
X120008632Y-69332202D01*
X120012261Y-69257363D01*
X120012755Y-69223467D01*
X120012690Y-69220282D01*
X119252752Y-69220282D01*
X119243459Y-69295333D01*
X119215272Y-69359160D01*
X119166803Y-69414798D01*
X119161746Y-69419211D01*
X119113452Y-69454037D01*
X119061743Y-69476620D01*
X119001011Y-69488540D01*
X118925648Y-69491383D01*
X118907541Y-69490978D01*
X118853722Y-69488325D01*
X118813692Y-69482909D01*
X118778676Y-69472745D01*
X118739897Y-69455850D01*
X118729255Y-69450672D01*
X118668604Y-69414844D01*
X118621785Y-69372212D01*
X118609048Y-69356973D01*
X118564378Y-69300462D01*
X118564378Y-69104586D01*
X118564914Y-69025939D01*
X118566604Y-68967988D01*
X118569572Y-68928875D01*
X118573943Y-68906741D01*
X118578028Y-68900274D01*
X118593953Y-68897111D01*
X118627736Y-68894488D01*
X118674660Y-68892655D01*
X118730007Y-68891857D01*
X118738894Y-68891842D01*
X118859670Y-68897096D01*
X118962340Y-68913263D01*
X119048894Y-68940961D01*
X119121319Y-68980808D01*
X119176249Y-69027758D01*
X119220796Y-69085645D01*
X119245520Y-69148693D01*
X119252752Y-69220282D01*
X120012690Y-69220282D01*
X120010822Y-69129712D01*
X120002478Y-69050812D01*
X119986232Y-68979590D01*
X119960595Y-68908864D01*
X119936599Y-68856493D01*
X119877980Y-68761196D01*
X119799883Y-68673170D01*
X119704685Y-68594017D01*
X119594762Y-68525340D01*
X119472490Y-68468741D01*
X119340245Y-68425821D01*
X119275578Y-68410882D01*
X119139396Y-68388777D01*
X118990951Y-68374194D01*
X118839495Y-68367813D01*
X118712936Y-68369445D01*
X118551050Y-68376224D01*
X118558470Y-68317245D01*
X118577762Y-68218092D01*
X118608896Y-68137372D01*
X118652731Y-68074466D01*
X118710129Y-68028756D01*
X118781952Y-67999622D01*
X118869059Y-67986447D01*
X118972314Y-67988611D01*
X119010289Y-67992612D01*
X119151480Y-68017780D01*
X119288293Y-68058814D01*
X119382822Y-68096815D01*
X119427982Y-68116190D01*
X119466415Y-68131760D01*
X119492766Y-68141405D01*
X119500454Y-68143452D01*
X119510198Y-68134374D01*
X119526917Y-68105405D01*
X119550768Y-68056217D01*
X119581907Y-67986484D01*
X119620493Y-67895879D01*
X119627090Y-67880089D01*
X119657147Y-67807772D01*
X119684126Y-67742425D01*
X119706864Y-67686906D01*
X119724194Y-67644072D01*
X119734952Y-67616781D01*
X119738059Y-67607942D01*
X119728060Y-67603187D01*
X119701783Y-67597910D01*
X119673511Y-67594231D01*
X119643354Y-67589474D01*
X119595567Y-67580028D01*
X119534388Y-67566820D01*
X119464054Y-67550776D01*
X119388806Y-67532820D01*
X119360245Y-67525797D01*
X119255184Y-67500209D01*
X119167520Y-67480147D01*
X119092932Y-67464969D01*
X119027097Y-67454035D01*
X118965693Y-67446704D01*
X118904398Y-67442335D01*
X118838890Y-67440287D01*
X118780872Y-67439889D01*
X118611426Y-67446552D01*
G36*
X115098493Y-68052245D02*
G01*
X115098474Y-68286662D01*
X115098448Y-68499603D01*
X115098375Y-68692168D01*
X115098218Y-68865459D01*
X115097936Y-69020576D01*
X115097491Y-69158620D01*
X115096844Y-69280692D01*
X115095955Y-69387894D01*
X115094787Y-69481326D01*
X115093299Y-69562090D01*
X115091454Y-69631286D01*
X115089211Y-69690015D01*
X115086531Y-69739379D01*
X115083377Y-69780478D01*
X115079708Y-69814413D01*
X115075487Y-69842286D01*
X115070673Y-69865198D01*
X115065227Y-69884249D01*
X115059112Y-69900540D01*
X115052288Y-69915173D01*
X115044715Y-69929249D01*
X115036355Y-69943868D01*
X115031161Y-69952974D01*
X114996896Y-70013689D01*
X115855045Y-70013689D01*
X115855045Y-69917733D01*
X115855776Y-69874370D01*
X115857728Y-69841205D01*
X115860537Y-69823424D01*
X115861779Y-69821778D01*
X115873201Y-69828662D01*
X115895916Y-69846505D01*
X115918615Y-69865879D01*
X115973200Y-69906614D01*
X116042679Y-69947617D01*
X116119730Y-69985123D01*
X116197035Y-70015364D01*
X116227887Y-70025012D01*
X116296384Y-70039578D01*
X116379236Y-70049539D01*
X116468629Y-70054583D01*
X116556752Y-70054396D01*
X116635793Y-70048666D01*
X116673489Y-70042858D01*
X116811586Y-70004797D01*
X116938887Y-69947073D01*
X117054708Y-69870211D01*
X117158363Y-69774739D01*
X117249167Y-69661179D01*
X117315969Y-69550381D01*
X117370836Y-69433625D01*
X117412837Y-69314276D01*
X117442833Y-69188283D01*
X117461689Y-69051594D01*
X117470268Y-68900158D01*
X117470994Y-68822711D01*
X117468900Y-68765934D01*
X116639783Y-68765934D01*
X116639576Y-68859002D01*
X116636663Y-68946692D01*
X116631000Y-69023772D01*
X116622545Y-69085009D01*
X116619962Y-69097350D01*
X116588160Y-69204633D01*
X116546502Y-69291658D01*
X116494637Y-69358642D01*
X116432219Y-69405805D01*
X116358900Y-69433365D01*
X116274331Y-69441541D01*
X116178165Y-69430551D01*
X116114689Y-69414829D01*
X116065546Y-69396639D01*
X116011417Y-69370791D01*
X115970756Y-69347089D01*
X115900200Y-69300721D01*
X115900200Y-68150530D01*
X115967608Y-68106962D01*
X116046133Y-68066040D01*
X116130319Y-68039389D01*
X116215443Y-68027465D01*
X116296784Y-68030722D01*
X116369620Y-68049615D01*
X116401574Y-68065184D01*
X116459499Y-68108181D01*
X116508456Y-68164953D01*
X116549610Y-68237575D01*
X116584126Y-68328121D01*
X116613167Y-68438666D01*
X116614448Y-68444533D01*
X116624619Y-68506788D01*
X116632261Y-68584594D01*
X116637330Y-68672720D01*
X116639783Y-68765934D01*
X117468900Y-68765934D01*
X117463143Y-68609895D01*
X117441198Y-68414059D01*
X117405214Y-68235332D01*
X117355241Y-68073845D01*
X117291332Y-67929726D01*
X117213538Y-67803106D01*
X117121911Y-67694115D01*
X117016503Y-67602883D01*
X116971338Y-67571932D01*
X116870389Y-67515785D01*
X116767099Y-67476174D01*
X116657011Y-67452014D01*
X116535670Y-67442219D01*
X116443164Y-67443265D01*
X116313510Y-67454231D01*
X116200916Y-67476046D01*
X116102125Y-67509714D01*
X116013879Y-67556236D01*
X115965014Y-67590448D01*
X115935647Y-67612362D01*
X115913957Y-67627333D01*
X115905747Y-67631733D01*
X115904132Y-67620904D01*
X115902841Y-67590251D01*
X115901862Y-67542526D01*
X115901183Y-67480479D01*
X115900790Y-67406862D01*
X115900670Y-67324427D01*
X115900812Y-67235925D01*
X115901203Y-67144107D01*
X115901829Y-67051724D01*
X115902680Y-66961528D01*
X115903740Y-66876271D01*
X115904999Y-66798703D01*
X115906444Y-66731576D01*
X115908062Y-66677641D01*
X115909839Y-66639650D01*
X115910331Y-66632667D01*
X115917908Y-66562251D01*
X115929469Y-66507102D01*
X115947208Y-66459981D01*
X115973318Y-66413647D01*
X115979585Y-66404067D01*
X116004017Y-66367378D01*
X115098689Y-66367378D01*
X115098493Y-68052245D01*
G37*
X115098493Y-68052245D02*
X115098474Y-68286662D01*
X115098448Y-68499603D01*
X115098375Y-68692168D01*
X115098218Y-68865459D01*
X115097936Y-69020576D01*
X115097491Y-69158620D01*
X115096844Y-69280692D01*
X115095955Y-69387894D01*
X115094787Y-69481326D01*
X115093299Y-69562090D01*
X115091454Y-69631286D01*
X115089211Y-69690015D01*
X115086531Y-69739379D01*
X115083377Y-69780478D01*
X115079708Y-69814413D01*
X115075487Y-69842286D01*
X115070673Y-69865198D01*
X115065227Y-69884249D01*
X115059112Y-69900540D01*
X115052288Y-69915173D01*
X115044715Y-69929249D01*
X115036355Y-69943868D01*
X115031161Y-69952974D01*
X114996896Y-70013689D01*
X115855045Y-70013689D01*
X115855045Y-69917733D01*
X115855776Y-69874370D01*
X115857728Y-69841205D01*
X115860537Y-69823424D01*
X115861779Y-69821778D01*
X115873201Y-69828662D01*
X115895916Y-69846505D01*
X115918615Y-69865879D01*
X115973200Y-69906614D01*
X116042679Y-69947617D01*
X116119730Y-69985123D01*
X116197035Y-70015364D01*
X116227887Y-70025012D01*
X116296384Y-70039578D01*
X116379236Y-70049539D01*
X116468629Y-70054583D01*
X116556752Y-70054396D01*
X116635793Y-70048666D01*
X116673489Y-70042858D01*
X116811586Y-70004797D01*
X116938887Y-69947073D01*
X117054708Y-69870211D01*
X117158363Y-69774739D01*
X117249167Y-69661179D01*
X117315969Y-69550381D01*
X117370836Y-69433625D01*
X117412837Y-69314276D01*
X117442833Y-69188283D01*
X117461689Y-69051594D01*
X117470268Y-68900158D01*
X117470994Y-68822711D01*
X117468900Y-68765934D01*
X116639783Y-68765934D01*
X116639576Y-68859002D01*
X116636663Y-68946692D01*
X116631000Y-69023772D01*
X116622545Y-69085009D01*
X116619962Y-69097350D01*
X116588160Y-69204633D01*
X116546502Y-69291658D01*
X116494637Y-69358642D01*
X116432219Y-69405805D01*
X116358900Y-69433365D01*
X116274331Y-69441541D01*
X116178165Y-69430551D01*
X116114689Y-69414829D01*
X116065546Y-69396639D01*
X116011417Y-69370791D01*
X115970756Y-69347089D01*
X115900200Y-69300721D01*
X115900200Y-68150530D01*
X115967608Y-68106962D01*
X116046133Y-68066040D01*
X116130319Y-68039389D01*
X116215443Y-68027465D01*
X116296784Y-68030722D01*
X116369620Y-68049615D01*
X116401574Y-68065184D01*
X116459499Y-68108181D01*
X116508456Y-68164953D01*
X116549610Y-68237575D01*
X116584126Y-68328121D01*
X116613167Y-68438666D01*
X116614448Y-68444533D01*
X116624619Y-68506788D01*
X116632261Y-68584594D01*
X116637330Y-68672720D01*
X116639783Y-68765934D01*
X117468900Y-68765934D01*
X117463143Y-68609895D01*
X117441198Y-68414059D01*
X117405214Y-68235332D01*
X117355241Y-68073845D01*
X117291332Y-67929726D01*
X117213538Y-67803106D01*
X117121911Y-67694115D01*
X117016503Y-67602883D01*
X116971338Y-67571932D01*
X116870389Y-67515785D01*
X116767099Y-67476174D01*
X116657011Y-67452014D01*
X116535670Y-67442219D01*
X116443164Y-67443265D01*
X116313510Y-67454231D01*
X116200916Y-67476046D01*
X116102125Y-67509714D01*
X116013879Y-67556236D01*
X115965014Y-67590448D01*
X115935647Y-67612362D01*
X115913957Y-67627333D01*
X115905747Y-67631733D01*
X115904132Y-67620904D01*
X115902841Y-67590251D01*
X115901862Y-67542526D01*
X115901183Y-67480479D01*
X115900790Y-67406862D01*
X115900670Y-67324427D01*
X115900812Y-67235925D01*
X115901203Y-67144107D01*
X115901829Y-67051724D01*
X115902680Y-66961528D01*
X115903740Y-66876271D01*
X115904999Y-66798703D01*
X115906444Y-66731576D01*
X115908062Y-66677641D01*
X115909839Y-66639650D01*
X115910331Y-66632667D01*
X115917908Y-66562251D01*
X115929469Y-66507102D01*
X115947208Y-66459981D01*
X115973318Y-66413647D01*
X115979585Y-66404067D01*
X116004017Y-66367378D01*
X115098689Y-66367378D01*
X115098493Y-68052245D01*
G36*
X123558043Y-65606571D02*
G01*
X123461768Y-65630809D01*
X123375184Y-65673641D01*
X123300373Y-65733419D01*
X123239418Y-65808494D01*
X123194399Y-65897220D01*
X123168136Y-65993530D01*
X123162286Y-66090795D01*
X123177140Y-66184654D01*
X123210840Y-66272511D01*
X123261528Y-66351770D01*
X123327345Y-66419836D01*
X123406434Y-66474112D01*
X123496934Y-66512002D01*
X123548200Y-66524426D01*
X123592698Y-66531947D01*
X123626999Y-66534919D01*
X123659960Y-66533094D01*
X123700434Y-66526225D01*
X123733531Y-66519250D01*
X123826947Y-66487741D01*
X123910619Y-66436617D01*
X123982665Y-66367429D01*
X124041200Y-66281728D01*
X124055148Y-66254489D01*
X124071586Y-66218122D01*
X124081894Y-66187582D01*
X124087460Y-66155450D01*
X124089669Y-66114307D01*
X124089948Y-66068222D01*
X124085861Y-65983865D01*
X124072446Y-65914586D01*
X124047256Y-65853961D01*
X124007846Y-65795567D01*
X123969298Y-65751302D01*
X123897406Y-65685484D01*
X123822313Y-65640053D01*
X123739562Y-65612850D01*
X123661928Y-65602576D01*
X123558043Y-65606571D01*
G37*
X123558043Y-65606571D02*
X123461768Y-65630809D01*
X123375184Y-65673641D01*
X123300373Y-65733419D01*
X123239418Y-65808494D01*
X123194399Y-65897220D01*
X123168136Y-65993530D01*
X123162286Y-66090795D01*
X123177140Y-66184654D01*
X123210840Y-66272511D01*
X123261528Y-66351770D01*
X123327345Y-66419836D01*
X123406434Y-66474112D01*
X123496934Y-66512002D01*
X123548200Y-66524426D01*
X123592698Y-66531947D01*
X123626999Y-66534919D01*
X123659960Y-66533094D01*
X123700434Y-66526225D01*
X123733531Y-66519250D01*
X123826947Y-66487741D01*
X123910619Y-66436617D01*
X123982665Y-66367429D01*
X124041200Y-66281728D01*
X124055148Y-66254489D01*
X124071586Y-66218122D01*
X124081894Y-66187582D01*
X124087460Y-66155450D01*
X124089669Y-66114307D01*
X124089948Y-66068222D01*
X124085861Y-65983865D01*
X124072446Y-65914586D01*
X124047256Y-65853961D01*
X124007846Y-65795567D01*
X123969298Y-65751302D01*
X123897406Y-65685484D01*
X123822313Y-65640053D01*
X123739562Y-65612850D01*
X123661928Y-65602576D01*
X123558043Y-65606571D01*
G36*
X127406371Y-70849066D02*
G01*
X127366889Y-70849467D01*
X127251200Y-70852259D01*
X127154311Y-70860550D01*
X127072919Y-70875232D01*
X127003723Y-70897193D01*
X126943420Y-70927322D01*
X126888708Y-70966510D01*
X126869167Y-70983532D01*
X126836750Y-71023363D01*
X126807520Y-71077413D01*
X126784991Y-71137323D01*
X126772679Y-71194739D01*
X126771400Y-71215956D01*
X126779417Y-71274769D01*
X126800899Y-71339013D01*
X126831999Y-71399821D01*
X126868866Y-71448330D01*
X126874854Y-71454182D01*
X126925579Y-71495321D01*
X126981125Y-71527435D01*
X127044696Y-71551365D01*
X127119494Y-71567953D01*
X127208722Y-71578041D01*
X127315582Y-71582469D01*
X127364528Y-71582845D01*
X127426762Y-71582545D01*
X127470528Y-71581292D01*
X127499931Y-71578554D01*
X127519079Y-71573801D01*
X127532077Y-71566501D01*
X127539045Y-71560267D01*
X127545626Y-71552694D01*
X127550788Y-71542924D01*
X127554703Y-71528340D01*
X127557543Y-71506326D01*
X127559480Y-71474264D01*
X127560684Y-71429536D01*
X127561328Y-71369526D01*
X127561583Y-71291617D01*
X127561622Y-71215956D01*
X127561870Y-71115041D01*
X127561817Y-71034427D01*
X127560857Y-70995822D01*
X127414867Y-70995822D01*
X127414867Y-71436089D01*
X127321734Y-71436004D01*
X127265693Y-71434396D01*
X127206999Y-71430256D01*
X127158028Y-71424464D01*
X127156538Y-71424226D01*
X127077392Y-71405090D01*
X127016002Y-71375287D01*
X126969305Y-71332878D01*
X126939635Y-71286961D01*
X126921353Y-71236026D01*
X126922771Y-71188200D01*
X126943988Y-71136933D01*
X126985489Y-71083899D01*
X127042998Y-71044600D01*
X127117750Y-71018331D01*
X127167708Y-71009035D01*
X127224416Y-71002507D01*
X127284519Y-70997782D01*
X127335639Y-70995817D01*
X127338667Y-70995808D01*
X127414867Y-70995822D01*
X127560857Y-70995822D01*
X127560260Y-70971851D01*
X127555998Y-70925055D01*
X127547830Y-70891778D01*
X127534556Y-70869759D01*
X127514974Y-70856739D01*
X127487883Y-70850457D01*
X127452082Y-70848653D01*
X127406371Y-70849066D01*
G37*
X127406371Y-70849066D02*
X127366889Y-70849467D01*
X127251200Y-70852259D01*
X127154311Y-70860550D01*
X127072919Y-70875232D01*
X127003723Y-70897193D01*
X126943420Y-70927322D01*
X126888708Y-70966510D01*
X126869167Y-70983532D01*
X126836750Y-71023363D01*
X126807520Y-71077413D01*
X126784991Y-71137323D01*
X126772679Y-71194739D01*
X126771400Y-71215956D01*
X126779417Y-71274769D01*
X126800899Y-71339013D01*
X126831999Y-71399821D01*
X126868866Y-71448330D01*
X126874854Y-71454182D01*
X126925579Y-71495321D01*
X126981125Y-71527435D01*
X127044696Y-71551365D01*
X127119494Y-71567953D01*
X127208722Y-71578041D01*
X127315582Y-71582469D01*
X127364528Y-71582845D01*
X127426762Y-71582545D01*
X127470528Y-71581292D01*
X127499931Y-71578554D01*
X127519079Y-71573801D01*
X127532077Y-71566501D01*
X127539045Y-71560267D01*
X127545626Y-71552694D01*
X127550788Y-71542924D01*
X127554703Y-71528340D01*
X127557543Y-71506326D01*
X127559480Y-71474264D01*
X127560684Y-71429536D01*
X127561328Y-71369526D01*
X127561583Y-71291617D01*
X127561622Y-71215956D01*
X127561870Y-71115041D01*
X127561817Y-71034427D01*
X127560857Y-70995822D01*
X127414867Y-70995822D01*
X127414867Y-71436089D01*
X127321734Y-71436004D01*
X127265693Y-71434396D01*
X127206999Y-71430256D01*
X127158028Y-71424464D01*
X127156538Y-71424226D01*
X127077392Y-71405090D01*
X127016002Y-71375287D01*
X126969305Y-71332878D01*
X126939635Y-71286961D01*
X126921353Y-71236026D01*
X126922771Y-71188200D01*
X126943988Y-71136933D01*
X126985489Y-71083899D01*
X127042998Y-71044600D01*
X127117750Y-71018331D01*
X127167708Y-71009035D01*
X127224416Y-71002507D01*
X127284519Y-70997782D01*
X127335639Y-70995817D01*
X127338667Y-70995808D01*
X127414867Y-70995822D01*
X127560857Y-70995822D01*
X127560260Y-70971851D01*
X127555998Y-70925055D01*
X127547830Y-70891778D01*
X127534556Y-70869759D01*
X127514974Y-70856739D01*
X127487883Y-70850457D01*
X127452082Y-70848653D01*
X127406371Y-70849066D01*
G36*
X125997794Y-70849146D02*
G01*
X125928386Y-70849518D01*
X125875997Y-70850385D01*
X125837847Y-70851946D01*
X125811159Y-70854403D01*
X125793153Y-70857957D01*
X125781049Y-70862810D01*
X125772069Y-70869161D01*
X125768818Y-70872084D01*
X125749043Y-70903142D01*
X125745482Y-70938828D01*
X125758491Y-70970510D01*
X125764506Y-70976913D01*
X125774235Y-70983121D01*
X125789901Y-70987910D01*
X125814408Y-70991514D01*
X125850661Y-70994164D01*
X125901565Y-70996095D01*
X125970026Y-70997539D01*
X126032617Y-70998418D01*
X126280334Y-71001467D01*
X126283719Y-71066378D01*
X126287105Y-71131289D01*
X126118958Y-71131289D01*
X126045959Y-71131919D01*
X125992517Y-71134553D01*
X125955628Y-71140309D01*
X125932288Y-71150304D01*
X125919494Y-71165656D01*
X125914242Y-71187482D01*
X125913445Y-71207738D01*
X125915923Y-71232592D01*
X125925277Y-71250906D01*
X125944383Y-71263637D01*
X125976118Y-71271741D01*
X126023359Y-71276176D01*
X126088983Y-71277899D01*
X126124801Y-71278045D01*
X126285978Y-71278045D01*
X126285978Y-71436089D01*
X126037622Y-71436089D01*
X125956213Y-71436202D01*
X125894342Y-71436712D01*
X125848968Y-71437870D01*
X125817054Y-71439930D01*
X125795559Y-71443146D01*
X125781443Y-71447772D01*
X125771668Y-71454059D01*
X125766689Y-71458667D01*
X125749610Y-71485560D01*
X125744111Y-71509467D01*
X125751963Y-71538667D01*
X125766689Y-71560267D01*
X125774546Y-71567066D01*
X125784688Y-71572346D01*
X125799844Y-71576298D01*
X125822741Y-71579113D01*
X125856109Y-71580982D01*
X125902675Y-71582098D01*
X125965167Y-71582651D01*
X126046314Y-71582833D01*
X126088422Y-71582845D01*
X126178598Y-71582765D01*
X126248924Y-71582398D01*
X126302129Y-71581552D01*
X126340940Y-71580036D01*
X126368087Y-71577659D01*
X126386298Y-71574229D01*
X126398300Y-71569554D01*
X126406822Y-71563444D01*
X126410156Y-71560267D01*
X126416755Y-71552670D01*
X126421927Y-71542870D01*
X126425846Y-71528239D01*
X126428684Y-71506152D01*
X126430615Y-71473982D01*
X126431812Y-71429103D01*
X126432448Y-71368889D01*
X126432697Y-71290713D01*
X126432734Y-71217923D01*
X126432700Y-71124707D01*
X126432465Y-71051431D01*
X126431830Y-70995458D01*
X126430594Y-70954151D01*
X126428556Y-70924872D01*
X126425517Y-70904984D01*
X126421277Y-70891850D01*
X126415635Y-70882832D01*
X126408391Y-70875293D01*
X126406606Y-70873612D01*
X126397945Y-70866172D01*
X126387882Y-70860409D01*
X126373625Y-70856112D01*
X126352383Y-70853064D01*
X126321364Y-70851051D01*
X126277777Y-70849860D01*
X126218831Y-70849275D01*
X126141734Y-70849083D01*
X126087001Y-70849067D01*
X125997794Y-70849146D01*
G37*
X125997794Y-70849146D02*
X125928386Y-70849518D01*
X125875997Y-70850385D01*
X125837847Y-70851946D01*
X125811159Y-70854403D01*
X125793153Y-70857957D01*
X125781049Y-70862810D01*
X125772069Y-70869161D01*
X125768818Y-70872084D01*
X125749043Y-70903142D01*
X125745482Y-70938828D01*
X125758491Y-70970510D01*
X125764506Y-70976913D01*
X125774235Y-70983121D01*
X125789901Y-70987910D01*
X125814408Y-70991514D01*
X125850661Y-70994164D01*
X125901565Y-70996095D01*
X125970026Y-70997539D01*
X126032617Y-70998418D01*
X126280334Y-71001467D01*
X126283719Y-71066378D01*
X126287105Y-71131289D01*
X126118958Y-71131289D01*
X126045959Y-71131919D01*
X125992517Y-71134553D01*
X125955628Y-71140309D01*
X125932288Y-71150304D01*
X125919494Y-71165656D01*
X125914242Y-71187482D01*
X125913445Y-71207738D01*
X125915923Y-71232592D01*
X125925277Y-71250906D01*
X125944383Y-71263637D01*
X125976118Y-71271741D01*
X126023359Y-71276176D01*
X126088983Y-71277899D01*
X126124801Y-71278045D01*
X126285978Y-71278045D01*
X126285978Y-71436089D01*
X126037622Y-71436089D01*
X125956213Y-71436202D01*
X125894342Y-71436712D01*
X125848968Y-71437870D01*
X125817054Y-71439930D01*
X125795559Y-71443146D01*
X125781443Y-71447772D01*
X125771668Y-71454059D01*
X125766689Y-71458667D01*
X125749610Y-71485560D01*
X125744111Y-71509467D01*
X125751963Y-71538667D01*
X125766689Y-71560267D01*
X125774546Y-71567066D01*
X125784688Y-71572346D01*
X125799844Y-71576298D01*
X125822741Y-71579113D01*
X125856109Y-71580982D01*
X125902675Y-71582098D01*
X125965167Y-71582651D01*
X126046314Y-71582833D01*
X126088422Y-71582845D01*
X126178598Y-71582765D01*
X126248924Y-71582398D01*
X126302129Y-71581552D01*
X126340940Y-71580036D01*
X126368087Y-71577659D01*
X126386298Y-71574229D01*
X126398300Y-71569554D01*
X126406822Y-71563444D01*
X126410156Y-71560267D01*
X126416755Y-71552670D01*
X126421927Y-71542870D01*
X126425846Y-71528239D01*
X126428684Y-71506152D01*
X126430615Y-71473982D01*
X126431812Y-71429103D01*
X126432448Y-71368889D01*
X126432697Y-71290713D01*
X126432734Y-71217923D01*
X126432700Y-71124707D01*
X126432465Y-71051431D01*
X126431830Y-70995458D01*
X126430594Y-70954151D01*
X126428556Y-70924872D01*
X126425517Y-70904984D01*
X126421277Y-70891850D01*
X126415635Y-70882832D01*
X126408391Y-70875293D01*
X126406606Y-70873612D01*
X126397945Y-70866172D01*
X126387882Y-70860409D01*
X126373625Y-70856112D01*
X126352383Y-70853064D01*
X126321364Y-70851051D01*
X126277777Y-70849860D01*
X126218831Y-70849275D01*
X126141734Y-70849083D01*
X126087001Y-70849067D01*
X125997794Y-70849146D01*
G36*
X124976703Y-70850351D02*
G01*
X124901888Y-70855581D01*
X124832306Y-70863750D01*
X124772002Y-70874550D01*
X124725020Y-70887673D01*
X124695406Y-70902813D01*
X124690860Y-70907269D01*
X124675054Y-70941850D01*
X124679847Y-70977351D01*
X124704364Y-71007725D01*
X124705534Y-71008596D01*
X124719954Y-71017954D01*
X124735008Y-71022876D01*
X124756005Y-71023473D01*
X124788257Y-71019861D01*
X124837073Y-71012154D01*
X124841000Y-71011505D01*
X124913739Y-71002569D01*
X124992217Y-70998161D01*
X125070927Y-70998119D01*
X125144361Y-71002279D01*
X125207011Y-71010479D01*
X125253370Y-71022557D01*
X125256416Y-71023771D01*
X125290048Y-71042615D01*
X125301864Y-71061685D01*
X125292614Y-71080439D01*
X125263047Y-71098337D01*
X125213911Y-71114837D01*
X125145957Y-71129396D01*
X125100645Y-71136406D01*
X125006456Y-71149889D01*
X124931544Y-71162214D01*
X124872717Y-71174449D01*
X124826785Y-71187661D01*
X124790555Y-71202917D01*
X124760838Y-71221285D01*
X124734442Y-71243831D01*
X124713230Y-71265971D01*
X124688065Y-71296819D01*
X124675681Y-71323345D01*
X124671808Y-71356026D01*
X124671667Y-71367995D01*
X124674576Y-71407712D01*
X124686202Y-71437259D01*
X124706323Y-71463486D01*
X124747216Y-71503576D01*
X124792817Y-71534149D01*
X124846513Y-71556203D01*
X124911692Y-71570735D01*
X124991744Y-71578741D01*
X125090057Y-71581218D01*
X125106289Y-71581177D01*
X125171849Y-71579818D01*
X125236866Y-71576730D01*
X125294252Y-71572356D01*
X125336922Y-71567140D01*
X125340372Y-71566541D01*
X125382796Y-71556491D01*
X125418780Y-71543796D01*
X125439150Y-71532190D01*
X125458107Y-71501572D01*
X125459427Y-71465918D01*
X125443085Y-71434144D01*
X125439429Y-71430551D01*
X125424315Y-71419876D01*
X125405415Y-71415276D01*
X125376162Y-71416059D01*
X125340651Y-71420127D01*
X125300970Y-71423762D01*
X125245345Y-71426828D01*
X125180406Y-71429053D01*
X125112785Y-71430164D01*
X125095000Y-71430237D01*
X125027128Y-71429964D01*
X124977454Y-71428646D01*
X124941610Y-71425827D01*
X124915224Y-71421050D01*
X124893926Y-71413857D01*
X124881126Y-71407867D01*
X124853000Y-71391233D01*
X124835068Y-71376168D01*
X124832447Y-71371897D01*
X124837976Y-71354263D01*
X124864260Y-71337192D01*
X124909478Y-71321458D01*
X124971808Y-71307838D01*
X124990171Y-71304804D01*
X125086090Y-71289738D01*
X125162641Y-71277146D01*
X125222780Y-71266111D01*
X125269460Y-71255720D01*
X125305637Y-71245056D01*
X125334265Y-71233205D01*
X125358298Y-71219251D01*
X125380692Y-71202281D01*
X125404402Y-71181378D01*
X125412380Y-71174049D01*
X125440353Y-71146699D01*
X125455160Y-71125029D01*
X125460952Y-71100232D01*
X125461889Y-71068983D01*
X125451575Y-71007705D01*
X125420752Y-70955640D01*
X125369595Y-70912958D01*
X125298283Y-70879825D01*
X125247400Y-70864964D01*
X125192100Y-70855366D01*
X125125853Y-70849936D01*
X125052706Y-70848367D01*
X124976703Y-70850351D01*
G37*
X124976703Y-70850351D02*
X124901888Y-70855581D01*
X124832306Y-70863750D01*
X124772002Y-70874550D01*
X124725020Y-70887673D01*
X124695406Y-70902813D01*
X124690860Y-70907269D01*
X124675054Y-70941850D01*
X124679847Y-70977351D01*
X124704364Y-71007725D01*
X124705534Y-71008596D01*
X124719954Y-71017954D01*
X124735008Y-71022876D01*
X124756005Y-71023473D01*
X124788257Y-71019861D01*
X124837073Y-71012154D01*
X124841000Y-71011505D01*
X124913739Y-71002569D01*
X124992217Y-70998161D01*
X125070927Y-70998119D01*
X125144361Y-71002279D01*
X125207011Y-71010479D01*
X125253370Y-71022557D01*
X125256416Y-71023771D01*
X125290048Y-71042615D01*
X125301864Y-71061685D01*
X125292614Y-71080439D01*
X125263047Y-71098337D01*
X125213911Y-71114837D01*
X125145957Y-71129396D01*
X125100645Y-71136406D01*
X125006456Y-71149889D01*
X124931544Y-71162214D01*
X124872717Y-71174449D01*
X124826785Y-71187661D01*
X124790555Y-71202917D01*
X124760838Y-71221285D01*
X124734442Y-71243831D01*
X124713230Y-71265971D01*
X124688065Y-71296819D01*
X124675681Y-71323345D01*
X124671808Y-71356026D01*
X124671667Y-71367995D01*
X124674576Y-71407712D01*
X124686202Y-71437259D01*
X124706323Y-71463486D01*
X124747216Y-71503576D01*
X124792817Y-71534149D01*
X124846513Y-71556203D01*
X124911692Y-71570735D01*
X124991744Y-71578741D01*
X125090057Y-71581218D01*
X125106289Y-71581177D01*
X125171849Y-71579818D01*
X125236866Y-71576730D01*
X125294252Y-71572356D01*
X125336922Y-71567140D01*
X125340372Y-71566541D01*
X125382796Y-71556491D01*
X125418780Y-71543796D01*
X125439150Y-71532190D01*
X125458107Y-71501572D01*
X125459427Y-71465918D01*
X125443085Y-71434144D01*
X125439429Y-71430551D01*
X125424315Y-71419876D01*
X125405415Y-71415276D01*
X125376162Y-71416059D01*
X125340651Y-71420127D01*
X125300970Y-71423762D01*
X125245345Y-71426828D01*
X125180406Y-71429053D01*
X125112785Y-71430164D01*
X125095000Y-71430237D01*
X125027128Y-71429964D01*
X124977454Y-71428646D01*
X124941610Y-71425827D01*
X124915224Y-71421050D01*
X124893926Y-71413857D01*
X124881126Y-71407867D01*
X124853000Y-71391233D01*
X124835068Y-71376168D01*
X124832447Y-71371897D01*
X124837976Y-71354263D01*
X124864260Y-71337192D01*
X124909478Y-71321458D01*
X124971808Y-71307838D01*
X124990171Y-71304804D01*
X125086090Y-71289738D01*
X125162641Y-71277146D01*
X125222780Y-71266111D01*
X125269460Y-71255720D01*
X125305637Y-71245056D01*
X125334265Y-71233205D01*
X125358298Y-71219251D01*
X125380692Y-71202281D01*
X125404402Y-71181378D01*
X125412380Y-71174049D01*
X125440353Y-71146699D01*
X125455160Y-71125029D01*
X125460952Y-71100232D01*
X125461889Y-71068983D01*
X125451575Y-71007705D01*
X125420752Y-70955640D01*
X125369595Y-70912958D01*
X125298283Y-70879825D01*
X125247400Y-70864964D01*
X125192100Y-70855366D01*
X125125853Y-70849936D01*
X125052706Y-70848367D01*
X124976703Y-70850351D01*
G36*
X124208822Y-70871645D02*
G01*
X124202242Y-70879218D01*
X124197079Y-70888987D01*
X124193164Y-70903571D01*
X124190324Y-70925585D01*
X124188387Y-70957648D01*
X124187183Y-71002375D01*
X124186539Y-71062385D01*
X124186284Y-71140294D01*
X124186245Y-71215956D01*
X124186314Y-71309802D01*
X124186638Y-71383689D01*
X124187386Y-71440232D01*
X124188732Y-71482049D01*
X124190846Y-71511757D01*
X124193900Y-71531973D01*
X124198066Y-71545314D01*
X124203516Y-71554398D01*
X124208822Y-71560267D01*
X124241826Y-71579947D01*
X124276991Y-71578181D01*
X124308455Y-71556717D01*
X124315684Y-71548337D01*
X124321334Y-71538614D01*
X124325599Y-71524861D01*
X124328673Y-71504389D01*
X124330752Y-71474512D01*
X124332030Y-71432541D01*
X124332701Y-71375789D01*
X124332959Y-71301567D01*
X124333000Y-71217537D01*
X124333000Y-70904485D01*
X124305291Y-70876776D01*
X124271137Y-70853463D01*
X124238006Y-70852623D01*
X124208822Y-70871645D01*
G37*
X124208822Y-70871645D02*
X124202242Y-70879218D01*
X124197079Y-70888987D01*
X124193164Y-70903571D01*
X124190324Y-70925585D01*
X124188387Y-70957648D01*
X124187183Y-71002375D01*
X124186539Y-71062385D01*
X124186284Y-71140294D01*
X124186245Y-71215956D01*
X124186314Y-71309802D01*
X124186638Y-71383689D01*
X124187386Y-71440232D01*
X124188732Y-71482049D01*
X124190846Y-71511757D01*
X124193900Y-71531973D01*
X124198066Y-71545314D01*
X124203516Y-71554398D01*
X124208822Y-71560267D01*
X124241826Y-71579947D01*
X124276991Y-71578181D01*
X124308455Y-71556717D01*
X124315684Y-71548337D01*
X124321334Y-71538614D01*
X124325599Y-71524861D01*
X124328673Y-71504389D01*
X124330752Y-71474512D01*
X124332030Y-71432541D01*
X124332701Y-71375789D01*
X124332959Y-71301567D01*
X124333000Y-71217537D01*
X124333000Y-70904485D01*
X124305291Y-70876776D01*
X124271137Y-70853463D01*
X124238006Y-70852623D01*
X124208822Y-70871645D01*
G36*
X123235081Y-70854599D02*
G01*
X123166565Y-70866095D01*
X123113943Y-70883967D01*
X123079708Y-70907499D01*
X123070379Y-70920924D01*
X123060893Y-70952148D01*
X123067277Y-70980395D01*
X123087430Y-71007182D01*
X123118745Y-71019713D01*
X123164183Y-71018696D01*
X123199326Y-71011906D01*
X123277419Y-70998971D01*
X123357226Y-70997742D01*
X123446555Y-71008241D01*
X123471229Y-71012690D01*
X123554291Y-71036108D01*
X123619273Y-71070945D01*
X123665461Y-71116604D01*
X123692145Y-71172494D01*
X123697663Y-71201388D01*
X123694051Y-71260012D01*
X123670729Y-71311879D01*
X123629824Y-71355978D01*
X123573459Y-71391299D01*
X123503760Y-71416829D01*
X123422852Y-71431559D01*
X123332860Y-71434478D01*
X123235910Y-71424575D01*
X123230436Y-71423641D01*
X123191875Y-71416459D01*
X123170494Y-71409521D01*
X123161227Y-71399227D01*
X123159006Y-71381976D01*
X123158956Y-71372841D01*
X123158956Y-71334489D01*
X123227431Y-71334489D01*
X123287900Y-71330347D01*
X123329165Y-71317147D01*
X123353175Y-71293730D01*
X123361877Y-71258936D01*
X123361983Y-71254394D01*
X123356892Y-71224654D01*
X123339433Y-71203419D01*
X123306939Y-71189366D01*
X123256743Y-71181173D01*
X123208123Y-71178161D01*
X123137456Y-71176433D01*
X123086198Y-71179070D01*
X123051239Y-71188800D01*
X123029470Y-71208353D01*
X123017780Y-71240456D01*
X123013060Y-71287838D01*
X123012200Y-71350071D01*
X123013609Y-71419535D01*
X123017848Y-71466786D01*
X123024936Y-71492012D01*
X123026311Y-71493988D01*
X123065228Y-71525508D01*
X123122286Y-71550470D01*
X123193869Y-71568340D01*
X123276358Y-71578586D01*
X123366139Y-71580673D01*
X123459592Y-71574068D01*
X123514556Y-71565956D01*
X123600766Y-71541554D01*
X123680892Y-71501662D01*
X123747977Y-71449887D01*
X123758173Y-71439539D01*
X123791302Y-71396035D01*
X123821194Y-71342118D01*
X123844357Y-71285592D01*
X123857298Y-71234259D01*
X123858858Y-71214544D01*
X123852218Y-71173419D01*
X123834568Y-71122252D01*
X123809297Y-71068394D01*
X123779789Y-71019195D01*
X123753719Y-70986334D01*
X123692765Y-70937452D01*
X123613969Y-70898545D01*
X123520157Y-70870494D01*
X123414150Y-70854179D01*
X123317000Y-70850192D01*
X123235081Y-70854599D01*
G37*
X123235081Y-70854599D02*
X123166565Y-70866095D01*
X123113943Y-70883967D01*
X123079708Y-70907499D01*
X123070379Y-70920924D01*
X123060893Y-70952148D01*
X123067277Y-70980395D01*
X123087430Y-71007182D01*
X123118745Y-71019713D01*
X123164183Y-71018696D01*
X123199326Y-71011906D01*
X123277419Y-70998971D01*
X123357226Y-70997742D01*
X123446555Y-71008241D01*
X123471229Y-71012690D01*
X123554291Y-71036108D01*
X123619273Y-71070945D01*
X123665461Y-71116604D01*
X123692145Y-71172494D01*
X123697663Y-71201388D01*
X123694051Y-71260012D01*
X123670729Y-71311879D01*
X123629824Y-71355978D01*
X123573459Y-71391299D01*
X123503760Y-71416829D01*
X123422852Y-71431559D01*
X123332860Y-71434478D01*
X123235910Y-71424575D01*
X123230436Y-71423641D01*
X123191875Y-71416459D01*
X123170494Y-71409521D01*
X123161227Y-71399227D01*
X123159006Y-71381976D01*
X123158956Y-71372841D01*
X123158956Y-71334489D01*
X123227431Y-71334489D01*
X123287900Y-71330347D01*
X123329165Y-71317147D01*
X123353175Y-71293730D01*
X123361877Y-71258936D01*
X123361983Y-71254394D01*
X123356892Y-71224654D01*
X123339433Y-71203419D01*
X123306939Y-71189366D01*
X123256743Y-71181173D01*
X123208123Y-71178161D01*
X123137456Y-71176433D01*
X123086198Y-71179070D01*
X123051239Y-71188800D01*
X123029470Y-71208353D01*
X123017780Y-71240456D01*
X123013060Y-71287838D01*
X123012200Y-71350071D01*
X123013609Y-71419535D01*
X123017848Y-71466786D01*
X123024936Y-71492012D01*
X123026311Y-71493988D01*
X123065228Y-71525508D01*
X123122286Y-71550470D01*
X123193869Y-71568340D01*
X123276358Y-71578586D01*
X123366139Y-71580673D01*
X123459592Y-71574068D01*
X123514556Y-71565956D01*
X123600766Y-71541554D01*
X123680892Y-71501662D01*
X123747977Y-71449887D01*
X123758173Y-71439539D01*
X123791302Y-71396035D01*
X123821194Y-71342118D01*
X123844357Y-71285592D01*
X123857298Y-71234259D01*
X123858858Y-71214544D01*
X123852218Y-71173419D01*
X123834568Y-71122252D01*
X123809297Y-71068394D01*
X123779789Y-71019195D01*
X123753719Y-70986334D01*
X123692765Y-70937452D01*
X123613969Y-70898545D01*
X123520157Y-70870494D01*
X123414150Y-70854179D01*
X123317000Y-70850192D01*
X123235081Y-70854599D01*
G36*
X122585114Y-70853448D02*
G01*
X122561548Y-70867273D01*
X122530735Y-70889881D01*
X122491078Y-70922338D01*
X122440980Y-70965708D01*
X122378843Y-71021058D01*
X122303072Y-71089451D01*
X122216334Y-71168084D01*
X122035711Y-71331878D01*
X122030067Y-71112029D01*
X122028029Y-71036351D01*
X122026063Y-70979994D01*
X122023734Y-70939706D01*
X122020606Y-70912235D01*
X122016245Y-70894329D01*
X122010216Y-70882737D01*
X122002084Y-70874208D01*
X121997772Y-70870623D01*
X121963241Y-70851670D01*
X121930383Y-70854441D01*
X121904318Y-70870633D01*
X121877667Y-70892199D01*
X121874352Y-71207151D01*
X121873435Y-71299779D01*
X121872968Y-71372544D01*
X121873113Y-71428161D01*
X121874032Y-71469342D01*
X121875887Y-71498803D01*
X121878839Y-71519255D01*
X121883050Y-71533413D01*
X121888682Y-71543991D01*
X121894927Y-71552474D01*
X121908439Y-71568207D01*
X121921883Y-71578636D01*
X121937124Y-71582639D01*
X121956026Y-71579094D01*
X121980455Y-71566879D01*
X122012273Y-71544871D01*
X122053348Y-71511949D01*
X122105542Y-71466991D01*
X122170722Y-71408875D01*
X122244556Y-71342099D01*
X122509845Y-71101458D01*
X122515489Y-71320589D01*
X122517531Y-71396128D01*
X122519502Y-71452354D01*
X122521839Y-71492524D01*
X122524981Y-71519896D01*
X122529364Y-71537728D01*
X122535424Y-71549279D01*
X122543600Y-71557807D01*
X122547784Y-71561282D01*
X122584765Y-71580372D01*
X122619708Y-71577493D01*
X122650136Y-71553100D01*
X122657097Y-71543286D01*
X122662523Y-71531826D01*
X122666603Y-71515968D01*
X122669529Y-71492963D01*
X122671492Y-71460062D01*
X122672683Y-71414516D01*
X122673292Y-71353573D01*
X122673511Y-71274486D01*
X122673534Y-71215956D01*
X122673460Y-71124407D01*
X122673113Y-71052687D01*
X122672301Y-70998045D01*
X122670833Y-70957732D01*
X122668519Y-70928998D01*
X122665167Y-70909093D01*
X122660588Y-70895268D01*
X122654589Y-70884772D01*
X122650136Y-70878811D01*
X122638850Y-70864691D01*
X122628301Y-70854029D01*
X122616893Y-70847892D01*
X122603030Y-70847343D01*
X122585114Y-70853448D01*
G37*
X122585114Y-70853448D02*
X122561548Y-70867273D01*
X122530735Y-70889881D01*
X122491078Y-70922338D01*
X122440980Y-70965708D01*
X122378843Y-71021058D01*
X122303072Y-71089451D01*
X122216334Y-71168084D01*
X122035711Y-71331878D01*
X122030067Y-71112029D01*
X122028029Y-71036351D01*
X122026063Y-70979994D01*
X122023734Y-70939706D01*
X122020606Y-70912235D01*
X122016245Y-70894329D01*
X122010216Y-70882737D01*
X122002084Y-70874208D01*
X121997772Y-70870623D01*
X121963241Y-70851670D01*
X121930383Y-70854441D01*
X121904318Y-70870633D01*
X121877667Y-70892199D01*
X121874352Y-71207151D01*
X121873435Y-71299779D01*
X121872968Y-71372544D01*
X121873113Y-71428161D01*
X121874032Y-71469342D01*
X121875887Y-71498803D01*
X121878839Y-71519255D01*
X121883050Y-71533413D01*
X121888682Y-71543991D01*
X121894927Y-71552474D01*
X121908439Y-71568207D01*
X121921883Y-71578636D01*
X121937124Y-71582639D01*
X121956026Y-71579094D01*
X121980455Y-71566879D01*
X122012273Y-71544871D01*
X122053348Y-71511949D01*
X122105542Y-71466991D01*
X122170722Y-71408875D01*
X122244556Y-71342099D01*
X122509845Y-71101458D01*
X122515489Y-71320589D01*
X122517531Y-71396128D01*
X122519502Y-71452354D01*
X122521839Y-71492524D01*
X122524981Y-71519896D01*
X122529364Y-71537728D01*
X122535424Y-71549279D01*
X122543600Y-71557807D01*
X122547784Y-71561282D01*
X122584765Y-71580372D01*
X122619708Y-71577493D01*
X122650136Y-71553100D01*
X122657097Y-71543286D01*
X122662523Y-71531826D01*
X122666603Y-71515968D01*
X122669529Y-71492963D01*
X122671492Y-71460062D01*
X122672683Y-71414516D01*
X122673292Y-71353573D01*
X122673511Y-71274486D01*
X122673534Y-71215956D01*
X122673460Y-71124407D01*
X122673113Y-71052687D01*
X122672301Y-70998045D01*
X122670833Y-70957732D01*
X122668519Y-70928998D01*
X122665167Y-70909093D01*
X122660588Y-70895268D01*
X122654589Y-70884772D01*
X122650136Y-70878811D01*
X122638850Y-70864691D01*
X122628301Y-70854029D01*
X122616893Y-70847892D01*
X122603030Y-70847343D01*
X122585114Y-70853448D01*
G36*
X121054657Y-70849260D02*
G01*
X120978299Y-70850174D01*
X120919783Y-70852311D01*
X120876745Y-70856175D01*
X120846817Y-70862267D01*
X120827632Y-70871090D01*
X120816824Y-70883146D01*
X120812027Y-70898939D01*
X120810873Y-70918970D01*
X120810867Y-70921335D01*
X120811869Y-70943992D01*
X120816604Y-70961503D01*
X120827667Y-70974574D01*
X120847652Y-70983913D01*
X120879154Y-70990227D01*
X120924768Y-70994222D01*
X120987087Y-70996606D01*
X121068707Y-70998086D01*
X121093723Y-70998414D01*
X121335800Y-71001467D01*
X121339186Y-71066378D01*
X121342571Y-71131289D01*
X121174424Y-71131289D01*
X121108734Y-71131531D01*
X121061828Y-71132556D01*
X121029917Y-71134811D01*
X121009209Y-71138742D01*
X120995916Y-71144798D01*
X120986245Y-71153424D01*
X120986183Y-71153493D01*
X120968644Y-71187112D01*
X120969278Y-71223448D01*
X120987686Y-71254423D01*
X120991329Y-71257607D01*
X121004259Y-71265812D01*
X121021976Y-71271521D01*
X121048430Y-71275162D01*
X121087568Y-71277167D01*
X121143338Y-71277964D01*
X121179006Y-71278045D01*
X121341445Y-71278045D01*
X121341445Y-71436089D01*
X121094839Y-71436089D01*
X121013420Y-71436231D01*
X120951590Y-71436814D01*
X120906363Y-71438068D01*
X120874752Y-71440227D01*
X120853769Y-71443523D01*
X120840427Y-71448189D01*
X120831739Y-71454457D01*
X120829550Y-71456733D01*
X120813386Y-71488280D01*
X120812203Y-71524168D01*
X120825464Y-71555285D01*
X120835957Y-71565271D01*
X120846871Y-71570769D01*
X120863783Y-71575022D01*
X120889367Y-71578180D01*
X120926299Y-71580392D01*
X120977254Y-71581806D01*
X121044906Y-71582572D01*
X121131931Y-71582838D01*
X121151606Y-71582845D01*
X121240089Y-71582787D01*
X121308773Y-71582467D01*
X121360436Y-71581667D01*
X121397855Y-71580167D01*
X121423810Y-71577749D01*
X121441078Y-71574194D01*
X121452438Y-71569282D01*
X121460668Y-71562795D01*
X121465183Y-71558138D01*
X121471979Y-71549889D01*
X121477288Y-71539669D01*
X121481294Y-71524800D01*
X121484179Y-71502602D01*
X121486126Y-71470393D01*
X121487319Y-71425496D01*
X121487939Y-71365228D01*
X121488171Y-71286911D01*
X121488200Y-71220994D01*
X121488129Y-71128628D01*
X121487792Y-71056117D01*
X121487002Y-71000737D01*
X121485574Y-70959765D01*
X121483321Y-70930478D01*
X121480057Y-70910153D01*
X121475596Y-70896066D01*
X121469752Y-70885495D01*
X121464803Y-70878811D01*
X121441406Y-70849067D01*
X121151226Y-70849067D01*
X121054657Y-70849260D01*
G37*
X121054657Y-70849260D02*
X120978299Y-70850174D01*
X120919783Y-70852311D01*
X120876745Y-70856175D01*
X120846817Y-70862267D01*
X120827632Y-70871090D01*
X120816824Y-70883146D01*
X120812027Y-70898939D01*
X120810873Y-70918970D01*
X120810867Y-70921335D01*
X120811869Y-70943992D01*
X120816604Y-70961503D01*
X120827667Y-70974574D01*
X120847652Y-70983913D01*
X120879154Y-70990227D01*
X120924768Y-70994222D01*
X120987087Y-70996606D01*
X121068707Y-70998086D01*
X121093723Y-70998414D01*
X121335800Y-71001467D01*
X121339186Y-71066378D01*
X121342571Y-71131289D01*
X121174424Y-71131289D01*
X121108734Y-71131531D01*
X121061828Y-71132556D01*
X121029917Y-71134811D01*
X121009209Y-71138742D01*
X120995916Y-71144798D01*
X120986245Y-71153424D01*
X120986183Y-71153493D01*
X120968644Y-71187112D01*
X120969278Y-71223448D01*
X120987686Y-71254423D01*
X120991329Y-71257607D01*
X121004259Y-71265812D01*
X121021976Y-71271521D01*
X121048430Y-71275162D01*
X121087568Y-71277167D01*
X121143338Y-71277964D01*
X121179006Y-71278045D01*
X121341445Y-71278045D01*
X121341445Y-71436089D01*
X121094839Y-71436089D01*
X121013420Y-71436231D01*
X120951590Y-71436814D01*
X120906363Y-71438068D01*
X120874752Y-71440227D01*
X120853769Y-71443523D01*
X120840427Y-71448189D01*
X120831739Y-71454457D01*
X120829550Y-71456733D01*
X120813386Y-71488280D01*
X120812203Y-71524168D01*
X120825464Y-71555285D01*
X120835957Y-71565271D01*
X120846871Y-71570769D01*
X120863783Y-71575022D01*
X120889367Y-71578180D01*
X120926299Y-71580392D01*
X120977254Y-71581806D01*
X121044906Y-71582572D01*
X121131931Y-71582838D01*
X121151606Y-71582845D01*
X121240089Y-71582787D01*
X121308773Y-71582467D01*
X121360436Y-71581667D01*
X121397855Y-71580167D01*
X121423810Y-71577749D01*
X121441078Y-71574194D01*
X121452438Y-71569282D01*
X121460668Y-71562795D01*
X121465183Y-71558138D01*
X121471979Y-71549889D01*
X121477288Y-71539669D01*
X121481294Y-71524800D01*
X121484179Y-71502602D01*
X121486126Y-71470393D01*
X121487319Y-71425496D01*
X121487939Y-71365228D01*
X121488171Y-71286911D01*
X121488200Y-71220994D01*
X121488129Y-71128628D01*
X121487792Y-71056117D01*
X121487002Y-71000737D01*
X121485574Y-70959765D01*
X121483321Y-70930478D01*
X121480057Y-70910153D01*
X121475596Y-70896066D01*
X121469752Y-70885495D01*
X121464803Y-70878811D01*
X121441406Y-70849067D01*
X121151226Y-70849067D01*
X121054657Y-70849260D01*
G36*
X120266691Y-70849275D02*
G01*
X120137712Y-70853636D01*
X120028009Y-70866861D01*
X119935774Y-70889741D01*
X119859198Y-70923070D01*
X119796473Y-70967638D01*
X119745788Y-71024236D01*
X119705337Y-71093658D01*
X119704541Y-71095351D01*
X119680399Y-71157483D01*
X119671797Y-71212509D01*
X119678769Y-71267887D01*
X119701346Y-71331073D01*
X119705628Y-71340689D01*
X119734828Y-71396966D01*
X119767644Y-71440451D01*
X119809998Y-71477417D01*
X119867810Y-71514135D01*
X119871169Y-71516052D01*
X119921496Y-71540227D01*
X119978379Y-71558282D01*
X120045473Y-71570839D01*
X120126435Y-71578522D01*
X120224918Y-71581953D01*
X120259714Y-71582251D01*
X120425406Y-71582845D01*
X120448803Y-71553100D01*
X120455743Y-71543319D01*
X120461158Y-71531897D01*
X120465235Y-71516095D01*
X120468163Y-71493175D01*
X120470133Y-71460396D01*
X120470775Y-71436089D01*
X120314156Y-71436089D01*
X120220274Y-71436089D01*
X120165336Y-71434483D01*
X120108940Y-71430255D01*
X120062655Y-71424292D01*
X120059861Y-71423790D01*
X119977652Y-71401736D01*
X119913886Y-71368600D01*
X119866548Y-71322847D01*
X119833618Y-71262939D01*
X119827892Y-71247061D01*
X119822279Y-71222333D01*
X119824709Y-71197902D01*
X119836533Y-71165400D01*
X119843660Y-71149434D01*
X119867000Y-71107006D01*
X119895120Y-71077240D01*
X119926060Y-71056511D01*
X119988034Y-71029537D01*
X120067349Y-71009998D01*
X120159747Y-70998746D01*
X120226667Y-70996270D01*
X120314156Y-70995822D01*
X120314156Y-71436089D01*
X120470775Y-71436089D01*
X120471332Y-71415021D01*
X120471950Y-71354311D01*
X120472175Y-71275526D01*
X120472200Y-71213920D01*
X120472200Y-70904485D01*
X120444491Y-70876776D01*
X120432194Y-70865544D01*
X120418897Y-70857853D01*
X120400328Y-70853040D01*
X120372214Y-70850446D01*
X120330283Y-70849410D01*
X120270263Y-70849270D01*
X120266691Y-70849275D01*
G37*
X120266691Y-70849275D02*
X120137712Y-70853636D01*
X120028009Y-70866861D01*
X119935774Y-70889741D01*
X119859198Y-70923070D01*
X119796473Y-70967638D01*
X119745788Y-71024236D01*
X119705337Y-71093658D01*
X119704541Y-71095351D01*
X119680399Y-71157483D01*
X119671797Y-71212509D01*
X119678769Y-71267887D01*
X119701346Y-71331073D01*
X119705628Y-71340689D01*
X119734828Y-71396966D01*
X119767644Y-71440451D01*
X119809998Y-71477417D01*
X119867810Y-71514135D01*
X119871169Y-71516052D01*
X119921496Y-71540227D01*
X119978379Y-71558282D01*
X120045473Y-71570839D01*
X120126435Y-71578522D01*
X120224918Y-71581953D01*
X120259714Y-71582251D01*
X120425406Y-71582845D01*
X120448803Y-71553100D01*
X120455743Y-71543319D01*
X120461158Y-71531897D01*
X120465235Y-71516095D01*
X120468163Y-71493175D01*
X120470133Y-71460396D01*
X120470775Y-71436089D01*
X120314156Y-71436089D01*
X120220274Y-71436089D01*
X120165336Y-71434483D01*
X120108940Y-71430255D01*
X120062655Y-71424292D01*
X120059861Y-71423790D01*
X119977652Y-71401736D01*
X119913886Y-71368600D01*
X119866548Y-71322847D01*
X119833618Y-71262939D01*
X119827892Y-71247061D01*
X119822279Y-71222333D01*
X119824709Y-71197902D01*
X119836533Y-71165400D01*
X119843660Y-71149434D01*
X119867000Y-71107006D01*
X119895120Y-71077240D01*
X119926060Y-71056511D01*
X119988034Y-71029537D01*
X120067349Y-71009998D01*
X120159747Y-70998746D01*
X120226667Y-70996270D01*
X120314156Y-70995822D01*
X120314156Y-71436089D01*
X120470775Y-71436089D01*
X120471332Y-71415021D01*
X120471950Y-71354311D01*
X120472175Y-71275526D01*
X120472200Y-71213920D01*
X120472200Y-70904485D01*
X120444491Y-70876776D01*
X120432194Y-70865544D01*
X120418897Y-70857853D01*
X120400328Y-70853040D01*
X120372214Y-70850446D01*
X120330283Y-70849410D01*
X120270263Y-70849270D01*
X120266691Y-70849275D01*
G36*
X117540335Y-70851034D02*
G01*
X117520745Y-70858035D01*
X117519990Y-70858377D01*
X117493387Y-70878678D01*
X117478730Y-70899561D01*
X117475862Y-70909352D01*
X117476004Y-70922361D01*
X117480039Y-70940895D01*
X117488854Y-70967257D01*
X117503331Y-71003752D01*
X117524355Y-71052687D01*
X117552812Y-71116365D01*
X117589585Y-71197093D01*
X117609825Y-71241216D01*
X117646375Y-71319985D01*
X117680685Y-71392423D01*
X117711448Y-71455880D01*
X117737352Y-71507708D01*
X117757090Y-71545259D01*
X117769350Y-71565884D01*
X117771776Y-71568733D01*
X117802817Y-71581302D01*
X117837879Y-71579619D01*
X117866000Y-71564332D01*
X117867146Y-71563089D01*
X117878332Y-71546154D01*
X117897096Y-71513170D01*
X117921125Y-71468380D01*
X117948103Y-71416032D01*
X117957799Y-71396742D01*
X118030986Y-71250150D01*
X118110760Y-71409393D01*
X118139233Y-71464415D01*
X118165650Y-71512132D01*
X118187852Y-71548893D01*
X118203681Y-71571044D01*
X118209046Y-71575741D01*
X118250743Y-71582102D01*
X118285151Y-71568733D01*
X118295272Y-71554446D01*
X118312786Y-71522692D01*
X118336265Y-71476597D01*
X118364280Y-71419285D01*
X118395401Y-71353880D01*
X118428201Y-71283507D01*
X118461250Y-71211291D01*
X118493119Y-71140355D01*
X118522381Y-71073825D01*
X118547605Y-71014826D01*
X118567364Y-70966481D01*
X118580228Y-70931915D01*
X118584769Y-70914253D01*
X118584723Y-70913613D01*
X118573674Y-70891388D01*
X118551590Y-70868753D01*
X118550290Y-70867768D01*
X118523147Y-70852425D01*
X118498042Y-70852574D01*
X118488632Y-70855466D01*
X118477166Y-70861718D01*
X118464990Y-70874014D01*
X118450643Y-70894908D01*
X118432664Y-70926949D01*
X118409593Y-70972688D01*
X118379970Y-71034677D01*
X118353255Y-71091898D01*
X118322520Y-71158226D01*
X118294979Y-71217874D01*
X118272062Y-71267725D01*
X118255202Y-71304664D01*
X118245827Y-71325573D01*
X118244460Y-71328845D01*
X118238311Y-71323497D01*
X118224178Y-71301109D01*
X118203943Y-71264946D01*
X118179485Y-71218277D01*
X118169752Y-71199022D01*
X118136783Y-71134004D01*
X118111357Y-71086654D01*
X118091388Y-71054219D01*
X118074790Y-71033946D01*
X118059476Y-71023082D01*
X118043360Y-71018875D01*
X118032857Y-71018400D01*
X118014330Y-71020042D01*
X117998096Y-71026831D01*
X117981965Y-71041566D01*
X117963749Y-71067044D01*
X117941261Y-71106061D01*
X117912311Y-71161414D01*
X117896338Y-71192903D01*
X117870430Y-71243087D01*
X117847833Y-71284704D01*
X117830542Y-71314242D01*
X117820550Y-71328189D01*
X117819191Y-71328770D01*
X117812739Y-71317793D01*
X117798292Y-71289290D01*
X117777297Y-71246244D01*
X117751203Y-71191638D01*
X117721454Y-71128454D01*
X117706820Y-71097071D01*
X117668750Y-71016078D01*
X117638095Y-70953756D01*
X117613263Y-70908071D01*
X117592663Y-70876989D01*
X117574702Y-70858478D01*
X117557790Y-70850504D01*
X117540335Y-70851034D01*
G37*
X117540335Y-70851034D02*
X117520745Y-70858035D01*
X117519990Y-70858377D01*
X117493387Y-70878678D01*
X117478730Y-70899561D01*
X117475862Y-70909352D01*
X117476004Y-70922361D01*
X117480039Y-70940895D01*
X117488854Y-70967257D01*
X117503331Y-71003752D01*
X117524355Y-71052687D01*
X117552812Y-71116365D01*
X117589585Y-71197093D01*
X117609825Y-71241216D01*
X117646375Y-71319985D01*
X117680685Y-71392423D01*
X117711448Y-71455880D01*
X117737352Y-71507708D01*
X117757090Y-71545259D01*
X117769350Y-71565884D01*
X117771776Y-71568733D01*
X117802817Y-71581302D01*
X117837879Y-71579619D01*
X117866000Y-71564332D01*
X117867146Y-71563089D01*
X117878332Y-71546154D01*
X117897096Y-71513170D01*
X117921125Y-71468380D01*
X117948103Y-71416032D01*
X117957799Y-71396742D01*
X118030986Y-71250150D01*
X118110760Y-71409393D01*
X118139233Y-71464415D01*
X118165650Y-71512132D01*
X118187852Y-71548893D01*
X118203681Y-71571044D01*
X118209046Y-71575741D01*
X118250743Y-71582102D01*
X118285151Y-71568733D01*
X118295272Y-71554446D01*
X118312786Y-71522692D01*
X118336265Y-71476597D01*
X118364280Y-71419285D01*
X118395401Y-71353880D01*
X118428201Y-71283507D01*
X118461250Y-71211291D01*
X118493119Y-71140355D01*
X118522381Y-71073825D01*
X118547605Y-71014826D01*
X118567364Y-70966481D01*
X118580228Y-70931915D01*
X118584769Y-70914253D01*
X118584723Y-70913613D01*
X118573674Y-70891388D01*
X118551590Y-70868753D01*
X118550290Y-70867768D01*
X118523147Y-70852425D01*
X118498042Y-70852574D01*
X118488632Y-70855466D01*
X118477166Y-70861718D01*
X118464990Y-70874014D01*
X118450643Y-70894908D01*
X118432664Y-70926949D01*
X118409593Y-70972688D01*
X118379970Y-71034677D01*
X118353255Y-71091898D01*
X118322520Y-71158226D01*
X118294979Y-71217874D01*
X118272062Y-71267725D01*
X118255202Y-71304664D01*
X118245827Y-71325573D01*
X118244460Y-71328845D01*
X118238311Y-71323497D01*
X118224178Y-71301109D01*
X118203943Y-71264946D01*
X118179485Y-71218277D01*
X118169752Y-71199022D01*
X118136783Y-71134004D01*
X118111357Y-71086654D01*
X118091388Y-71054219D01*
X118074790Y-71033946D01*
X118059476Y-71023082D01*
X118043360Y-71018875D01*
X118032857Y-71018400D01*
X118014330Y-71020042D01*
X117998096Y-71026831D01*
X117981965Y-71041566D01*
X117963749Y-71067044D01*
X117941261Y-71106061D01*
X117912311Y-71161414D01*
X117896338Y-71192903D01*
X117870430Y-71243087D01*
X117847833Y-71284704D01*
X117830542Y-71314242D01*
X117820550Y-71328189D01*
X117819191Y-71328770D01*
X117812739Y-71317793D01*
X117798292Y-71289290D01*
X117777297Y-71246244D01*
X117751203Y-71191638D01*
X117721454Y-71128454D01*
X117706820Y-71097071D01*
X117668750Y-71016078D01*
X117638095Y-70953756D01*
X117613263Y-70908071D01*
X117592663Y-70876989D01*
X117574702Y-70858478D01*
X117557790Y-70850504D01*
X117540335Y-70851034D01*
G36*
X117096386Y-70855877D02*
G01*
X117072673Y-70870647D01*
X117046022Y-70892227D01*
X117046022Y-71213773D01*
X117046107Y-71307830D01*
X117046471Y-71381932D01*
X117047276Y-71438704D01*
X117048687Y-71480768D01*
X117050867Y-71510748D01*
X117053979Y-71531267D01*
X117058186Y-71544949D01*
X117063652Y-71554416D01*
X117067528Y-71559082D01*
X117098966Y-71579575D01*
X117134767Y-71578739D01*
X117166127Y-71561264D01*
X117192778Y-71539684D01*
X117192778Y-70892227D01*
X117166127Y-70870647D01*
X117140406Y-70854949D01*
X117119400Y-70849067D01*
X117096386Y-70855877D01*
G37*
X117096386Y-70855877D02*
X117072673Y-70870647D01*
X117046022Y-70892227D01*
X117046022Y-71213773D01*
X117046107Y-71307830D01*
X117046471Y-71381932D01*
X117047276Y-71438704D01*
X117048687Y-71480768D01*
X117050867Y-71510748D01*
X117053979Y-71531267D01*
X117058186Y-71544949D01*
X117063652Y-71554416D01*
X117067528Y-71559082D01*
X117098966Y-71579575D01*
X117134767Y-71578739D01*
X117166127Y-71561264D01*
X117192778Y-71539684D01*
X117192778Y-70892227D01*
X117166127Y-70870647D01*
X117140406Y-70854949D01*
X117119400Y-70849067D01*
X117096386Y-70855877D01*
G36*
X116321935Y-70849163D02*
G01*
X116243228Y-70849542D01*
X116182137Y-70850333D01*
X116136183Y-70851670D01*
X116102886Y-70853683D01*
X116079764Y-70856506D01*
X116064338Y-70860269D01*
X116054129Y-70865105D01*
X116049187Y-70868822D01*
X116023543Y-70901358D01*
X116020441Y-70935138D01*
X116036289Y-70965826D01*
X116046652Y-70978089D01*
X116057804Y-70986450D01*
X116073965Y-70991657D01*
X116099358Y-70994457D01*
X116138202Y-70995596D01*
X116194720Y-70995821D01*
X116205820Y-70995822D01*
X116351756Y-70995822D01*
X116351756Y-71266756D01*
X116351852Y-71352154D01*
X116352289Y-71417864D01*
X116353288Y-71466774D01*
X116355072Y-71501773D01*
X116357863Y-71525749D01*
X116361883Y-71541593D01*
X116367355Y-71552191D01*
X116374334Y-71560267D01*
X116407266Y-71580112D01*
X116441646Y-71578548D01*
X116472824Y-71555906D01*
X116475114Y-71553100D01*
X116482571Y-71542492D01*
X116488253Y-71530081D01*
X116492399Y-71512850D01*
X116495250Y-71487784D01*
X116497046Y-71451867D01*
X116498028Y-71402083D01*
X116498436Y-71335417D01*
X116498511Y-71259589D01*
X116498511Y-70995822D01*
X116637873Y-70995822D01*
X116697678Y-70995418D01*
X116739082Y-70993840D01*
X116766252Y-70990547D01*
X116783354Y-70984992D01*
X116794557Y-70976631D01*
X116795917Y-70975178D01*
X116812275Y-70941939D01*
X116810828Y-70904362D01*
X116792022Y-70871645D01*
X116784750Y-70865298D01*
X116775373Y-70860266D01*
X116761391Y-70856396D01*
X116740304Y-70853537D01*
X116709611Y-70851535D01*
X116666811Y-70850239D01*
X116609405Y-70849498D01*
X116534890Y-70849158D01*
X116440767Y-70849068D01*
X116420740Y-70849067D01*
X116321935Y-70849163D01*
G37*
X116321935Y-70849163D02*
X116243228Y-70849542D01*
X116182137Y-70850333D01*
X116136183Y-70851670D01*
X116102886Y-70853683D01*
X116079764Y-70856506D01*
X116064338Y-70860269D01*
X116054129Y-70865105D01*
X116049187Y-70868822D01*
X116023543Y-70901358D01*
X116020441Y-70935138D01*
X116036289Y-70965826D01*
X116046652Y-70978089D01*
X116057804Y-70986450D01*
X116073965Y-70991657D01*
X116099358Y-70994457D01*
X116138202Y-70995596D01*
X116194720Y-70995821D01*
X116205820Y-70995822D01*
X116351756Y-70995822D01*
X116351756Y-71266756D01*
X116351852Y-71352154D01*
X116352289Y-71417864D01*
X116353288Y-71466774D01*
X116355072Y-71501773D01*
X116357863Y-71525749D01*
X116361883Y-71541593D01*
X116367355Y-71552191D01*
X116374334Y-71560267D01*
X116407266Y-71580112D01*
X116441646Y-71578548D01*
X116472824Y-71555906D01*
X116475114Y-71553100D01*
X116482571Y-71542492D01*
X116488253Y-71530081D01*
X116492399Y-71512850D01*
X116495250Y-71487784D01*
X116497046Y-71451867D01*
X116498028Y-71402083D01*
X116498436Y-71335417D01*
X116498511Y-71259589D01*
X116498511Y-70995822D01*
X116637873Y-70995822D01*
X116697678Y-70995418D01*
X116739082Y-70993840D01*
X116766252Y-70990547D01*
X116783354Y-70984992D01*
X116794557Y-70976631D01*
X116795917Y-70975178D01*
X116812275Y-70941939D01*
X116810828Y-70904362D01*
X116792022Y-70871645D01*
X116784750Y-70865298D01*
X116775373Y-70860266D01*
X116761391Y-70856396D01*
X116740304Y-70853537D01*
X116709611Y-70851535D01*
X116666811Y-70850239D01*
X116609405Y-70849498D01*
X116534890Y-70849158D01*
X116440767Y-70849068D01*
X116420740Y-70849067D01*
X116321935Y-70849163D01*
G36*
X115056177Y-70854533D02*
G01*
X115024798Y-70876776D01*
X114997089Y-70904485D01*
X114997089Y-71213920D01*
X114997162Y-71305799D01*
X114997505Y-71377840D01*
X114998308Y-71432780D01*
X114999759Y-71473360D01*
X115002048Y-71502317D01*
X115005364Y-71522391D01*
X115009895Y-71536321D01*
X115015831Y-71546845D01*
X115020486Y-71553100D01*
X115051217Y-71577673D01*
X115086504Y-71580341D01*
X115118755Y-71565271D01*
X115129412Y-71556374D01*
X115136536Y-71544557D01*
X115140833Y-71525526D01*
X115143009Y-71494992D01*
X115143772Y-71448662D01*
X115143845Y-71412871D01*
X115143845Y-71278045D01*
X115640556Y-71278045D01*
X115640556Y-71400700D01*
X115641069Y-71456787D01*
X115643124Y-71495333D01*
X115647492Y-71521361D01*
X115654944Y-71539897D01*
X115663953Y-71553100D01*
X115694856Y-71577604D01*
X115729804Y-71580506D01*
X115763262Y-71563089D01*
X115772396Y-71553959D01*
X115778848Y-71541855D01*
X115783103Y-71523001D01*
X115785648Y-71493620D01*
X115786971Y-71449937D01*
X115787557Y-71388175D01*
X115787625Y-71374000D01*
X115788109Y-71257631D01*
X115788359Y-71161727D01*
X115788277Y-71084177D01*
X115787769Y-71022869D01*
X115786738Y-70975690D01*
X115785087Y-70940530D01*
X115782721Y-70915276D01*
X115779543Y-70897817D01*
X115775456Y-70886041D01*
X115770366Y-70877835D01*
X115764734Y-70871645D01*
X115732872Y-70851844D01*
X115699643Y-70854533D01*
X115668265Y-70876776D01*
X115655567Y-70891126D01*
X115647474Y-70906978D01*
X115642958Y-70929554D01*
X115640994Y-70964078D01*
X115640556Y-71015776D01*
X115640556Y-71131289D01*
X115143845Y-71131289D01*
X115143845Y-71012756D01*
X115143338Y-70958148D01*
X115141302Y-70921275D01*
X115136965Y-70897307D01*
X115129553Y-70881415D01*
X115121267Y-70871645D01*
X115089406Y-70851844D01*
X115056177Y-70854533D01*
G37*
X115056177Y-70854533D02*
X115024798Y-70876776D01*
X114997089Y-70904485D01*
X114997089Y-71213920D01*
X114997162Y-71305799D01*
X114997505Y-71377840D01*
X114998308Y-71432780D01*
X114999759Y-71473360D01*
X115002048Y-71502317D01*
X115005364Y-71522391D01*
X115009895Y-71536321D01*
X115015831Y-71546845D01*
X115020486Y-71553100D01*
X115051217Y-71577673D01*
X115086504Y-71580341D01*
X115118755Y-71565271D01*
X115129412Y-71556374D01*
X115136536Y-71544557D01*
X115140833Y-71525526D01*
X115143009Y-71494992D01*
X115143772Y-71448662D01*
X115143845Y-71412871D01*
X115143845Y-71278045D01*
X115640556Y-71278045D01*
X115640556Y-71400700D01*
X115641069Y-71456787D01*
X115643124Y-71495333D01*
X115647492Y-71521361D01*
X115654944Y-71539897D01*
X115663953Y-71553100D01*
X115694856Y-71577604D01*
X115729804Y-71580506D01*
X115763262Y-71563089D01*
X115772396Y-71553959D01*
X115778848Y-71541855D01*
X115783103Y-71523001D01*
X115785648Y-71493620D01*
X115786971Y-71449937D01*
X115787557Y-71388175D01*
X115787625Y-71374000D01*
X115788109Y-71257631D01*
X115788359Y-71161727D01*
X115788277Y-71084177D01*
X115787769Y-71022869D01*
X115786738Y-70975690D01*
X115785087Y-70940530D01*
X115782721Y-70915276D01*
X115779543Y-70897817D01*
X115775456Y-70886041D01*
X115770366Y-70877835D01*
X115764734Y-70871645D01*
X115732872Y-70851844D01*
X115699643Y-70854533D01*
X115668265Y-70876776D01*
X115655567Y-70891126D01*
X115647474Y-70906978D01*
X115642958Y-70929554D01*
X115640994Y-70964078D01*
X115640556Y-71015776D01*
X115640556Y-71131289D01*
X115143845Y-71131289D01*
X115143845Y-71012756D01*
X115143338Y-70958148D01*
X115141302Y-70921275D01*
X115136965Y-70897307D01*
X115129553Y-70881415D01*
X115121267Y-70871645D01*
X115089406Y-70851844D01*
X115056177Y-70854533D01*
%TD*%
M02*
