%TF.GenerationSoftware,KiCad,Pcbnew,(5.1.9)-1*%
%TF.CreationDate,2021-05-31T10:41:26+02:00*%
%TF.ProjectId,02_Batt_Alim,30325f42-6174-4745-9f41-6c696d2e6b69,rev?*%
%TF.SameCoordinates,Original*%
%TF.FileFunction,Other,Fab,Top*%
%FSLAX46Y46*%
G04 Gerber Fmt 4.6, Leading zero omitted, Abs format (unit mm)*
G04 Created by KiCad (PCBNEW (5.1.9)-1) date 2021-05-31 10:41:26*
%MOMM*%
%LPD*%
G01*
G04 APERTURE LIST*
%TA.AperFunction,Profile*%
%ADD10C,0.050000*%
%TD*%
%ADD11C,0.100000*%
%ADD12C,0.120000*%
%ADD13C,0.150000*%
%ADD14C,0.075000*%
%ADD15C,0.060000*%
%ADD16C,0.015000*%
G04 APERTURE END LIST*
D10*
X130810000Y-82550000D02*
X129540000Y-82550000D01*
X130810000Y-85090000D02*
X130810000Y-82550000D01*
X129540000Y-85090000D02*
X130810000Y-85090000D01*
X129540000Y-87630000D02*
X129540000Y-85090000D01*
X100330000Y-85090000D02*
X101600000Y-85090000D01*
X100330000Y-80010000D02*
X100330000Y-85090000D01*
X101600000Y-80010000D02*
X100330000Y-80010000D01*
X101600000Y-77470000D02*
X101600000Y-80010000D01*
X100330000Y-77470000D02*
X101600000Y-77470000D01*
X100330000Y-72390000D02*
X100330000Y-77470000D01*
X101600000Y-72390000D02*
X100330000Y-72390000D01*
X101600000Y-69850000D02*
X101600000Y-72390000D01*
X100340000Y-69850000D02*
X101600000Y-69850000D01*
X129540000Y-62230000D02*
X129540000Y-82550000D01*
X101600000Y-62230000D02*
X129540000Y-62230000D01*
X101600000Y-85090000D02*
X101600000Y-87630000D01*
X101600000Y-62230000D02*
X101600000Y-64770000D01*
X101600000Y-64770000D02*
X100330000Y-64770000D01*
X129540000Y-87630000D02*
X101600000Y-87630000D01*
X100340000Y-69850000D02*
X100330000Y-64770000D01*
D11*
%TO.C,U1*%
X113490000Y-84940000D02*
X115940000Y-84940000D01*
X112920000Y-84390000D02*
X112920000Y-83540000D01*
X113490000Y-84940000D02*
X112920000Y-84390000D01*
X112920000Y-83540000D02*
X115960000Y-83540000D01*
X115960000Y-84940000D02*
X115960000Y-83540000D01*
%TO.C,C1*%
X119840000Y-68890000D02*
X119840000Y-68090000D01*
X119840000Y-68090000D02*
X121440000Y-68090000D01*
X121440000Y-68090000D02*
X121440000Y-68890000D01*
X121440000Y-68890000D02*
X119840000Y-68890000D01*
%TO.C,C2*%
X107840000Y-67640000D02*
X107840000Y-66840000D01*
X107840000Y-66840000D02*
X109440000Y-66840000D01*
X109440000Y-66840000D02*
X109440000Y-67640000D01*
X109440000Y-67640000D02*
X107840000Y-67640000D01*
%TO.C,C3*%
X109690000Y-82140000D02*
X112190000Y-82140000D01*
X112190000Y-82140000D02*
X112190000Y-85340000D01*
X112190000Y-85340000D02*
X109690000Y-85340000D01*
X109690000Y-85340000D02*
X109690000Y-82140000D01*
%TO.C,C4*%
X128290000Y-81340000D02*
X125790000Y-81340000D01*
X125790000Y-81340000D02*
X125790000Y-78140000D01*
X125790000Y-78140000D02*
X128290000Y-78140000D01*
X128290000Y-78140000D02*
X128290000Y-81340000D01*
%TO.C,D2*%
X124475000Y-64740000D02*
X124475000Y-66040000D01*
X124475000Y-66040000D02*
X124775000Y-66340000D01*
X124775000Y-66340000D02*
X125275000Y-66340000D01*
X125275000Y-66340000D02*
X125275000Y-64740000D01*
X125275000Y-64740000D02*
X124475000Y-64740000D01*
%TO.C,D3*%
X122630000Y-64740000D02*
X122630000Y-66040000D01*
X122630000Y-66040000D02*
X122930000Y-66340000D01*
X122930000Y-66340000D02*
X123430000Y-66340000D01*
X123430000Y-66340000D02*
X123430000Y-64740000D01*
X123430000Y-64740000D02*
X122630000Y-64740000D01*
%TO.C,D6*%
X115540000Y-78440000D02*
X116840000Y-78440000D01*
X116840000Y-78440000D02*
X117140000Y-78140000D01*
X117140000Y-78140000D02*
X117140000Y-77640000D01*
X117140000Y-77640000D02*
X115540000Y-77640000D01*
X115540000Y-77640000D02*
X115540000Y-78440000D01*
D12*
%TO.C,J1*%
X101600000Y-67945000D02*
X101600000Y-64135000D01*
D11*
X104775000Y-67310000D02*
X101600000Y-67310000D01*
X101600000Y-64770000D02*
X102870000Y-64770000D01*
X102870000Y-64770000D02*
X105410000Y-64770000D01*
X105410000Y-64770000D02*
X105410000Y-66675000D01*
X105410000Y-66675000D02*
X104775000Y-67310000D01*
D12*
%TO.C,J2*%
X101600000Y-70485000D02*
X101600000Y-66675000D01*
D11*
X104775000Y-69850000D02*
X101600000Y-69850000D01*
X101600000Y-67310000D02*
X102870000Y-67310000D01*
X102870000Y-67310000D02*
X105410000Y-67310000D01*
X105410000Y-67310000D02*
X105410000Y-69215000D01*
X105410000Y-69215000D02*
X104775000Y-69850000D01*
D12*
%TO.C,J3*%
X101600000Y-83185000D02*
X101600000Y-79375000D01*
D11*
X104775000Y-82550000D02*
X101600000Y-82550000D01*
X101600000Y-80010000D02*
X102870000Y-80010000D01*
X102870000Y-80010000D02*
X105410000Y-80010000D01*
X105410000Y-80010000D02*
X105410000Y-81915000D01*
X105410000Y-81915000D02*
X104775000Y-82550000D01*
D12*
%TO.C,J9*%
X101600000Y-75565000D02*
X101600000Y-71755000D01*
D11*
X104775000Y-74930000D02*
X101600000Y-74930000D01*
X101600000Y-72390000D02*
X102870000Y-72390000D01*
X102870000Y-72390000D02*
X105410000Y-72390000D01*
X105410000Y-72390000D02*
X105410000Y-74295000D01*
X105410000Y-74295000D02*
X104775000Y-74930000D01*
%TO.C,R6*%
X124462500Y-68240000D02*
X125287500Y-68240000D01*
X125287500Y-68240000D02*
X125287500Y-69840000D01*
X125287500Y-69840000D02*
X124462500Y-69840000D01*
X124462500Y-69840000D02*
X124462500Y-68240000D01*
%TO.C,R7*%
X119840000Y-71532500D02*
X119840000Y-70707500D01*
X119840000Y-70707500D02*
X121440000Y-70707500D01*
X121440000Y-70707500D02*
X121440000Y-71532500D01*
X121440000Y-71532500D02*
X119840000Y-71532500D01*
%TO.C,R8*%
X122617500Y-68190000D02*
X123442500Y-68190000D01*
X123442500Y-68190000D02*
X123442500Y-69790000D01*
X123442500Y-69790000D02*
X122617500Y-69790000D01*
X122617500Y-69790000D02*
X122617500Y-68190000D01*
%TO.C,R9*%
X119052500Y-66290000D02*
X118227500Y-66290000D01*
X118227500Y-66290000D02*
X118227500Y-64690000D01*
X118227500Y-64690000D02*
X119052500Y-64690000D01*
X119052500Y-64690000D02*
X119052500Y-66290000D01*
%TO.C,R10*%
X117052500Y-66290000D02*
X116227500Y-66290000D01*
X116227500Y-66290000D02*
X116227500Y-64690000D01*
X116227500Y-64690000D02*
X117052500Y-64690000D01*
X117052500Y-64690000D02*
X117052500Y-66290000D01*
%TO.C,R12*%
X115052500Y-66290000D02*
X114227500Y-66290000D01*
X114227500Y-66290000D02*
X114227500Y-64690000D01*
X114227500Y-64690000D02*
X115052500Y-64690000D01*
X115052500Y-64690000D02*
X115052500Y-66290000D01*
%TO.C,R14*%
X113052500Y-66290000D02*
X112227500Y-66290000D01*
X112227500Y-66290000D02*
X112227500Y-64690000D01*
X112227500Y-64690000D02*
X113052500Y-64690000D01*
X113052500Y-64690000D02*
X113052500Y-66290000D01*
%TO.C,R15*%
X118840000Y-78452500D02*
X118840000Y-77627500D01*
X118840000Y-77627500D02*
X120440000Y-77627500D01*
X120440000Y-77627500D02*
X120440000Y-78452500D01*
X120440000Y-78452500D02*
X118840000Y-78452500D01*
%TO.C,D4*%
X111390000Y-76240000D02*
X111890000Y-76240000D01*
X111390000Y-76640000D02*
X110790000Y-76240000D01*
X111390000Y-75840000D02*
X111390000Y-76640000D01*
X110790000Y-76240000D02*
X111390000Y-75840000D01*
X110790000Y-76240000D02*
X110790000Y-76790000D01*
X110790000Y-76240000D02*
X110790000Y-75690000D01*
X110390000Y-76240000D02*
X110790000Y-76240000D01*
X109740000Y-77140000D02*
X109740000Y-75340000D01*
X112540000Y-77140000D02*
X109740000Y-77140000D01*
X112540000Y-75340000D02*
X112540000Y-77140000D01*
X109740000Y-75340000D02*
X112540000Y-75340000D01*
%TO.C,D5*%
X114790000Y-80140000D02*
X115290000Y-80140000D01*
X114790000Y-80540000D02*
X114190000Y-80140000D01*
X114790000Y-79740000D02*
X114790000Y-80540000D01*
X114190000Y-80140000D02*
X114790000Y-79740000D01*
X114190000Y-80140000D02*
X114190000Y-80690000D01*
X114190000Y-80140000D02*
X114190000Y-79590000D01*
X113790000Y-80140000D02*
X114190000Y-80140000D01*
X113140000Y-81040000D02*
X113140000Y-79240000D01*
X115940000Y-81040000D02*
X113140000Y-81040000D01*
X115940000Y-79240000D02*
X115940000Y-81040000D01*
X113140000Y-79240000D02*
X115940000Y-79240000D01*
%TO.C,D7*%
X108390000Y-64240000D02*
X107890000Y-64240000D01*
X108390000Y-63840000D02*
X108990000Y-64240000D01*
X108390000Y-64640000D02*
X108390000Y-63840000D01*
X108990000Y-64240000D02*
X108390000Y-64640000D01*
X108990000Y-64240000D02*
X108990000Y-63690000D01*
X108990000Y-64240000D02*
X108990000Y-64790000D01*
X109390000Y-64240000D02*
X108990000Y-64240000D01*
X110040000Y-63340000D02*
X110040000Y-65140000D01*
X107240000Y-63340000D02*
X110040000Y-63340000D01*
X107240000Y-65140000D02*
X107240000Y-63340000D01*
X110040000Y-65140000D02*
X107240000Y-65140000D01*
%TO.C,D8*%
X107240000Y-74690000D02*
X107240000Y-74190000D01*
X107640000Y-74690000D02*
X107240000Y-75290000D01*
X106840000Y-74690000D02*
X107640000Y-74690000D01*
X107240000Y-75290000D02*
X106840000Y-74690000D01*
X107240000Y-75290000D02*
X107790000Y-75290000D01*
X107240000Y-75290000D02*
X106690000Y-75290000D01*
X107240000Y-75690000D02*
X107240000Y-75290000D01*
X108140000Y-76340000D02*
X106340000Y-76340000D01*
X108140000Y-73540000D02*
X108140000Y-76340000D01*
X106340000Y-73540000D02*
X108140000Y-73540000D01*
X106340000Y-76340000D02*
X106340000Y-73540000D01*
D12*
%TO.C,J4*%
X101600000Y-78105000D02*
X101600000Y-74295000D01*
D11*
X104775000Y-77470000D02*
X101600000Y-77470000D01*
X101600000Y-74930000D02*
X102870000Y-74930000D01*
X102870000Y-74930000D02*
X105410000Y-74930000D01*
X105410000Y-74930000D02*
X105410000Y-76835000D01*
X105410000Y-76835000D02*
X104775000Y-77470000D01*
D12*
%TO.C,J5*%
X129540000Y-81915000D02*
X129540000Y-85725000D01*
D11*
X126365000Y-82550000D02*
X129540000Y-82550000D01*
X129540000Y-85090000D02*
X128270000Y-85090000D01*
X128270000Y-85090000D02*
X125730000Y-85090000D01*
X125730000Y-85090000D02*
X125730000Y-83185000D01*
X125730000Y-83185000D02*
X126365000Y-82550000D01*
D12*
%TO.C,J6*%
X101600000Y-85725000D02*
X101600000Y-81915000D01*
D11*
X104775000Y-85090000D02*
X101600000Y-85090000D01*
X101600000Y-82550000D02*
X102870000Y-82550000D01*
X102870000Y-82550000D02*
X105410000Y-82550000D01*
X105410000Y-82550000D02*
X105410000Y-84455000D01*
X105410000Y-84455000D02*
X104775000Y-85090000D01*
%TO.C,C5*%
X106390000Y-82140000D02*
X108890000Y-82140000D01*
X108890000Y-82140000D02*
X108890000Y-85340000D01*
X108890000Y-85340000D02*
X106390000Y-85340000D01*
X106390000Y-85340000D02*
X106390000Y-82140000D01*
%TO.C,D1*%
X109590000Y-80140000D02*
X110090000Y-80140000D01*
X109590000Y-80540000D02*
X108990000Y-80140000D01*
X109590000Y-79740000D02*
X109590000Y-80540000D01*
X108990000Y-80140000D02*
X109590000Y-79740000D01*
X108990000Y-80140000D02*
X108990000Y-80690000D01*
X108990000Y-80140000D02*
X108990000Y-79590000D01*
X108590000Y-80140000D02*
X108990000Y-80140000D01*
X107940000Y-81040000D02*
X107940000Y-79240000D01*
X110740000Y-81040000D02*
X107940000Y-81040000D01*
X110740000Y-79240000D02*
X110740000Y-81040000D01*
X107940000Y-79240000D02*
X110740000Y-79240000D01*
%TO.C,L1*%
X117240000Y-86640000D02*
X117240000Y-80040000D01*
X124240000Y-86640000D02*
X117240000Y-86640000D01*
X124240000Y-80040000D02*
X124240000Y-86640000D01*
X117240000Y-80040000D02*
X124240000Y-80040000D01*
%TD*%
%TO.C,U1*%
D13*
X117392380Y-89359047D02*
X116392380Y-89359047D01*
X117106666Y-89025714D01*
X116392380Y-88692380D01*
X117392380Y-88692380D01*
X116868571Y-88216190D02*
X116868571Y-87882857D01*
X117392380Y-87740000D02*
X117392380Y-88216190D01*
X116392380Y-88216190D01*
X116392380Y-87740000D01*
X116487619Y-87359047D02*
X116440000Y-87311428D01*
X116392380Y-87216190D01*
X116392380Y-86978095D01*
X116440000Y-86882857D01*
X116487619Y-86835238D01*
X116582857Y-86787619D01*
X116678095Y-86787619D01*
X116820952Y-86835238D01*
X117392380Y-87406666D01*
X117392380Y-86787619D01*
X117392380Y-85835238D02*
X117392380Y-86406666D01*
X117392380Y-86120952D02*
X116392380Y-86120952D01*
X116535238Y-86216190D01*
X116630476Y-86311428D01*
X116678095Y-86406666D01*
X116392380Y-85216190D02*
X116392380Y-85120952D01*
X116440000Y-85025714D01*
X116487619Y-84978095D01*
X116582857Y-84930476D01*
X116773333Y-84882857D01*
X117011428Y-84882857D01*
X117201904Y-84930476D01*
X117297142Y-84978095D01*
X117344761Y-85025714D01*
X117392380Y-85120952D01*
X117392380Y-85216190D01*
X117344761Y-85311428D01*
X117297142Y-85359047D01*
X117201904Y-85406666D01*
X117011428Y-85454285D01*
X116773333Y-85454285D01*
X116582857Y-85406666D01*
X116487619Y-85359047D01*
X116440000Y-85311428D01*
X116392380Y-85216190D01*
X116820952Y-84311428D02*
X116773333Y-84406666D01*
X116725714Y-84454285D01*
X116630476Y-84501904D01*
X116582857Y-84501904D01*
X116487619Y-84454285D01*
X116440000Y-84406666D01*
X116392380Y-84311428D01*
X116392380Y-84120952D01*
X116440000Y-84025714D01*
X116487619Y-83978095D01*
X116582857Y-83930476D01*
X116630476Y-83930476D01*
X116725714Y-83978095D01*
X116773333Y-84025714D01*
X116820952Y-84120952D01*
X116820952Y-84311428D01*
X116868571Y-84406666D01*
X116916190Y-84454285D01*
X117011428Y-84501904D01*
X117201904Y-84501904D01*
X117297142Y-84454285D01*
X117344761Y-84406666D01*
X117392380Y-84311428D01*
X117392380Y-84120952D01*
X117344761Y-84025714D01*
X117297142Y-83978095D01*
X117201904Y-83930476D01*
X117011428Y-83930476D01*
X116916190Y-83978095D01*
X116868571Y-84025714D01*
X116820952Y-84120952D01*
X117106666Y-83549523D02*
X117106666Y-83073333D01*
X117392380Y-83644761D02*
X116392380Y-83311428D01*
X117392380Y-82978095D01*
X116392380Y-82168571D02*
X116392380Y-82644761D01*
X116868571Y-82692380D01*
X116820952Y-82644761D01*
X116773333Y-82549523D01*
X116773333Y-82311428D01*
X116820952Y-82216190D01*
X116868571Y-82168571D01*
X116963809Y-82120952D01*
X117201904Y-82120952D01*
X117297142Y-82168571D01*
X117344761Y-82216190D01*
X117392380Y-82311428D01*
X117392380Y-82549523D01*
X117344761Y-82644761D01*
X117297142Y-82692380D01*
X116392380Y-81501904D02*
X116392380Y-81406666D01*
X116440000Y-81311428D01*
X116487619Y-81263809D01*
X116582857Y-81216190D01*
X116773333Y-81168571D01*
X117011428Y-81168571D01*
X117201904Y-81216190D01*
X117297142Y-81263809D01*
X117344761Y-81311428D01*
X117392380Y-81406666D01*
X117392380Y-81501904D01*
X117344761Y-81597142D01*
X117297142Y-81644761D01*
X117201904Y-81692380D01*
X117011428Y-81740000D01*
X116773333Y-81740000D01*
X116582857Y-81692380D01*
X116487619Y-81644761D01*
X116440000Y-81597142D01*
X116392380Y-81501904D01*
X117392380Y-80740000D02*
X116392380Y-80740000D01*
X117106666Y-80406666D01*
X116392380Y-80073333D01*
X117392380Y-80073333D01*
X116392380Y-79692380D02*
X116392380Y-79073333D01*
X116773333Y-79406666D01*
X116773333Y-79263809D01*
X116820952Y-79168571D01*
X116868571Y-79120952D01*
X116963809Y-79073333D01*
X117201904Y-79073333D01*
X117297142Y-79120952D01*
X117344761Y-79168571D01*
X117392380Y-79263809D01*
X117392380Y-79549523D01*
X117344761Y-79644761D01*
X117297142Y-79692380D01*
D14*
X114059047Y-83966190D02*
X114059047Y-84370952D01*
X114082857Y-84418571D01*
X114106666Y-84442380D01*
X114154285Y-84466190D01*
X114249523Y-84466190D01*
X114297142Y-84442380D01*
X114320952Y-84418571D01*
X114344761Y-84370952D01*
X114344761Y-83966190D01*
X114844761Y-84466190D02*
X114559047Y-84466190D01*
X114701904Y-84466190D02*
X114701904Y-83966190D01*
X114654285Y-84037619D01*
X114606666Y-84085238D01*
X114559047Y-84109047D01*
%TO.C,C1*%
D13*
X119568571Y-70372380D02*
X118997142Y-70372380D01*
X119282857Y-70372380D02*
X119282857Y-69372380D01*
X119187619Y-69515238D01*
X119092380Y-69610476D01*
X118997142Y-69658095D01*
X120187619Y-69372380D02*
X120282857Y-69372380D01*
X120378095Y-69420000D01*
X120425714Y-69467619D01*
X120473333Y-69562857D01*
X120520952Y-69753333D01*
X120520952Y-69991428D01*
X120473333Y-70181904D01*
X120425714Y-70277142D01*
X120378095Y-70324761D01*
X120282857Y-70372380D01*
X120187619Y-70372380D01*
X120092380Y-70324761D01*
X120044761Y-70277142D01*
X119997142Y-70181904D01*
X119949523Y-69991428D01*
X119949523Y-69753333D01*
X119997142Y-69562857D01*
X120044761Y-69467619D01*
X120092380Y-69420000D01*
X120187619Y-69372380D01*
X121378095Y-69705714D02*
X121378095Y-70372380D01*
X120949523Y-69705714D02*
X120949523Y-70229523D01*
X120997142Y-70324761D01*
X121092380Y-70372380D01*
X121235238Y-70372380D01*
X121330476Y-70324761D01*
X121378095Y-70277142D01*
X122187619Y-69848571D02*
X121854285Y-69848571D01*
X121854285Y-70372380D02*
X121854285Y-69372380D01*
X122330476Y-69372380D01*
D15*
X120573333Y-68632857D02*
X120554285Y-68651904D01*
X120497142Y-68670952D01*
X120459047Y-68670952D01*
X120401904Y-68651904D01*
X120363809Y-68613809D01*
X120344761Y-68575714D01*
X120325714Y-68499523D01*
X120325714Y-68442380D01*
X120344761Y-68366190D01*
X120363809Y-68328095D01*
X120401904Y-68290000D01*
X120459047Y-68270952D01*
X120497142Y-68270952D01*
X120554285Y-68290000D01*
X120573333Y-68309047D01*
X120954285Y-68670952D02*
X120725714Y-68670952D01*
X120840000Y-68670952D02*
X120840000Y-68270952D01*
X120801904Y-68328095D01*
X120763809Y-68366190D01*
X120725714Y-68385238D01*
%TO.C,C2*%
D13*
X107568571Y-69122380D02*
X106997142Y-69122380D01*
X107282857Y-69122380D02*
X107282857Y-68122380D01*
X107187619Y-68265238D01*
X107092380Y-68360476D01*
X106997142Y-68408095D01*
X108187619Y-68122380D02*
X108282857Y-68122380D01*
X108378095Y-68170000D01*
X108425714Y-68217619D01*
X108473333Y-68312857D01*
X108520952Y-68503333D01*
X108520952Y-68741428D01*
X108473333Y-68931904D01*
X108425714Y-69027142D01*
X108378095Y-69074761D01*
X108282857Y-69122380D01*
X108187619Y-69122380D01*
X108092380Y-69074761D01*
X108044761Y-69027142D01*
X107997142Y-68931904D01*
X107949523Y-68741428D01*
X107949523Y-68503333D01*
X107997142Y-68312857D01*
X108044761Y-68217619D01*
X108092380Y-68170000D01*
X108187619Y-68122380D01*
X109378095Y-68455714D02*
X109378095Y-69122380D01*
X108949523Y-68455714D02*
X108949523Y-68979523D01*
X108997142Y-69074761D01*
X109092380Y-69122380D01*
X109235238Y-69122380D01*
X109330476Y-69074761D01*
X109378095Y-69027142D01*
X110187619Y-68598571D02*
X109854285Y-68598571D01*
X109854285Y-69122380D02*
X109854285Y-68122380D01*
X110330476Y-68122380D01*
D15*
X108573333Y-67382857D02*
X108554285Y-67401904D01*
X108497142Y-67420952D01*
X108459047Y-67420952D01*
X108401904Y-67401904D01*
X108363809Y-67363809D01*
X108344761Y-67325714D01*
X108325714Y-67249523D01*
X108325714Y-67192380D01*
X108344761Y-67116190D01*
X108363809Y-67078095D01*
X108401904Y-67040000D01*
X108459047Y-67020952D01*
X108497142Y-67020952D01*
X108554285Y-67040000D01*
X108573333Y-67059047D01*
X108725714Y-67059047D02*
X108744761Y-67040000D01*
X108782857Y-67020952D01*
X108878095Y-67020952D01*
X108916190Y-67040000D01*
X108935238Y-67059047D01*
X108954285Y-67097142D01*
X108954285Y-67135238D01*
X108935238Y-67192380D01*
X108706666Y-67420952D01*
X108954285Y-67420952D01*
%TO.C,C3*%
D13*
X108445714Y-84906666D02*
X109112380Y-84906666D01*
X108064761Y-85144761D02*
X108779047Y-85382857D01*
X108779047Y-84763809D01*
X108112380Y-84478095D02*
X108112380Y-83811428D01*
X109112380Y-84240000D01*
X108445714Y-83001904D02*
X109112380Y-83001904D01*
X108445714Y-83430476D02*
X108969523Y-83430476D01*
X109064761Y-83382857D01*
X109112380Y-83287619D01*
X109112380Y-83144761D01*
X109064761Y-83049523D01*
X109017142Y-83001904D01*
X108588571Y-82192380D02*
X108588571Y-82525714D01*
X109112380Y-82525714D02*
X108112380Y-82525714D01*
X108112380Y-82049523D01*
D12*
X111225714Y-83873333D02*
X111263809Y-83911428D01*
X111301904Y-84025714D01*
X111301904Y-84101904D01*
X111263809Y-84216190D01*
X111187619Y-84292380D01*
X111111428Y-84330476D01*
X110959047Y-84368571D01*
X110844761Y-84368571D01*
X110692380Y-84330476D01*
X110616190Y-84292380D01*
X110540000Y-84216190D01*
X110501904Y-84101904D01*
X110501904Y-84025714D01*
X110540000Y-83911428D01*
X110578095Y-83873333D01*
X110501904Y-83606666D02*
X110501904Y-83111428D01*
X110806666Y-83378095D01*
X110806666Y-83263809D01*
X110844761Y-83187619D01*
X110882857Y-83149523D01*
X110959047Y-83111428D01*
X111149523Y-83111428D01*
X111225714Y-83149523D01*
X111263809Y-83187619D01*
X111301904Y-83263809D01*
X111301904Y-83492380D01*
X111263809Y-83568571D01*
X111225714Y-83606666D01*
%TO.C,C4*%
D13*
X129105714Y-80906666D02*
X129772380Y-80906666D01*
X128724761Y-81144761D02*
X129439047Y-81382857D01*
X129439047Y-80763809D01*
X128772380Y-80478095D02*
X128772380Y-79811428D01*
X129772380Y-80240000D01*
X129105714Y-79001904D02*
X129772380Y-79001904D01*
X129105714Y-79430476D02*
X129629523Y-79430476D01*
X129724761Y-79382857D01*
X129772380Y-79287619D01*
X129772380Y-79144761D01*
X129724761Y-79049523D01*
X129677142Y-79001904D01*
X129248571Y-78192380D02*
X129248571Y-78525714D01*
X129772380Y-78525714D02*
X128772380Y-78525714D01*
X128772380Y-78049523D01*
D12*
X127325714Y-79873333D02*
X127363809Y-79911428D01*
X127401904Y-80025714D01*
X127401904Y-80101904D01*
X127363809Y-80216190D01*
X127287619Y-80292380D01*
X127211428Y-80330476D01*
X127059047Y-80368571D01*
X126944761Y-80368571D01*
X126792380Y-80330476D01*
X126716190Y-80292380D01*
X126640000Y-80216190D01*
X126601904Y-80101904D01*
X126601904Y-80025714D01*
X126640000Y-79911428D01*
X126678095Y-79873333D01*
X126868571Y-79187619D02*
X127401904Y-79187619D01*
X126563809Y-79378095D02*
X127135238Y-79568571D01*
X127135238Y-79073333D01*
%TO.C,D2*%
D13*
X126757380Y-66182857D02*
X126757380Y-66659047D01*
X125757380Y-66659047D01*
X126233571Y-65849523D02*
X126233571Y-65516190D01*
X126757380Y-65373333D02*
X126757380Y-65849523D01*
X125757380Y-65849523D01*
X125757380Y-65373333D01*
X126757380Y-64944761D02*
X125757380Y-64944761D01*
X125757380Y-64706666D01*
X125805000Y-64563809D01*
X125900238Y-64468571D01*
X125995476Y-64420952D01*
X126185952Y-64373333D01*
X126328809Y-64373333D01*
X126519285Y-64420952D01*
X126614523Y-64468571D01*
X126709761Y-64563809D01*
X126757380Y-64706666D01*
X126757380Y-64944761D01*
D15*
X125055952Y-65835238D02*
X124655952Y-65835238D01*
X124655952Y-65740000D01*
X124675000Y-65682857D01*
X124713095Y-65644761D01*
X124751190Y-65625714D01*
X124827380Y-65606666D01*
X124884523Y-65606666D01*
X124960714Y-65625714D01*
X124998809Y-65644761D01*
X125036904Y-65682857D01*
X125055952Y-65740000D01*
X125055952Y-65835238D01*
X124694047Y-65454285D02*
X124675000Y-65435238D01*
X124655952Y-65397142D01*
X124655952Y-65301904D01*
X124675000Y-65263809D01*
X124694047Y-65244761D01*
X124732142Y-65225714D01*
X124770238Y-65225714D01*
X124827380Y-65244761D01*
X125055952Y-65473333D01*
X125055952Y-65225714D01*
%TO.C,D3*%
D13*
X124912380Y-66182857D02*
X124912380Y-66659047D01*
X123912380Y-66659047D01*
X124388571Y-65849523D02*
X124388571Y-65516190D01*
X124912380Y-65373333D02*
X124912380Y-65849523D01*
X123912380Y-65849523D01*
X123912380Y-65373333D01*
X124912380Y-64944761D02*
X123912380Y-64944761D01*
X123912380Y-64706666D01*
X123960000Y-64563809D01*
X124055238Y-64468571D01*
X124150476Y-64420952D01*
X124340952Y-64373333D01*
X124483809Y-64373333D01*
X124674285Y-64420952D01*
X124769523Y-64468571D01*
X124864761Y-64563809D01*
X124912380Y-64706666D01*
X124912380Y-64944761D01*
D15*
X123210952Y-65835238D02*
X122810952Y-65835238D01*
X122810952Y-65740000D01*
X122830000Y-65682857D01*
X122868095Y-65644761D01*
X122906190Y-65625714D01*
X122982380Y-65606666D01*
X123039523Y-65606666D01*
X123115714Y-65625714D01*
X123153809Y-65644761D01*
X123191904Y-65682857D01*
X123210952Y-65740000D01*
X123210952Y-65835238D01*
X122810952Y-65473333D02*
X122810952Y-65225714D01*
X122963333Y-65359047D01*
X122963333Y-65301904D01*
X122982380Y-65263809D01*
X123001428Y-65244761D01*
X123039523Y-65225714D01*
X123134761Y-65225714D01*
X123172857Y-65244761D01*
X123191904Y-65263809D01*
X123210952Y-65301904D01*
X123210952Y-65416190D01*
X123191904Y-65454285D01*
X123172857Y-65473333D01*
%TO.C,D6*%
D13*
X115697142Y-77062380D02*
X115220952Y-77062380D01*
X115220952Y-76062380D01*
X116030476Y-76538571D02*
X116363809Y-76538571D01*
X116506666Y-77062380D02*
X116030476Y-77062380D01*
X116030476Y-76062380D01*
X116506666Y-76062380D01*
X116935238Y-77062380D02*
X116935238Y-76062380D01*
X117173333Y-76062380D01*
X117316190Y-76110000D01*
X117411428Y-76205238D01*
X117459047Y-76300476D01*
X117506666Y-76490952D01*
X117506666Y-76633809D01*
X117459047Y-76824285D01*
X117411428Y-76919523D01*
X117316190Y-77014761D01*
X117173333Y-77062380D01*
X116935238Y-77062380D01*
D15*
X116044761Y-78220952D02*
X116044761Y-77820952D01*
X116140000Y-77820952D01*
X116197142Y-77840000D01*
X116235238Y-77878095D01*
X116254285Y-77916190D01*
X116273333Y-77992380D01*
X116273333Y-78049523D01*
X116254285Y-78125714D01*
X116235238Y-78163809D01*
X116197142Y-78201904D01*
X116140000Y-78220952D01*
X116044761Y-78220952D01*
X116616190Y-77820952D02*
X116540000Y-77820952D01*
X116501904Y-77840000D01*
X116482857Y-77859047D01*
X116444761Y-77916190D01*
X116425714Y-77992380D01*
X116425714Y-78144761D01*
X116444761Y-78182857D01*
X116463809Y-78201904D01*
X116501904Y-78220952D01*
X116578095Y-78220952D01*
X116616190Y-78201904D01*
X116635238Y-78182857D01*
X116654285Y-78144761D01*
X116654285Y-78049523D01*
X116635238Y-78011428D01*
X116616190Y-77992380D01*
X116578095Y-77973333D01*
X116501904Y-77973333D01*
X116463809Y-77992380D01*
X116444761Y-78011428D01*
X116425714Y-78049523D01*
%TO.C,IC1*%
D16*
X112521513Y-70058803D02*
X112971457Y-70058803D01*
X112746485Y-70846205D02*
X112746485Y-70058803D01*
X113233925Y-70846205D02*
X113233925Y-70058803D01*
X113533887Y-70058803D01*
X113608878Y-70096299D01*
X113646373Y-70133794D01*
X113683869Y-70208785D01*
X113683869Y-70321271D01*
X113646373Y-70396261D01*
X113608878Y-70433757D01*
X113533887Y-70471252D01*
X113233925Y-70471252D01*
X114358785Y-70321271D02*
X114358785Y-70846205D01*
X114171308Y-70021308D02*
X113983831Y-70583738D01*
X114471271Y-70583738D01*
X114921215Y-70058803D02*
X114996205Y-70058803D01*
X115071196Y-70096299D01*
X115108691Y-70133794D01*
X115146187Y-70208785D01*
X115183682Y-70358766D01*
X115183682Y-70546243D01*
X115146187Y-70696224D01*
X115108691Y-70771215D01*
X115071196Y-70808710D01*
X114996205Y-70846205D01*
X114921215Y-70846205D01*
X114846224Y-70808710D01*
X114808729Y-70771215D01*
X114771233Y-70696224D01*
X114733738Y-70546243D01*
X114733738Y-70358766D01*
X114771233Y-70208785D01*
X114808729Y-70133794D01*
X114846224Y-70096299D01*
X114921215Y-70058803D01*
X115896093Y-70058803D02*
X115521140Y-70058803D01*
X115483645Y-70433757D01*
X115521140Y-70396261D01*
X115596131Y-70358766D01*
X115783607Y-70358766D01*
X115858598Y-70396261D01*
X115896093Y-70433757D01*
X115933589Y-70508747D01*
X115933589Y-70696224D01*
X115896093Y-70771215D01*
X115858598Y-70808710D01*
X115783607Y-70846205D01*
X115596131Y-70846205D01*
X115521140Y-70808710D01*
X115483645Y-70771215D01*
X116608505Y-70058803D02*
X116458523Y-70058803D01*
X116383533Y-70096299D01*
X116346037Y-70133794D01*
X116271047Y-70246280D01*
X116233551Y-70396261D01*
X116233551Y-70696224D01*
X116271047Y-70771215D01*
X116308542Y-70808710D01*
X116383533Y-70846205D01*
X116533514Y-70846205D01*
X116608505Y-70808710D01*
X116646000Y-70771215D01*
X116683495Y-70696224D01*
X116683495Y-70508747D01*
X116646000Y-70433757D01*
X116608505Y-70396261D01*
X116533514Y-70358766D01*
X116383533Y-70358766D01*
X116308542Y-70396261D01*
X116271047Y-70433757D01*
X116233551Y-70508747D01*
%TO.C,J1*%
D13*
X100401904Y-62587142D02*
X100354285Y-62634761D01*
X100211428Y-62682380D01*
X100116190Y-62682380D01*
X99973333Y-62634761D01*
X99878095Y-62539523D01*
X99830476Y-62444285D01*
X99782857Y-62253809D01*
X99782857Y-62110952D01*
X99830476Y-61920476D01*
X99878095Y-61825238D01*
X99973333Y-61730000D01*
X100116190Y-61682380D01*
X100211428Y-61682380D01*
X100354285Y-61730000D01*
X100401904Y-61777619D01*
X100973333Y-62682380D02*
X100878095Y-62634761D01*
X100830476Y-62587142D01*
X100782857Y-62491904D01*
X100782857Y-62206190D01*
X100830476Y-62110952D01*
X100878095Y-62063333D01*
X100973333Y-62015714D01*
X101116190Y-62015714D01*
X101211428Y-62063333D01*
X101259047Y-62110952D01*
X101306666Y-62206190D01*
X101306666Y-62491904D01*
X101259047Y-62587142D01*
X101211428Y-62634761D01*
X101116190Y-62682380D01*
X100973333Y-62682380D01*
X101735238Y-62015714D02*
X101735238Y-62682380D01*
X101735238Y-62110952D02*
X101782857Y-62063333D01*
X101878095Y-62015714D01*
X102020952Y-62015714D01*
X102116190Y-62063333D01*
X102163809Y-62158571D01*
X102163809Y-62682380D01*
X102640000Y-62015714D02*
X102640000Y-62682380D01*
X102640000Y-62110952D02*
X102687619Y-62063333D01*
X102782857Y-62015714D01*
X102925714Y-62015714D01*
X103020952Y-62063333D01*
X103068571Y-62158571D01*
X103068571Y-62682380D01*
X103306666Y-62777619D02*
X104068571Y-62777619D01*
X104497142Y-61682380D02*
X104592380Y-61682380D01*
X104687619Y-61730000D01*
X104735238Y-61777619D01*
X104782857Y-61872857D01*
X104830476Y-62063333D01*
X104830476Y-62301428D01*
X104782857Y-62491904D01*
X104735238Y-62587142D01*
X104687619Y-62634761D01*
X104592380Y-62682380D01*
X104497142Y-62682380D01*
X104401904Y-62634761D01*
X104354285Y-62587142D01*
X104306666Y-62491904D01*
X104259047Y-62301428D01*
X104259047Y-62063333D01*
X104306666Y-61872857D01*
X104354285Y-61777619D01*
X104401904Y-61730000D01*
X104497142Y-61682380D01*
X105782857Y-62682380D02*
X105211428Y-62682380D01*
X105497142Y-62682380D02*
X105497142Y-61682380D01*
X105401904Y-61825238D01*
X105306666Y-61920476D01*
X105211428Y-61968095D01*
X106116190Y-62682380D02*
X106640000Y-62015714D01*
X106116190Y-62015714D02*
X106640000Y-62682380D01*
X107211428Y-61682380D02*
X107306666Y-61682380D01*
X107401904Y-61730000D01*
X107449523Y-61777619D01*
X107497142Y-61872857D01*
X107544761Y-62063333D01*
X107544761Y-62301428D01*
X107497142Y-62491904D01*
X107449523Y-62587142D01*
X107401904Y-62634761D01*
X107306666Y-62682380D01*
X107211428Y-62682380D01*
X107116190Y-62634761D01*
X107068571Y-62587142D01*
X107020952Y-62491904D01*
X106973333Y-62301428D01*
X106973333Y-62063333D01*
X107020952Y-61872857D01*
X107068571Y-61777619D01*
X107116190Y-61730000D01*
X107211428Y-61682380D01*
X108497142Y-62682380D02*
X107925714Y-62682380D01*
X108211428Y-62682380D02*
X108211428Y-61682380D01*
X108116190Y-61825238D01*
X108020952Y-61920476D01*
X107925714Y-61968095D01*
X103592380Y-66373333D02*
X104306666Y-66373333D01*
X104449523Y-66420952D01*
X104544761Y-66516190D01*
X104592380Y-66659047D01*
X104592380Y-66754285D01*
X104592380Y-65373333D02*
X104592380Y-65944761D01*
X104592380Y-65659047D02*
X103592380Y-65659047D01*
X103735238Y-65754285D01*
X103830476Y-65849523D01*
X103878095Y-65944761D01*
%TO.C,J2*%
X100401904Y-65127142D02*
X100354285Y-65174761D01*
X100211428Y-65222380D01*
X100116190Y-65222380D01*
X99973333Y-65174761D01*
X99878095Y-65079523D01*
X99830476Y-64984285D01*
X99782857Y-64793809D01*
X99782857Y-64650952D01*
X99830476Y-64460476D01*
X99878095Y-64365238D01*
X99973333Y-64270000D01*
X100116190Y-64222380D01*
X100211428Y-64222380D01*
X100354285Y-64270000D01*
X100401904Y-64317619D01*
X100973333Y-65222380D02*
X100878095Y-65174761D01*
X100830476Y-65127142D01*
X100782857Y-65031904D01*
X100782857Y-64746190D01*
X100830476Y-64650952D01*
X100878095Y-64603333D01*
X100973333Y-64555714D01*
X101116190Y-64555714D01*
X101211428Y-64603333D01*
X101259047Y-64650952D01*
X101306666Y-64746190D01*
X101306666Y-65031904D01*
X101259047Y-65127142D01*
X101211428Y-65174761D01*
X101116190Y-65222380D01*
X100973333Y-65222380D01*
X101735238Y-64555714D02*
X101735238Y-65222380D01*
X101735238Y-64650952D02*
X101782857Y-64603333D01*
X101878095Y-64555714D01*
X102020952Y-64555714D01*
X102116190Y-64603333D01*
X102163809Y-64698571D01*
X102163809Y-65222380D01*
X102640000Y-64555714D02*
X102640000Y-65222380D01*
X102640000Y-64650952D02*
X102687619Y-64603333D01*
X102782857Y-64555714D01*
X102925714Y-64555714D01*
X103020952Y-64603333D01*
X103068571Y-64698571D01*
X103068571Y-65222380D01*
X103306666Y-65317619D02*
X104068571Y-65317619D01*
X104497142Y-64222380D02*
X104592380Y-64222380D01*
X104687619Y-64270000D01*
X104735238Y-64317619D01*
X104782857Y-64412857D01*
X104830476Y-64603333D01*
X104830476Y-64841428D01*
X104782857Y-65031904D01*
X104735238Y-65127142D01*
X104687619Y-65174761D01*
X104592380Y-65222380D01*
X104497142Y-65222380D01*
X104401904Y-65174761D01*
X104354285Y-65127142D01*
X104306666Y-65031904D01*
X104259047Y-64841428D01*
X104259047Y-64603333D01*
X104306666Y-64412857D01*
X104354285Y-64317619D01*
X104401904Y-64270000D01*
X104497142Y-64222380D01*
X105782857Y-65222380D02*
X105211428Y-65222380D01*
X105497142Y-65222380D02*
X105497142Y-64222380D01*
X105401904Y-64365238D01*
X105306666Y-64460476D01*
X105211428Y-64508095D01*
X106116190Y-65222380D02*
X106640000Y-64555714D01*
X106116190Y-64555714D02*
X106640000Y-65222380D01*
X107211428Y-64222380D02*
X107306666Y-64222380D01*
X107401904Y-64270000D01*
X107449523Y-64317619D01*
X107497142Y-64412857D01*
X107544761Y-64603333D01*
X107544761Y-64841428D01*
X107497142Y-65031904D01*
X107449523Y-65127142D01*
X107401904Y-65174761D01*
X107306666Y-65222380D01*
X107211428Y-65222380D01*
X107116190Y-65174761D01*
X107068571Y-65127142D01*
X107020952Y-65031904D01*
X106973333Y-64841428D01*
X106973333Y-64603333D01*
X107020952Y-64412857D01*
X107068571Y-64317619D01*
X107116190Y-64270000D01*
X107211428Y-64222380D01*
X108497142Y-65222380D02*
X107925714Y-65222380D01*
X108211428Y-65222380D02*
X108211428Y-64222380D01*
X108116190Y-64365238D01*
X108020952Y-64460476D01*
X107925714Y-64508095D01*
X103592380Y-68913333D02*
X104306666Y-68913333D01*
X104449523Y-68960952D01*
X104544761Y-69056190D01*
X104592380Y-69199047D01*
X104592380Y-69294285D01*
X103687619Y-68484761D02*
X103640000Y-68437142D01*
X103592380Y-68341904D01*
X103592380Y-68103809D01*
X103640000Y-68008571D01*
X103687619Y-67960952D01*
X103782857Y-67913333D01*
X103878095Y-67913333D01*
X104020952Y-67960952D01*
X104592380Y-68532380D01*
X104592380Y-67913333D01*
%TO.C,J3*%
X100401904Y-77827142D02*
X100354285Y-77874761D01*
X100211428Y-77922380D01*
X100116190Y-77922380D01*
X99973333Y-77874761D01*
X99878095Y-77779523D01*
X99830476Y-77684285D01*
X99782857Y-77493809D01*
X99782857Y-77350952D01*
X99830476Y-77160476D01*
X99878095Y-77065238D01*
X99973333Y-76970000D01*
X100116190Y-76922380D01*
X100211428Y-76922380D01*
X100354285Y-76970000D01*
X100401904Y-77017619D01*
X100973333Y-77922380D02*
X100878095Y-77874761D01*
X100830476Y-77827142D01*
X100782857Y-77731904D01*
X100782857Y-77446190D01*
X100830476Y-77350952D01*
X100878095Y-77303333D01*
X100973333Y-77255714D01*
X101116190Y-77255714D01*
X101211428Y-77303333D01*
X101259047Y-77350952D01*
X101306666Y-77446190D01*
X101306666Y-77731904D01*
X101259047Y-77827142D01*
X101211428Y-77874761D01*
X101116190Y-77922380D01*
X100973333Y-77922380D01*
X101735238Y-77255714D02*
X101735238Y-77922380D01*
X101735238Y-77350952D02*
X101782857Y-77303333D01*
X101878095Y-77255714D01*
X102020952Y-77255714D01*
X102116190Y-77303333D01*
X102163809Y-77398571D01*
X102163809Y-77922380D01*
X102640000Y-77255714D02*
X102640000Y-77922380D01*
X102640000Y-77350952D02*
X102687619Y-77303333D01*
X102782857Y-77255714D01*
X102925714Y-77255714D01*
X103020952Y-77303333D01*
X103068571Y-77398571D01*
X103068571Y-77922380D01*
X103306666Y-78017619D02*
X104068571Y-78017619D01*
X104497142Y-76922380D02*
X104592380Y-76922380D01*
X104687619Y-76970000D01*
X104735238Y-77017619D01*
X104782857Y-77112857D01*
X104830476Y-77303333D01*
X104830476Y-77541428D01*
X104782857Y-77731904D01*
X104735238Y-77827142D01*
X104687619Y-77874761D01*
X104592380Y-77922380D01*
X104497142Y-77922380D01*
X104401904Y-77874761D01*
X104354285Y-77827142D01*
X104306666Y-77731904D01*
X104259047Y-77541428D01*
X104259047Y-77303333D01*
X104306666Y-77112857D01*
X104354285Y-77017619D01*
X104401904Y-76970000D01*
X104497142Y-76922380D01*
X105782857Y-77922380D02*
X105211428Y-77922380D01*
X105497142Y-77922380D02*
X105497142Y-76922380D01*
X105401904Y-77065238D01*
X105306666Y-77160476D01*
X105211428Y-77208095D01*
X106116190Y-77922380D02*
X106640000Y-77255714D01*
X106116190Y-77255714D02*
X106640000Y-77922380D01*
X107211428Y-76922380D02*
X107306666Y-76922380D01*
X107401904Y-76970000D01*
X107449523Y-77017619D01*
X107497142Y-77112857D01*
X107544761Y-77303333D01*
X107544761Y-77541428D01*
X107497142Y-77731904D01*
X107449523Y-77827142D01*
X107401904Y-77874761D01*
X107306666Y-77922380D01*
X107211428Y-77922380D01*
X107116190Y-77874761D01*
X107068571Y-77827142D01*
X107020952Y-77731904D01*
X106973333Y-77541428D01*
X106973333Y-77303333D01*
X107020952Y-77112857D01*
X107068571Y-77017619D01*
X107116190Y-76970000D01*
X107211428Y-76922380D01*
X108497142Y-77922380D02*
X107925714Y-77922380D01*
X108211428Y-77922380D02*
X108211428Y-76922380D01*
X108116190Y-77065238D01*
X108020952Y-77160476D01*
X107925714Y-77208095D01*
X103592380Y-81613333D02*
X104306666Y-81613333D01*
X104449523Y-81660952D01*
X104544761Y-81756190D01*
X104592380Y-81899047D01*
X104592380Y-81994285D01*
X103592380Y-81232380D02*
X103592380Y-80613333D01*
X103973333Y-80946666D01*
X103973333Y-80803809D01*
X104020952Y-80708571D01*
X104068571Y-80660952D01*
X104163809Y-80613333D01*
X104401904Y-80613333D01*
X104497142Y-80660952D01*
X104544761Y-80708571D01*
X104592380Y-80803809D01*
X104592380Y-81089523D01*
X104544761Y-81184761D01*
X104497142Y-81232380D01*
%TO.C,J9*%
X100401904Y-70207142D02*
X100354285Y-70254761D01*
X100211428Y-70302380D01*
X100116190Y-70302380D01*
X99973333Y-70254761D01*
X99878095Y-70159523D01*
X99830476Y-70064285D01*
X99782857Y-69873809D01*
X99782857Y-69730952D01*
X99830476Y-69540476D01*
X99878095Y-69445238D01*
X99973333Y-69350000D01*
X100116190Y-69302380D01*
X100211428Y-69302380D01*
X100354285Y-69350000D01*
X100401904Y-69397619D01*
X100973333Y-70302380D02*
X100878095Y-70254761D01*
X100830476Y-70207142D01*
X100782857Y-70111904D01*
X100782857Y-69826190D01*
X100830476Y-69730952D01*
X100878095Y-69683333D01*
X100973333Y-69635714D01*
X101116190Y-69635714D01*
X101211428Y-69683333D01*
X101259047Y-69730952D01*
X101306666Y-69826190D01*
X101306666Y-70111904D01*
X101259047Y-70207142D01*
X101211428Y-70254761D01*
X101116190Y-70302380D01*
X100973333Y-70302380D01*
X101735238Y-69635714D02*
X101735238Y-70302380D01*
X101735238Y-69730952D02*
X101782857Y-69683333D01*
X101878095Y-69635714D01*
X102020952Y-69635714D01*
X102116190Y-69683333D01*
X102163809Y-69778571D01*
X102163809Y-70302380D01*
X102640000Y-69635714D02*
X102640000Y-70302380D01*
X102640000Y-69730952D02*
X102687619Y-69683333D01*
X102782857Y-69635714D01*
X102925714Y-69635714D01*
X103020952Y-69683333D01*
X103068571Y-69778571D01*
X103068571Y-70302380D01*
X103306666Y-70397619D02*
X104068571Y-70397619D01*
X104497142Y-69302380D02*
X104592380Y-69302380D01*
X104687619Y-69350000D01*
X104735238Y-69397619D01*
X104782857Y-69492857D01*
X104830476Y-69683333D01*
X104830476Y-69921428D01*
X104782857Y-70111904D01*
X104735238Y-70207142D01*
X104687619Y-70254761D01*
X104592380Y-70302380D01*
X104497142Y-70302380D01*
X104401904Y-70254761D01*
X104354285Y-70207142D01*
X104306666Y-70111904D01*
X104259047Y-69921428D01*
X104259047Y-69683333D01*
X104306666Y-69492857D01*
X104354285Y-69397619D01*
X104401904Y-69350000D01*
X104497142Y-69302380D01*
X105782857Y-70302380D02*
X105211428Y-70302380D01*
X105497142Y-70302380D02*
X105497142Y-69302380D01*
X105401904Y-69445238D01*
X105306666Y-69540476D01*
X105211428Y-69588095D01*
X106116190Y-70302380D02*
X106640000Y-69635714D01*
X106116190Y-69635714D02*
X106640000Y-70302380D01*
X107211428Y-69302380D02*
X107306666Y-69302380D01*
X107401904Y-69350000D01*
X107449523Y-69397619D01*
X107497142Y-69492857D01*
X107544761Y-69683333D01*
X107544761Y-69921428D01*
X107497142Y-70111904D01*
X107449523Y-70207142D01*
X107401904Y-70254761D01*
X107306666Y-70302380D01*
X107211428Y-70302380D01*
X107116190Y-70254761D01*
X107068571Y-70207142D01*
X107020952Y-70111904D01*
X106973333Y-69921428D01*
X106973333Y-69683333D01*
X107020952Y-69492857D01*
X107068571Y-69397619D01*
X107116190Y-69350000D01*
X107211428Y-69302380D01*
X108497142Y-70302380D02*
X107925714Y-70302380D01*
X108211428Y-70302380D02*
X108211428Y-69302380D01*
X108116190Y-69445238D01*
X108020952Y-69540476D01*
X107925714Y-69588095D01*
X103592380Y-73993333D02*
X104306666Y-73993333D01*
X104449523Y-74040952D01*
X104544761Y-74136190D01*
X104592380Y-74279047D01*
X104592380Y-74374285D01*
X104592380Y-73469523D02*
X104592380Y-73279047D01*
X104544761Y-73183809D01*
X104497142Y-73136190D01*
X104354285Y-73040952D01*
X104163809Y-72993333D01*
X103782857Y-72993333D01*
X103687619Y-73040952D01*
X103640000Y-73088571D01*
X103592380Y-73183809D01*
X103592380Y-73374285D01*
X103640000Y-73469523D01*
X103687619Y-73517142D01*
X103782857Y-73564761D01*
X104020952Y-73564761D01*
X104116190Y-73517142D01*
X104163809Y-73469523D01*
X104211428Y-73374285D01*
X104211428Y-73183809D01*
X104163809Y-73088571D01*
X104116190Y-73040952D01*
X104020952Y-72993333D01*
%TO.C,R6*%
X123897380Y-69159047D02*
X123897380Y-69730476D01*
X123897380Y-69444761D02*
X122897380Y-69444761D01*
X123040238Y-69540000D01*
X123135476Y-69635238D01*
X123183095Y-69730476D01*
X123897380Y-68730476D02*
X122897380Y-68730476D01*
X123516428Y-68635238D02*
X123897380Y-68349523D01*
X123230714Y-68349523D02*
X123611666Y-68730476D01*
D15*
X125055952Y-69106666D02*
X124865476Y-69240000D01*
X125055952Y-69335238D02*
X124655952Y-69335238D01*
X124655952Y-69182857D01*
X124675000Y-69144761D01*
X124694047Y-69125714D01*
X124732142Y-69106666D01*
X124789285Y-69106666D01*
X124827380Y-69125714D01*
X124846428Y-69144761D01*
X124865476Y-69182857D01*
X124865476Y-69335238D01*
X124655952Y-68763809D02*
X124655952Y-68840000D01*
X124675000Y-68878095D01*
X124694047Y-68897142D01*
X124751190Y-68935238D01*
X124827380Y-68954285D01*
X124979761Y-68954285D01*
X125017857Y-68935238D01*
X125036904Y-68916190D01*
X125055952Y-68878095D01*
X125055952Y-68801904D01*
X125036904Y-68763809D01*
X125017857Y-68744761D01*
X124979761Y-68725714D01*
X124884523Y-68725714D01*
X124846428Y-68744761D01*
X124827380Y-68763809D01*
X124808333Y-68801904D01*
X124808333Y-68878095D01*
X124827380Y-68916190D01*
X124846428Y-68935238D01*
X124884523Y-68954285D01*
%TO.C,R7*%
D13*
X120044761Y-73002380D02*
X119473333Y-73002380D01*
X119759047Y-73002380D02*
X119759047Y-72002380D01*
X119663809Y-72145238D01*
X119568571Y-72240476D01*
X119473333Y-72288095D01*
X120663809Y-72002380D02*
X120759047Y-72002380D01*
X120854285Y-72050000D01*
X120901904Y-72097619D01*
X120949523Y-72192857D01*
X120997142Y-72383333D01*
X120997142Y-72621428D01*
X120949523Y-72811904D01*
X120901904Y-72907142D01*
X120854285Y-72954761D01*
X120759047Y-73002380D01*
X120663809Y-73002380D01*
X120568571Y-72954761D01*
X120520952Y-72907142D01*
X120473333Y-72811904D01*
X120425714Y-72621428D01*
X120425714Y-72383333D01*
X120473333Y-72192857D01*
X120520952Y-72097619D01*
X120568571Y-72050000D01*
X120663809Y-72002380D01*
X121425714Y-73002380D02*
X121425714Y-72002380D01*
X121520952Y-72621428D02*
X121806666Y-73002380D01*
X121806666Y-72335714D02*
X121425714Y-72716666D01*
D15*
X120573333Y-71300952D02*
X120440000Y-71110476D01*
X120344761Y-71300952D02*
X120344761Y-70900952D01*
X120497142Y-70900952D01*
X120535238Y-70920000D01*
X120554285Y-70939047D01*
X120573333Y-70977142D01*
X120573333Y-71034285D01*
X120554285Y-71072380D01*
X120535238Y-71091428D01*
X120497142Y-71110476D01*
X120344761Y-71110476D01*
X120706666Y-70900952D02*
X120973333Y-70900952D01*
X120801904Y-71300952D01*
%TO.C,R8*%
D13*
X122052380Y-69109047D02*
X122052380Y-69680476D01*
X122052380Y-69394761D02*
X121052380Y-69394761D01*
X121195238Y-69490000D01*
X121290476Y-69585238D01*
X121338095Y-69680476D01*
X122052380Y-68680476D02*
X121052380Y-68680476D01*
X121671428Y-68585238D02*
X122052380Y-68299523D01*
X121385714Y-68299523D02*
X121766666Y-68680476D01*
D15*
X123210952Y-69056666D02*
X123020476Y-69190000D01*
X123210952Y-69285238D02*
X122810952Y-69285238D01*
X122810952Y-69132857D01*
X122830000Y-69094761D01*
X122849047Y-69075714D01*
X122887142Y-69056666D01*
X122944285Y-69056666D01*
X122982380Y-69075714D01*
X123001428Y-69094761D01*
X123020476Y-69132857D01*
X123020476Y-69285238D01*
X122982380Y-68828095D02*
X122963333Y-68866190D01*
X122944285Y-68885238D01*
X122906190Y-68904285D01*
X122887142Y-68904285D01*
X122849047Y-68885238D01*
X122830000Y-68866190D01*
X122810952Y-68828095D01*
X122810952Y-68751904D01*
X122830000Y-68713809D01*
X122849047Y-68694761D01*
X122887142Y-68675714D01*
X122906190Y-68675714D01*
X122944285Y-68694761D01*
X122963333Y-68713809D01*
X122982380Y-68751904D01*
X122982380Y-68828095D01*
X123001428Y-68866190D01*
X123020476Y-68885238D01*
X123058571Y-68904285D01*
X123134761Y-68904285D01*
X123172857Y-68885238D01*
X123191904Y-68866190D01*
X123210952Y-68828095D01*
X123210952Y-68751904D01*
X123191904Y-68713809D01*
X123172857Y-68694761D01*
X123134761Y-68675714D01*
X123058571Y-68675714D01*
X123020476Y-68694761D01*
X123001428Y-68713809D01*
X122982380Y-68751904D01*
%TO.C,R9*%
D13*
X119617619Y-65775714D02*
X119570000Y-65728095D01*
X119522380Y-65632857D01*
X119522380Y-65394761D01*
X119570000Y-65299523D01*
X119617619Y-65251904D01*
X119712857Y-65204285D01*
X119808095Y-65204285D01*
X119950952Y-65251904D01*
X120522380Y-65823333D01*
X120522380Y-65204285D01*
D15*
X118820952Y-65556666D02*
X118630476Y-65690000D01*
X118820952Y-65785238D02*
X118420952Y-65785238D01*
X118420952Y-65632857D01*
X118440000Y-65594761D01*
X118459047Y-65575714D01*
X118497142Y-65556666D01*
X118554285Y-65556666D01*
X118592380Y-65575714D01*
X118611428Y-65594761D01*
X118630476Y-65632857D01*
X118630476Y-65785238D01*
X118820952Y-65366190D02*
X118820952Y-65290000D01*
X118801904Y-65251904D01*
X118782857Y-65232857D01*
X118725714Y-65194761D01*
X118649523Y-65175714D01*
X118497142Y-65175714D01*
X118459047Y-65194761D01*
X118440000Y-65213809D01*
X118420952Y-65251904D01*
X118420952Y-65328095D01*
X118440000Y-65366190D01*
X118459047Y-65385238D01*
X118497142Y-65404285D01*
X118592380Y-65404285D01*
X118630476Y-65385238D01*
X118649523Y-65366190D01*
X118668571Y-65328095D01*
X118668571Y-65251904D01*
X118649523Y-65213809D01*
X118630476Y-65194761D01*
X118592380Y-65175714D01*
%TO.C,R10*%
D13*
X117617619Y-65775714D02*
X117570000Y-65728095D01*
X117522380Y-65632857D01*
X117522380Y-65394761D01*
X117570000Y-65299523D01*
X117617619Y-65251904D01*
X117712857Y-65204285D01*
X117808095Y-65204285D01*
X117950952Y-65251904D01*
X118522380Y-65823333D01*
X118522380Y-65204285D01*
D15*
X116820952Y-65747142D02*
X116630476Y-65880476D01*
X116820952Y-65975714D02*
X116420952Y-65975714D01*
X116420952Y-65823333D01*
X116440000Y-65785238D01*
X116459047Y-65766190D01*
X116497142Y-65747142D01*
X116554285Y-65747142D01*
X116592380Y-65766190D01*
X116611428Y-65785238D01*
X116630476Y-65823333D01*
X116630476Y-65975714D01*
X116820952Y-65366190D02*
X116820952Y-65594761D01*
X116820952Y-65480476D02*
X116420952Y-65480476D01*
X116478095Y-65518571D01*
X116516190Y-65556666D01*
X116535238Y-65594761D01*
X116420952Y-65118571D02*
X116420952Y-65080476D01*
X116440000Y-65042380D01*
X116459047Y-65023333D01*
X116497142Y-65004285D01*
X116573333Y-64985238D01*
X116668571Y-64985238D01*
X116744761Y-65004285D01*
X116782857Y-65023333D01*
X116801904Y-65042380D01*
X116820952Y-65080476D01*
X116820952Y-65118571D01*
X116801904Y-65156666D01*
X116782857Y-65175714D01*
X116744761Y-65194761D01*
X116668571Y-65213809D01*
X116573333Y-65213809D01*
X116497142Y-65194761D01*
X116459047Y-65175714D01*
X116440000Y-65156666D01*
X116420952Y-65118571D01*
%TO.C,R12*%
D13*
X115617619Y-65775714D02*
X115570000Y-65728095D01*
X115522380Y-65632857D01*
X115522380Y-65394761D01*
X115570000Y-65299523D01*
X115617619Y-65251904D01*
X115712857Y-65204285D01*
X115808095Y-65204285D01*
X115950952Y-65251904D01*
X116522380Y-65823333D01*
X116522380Y-65204285D01*
D15*
X114820952Y-65747142D02*
X114630476Y-65880476D01*
X114820952Y-65975714D02*
X114420952Y-65975714D01*
X114420952Y-65823333D01*
X114440000Y-65785238D01*
X114459047Y-65766190D01*
X114497142Y-65747142D01*
X114554285Y-65747142D01*
X114592380Y-65766190D01*
X114611428Y-65785238D01*
X114630476Y-65823333D01*
X114630476Y-65975714D01*
X114820952Y-65366190D02*
X114820952Y-65594761D01*
X114820952Y-65480476D02*
X114420952Y-65480476D01*
X114478095Y-65518571D01*
X114516190Y-65556666D01*
X114535238Y-65594761D01*
X114459047Y-65213809D02*
X114440000Y-65194761D01*
X114420952Y-65156666D01*
X114420952Y-65061428D01*
X114440000Y-65023333D01*
X114459047Y-65004285D01*
X114497142Y-64985238D01*
X114535238Y-64985238D01*
X114592380Y-65004285D01*
X114820952Y-65232857D01*
X114820952Y-64985238D01*
%TO.C,R14*%
D13*
X113617619Y-65775714D02*
X113570000Y-65728095D01*
X113522380Y-65632857D01*
X113522380Y-65394761D01*
X113570000Y-65299523D01*
X113617619Y-65251904D01*
X113712857Y-65204285D01*
X113808095Y-65204285D01*
X113950952Y-65251904D01*
X114522380Y-65823333D01*
X114522380Y-65204285D01*
D15*
X112820952Y-65747142D02*
X112630476Y-65880476D01*
X112820952Y-65975714D02*
X112420952Y-65975714D01*
X112420952Y-65823333D01*
X112440000Y-65785238D01*
X112459047Y-65766190D01*
X112497142Y-65747142D01*
X112554285Y-65747142D01*
X112592380Y-65766190D01*
X112611428Y-65785238D01*
X112630476Y-65823333D01*
X112630476Y-65975714D01*
X112820952Y-65366190D02*
X112820952Y-65594761D01*
X112820952Y-65480476D02*
X112420952Y-65480476D01*
X112478095Y-65518571D01*
X112516190Y-65556666D01*
X112535238Y-65594761D01*
X112554285Y-65023333D02*
X112820952Y-65023333D01*
X112401904Y-65118571D02*
X112687619Y-65213809D01*
X112687619Y-64966190D01*
%TO.C,R15*%
D13*
X118473333Y-79017619D02*
X118520952Y-78970000D01*
X118616190Y-78922380D01*
X118854285Y-78922380D01*
X118949523Y-78970000D01*
X118997142Y-79017619D01*
X119044761Y-79112857D01*
X119044761Y-79208095D01*
X118997142Y-79350952D01*
X118425714Y-79922380D01*
X119044761Y-79922380D01*
X119473333Y-79922380D02*
X119473333Y-78922380D01*
X119568571Y-79541428D02*
X119854285Y-79922380D01*
X119854285Y-79255714D02*
X119473333Y-79636666D01*
X120235238Y-79017619D02*
X120282857Y-78970000D01*
X120378095Y-78922380D01*
X120616190Y-78922380D01*
X120711428Y-78970000D01*
X120759047Y-79017619D01*
X120806666Y-79112857D01*
X120806666Y-79208095D01*
X120759047Y-79350952D01*
X120187619Y-79922380D01*
X120806666Y-79922380D01*
D15*
X119382857Y-78220952D02*
X119249523Y-78030476D01*
X119154285Y-78220952D02*
X119154285Y-77820952D01*
X119306666Y-77820952D01*
X119344761Y-77840000D01*
X119363809Y-77859047D01*
X119382857Y-77897142D01*
X119382857Y-77954285D01*
X119363809Y-77992380D01*
X119344761Y-78011428D01*
X119306666Y-78030476D01*
X119154285Y-78030476D01*
X119763809Y-78220952D02*
X119535238Y-78220952D01*
X119649523Y-78220952D02*
X119649523Y-77820952D01*
X119611428Y-77878095D01*
X119573333Y-77916190D01*
X119535238Y-77935238D01*
X120125714Y-77820952D02*
X119935238Y-77820952D01*
X119916190Y-78011428D01*
X119935238Y-77992380D01*
X119973333Y-77973333D01*
X120068571Y-77973333D01*
X120106666Y-77992380D01*
X120125714Y-78011428D01*
X120144761Y-78049523D01*
X120144761Y-78144761D01*
X120125714Y-78182857D01*
X120106666Y-78201904D01*
X120068571Y-78220952D01*
X119973333Y-78220952D01*
X119935238Y-78201904D01*
X119916190Y-78182857D01*
%TO.C,D4*%
D13*
X108425714Y-78792380D02*
X107854285Y-78792380D01*
X108140000Y-78792380D02*
X108140000Y-77792380D01*
X108044761Y-77935238D01*
X107949523Y-78030476D01*
X107854285Y-78078095D01*
X108854285Y-78792380D02*
X108854285Y-77792380D01*
X109425714Y-78792380D01*
X109425714Y-77792380D01*
X110378095Y-77792380D02*
X109901904Y-77792380D01*
X109854285Y-78268571D01*
X109901904Y-78220952D01*
X109997142Y-78173333D01*
X110235238Y-78173333D01*
X110330476Y-78220952D01*
X110378095Y-78268571D01*
X110425714Y-78363809D01*
X110425714Y-78601904D01*
X110378095Y-78697142D01*
X110330476Y-78744761D01*
X110235238Y-78792380D01*
X109997142Y-78792380D01*
X109901904Y-78744761D01*
X109854285Y-78697142D01*
X110997142Y-78220952D02*
X110901904Y-78173333D01*
X110854285Y-78125714D01*
X110806666Y-78030476D01*
X110806666Y-77982857D01*
X110854285Y-77887619D01*
X110901904Y-77840000D01*
X110997142Y-77792380D01*
X111187619Y-77792380D01*
X111282857Y-77840000D01*
X111330476Y-77887619D01*
X111378095Y-77982857D01*
X111378095Y-78030476D01*
X111330476Y-78125714D01*
X111282857Y-78173333D01*
X111187619Y-78220952D01*
X110997142Y-78220952D01*
X110901904Y-78268571D01*
X110854285Y-78316190D01*
X110806666Y-78411428D01*
X110806666Y-78601904D01*
X110854285Y-78697142D01*
X110901904Y-78744761D01*
X110997142Y-78792380D01*
X111187619Y-78792380D01*
X111282857Y-78744761D01*
X111330476Y-78697142D01*
X111378095Y-78601904D01*
X111378095Y-78411428D01*
X111330476Y-78316190D01*
X111282857Y-78268571D01*
X111187619Y-78220952D01*
X112330476Y-78792380D02*
X111759047Y-78792380D01*
X112044761Y-78792380D02*
X112044761Y-77792380D01*
X111949523Y-77935238D01*
X111854285Y-78030476D01*
X111759047Y-78078095D01*
X112806666Y-78792380D02*
X112997142Y-78792380D01*
X113092380Y-78744761D01*
X113140000Y-78697142D01*
X113235238Y-78554285D01*
X113282857Y-78363809D01*
X113282857Y-77982857D01*
X113235238Y-77887619D01*
X113187619Y-77840000D01*
X113092380Y-77792380D01*
X112901904Y-77792380D01*
X112806666Y-77840000D01*
X112759047Y-77887619D01*
X112711428Y-77982857D01*
X112711428Y-78220952D01*
X112759047Y-78316190D01*
X112806666Y-78363809D01*
X112901904Y-78411428D01*
X113092380Y-78411428D01*
X113187619Y-78363809D01*
X113235238Y-78316190D01*
X113282857Y-78220952D01*
X113616190Y-77792380D02*
X113854285Y-78792380D01*
X114044761Y-78078095D01*
X114235238Y-78792380D01*
X114473333Y-77792380D01*
X110274904Y-74787380D02*
X110274904Y-73787380D01*
X110513000Y-73787380D01*
X110655857Y-73835000D01*
X110751095Y-73930238D01*
X110798714Y-74025476D01*
X110846333Y-74215952D01*
X110846333Y-74358809D01*
X110798714Y-74549285D01*
X110751095Y-74644523D01*
X110655857Y-74739761D01*
X110513000Y-74787380D01*
X110274904Y-74787380D01*
X111703476Y-74120714D02*
X111703476Y-74787380D01*
X111465380Y-73739761D02*
X111227285Y-74454047D01*
X111846333Y-74454047D01*
%TO.C,D5*%
X111825714Y-82692380D02*
X111254285Y-82692380D01*
X111540000Y-82692380D02*
X111540000Y-81692380D01*
X111444761Y-81835238D01*
X111349523Y-81930476D01*
X111254285Y-81978095D01*
X112254285Y-82692380D02*
X112254285Y-81692380D01*
X112825714Y-82692380D01*
X112825714Y-81692380D01*
X113778095Y-81692380D02*
X113301904Y-81692380D01*
X113254285Y-82168571D01*
X113301904Y-82120952D01*
X113397142Y-82073333D01*
X113635238Y-82073333D01*
X113730476Y-82120952D01*
X113778095Y-82168571D01*
X113825714Y-82263809D01*
X113825714Y-82501904D01*
X113778095Y-82597142D01*
X113730476Y-82644761D01*
X113635238Y-82692380D01*
X113397142Y-82692380D01*
X113301904Y-82644761D01*
X113254285Y-82597142D01*
X114397142Y-82120952D02*
X114301904Y-82073333D01*
X114254285Y-82025714D01*
X114206666Y-81930476D01*
X114206666Y-81882857D01*
X114254285Y-81787619D01*
X114301904Y-81740000D01*
X114397142Y-81692380D01*
X114587619Y-81692380D01*
X114682857Y-81740000D01*
X114730476Y-81787619D01*
X114778095Y-81882857D01*
X114778095Y-81930476D01*
X114730476Y-82025714D01*
X114682857Y-82073333D01*
X114587619Y-82120952D01*
X114397142Y-82120952D01*
X114301904Y-82168571D01*
X114254285Y-82216190D01*
X114206666Y-82311428D01*
X114206666Y-82501904D01*
X114254285Y-82597142D01*
X114301904Y-82644761D01*
X114397142Y-82692380D01*
X114587619Y-82692380D01*
X114682857Y-82644761D01*
X114730476Y-82597142D01*
X114778095Y-82501904D01*
X114778095Y-82311428D01*
X114730476Y-82216190D01*
X114682857Y-82168571D01*
X114587619Y-82120952D01*
X115730476Y-82692380D02*
X115159047Y-82692380D01*
X115444761Y-82692380D02*
X115444761Y-81692380D01*
X115349523Y-81835238D01*
X115254285Y-81930476D01*
X115159047Y-81978095D01*
X116206666Y-82692380D02*
X116397142Y-82692380D01*
X116492380Y-82644761D01*
X116540000Y-82597142D01*
X116635238Y-82454285D01*
X116682857Y-82263809D01*
X116682857Y-81882857D01*
X116635238Y-81787619D01*
X116587619Y-81740000D01*
X116492380Y-81692380D01*
X116301904Y-81692380D01*
X116206666Y-81740000D01*
X116159047Y-81787619D01*
X116111428Y-81882857D01*
X116111428Y-82120952D01*
X116159047Y-82216190D01*
X116206666Y-82263809D01*
X116301904Y-82311428D01*
X116492380Y-82311428D01*
X116587619Y-82263809D01*
X116635238Y-82216190D01*
X116682857Y-82120952D01*
X117016190Y-81692380D02*
X117254285Y-82692380D01*
X117444761Y-81978095D01*
X117635238Y-82692380D01*
X117873333Y-81692380D01*
X113674904Y-78687380D02*
X113674904Y-77687380D01*
X113913000Y-77687380D01*
X114055857Y-77735000D01*
X114151095Y-77830238D01*
X114198714Y-77925476D01*
X114246333Y-78115952D01*
X114246333Y-78258809D01*
X114198714Y-78449285D01*
X114151095Y-78544523D01*
X114055857Y-78639761D01*
X113913000Y-78687380D01*
X113674904Y-78687380D01*
X115151095Y-77687380D02*
X114674904Y-77687380D01*
X114627285Y-78163571D01*
X114674904Y-78115952D01*
X114770142Y-78068333D01*
X115008238Y-78068333D01*
X115103476Y-78115952D01*
X115151095Y-78163571D01*
X115198714Y-78258809D01*
X115198714Y-78496904D01*
X115151095Y-78592142D01*
X115103476Y-78639761D01*
X115008238Y-78687380D01*
X114770142Y-78687380D01*
X114674904Y-78639761D01*
X114627285Y-78592142D01*
%TO.C,D7*%
X105925714Y-62592380D02*
X105354285Y-62592380D01*
X105640000Y-62592380D02*
X105640000Y-61592380D01*
X105544761Y-61735238D01*
X105449523Y-61830476D01*
X105354285Y-61878095D01*
X106354285Y-62592380D02*
X106354285Y-61592380D01*
X106925714Y-62592380D01*
X106925714Y-61592380D01*
X107878095Y-61592380D02*
X107401904Y-61592380D01*
X107354285Y-62068571D01*
X107401904Y-62020952D01*
X107497142Y-61973333D01*
X107735238Y-61973333D01*
X107830476Y-62020952D01*
X107878095Y-62068571D01*
X107925714Y-62163809D01*
X107925714Y-62401904D01*
X107878095Y-62497142D01*
X107830476Y-62544761D01*
X107735238Y-62592380D01*
X107497142Y-62592380D01*
X107401904Y-62544761D01*
X107354285Y-62497142D01*
X108497142Y-62020952D02*
X108401904Y-61973333D01*
X108354285Y-61925714D01*
X108306666Y-61830476D01*
X108306666Y-61782857D01*
X108354285Y-61687619D01*
X108401904Y-61640000D01*
X108497142Y-61592380D01*
X108687619Y-61592380D01*
X108782857Y-61640000D01*
X108830476Y-61687619D01*
X108878095Y-61782857D01*
X108878095Y-61830476D01*
X108830476Y-61925714D01*
X108782857Y-61973333D01*
X108687619Y-62020952D01*
X108497142Y-62020952D01*
X108401904Y-62068571D01*
X108354285Y-62116190D01*
X108306666Y-62211428D01*
X108306666Y-62401904D01*
X108354285Y-62497142D01*
X108401904Y-62544761D01*
X108497142Y-62592380D01*
X108687619Y-62592380D01*
X108782857Y-62544761D01*
X108830476Y-62497142D01*
X108878095Y-62401904D01*
X108878095Y-62211428D01*
X108830476Y-62116190D01*
X108782857Y-62068571D01*
X108687619Y-62020952D01*
X109830476Y-62592380D02*
X109259047Y-62592380D01*
X109544761Y-62592380D02*
X109544761Y-61592380D01*
X109449523Y-61735238D01*
X109354285Y-61830476D01*
X109259047Y-61878095D01*
X110306666Y-62592380D02*
X110497142Y-62592380D01*
X110592380Y-62544761D01*
X110640000Y-62497142D01*
X110735238Y-62354285D01*
X110782857Y-62163809D01*
X110782857Y-61782857D01*
X110735238Y-61687619D01*
X110687619Y-61640000D01*
X110592380Y-61592380D01*
X110401904Y-61592380D01*
X110306666Y-61640000D01*
X110259047Y-61687619D01*
X110211428Y-61782857D01*
X110211428Y-62020952D01*
X110259047Y-62116190D01*
X110306666Y-62163809D01*
X110401904Y-62211428D01*
X110592380Y-62211428D01*
X110687619Y-62163809D01*
X110735238Y-62116190D01*
X110782857Y-62020952D01*
X111116190Y-61592380D02*
X111354285Y-62592380D01*
X111544761Y-61878095D01*
X111735238Y-62592380D01*
X111973333Y-61592380D01*
X108028904Y-66597380D02*
X108028904Y-65597380D01*
X108267000Y-65597380D01*
X108409857Y-65645000D01*
X108505095Y-65740238D01*
X108552714Y-65835476D01*
X108600333Y-66025952D01*
X108600333Y-66168809D01*
X108552714Y-66359285D01*
X108505095Y-66454523D01*
X108409857Y-66549761D01*
X108267000Y-66597380D01*
X108028904Y-66597380D01*
X108933666Y-65597380D02*
X109600333Y-65597380D01*
X109171761Y-66597380D01*
%TO.C,D8*%
X109792380Y-77654285D02*
X109792380Y-78225714D01*
X109792380Y-77940000D02*
X108792380Y-77940000D01*
X108935238Y-78035238D01*
X109030476Y-78130476D01*
X109078095Y-78225714D01*
X109792380Y-77225714D02*
X108792380Y-77225714D01*
X109792380Y-76654285D01*
X108792380Y-76654285D01*
X108792380Y-75701904D02*
X108792380Y-76178095D01*
X109268571Y-76225714D01*
X109220952Y-76178095D01*
X109173333Y-76082857D01*
X109173333Y-75844761D01*
X109220952Y-75749523D01*
X109268571Y-75701904D01*
X109363809Y-75654285D01*
X109601904Y-75654285D01*
X109697142Y-75701904D01*
X109744761Y-75749523D01*
X109792380Y-75844761D01*
X109792380Y-76082857D01*
X109744761Y-76178095D01*
X109697142Y-76225714D01*
X109220952Y-75082857D02*
X109173333Y-75178095D01*
X109125714Y-75225714D01*
X109030476Y-75273333D01*
X108982857Y-75273333D01*
X108887619Y-75225714D01*
X108840000Y-75178095D01*
X108792380Y-75082857D01*
X108792380Y-74892380D01*
X108840000Y-74797142D01*
X108887619Y-74749523D01*
X108982857Y-74701904D01*
X109030476Y-74701904D01*
X109125714Y-74749523D01*
X109173333Y-74797142D01*
X109220952Y-74892380D01*
X109220952Y-75082857D01*
X109268571Y-75178095D01*
X109316190Y-75225714D01*
X109411428Y-75273333D01*
X109601904Y-75273333D01*
X109697142Y-75225714D01*
X109744761Y-75178095D01*
X109792380Y-75082857D01*
X109792380Y-74892380D01*
X109744761Y-74797142D01*
X109697142Y-74749523D01*
X109601904Y-74701904D01*
X109411428Y-74701904D01*
X109316190Y-74749523D01*
X109268571Y-74797142D01*
X109220952Y-74892380D01*
X109792380Y-73749523D02*
X109792380Y-74320952D01*
X109792380Y-74035238D02*
X108792380Y-74035238D01*
X108935238Y-74130476D01*
X109030476Y-74225714D01*
X109078095Y-74320952D01*
X109792380Y-73273333D02*
X109792380Y-73082857D01*
X109744761Y-72987619D01*
X109697142Y-72940000D01*
X109554285Y-72844761D01*
X109363809Y-72797142D01*
X108982857Y-72797142D01*
X108887619Y-72844761D01*
X108840000Y-72892380D01*
X108792380Y-72987619D01*
X108792380Y-73178095D01*
X108840000Y-73273333D01*
X108887619Y-73320952D01*
X108982857Y-73368571D01*
X109220952Y-73368571D01*
X109316190Y-73320952D01*
X109363809Y-73273333D01*
X109411428Y-73178095D01*
X109411428Y-72987619D01*
X109363809Y-72892380D01*
X109316190Y-72844761D01*
X109220952Y-72797142D01*
X108792380Y-72463809D02*
X109792380Y-72225714D01*
X109078095Y-72035238D01*
X109792380Y-71844761D01*
X108792380Y-71606666D01*
X105787380Y-75805095D02*
X104787380Y-75805095D01*
X104787380Y-75567000D01*
X104835000Y-75424142D01*
X104930238Y-75328904D01*
X105025476Y-75281285D01*
X105215952Y-75233666D01*
X105358809Y-75233666D01*
X105549285Y-75281285D01*
X105644523Y-75328904D01*
X105739761Y-75424142D01*
X105787380Y-75567000D01*
X105787380Y-75805095D01*
X105215952Y-74662238D02*
X105168333Y-74757476D01*
X105120714Y-74805095D01*
X105025476Y-74852714D01*
X104977857Y-74852714D01*
X104882619Y-74805095D01*
X104835000Y-74757476D01*
X104787380Y-74662238D01*
X104787380Y-74471761D01*
X104835000Y-74376523D01*
X104882619Y-74328904D01*
X104977857Y-74281285D01*
X105025476Y-74281285D01*
X105120714Y-74328904D01*
X105168333Y-74376523D01*
X105215952Y-74471761D01*
X105215952Y-74662238D01*
X105263571Y-74757476D01*
X105311190Y-74805095D01*
X105406428Y-74852714D01*
X105596904Y-74852714D01*
X105692142Y-74805095D01*
X105739761Y-74757476D01*
X105787380Y-74662238D01*
X105787380Y-74471761D01*
X105739761Y-74376523D01*
X105692142Y-74328904D01*
X105596904Y-74281285D01*
X105406428Y-74281285D01*
X105311190Y-74328904D01*
X105263571Y-74376523D01*
X105215952Y-74471761D01*
%TO.C,J4*%
X91511904Y-76557142D02*
X91464285Y-76604761D01*
X91321428Y-76652380D01*
X91226190Y-76652380D01*
X91083333Y-76604761D01*
X90988095Y-76509523D01*
X90940476Y-76414285D01*
X90892857Y-76223809D01*
X90892857Y-76080952D01*
X90940476Y-75890476D01*
X90988095Y-75795238D01*
X91083333Y-75700000D01*
X91226190Y-75652380D01*
X91321428Y-75652380D01*
X91464285Y-75700000D01*
X91511904Y-75747619D01*
X92083333Y-76652380D02*
X91988095Y-76604761D01*
X91940476Y-76557142D01*
X91892857Y-76461904D01*
X91892857Y-76176190D01*
X91940476Y-76080952D01*
X91988095Y-76033333D01*
X92083333Y-75985714D01*
X92226190Y-75985714D01*
X92321428Y-76033333D01*
X92369047Y-76080952D01*
X92416666Y-76176190D01*
X92416666Y-76461904D01*
X92369047Y-76557142D01*
X92321428Y-76604761D01*
X92226190Y-76652380D01*
X92083333Y-76652380D01*
X92845238Y-75985714D02*
X92845238Y-76652380D01*
X92845238Y-76080952D02*
X92892857Y-76033333D01*
X92988095Y-75985714D01*
X93130952Y-75985714D01*
X93226190Y-76033333D01*
X93273809Y-76128571D01*
X93273809Y-76652380D01*
X93750000Y-75985714D02*
X93750000Y-76652380D01*
X93750000Y-76080952D02*
X93797619Y-76033333D01*
X93892857Y-75985714D01*
X94035714Y-75985714D01*
X94130952Y-76033333D01*
X94178571Y-76128571D01*
X94178571Y-76652380D01*
X94416666Y-76747619D02*
X95178571Y-76747619D01*
X95607142Y-75652380D02*
X95702380Y-75652380D01*
X95797619Y-75700000D01*
X95845238Y-75747619D01*
X95892857Y-75842857D01*
X95940476Y-76033333D01*
X95940476Y-76271428D01*
X95892857Y-76461904D01*
X95845238Y-76557142D01*
X95797619Y-76604761D01*
X95702380Y-76652380D01*
X95607142Y-76652380D01*
X95511904Y-76604761D01*
X95464285Y-76557142D01*
X95416666Y-76461904D01*
X95369047Y-76271428D01*
X95369047Y-76033333D01*
X95416666Y-75842857D01*
X95464285Y-75747619D01*
X95511904Y-75700000D01*
X95607142Y-75652380D01*
X96892857Y-76652380D02*
X96321428Y-76652380D01*
X96607142Y-76652380D02*
X96607142Y-75652380D01*
X96511904Y-75795238D01*
X96416666Y-75890476D01*
X96321428Y-75938095D01*
X97226190Y-76652380D02*
X97750000Y-75985714D01*
X97226190Y-75985714D02*
X97750000Y-76652380D01*
X98321428Y-75652380D02*
X98416666Y-75652380D01*
X98511904Y-75700000D01*
X98559523Y-75747619D01*
X98607142Y-75842857D01*
X98654761Y-76033333D01*
X98654761Y-76271428D01*
X98607142Y-76461904D01*
X98559523Y-76557142D01*
X98511904Y-76604761D01*
X98416666Y-76652380D01*
X98321428Y-76652380D01*
X98226190Y-76604761D01*
X98178571Y-76557142D01*
X98130952Y-76461904D01*
X98083333Y-76271428D01*
X98083333Y-76033333D01*
X98130952Y-75842857D01*
X98178571Y-75747619D01*
X98226190Y-75700000D01*
X98321428Y-75652380D01*
X99607142Y-76652380D02*
X99035714Y-76652380D01*
X99321428Y-76652380D02*
X99321428Y-75652380D01*
X99226190Y-75795238D01*
X99130952Y-75890476D01*
X99035714Y-75938095D01*
X103806666Y-75652380D02*
X103806666Y-76366666D01*
X103759047Y-76509523D01*
X103663809Y-76604761D01*
X103520952Y-76652380D01*
X103425714Y-76652380D01*
X104711428Y-75985714D02*
X104711428Y-76652380D01*
X104473333Y-75604761D02*
X104235238Y-76319047D01*
X104854285Y-76319047D01*
%TO.C,J5*%
X132151904Y-84177142D02*
X132104285Y-84224761D01*
X131961428Y-84272380D01*
X131866190Y-84272380D01*
X131723333Y-84224761D01*
X131628095Y-84129523D01*
X131580476Y-84034285D01*
X131532857Y-83843809D01*
X131532857Y-83700952D01*
X131580476Y-83510476D01*
X131628095Y-83415238D01*
X131723333Y-83320000D01*
X131866190Y-83272380D01*
X131961428Y-83272380D01*
X132104285Y-83320000D01*
X132151904Y-83367619D01*
X132723333Y-84272380D02*
X132628095Y-84224761D01*
X132580476Y-84177142D01*
X132532857Y-84081904D01*
X132532857Y-83796190D01*
X132580476Y-83700952D01*
X132628095Y-83653333D01*
X132723333Y-83605714D01*
X132866190Y-83605714D01*
X132961428Y-83653333D01*
X133009047Y-83700952D01*
X133056666Y-83796190D01*
X133056666Y-84081904D01*
X133009047Y-84177142D01*
X132961428Y-84224761D01*
X132866190Y-84272380D01*
X132723333Y-84272380D01*
X133485238Y-83605714D02*
X133485238Y-84272380D01*
X133485238Y-83700952D02*
X133532857Y-83653333D01*
X133628095Y-83605714D01*
X133770952Y-83605714D01*
X133866190Y-83653333D01*
X133913809Y-83748571D01*
X133913809Y-84272380D01*
X134390000Y-83605714D02*
X134390000Y-84272380D01*
X134390000Y-83700952D02*
X134437619Y-83653333D01*
X134532857Y-83605714D01*
X134675714Y-83605714D01*
X134770952Y-83653333D01*
X134818571Y-83748571D01*
X134818571Y-84272380D01*
X135056666Y-84367619D02*
X135818571Y-84367619D01*
X136247142Y-83272380D02*
X136342380Y-83272380D01*
X136437619Y-83320000D01*
X136485238Y-83367619D01*
X136532857Y-83462857D01*
X136580476Y-83653333D01*
X136580476Y-83891428D01*
X136532857Y-84081904D01*
X136485238Y-84177142D01*
X136437619Y-84224761D01*
X136342380Y-84272380D01*
X136247142Y-84272380D01*
X136151904Y-84224761D01*
X136104285Y-84177142D01*
X136056666Y-84081904D01*
X136009047Y-83891428D01*
X136009047Y-83653333D01*
X136056666Y-83462857D01*
X136104285Y-83367619D01*
X136151904Y-83320000D01*
X136247142Y-83272380D01*
X137532857Y-84272380D02*
X136961428Y-84272380D01*
X137247142Y-84272380D02*
X137247142Y-83272380D01*
X137151904Y-83415238D01*
X137056666Y-83510476D01*
X136961428Y-83558095D01*
X137866190Y-84272380D02*
X138390000Y-83605714D01*
X137866190Y-83605714D02*
X138390000Y-84272380D01*
X138961428Y-83272380D02*
X139056666Y-83272380D01*
X139151904Y-83320000D01*
X139199523Y-83367619D01*
X139247142Y-83462857D01*
X139294761Y-83653333D01*
X139294761Y-83891428D01*
X139247142Y-84081904D01*
X139199523Y-84177142D01*
X139151904Y-84224761D01*
X139056666Y-84272380D01*
X138961428Y-84272380D01*
X138866190Y-84224761D01*
X138818571Y-84177142D01*
X138770952Y-84081904D01*
X138723333Y-83891428D01*
X138723333Y-83653333D01*
X138770952Y-83462857D01*
X138818571Y-83367619D01*
X138866190Y-83320000D01*
X138961428Y-83272380D01*
X140247142Y-84272380D02*
X139675714Y-84272380D01*
X139961428Y-84272380D02*
X139961428Y-83272380D01*
X139866190Y-83415238D01*
X139770952Y-83510476D01*
X139675714Y-83558095D01*
X126666666Y-83272380D02*
X126666666Y-83986666D01*
X126619047Y-84129523D01*
X126523809Y-84224761D01*
X126380952Y-84272380D01*
X126285714Y-84272380D01*
X127619047Y-83272380D02*
X127142857Y-83272380D01*
X127095238Y-83748571D01*
X127142857Y-83700952D01*
X127238095Y-83653333D01*
X127476190Y-83653333D01*
X127571428Y-83700952D01*
X127619047Y-83748571D01*
X127666666Y-83843809D01*
X127666666Y-84081904D01*
X127619047Y-84177142D01*
X127571428Y-84224761D01*
X127476190Y-84272380D01*
X127238095Y-84272380D01*
X127142857Y-84224761D01*
X127095238Y-84177142D01*
%TO.C,J6*%
X91511904Y-84177142D02*
X91464285Y-84224761D01*
X91321428Y-84272380D01*
X91226190Y-84272380D01*
X91083333Y-84224761D01*
X90988095Y-84129523D01*
X90940476Y-84034285D01*
X90892857Y-83843809D01*
X90892857Y-83700952D01*
X90940476Y-83510476D01*
X90988095Y-83415238D01*
X91083333Y-83320000D01*
X91226190Y-83272380D01*
X91321428Y-83272380D01*
X91464285Y-83320000D01*
X91511904Y-83367619D01*
X92083333Y-84272380D02*
X91988095Y-84224761D01*
X91940476Y-84177142D01*
X91892857Y-84081904D01*
X91892857Y-83796190D01*
X91940476Y-83700952D01*
X91988095Y-83653333D01*
X92083333Y-83605714D01*
X92226190Y-83605714D01*
X92321428Y-83653333D01*
X92369047Y-83700952D01*
X92416666Y-83796190D01*
X92416666Y-84081904D01*
X92369047Y-84177142D01*
X92321428Y-84224761D01*
X92226190Y-84272380D01*
X92083333Y-84272380D01*
X92845238Y-83605714D02*
X92845238Y-84272380D01*
X92845238Y-83700952D02*
X92892857Y-83653333D01*
X92988095Y-83605714D01*
X93130952Y-83605714D01*
X93226190Y-83653333D01*
X93273809Y-83748571D01*
X93273809Y-84272380D01*
X93750000Y-83605714D02*
X93750000Y-84272380D01*
X93750000Y-83700952D02*
X93797619Y-83653333D01*
X93892857Y-83605714D01*
X94035714Y-83605714D01*
X94130952Y-83653333D01*
X94178571Y-83748571D01*
X94178571Y-84272380D01*
X94416666Y-84367619D02*
X95178571Y-84367619D01*
X95607142Y-83272380D02*
X95702380Y-83272380D01*
X95797619Y-83320000D01*
X95845238Y-83367619D01*
X95892857Y-83462857D01*
X95940476Y-83653333D01*
X95940476Y-83891428D01*
X95892857Y-84081904D01*
X95845238Y-84177142D01*
X95797619Y-84224761D01*
X95702380Y-84272380D01*
X95607142Y-84272380D01*
X95511904Y-84224761D01*
X95464285Y-84177142D01*
X95416666Y-84081904D01*
X95369047Y-83891428D01*
X95369047Y-83653333D01*
X95416666Y-83462857D01*
X95464285Y-83367619D01*
X95511904Y-83320000D01*
X95607142Y-83272380D01*
X96892857Y-84272380D02*
X96321428Y-84272380D01*
X96607142Y-84272380D02*
X96607142Y-83272380D01*
X96511904Y-83415238D01*
X96416666Y-83510476D01*
X96321428Y-83558095D01*
X97226190Y-84272380D02*
X97750000Y-83605714D01*
X97226190Y-83605714D02*
X97750000Y-84272380D01*
X98321428Y-83272380D02*
X98416666Y-83272380D01*
X98511904Y-83320000D01*
X98559523Y-83367619D01*
X98607142Y-83462857D01*
X98654761Y-83653333D01*
X98654761Y-83891428D01*
X98607142Y-84081904D01*
X98559523Y-84177142D01*
X98511904Y-84224761D01*
X98416666Y-84272380D01*
X98321428Y-84272380D01*
X98226190Y-84224761D01*
X98178571Y-84177142D01*
X98130952Y-84081904D01*
X98083333Y-83891428D01*
X98083333Y-83653333D01*
X98130952Y-83462857D01*
X98178571Y-83367619D01*
X98226190Y-83320000D01*
X98321428Y-83272380D01*
X99607142Y-84272380D02*
X99035714Y-84272380D01*
X99321428Y-84272380D02*
X99321428Y-83272380D01*
X99226190Y-83415238D01*
X99130952Y-83510476D01*
X99035714Y-83558095D01*
X103806666Y-83272380D02*
X103806666Y-83986666D01*
X103759047Y-84129523D01*
X103663809Y-84224761D01*
X103520952Y-84272380D01*
X103425714Y-84272380D01*
X104711428Y-83272380D02*
X104520952Y-83272380D01*
X104425714Y-83320000D01*
X104378095Y-83367619D01*
X104282857Y-83510476D01*
X104235238Y-83700952D01*
X104235238Y-84081904D01*
X104282857Y-84177142D01*
X104330476Y-84224761D01*
X104425714Y-84272380D01*
X104616190Y-84272380D01*
X104711428Y-84224761D01*
X104759047Y-84177142D01*
X104806666Y-84081904D01*
X104806666Y-83843809D01*
X104759047Y-83748571D01*
X104711428Y-83700952D01*
X104616190Y-83653333D01*
X104425714Y-83653333D01*
X104330476Y-83700952D01*
X104282857Y-83748571D01*
X104235238Y-83843809D01*
%TO.C,C5*%
X105125714Y-84906666D02*
X105792380Y-84906666D01*
X104744761Y-85144761D02*
X105459047Y-85382857D01*
X105459047Y-84763809D01*
X104792380Y-84478095D02*
X104792380Y-83811428D01*
X105792380Y-84240000D01*
X105125714Y-83001904D02*
X105792380Y-83001904D01*
X105125714Y-83430476D02*
X105649523Y-83430476D01*
X105744761Y-83382857D01*
X105792380Y-83287619D01*
X105792380Y-83144761D01*
X105744761Y-83049523D01*
X105697142Y-83001904D01*
X105268571Y-82192380D02*
X105268571Y-82525714D01*
X105792380Y-82525714D02*
X104792380Y-82525714D01*
X104792380Y-82049523D01*
D12*
X107925714Y-83873333D02*
X107963809Y-83911428D01*
X108001904Y-84025714D01*
X108001904Y-84101904D01*
X107963809Y-84216190D01*
X107887619Y-84292380D01*
X107811428Y-84330476D01*
X107659047Y-84368571D01*
X107544761Y-84368571D01*
X107392380Y-84330476D01*
X107316190Y-84292380D01*
X107240000Y-84216190D01*
X107201904Y-84101904D01*
X107201904Y-84025714D01*
X107240000Y-83911428D01*
X107278095Y-83873333D01*
X107201904Y-83149523D02*
X107201904Y-83530476D01*
X107582857Y-83568571D01*
X107544761Y-83530476D01*
X107506666Y-83454285D01*
X107506666Y-83263809D01*
X107544761Y-83187619D01*
X107582857Y-83149523D01*
X107659047Y-83111428D01*
X107849523Y-83111428D01*
X107925714Y-83149523D01*
X107963809Y-83187619D01*
X108001904Y-83263809D01*
X108001904Y-83454285D01*
X107963809Y-83530476D01*
X107925714Y-83568571D01*
%TO.C,D1*%
D13*
X106625714Y-82692380D02*
X106054285Y-82692380D01*
X106340000Y-82692380D02*
X106340000Y-81692380D01*
X106244761Y-81835238D01*
X106149523Y-81930476D01*
X106054285Y-81978095D01*
X107054285Y-82692380D02*
X107054285Y-81692380D01*
X107625714Y-82692380D01*
X107625714Y-81692380D01*
X108578095Y-81692380D02*
X108101904Y-81692380D01*
X108054285Y-82168571D01*
X108101904Y-82120952D01*
X108197142Y-82073333D01*
X108435238Y-82073333D01*
X108530476Y-82120952D01*
X108578095Y-82168571D01*
X108625714Y-82263809D01*
X108625714Y-82501904D01*
X108578095Y-82597142D01*
X108530476Y-82644761D01*
X108435238Y-82692380D01*
X108197142Y-82692380D01*
X108101904Y-82644761D01*
X108054285Y-82597142D01*
X109197142Y-82120952D02*
X109101904Y-82073333D01*
X109054285Y-82025714D01*
X109006666Y-81930476D01*
X109006666Y-81882857D01*
X109054285Y-81787619D01*
X109101904Y-81740000D01*
X109197142Y-81692380D01*
X109387619Y-81692380D01*
X109482857Y-81740000D01*
X109530476Y-81787619D01*
X109578095Y-81882857D01*
X109578095Y-81930476D01*
X109530476Y-82025714D01*
X109482857Y-82073333D01*
X109387619Y-82120952D01*
X109197142Y-82120952D01*
X109101904Y-82168571D01*
X109054285Y-82216190D01*
X109006666Y-82311428D01*
X109006666Y-82501904D01*
X109054285Y-82597142D01*
X109101904Y-82644761D01*
X109197142Y-82692380D01*
X109387619Y-82692380D01*
X109482857Y-82644761D01*
X109530476Y-82597142D01*
X109578095Y-82501904D01*
X109578095Y-82311428D01*
X109530476Y-82216190D01*
X109482857Y-82168571D01*
X109387619Y-82120952D01*
X110530476Y-82692380D02*
X109959047Y-82692380D01*
X110244761Y-82692380D02*
X110244761Y-81692380D01*
X110149523Y-81835238D01*
X110054285Y-81930476D01*
X109959047Y-81978095D01*
X111006666Y-82692380D02*
X111197142Y-82692380D01*
X111292380Y-82644761D01*
X111340000Y-82597142D01*
X111435238Y-82454285D01*
X111482857Y-82263809D01*
X111482857Y-81882857D01*
X111435238Y-81787619D01*
X111387619Y-81740000D01*
X111292380Y-81692380D01*
X111101904Y-81692380D01*
X111006666Y-81740000D01*
X110959047Y-81787619D01*
X110911428Y-81882857D01*
X110911428Y-82120952D01*
X110959047Y-82216190D01*
X111006666Y-82263809D01*
X111101904Y-82311428D01*
X111292380Y-82311428D01*
X111387619Y-82263809D01*
X111435238Y-82216190D01*
X111482857Y-82120952D01*
X111816190Y-81692380D02*
X112054285Y-82692380D01*
X112244761Y-81978095D01*
X112435238Y-82692380D01*
X112673333Y-81692380D01*
X108474904Y-78687380D02*
X108474904Y-77687380D01*
X108713000Y-77687380D01*
X108855857Y-77735000D01*
X108951095Y-77830238D01*
X108998714Y-77925476D01*
X109046333Y-78115952D01*
X109046333Y-78258809D01*
X108998714Y-78449285D01*
X108951095Y-78544523D01*
X108855857Y-78639761D01*
X108713000Y-78687380D01*
X108474904Y-78687380D01*
X109998714Y-78687380D02*
X109427285Y-78687380D01*
X109713000Y-78687380D02*
X109713000Y-77687380D01*
X109617761Y-77830238D01*
X109522523Y-77925476D01*
X109427285Y-77973095D01*
%TO.C,L1*%
X113549523Y-88292380D02*
X113549523Y-87292380D01*
X113882857Y-88006666D01*
X114216190Y-87292380D01*
X114216190Y-88292380D01*
X114597142Y-87292380D02*
X114835238Y-88292380D01*
X115025714Y-87578095D01*
X115216190Y-88292380D01*
X115454285Y-87292380D01*
X115787619Y-88244761D02*
X115930476Y-88292380D01*
X116168571Y-88292380D01*
X116263809Y-88244761D01*
X116311428Y-88197142D01*
X116359047Y-88101904D01*
X116359047Y-88006666D01*
X116311428Y-87911428D01*
X116263809Y-87863809D01*
X116168571Y-87816190D01*
X115978095Y-87768571D01*
X115882857Y-87720952D01*
X115835238Y-87673333D01*
X115787619Y-87578095D01*
X115787619Y-87482857D01*
X115835238Y-87387619D01*
X115882857Y-87340000D01*
X115978095Y-87292380D01*
X116216190Y-87292380D01*
X116359047Y-87340000D01*
X116740000Y-88006666D02*
X117216190Y-88006666D01*
X116644761Y-88292380D02*
X116978095Y-87292380D01*
X117311428Y-88292380D01*
X117835238Y-87292380D02*
X117930476Y-87292380D01*
X118025714Y-87340000D01*
X118073333Y-87387619D01*
X118120952Y-87482857D01*
X118168571Y-87673333D01*
X118168571Y-87911428D01*
X118120952Y-88101904D01*
X118073333Y-88197142D01*
X118025714Y-88244761D01*
X117930476Y-88292380D01*
X117835238Y-88292380D01*
X117740000Y-88244761D01*
X117692380Y-88197142D01*
X117644761Y-88101904D01*
X117597142Y-87911428D01*
X117597142Y-87673333D01*
X117644761Y-87482857D01*
X117692380Y-87387619D01*
X117740000Y-87340000D01*
X117835238Y-87292380D01*
X119025714Y-87292380D02*
X118835238Y-87292380D01*
X118740000Y-87340000D01*
X118692380Y-87387619D01*
X118597142Y-87530476D01*
X118549523Y-87720952D01*
X118549523Y-88101904D01*
X118597142Y-88197142D01*
X118644761Y-88244761D01*
X118740000Y-88292380D01*
X118930476Y-88292380D01*
X119025714Y-88244761D01*
X119073333Y-88197142D01*
X119120952Y-88101904D01*
X119120952Y-87863809D01*
X119073333Y-87768571D01*
X119025714Y-87720952D01*
X118930476Y-87673333D01*
X118740000Y-87673333D01*
X118644761Y-87720952D01*
X118597142Y-87768571D01*
X118549523Y-87863809D01*
X119740000Y-87292380D02*
X119835238Y-87292380D01*
X119930476Y-87340000D01*
X119978095Y-87387619D01*
X120025714Y-87482857D01*
X120073333Y-87673333D01*
X120073333Y-87911428D01*
X120025714Y-88101904D01*
X119978095Y-88197142D01*
X119930476Y-88244761D01*
X119835238Y-88292380D01*
X119740000Y-88292380D01*
X119644761Y-88244761D01*
X119597142Y-88197142D01*
X119549523Y-88101904D01*
X119501904Y-87911428D01*
X119501904Y-87673333D01*
X119549523Y-87482857D01*
X119597142Y-87387619D01*
X119644761Y-87340000D01*
X119740000Y-87292380D01*
X120406666Y-87292380D02*
X121025714Y-87292380D01*
X120692380Y-87673333D01*
X120835238Y-87673333D01*
X120930476Y-87720952D01*
X120978095Y-87768571D01*
X121025714Y-87863809D01*
X121025714Y-88101904D01*
X120978095Y-88197142D01*
X120930476Y-88244761D01*
X120835238Y-88292380D01*
X120549523Y-88292380D01*
X120454285Y-88244761D01*
X120406666Y-88197142D01*
X121406666Y-88244761D02*
X121549523Y-88292380D01*
X121787619Y-88292380D01*
X121882857Y-88244761D01*
X121930476Y-88197142D01*
X121978095Y-88101904D01*
X121978095Y-88006666D01*
X121930476Y-87911428D01*
X121882857Y-87863809D01*
X121787619Y-87816190D01*
X121597142Y-87768571D01*
X121501904Y-87720952D01*
X121454285Y-87673333D01*
X121406666Y-87578095D01*
X121406666Y-87482857D01*
X121454285Y-87387619D01*
X121501904Y-87340000D01*
X121597142Y-87292380D01*
X121835238Y-87292380D01*
X121978095Y-87340000D01*
X122406666Y-87911428D02*
X123168571Y-87911428D01*
X123549523Y-87292380D02*
X124168571Y-87292380D01*
X123835238Y-87673333D01*
X123978095Y-87673333D01*
X124073333Y-87720952D01*
X124120952Y-87768571D01*
X124168571Y-87863809D01*
X124168571Y-88101904D01*
X124120952Y-88197142D01*
X124073333Y-88244761D01*
X123978095Y-88292380D01*
X123692380Y-88292380D01*
X123597142Y-88244761D01*
X123549523Y-88197142D01*
X124501904Y-87292380D02*
X125120952Y-87292380D01*
X124787619Y-87673333D01*
X124930476Y-87673333D01*
X125025714Y-87720952D01*
X125073333Y-87768571D01*
X125120952Y-87863809D01*
X125120952Y-88101904D01*
X125073333Y-88197142D01*
X125025714Y-88244761D01*
X124930476Y-88292380D01*
X124644761Y-88292380D01*
X124549523Y-88244761D01*
X124501904Y-88197142D01*
X125740000Y-87292380D02*
X125835238Y-87292380D01*
X125930476Y-87340000D01*
X125978095Y-87387619D01*
X126025714Y-87482857D01*
X126073333Y-87673333D01*
X126073333Y-87911428D01*
X126025714Y-88101904D01*
X125978095Y-88197142D01*
X125930476Y-88244761D01*
X125835238Y-88292380D01*
X125740000Y-88292380D01*
X125644761Y-88244761D01*
X125597142Y-88197142D01*
X125549523Y-88101904D01*
X125501904Y-87911428D01*
X125501904Y-87673333D01*
X125549523Y-87482857D01*
X125597142Y-87387619D01*
X125644761Y-87340000D01*
X125740000Y-87292380D01*
X126501904Y-88292380D02*
X126501904Y-87292380D01*
X126835238Y-88006666D01*
X127168571Y-87292380D01*
X127168571Y-88292380D01*
X127501904Y-87292380D02*
X128073333Y-87292380D01*
X127787619Y-88292380D02*
X127787619Y-87292380D01*
X120573333Y-83792380D02*
X120097142Y-83792380D01*
X120097142Y-82792380D01*
X121430476Y-83792380D02*
X120859047Y-83792380D01*
X121144761Y-83792380D02*
X121144761Y-82792380D01*
X121049523Y-82935238D01*
X120954285Y-83030476D01*
X120859047Y-83078095D01*
%TD*%
M02*
