%TF.GenerationSoftware,KiCad,Pcbnew,(5.1.6)-1*%
%TF.CreationDate,2020-12-16T00:39:39+01:00*%
%TF.ProjectId,02_Batt_Alim,30325f42-6174-4745-9f41-6c696d2e6b69,rev?*%
%TF.SameCoordinates,Original*%
%TF.FileFunction,Legend,Bot*%
%TF.FilePolarity,Positive*%
%FSLAX46Y46*%
G04 Gerber Fmt 4.6, Leading zero omitted, Abs format (unit mm)*
G04 Created by KiCad (PCBNEW (5.1.6)-1) date 2020-12-16 00:39:39*
%MOMM*%
%LPD*%
G01*
G04 APERTURE LIST*
%TA.AperFunction,Profile*%
%ADD10C,0.050000*%
%TD*%
%ADD11C,0.300000*%
G04 APERTURE END LIST*
D10*
X99441000Y-54610000D02*
X99441000Y-81280000D01*
X157861000Y-54610000D02*
X99441000Y-54610000D01*
X157861000Y-81280000D02*
X157861000Y-54610000D01*
X99441000Y-81280000D02*
X157861000Y-81280000D01*
D11*
X146552428Y-68472857D02*
X146338142Y-68544285D01*
X146266714Y-68615714D01*
X146195285Y-68758571D01*
X146195285Y-68972857D01*
X146266714Y-69115714D01*
X146338142Y-69187142D01*
X146481000Y-69258571D01*
X147052428Y-69258571D01*
X147052428Y-67758571D01*
X146552428Y-67758571D01*
X146409571Y-67830000D01*
X146338142Y-67901428D01*
X146266714Y-68044285D01*
X146266714Y-68187142D01*
X146338142Y-68330000D01*
X146409571Y-68401428D01*
X146552428Y-68472857D01*
X147052428Y-68472857D01*
X144909571Y-69258571D02*
X144909571Y-68472857D01*
X144981000Y-68330000D01*
X145123857Y-68258571D01*
X145409571Y-68258571D01*
X145552428Y-68330000D01*
X144909571Y-69187142D02*
X145052428Y-69258571D01*
X145409571Y-69258571D01*
X145552428Y-69187142D01*
X145623857Y-69044285D01*
X145623857Y-68901428D01*
X145552428Y-68758571D01*
X145409571Y-68687142D01*
X145052428Y-68687142D01*
X144909571Y-68615714D01*
X144409571Y-68258571D02*
X143838142Y-68258571D01*
X144195285Y-67758571D02*
X144195285Y-69044285D01*
X144123857Y-69187142D01*
X143981000Y-69258571D01*
X143838142Y-69258571D01*
X143552428Y-68258571D02*
X142981000Y-68258571D01*
X143338142Y-67758571D02*
X143338142Y-69044285D01*
X143266714Y-69187142D01*
X143123857Y-69258571D01*
X142981000Y-69258571D01*
X142838142Y-69401428D02*
X141695285Y-69401428D01*
X141409571Y-68830000D02*
X140695285Y-68830000D01*
X141552428Y-69258571D02*
X141052428Y-67758571D01*
X140552428Y-69258571D01*
X139838142Y-69258571D02*
X139981000Y-69187142D01*
X140052428Y-69044285D01*
X140052428Y-67758571D01*
X139266714Y-69258571D02*
X139266714Y-68258571D01*
X139266714Y-67758571D02*
X139338142Y-67830000D01*
X139266714Y-67901428D01*
X139195285Y-67830000D01*
X139266714Y-67758571D01*
X139266714Y-67901428D01*
X138552428Y-69258571D02*
X138552428Y-68258571D01*
X138552428Y-68401428D02*
X138481000Y-68330000D01*
X138338142Y-68258571D01*
X138123857Y-68258571D01*
X137981000Y-68330000D01*
X137909571Y-68472857D01*
X137909571Y-69258571D01*
X137909571Y-68472857D02*
X137838142Y-68330000D01*
X137695285Y-68258571D01*
X137481000Y-68258571D01*
X137338142Y-68330000D01*
X137266714Y-68472857D01*
X137266714Y-69258571D01*
X134338142Y-67901428D02*
X134266714Y-67830000D01*
X134123857Y-67758571D01*
X133766714Y-67758571D01*
X133623857Y-67830000D01*
X133552428Y-67901428D01*
X133481000Y-68044285D01*
X133481000Y-68187142D01*
X133552428Y-68401428D01*
X134409571Y-69258571D01*
X133481000Y-69258571D01*
X132552428Y-67758571D02*
X132409571Y-67758571D01*
X132266714Y-67830000D01*
X132195285Y-67901428D01*
X132123857Y-68044285D01*
X132052428Y-68330000D01*
X132052428Y-68687142D01*
X132123857Y-68972857D01*
X132195285Y-69115714D01*
X132266714Y-69187142D01*
X132409571Y-69258571D01*
X132552428Y-69258571D01*
X132695285Y-69187142D01*
X132766714Y-69115714D01*
X132838142Y-68972857D01*
X132909571Y-68687142D01*
X132909571Y-68330000D01*
X132838142Y-68044285D01*
X132766714Y-67901428D01*
X132695285Y-67830000D01*
X132552428Y-67758571D01*
X131480999Y-67901428D02*
X131409571Y-67830000D01*
X131266714Y-67758571D01*
X130909571Y-67758571D01*
X130766714Y-67830000D01*
X130695285Y-67901428D01*
X130623857Y-68044285D01*
X130623857Y-68187142D01*
X130695285Y-68401428D01*
X131552428Y-69258571D01*
X130623857Y-69258571D01*
X129695285Y-67758571D02*
X129552428Y-67758571D01*
X129409571Y-67830000D01*
X129338142Y-67901428D01*
X129266714Y-68044285D01*
X129195285Y-68330000D01*
X129195285Y-68687142D01*
X129266714Y-68972857D01*
X129338142Y-69115714D01*
X129409571Y-69187142D01*
X129552428Y-69258571D01*
X129695285Y-69258571D01*
X129838142Y-69187142D01*
X129909571Y-69115714D01*
X129980999Y-68972857D01*
X130052428Y-68687142D01*
X130052428Y-68330000D01*
X129980999Y-68044285D01*
X129909571Y-67901428D01*
X129838142Y-67830000D01*
X129695285Y-67758571D01*
X127480999Y-67687142D02*
X128766714Y-69615714D01*
X126195285Y-69258571D02*
X127052428Y-69258571D01*
X126623857Y-69258571D02*
X126623857Y-67758571D01*
X126766714Y-67972857D01*
X126909571Y-68115714D01*
X127052428Y-68187142D01*
X125623857Y-67901428D02*
X125552428Y-67830000D01*
X125409571Y-67758571D01*
X125052428Y-67758571D01*
X124909571Y-67830000D01*
X124838142Y-67901428D01*
X124766714Y-68044285D01*
X124766714Y-68187142D01*
X124838142Y-68401428D01*
X125695285Y-69258571D01*
X124766714Y-69258571D01*
X123052428Y-67687142D02*
X124338142Y-69615714D01*
X121766714Y-69258571D02*
X122623857Y-69258571D01*
X122195285Y-69258571D02*
X122195285Y-67758571D01*
X122338142Y-67972857D01*
X122480999Y-68115714D01*
X122623857Y-68187142D01*
X120409571Y-67758571D02*
X121123857Y-67758571D01*
X121195285Y-68472857D01*
X121123857Y-68401428D01*
X120980999Y-68330000D01*
X120623857Y-68330000D01*
X120480999Y-68401428D01*
X120409571Y-68472857D01*
X120338142Y-68615714D01*
X120338142Y-68972857D01*
X120409571Y-69115714D01*
X120480999Y-69187142D01*
X120623857Y-69258571D01*
X120980999Y-69258571D01*
X121123857Y-69187142D01*
X121195285Y-69115714D01*
M02*
