M48
; DRILL file {KiCad (5.1.6)-1} date 12/22/20 23:38:07
; FORMAT={-:-/ absolute / inch / decimal}
; #@! TF.CreationDate,2020-12-22T23:38:07+01:00
; #@! TF.GenerationSoftware,Kicad,Pcbnew,(5.1.6)-1
; #@! TF.FileFunction,Plated,1,2,PTH
FMAT,2
INCH
T1C0.0236
T2C0.0300
T3C0.0394
%
G90
G05
T1
X4.0Y-2.2
X4.0Y-2.3
X4.1Y-2.2
X4.1Y-2.3
X4.275Y-3.35
X4.295Y-2.88
X4.295Y-2.925
X4.3Y-3.75
X4.325Y-3.0
X4.325Y-3.2
X4.4Y-2.875
X4.4Y-2.92
X4.43Y-2.43
X4.49Y-2.32
X4.53Y-2.875
X4.53Y-2.92
X4.55Y-3.2
X4.55Y-3.425
X4.6Y-3.75
X4.845Y-2.525
X4.9Y-3.6
X4.925Y-3.7
X4.975Y-2.95
X5.0Y-3.4
X5.0Y-3.5
X5.0Y-3.6
X5.1Y-3.4
X5.1Y-3.5
X5.1Y-3.6
X5.2Y-2.2
X5.2Y-2.3
X5.2Y-2.4
X5.2Y-2.5
X5.2Y-2.6
X5.2Y-3.3
X5.2Y-3.4
X5.2Y-3.5
X5.2Y-3.6
X5.25Y-3.7
X4.6Y-2.405
X4.6Y-2.45
X4.6Y-2.495
X4.65Y-2.405
X4.65Y-2.45
X4.65Y-2.495
T2
X4.0Y-3.7
X4.0Y-3.0
X4.0Y-2.9
X4.0Y-3.1
X4.0Y-3.4
X4.0Y-2.8
X4.0Y-3.3
X4.0Y-3.5
X4.0Y-2.6
X4.0Y-3.2
X4.0Y-2.7
X4.0Y-3.6
T3
X4.1Y-2.7
X4.1Y-3.6
X4.1Y-3.7
X4.1Y-2.9
X4.1Y-3.1
X4.1Y-3.4
X4.1Y-2.8
X4.1Y-3.3
X4.1Y-3.5
X4.1Y-2.6
X4.1Y-3.2
X4.1Y-3.0
T0
M30
