%TF.GenerationSoftware,KiCad,Pcbnew,(5.1.6)-1*%
%TF.CreationDate,2020-12-22T23:38:05+01:00*%
%TF.ProjectId,02_Batt_Alim,30325f42-6174-4745-9f41-6c696d2e6b69,rev?*%
%TF.SameCoordinates,Original*%
%TF.FileFunction,Copper,L2,Bot*%
%TF.FilePolarity,Positive*%
%FSLAX46Y46*%
G04 Gerber Fmt 4.6, Leading zero omitted, Abs format (unit mm)*
G04 Created by KiCad (PCBNEW (5.1.6)-1) date 2020-12-22 23:38:05*
%MOMM*%
%LPD*%
G01*
G04 APERTURE LIST*
%TA.AperFunction,Profile*%
%ADD10C,0.050000*%
%TD*%
%TA.AperFunction,SMDPad,CuDef*%
%ADD11R,2.524000X1.700000*%
%TD*%
%TA.AperFunction,ComponentPad*%
%ADD12C,1.524000*%
%TD*%
%TA.AperFunction,ComponentPad*%
%ADD13R,1.700000X1.700000*%
%TD*%
%TA.AperFunction,SMDPad,CuDef*%
%ADD14R,2.200000X3.300000*%
%TD*%
%TA.AperFunction,ComponentPad*%
%ADD15C,1.000000*%
%TD*%
%TA.AperFunction,ViaPad*%
%ADD16C,1.000000*%
%TD*%
%TA.AperFunction,Conductor*%
%ADD17C,0.400000*%
%TD*%
%TA.AperFunction,Conductor*%
%ADD18C,1.000000*%
%TD*%
%TA.AperFunction,Conductor*%
%ADD19C,0.254000*%
%TD*%
G04 APERTURE END LIST*
D10*
X134620000Y-97790000D02*
X100330000Y-97790000D01*
X134620000Y-54610000D02*
X134620000Y-97790000D01*
X100330000Y-54610000D02*
X134620000Y-54610000D01*
X100330000Y-97790000D02*
X100330000Y-54610000D01*
D11*
%TO.P,J8,1*%
%TO.N,GND*%
X102870000Y-81280000D03*
D12*
X101600000Y-81280000D03*
D13*
X104140000Y-81280000D03*
%TD*%
D11*
%TO.P,J11,1*%
%TO.N,SWITCH_OUT*%
X102870000Y-78740000D03*
D12*
X101600000Y-78740000D03*
D13*
X104140000Y-78740000D03*
%TD*%
D14*
%TO.P,IC1,1*%
%TO.N,GND*%
X117475000Y-62230000D03*
D15*
X118110000Y-63373000D03*
X118110000Y-62230000D03*
X116840000Y-62230000D03*
X116840000Y-63373000D03*
X116840000Y-61087000D03*
X118110000Y-61087000D03*
%TD*%
D11*
%TO.P,J1,1*%
%TO.N,V_ext*%
X102870000Y-66040000D03*
D12*
X101600000Y-66040000D03*
D13*
X104140000Y-66040000D03*
%TD*%
D11*
%TO.P,J2,1*%
%TO.N,GND*%
X102870000Y-68580000D03*
D12*
X101600000Y-68580000D03*
D13*
X104140000Y-68580000D03*
%TD*%
D11*
%TO.P,J3,1*%
%TO.N,5V*%
X102870000Y-93980000D03*
D12*
X101600000Y-93980000D03*
D13*
X104140000Y-93980000D03*
%TD*%
D11*
%TO.P,J4,1*%
%TO.N,GND*%
X102870000Y-91440000D03*
D12*
X101600000Y-91440000D03*
D13*
X104140000Y-91440000D03*
%TD*%
D11*
%TO.P,J5,1*%
%TO.N,V_uC*%
X102870000Y-88900000D03*
D12*
X101600000Y-88900000D03*
D13*
X104140000Y-88900000D03*
%TD*%
D11*
%TO.P,J6,1*%
%TO.N,V_2_uC*%
X102870000Y-86360000D03*
D12*
X101600000Y-86360000D03*
D13*
X104140000Y-86360000D03*
%TD*%
D11*
%TO.P,J7,1*%
%TO.N,uC_2_V*%
X102870000Y-83820000D03*
D12*
X101600000Y-83820000D03*
D13*
X104140000Y-83820000D03*
%TD*%
D11*
%TO.P,J9,1*%
%TO.N,V_BAT+*%
X102870000Y-71120000D03*
D12*
X101600000Y-71120000D03*
D13*
X104140000Y-71120000D03*
%TD*%
D11*
%TO.P,J10,1*%
%TO.N,V_BAT-*%
X102870000Y-73660000D03*
D12*
X101600000Y-73660000D03*
D13*
X104140000Y-73660000D03*
%TD*%
D11*
%TO.P,J12,1*%
%TO.N,SWITCH_IN*%
X102870000Y-76200000D03*
D12*
X101600000Y-76200000D03*
D13*
X104140000Y-76200000D03*
%TD*%
D16*
%TO.N,GND*%
X112522000Y-61722000D03*
X114046000Y-58928000D03*
X123063000Y-64135000D03*
X116840000Y-95250000D03*
X133350000Y-93980000D03*
X108585000Y-85090000D03*
X129540000Y-91440000D03*
X132080000Y-91440000D03*
X132080000Y-88900000D03*
X129540000Y-88900000D03*
X129540000Y-86360000D03*
X132080000Y-86360000D03*
X127000000Y-86360000D03*
X127000000Y-88900000D03*
X127000000Y-91440000D03*
X124460000Y-91440000D03*
X132080000Y-83820000D03*
X132080000Y-66040000D03*
X132080000Y-63500000D03*
X132080000Y-60960000D03*
X132080000Y-58420000D03*
X132080000Y-55880000D03*
X101600000Y-55880000D03*
X104140000Y-55880000D03*
X104140000Y-58420000D03*
X101600000Y-58420000D03*
X115062000Y-73025000D03*
X111760000Y-73025000D03*
X115062000Y-74168000D03*
X111760000Y-74168000D03*
%TO.N,5V*%
X109220000Y-95250000D03*
X125095000Y-93980000D03*
%TO.N,V_BAT-*%
X109093000Y-73152000D03*
X109093000Y-74295000D03*
%TO.N,SWITCH_OUT*%
X115570000Y-86995000D03*
%TO.N,SWITCH_IN*%
X109855000Y-81280000D03*
X109855000Y-76200000D03*
%TO.N,Net-(Q1-Pad4)*%
X126365000Y-74930000D03*
X115570000Y-81280000D03*
%TD*%
D17*
%TO.N,GND*%
X102870000Y-68580000D02*
X104140000Y-68580000D01*
X114554000Y-63754000D02*
X112522000Y-61722000D01*
X114681000Y-64135000D02*
X114554000Y-64008000D01*
X123063000Y-64135000D02*
X114681000Y-64135000D01*
X114554000Y-64008000D02*
X114554000Y-63754000D01*
X102870000Y-91440000D02*
X104140000Y-91440000D01*
X102870000Y-81280000D02*
X104140000Y-81280000D01*
X104775000Y-81280000D02*
X104140000Y-81280000D01*
X108585000Y-85090000D02*
X104775000Y-81280000D01*
X108585000Y-85090000D02*
X108585000Y-91440000D01*
X104140000Y-91440000D02*
X108585000Y-91440000D01*
X108585000Y-91440000D02*
X113030000Y-91440000D01*
X133350000Y-93980000D02*
X133350000Y-91440000D01*
X113030000Y-91440000D02*
X125730000Y-91440000D01*
X125730000Y-91440000D02*
X133350000Y-91440000D01*
X116840000Y-95250000D02*
X125730000Y-95250000D01*
X132080000Y-83820000D02*
X132080000Y-91440000D01*
X129540000Y-86360000D02*
X129540000Y-91440000D01*
X127000000Y-86360000D02*
X127000000Y-91440000D01*
X130175000Y-85725000D02*
X129540000Y-86360000D01*
X130175000Y-83185000D02*
X130175000Y-85725000D01*
X130175000Y-83185000D02*
X130175000Y-84455000D01*
X130175000Y-73660000D02*
X130175000Y-83185000D01*
X129540000Y-95250000D02*
X129540000Y-91440000D01*
X125730000Y-95250000D02*
X129540000Y-95250000D01*
X132080000Y-55880000D02*
X132080000Y-66040000D01*
X131445000Y-64135000D02*
X132080000Y-63500000D01*
X123063000Y-64135000D02*
X131445000Y-64135000D01*
X104140000Y-55880000D02*
X101600000Y-55880000D01*
X101600000Y-58420000D02*
X101600000Y-55880000D01*
X104140000Y-58420000D02*
X101600000Y-58420000D01*
X110236000Y-58420000D02*
X110744000Y-58928000D01*
X104140000Y-58420000D02*
X110236000Y-58420000D01*
X111760000Y-73025000D02*
X111760000Y-74168000D01*
X115062000Y-73025000D02*
X115062000Y-74168000D01*
X112522000Y-61722000D02*
X112522000Y-58928000D01*
X110744000Y-58928000D02*
X112522000Y-58928000D01*
X112522000Y-58928000D02*
X114046000Y-58928000D01*
X123063000Y-71628000D02*
X125095000Y-73660000D01*
X123063000Y-64135000D02*
X123063000Y-71628000D01*
X125095000Y-73660000D02*
X130175000Y-73660000D01*
X105664000Y-68580000D02*
X112522000Y-61722000D01*
X104140000Y-68580000D02*
X105664000Y-68580000D01*
X121666000Y-73025000D02*
X123063000Y-71628000D01*
X115062000Y-73025000D02*
X121666000Y-73025000D01*
%TO.N,5V*%
X102870000Y-93980000D02*
X104140000Y-93980000D01*
X109220000Y-95250000D02*
X112395000Y-95250000D01*
X112395000Y-95250000D02*
X113665000Y-93980000D01*
X113665000Y-93980000D02*
X123825000Y-93980000D01*
X123825000Y-93980000D02*
X125095000Y-93980000D01*
%TO.N,V_BAT+*%
X102870000Y-71120000D02*
X104140000Y-71120000D01*
%TO.N,V_BAT-*%
X102870000Y-73660000D02*
X104140000Y-73660000D01*
X108585000Y-73660000D02*
X104140000Y-73660000D01*
X109093000Y-73152000D02*
X108585000Y-73660000D01*
X108585000Y-73787000D02*
X108585000Y-73660000D01*
X109093000Y-74295000D02*
X108585000Y-73787000D01*
%TO.N,SWITCH_OUT*%
X102870000Y-78740000D02*
X104140000Y-78740000D01*
X113665000Y-86995000D02*
X115570000Y-86995000D01*
X104140000Y-78740000D02*
X105410000Y-78740000D01*
X107315000Y-80645000D02*
X107315000Y-82296000D01*
X105410000Y-78740000D02*
X107315000Y-80645000D01*
X109601000Y-83566000D02*
X113030000Y-86995000D01*
X108585000Y-83566000D02*
X109601000Y-83566000D01*
X107315000Y-82296000D02*
X108585000Y-83566000D01*
X113030000Y-86995000D02*
X113665000Y-86995000D01*
D18*
%TO.N,V_ext*%
X102870000Y-66040000D02*
X104140000Y-66040000D01*
D17*
%TO.N,SWITCH_IN*%
X102870000Y-76200000D02*
X104140000Y-76200000D01*
D18*
X109855000Y-78867000D02*
X109855000Y-76200000D01*
X109855000Y-78867000D02*
X109855000Y-77311020D01*
X109855000Y-81280000D02*
X109855000Y-78867000D01*
D17*
%TO.N,V_uC*%
X102870000Y-88900000D02*
X104140000Y-88900000D01*
%TO.N,V_2_uC*%
X102870000Y-86360000D02*
X104140000Y-86360000D01*
%TO.N,uC_2_V*%
X102870000Y-83820000D02*
X104140000Y-83820000D01*
%TO.N,Net-(Q1-Pad4)*%
X120015000Y-81280000D02*
X120332500Y-80962500D01*
X115570000Y-81280000D02*
X120015000Y-81280000D01*
X126365000Y-74930000D02*
X120332500Y-80962500D01*
%TD*%
D19*
%TO.N,V_BAT-*%
G36*
X109474000Y-74676000D02*
G01*
X104267000Y-74676000D01*
X104267000Y-72898000D01*
X109474000Y-72898000D01*
X109474000Y-74676000D01*
G37*
X109474000Y-74676000D02*
X104267000Y-74676000D01*
X104267000Y-72898000D01*
X109474000Y-72898000D01*
X109474000Y-74676000D01*
%TO.N,GND*%
G36*
X133960001Y-97130000D02*
G01*
X100990000Y-97130000D01*
X100990000Y-95239431D01*
X101192510Y-95323314D01*
X101213153Y-95327420D01*
X101253506Y-95360537D01*
X101363820Y-95419502D01*
X101483518Y-95455812D01*
X101608000Y-95468072D01*
X104990000Y-95468072D01*
X105114482Y-95455812D01*
X105234180Y-95419502D01*
X105344494Y-95360537D01*
X105441185Y-95281185D01*
X105520537Y-95184494D01*
X105545275Y-95138212D01*
X108085000Y-95138212D01*
X108085000Y-95361788D01*
X108128617Y-95581067D01*
X108214176Y-95787624D01*
X108338388Y-95973520D01*
X108496480Y-96131612D01*
X108682376Y-96255824D01*
X108888933Y-96341383D01*
X109108212Y-96385000D01*
X109331788Y-96385000D01*
X109551067Y-96341383D01*
X109757624Y-96255824D01*
X109943520Y-96131612D01*
X109990132Y-96085000D01*
X112353982Y-96085000D01*
X112395000Y-96089040D01*
X112436018Y-96085000D01*
X112436019Y-96085000D01*
X112558689Y-96072918D01*
X112716087Y-96025172D01*
X112861146Y-95947636D01*
X112988291Y-95843291D01*
X113014446Y-95811421D01*
X114010868Y-94815000D01*
X124324868Y-94815000D01*
X124371480Y-94861612D01*
X124557376Y-94985824D01*
X124763933Y-95071383D01*
X124983212Y-95115000D01*
X125206788Y-95115000D01*
X125426067Y-95071383D01*
X125632624Y-94985824D01*
X125818520Y-94861612D01*
X125976612Y-94703520D01*
X126100824Y-94517624D01*
X126186383Y-94311067D01*
X126230000Y-94091788D01*
X126230000Y-93868212D01*
X126186383Y-93648933D01*
X126100824Y-93442376D01*
X125976612Y-93256480D01*
X125818520Y-93098388D01*
X125632624Y-92974176D01*
X125426067Y-92888617D01*
X125206788Y-92845000D01*
X124983212Y-92845000D01*
X124763933Y-92888617D01*
X124557376Y-92974176D01*
X124371480Y-93098388D01*
X124324868Y-93145000D01*
X113706015Y-93145000D01*
X113664999Y-93140960D01*
X113623983Y-93145000D01*
X113623981Y-93145000D01*
X113501311Y-93157082D01*
X113343913Y-93204828D01*
X113198854Y-93282364D01*
X113071709Y-93386709D01*
X113045558Y-93418574D01*
X112049133Y-94415000D01*
X109990132Y-94415000D01*
X109943520Y-94368388D01*
X109757624Y-94244176D01*
X109551067Y-94158617D01*
X109331788Y-94115000D01*
X109108212Y-94115000D01*
X108888933Y-94158617D01*
X108682376Y-94244176D01*
X108496480Y-94368388D01*
X108338388Y-94526480D01*
X108214176Y-94712376D01*
X108128617Y-94918933D01*
X108085000Y-95138212D01*
X105545275Y-95138212D01*
X105579502Y-95074180D01*
X105615812Y-94954482D01*
X105628072Y-94830000D01*
X105628072Y-93130000D01*
X105615812Y-93005518D01*
X105579502Y-92885820D01*
X105520537Y-92775506D01*
X105441185Y-92678815D01*
X105344494Y-92599463D01*
X105234180Y-92540498D01*
X105114482Y-92504188D01*
X104990000Y-92491928D01*
X101608000Y-92491928D01*
X101483518Y-92504188D01*
X101363820Y-92540498D01*
X101253506Y-92599463D01*
X101213153Y-92632580D01*
X101192510Y-92636686D01*
X100990000Y-92720569D01*
X100990000Y-90159431D01*
X101192510Y-90243314D01*
X101213153Y-90247420D01*
X101253506Y-90280537D01*
X101363820Y-90339502D01*
X101483518Y-90375812D01*
X101608000Y-90388072D01*
X104990000Y-90388072D01*
X105114482Y-90375812D01*
X105234180Y-90339502D01*
X105344494Y-90280537D01*
X105441185Y-90201185D01*
X105520537Y-90104494D01*
X105579502Y-89994180D01*
X105615812Y-89874482D01*
X105628072Y-89750000D01*
X105628072Y-88050000D01*
X105615812Y-87925518D01*
X105579502Y-87805820D01*
X105520537Y-87695506D01*
X105466778Y-87630000D01*
X105520537Y-87564494D01*
X105579502Y-87454180D01*
X105615812Y-87334482D01*
X105628072Y-87210000D01*
X105628072Y-85510000D01*
X105615812Y-85385518D01*
X105579502Y-85265820D01*
X105520537Y-85155506D01*
X105466778Y-85090000D01*
X105520537Y-85024494D01*
X105579502Y-84914180D01*
X105615812Y-84794482D01*
X105628072Y-84670000D01*
X105628072Y-82970000D01*
X105615812Y-82845518D01*
X105579502Y-82725820D01*
X105520537Y-82615506D01*
X105441185Y-82518815D01*
X105344494Y-82439463D01*
X105234180Y-82380498D01*
X105114482Y-82344188D01*
X104990000Y-82331928D01*
X101608000Y-82331928D01*
X101483518Y-82344188D01*
X101363820Y-82380498D01*
X101253506Y-82439463D01*
X101213153Y-82472580D01*
X101192510Y-82476686D01*
X100990000Y-82560569D01*
X100990000Y-79999431D01*
X101192510Y-80083314D01*
X101213153Y-80087420D01*
X101253506Y-80120537D01*
X101363820Y-80179502D01*
X101483518Y-80215812D01*
X101608000Y-80228072D01*
X104990000Y-80228072D01*
X105114482Y-80215812D01*
X105234180Y-80179502D01*
X105344494Y-80120537D01*
X105441185Y-80041185D01*
X105481362Y-79992229D01*
X106480000Y-80990869D01*
X106480001Y-82254972D01*
X106475960Y-82296000D01*
X106492082Y-82459688D01*
X106539828Y-82617086D01*
X106607175Y-82743082D01*
X106617365Y-82762146D01*
X106721710Y-82889291D01*
X106753574Y-82915441D01*
X107965558Y-84127426D01*
X107991709Y-84159291D01*
X108118854Y-84263636D01*
X108263913Y-84341172D01*
X108421311Y-84388918D01*
X108543981Y-84401000D01*
X108543983Y-84401000D01*
X108584999Y-84405040D01*
X108626015Y-84401000D01*
X109255133Y-84401000D01*
X112410559Y-87556427D01*
X112436709Y-87588291D01*
X112563854Y-87692636D01*
X112708913Y-87770172D01*
X112866311Y-87817918D01*
X112988981Y-87830000D01*
X112988991Y-87830000D01*
X113029999Y-87834039D01*
X113071007Y-87830000D01*
X114799868Y-87830000D01*
X114846480Y-87876612D01*
X115032376Y-88000824D01*
X115238933Y-88086383D01*
X115458212Y-88130000D01*
X115681788Y-88130000D01*
X115901067Y-88086383D01*
X116107624Y-88000824D01*
X116293520Y-87876612D01*
X116451612Y-87718520D01*
X116575824Y-87532624D01*
X116661383Y-87326067D01*
X116705000Y-87106788D01*
X116705000Y-86883212D01*
X116661383Y-86663933D01*
X116575824Y-86457376D01*
X116451612Y-86271480D01*
X116293520Y-86113388D01*
X116107624Y-85989176D01*
X115901067Y-85903617D01*
X115681788Y-85860000D01*
X115458212Y-85860000D01*
X115238933Y-85903617D01*
X115032376Y-85989176D01*
X114846480Y-86113388D01*
X114799868Y-86160000D01*
X113375868Y-86160000D01*
X110220446Y-83004579D01*
X110194291Y-82972709D01*
X110067146Y-82868364D01*
X109922087Y-82790828D01*
X109764689Y-82743082D01*
X109642019Y-82731000D01*
X109642018Y-82731000D01*
X109601000Y-82726960D01*
X109559982Y-82731000D01*
X108930868Y-82731000D01*
X108150000Y-81950133D01*
X108150000Y-80686018D01*
X108154040Y-80645000D01*
X108137918Y-80481311D01*
X108090172Y-80323913D01*
X108012636Y-80178854D01*
X107934439Y-80083570D01*
X107934437Y-80083568D01*
X107908291Y-80051709D01*
X107876433Y-80025564D01*
X106029446Y-78178579D01*
X106003291Y-78146709D01*
X105876146Y-78042364D01*
X105731087Y-77964828D01*
X105628072Y-77933579D01*
X105628072Y-77890000D01*
X105615812Y-77765518D01*
X105579502Y-77645820D01*
X105520537Y-77535506D01*
X105466778Y-77470000D01*
X105520537Y-77404494D01*
X105579502Y-77294180D01*
X105615812Y-77174482D01*
X105628072Y-77050000D01*
X105628072Y-76327000D01*
X108720001Y-76327000D01*
X108720001Y-77255262D01*
X108720000Y-77255268D01*
X108720000Y-78922751D01*
X108720001Y-78922761D01*
X108720000Y-81168212D01*
X108720000Y-81391788D01*
X108730932Y-81446748D01*
X108736423Y-81502498D01*
X108752684Y-81556103D01*
X108763617Y-81611067D01*
X108785064Y-81662845D01*
X108801324Y-81716446D01*
X108827730Y-81765848D01*
X108849176Y-81817624D01*
X108880307Y-81864215D01*
X108906716Y-81913623D01*
X108942259Y-81956932D01*
X108973388Y-82003520D01*
X109013009Y-82043141D01*
X109048551Y-82086449D01*
X109091859Y-82121991D01*
X109131480Y-82161612D01*
X109178068Y-82192741D01*
X109221377Y-82228284D01*
X109270786Y-82254693D01*
X109317376Y-82285824D01*
X109369149Y-82307269D01*
X109418553Y-82333676D01*
X109472158Y-82349937D01*
X109523933Y-82371383D01*
X109578894Y-82382315D01*
X109632501Y-82398577D01*
X109688253Y-82404068D01*
X109743212Y-82415000D01*
X109799248Y-82415000D01*
X109855000Y-82420491D01*
X109910751Y-82415000D01*
X109966788Y-82415000D01*
X110021748Y-82404068D01*
X110077498Y-82398577D01*
X110131103Y-82382316D01*
X110186067Y-82371383D01*
X110237845Y-82349936D01*
X110291446Y-82333676D01*
X110340848Y-82307270D01*
X110392624Y-82285824D01*
X110439215Y-82254693D01*
X110488623Y-82228284D01*
X110531932Y-82192741D01*
X110578520Y-82161612D01*
X110618141Y-82121991D01*
X110661449Y-82086449D01*
X110696991Y-82043141D01*
X110736612Y-82003520D01*
X110767741Y-81956932D01*
X110803284Y-81913623D01*
X110829693Y-81864214D01*
X110860824Y-81817624D01*
X110882269Y-81765851D01*
X110908676Y-81716447D01*
X110924937Y-81662842D01*
X110946383Y-81611067D01*
X110957315Y-81556106D01*
X110973577Y-81502499D01*
X110979068Y-81446747D01*
X110990000Y-81391788D01*
X110990000Y-81168212D01*
X114435000Y-81168212D01*
X114435000Y-81391788D01*
X114478617Y-81611067D01*
X114564176Y-81817624D01*
X114688388Y-82003520D01*
X114846480Y-82161612D01*
X115032376Y-82285824D01*
X115238933Y-82371383D01*
X115458212Y-82415000D01*
X115681788Y-82415000D01*
X115901067Y-82371383D01*
X116107624Y-82285824D01*
X116293520Y-82161612D01*
X116340132Y-82115000D01*
X119973982Y-82115000D01*
X120015000Y-82119040D01*
X120056018Y-82115000D01*
X120056019Y-82115000D01*
X120178689Y-82102918D01*
X120336087Y-82055172D01*
X120481146Y-81977636D01*
X120608291Y-81873291D01*
X120634445Y-81841422D01*
X120951939Y-81523929D01*
X120951944Y-81523923D01*
X126410868Y-76065000D01*
X126476788Y-76065000D01*
X126696067Y-76021383D01*
X126902624Y-75935824D01*
X127088520Y-75811612D01*
X127246612Y-75653520D01*
X127370824Y-75467624D01*
X127456383Y-75261067D01*
X127500000Y-75041788D01*
X127500000Y-74818212D01*
X127456383Y-74598933D01*
X127370824Y-74392376D01*
X127246612Y-74206480D01*
X127088520Y-74048388D01*
X126902624Y-73924176D01*
X126696067Y-73838617D01*
X126476788Y-73795000D01*
X126253212Y-73795000D01*
X126033933Y-73838617D01*
X125827376Y-73924176D01*
X125641480Y-74048388D01*
X125483388Y-74206480D01*
X125359176Y-74392376D01*
X125273617Y-74598933D01*
X125230000Y-74818212D01*
X125230000Y-74884132D01*
X119771077Y-80343056D01*
X119771071Y-80343061D01*
X119669132Y-80445000D01*
X116340132Y-80445000D01*
X116293520Y-80398388D01*
X116107624Y-80274176D01*
X115901067Y-80188617D01*
X115681788Y-80145000D01*
X115458212Y-80145000D01*
X115238933Y-80188617D01*
X115032376Y-80274176D01*
X114846480Y-80398388D01*
X114688388Y-80556480D01*
X114564176Y-80742376D01*
X114478617Y-80948933D01*
X114435000Y-81168212D01*
X110990000Y-81168212D01*
X110990000Y-76088212D01*
X110979068Y-76033253D01*
X110973577Y-75977501D01*
X110957315Y-75923894D01*
X110946383Y-75868933D01*
X110924937Y-75817158D01*
X110908676Y-75763553D01*
X110882269Y-75714149D01*
X110860824Y-75662376D01*
X110829693Y-75615786D01*
X110803284Y-75566377D01*
X110767741Y-75523068D01*
X110736612Y-75476480D01*
X110696991Y-75436859D01*
X110661449Y-75393551D01*
X110618141Y-75358009D01*
X110617000Y-75356868D01*
X110617000Y-71882000D01*
X110614560Y-71857224D01*
X110607333Y-71833399D01*
X110595597Y-71811443D01*
X110579803Y-71792197D01*
X110560557Y-71776403D01*
X110538601Y-71764667D01*
X110514776Y-71757440D01*
X110490000Y-71755000D01*
X105628072Y-71755000D01*
X105628072Y-70270000D01*
X105615812Y-70145518D01*
X105579502Y-70025820D01*
X105520537Y-69915506D01*
X105441185Y-69818815D01*
X105344494Y-69739463D01*
X105234180Y-69680498D01*
X105114482Y-69644188D01*
X104990000Y-69631928D01*
X101608000Y-69631928D01*
X101483518Y-69644188D01*
X101363820Y-69680498D01*
X101253506Y-69739463D01*
X101213153Y-69772580D01*
X101192510Y-69776686D01*
X100990000Y-69860569D01*
X100990000Y-67299431D01*
X101192510Y-67383314D01*
X101213153Y-67387420D01*
X101253506Y-67420537D01*
X101363820Y-67479502D01*
X101483518Y-67515812D01*
X101608000Y-67528072D01*
X104990000Y-67528072D01*
X105114482Y-67515812D01*
X105234180Y-67479502D01*
X105344494Y-67420537D01*
X105441185Y-67341185D01*
X105520537Y-67244494D01*
X105579502Y-67134180D01*
X105615812Y-67014482D01*
X105628072Y-66890000D01*
X105628072Y-65190000D01*
X105615812Y-65065518D01*
X105579502Y-64945820D01*
X105520537Y-64835506D01*
X105441185Y-64738815D01*
X105344494Y-64659463D01*
X105234180Y-64600498D01*
X105114482Y-64564188D01*
X104990000Y-64551928D01*
X101608000Y-64551928D01*
X101483518Y-64564188D01*
X101363820Y-64600498D01*
X101253506Y-64659463D01*
X101213153Y-64692580D01*
X101192510Y-64696686D01*
X100990000Y-64780569D01*
X100990000Y-55270000D01*
X133960000Y-55270000D01*
X133960001Y-97130000D01*
G37*
X133960001Y-97130000D02*
X100990000Y-97130000D01*
X100990000Y-95239431D01*
X101192510Y-95323314D01*
X101213153Y-95327420D01*
X101253506Y-95360537D01*
X101363820Y-95419502D01*
X101483518Y-95455812D01*
X101608000Y-95468072D01*
X104990000Y-95468072D01*
X105114482Y-95455812D01*
X105234180Y-95419502D01*
X105344494Y-95360537D01*
X105441185Y-95281185D01*
X105520537Y-95184494D01*
X105545275Y-95138212D01*
X108085000Y-95138212D01*
X108085000Y-95361788D01*
X108128617Y-95581067D01*
X108214176Y-95787624D01*
X108338388Y-95973520D01*
X108496480Y-96131612D01*
X108682376Y-96255824D01*
X108888933Y-96341383D01*
X109108212Y-96385000D01*
X109331788Y-96385000D01*
X109551067Y-96341383D01*
X109757624Y-96255824D01*
X109943520Y-96131612D01*
X109990132Y-96085000D01*
X112353982Y-96085000D01*
X112395000Y-96089040D01*
X112436018Y-96085000D01*
X112436019Y-96085000D01*
X112558689Y-96072918D01*
X112716087Y-96025172D01*
X112861146Y-95947636D01*
X112988291Y-95843291D01*
X113014446Y-95811421D01*
X114010868Y-94815000D01*
X124324868Y-94815000D01*
X124371480Y-94861612D01*
X124557376Y-94985824D01*
X124763933Y-95071383D01*
X124983212Y-95115000D01*
X125206788Y-95115000D01*
X125426067Y-95071383D01*
X125632624Y-94985824D01*
X125818520Y-94861612D01*
X125976612Y-94703520D01*
X126100824Y-94517624D01*
X126186383Y-94311067D01*
X126230000Y-94091788D01*
X126230000Y-93868212D01*
X126186383Y-93648933D01*
X126100824Y-93442376D01*
X125976612Y-93256480D01*
X125818520Y-93098388D01*
X125632624Y-92974176D01*
X125426067Y-92888617D01*
X125206788Y-92845000D01*
X124983212Y-92845000D01*
X124763933Y-92888617D01*
X124557376Y-92974176D01*
X124371480Y-93098388D01*
X124324868Y-93145000D01*
X113706015Y-93145000D01*
X113664999Y-93140960D01*
X113623983Y-93145000D01*
X113623981Y-93145000D01*
X113501311Y-93157082D01*
X113343913Y-93204828D01*
X113198854Y-93282364D01*
X113071709Y-93386709D01*
X113045558Y-93418574D01*
X112049133Y-94415000D01*
X109990132Y-94415000D01*
X109943520Y-94368388D01*
X109757624Y-94244176D01*
X109551067Y-94158617D01*
X109331788Y-94115000D01*
X109108212Y-94115000D01*
X108888933Y-94158617D01*
X108682376Y-94244176D01*
X108496480Y-94368388D01*
X108338388Y-94526480D01*
X108214176Y-94712376D01*
X108128617Y-94918933D01*
X108085000Y-95138212D01*
X105545275Y-95138212D01*
X105579502Y-95074180D01*
X105615812Y-94954482D01*
X105628072Y-94830000D01*
X105628072Y-93130000D01*
X105615812Y-93005518D01*
X105579502Y-92885820D01*
X105520537Y-92775506D01*
X105441185Y-92678815D01*
X105344494Y-92599463D01*
X105234180Y-92540498D01*
X105114482Y-92504188D01*
X104990000Y-92491928D01*
X101608000Y-92491928D01*
X101483518Y-92504188D01*
X101363820Y-92540498D01*
X101253506Y-92599463D01*
X101213153Y-92632580D01*
X101192510Y-92636686D01*
X100990000Y-92720569D01*
X100990000Y-90159431D01*
X101192510Y-90243314D01*
X101213153Y-90247420D01*
X101253506Y-90280537D01*
X101363820Y-90339502D01*
X101483518Y-90375812D01*
X101608000Y-90388072D01*
X104990000Y-90388072D01*
X105114482Y-90375812D01*
X105234180Y-90339502D01*
X105344494Y-90280537D01*
X105441185Y-90201185D01*
X105520537Y-90104494D01*
X105579502Y-89994180D01*
X105615812Y-89874482D01*
X105628072Y-89750000D01*
X105628072Y-88050000D01*
X105615812Y-87925518D01*
X105579502Y-87805820D01*
X105520537Y-87695506D01*
X105466778Y-87630000D01*
X105520537Y-87564494D01*
X105579502Y-87454180D01*
X105615812Y-87334482D01*
X105628072Y-87210000D01*
X105628072Y-85510000D01*
X105615812Y-85385518D01*
X105579502Y-85265820D01*
X105520537Y-85155506D01*
X105466778Y-85090000D01*
X105520537Y-85024494D01*
X105579502Y-84914180D01*
X105615812Y-84794482D01*
X105628072Y-84670000D01*
X105628072Y-82970000D01*
X105615812Y-82845518D01*
X105579502Y-82725820D01*
X105520537Y-82615506D01*
X105441185Y-82518815D01*
X105344494Y-82439463D01*
X105234180Y-82380498D01*
X105114482Y-82344188D01*
X104990000Y-82331928D01*
X101608000Y-82331928D01*
X101483518Y-82344188D01*
X101363820Y-82380498D01*
X101253506Y-82439463D01*
X101213153Y-82472580D01*
X101192510Y-82476686D01*
X100990000Y-82560569D01*
X100990000Y-79999431D01*
X101192510Y-80083314D01*
X101213153Y-80087420D01*
X101253506Y-80120537D01*
X101363820Y-80179502D01*
X101483518Y-80215812D01*
X101608000Y-80228072D01*
X104990000Y-80228072D01*
X105114482Y-80215812D01*
X105234180Y-80179502D01*
X105344494Y-80120537D01*
X105441185Y-80041185D01*
X105481362Y-79992229D01*
X106480000Y-80990869D01*
X106480001Y-82254972D01*
X106475960Y-82296000D01*
X106492082Y-82459688D01*
X106539828Y-82617086D01*
X106607175Y-82743082D01*
X106617365Y-82762146D01*
X106721710Y-82889291D01*
X106753574Y-82915441D01*
X107965558Y-84127426D01*
X107991709Y-84159291D01*
X108118854Y-84263636D01*
X108263913Y-84341172D01*
X108421311Y-84388918D01*
X108543981Y-84401000D01*
X108543983Y-84401000D01*
X108584999Y-84405040D01*
X108626015Y-84401000D01*
X109255133Y-84401000D01*
X112410559Y-87556427D01*
X112436709Y-87588291D01*
X112563854Y-87692636D01*
X112708913Y-87770172D01*
X112866311Y-87817918D01*
X112988981Y-87830000D01*
X112988991Y-87830000D01*
X113029999Y-87834039D01*
X113071007Y-87830000D01*
X114799868Y-87830000D01*
X114846480Y-87876612D01*
X115032376Y-88000824D01*
X115238933Y-88086383D01*
X115458212Y-88130000D01*
X115681788Y-88130000D01*
X115901067Y-88086383D01*
X116107624Y-88000824D01*
X116293520Y-87876612D01*
X116451612Y-87718520D01*
X116575824Y-87532624D01*
X116661383Y-87326067D01*
X116705000Y-87106788D01*
X116705000Y-86883212D01*
X116661383Y-86663933D01*
X116575824Y-86457376D01*
X116451612Y-86271480D01*
X116293520Y-86113388D01*
X116107624Y-85989176D01*
X115901067Y-85903617D01*
X115681788Y-85860000D01*
X115458212Y-85860000D01*
X115238933Y-85903617D01*
X115032376Y-85989176D01*
X114846480Y-86113388D01*
X114799868Y-86160000D01*
X113375868Y-86160000D01*
X110220446Y-83004579D01*
X110194291Y-82972709D01*
X110067146Y-82868364D01*
X109922087Y-82790828D01*
X109764689Y-82743082D01*
X109642019Y-82731000D01*
X109642018Y-82731000D01*
X109601000Y-82726960D01*
X109559982Y-82731000D01*
X108930868Y-82731000D01*
X108150000Y-81950133D01*
X108150000Y-80686018D01*
X108154040Y-80645000D01*
X108137918Y-80481311D01*
X108090172Y-80323913D01*
X108012636Y-80178854D01*
X107934439Y-80083570D01*
X107934437Y-80083568D01*
X107908291Y-80051709D01*
X107876433Y-80025564D01*
X106029446Y-78178579D01*
X106003291Y-78146709D01*
X105876146Y-78042364D01*
X105731087Y-77964828D01*
X105628072Y-77933579D01*
X105628072Y-77890000D01*
X105615812Y-77765518D01*
X105579502Y-77645820D01*
X105520537Y-77535506D01*
X105466778Y-77470000D01*
X105520537Y-77404494D01*
X105579502Y-77294180D01*
X105615812Y-77174482D01*
X105628072Y-77050000D01*
X105628072Y-76327000D01*
X108720001Y-76327000D01*
X108720001Y-77255262D01*
X108720000Y-77255268D01*
X108720000Y-78922751D01*
X108720001Y-78922761D01*
X108720000Y-81168212D01*
X108720000Y-81391788D01*
X108730932Y-81446748D01*
X108736423Y-81502498D01*
X108752684Y-81556103D01*
X108763617Y-81611067D01*
X108785064Y-81662845D01*
X108801324Y-81716446D01*
X108827730Y-81765848D01*
X108849176Y-81817624D01*
X108880307Y-81864215D01*
X108906716Y-81913623D01*
X108942259Y-81956932D01*
X108973388Y-82003520D01*
X109013009Y-82043141D01*
X109048551Y-82086449D01*
X109091859Y-82121991D01*
X109131480Y-82161612D01*
X109178068Y-82192741D01*
X109221377Y-82228284D01*
X109270786Y-82254693D01*
X109317376Y-82285824D01*
X109369149Y-82307269D01*
X109418553Y-82333676D01*
X109472158Y-82349937D01*
X109523933Y-82371383D01*
X109578894Y-82382315D01*
X109632501Y-82398577D01*
X109688253Y-82404068D01*
X109743212Y-82415000D01*
X109799248Y-82415000D01*
X109855000Y-82420491D01*
X109910751Y-82415000D01*
X109966788Y-82415000D01*
X110021748Y-82404068D01*
X110077498Y-82398577D01*
X110131103Y-82382316D01*
X110186067Y-82371383D01*
X110237845Y-82349936D01*
X110291446Y-82333676D01*
X110340848Y-82307270D01*
X110392624Y-82285824D01*
X110439215Y-82254693D01*
X110488623Y-82228284D01*
X110531932Y-82192741D01*
X110578520Y-82161612D01*
X110618141Y-82121991D01*
X110661449Y-82086449D01*
X110696991Y-82043141D01*
X110736612Y-82003520D01*
X110767741Y-81956932D01*
X110803284Y-81913623D01*
X110829693Y-81864214D01*
X110860824Y-81817624D01*
X110882269Y-81765851D01*
X110908676Y-81716447D01*
X110924937Y-81662842D01*
X110946383Y-81611067D01*
X110957315Y-81556106D01*
X110973577Y-81502499D01*
X110979068Y-81446747D01*
X110990000Y-81391788D01*
X110990000Y-81168212D01*
X114435000Y-81168212D01*
X114435000Y-81391788D01*
X114478617Y-81611067D01*
X114564176Y-81817624D01*
X114688388Y-82003520D01*
X114846480Y-82161612D01*
X115032376Y-82285824D01*
X115238933Y-82371383D01*
X115458212Y-82415000D01*
X115681788Y-82415000D01*
X115901067Y-82371383D01*
X116107624Y-82285824D01*
X116293520Y-82161612D01*
X116340132Y-82115000D01*
X119973982Y-82115000D01*
X120015000Y-82119040D01*
X120056018Y-82115000D01*
X120056019Y-82115000D01*
X120178689Y-82102918D01*
X120336087Y-82055172D01*
X120481146Y-81977636D01*
X120608291Y-81873291D01*
X120634445Y-81841422D01*
X120951939Y-81523929D01*
X120951944Y-81523923D01*
X126410868Y-76065000D01*
X126476788Y-76065000D01*
X126696067Y-76021383D01*
X126902624Y-75935824D01*
X127088520Y-75811612D01*
X127246612Y-75653520D01*
X127370824Y-75467624D01*
X127456383Y-75261067D01*
X127500000Y-75041788D01*
X127500000Y-74818212D01*
X127456383Y-74598933D01*
X127370824Y-74392376D01*
X127246612Y-74206480D01*
X127088520Y-74048388D01*
X126902624Y-73924176D01*
X126696067Y-73838617D01*
X126476788Y-73795000D01*
X126253212Y-73795000D01*
X126033933Y-73838617D01*
X125827376Y-73924176D01*
X125641480Y-74048388D01*
X125483388Y-74206480D01*
X125359176Y-74392376D01*
X125273617Y-74598933D01*
X125230000Y-74818212D01*
X125230000Y-74884132D01*
X119771077Y-80343056D01*
X119771071Y-80343061D01*
X119669132Y-80445000D01*
X116340132Y-80445000D01*
X116293520Y-80398388D01*
X116107624Y-80274176D01*
X115901067Y-80188617D01*
X115681788Y-80145000D01*
X115458212Y-80145000D01*
X115238933Y-80188617D01*
X115032376Y-80274176D01*
X114846480Y-80398388D01*
X114688388Y-80556480D01*
X114564176Y-80742376D01*
X114478617Y-80948933D01*
X114435000Y-81168212D01*
X110990000Y-81168212D01*
X110990000Y-76088212D01*
X110979068Y-76033253D01*
X110973577Y-75977501D01*
X110957315Y-75923894D01*
X110946383Y-75868933D01*
X110924937Y-75817158D01*
X110908676Y-75763553D01*
X110882269Y-75714149D01*
X110860824Y-75662376D01*
X110829693Y-75615786D01*
X110803284Y-75566377D01*
X110767741Y-75523068D01*
X110736612Y-75476480D01*
X110696991Y-75436859D01*
X110661449Y-75393551D01*
X110618141Y-75358009D01*
X110617000Y-75356868D01*
X110617000Y-71882000D01*
X110614560Y-71857224D01*
X110607333Y-71833399D01*
X110595597Y-71811443D01*
X110579803Y-71792197D01*
X110560557Y-71776403D01*
X110538601Y-71764667D01*
X110514776Y-71757440D01*
X110490000Y-71755000D01*
X105628072Y-71755000D01*
X105628072Y-70270000D01*
X105615812Y-70145518D01*
X105579502Y-70025820D01*
X105520537Y-69915506D01*
X105441185Y-69818815D01*
X105344494Y-69739463D01*
X105234180Y-69680498D01*
X105114482Y-69644188D01*
X104990000Y-69631928D01*
X101608000Y-69631928D01*
X101483518Y-69644188D01*
X101363820Y-69680498D01*
X101253506Y-69739463D01*
X101213153Y-69772580D01*
X101192510Y-69776686D01*
X100990000Y-69860569D01*
X100990000Y-67299431D01*
X101192510Y-67383314D01*
X101213153Y-67387420D01*
X101253506Y-67420537D01*
X101363820Y-67479502D01*
X101483518Y-67515812D01*
X101608000Y-67528072D01*
X104990000Y-67528072D01*
X105114482Y-67515812D01*
X105234180Y-67479502D01*
X105344494Y-67420537D01*
X105441185Y-67341185D01*
X105520537Y-67244494D01*
X105579502Y-67134180D01*
X105615812Y-67014482D01*
X105628072Y-66890000D01*
X105628072Y-65190000D01*
X105615812Y-65065518D01*
X105579502Y-64945820D01*
X105520537Y-64835506D01*
X105441185Y-64738815D01*
X105344494Y-64659463D01*
X105234180Y-64600498D01*
X105114482Y-64564188D01*
X104990000Y-64551928D01*
X101608000Y-64551928D01*
X101483518Y-64564188D01*
X101363820Y-64600498D01*
X101253506Y-64659463D01*
X101213153Y-64692580D01*
X101192510Y-64696686D01*
X100990000Y-64780569D01*
X100990000Y-55270000D01*
X133960000Y-55270000D01*
X133960001Y-97130000D01*
%TD*%
M02*
