%TF.GenerationSoftware,KiCad,Pcbnew,(5.1.9)-1*%
%TF.CreationDate,2021-05-31T10:41:26+02:00*%
%TF.ProjectId,02_Batt_Alim,30325f42-6174-4745-9f41-6c696d2e6b69,rev?*%
%TF.SameCoordinates,Original*%
%TF.FileFunction,Legend,Bot*%
%TF.FilePolarity,Positive*%
%FSLAX46Y46*%
G04 Gerber Fmt 4.6, Leading zero omitted, Abs format (unit mm)*
G04 Created by KiCad (PCBNEW (5.1.9)-1) date 2021-05-31 10:41:26*
%MOMM*%
%LPD*%
G01*
G04 APERTURE LIST*
%ADD10C,0.150000*%
%TA.AperFunction,Profile*%
%ADD11C,0.050000*%
%TD*%
%ADD12C,0.300000*%
G04 APERTURE END LIST*
D10*
X109997142Y-75442380D02*
X109663809Y-76442380D01*
X109330476Y-75442380D01*
X109044761Y-76394761D02*
X108949523Y-76442380D01*
X108759047Y-76442380D01*
X108663809Y-76394761D01*
X108616190Y-76299523D01*
X108616190Y-76251904D01*
X108663809Y-76156666D01*
X108759047Y-76109047D01*
X108901904Y-76109047D01*
X108997142Y-76061428D01*
X109044761Y-75966190D01*
X109044761Y-75918571D01*
X108997142Y-75823333D01*
X108901904Y-75775714D01*
X108759047Y-75775714D01*
X108663809Y-75823333D01*
X107759047Y-75775714D02*
X107759047Y-76442380D01*
X108187619Y-75775714D02*
X108187619Y-76299523D01*
X108140000Y-76394761D01*
X108044761Y-76442380D01*
X107901904Y-76442380D01*
X107806666Y-76394761D01*
X107759047Y-76347142D01*
X107282857Y-76442380D02*
X107282857Y-75775714D01*
X107282857Y-75870952D02*
X107235238Y-75823333D01*
X107140000Y-75775714D01*
X106997142Y-75775714D01*
X106901904Y-75823333D01*
X106854285Y-75918571D01*
X106854285Y-76442380D01*
X106854285Y-75918571D02*
X106806666Y-75823333D01*
X106711428Y-75775714D01*
X106568571Y-75775714D01*
X106473333Y-75823333D01*
X106425714Y-75918571D01*
X106425714Y-76442380D01*
X124913809Y-84442380D02*
X124913809Y-83442380D01*
X124675714Y-83442380D01*
X124532857Y-83490000D01*
X124437619Y-83585238D01*
X124390000Y-83680476D01*
X124342380Y-83870952D01*
X124342380Y-84013809D01*
X124390000Y-84204285D01*
X124437619Y-84299523D01*
X124532857Y-84394761D01*
X124675714Y-84442380D01*
X124913809Y-84442380D01*
X123342380Y-84347142D02*
X123390000Y-84394761D01*
X123532857Y-84442380D01*
X123628095Y-84442380D01*
X123770952Y-84394761D01*
X123866190Y-84299523D01*
X123913809Y-84204285D01*
X123961428Y-84013809D01*
X123961428Y-83870952D01*
X123913809Y-83680476D01*
X123866190Y-83585238D01*
X123770952Y-83490000D01*
X123628095Y-83442380D01*
X123532857Y-83442380D01*
X123390000Y-83490000D01*
X123342380Y-83537619D01*
X122913809Y-84442380D02*
X122913809Y-83442380D01*
X122675714Y-83442380D01*
X122532857Y-83490000D01*
X122437619Y-83585238D01*
X122390000Y-83680476D01*
X122342380Y-83870952D01*
X122342380Y-84013809D01*
X122390000Y-84204285D01*
X122437619Y-84299523D01*
X122532857Y-84394761D01*
X122675714Y-84442380D01*
X122913809Y-84442380D01*
X121342380Y-84347142D02*
X121390000Y-84394761D01*
X121532857Y-84442380D01*
X121628095Y-84442380D01*
X121770952Y-84394761D01*
X121866190Y-84299523D01*
X121913809Y-84204285D01*
X121961428Y-84013809D01*
X121961428Y-83870952D01*
X121913809Y-83680476D01*
X121866190Y-83585238D01*
X121770952Y-83490000D01*
X121628095Y-83442380D01*
X121532857Y-83442380D01*
X121390000Y-83490000D01*
X121342380Y-83537619D01*
X120913809Y-84442380D02*
X120913809Y-83442380D01*
X120437619Y-84442380D02*
X120437619Y-83442380D01*
X119866190Y-84442380D01*
X119866190Y-83442380D01*
X108401904Y-83240000D02*
X108497142Y-83192380D01*
X108640000Y-83192380D01*
X108782857Y-83240000D01*
X108878095Y-83335238D01*
X108925714Y-83430476D01*
X108973333Y-83620952D01*
X108973333Y-83763809D01*
X108925714Y-83954285D01*
X108878095Y-84049523D01*
X108782857Y-84144761D01*
X108640000Y-84192380D01*
X108544761Y-84192380D01*
X108401904Y-84144761D01*
X108354285Y-84097142D01*
X108354285Y-83763809D01*
X108544761Y-83763809D01*
X107925714Y-84192380D02*
X107925714Y-83192380D01*
X107354285Y-84192380D01*
X107354285Y-83192380D01*
X106878095Y-84192380D02*
X106878095Y-83192380D01*
X106640000Y-83192380D01*
X106497142Y-83240000D01*
X106401904Y-83335238D01*
X106354285Y-83430476D01*
X106306666Y-83620952D01*
X106306666Y-83763809D01*
X106354285Y-83954285D01*
X106401904Y-84049523D01*
X106497142Y-84144761D01*
X106640000Y-84192380D01*
X106878095Y-84192380D01*
D11*
X130810000Y-82550000D02*
X129540000Y-82550000D01*
X130810000Y-85090000D02*
X130810000Y-82550000D01*
X129540000Y-85090000D02*
X130810000Y-85090000D01*
X129540000Y-87630000D02*
X129540000Y-85090000D01*
X100330000Y-85090000D02*
X101600000Y-85090000D01*
X100330000Y-80010000D02*
X100330000Y-85090000D01*
X101600000Y-80010000D02*
X100330000Y-80010000D01*
X101600000Y-77470000D02*
X101600000Y-80010000D01*
X100330000Y-77470000D02*
X101600000Y-77470000D01*
X100330000Y-72390000D02*
X100330000Y-77470000D01*
X101600000Y-72390000D02*
X100330000Y-72390000D01*
X101600000Y-69850000D02*
X101600000Y-72390000D01*
X100340000Y-69850000D02*
X101600000Y-69850000D01*
D10*
X107330476Y-80692380D02*
X107806666Y-80692380D01*
X107854285Y-81168571D01*
X107806666Y-81120952D01*
X107711428Y-81073333D01*
X107473333Y-81073333D01*
X107378095Y-81120952D01*
X107330476Y-81168571D01*
X107282857Y-81263809D01*
X107282857Y-81501904D01*
X107330476Y-81597142D01*
X107378095Y-81644761D01*
X107473333Y-81692380D01*
X107711428Y-81692380D01*
X107806666Y-81644761D01*
X107854285Y-81597142D01*
X106997142Y-80692380D02*
X106663809Y-81692380D01*
X106330476Y-80692380D01*
D11*
X129540000Y-62230000D02*
X129540000Y-82550000D01*
X101600000Y-62230000D02*
X129540000Y-62230000D01*
X101600000Y-85090000D02*
X101600000Y-87630000D01*
X101600000Y-62230000D02*
X101600000Y-64770000D01*
X101600000Y-64770000D02*
X100330000Y-64770000D01*
D10*
X124275714Y-64513809D02*
X125085238Y-64513809D01*
X125180476Y-64466190D01*
X125228095Y-64418571D01*
X125275714Y-64323333D01*
X125275714Y-64180476D01*
X125228095Y-64085238D01*
X124894761Y-64513809D02*
X124942380Y-64418571D01*
X124942380Y-64228095D01*
X124894761Y-64132857D01*
X124847142Y-64085238D01*
X124751904Y-64037619D01*
X124466190Y-64037619D01*
X124370952Y-64085238D01*
X124323333Y-64132857D01*
X124275714Y-64228095D01*
X124275714Y-64418571D01*
X124323333Y-64513809D01*
X124942380Y-64990000D02*
X124275714Y-64990000D01*
X123942380Y-64990000D02*
X123990000Y-64942380D01*
X124037619Y-64990000D01*
X123990000Y-65037619D01*
X123942380Y-64990000D01*
X124037619Y-64990000D01*
X124275714Y-65323333D02*
X124275714Y-65704285D01*
X123942380Y-65466190D02*
X124799523Y-65466190D01*
X124894761Y-65513809D01*
X124942380Y-65609047D01*
X124942380Y-65704285D01*
X124942380Y-66037619D02*
X123942380Y-66037619D01*
X124942380Y-66466190D02*
X124418571Y-66466190D01*
X124323333Y-66418571D01*
X124275714Y-66323333D01*
X124275714Y-66180476D01*
X124323333Y-66085238D01*
X124370952Y-66037619D01*
X124275714Y-67370952D02*
X124942380Y-67370952D01*
X124275714Y-66942380D02*
X124799523Y-66942380D01*
X124894761Y-66990000D01*
X124942380Y-67085238D01*
X124942380Y-67228095D01*
X124894761Y-67323333D01*
X124847142Y-67370952D01*
X124942380Y-67847142D02*
X123942380Y-67847142D01*
X124323333Y-67847142D02*
X124275714Y-67942380D01*
X124275714Y-68132857D01*
X124323333Y-68228095D01*
X124370952Y-68275714D01*
X124466190Y-68323333D01*
X124751904Y-68323333D01*
X124847142Y-68275714D01*
X124894761Y-68228095D01*
X124942380Y-68132857D01*
X124942380Y-67942380D01*
X124894761Y-67847142D01*
X124847142Y-68751904D02*
X124894761Y-68799523D01*
X124942380Y-68751904D01*
X124894761Y-68704285D01*
X124847142Y-68751904D01*
X124942380Y-68751904D01*
X124894761Y-69656666D02*
X124942380Y-69561428D01*
X124942380Y-69370952D01*
X124894761Y-69275714D01*
X124847142Y-69228095D01*
X124751904Y-69180476D01*
X124466190Y-69180476D01*
X124370952Y-69228095D01*
X124323333Y-69275714D01*
X124275714Y-69370952D01*
X124275714Y-69561428D01*
X124323333Y-69656666D01*
X124942380Y-70228095D02*
X124894761Y-70132857D01*
X124847142Y-70085238D01*
X124751904Y-70037619D01*
X124466190Y-70037619D01*
X124370952Y-70085238D01*
X124323333Y-70132857D01*
X124275714Y-70228095D01*
X124275714Y-70370952D01*
X124323333Y-70466190D01*
X124370952Y-70513809D01*
X124466190Y-70561428D01*
X124751904Y-70561428D01*
X124847142Y-70513809D01*
X124894761Y-70466190D01*
X124942380Y-70370952D01*
X124942380Y-70228095D01*
X124942380Y-70990000D02*
X124275714Y-70990000D01*
X124370952Y-70990000D02*
X124323333Y-71037619D01*
X124275714Y-71132857D01*
X124275714Y-71275714D01*
X124323333Y-71370952D01*
X124418571Y-71418571D01*
X124942380Y-71418571D01*
X124418571Y-71418571D02*
X124323333Y-71466190D01*
X124275714Y-71561428D01*
X124275714Y-71704285D01*
X124323333Y-71799523D01*
X124418571Y-71847142D01*
X124942380Y-71847142D01*
X123894761Y-73037619D02*
X125180476Y-72180476D01*
X125592380Y-62870952D02*
X125592380Y-63442380D01*
X126592380Y-63156666D02*
X125592380Y-63156666D01*
X126592380Y-63775714D02*
X125592380Y-63775714D01*
X126592380Y-64204285D02*
X126068571Y-64204285D01*
X125973333Y-64156666D01*
X125925714Y-64061428D01*
X125925714Y-63918571D01*
X125973333Y-63823333D01*
X126020952Y-63775714D01*
X126592380Y-64680476D02*
X125925714Y-64680476D01*
X125592380Y-64680476D02*
X125640000Y-64632857D01*
X125687619Y-64680476D01*
X125640000Y-64728095D01*
X125592380Y-64680476D01*
X125687619Y-64680476D01*
X126544761Y-65537619D02*
X126592380Y-65442380D01*
X126592380Y-65251904D01*
X126544761Y-65156666D01*
X126449523Y-65109047D01*
X126068571Y-65109047D01*
X125973333Y-65156666D01*
X125925714Y-65251904D01*
X125925714Y-65442380D01*
X125973333Y-65537619D01*
X126068571Y-65585238D01*
X126163809Y-65585238D01*
X126259047Y-65109047D01*
X126592380Y-66013809D02*
X125925714Y-66013809D01*
X126116190Y-66013809D02*
X126020952Y-66061428D01*
X125973333Y-66109047D01*
X125925714Y-66204285D01*
X125925714Y-66299523D01*
X126592380Y-66632857D02*
X125925714Y-66632857D01*
X126116190Y-66632857D02*
X126020952Y-66680476D01*
X125973333Y-66728095D01*
X125925714Y-66823333D01*
X125925714Y-66918571D01*
X125925714Y-67156666D02*
X126592380Y-67394761D01*
X125925714Y-67632857D02*
X126592380Y-67394761D01*
X126830476Y-67299523D01*
X126878095Y-67251904D01*
X126925714Y-67156666D01*
X125592380Y-68204285D02*
X125592380Y-68394761D01*
X125640000Y-68490000D01*
X125735238Y-68585238D01*
X125925714Y-68632857D01*
X126259047Y-68632857D01*
X126449523Y-68585238D01*
X126544761Y-68490000D01*
X126592380Y-68394761D01*
X126592380Y-68204285D01*
X126544761Y-68109047D01*
X126449523Y-68013809D01*
X126259047Y-67966190D01*
X125925714Y-67966190D01*
X125735238Y-68013809D01*
X125640000Y-68109047D01*
X125592380Y-68204285D01*
X126592380Y-69061428D02*
X125925714Y-69061428D01*
X126116190Y-69061428D02*
X126020952Y-69109047D01*
X125973333Y-69156666D01*
X125925714Y-69251904D01*
X125925714Y-69347142D01*
X126592380Y-69823333D02*
X126544761Y-69728095D01*
X126449523Y-69680476D01*
X125592380Y-69680476D01*
X126592380Y-70632857D02*
X126068571Y-70632857D01*
X125973333Y-70585238D01*
X125925714Y-70490000D01*
X125925714Y-70299523D01*
X125973333Y-70204285D01*
X126544761Y-70632857D02*
X126592380Y-70537619D01*
X126592380Y-70299523D01*
X126544761Y-70204285D01*
X126449523Y-70156666D01*
X126354285Y-70156666D01*
X126259047Y-70204285D01*
X126211428Y-70299523D01*
X126211428Y-70537619D01*
X126163809Y-70632857D01*
X125925714Y-71109047D02*
X126592380Y-71109047D01*
X126020952Y-71109047D02*
X125973333Y-71156666D01*
X125925714Y-71251904D01*
X125925714Y-71394761D01*
X125973333Y-71490000D01*
X126068571Y-71537619D01*
X126592380Y-71537619D01*
X126592380Y-72442380D02*
X125592380Y-72442380D01*
X126544761Y-72442380D02*
X126592380Y-72347142D01*
X126592380Y-72156666D01*
X126544761Y-72061428D01*
X126497142Y-72013809D01*
X126401904Y-71966190D01*
X126116190Y-71966190D01*
X126020952Y-72013809D01*
X125973333Y-72061428D01*
X125925714Y-72156666D01*
X125925714Y-72347142D01*
X125973333Y-72442380D01*
X126592380Y-72918571D02*
X125925714Y-72918571D01*
X125592380Y-72918571D02*
X125640000Y-72870952D01*
X125687619Y-72918571D01*
X125640000Y-72966190D01*
X125592380Y-72918571D01*
X125687619Y-72918571D01*
X125544761Y-74109047D02*
X126830476Y-73251904D01*
X127242380Y-64085238D02*
X127242380Y-64180476D01*
X127290000Y-64275714D01*
X127337619Y-64323333D01*
X127432857Y-64370952D01*
X127623333Y-64418571D01*
X127861428Y-64418571D01*
X128051904Y-64370952D01*
X128147142Y-64323333D01*
X128194761Y-64275714D01*
X128242380Y-64180476D01*
X128242380Y-64085238D01*
X128194761Y-63990000D01*
X128147142Y-63942380D01*
X128051904Y-63894761D01*
X127861428Y-63847142D01*
X127623333Y-63847142D01*
X127432857Y-63894761D01*
X127337619Y-63942380D01*
X127290000Y-63990000D01*
X127242380Y-64085238D01*
X127337619Y-64799523D02*
X127290000Y-64847142D01*
X127242380Y-64942380D01*
X127242380Y-65180476D01*
X127290000Y-65275714D01*
X127337619Y-65323333D01*
X127432857Y-65370952D01*
X127528095Y-65370952D01*
X127670952Y-65323333D01*
X128242380Y-64751904D01*
X128242380Y-65370952D01*
X128337619Y-65561428D02*
X128337619Y-66323333D01*
X127718571Y-66894761D02*
X127766190Y-67037619D01*
X127813809Y-67085238D01*
X127909047Y-67132857D01*
X128051904Y-67132857D01*
X128147142Y-67085238D01*
X128194761Y-67037619D01*
X128242380Y-66942380D01*
X128242380Y-66561428D01*
X127242380Y-66561428D01*
X127242380Y-66894761D01*
X127290000Y-66990000D01*
X127337619Y-67037619D01*
X127432857Y-67085238D01*
X127528095Y-67085238D01*
X127623333Y-67037619D01*
X127670952Y-66990000D01*
X127718571Y-66894761D01*
X127718571Y-66561428D01*
X128242380Y-67990000D02*
X127718571Y-67990000D01*
X127623333Y-67942380D01*
X127575714Y-67847142D01*
X127575714Y-67656666D01*
X127623333Y-67561428D01*
X128194761Y-67990000D02*
X128242380Y-67894761D01*
X128242380Y-67656666D01*
X128194761Y-67561428D01*
X128099523Y-67513809D01*
X128004285Y-67513809D01*
X127909047Y-67561428D01*
X127861428Y-67656666D01*
X127861428Y-67894761D01*
X127813809Y-67990000D01*
X127575714Y-68323333D02*
X127575714Y-68704285D01*
X127242380Y-68466190D02*
X128099523Y-68466190D01*
X128194761Y-68513809D01*
X128242380Y-68609047D01*
X128242380Y-68704285D01*
X127575714Y-68894761D02*
X127575714Y-69275714D01*
X127242380Y-69037619D02*
X128099523Y-69037619D01*
X128194761Y-69085238D01*
X128242380Y-69180476D01*
X128242380Y-69275714D01*
X128337619Y-69370952D02*
X128337619Y-70132857D01*
X127956666Y-70323333D02*
X127956666Y-70799523D01*
X128242380Y-70228095D02*
X127242380Y-70561428D01*
X128242380Y-70894761D01*
X128242380Y-71370952D02*
X128194761Y-71275714D01*
X128099523Y-71228095D01*
X127242380Y-71228095D01*
X128242380Y-71751904D02*
X127575714Y-71751904D01*
X127242380Y-71751904D02*
X127290000Y-71704285D01*
X127337619Y-71751904D01*
X127290000Y-71799523D01*
X127242380Y-71751904D01*
X127337619Y-71751904D01*
X128242380Y-72228095D02*
X127575714Y-72228095D01*
X127670952Y-72228095D02*
X127623333Y-72275714D01*
X127575714Y-72370952D01*
X127575714Y-72513809D01*
X127623333Y-72609047D01*
X127718571Y-72656666D01*
X128242380Y-72656666D01*
X127718571Y-72656666D02*
X127623333Y-72704285D01*
X127575714Y-72799523D01*
X127575714Y-72942380D01*
X127623333Y-73037619D01*
X127718571Y-73085238D01*
X128242380Y-73085238D01*
D11*
X129540000Y-87630000D02*
X101600000Y-87630000D01*
X100340000Y-69850000D02*
X100330000Y-64770000D01*
D10*
X109247142Y-73418571D02*
X109104285Y-73466190D01*
X109056666Y-73513809D01*
X109009047Y-73609047D01*
X109009047Y-73751904D01*
X109056666Y-73847142D01*
X109104285Y-73894761D01*
X109199523Y-73942380D01*
X109580476Y-73942380D01*
X109580476Y-72942380D01*
X109247142Y-72942380D01*
X109151904Y-72990000D01*
X109104285Y-73037619D01*
X109056666Y-73132857D01*
X109056666Y-73228095D01*
X109104285Y-73323333D01*
X109151904Y-73370952D01*
X109247142Y-73418571D01*
X109580476Y-73418571D01*
X108628095Y-73656666D02*
X108151904Y-73656666D01*
X108723333Y-73942380D02*
X108390000Y-72942380D01*
X108056666Y-73942380D01*
X107866190Y-72942380D02*
X107294761Y-72942380D01*
X107580476Y-73942380D02*
X107580476Y-72942380D01*
X106961428Y-73561428D02*
X106199523Y-73561428D01*
X106580476Y-73942380D02*
X106580476Y-73180476D01*
X108401904Y-68040000D02*
X108497142Y-67992380D01*
X108640000Y-67992380D01*
X108782857Y-68040000D01*
X108878095Y-68135238D01*
X108925714Y-68230476D01*
X108973333Y-68420952D01*
X108973333Y-68563809D01*
X108925714Y-68754285D01*
X108878095Y-68849523D01*
X108782857Y-68944761D01*
X108640000Y-68992380D01*
X108544761Y-68992380D01*
X108401904Y-68944761D01*
X108354285Y-68897142D01*
X108354285Y-68563809D01*
X108544761Y-68563809D01*
X107925714Y-68992380D02*
X107925714Y-67992380D01*
X107354285Y-68992380D01*
X107354285Y-67992380D01*
X106878095Y-68992380D02*
X106878095Y-67992380D01*
X106640000Y-67992380D01*
X106497142Y-68040000D01*
X106401904Y-68135238D01*
X106354285Y-68230476D01*
X106306666Y-68420952D01*
X106306666Y-68563809D01*
X106354285Y-68754285D01*
X106401904Y-68849523D01*
X106497142Y-68944761D01*
X106640000Y-68992380D01*
X106878095Y-68992380D01*
X109973333Y-65492380D02*
X109640000Y-66492380D01*
X109306666Y-65492380D01*
X109211428Y-66587619D02*
X108449523Y-66587619D01*
X107830476Y-66444761D02*
X107925714Y-66492380D01*
X108116190Y-66492380D01*
X108211428Y-66444761D01*
X108259047Y-66349523D01*
X108259047Y-65968571D01*
X108211428Y-65873333D01*
X108116190Y-65825714D01*
X107925714Y-65825714D01*
X107830476Y-65873333D01*
X107782857Y-65968571D01*
X107782857Y-66063809D01*
X108259047Y-66159047D01*
X107449523Y-66492380D02*
X106925714Y-65825714D01*
X107449523Y-65825714D02*
X106925714Y-66492380D01*
X106687619Y-65825714D02*
X106306666Y-65825714D01*
X106544761Y-65492380D02*
X106544761Y-66349523D01*
X106497142Y-66444761D01*
X106401904Y-66492380D01*
X106306666Y-66492380D01*
D12*
X115257857Y-75597142D02*
X115329285Y-75811428D01*
X115400714Y-75882857D01*
X115543571Y-75954285D01*
X115757857Y-75954285D01*
X115900714Y-75882857D01*
X115972142Y-75811428D01*
X116043571Y-75668571D01*
X116043571Y-75097142D01*
X114543571Y-75097142D01*
X114543571Y-75597142D01*
X114615000Y-75740000D01*
X114686428Y-75811428D01*
X114829285Y-75882857D01*
X114972142Y-75882857D01*
X115115000Y-75811428D01*
X115186428Y-75740000D01*
X115257857Y-75597142D01*
X115257857Y-75097142D01*
X116043571Y-77240000D02*
X115257857Y-77240000D01*
X115115000Y-77168571D01*
X115043571Y-77025714D01*
X115043571Y-76740000D01*
X115115000Y-76597142D01*
X115972142Y-77240000D02*
X116043571Y-77097142D01*
X116043571Y-76740000D01*
X115972142Y-76597142D01*
X115829285Y-76525714D01*
X115686428Y-76525714D01*
X115543571Y-76597142D01*
X115472142Y-76740000D01*
X115472142Y-77097142D01*
X115400714Y-77240000D01*
X115043571Y-77740000D02*
X115043571Y-78311428D01*
X114543571Y-77954285D02*
X115829285Y-77954285D01*
X115972142Y-78025714D01*
X116043571Y-78168571D01*
X116043571Y-78311428D01*
X115043571Y-78597142D02*
X115043571Y-79168571D01*
X114543571Y-78811428D02*
X115829285Y-78811428D01*
X115972142Y-78882857D01*
X116043571Y-79025714D01*
X116043571Y-79168571D01*
X116186428Y-79311428D02*
X116186428Y-80454285D01*
X115615000Y-80740000D02*
X115615000Y-81454285D01*
X116043571Y-80597142D02*
X114543571Y-81097142D01*
X116043571Y-81597142D01*
X116043571Y-82311428D02*
X115972142Y-82168571D01*
X115829285Y-82097142D01*
X114543571Y-82097142D01*
X116043571Y-82882857D02*
X115043571Y-82882857D01*
X114543571Y-82882857D02*
X114615000Y-82811428D01*
X114686428Y-82882857D01*
X114615000Y-82954285D01*
X114543571Y-82882857D01*
X114686428Y-82882857D01*
X116043571Y-83597142D02*
X115043571Y-83597142D01*
X115186428Y-83597142D02*
X115115000Y-83668571D01*
X115043571Y-83811428D01*
X115043571Y-84025714D01*
X115115000Y-84168571D01*
X115257857Y-84240000D01*
X116043571Y-84240000D01*
X115257857Y-84240000D02*
X115115000Y-84311428D01*
X115043571Y-84454285D01*
X115043571Y-84668571D01*
X115115000Y-84811428D01*
X115257857Y-84882857D01*
X116043571Y-84882857D01*
X117236428Y-72990000D02*
X117165000Y-73061428D01*
X117093571Y-73204285D01*
X117093571Y-73561428D01*
X117165000Y-73704285D01*
X117236428Y-73775714D01*
X117379285Y-73847142D01*
X117522142Y-73847142D01*
X117736428Y-73775714D01*
X118593571Y-72918571D01*
X118593571Y-73847142D01*
X117093571Y-74775714D02*
X117093571Y-74918571D01*
X117165000Y-75061428D01*
X117236428Y-75132857D01*
X117379285Y-75204285D01*
X117665000Y-75275714D01*
X118022142Y-75275714D01*
X118307857Y-75204285D01*
X118450714Y-75132857D01*
X118522142Y-75061428D01*
X118593571Y-74918571D01*
X118593571Y-74775714D01*
X118522142Y-74632857D01*
X118450714Y-74561428D01*
X118307857Y-74490000D01*
X118022142Y-74418571D01*
X117665000Y-74418571D01*
X117379285Y-74490000D01*
X117236428Y-74561428D01*
X117165000Y-74632857D01*
X117093571Y-74775714D01*
X117236428Y-75847142D02*
X117165000Y-75918571D01*
X117093571Y-76061428D01*
X117093571Y-76418571D01*
X117165000Y-76561428D01*
X117236428Y-76632857D01*
X117379285Y-76704285D01*
X117522142Y-76704285D01*
X117736428Y-76632857D01*
X118593571Y-75775714D01*
X118593571Y-76704285D01*
X118593571Y-78132857D02*
X118593571Y-77275714D01*
X118593571Y-77704285D02*
X117093571Y-77704285D01*
X117307857Y-77561428D01*
X117450714Y-77418571D01*
X117522142Y-77275714D01*
X117022142Y-79847142D02*
X118950714Y-78561428D01*
X117093571Y-80632857D02*
X117093571Y-80775714D01*
X117165000Y-80918571D01*
X117236428Y-80990000D01*
X117379285Y-81061428D01*
X117665000Y-81132857D01*
X118022142Y-81132857D01*
X118307857Y-81061428D01*
X118450714Y-80990000D01*
X118522142Y-80918571D01*
X118593571Y-80775714D01*
X118593571Y-80632857D01*
X118522142Y-80490000D01*
X118450714Y-80418571D01*
X118307857Y-80347142D01*
X118022142Y-80275714D01*
X117665000Y-80275714D01*
X117379285Y-80347142D01*
X117236428Y-80418571D01*
X117165000Y-80490000D01*
X117093571Y-80632857D01*
X117093571Y-82490000D02*
X117093571Y-81775714D01*
X117807857Y-81704285D01*
X117736428Y-81775714D01*
X117665000Y-81918571D01*
X117665000Y-82275714D01*
X117736428Y-82418571D01*
X117807857Y-82490000D01*
X117950714Y-82561428D01*
X118307857Y-82561428D01*
X118450714Y-82490000D01*
X118522142Y-82418571D01*
X118593571Y-82275714D01*
X118593571Y-81918571D01*
X118522142Y-81775714D01*
X118450714Y-81704285D01*
X117022142Y-84275714D02*
X118950714Y-82990000D01*
X117093571Y-84632857D02*
X117093571Y-85561428D01*
X117665000Y-85061428D01*
X117665000Y-85275714D01*
X117736428Y-85418571D01*
X117807857Y-85490000D01*
X117950714Y-85561428D01*
X118307857Y-85561428D01*
X118450714Y-85490000D01*
X118522142Y-85418571D01*
X118593571Y-85275714D01*
X118593571Y-84847142D01*
X118522142Y-84704285D01*
X118450714Y-84632857D01*
X118593571Y-86990000D02*
X118593571Y-86132857D01*
X118593571Y-86561428D02*
X117093571Y-86561428D01*
X117307857Y-86418571D01*
X117450714Y-86275714D01*
X117522142Y-86132857D01*
M02*
