%TF.GenerationSoftware,KiCad,Pcbnew,(5.1.9)-1*%
%TF.CreationDate,2021-05-31T10:41:26+02:00*%
%TF.ProjectId,02_Batt_Alim,30325f42-6174-4745-9f41-6c696d2e6b69,rev?*%
%TF.SameCoordinates,Original*%
%TF.FileFunction,Profile,NP*%
%FSLAX46Y46*%
G04 Gerber Fmt 4.6, Leading zero omitted, Abs format (unit mm)*
G04 Created by KiCad (PCBNEW (5.1.9)-1) date 2021-05-31 10:41:26*
%MOMM*%
%LPD*%
G01*
G04 APERTURE LIST*
%TA.AperFunction,Profile*%
%ADD10C,0.050000*%
%TD*%
G04 APERTURE END LIST*
D10*
X130810000Y-82550000D02*
X129540000Y-82550000D01*
X130810000Y-85090000D02*
X130810000Y-82550000D01*
X129540000Y-85090000D02*
X130810000Y-85090000D01*
X129540000Y-87630000D02*
X129540000Y-85090000D01*
X100330000Y-85090000D02*
X101600000Y-85090000D01*
X100330000Y-80010000D02*
X100330000Y-85090000D01*
X101600000Y-80010000D02*
X100330000Y-80010000D01*
X101600000Y-77470000D02*
X101600000Y-80010000D01*
X100330000Y-77470000D02*
X101600000Y-77470000D01*
X100330000Y-72390000D02*
X100330000Y-77470000D01*
X101600000Y-72390000D02*
X100330000Y-72390000D01*
X101600000Y-69850000D02*
X101600000Y-72390000D01*
X100340000Y-69850000D02*
X101600000Y-69850000D01*
X129540000Y-62230000D02*
X129540000Y-82550000D01*
X101600000Y-62230000D02*
X129540000Y-62230000D01*
X101600000Y-85090000D02*
X101600000Y-87630000D01*
X101600000Y-62230000D02*
X101600000Y-64770000D01*
X101600000Y-64770000D02*
X100330000Y-64770000D01*
X129540000Y-87630000D02*
X101600000Y-87630000D01*
X100340000Y-69850000D02*
X100330000Y-64770000D01*
M02*
