%TF.GenerationSoftware,KiCad,Pcbnew,(5.1.6)-1*%
%TF.CreationDate,2021-02-23T00:21:00+01:00*%
%TF.ProjectId,02_Batt_Alim,30325f42-6174-4745-9f41-6c696d2e6b69,rev?*%
%TF.SameCoordinates,Original*%
%TF.FileFunction,Legend,Top*%
%TF.FilePolarity,Positive*%
%FSLAX46Y46*%
G04 Gerber Fmt 4.6, Leading zero omitted, Abs format (unit mm)*
G04 Created by KiCad (PCBNEW (5.1.6)-1) date 2021-02-23 00:21:00*
%MOMM*%
%LPD*%
G01*
G04 APERTURE LIST*
%TA.AperFunction,Profile*%
%ADD10C,0.050000*%
%TD*%
%ADD11C,0.250000*%
%ADD12C,0.150000*%
%ADD13C,0.120000*%
%ADD14C,0.127000*%
%ADD15C,0.100000*%
G04 APERTURE END LIST*
D10*
X129540000Y-62230000D02*
X129540000Y-87630000D01*
X101600000Y-62230000D02*
X129540000Y-62230000D01*
X101600000Y-74930000D02*
X101600000Y-87630000D01*
X100330000Y-74930000D02*
X101600000Y-74930000D01*
X101600000Y-62230000D02*
X101600000Y-64770000D01*
X101600000Y-64770000D02*
X100330000Y-64770000D01*
D11*
X128368571Y-86287619D02*
X128416190Y-86144761D01*
X128463809Y-86097142D01*
X128559047Y-86049523D01*
X128701904Y-86049523D01*
X128797142Y-86097142D01*
X128844761Y-86144761D01*
X128892380Y-86240000D01*
X128892380Y-86620952D01*
X127892380Y-86620952D01*
X127892380Y-86287619D01*
X127940000Y-86192380D01*
X127987619Y-86144761D01*
X128082857Y-86097142D01*
X128178095Y-86097142D01*
X128273333Y-86144761D01*
X128320952Y-86192380D01*
X128368571Y-86287619D01*
X128368571Y-86620952D01*
X128892380Y-85192380D02*
X128368571Y-85192380D01*
X128273333Y-85240000D01*
X128225714Y-85335238D01*
X128225714Y-85525714D01*
X128273333Y-85620952D01*
X128844761Y-85192380D02*
X128892380Y-85287619D01*
X128892380Y-85525714D01*
X128844761Y-85620952D01*
X128749523Y-85668571D01*
X128654285Y-85668571D01*
X128559047Y-85620952D01*
X128511428Y-85525714D01*
X128511428Y-85287619D01*
X128463809Y-85192380D01*
X128225714Y-84859047D02*
X128225714Y-84478095D01*
X127892380Y-84716190D02*
X128749523Y-84716190D01*
X128844761Y-84668571D01*
X128892380Y-84573333D01*
X128892380Y-84478095D01*
X128225714Y-84287619D02*
X128225714Y-83906666D01*
X127892380Y-84144761D02*
X128749523Y-84144761D01*
X128844761Y-84097142D01*
X128892380Y-84001904D01*
X128892380Y-83906666D01*
X128987619Y-83811428D02*
X128987619Y-83049523D01*
X128606666Y-82859047D02*
X128606666Y-82382857D01*
X128892380Y-82954285D02*
X127892380Y-82620952D01*
X128892380Y-82287619D01*
X128892380Y-81811428D02*
X128844761Y-81906666D01*
X128749523Y-81954285D01*
X127892380Y-81954285D01*
X128892380Y-81430476D02*
X128225714Y-81430476D01*
X127892380Y-81430476D02*
X127940000Y-81478095D01*
X127987619Y-81430476D01*
X127940000Y-81382857D01*
X127892380Y-81430476D01*
X127987619Y-81430476D01*
X128892380Y-80954285D02*
X128225714Y-80954285D01*
X128320952Y-80954285D02*
X128273333Y-80906666D01*
X128225714Y-80811428D01*
X128225714Y-80668571D01*
X128273333Y-80573333D01*
X128368571Y-80525714D01*
X128892380Y-80525714D01*
X128368571Y-80525714D02*
X128273333Y-80478095D01*
X128225714Y-80382857D01*
X128225714Y-80240000D01*
X128273333Y-80144761D01*
X128368571Y-80097142D01*
X128892380Y-80097142D01*
X127987619Y-78144761D02*
X127940000Y-78097142D01*
X127892380Y-78001904D01*
X127892380Y-77763809D01*
X127940000Y-77668571D01*
X127987619Y-77620952D01*
X128082857Y-77573333D01*
X128178095Y-77573333D01*
X128320952Y-77620952D01*
X128892380Y-78192380D01*
X128892380Y-77573333D01*
X127892380Y-76954285D02*
X127892380Y-76859047D01*
X127940000Y-76763809D01*
X127987619Y-76716190D01*
X128082857Y-76668571D01*
X128273333Y-76620952D01*
X128511428Y-76620952D01*
X128701904Y-76668571D01*
X128797142Y-76716190D01*
X128844761Y-76763809D01*
X128892380Y-76859047D01*
X128892380Y-76954285D01*
X128844761Y-77049523D01*
X128797142Y-77097142D01*
X128701904Y-77144761D01*
X128511428Y-77192380D01*
X128273333Y-77192380D01*
X128082857Y-77144761D01*
X127987619Y-77097142D01*
X127940000Y-77049523D01*
X127892380Y-76954285D01*
X127987619Y-76240000D02*
X127940000Y-76192380D01*
X127892380Y-76097142D01*
X127892380Y-75859047D01*
X127940000Y-75763809D01*
X127987619Y-75716190D01*
X128082857Y-75668571D01*
X128178095Y-75668571D01*
X128320952Y-75716190D01*
X128892380Y-76287619D01*
X128892380Y-75668571D01*
X128892380Y-74716190D02*
X128892380Y-75287619D01*
X128892380Y-75001904D02*
X127892380Y-75001904D01*
X128035238Y-75097142D01*
X128130476Y-75192380D01*
X128178095Y-75287619D01*
X127844761Y-73573333D02*
X129130476Y-74430476D01*
X127892380Y-73049523D02*
X127892380Y-72954285D01*
X127940000Y-72859047D01*
X127987619Y-72811428D01*
X128082857Y-72763809D01*
X128273333Y-72716190D01*
X128511428Y-72716190D01*
X128701904Y-72763809D01*
X128797142Y-72811428D01*
X128844761Y-72859047D01*
X128892380Y-72954285D01*
X128892380Y-73049523D01*
X128844761Y-73144761D01*
X128797142Y-73192380D01*
X128701904Y-73240000D01*
X128511428Y-73287619D01*
X128273333Y-73287619D01*
X128082857Y-73240000D01*
X127987619Y-73192380D01*
X127940000Y-73144761D01*
X127892380Y-73049523D01*
X127987619Y-72335238D02*
X127940000Y-72287619D01*
X127892380Y-72192380D01*
X127892380Y-71954285D01*
X127940000Y-71859047D01*
X127987619Y-71811428D01*
X128082857Y-71763809D01*
X128178095Y-71763809D01*
X128320952Y-71811428D01*
X128892380Y-72382857D01*
X128892380Y-71763809D01*
X127844761Y-70620952D02*
X129130476Y-71478095D01*
X127987619Y-70335238D02*
X127940000Y-70287619D01*
X127892380Y-70192380D01*
X127892380Y-69954285D01*
X127940000Y-69859047D01*
X127987619Y-69811428D01*
X128082857Y-69763809D01*
X128178095Y-69763809D01*
X128320952Y-69811428D01*
X128892380Y-70382857D01*
X128892380Y-69763809D01*
X127892380Y-69430476D02*
X127892380Y-68811428D01*
X128273333Y-69144761D01*
X128273333Y-69001904D01*
X128320952Y-68906666D01*
X128368571Y-68859047D01*
X128463809Y-68811428D01*
X128701904Y-68811428D01*
X128797142Y-68859047D01*
X128844761Y-68906666D01*
X128892380Y-69001904D01*
X128892380Y-69287619D01*
X128844761Y-69382857D01*
X128797142Y-69430476D01*
D10*
X129540000Y-87630000D02*
X101600000Y-87630000D01*
X100330000Y-74930000D02*
X100330000Y-64770000D01*
D12*
X103020952Y-80192380D02*
X102544761Y-80192380D01*
X102497142Y-80668571D01*
X102544761Y-80620952D01*
X102640000Y-80573333D01*
X102878095Y-80573333D01*
X102973333Y-80620952D01*
X103020952Y-80668571D01*
X103068571Y-80763809D01*
X103068571Y-81001904D01*
X103020952Y-81097142D01*
X102973333Y-81144761D01*
X102878095Y-81192380D01*
X102640000Y-81192380D01*
X102544761Y-81144761D01*
X102497142Y-81097142D01*
X103354285Y-80192380D02*
X103687619Y-81192380D01*
X104020952Y-80192380D01*
X105306666Y-80192380D02*
X105497142Y-80192380D01*
X105592380Y-80240000D01*
X105687619Y-80335238D01*
X105735238Y-80525714D01*
X105735238Y-80859047D01*
X105687619Y-81049523D01*
X105592380Y-81144761D01*
X105497142Y-81192380D01*
X105306666Y-81192380D01*
X105211428Y-81144761D01*
X105116190Y-81049523D01*
X105068571Y-80859047D01*
X105068571Y-80525714D01*
X105116190Y-80335238D01*
X105211428Y-80240000D01*
X105306666Y-80192380D01*
X106163809Y-81192380D02*
X106163809Y-80192380D01*
X106735238Y-81192380D01*
X106735238Y-80192380D01*
X122535238Y-71144761D02*
X122487619Y-71287619D01*
X122487619Y-71525714D01*
X122535238Y-71620952D01*
X122582857Y-71668571D01*
X122678095Y-71716190D01*
X122773333Y-71716190D01*
X122868571Y-71668571D01*
X122916190Y-71620952D01*
X122963809Y-71525714D01*
X123011428Y-71335238D01*
X123059047Y-71240000D01*
X123106666Y-71192380D01*
X123201904Y-71144761D01*
X123297142Y-71144761D01*
X123392380Y-71192380D01*
X123440000Y-71240000D01*
X123487619Y-71335238D01*
X123487619Y-71573333D01*
X123440000Y-71716190D01*
X123487619Y-72001904D02*
X123487619Y-72573333D01*
X122487619Y-72287619D02*
X123487619Y-72287619D01*
X123011428Y-73240000D02*
X122963809Y-73382857D01*
X122916190Y-73430476D01*
X122820952Y-73478095D01*
X122678095Y-73478095D01*
X122582857Y-73430476D01*
X122535238Y-73382857D01*
X122487619Y-73287619D01*
X122487619Y-72906666D01*
X123487619Y-72906666D01*
X123487619Y-73240000D01*
X123440000Y-73335238D01*
X123392380Y-73382857D01*
X123297142Y-73430476D01*
X123201904Y-73430476D01*
X123106666Y-73382857D01*
X123059047Y-73335238D01*
X123011428Y-73240000D01*
X123011428Y-72906666D01*
X122963809Y-74097142D02*
X122487619Y-74097142D01*
X123487619Y-73763809D02*
X122963809Y-74097142D01*
X123487619Y-74430476D01*
X124382857Y-72225714D02*
X124335238Y-72178095D01*
X124287619Y-72035238D01*
X124287619Y-71940000D01*
X124335238Y-71797142D01*
X124430476Y-71701904D01*
X124525714Y-71654285D01*
X124716190Y-71606666D01*
X124859047Y-71606666D01*
X125049523Y-71654285D01*
X125144761Y-71701904D01*
X125240000Y-71797142D01*
X125287619Y-71940000D01*
X125287619Y-72035238D01*
X125240000Y-72178095D01*
X125192380Y-72225714D01*
X124287619Y-72654285D02*
X125287619Y-72654285D01*
X124811428Y-72654285D02*
X124811428Y-73225714D01*
X124287619Y-73225714D02*
X125287619Y-73225714D01*
X125240000Y-74225714D02*
X125287619Y-74130476D01*
X125287619Y-73987619D01*
X125240000Y-73844761D01*
X125144761Y-73749523D01*
X125049523Y-73701904D01*
X124859047Y-73654285D01*
X124716190Y-73654285D01*
X124525714Y-73701904D01*
X124430476Y-73749523D01*
X124335238Y-73844761D01*
X124287619Y-73987619D01*
X124287619Y-74082857D01*
X124335238Y-74225714D01*
X124382857Y-74273333D01*
X124716190Y-74273333D01*
X124716190Y-74082857D01*
D13*
%TO.C,U1*%
X113520000Y-82580000D02*
X113520000Y-84040000D01*
X110360000Y-82580000D02*
X110360000Y-85740000D01*
X110360000Y-82580000D02*
X111290000Y-82580000D01*
X113520000Y-82580000D02*
X112590000Y-82580000D01*
%TO.C,C1*%
X120477221Y-69000000D02*
X120802779Y-69000000D01*
X120477221Y-67980000D02*
X120802779Y-67980000D01*
%TO.C,C2*%
X106880000Y-69077221D02*
X106880000Y-69402779D01*
X107900000Y-69077221D02*
X107900000Y-69402779D01*
%TO.C,C3*%
X107080000Y-83137936D02*
X107080000Y-84342064D01*
X109800000Y-83137936D02*
X109800000Y-84342064D01*
%TO.C,C4*%
X108942064Y-75780000D02*
X107737936Y-75780000D01*
X108942064Y-78500000D02*
X107737936Y-78500000D01*
%TO.C,D2*%
X125610000Y-67025000D02*
X125610000Y-64740000D01*
X124140000Y-67025000D02*
X125610000Y-67025000D01*
X124140000Y-64740000D02*
X124140000Y-67025000D01*
%TO.C,D3*%
X123765000Y-67025000D02*
X123765000Y-64740000D01*
X122295000Y-67025000D02*
X123765000Y-67025000D01*
X122295000Y-64740000D02*
X122295000Y-67025000D01*
%TO.C,D6*%
X106575000Y-84725000D02*
X106575000Y-82440000D01*
X105105000Y-84725000D02*
X106575000Y-84725000D01*
X105105000Y-82440000D02*
X105105000Y-84725000D01*
D14*
%TO.C,IC1*%
X116740000Y-72690000D02*
X116740000Y-68290000D01*
X116740000Y-68290000D02*
X112540000Y-68290000D01*
X112540000Y-68290000D02*
X112540000Y-72690000D01*
X112540000Y-72690000D02*
X116740000Y-72690000D01*
D15*
X116463606Y-72190000D02*
G75*
G03*
X116463606Y-72190000I-223606J0D01*
G01*
D13*
%TO.C,J1*%
X105470000Y-67370000D02*
X104140000Y-67370000D01*
X105470000Y-66040000D02*
X105470000Y-67370000D01*
X105470000Y-64770000D02*
X102810000Y-64770000D01*
X102810000Y-64770000D02*
X102810000Y-64710000D01*
X105470000Y-64770000D02*
X105470000Y-64710000D01*
X105470000Y-64710000D02*
X102810000Y-64710000D01*
%TO.C,J2*%
X105470000Y-69910000D02*
X104140000Y-69910000D01*
X105470000Y-68580000D02*
X105470000Y-69910000D01*
X105470000Y-67310000D02*
X102810000Y-67310000D01*
X102810000Y-67310000D02*
X102810000Y-67250000D01*
X105470000Y-67310000D02*
X105470000Y-67250000D01*
X105470000Y-67250000D02*
X102810000Y-67250000D01*
%TO.C,J3*%
X105470000Y-74990000D02*
X104140000Y-74990000D01*
X105470000Y-73660000D02*
X105470000Y-74990000D01*
X105470000Y-72390000D02*
X102810000Y-72390000D01*
X102810000Y-72390000D02*
X102810000Y-72330000D01*
X105470000Y-72390000D02*
X105470000Y-72330000D01*
X105470000Y-72330000D02*
X102810000Y-72330000D01*
%TO.C,J9*%
X105470000Y-72450000D02*
X104140000Y-72450000D01*
X105470000Y-71120000D02*
X105470000Y-72450000D01*
X105470000Y-69850000D02*
X102810000Y-69850000D01*
X102810000Y-69850000D02*
X102810000Y-69790000D01*
X105470000Y-69850000D02*
X105470000Y-69790000D01*
X105470000Y-69790000D02*
X102810000Y-69790000D01*
%TO.C,L1*%
X116590000Y-74990000D02*
X119790000Y-74990000D01*
X116590000Y-85590000D02*
X116590000Y-74990000D01*
X119790000Y-85590000D02*
X116590000Y-85590000D01*
X127190000Y-85590000D02*
X123990000Y-85590000D01*
X127190000Y-74990000D02*
X127190000Y-85590000D01*
X123990000Y-74990000D02*
X127190000Y-74990000D01*
%TO.C,R6*%
X124365000Y-68877221D02*
X124365000Y-69202779D01*
X125385000Y-68877221D02*
X125385000Y-69202779D01*
%TO.C,R7*%
X120477221Y-71630000D02*
X120802779Y-71630000D01*
X120477221Y-70610000D02*
X120802779Y-70610000D01*
%TO.C,R8*%
X122520000Y-68827221D02*
X122520000Y-69152779D01*
X123540000Y-68827221D02*
X123540000Y-69152779D01*
%TO.C,R9*%
X119150000Y-65652779D02*
X119150000Y-65327221D01*
X118130000Y-65652779D02*
X118130000Y-65327221D01*
%TO.C,R10*%
X117150000Y-65652779D02*
X117150000Y-65327221D01*
X116130000Y-65652779D02*
X116130000Y-65327221D01*
%TO.C,R12*%
X115150000Y-65652779D02*
X115150000Y-65327221D01*
X114130000Y-65652779D02*
X114130000Y-65327221D01*
%TO.C,R14*%
X113150000Y-65652779D02*
X113150000Y-65327221D01*
X112130000Y-65652779D02*
X112130000Y-65327221D01*
%TO.C,R15*%
X103330000Y-84577221D02*
X103330000Y-84902779D01*
X104350000Y-84577221D02*
X104350000Y-84902779D01*
%TO.C,D4*%
X125940000Y-69540000D02*
X125940000Y-65690000D01*
X127940000Y-69540000D02*
X127940000Y-65690000D01*
X125940000Y-69540000D02*
X127940000Y-69540000D01*
%TO.C,D5*%
X116040000Y-81640000D02*
X116040000Y-85490000D01*
X114040000Y-81640000D02*
X114040000Y-85490000D01*
X116040000Y-81640000D02*
X114040000Y-81640000D01*
%TO.C,D7*%
X111090000Y-66990000D02*
X111090000Y-64990000D01*
X111090000Y-64990000D02*
X107240000Y-64990000D01*
X111090000Y-66990000D02*
X107240000Y-66990000D01*
%TO.C,D8*%
X110640000Y-75240000D02*
X106790000Y-75240000D01*
X110640000Y-73240000D02*
X106790000Y-73240000D01*
X110640000Y-75240000D02*
X110640000Y-73240000D01*
%TD*%
M02*
