%TF.GenerationSoftware,KiCad,Pcbnew,(5.1.6)-1*%
%TF.CreationDate,2021-02-23T00:21:00+01:00*%
%TF.ProjectId,02_Batt_Alim,30325f42-6174-4745-9f41-6c696d2e6b69,rev?*%
%TF.SameCoordinates,Original*%
%TF.FileFunction,Paste,Top*%
%TF.FilePolarity,Positive*%
%FSLAX46Y46*%
G04 Gerber Fmt 4.6, Leading zero omitted, Abs format (unit mm)*
G04 Created by KiCad (PCBNEW (5.1.6)-1) date 2021-02-23 00:21:00*
%MOMM*%
%LPD*%
G01*
G04 APERTURE LIST*
%TA.AperFunction,Profile*%
%ADD10C,0.050000*%
%TD*%
%ADD11R,0.800000X1.900000*%
%ADD12R,2.200000X3.300000*%
%ADD13R,1.300000X0.700000*%
%ADD14R,2.524000X1.700000*%
%ADD15R,3.600000X2.700000*%
%ADD16R,1.100000X1.100000*%
G04 APERTURE END LIST*
D10*
X129540000Y-62230000D02*
X129540000Y-87630000D01*
X101600000Y-62230000D02*
X129540000Y-62230000D01*
X101600000Y-74930000D02*
X101600000Y-87630000D01*
X100330000Y-74930000D02*
X101600000Y-74930000D01*
X101600000Y-62230000D02*
X101600000Y-64770000D01*
X101600000Y-64770000D02*
X100330000Y-64770000D01*
X129540000Y-87630000D02*
X101600000Y-87630000D01*
X100330000Y-74930000D02*
X100330000Y-64770000D01*
D11*
%TO.C,U1*%
X111940000Y-81840000D03*
X112890000Y-84840000D03*
X110990000Y-84840000D03*
%TD*%
%TO.C,C1*%
G36*
G01*
X120990000Y-68746250D02*
X120990000Y-68233750D01*
G75*
G02*
X121208750Y-68015000I218750J0D01*
G01*
X121646250Y-68015000D01*
G75*
G02*
X121865000Y-68233750I0J-218750D01*
G01*
X121865000Y-68746250D01*
G75*
G02*
X121646250Y-68965000I-218750J0D01*
G01*
X121208750Y-68965000D01*
G75*
G02*
X120990000Y-68746250I0J218750D01*
G01*
G37*
G36*
G01*
X119415000Y-68746250D02*
X119415000Y-68233750D01*
G75*
G02*
X119633750Y-68015000I218750J0D01*
G01*
X120071250Y-68015000D01*
G75*
G02*
X120290000Y-68233750I0J-218750D01*
G01*
X120290000Y-68746250D01*
G75*
G02*
X120071250Y-68965000I-218750J0D01*
G01*
X119633750Y-68965000D01*
G75*
G02*
X119415000Y-68746250I0J218750D01*
G01*
G37*
%TD*%
%TO.C,C2*%
G36*
G01*
X107133750Y-69590000D02*
X107646250Y-69590000D01*
G75*
G02*
X107865000Y-69808750I0J-218750D01*
G01*
X107865000Y-70246250D01*
G75*
G02*
X107646250Y-70465000I-218750J0D01*
G01*
X107133750Y-70465000D01*
G75*
G02*
X106915000Y-70246250I0J218750D01*
G01*
X106915000Y-69808750D01*
G75*
G02*
X107133750Y-69590000I218750J0D01*
G01*
G37*
G36*
G01*
X107133750Y-68015000D02*
X107646250Y-68015000D01*
G75*
G02*
X107865000Y-68233750I0J-218750D01*
G01*
X107865000Y-68671250D01*
G75*
G02*
X107646250Y-68890000I-218750J0D01*
G01*
X107133750Y-68890000D01*
G75*
G02*
X106915000Y-68671250I0J218750D01*
G01*
X106915000Y-68233750D01*
G75*
G02*
X107133750Y-68015000I218750J0D01*
G01*
G37*
%TD*%
%TO.C,C3*%
G36*
G01*
X107365000Y-84515000D02*
X109515000Y-84515000D01*
G75*
G02*
X109765000Y-84765000I0J-250000D01*
G01*
X109765000Y-85515000D01*
G75*
G02*
X109515000Y-85765000I-250000J0D01*
G01*
X107365000Y-85765000D01*
G75*
G02*
X107115000Y-85515000I0J250000D01*
G01*
X107115000Y-84765000D01*
G75*
G02*
X107365000Y-84515000I250000J0D01*
G01*
G37*
G36*
G01*
X107365000Y-81715000D02*
X109515000Y-81715000D01*
G75*
G02*
X109765000Y-81965000I0J-250000D01*
G01*
X109765000Y-82715000D01*
G75*
G02*
X109515000Y-82965000I-250000J0D01*
G01*
X107365000Y-82965000D01*
G75*
G02*
X107115000Y-82715000I0J250000D01*
G01*
X107115000Y-81965000D01*
G75*
G02*
X107365000Y-81715000I250000J0D01*
G01*
G37*
%TD*%
%TO.C,C4*%
G36*
G01*
X107565000Y-76065000D02*
X107565000Y-78215000D01*
G75*
G02*
X107315000Y-78465000I-250000J0D01*
G01*
X106565000Y-78465000D01*
G75*
G02*
X106315000Y-78215000I0J250000D01*
G01*
X106315000Y-76065000D01*
G75*
G02*
X106565000Y-75815000I250000J0D01*
G01*
X107315000Y-75815000D01*
G75*
G02*
X107565000Y-76065000I0J-250000D01*
G01*
G37*
G36*
G01*
X110365000Y-76065000D02*
X110365000Y-78215000D01*
G75*
G02*
X110115000Y-78465000I-250000J0D01*
G01*
X109365000Y-78465000D01*
G75*
G02*
X109115000Y-78215000I0J250000D01*
G01*
X109115000Y-76065000D01*
G75*
G02*
X109365000Y-75815000I250000J0D01*
G01*
X110115000Y-75815000D01*
G75*
G02*
X110365000Y-76065000I0J-250000D01*
G01*
G37*
%TD*%
%TO.C,D2*%
G36*
G01*
X125131250Y-65190000D02*
X124618750Y-65190000D01*
G75*
G02*
X124400000Y-64971250I0J218750D01*
G01*
X124400000Y-64533750D01*
G75*
G02*
X124618750Y-64315000I218750J0D01*
G01*
X125131250Y-64315000D01*
G75*
G02*
X125350000Y-64533750I0J-218750D01*
G01*
X125350000Y-64971250D01*
G75*
G02*
X125131250Y-65190000I-218750J0D01*
G01*
G37*
G36*
G01*
X125131250Y-66765000D02*
X124618750Y-66765000D01*
G75*
G02*
X124400000Y-66546250I0J218750D01*
G01*
X124400000Y-66108750D01*
G75*
G02*
X124618750Y-65890000I218750J0D01*
G01*
X125131250Y-65890000D01*
G75*
G02*
X125350000Y-66108750I0J-218750D01*
G01*
X125350000Y-66546250D01*
G75*
G02*
X125131250Y-66765000I-218750J0D01*
G01*
G37*
%TD*%
%TO.C,D3*%
G36*
G01*
X123286250Y-65190000D02*
X122773750Y-65190000D01*
G75*
G02*
X122555000Y-64971250I0J218750D01*
G01*
X122555000Y-64533750D01*
G75*
G02*
X122773750Y-64315000I218750J0D01*
G01*
X123286250Y-64315000D01*
G75*
G02*
X123505000Y-64533750I0J-218750D01*
G01*
X123505000Y-64971250D01*
G75*
G02*
X123286250Y-65190000I-218750J0D01*
G01*
G37*
G36*
G01*
X123286250Y-66765000D02*
X122773750Y-66765000D01*
G75*
G02*
X122555000Y-66546250I0J218750D01*
G01*
X122555000Y-66108750D01*
G75*
G02*
X122773750Y-65890000I218750J0D01*
G01*
X123286250Y-65890000D01*
G75*
G02*
X123505000Y-66108750I0J-218750D01*
G01*
X123505000Y-66546250D01*
G75*
G02*
X123286250Y-66765000I-218750J0D01*
G01*
G37*
%TD*%
%TO.C,D6*%
G36*
G01*
X106096250Y-82890000D02*
X105583750Y-82890000D01*
G75*
G02*
X105365000Y-82671250I0J218750D01*
G01*
X105365000Y-82233750D01*
G75*
G02*
X105583750Y-82015000I218750J0D01*
G01*
X106096250Y-82015000D01*
G75*
G02*
X106315000Y-82233750I0J-218750D01*
G01*
X106315000Y-82671250D01*
G75*
G02*
X106096250Y-82890000I-218750J0D01*
G01*
G37*
G36*
G01*
X106096250Y-84465000D02*
X105583750Y-84465000D01*
G75*
G02*
X105365000Y-84246250I0J218750D01*
G01*
X105365000Y-83808750D01*
G75*
G02*
X105583750Y-83590000I218750J0D01*
G01*
X106096250Y-83590000D01*
G75*
G02*
X106315000Y-83808750I0J-218750D01*
G01*
X106315000Y-84246250D01*
G75*
G02*
X106096250Y-84465000I-218750J0D01*
G01*
G37*
%TD*%
D12*
%TO.C,IC1*%
X114640000Y-70490000D03*
X114640000Y-70490000D03*
D13*
X117390000Y-68585000D03*
X117390000Y-69855000D03*
X117390000Y-72395000D03*
X117390000Y-71125000D03*
X111890000Y-68585000D03*
X111890000Y-69855000D03*
X111890000Y-72395000D03*
X111890000Y-71125000D03*
%TD*%
D14*
%TO.C,J1*%
X102870000Y-66040000D03*
X102870000Y-66040000D03*
%TD*%
%TO.C,J2*%
X102870000Y-68580000D03*
X102870000Y-68580000D03*
%TD*%
%TO.C,J3*%
X102870000Y-73660000D03*
X102870000Y-73660000D03*
%TD*%
%TO.C,J9*%
X102870000Y-71120000D03*
X102870000Y-71120000D03*
%TD*%
D15*
%TO.C,L1*%
X121890000Y-76140000D03*
X121890000Y-84440000D03*
%TD*%
%TO.C,R6*%
G36*
G01*
X124618750Y-69390000D02*
X125131250Y-69390000D01*
G75*
G02*
X125350000Y-69608750I0J-218750D01*
G01*
X125350000Y-70046250D01*
G75*
G02*
X125131250Y-70265000I-218750J0D01*
G01*
X124618750Y-70265000D01*
G75*
G02*
X124400000Y-70046250I0J218750D01*
G01*
X124400000Y-69608750D01*
G75*
G02*
X124618750Y-69390000I218750J0D01*
G01*
G37*
G36*
G01*
X124618750Y-67815000D02*
X125131250Y-67815000D01*
G75*
G02*
X125350000Y-68033750I0J-218750D01*
G01*
X125350000Y-68471250D01*
G75*
G02*
X125131250Y-68690000I-218750J0D01*
G01*
X124618750Y-68690000D01*
G75*
G02*
X124400000Y-68471250I0J218750D01*
G01*
X124400000Y-68033750D01*
G75*
G02*
X124618750Y-67815000I218750J0D01*
G01*
G37*
%TD*%
%TO.C,R7*%
G36*
G01*
X120990000Y-71376250D02*
X120990000Y-70863750D01*
G75*
G02*
X121208750Y-70645000I218750J0D01*
G01*
X121646250Y-70645000D01*
G75*
G02*
X121865000Y-70863750I0J-218750D01*
G01*
X121865000Y-71376250D01*
G75*
G02*
X121646250Y-71595000I-218750J0D01*
G01*
X121208750Y-71595000D01*
G75*
G02*
X120990000Y-71376250I0J218750D01*
G01*
G37*
G36*
G01*
X119415000Y-71376250D02*
X119415000Y-70863750D01*
G75*
G02*
X119633750Y-70645000I218750J0D01*
G01*
X120071250Y-70645000D01*
G75*
G02*
X120290000Y-70863750I0J-218750D01*
G01*
X120290000Y-71376250D01*
G75*
G02*
X120071250Y-71595000I-218750J0D01*
G01*
X119633750Y-71595000D01*
G75*
G02*
X119415000Y-71376250I0J218750D01*
G01*
G37*
%TD*%
%TO.C,R8*%
G36*
G01*
X122773750Y-69340000D02*
X123286250Y-69340000D01*
G75*
G02*
X123505000Y-69558750I0J-218750D01*
G01*
X123505000Y-69996250D01*
G75*
G02*
X123286250Y-70215000I-218750J0D01*
G01*
X122773750Y-70215000D01*
G75*
G02*
X122555000Y-69996250I0J218750D01*
G01*
X122555000Y-69558750D01*
G75*
G02*
X122773750Y-69340000I218750J0D01*
G01*
G37*
G36*
G01*
X122773750Y-67765000D02*
X123286250Y-67765000D01*
G75*
G02*
X123505000Y-67983750I0J-218750D01*
G01*
X123505000Y-68421250D01*
G75*
G02*
X123286250Y-68640000I-218750J0D01*
G01*
X122773750Y-68640000D01*
G75*
G02*
X122555000Y-68421250I0J218750D01*
G01*
X122555000Y-67983750D01*
G75*
G02*
X122773750Y-67765000I218750J0D01*
G01*
G37*
%TD*%
%TO.C,R9*%
G36*
G01*
X118896250Y-65140000D02*
X118383750Y-65140000D01*
G75*
G02*
X118165000Y-64921250I0J218750D01*
G01*
X118165000Y-64483750D01*
G75*
G02*
X118383750Y-64265000I218750J0D01*
G01*
X118896250Y-64265000D01*
G75*
G02*
X119115000Y-64483750I0J-218750D01*
G01*
X119115000Y-64921250D01*
G75*
G02*
X118896250Y-65140000I-218750J0D01*
G01*
G37*
G36*
G01*
X118896250Y-66715000D02*
X118383750Y-66715000D01*
G75*
G02*
X118165000Y-66496250I0J218750D01*
G01*
X118165000Y-66058750D01*
G75*
G02*
X118383750Y-65840000I218750J0D01*
G01*
X118896250Y-65840000D01*
G75*
G02*
X119115000Y-66058750I0J-218750D01*
G01*
X119115000Y-66496250D01*
G75*
G02*
X118896250Y-66715000I-218750J0D01*
G01*
G37*
%TD*%
%TO.C,R10*%
G36*
G01*
X116896250Y-65140000D02*
X116383750Y-65140000D01*
G75*
G02*
X116165000Y-64921250I0J218750D01*
G01*
X116165000Y-64483750D01*
G75*
G02*
X116383750Y-64265000I218750J0D01*
G01*
X116896250Y-64265000D01*
G75*
G02*
X117115000Y-64483750I0J-218750D01*
G01*
X117115000Y-64921250D01*
G75*
G02*
X116896250Y-65140000I-218750J0D01*
G01*
G37*
G36*
G01*
X116896250Y-66715000D02*
X116383750Y-66715000D01*
G75*
G02*
X116165000Y-66496250I0J218750D01*
G01*
X116165000Y-66058750D01*
G75*
G02*
X116383750Y-65840000I218750J0D01*
G01*
X116896250Y-65840000D01*
G75*
G02*
X117115000Y-66058750I0J-218750D01*
G01*
X117115000Y-66496250D01*
G75*
G02*
X116896250Y-66715000I-218750J0D01*
G01*
G37*
%TD*%
%TO.C,R12*%
G36*
G01*
X114896250Y-65140000D02*
X114383750Y-65140000D01*
G75*
G02*
X114165000Y-64921250I0J218750D01*
G01*
X114165000Y-64483750D01*
G75*
G02*
X114383750Y-64265000I218750J0D01*
G01*
X114896250Y-64265000D01*
G75*
G02*
X115115000Y-64483750I0J-218750D01*
G01*
X115115000Y-64921250D01*
G75*
G02*
X114896250Y-65140000I-218750J0D01*
G01*
G37*
G36*
G01*
X114896250Y-66715000D02*
X114383750Y-66715000D01*
G75*
G02*
X114165000Y-66496250I0J218750D01*
G01*
X114165000Y-66058750D01*
G75*
G02*
X114383750Y-65840000I218750J0D01*
G01*
X114896250Y-65840000D01*
G75*
G02*
X115115000Y-66058750I0J-218750D01*
G01*
X115115000Y-66496250D01*
G75*
G02*
X114896250Y-66715000I-218750J0D01*
G01*
G37*
%TD*%
%TO.C,R14*%
G36*
G01*
X112896250Y-65140000D02*
X112383750Y-65140000D01*
G75*
G02*
X112165000Y-64921250I0J218750D01*
G01*
X112165000Y-64483750D01*
G75*
G02*
X112383750Y-64265000I218750J0D01*
G01*
X112896250Y-64265000D01*
G75*
G02*
X113115000Y-64483750I0J-218750D01*
G01*
X113115000Y-64921250D01*
G75*
G02*
X112896250Y-65140000I-218750J0D01*
G01*
G37*
G36*
G01*
X112896250Y-66715000D02*
X112383750Y-66715000D01*
G75*
G02*
X112165000Y-66496250I0J218750D01*
G01*
X112165000Y-66058750D01*
G75*
G02*
X112383750Y-65840000I218750J0D01*
G01*
X112896250Y-65840000D01*
G75*
G02*
X113115000Y-66058750I0J-218750D01*
G01*
X113115000Y-66496250D01*
G75*
G02*
X112896250Y-66715000I-218750J0D01*
G01*
G37*
%TD*%
%TO.C,R15*%
G36*
G01*
X103583750Y-85090000D02*
X104096250Y-85090000D01*
G75*
G02*
X104315000Y-85308750I0J-218750D01*
G01*
X104315000Y-85746250D01*
G75*
G02*
X104096250Y-85965000I-218750J0D01*
G01*
X103583750Y-85965000D01*
G75*
G02*
X103365000Y-85746250I0J218750D01*
G01*
X103365000Y-85308750D01*
G75*
G02*
X103583750Y-85090000I218750J0D01*
G01*
G37*
G36*
G01*
X103583750Y-83515000D02*
X104096250Y-83515000D01*
G75*
G02*
X104315000Y-83733750I0J-218750D01*
G01*
X104315000Y-84171250D01*
G75*
G02*
X104096250Y-84390000I-218750J0D01*
G01*
X103583750Y-84390000D01*
G75*
G02*
X103365000Y-84171250I0J218750D01*
G01*
X103365000Y-83733750D01*
G75*
G02*
X103583750Y-83515000I218750J0D01*
G01*
G37*
%TD*%
D16*
%TO.C,D4*%
X126940000Y-68740000D03*
X126940000Y-65940000D03*
%TD*%
%TO.C,D5*%
X115040000Y-82440000D03*
X115040000Y-85240000D03*
%TD*%
%TO.C,D7*%
X107490000Y-65990000D03*
X110290000Y-65990000D03*
%TD*%
%TO.C,D8*%
X109840000Y-74240000D03*
X107040000Y-74240000D03*
%TD*%
M02*
